<?xml version="1.0" encoding="UTF-8"?>
<!DOCTYPE svg PUBLIC "-//W3C//DTD SVG 1.1//EN" "http://www.w3.org/Graphics/SVG/1.1/DTD/svg11.dtd">
<svg version="1.1" id="Layer_1" xmlns="http://www.w3.org/2000/svg" xmlns:xlink="http://www.w3.org/1999/xlink" x="0px" y="0px" width="32px" height="32px" viewBox="0 0 32 32" enable-background="new 0 0 32 32" xml:space="preserve">
  <g id="icon">
    <polygon points="22.5,15.5 22.5,10.5 14.5,15.5 14.5,10.5 7.543,15.57 6.846,1.5 2.524,1.5 1.5,30.5 30.5,30.5 30.5,10.498" fill="#FFFFFF" stroke="#383838" stroke-width="1" stroke-miterlimit="10" stroke-linejoin="miter"/>
    <path d="M11.5,21.5H6.5v-2h5V21.5zM19.5,19.5h-5v2h5V19.5zM27.5,19.5h-5v2h5V19.5zM11.5,25.5H6.5v-2h5V25.5zM19.5,23.5h-5v2h5V23.5zM27.5,23.5h-5v2h5V23.5z" fill="#FFFFFF" stroke="#228BCB" stroke-width="1" stroke-miterlimit="10"/>
  </g>
</svg>
