<?xml version="1.0" encoding="UTF-8"?>
<!DOCTYPE svg PUBLIC "-//W3C//DTD SVG 1.1//EN" "http://www.w3.org/Graphics/SVG/1.1/DTD/svg11.dtd">
<svg version="1.1" id="Layer_1" xmlns="http://www.w3.org/2000/svg" xmlns:xlink="http://www.w3.org/1999/xlink" x="0px" y="0px" width="32px" height="32px" viewBox="0 0 32 32" enable-background="new 0 0 32 32" xml:space="preserve">
  <g id="icon">
    <path d="M3.5,30.5V13.5h25v17" fill="#FFFFFF" stroke="#700000" stroke-width="1" stroke-miterlimit="10"/>
    <line x1="1" y1="30.5" x2="31" y2="30.5" fill="#FFFFFF" stroke="#700000" stroke-width="1" stroke-miterlimit="10"/>
    <line x1="1" y1="13.5" x2="31" y2="13.5" fill="#FFFFFF" stroke="#700000" stroke-width="1" stroke-miterlimit="10"/>
    <line x1="15.5" y1="14" x2="15.5" y2="5" fill="#FFFFFF" stroke="#700000" stroke-width="1" stroke-miterlimit="10"/>
    <path d="M22.5,10.3c-2.3,-1.4,-4.637,1.042,-7,-0.3V6c2.436,1.369,4.7,-1,7,0.3V10.3z" fill="#FE8D8D" stroke="#700000" stroke-width="1" stroke-miterlimit="10"/>
    <rect x="4" y="14" width="24" height="16" fill="#FE8D8D" opacity="0.4"/>
    <path d="M10.5,16.5H9.5v1h1V16.5zM7.5,16.5H6.5v1h1V16.5zM19.5,16.5h-1v1h1V16.5zM13.5,16.5h-1v1h1V16.5zM16.5,16.5h-1v1h1V16.5zM10.5,19.5H9.5v1h1V19.5zM7.5,19.5H6.5v1h1V19.5zM19.5,19.5h-1v1h1V19.5zM13.5,19.5h-1v1h1V19.5zM16.5,19.5h-1v1h1V19.5zM10.5,22.5H9.5v1h1V22.5zM7.5,22.5H6.5v1h1V22.5zM19.5,22.5h-1v1h1V22.5zM22.5,16.5h-1v1h1V16.5zM22.5,19.5h-1v1h1V19.5zM22.5,22.5h-1v1h1V22.5zM25.5,16.5h-1v1h1V16.5zM25.5,19.5h-1v1h1V19.5zM25.5,22.5h-1v1h1V22.5zM13.5,22.5h-1v1h1V22.5zM16.5,22.5h-1v1h1V22.5zM10.5,25.5H9.5v1h1V25.5zM7.5,25.5H6.5v1h1V25.5zM22.5,25.5h-1v1h1V25.5zM25.5,25.5h-1v1h1V25.5z" fill="none" stroke="#B90000" stroke-width="1" stroke-miterlimit="10"/>
    <rect x="13.5" y="26.5" width="5" height="4" fill="#FE8D8D" stroke="#700000" stroke-width="1" stroke-miterlimit="10"/>
  </g>
</svg>
