<?xml version="1.0" encoding="UTF-8"?>
<!DOCTYPE svg PUBLIC "-//W3C//DTD SVG 1.1//EN" "http://www.w3.org/Graphics/SVG/1.1/DTD/svg11.dtd">
<svg version="1.1" id="Layer_1" xmlns="http://www.w3.org/2000/svg" xmlns:xlink="http://www.w3.org/1999/xlink" x="0px" y="0px" width="32px" height="32px" viewBox="0 0 32 32" enable-background="new 0 0 32 32" xml:space="preserve">
  <g id="main">
    <g id="icon">
      <path d="M12.02,4.538L11.26,4.65L10.53,4.833L9.817,5.083L9.139,5.397L8.493,5.771L7.884,6.202L7.315,6.687L6.789,7.222L6.309,7.804L5.878,8.429L5.499,9.094L5.177,9.796L4.913,10.53L4.712,11.3L4.576,12.09L3.727,12.41L2.949,12.86L2.255,13.44L1.658,14.13L1.171,14.91L0.8068,15.78L0.5789,16.71L0.5,17.69L0.5283,18.29L0.6117,18.86L0.7473,19.42L0.9322,19.95L1.164,20.46L1.439,20.94L1.756,21.39L2.111,21.8L2.501,22.17L2.925,22.51L3.378,22.8L3.859,23.04L4.364,23.24L4.891,23.38L5.438,23.47L6,23.5L15.51,23.5L15.55,23.08L15.69,22.62L15.91,22.21L16.2,21.85L16.56,21.55L16.97,21.33L17.42,21.18L17.91,21.13L18.27,20.51L18.08,20.06L17.99,19.6L17.98,19.14L18.06,18.68L18.23,18.25L18.47,17.85L18.79,17.51L19.19,17.23L20.85,16.26L21.44,16.02L22.07,15.94L22.7,16.02L23.27,16.25L23.77,16.63L24.16,17.12L24.5,17.11L24.88,17.12L25.27,16.63L25.77,16.25L26.34,16.02L26.97,15.93L27.6,16.02L28.19,16.26L29.86,17.22L30.25,17.51L30.37,17.63L30.46,16.96L30.5,16.22L30.46,15.47L30.36,14.75L30.19,14.05L29.96,13.38L29.67,12.75L29.32,12.15L28.92,11.58L28.48,11.07L27.99,10.6L27.46,10.18L26.89,9.813L26.29,9.506L25.65,9.262L24.99,9.082L24.31,8.972L23.6,8.934L22.75,8.989L21.93,9.149L21.15,9.409L20.41,9.76L19.85,8.645L19.16,7.632L18.34,6.735L17.4,5.969L16.37,5.348L15.24,4.887L14.05,4.599L13.43,4.525L12.8,4.5zz" fill="#92CBEE"/>
      <path d="M12.78,4.001L12,4.039L11.97,4.04L11.95,4.044L11.19,4.156L11.16,4.159L11.14,4.165L10.41,4.348L10.38,4.354L10.36,4.362L9.651,4.612L9.629,4.62L9.607,4.629L8.929,4.943L8.908,4.953L8.888,4.964L8.242,5.339L8.223,5.35L8.204,5.363L7.595,5.794L7.577,5.807L7.56,5.822L6.991,6.307L6.974,6.321L6.959,6.337L6.432,6.872L6.417,6.887L6.403,6.904L5.923,7.486L5.909,7.502L5.897,7.52L5.466,8.145L5.454,8.163L5.443,8.182L5.065,8.847L5.054,8.866L5.045,8.885L4.723,9.587L4.713,9.607L4.706,9.627L4.443,10.36L4.435,10.38L4.43,10.4L4.229,11.17L4.223,11.19L4.219,11.21L4.132,11.72L3.55,11.94L3.511,11.95L3.474,11.98L2.696,12.43L2.66,12.45L2.629,12.48L1.935,13.06L1.904,13.08L1.877,13.12L1.28,13.8L1.254,13.83L1.233,13.87L0.7463,14.65L0.7254,14.68L0.7102,14.72L0.3461,15.58L0.3307,15.62L0.3211,15.66L0.09316,16.59L0.08359,16.63L0.08047,16.67L0.001563,17.65L-0,17.67L0,17.71L0.0005859,17.72L0.02891,18.31L0.03008,18.34L0.03359,18.36L0.1168,18.94L0.1203,18.96L0.126,18.98L0.2615,19.54L0.267,19.56L0.2748,19.58L0.4598,20.12L0.4674,20.14L0.4773,20.16L0.7088,20.67L0.7186,20.69L0.7303,20.71L1.006,21.19L1.018,21.21L1.031,21.23L1.348,21.68L1.362,21.7L1.377,21.71L1.732,22.13L1.747,22.14L1.765,22.16L2.155,22.54L2.173,22.55L2.192,22.57L2.615,22.9L2.634,22.92L2.655,22.93L3.108,23.22L3.129,23.23L3.152,23.25L3.632,23.49L3.655,23.5L3.679,23.51L4.184,23.71L4.208,23.71L4.233,23.72L4.761,23.86L4.786,23.87L4.812,23.88L5.358,23.96L5.384,23.97L5.411,23.97L5.973,24L5.987,24L6,24L15.5,24L15.5,23.57L15.55,23.08L15.57,23L6.012,23L5.491,22.97L4.997,22.89L4.52,22.76L4.063,22.59L3.627,22.36L3.217,22.1L2.83,21.8L2.474,21.46L2.151,21.08L1.861,20.67L1.609,20.23L1.396,19.77L1.227,19.28L1.103,18.77L1.027,18.24L1.001,17.7L1.074,16.79L1.283,15.93L1.616,15.14L2.061,14.43L2.606,13.8L3.238,13.27L3.944,12.86L4.753,12.55L5.02,12.45L5.069,12.17L5.201,11.4L5.391,10.68L5.64,9.986L5.945,9.322L6.301,8.696L6.708,8.105L7.16,7.558L7.655,7.054L8.191,6.598L8.764,6.192L9.37,5.841L10.01,5.547L10.67,5.313L11.36,5.141L12.07,5.036L12.8,5L13.39,5.024L13.96,5.092L15.09,5.364L16.14,5.796L17.11,6.379L17.99,7.1L18.77,7.944L19.42,8.899L19.95,9.957L20.23,10.73L20.43,11.54L20.56,12.39L20.6,13.29L21.6,13.24L21.55,12.32L21.55,12.29L21.55,12.27L21.42,11.37L21.41,11.35L21.41,11.32L21.19,10.46L21.18,10.44L21.18,10.42L21.03,10.02L21.34,9.873L22.06,9.634L22.82,9.486L23.6,9.435L24.25,9.47L24.89,9.571L25.49,9.737L26.08,9.964L26.64,10.25L27.17,10.59L27.66,10.97L28.12,11.41L28.53,11.89L28.9,12.41L29.22,12.97L29.49,13.57L29.71,14.19L29.87,14.84L29.97,15.52L30,16.22L29.97,16.91L29.92,17.27L30.25,17.51L30.57,17.85L30.76,18.15L30.85,17.8L30.85,17.78L30.85,17.76L30.96,17.03L30.96,17.01L30.96,16.99L31,16.24L31,16.22L31,16.19L30.96,15.45L30.96,15.42L30.96,15.4L30.85,14.68L30.85,14.65L30.85,14.63L30.68,13.93L30.67,13.91L30.66,13.89L30.43,13.22L30.42,13.2L30.41,13.17L30.12,12.54L30.11,12.52L30.1,12.5L29.76,11.9L29.74,11.88L29.73,11.86L29.33,11.3L29.32,11.28L29.3,11.26L28.86,10.74L28.84,10.72L28.83,10.71L28.34,10.24L28.32,10.22L28.3,10.2L27.77,9.785L27.75,9.77L27.73,9.757L27.16,9.392L27.14,9.379L27.12,9.367L26.51,9.061L26.49,9.049L26.47,9.04L25.83,8.795L25.81,8.786L25.78,8.779L25.12,8.599L25.1,8.593L25.07,8.588L24.38,8.478L24.36,8.474L24.33,8.472L23.63,8.435L23.6,8.433L23.57,8.435L22.72,8.49L22.69,8.492L22.65,8.498L21.83,8.659L21.8,8.665L21.77,8.675L20.99,8.934L20.96,8.944L20.93,8.957L20.64,9.098L20.3,8.422L20.29,8.391L20.27,8.362L19.57,7.349L19.55,7.32L19.53,7.294L18.7,6.397L18.68,6.371L18.65,6.348L17.72,5.582L17.69,5.559L17.66,5.54L16.62,4.919L16.59,4.9L16.56,4.886L15.44,4.424L15.4,4.409L15.36,4.4L14.17,4.113L14.14,4.106L14.11,4.103L13.49,4.029L13.47,4.026L13.45,4.025L12.82,4L12.8,4zz" fill="#0964B0"/>
    </g>
    <g id="overlay">
      <path d="M26.973,31.171c-0.156,0,-0.302,-0.084,-0.379,-0.22l-0.691,-1.188c-0.456,0.122,-0.927,0.184,-1.403,0.184c-0.475,0,-0.945,-0.062,-1.4,-0.183l-0.646,1.176c-0.076,0.141,-0.223,0.228,-0.384,0.228c-0.076,0,-0.152,-0.02,-0.218,-0.059l-1.667,-0.964c-0.206,-0.119,-0.279,-0.376,-0.165,-0.585l0.657,-1.196c-0.678,-0.677,-1.162,-1.514,-1.407,-2.436h-1.334c-0.24,0,-0.436,-0.196,-0.436,-0.436v-1.928c0,-0.24,0.196,-0.436,0.436,-0.436h1.334c0.245,-0.921,0.728,-1.758,1.406,-2.435l-0.651,-1.146c-0.115,-0.207,-0.043,-0.472,0.163,-0.59l1.667,-0.964c0.066,-0.038,0.142,-0.059,0.218,-0.059c0.158,0,0.304,0.086,0.381,0.224l0.644,1.134c0.455,-0.122,0.926,-0.184,1.402,-0.184c0.477,0,0.948,0.062,1.405,0.184l0.689,-1.146c0.078,-0.133,0.222,-0.215,0.376,-0.215c0.076,0,0.152,0.02,0.218,0.059l1.667,0.964c0.101,0.059,0.174,0.153,0.203,0.266c0.03,0.113,0.014,0.231,-0.046,0.332l-0.687,1.143c0.677,0.676,1.159,1.512,1.404,2.432h1.334c0.24,0,0.436,0.196,0.436,0.436v1.928c0,0.24,-0.196,0.436,-0.436,0.436H29.73c-0.245,0.921,-0.728,1.757,-1.405,2.434l0.694,1.193c0.118,0.208,0.046,0.474,-0.161,0.594l-1.667,0.964C27.125,31.151,27.049,31.171,26.973,31.171zM24.5,22.196c-1.287,0,-2.333,1.047,-2.333,2.333c0,1.287,1.047,2.333,2.333,2.333s2.333,-1.047,2.333,-2.333C26.833,23.242,25.787,22.196,24.5,22.196z" fill="#C8C6C4" stroke="#383838" stroke-width="1" stroke-miterlimit="10"/>
    </g>
  </g>
</svg>
