<?xml version="1.0" encoding="UTF-8"?>
<!DOCTYPE svg PUBLIC "-//W3C//DTD SVG 1.1//EN" "http://www.w3.org/Graphics/SVG/1.1/DTD/svg11.dtd">
<svg version="1.1" id="Layer_1" xmlns="http://www.w3.org/2000/svg" xmlns:xlink="http://www.w3.org/1999/xlink" x="0px" y="0px" width="32px" height="32px" viewBox="0 0 32 32" enable-background="new 0 0 32 32" xml:space="preserve">
  <g id="main">
    <g id="icon">
      <path d="M2.5,29.5L14.97,29.5L15.12,28.85L14.94,27.57L14.7,25.9L14.57,24.41L14.6,23.6L14.74,22.63L15.03,21.55L15.48,20.42L15.85,19.72L16.27,19.07L16.75,18.47L17.27,17.92L17.84,17.42L18.45,16.98L19.11,16.59L19.81,16.27L20.9,15.89L22.05,15.62L23.28,15.46L24.58,15.41L25.85,15.45L26.99,15.54L27.5,15.57L27.5,0.5L2.5,0.5zM27.4,27.44L26.26,28.41L25.07,29.2L24.48,29.5L27.5,29.5L27.5,27.34zz" fill="#FFFFFF"/>
      <path d="M2,0.5L2,29.5L2,30L2.5,30L14.85,30L15.09,29L3,29L3,1L27,1L27,15.54L28,15.6L28,0.5L28,0L27.5,0L2.5,0L2,0zM27.4,27.44L27,27.78L27,29L25.37,29L25.07,29.2L23.83,29.83L23.34,30L27.5,30L28,30L28,29.5L28,26.82zz" fill="#383838"/>
      <path d="M12,8.5L6,8.5zM15,10.5L6,10.5zM13,12.5L6,12.5zM15,14.5L6,14.5zz" fill="#FFFFFF"/>
      <path d="M6,9L12,9L12,8L6,8zM6,11L15,11L15,10L6,10zM6,13L13,13L13,12L6,12zM6,15L15,15L15,14L6,14zz" fill="#383838"/>
      <path d="M18,9L24,9L24,8L18,8zM19,11L24,11L24,10L19,10zM18,13L24,13L24,12L18,12zM19,15L24,15L24,14L19,14zz" fill="#787979"/>
      <path d="M5,20.5L5,26.5L5,27L5.5,27L14.86,27L14.72,26L6,26L6,21L15.25,21L15.48,20.42L15.7,20L5.5,20L5,20zz" fill="#787979"/>
      <path d="M5.5,5.5L24.5,5.5L24.5,3.5L5.5,3.5zz" fill="#F3B8B8"/>
      <path d="M5,3.5L5,5.5L5,6L5.5,6L24.5,6L25,6L25,5.5L25,3.5L25,3L24.5,3L5.5,3L5,3zM24,4L24,5L6,5L6,4zz" fill="#E42D2C"/>
      <path d="M17,18L17.19,18L17.27,17.92L17.84,17.42L18.42,17L17,17zz" fill="#EE3D3B"/>
    </g>
    <g id="overlay">
      <path d="M28.97,17.629c-1.716,0.254,-5.016,-0.836,-8.387,0.541c-3.37,1.376,-4.005,4.948,-3.968,6.183c0.038,1.291,0.587,4.096,0.566,4.617c0.331,-0.554,1.56,-0.455,1.977,-0.415c7.664,0.679,11.395,-9.291,12.227,-11.814c0.044,-0.133,-0.012,-0.187,-0.116,-0.094C30.855,17.018,30.016,17.474,28.97,17.629z" fill="#FFFFFF" stroke="#17AB4F" stroke-width="1.1" stroke-miterlimit="10"/>
      <path d="M16.633,31.349c1.853,-9.564,7.413,-9.67,8.859,-10.084" fill="none" stroke="#17AB4F" stroke-width="1.1" stroke-linecap="round" stroke-miterlimit="10"/>
    </g>
  </g>
</svg>
