<?xml version="1.0" encoding="UTF-8"?>
<!DOCTYPE svg PUBLIC "-//W3C//DTD SVG 1.1//EN" "http://www.w3.org/Graphics/SVG/1.1/DTD/svg11.dtd">
<svg version="1.1" id="Layer_1" xmlns="http://www.w3.org/2000/svg" xmlns:xlink="http://www.w3.org/1999/xlink" x="0px" y="0px" width="32px" height="32px" viewBox="0 0 32 32" enable-background="new 0 0 32 32" xml:space="preserve">
  <g id="main">
    <g id="icon">
      <path d="M3.5,29.5L15.12,29.5L15.59,27.6L15.57,27.6L16.21,25.09L16.35,24.55L15.49,21.5L15.53,21.5L13.86,15.2L26.5,20.58L26.5,8.5L18.5,0.5L3.5,0.5z" fill="#FFFFFF"/>
      <path d="M3,30L14.99,30L15.24,29L4,29L4,1L18,1L18,9L26,9L26,20.37L27,20.79L27,8.294L18.71,0L3,0M25.29,8L19,8L19,1.706z" fill="#383838"/>
      <path d="M6.5,5L16,5L16,4L6.5,4M6.5,8L16,8L16,7L6.5,7M6.5,11L16,11L16,10L6.5,10M6.5,14L23.5,14L23.5,13L6.5,13M6.5,17L14.33,17L14.07,16L6.5,16M18.09,17L23.5,17L23.5,16L15.74,16M23.5,19.3L23.5,19L22.79,19z" fill="#78797A" opacity="0.5"/>
      <path d="M6.5,26.5L8.5,26.5L8.5,22.5L6.5,22.5z" fill="#92CBEE"/>
      <path d="M6,22.5L6,26.5L6,27L6.5,27L8.5,27L9,27L9,26.5L9,22.5L9,22L8.5,22L6.5,22L6,22M8,23L8,26L7,26L7,23z" fill="#0964B0"/>
      <path d="M10.5,26.5L12.5,26.5L12.5,20.5L10.5,20.5z" fill="#92CBEE"/>
      <path d="M10,20.5L10,26.5L10,27L10.5,27L12.5,27L13,27L13,26.5L13,20.5L13,20L12.5,20L10.5,20L10,20M12,21L12,26L11,26L11,21z" fill="#0964B0"/>
      <path d="M14.5,26.5L15.85,26.5L16.21,25.09L16.35,24.55L15.49,21.5L15.53,21.5L14.73,18.5L14.5,18.5z" fill="#92CBEE"/>
      <path d="M14,18.5L14,26.5L14,27L14.5,27L15.72,27L15.98,26L15,26L15,19.5L14.6,18L14.5,18L14,18M16,25.9L16.21,25.09L16.35,24.55L16,23.31z" fill="#0964B0"/>
    </g>
    <g id="overlay">
      <path d="M16.841,18.643L30.6,24.5l-13.667,5.993L18.147,25.6l-0.008,0l0.283,-1.067L18.131,23.5l0.002,0L16.841,18.643zM18.5,24.5h11.9" fill="#FFFFFF" stroke="#A0519F" stroke-width="1" stroke-miterlimit="1"/>
    </g>
  </g>
</svg>
