<?xml version="1.0" encoding="UTF-8"?>
<!DOCTYPE svg PUBLIC "-//W3C//DTD SVG 1.1//EN" "http://www.w3.org/Graphics/SVG/1.1/DTD/svg11.dtd">
<svg version="1.1" id="Layer_1" xmlns="http://www.w3.org/2000/svg" xmlns:xlink="http://www.w3.org/1999/xlink" x="0px" y="0px" width="32px" height="32px" viewBox="0 0 32 32" enable-background="new 0 0 32 32" xml:space="preserve">
  <g id="icon">
    <path d="M27.917,30.45H4.083c-1.399,0,-2.533,-1.134,-2.533,-2.533V4.083c0,-1.399,1.134,-2.533,2.533,-2.533h23.833c1.399,0,2.533,1.134,2.533,2.533v23.833C30.45,29.316,29.316,30.45,27.917,30.45z" fill="#F7DA8E"/>
    <path d="M27.917,31H4.083c-1.7,0,-3.083,-1.383,-3.083,-3.083V4.083C1,2.383,2.383,1,4.083,1h23.833c1.7,0,3.083,1.383,3.083,3.083v23.833C31,29.617,29.617,31,27.917,31zM4.083,2.1C2.99,2.1,2.1,2.99,2.1,4.083v23.833C2.1,29.01,2.99,29.9,4.083,29.9h23.833c1.094,0,1.983,-0.89,1.983,-1.983V4.083C29.9,2.99,29.01,2.1,27.917,2.1H4.083z" fill="#E57428"/>
    <path d="M18.447,4.989l-8.301,11.835c-0.081,0.118,-0.004,0.285,0.131,0.285l4.938,0.552c0.111,0,0.19,0.119,0.155,0.235l-3.08,8.868c-0.056,0.185,0.16,0.32,0.278,0.174l9.279,-11.742c0.092,-0.115,0.017,-0.296,-0.123,-0.296l-4.938,-0.552c-0.101,0,-0.178,-0.099,-0.161,-0.208l2.115,-9.015C18.767,4.941,18.55,4.839,18.447,4.989z" fill="#FFFFFF" stroke="#E57428" stroke-width="1" stroke-miterlimit="10"/>
  </g>
</svg>
