<?xml version="1.0" encoding="UTF-8" standalone="no"?>
<!-- Created with Inkscape (http://www.inkscape.org/) -->

<svg
   width="48"
   height="48"
   viewBox="0 0 12.7 12.7"
   version="1.1"
   id="svg2083"
   inkscape:version="1.1.2 (b8e25be833, 2022-02-05)"
   sodipodi:docname="Fido-Leverer.svg"
   xmlns:inkscape="http://www.inkscape.org/namespaces/inkscape"
   xmlns:sodipodi="http://sodipodi.sourceforge.net/DTD/sodipodi-0.dtd"
   xmlns="http://www.w3.org/2000/svg"
   xmlns:svg="http://www.w3.org/2000/svg">
  <sodipodi:namedview
     id="namedview2085"
     pagecolor="#ffffff"
     bordercolor="#666666"
     borderopacity="1.0"
     inkscape:pageshadow="2"
     inkscape:pageopacity="0.0"
     inkscape:pagecheckerboard="0"
     inkscape:document-units="mm"
     showgrid="false"
     units="px"
     inkscape:zoom="12.443434"
     inkscape:cx="0.3616365"
     inkscape:cy="40.101469"
     inkscape:window-width="2560"
     inkscape:window-height="1369"
     inkscape:window-x="-8"
     inkscape:window-y="-8"
     inkscape:window-maximized="1"
     inkscape:current-layer="layer1" />
  <defs
     id="defs2080">
    <clipPath
       clipPathUnits="userSpaceOnUse"
       id="clipPath892">
      <path
         d="m 3375.64,206.66 c -1.86,-0.16 -158.92,-1.25 -175.82,-19.398 -16.88,-18.141 6.89,-40.032 59.44,-39.41 52.56,0.628 178.95,3.75 187.71,16.257 8.76,12.52 -56.93,43.801 -71.33,42.551 z"
         id="path890" />
    </clipPath>
    <linearGradient
       x1="0"
       y1="0"
       x2="1"
       y2="0"
       gradientUnits="userSpaceOnUse"
       gradientTransform="matrix(253.319,0,0,-253.319,3194.45,177.27)"
       spreadMethod="pad"
       id="linearGradient898">
      <stop
         style="stop-opacity:1;stop-color:#b77737"
         offset="0"
         id="stop894" />
      <stop
         style="stop-opacity:1;stop-color:#965923"
         offset="1"
         id="stop896" />
    </linearGradient>
    <clipPath
       clipPathUnits="userSpaceOnUse"
       id="clipPath908">
      <path
         d="m 3598.71,192.648 c 0,0 43.79,-57.558 152.66,-57.558 77.16,0 168.93,26.898 152.66,63.82 -16.26,36.91 -110.07,-31.051 -163.3,-30.031 -98.86,1.871 -132.64,42.531 -132.64,42.531 z"
         id="path906" />
    </clipPath>
    <linearGradient
       x1="0"
       y1="0"
       x2="1"
       y2="0"
       gradientUnits="userSpaceOnUse"
       gradientTransform="matrix(95.1031,-13.7649,-13.7649,-95.1031,3644.57,196.25)"
       spreadMethod="pad"
       id="linearGradient914">
      <stop
         style="stop-opacity:1;stop-color:#b77737"
         offset="0"
         id="stop910" />
      <stop
         style="stop-opacity:1;stop-color:#332114"
         offset="1"
         id="stop912" />
    </linearGradient>
    <clipPath
       clipPathUnits="userSpaceOnUse"
       id="clipPath928">
      <path
         d="m 3563.04,783.91 c 0,0 18.77,-6.879 39.42,3.75 9.71,5.012 38.16,30.672 38.16,30.672 0,0 -9.38,-46.922 20.02,-78.211 29.41,-31.281 44.42,3.75 36.92,23.777 -7.51,20.012 -1.26,66.942 -11.89,82.582 -10.63,15.649 -33.78,23.149 -47.55,19.399 -13.77,-3.75 -31.91,-23.777 -43.8,-40.68 -11.88,-16.879 -33.16,-18.769 -33.16,-18.769 z"
         id="path926" />
    </clipPath>
    <linearGradient
       x1="0"
       y1="0"
       x2="1"
       y2="0"
       gradientUnits="userSpaceOnUse"
       gradientTransform="matrix(108.451,40.0435,40.0435,-108.451,3566.28,761.7)"
       spreadMethod="pad"
       id="linearGradient934">
      <stop
         style="stop-opacity:1;stop-color:#b77737"
         offset="0"
         id="stop930" />
      <stop
         style="stop-opacity:1;stop-color:#332114"
         offset="1"
         id="stop932" />
    </linearGradient>
    <clipPath
       clipPathUnits="userSpaceOnUse"
       id="clipPath944">
      <path
         d="m 3516.11,875.891 c 0,2.5 -18.14,28.148 19.4,69.449 37.54,41.289 86.97,54.43 91.98,73.83 5,19.39 -16.9,48.81 -66.96,27.53 -50.05,-21.27 -73.82,-73.2 -75.07,-118.88 -1.25,-45.672 10.63,-50.679 10.63,-50.679 z"
         id="path942" />
    </clipPath>
    <linearGradient
       x1="0"
       y1="0"
       x2="1"
       y2="0"
       gradientUnits="userSpaceOnUse"
       gradientTransform="matrix(45.049,101.777,101.777,-45.049,3507.94,877.15)"
       spreadMethod="pad"
       id="linearGradient950">
      <stop
         style="stop-opacity:1;stop-color:#b77737"
         offset="0"
         id="stop946" />
      <stop
         style="stop-opacity:1;stop-color:#332114"
         offset="1"
         id="stop948" />
    </linearGradient>
    <clipPath
       clipPathUnits="userSpaceOnUse"
       id="clipPath972">
      <path
         d="m 3584.31,384.102 c 3.66,24.207 32.08,135.777 20.19,164.558 -11.89,28.781 -55.69,40.672 -73.83,14.399 -18.14,-26.278 -13.3,-152.68 -12.05,-210.239 1.25,-57.558 38.79,-50.679 46.92,-35.66 8.14,15.02 13.76,33.789 18.77,66.942 z"
         id="path970" />
    </clipPath>
    <linearGradient
       x1="0"
       y1="0"
       x2="1"
       y2="0"
       gradientUnits="userSpaceOnUse"
       gradientTransform="matrix(-23.3613,-117.586,-117.586,23.3613,3553.75,461.36)"
       spreadMethod="pad"
       id="linearGradient978">
      <stop
         style="stop-opacity:1;stop-color:#b77737"
         offset="0"
         id="stop974" />
      <stop
         style="stop-opacity:1;stop-color:#965923"
         offset="1"
         id="stop976" />
    </linearGradient>
  </defs>
  <g
     inkscape:label="Lag 1"
     inkscape:groupmode="layer"
     id="layer1">
    <g
       id="g2414"
       transform="matrix(0.44160869,0,0,0.334486,-6.9406082,-6.4511381)">
      <path
         d="m 28.428822,54.934705 c -5.687836,0 -10.298641,-0.67689 -10.298641,-1.51198 0,-0.83467 4.610805,-1.51173 10.298641,-1.51173 5.687836,0 10.298995,0.67706 10.298995,1.51173 0,0.83509 -4.611159,1.51198 -10.298995,1.51198"
         style="fill:#dbdbdb;fill-opacity:1;fill-rule:nonzero;stroke:none;stroke-width:0.0352778"
         id="path884" />
      <g
         id="g886"
         transform="matrix(0.03527778,0,0,-0.03527778,-94.964375,58.420175)">
        <g
           id="g888"
           clip-path="url(#clipPath892)">
          <path
             d="m 3375.64,206.66 c -1.86,-0.16 -158.92,-1.25 -175.82,-19.398 -16.88,-18.141 6.89,-40.032 59.44,-39.41 52.56,0.628 178.95,3.75 187.71,16.257 8.76,12.52 -56.93,43.801 -71.33,42.551"
             style="fill:url(#linearGradient898);fill-opacity:1;fill-rule:nonzero;stroke:none"
             id="path900" />
        </g>
      </g>
      <g
         id="g902"
         transform="matrix(0.03527778,0,0,-0.03527778,-94.964375,58.420175)">
        <g
           id="g904"
           clip-path="url(#clipPath908)">
          <path
             d="m 3598.71,192.648 c 0,0 43.79,-57.558 152.66,-57.558 77.16,0 168.93,26.898 152.66,63.82 -16.26,36.91 -110.07,-31.051 -163.3,-30.031 -98.86,1.871 -132.64,42.531 -132.64,42.531 l -9.38,-18.762"
             style="fill:url(#linearGradient914);fill-opacity:1;fill-rule:nonzero;stroke:none"
             id="path916" />
        </g>
      </g>
      <path
         d="m 33.787164,50.056865 c -0.08819,0.20462 -0.201083,0.42538 -0.340431,0.66213 -1.324327,2.25147 -3.178527,2.32379 -6.975122,2.38376 -1.034344,0.0162 -2.087033,-0.63571 -3.038827,-1.62278 -1.651,-1.70575 -3.003903,-4.40933 -3.450167,-6.36764 -0.706261,-3.08959 0.971197,-6.62164 0.971197,-6.62164 0,0 1.721203,1.41291 3.884436,1.2361 2.163233,-0.17639 3.752497,-1.63336 3.752497,-1.63336 -0.35313,1.98656 1.412523,5.73895 2.957689,7.59284 1.411111,1.69375 3.169708,2.21092 2.238728,4.37059"
         style="fill:#b77737;fill-opacity:1;fill-rule:nonzero;stroke:none;stroke-width:0.0352778"
         id="path918" />
      <path
         d="m 29.141786,34.826785 c -0.706261,1.30143 -0.529872,3.04588 -0.529872,3.04588 0,0 -1.631597,1.14791 -3.729567,1.28062 -2.097616,0.13229 -3.6195,-0.99427 -3.6195,-0.99427 0,0 0.508353,-1.50096 0.264937,-3.09026 -0.244123,-1.58927 -1.434042,-2.38372 -1.963914,-3.33238 -0.153459,-0.27516 -0.2667,-0.60219 -0.349603,-0.92671 -0.202847,-0.7983 -0.226131,-1.5893 -0.226131,-1.5893 -0.02469,-0.22256 -0.04904,-0.45226 -0.06315,-0.68336 -0.111478,-1.55924 0.381706,-4.13068 2.602795,-3.26775 3.465336,1.34663 4.504266,1.39803 5.142794,1.56739 0.420158,0.1112 1.125361,0.0882 2.317397,0.50836 1.192036,0.41878 1.788583,1.5434 2.030942,2.82539 0.241652,1.27854 -1.171222,3.35496 -1.877131,4.65639"
         style="fill:#b77737;fill-opacity:1;fill-rule:nonzero;stroke:none;stroke-width:0.0352778"
         id="path920" />
      <g
         id="g922"
         transform="matrix(0.03527778,0,0,-0.03527778,-94.964375,58.420175)">
        <g
           id="g924"
           clip-path="url(#clipPath928)">
          <path
             d="m 3563.04,783.91 c 0,0 18.77,-6.879 39.42,3.75 9.71,5.012 38.16,30.672 38.16,30.672 0,0 -9.38,-46.922 20.02,-78.211 29.41,-31.281 44.42,3.75 36.92,23.777 -7.51,20.012 -1.26,66.942 -11.89,82.582 -10.63,15.649 -33.78,23.149 -47.55,19.399 -13.77,-3.75 -31.91,-23.777 -43.8,-40.68 -11.88,-16.879 -33.16,-18.769 -33.16,-18.769 l 1.88,-22.52"
             style="fill:url(#linearGradient934);fill-opacity:1;fill-rule:nonzero;stroke:none"
             id="path936" />
        </g>
      </g>
      <g
         id="g938"
         transform="matrix(0.03527778,0,0,-0.03527778,-94.964375,58.420175)">
        <g
           id="g940"
           clip-path="url(#clipPath944)">
          <path
             d="m 3516.11,875.891 c 0,2.5 -18.14,28.148 19.4,69.449 37.54,41.289 86.97,54.43 91.98,73.83 5,19.39 -16.9,48.81 -66.96,27.53 -50.05,-21.27 -73.82,-73.2 -75.07,-118.88 -1.25,-45.672 10.63,-50.679 10.63,-50.679 l 20.02,-1.25"
             style="fill:url(#linearGradient950);fill-opacity:1;fill-rule:nonzero;stroke:none"
             id="path952" />
        </g>
      </g>
      <path
         d="m 33.787164,50.056865 c -0.08819,0.20462 -0.201083,0.42538 -0.340431,0.66213 -1.324327,2.25147 -3.178527,2.32379 -6.975122,2.38376 -1.034344,0.0162 -2.087033,-0.63571 -3.038827,-1.62278 -0.517525,-1.10698 -0.471312,-2.32696 -0.471312,-2.32696 -0.04233,-0.11151 -2.228497,-4.28406 -1.766005,-5.14381 0.464608,-0.86004 2.518128,-2.00809 3.863622,-0.86004 1.345494,1.14748 0.551039,3.9055 0.485422,5.00944 -0.06491,1.10339 1.612547,1.67736 2.604911,1.70064 0.992364,0.0208 4.611864,-0.95028 5.583414,0.13063 l 0.05433,0.067"
         style="fill:#f4d592;fill-opacity:1;fill-rule:nonzero;stroke:none;stroke-width:0.0352778"
         id="path954" />
      <path
         d="m 27.906711,28.116845 c 0.300567,-0.11314 0.242711,0.28691 0.617714,0.66227 0.375356,0.37497 0.728486,0.0659 0.772583,0.37497 0.0441,0.30896 -0.573969,0.37539 -1.059391,-0.0441 -0.485775,-0.41907 -0.507647,-0.92714 -0.330906,-0.99314"
         style="fill:#211d1a;fill-opacity:1;fill-rule:nonzero;stroke:none;stroke-width:0.0352778"
         id="path956" />
      <path
         d="m 20.887492,37.343075 -0.975078,2.21368 c 0,0 1.37407,1.54065 4.746272,1.68632 3.372203,0.14566 4.550128,-1.51628 4.550128,-1.51628 l -0.243064,-2.18514 c 0,0 -1.456619,1.41263 -4.473575,1.34909 -2.435225,-0.0515 -3.604683,-1.54767 -3.604683,-1.54767"
         style="fill:#d61c03;fill-opacity:1;fill-rule:nonzero;stroke:none;stroke-width:0.0352778"
         id="path958" />
      <path
         d="m 19.805875,44.119305 c -0.110419,0.94893 0.728134,4.50275 0.860778,5.93756 0.132292,1.4344 0.176389,3.46534 0.176389,3.46534 0,0 -1.103489,0.52945 -0.993069,1.05943 0.110419,0.52987 2.273299,0.57396 2.803172,-0.19869 0.529872,-0.77254 0.684036,-4.70104 0.485775,-5.47398 -0.198967,-0.77226 -3.333045,-4.78966 -3.333045,-4.78966"
         style="fill:#b77737;fill-opacity:1;fill-rule:nonzero;stroke:none;stroke-width:0.0352778"
         id="path960" />
      <path
         d="m 25.478542,48.511665 c -0.120297,0.58844 0.264936,5.38593 0.728133,5.91577 0.463903,0.52945 2.361847,0.48535 2.582333,0.0219 0.220839,-0.46355 -0.573263,-1.16981 -0.573263,-1.16981 0,0 -0.132645,-3.02409 0.110066,-4.56887 0.242711,-1.5452 0.684036,-4.01739 0.485775,-4.21639 -0.198966,-0.1983 -3.13443,3.0463 -3.333044,4.01739"
         style="fill:#b77737;fill-opacity:1;fill-rule:nonzero;stroke:none;stroke-width:0.0352778"
         id="path962" />
      <path
         d="m 33.689444,49.880055 c 0.552098,-0.79445 1.522942,-3.50932 1.478845,-5.25307 -0.0441,-1.74392 -0.750358,-3.99521 -1.831975,-4.26021 -1.081617,-0.26501 -1.699683,-0.11011 -2.339975,1.36881 -0.639939,1.47877 -0.706261,3.97288 -0.397228,4.63515 0.309034,0.66216 3.090333,3.50932 3.090333,3.50932"
         style="fill:#b77737;fill-opacity:1;fill-rule:nonzero;stroke:none;stroke-width:0.0352778"
         id="path964" />
      <g
         id="g966"
         transform="matrix(0.03527778,0,0,-0.03527778,-94.964375,58.420175)">
        <g
           id="g968"
           clip-path="url(#clipPath972)">
          <path
             d="m 3584.31,384.102 c 3.66,24.207 32.08,135.777 20.19,164.558 -11.89,28.781 -55.69,40.672 -73.83,14.399 -18.14,-26.278 -13.3,-152.68 -12.05,-210.239 1.25,-57.558 38.79,-50.679 46.92,-35.66 8.14,15.02 13.76,33.789 18.77,66.942"
             style="fill:url(#linearGradient978);fill-opacity:1;fill-rule:nonzero;stroke:none"
             id="path980" />
        </g>
      </g>
      <path
         d="m 30.180011,42.441805 c 1.308453,0.20811 0.706261,4.08341 -0.132644,3.86253 -0.838553,-0.22077 -0.838553,-4.01701 0.132644,-3.86253"
         style="fill:#63381b;fill-opacity:1;fill-rule:nonzero;stroke:none;stroke-width:0.0352778"
         id="path982" />
      <path
         d="m 30.84535,38.761205 c 0.541161,0.11399 0,1.45673 -0.243064,1.36815 -0.242358,-0.0882 -0.176389,-1.45634 0.243064,-1.36815"
         style="fill:#63381b;fill-opacity:1;fill-rule:nonzero;stroke:none;stroke-width:0.0352778"
         id="path984" />
      <path
         d="m 31.612642,39.516505 c 0.525639,0.0985 -0.0441,1.50082 -0.397228,1.36853 -0.353131,-0.13229 0.0441,-1.43478 0.397228,-1.36853"
         style="fill:#63381b;fill-opacity:1;fill-rule:nonzero;stroke:none;stroke-width:0.0352778"
         id="path986" />
      <path
         d="m 29.904845,38.908665 c 0.369358,-0.17032 0.441325,1.19215 0.154163,1.36853 -0.286455,0.17668 -0.441325,-1.23623 -0.154163,-1.36853"
         style="fill:#63381b;fill-opacity:1;fill-rule:nonzero;stroke:none;stroke-width:0.0352778"
         id="path988" />
      <path
         d="m 27.677758,31.339255 c 0,0 -1.589263,0.82473 -3.060347,0.7644 -1.47073,-0.0582 -3.001433,-1.61756 -3.001433,-1.61756 0,0 -1.08973,0.58816 -1.8542,0.49996 -0.201436,-0.0229 -0.386644,-0.09 -0.547511,-0.17639 -0.202847,-0.7983 -0.226131,-1.5893 -0.226131,-1.5893 -0.02469,-0.22256 -0.04904,-0.45226 -0.06315,-0.68336 l 1.807986,-0.11106 6.944783,2.91331"
         style="fill:#965923;fill-opacity:1;fill-rule:nonzero;stroke:none;stroke-width:0.0352778"
         id="path990" />
      <path
         d="m 27.972681,31.309625 c 0,0 -2.266245,0.97151 -3.678767,0.17667 -1.412875,-0.79446 -2.20733,-1.58891 -2.619375,-1.67711 -0.411692,-0.0886 -1.294694,0.88265 -2.354086,0.32343 -1.059744,-0.55905 -1.090083,-1.97375 -0.883003,-3.06059 0.235303,-1.2361 0.706261,-1.76569 1.648178,-1.82468 0.941564,-0.0588 6.827661,3.32575 7.475008,4.32622 0.647347,1.00073 0.441325,1.26531 0.412045,1.73606"
         style="fill:#b77737;fill-opacity:1;fill-rule:nonzero;stroke:none;stroke-width:0.0352778"
         id="path992" />
      <path
         d="m 21.505559,37.000915 c 0,0 -0.639939,0.12139 -0.607131,0.38626 0.03316,0.26501 1.791406,1.81021 3.983919,1.76611 2.731206,-0.0551 4.072467,-1.42395 4.083403,-1.56753 0.01129,-0.14344 -0.375003,-0.27573 -0.375003,-0.27573 l 0.01094,0.31982 c 0,0 -1.997427,1.33573 -4.127499,1.11485 -2.130073,-0.22048 -2.990498,-1.30238 -2.990498,-1.30238 l 0.02187,-0.4414"
         style="fill:#7f1206;fill-opacity:1;fill-rule:nonzero;stroke:none;stroke-width:0.0352778"
         id="path994" />
      <path
         d="m 29.451525,27.034945 c 0.01835,0.33154 0.309033,0.3091 0.441325,0.66213 0.132292,0.35348 -0.02187,0.72887 0.176742,0.79488 0.198614,0.0663 0.617714,-0.19872 0.485422,-0.79488 -0.132292,-0.59545 -0.353131,-1.01533 -0.529872,-1.12529 -0.176389,-0.11081 -0.595842,0.0659 -0.573617,0.46316"
         style="fill:#56280a;fill-opacity:1;fill-rule:nonzero;stroke:none;stroke-width:0.0352778"
         id="path996" />
      <path
         d="m 24.80015,26.263775 c -0.01164,0.19364 -0.341136,0.54504 -0.802922,0.89821 -0.422628,0.32455 -0.957086,0.64837 -1.465792,0.85509 -0.40393,0.16482 -0.789516,0.25534 -1.089377,0.21372 -0.309739,-0.0437 -0.657225,-0.23495 -0.992717,-0.50437 -0.398286,-0.31612 -0.779639,-0.74397 -1.056217,-1.15891 -0.316441,-0.47032 -0.498827,-0.92424 -0.430741,-1.19271 0.141111,-0.55037 1.531055,-0.31997 2.862086,-0.20366 1.331383,0.11797 3.00743,0.58223 2.97568,1.09263"
         style="fill:#63381b;fill-opacity:1;fill-rule:nonzero;stroke:none;stroke-width:0.0352778"
         id="path998" />
      <path
         d="m 23.997228,27.161985 c -0.422628,0.32455 -0.957086,0.64837 -1.465792,0.85509 -0.140052,-0.16192 -0.295275,-0.45116 -0.03528,-0.79583 0.400402,-0.53026 1.213908,-0.58882 1.38818,-0.28084 0.04868,0.0836 0.08537,0.15808 0.112889,0.22158"
         style="fill:#332114;fill-opacity:1;fill-rule:nonzero;stroke:none;stroke-width:0.0352778"
         id="path1000" />
      <path
         d="m 20.807059,27.135805 c 0.0032,0.25121 -0.189089,0.45794 -0.357717,0.59062 -0.398286,-0.31612 -0.779639,-0.74397 -1.056217,-1.15891 0.03281,-0.14319 0.125942,-0.30551 0.380295,-0.3404 0.445911,-0.0617 1.028347,0.46317 1.033639,0.90869"
         style="fill:#332114;fill-opacity:1;fill-rule:nonzero;stroke:none;stroke-width:0.0352778"
         id="path1002" />
    </g>
  </g>
</svg>
