<?xml version="1.0" encoding="UTF-8"?>
<!DOCTYPE svg PUBLIC "-//W3C//DTD SVG 1.1//EN" "http://www.w3.org/Graphics/SVG/1.1/DTD/svg11.dtd">
<svg version="1.1" id="Layer_1" xmlns="http://www.w3.org/2000/svg" xmlns:xlink="http://www.w3.org/1999/xlink" x="0px" y="0px" width="32px" height="32px" viewBox="0 0 32 32" enable-background="new 0 0 32 32" xml:space="preserve">
  <g id="main">
    <g id="icon">
      <path d="M23.5,13.85L23.72,13.77L24.29,13.62L24.89,13.53L25.5,13.5L26.11,13.53L26.35,13.57L27.12,12.54L27.4,12L27.5,11.4L27.5,2.533L27.42,2.131L27.2,1.803L26.87,1.581L26.47,1.5L23.5,1.5zz" fill="#FFFFFF"/>
      <path d="M23,1.5L23,14.05L23.17,13.97L23.72,13.77L24,13.7L24,2L26.42,2L26.67,2.052L26.84,2.163L26.95,2.328L27,2.583L27,11.36L26.92,11.84L26.7,12.27L25.76,13.51L26.11,13.53L26.71,13.62L26.9,13.67L27.52,12.84L27.54,12.81L27.56,12.77L27.85,12.23L27.88,12.16L27.9,12.08L27.99,11.48L28,11.44L28,11.4L28,2.533L28,2.483L27.99,2.434L27.91,2.032L27.89,1.934L27.83,1.852L27.61,1.523L27.56,1.443L27.48,1.388L27.15,1.167L27.07,1.111L26.97,1.091L26.57,1.01L26.52,1L26.47,1L23.5,1L23,1zz" fill="#34ABD8"/>
      <path d="M3.5,28.5L17.5,28.5L17.5,20.5L19.5,20.5L19.5,19.52L19.53,18.91L19.62,18.31L19.77,17.73L19.97,17.18L20.23,16.65L20.53,16.16L20.87,15.69L21.26,15.27L21.69,14.88L22.15,14.53L22.64,14.23L23.17,13.97L23.69,13.78L23.55,13.03L23.5,12.22L23.5,1.5L3.5,1.5zz" fill="#99D4EB"/>
      <path d="M3,1.5L3,28.5L3,29L3.5,29L17.5,29L17.5,28L4,28L4,2L23,2L23,12.22L23,12.23L23,12.25L23.05,13.06L23.05,13.09L23.06,13.12L23.21,13.92L23.22,13.96L23.72,13.77L24.18,13.65L24.05,12.96L24,12.2L24,1.5L24,1L23.5,1L3.5,1L3,1zz" fill="#34ABD8"/>
    </g>
    <g id="overlay">
      <path d="M19.5,22.5h12v9H19.5V22.5zM25.5,27v2" fill="#F7DA8E" stroke="#E57428" stroke-width="1" stroke-miterlimit="10"/>
      <path d="M29.5,22.5v-2.976c0,-2.213,-1.8,-4.024,-4,-4.024l0,0c-2.2,0,-4,1.811,-4,4.024V22.5" fill="none" stroke="#E57428" stroke-width="1" stroke-miterlimit="10"/>
    </g>
  </g>
</svg>
