<?xml version="1.0" encoding="UTF-8"?>
<!DOCTYPE svg PUBLIC "-//W3C//DTD SVG 1.1//EN" "http://www.w3.org/Graphics/SVG/1.1/DTD/svg11.dtd">
<svg version="1.1" id="Layer_1" xmlns="http://www.w3.org/2000/svg" xmlns:xlink="http://www.w3.org/1999/xlink" x="0px" y="0px" width="32px" height="32px" viewBox="0 0 32 32" enable-background="new 0 0 32 32" xml:space="preserve">
  <g id="main">
    <g id="icon">
      <path d="M2.131,3.581L1.803,3.803L1.581,4.131L1.5,4.533L1.5,7.5L17.5,7.5L17.5,6.5L16.76,6.5L16.41,6.472L16.07,6.388L15.75,6.252L15.45,6.064L12.54,3.88L12,3.597L11.4,3.5L2.533,3.5zz" fill="#FFFFFF"/>
      <path d="M2.434,3.01L2.032,3.091L1.934,3.111L1.852,3.167L1.523,3.388L1.443,3.443L1.388,3.523L1.167,3.852L1.111,3.934L1.091,4.032L1.01,4.434L1,4.483L1,4.533L1,7.5L1,8L1.5,8L17.5,8L18,8L18,7.5L18,6.5L18,6L17.5,6L16.78,6L16.49,5.977L16.23,5.913L15.98,5.807L15.73,5.651L12.84,3.48L12.81,3.456L12.77,3.437L12.23,3.154L12.16,3.117L12.08,3.104L11.48,3.006L11.44,3L11.4,3L2.533,3L2.483,3zM11.36,4L11.84,4.078L12.27,4.304L15.15,6.464L15.17,6.476L15.19,6.487L15.48,6.674L15.52,6.696L15.55,6.712L15.87,6.848L15.91,6.864L15.95,6.874L16.29,6.957L16.33,6.967L16.37,6.97L16.72,6.998L16.74,7L2,7L2,4.583L2.052,4.328L2.163,4.163L2.328,4.052L2.583,4zz" fill="#E57428"/>
      <path d="M13.83,7.299L13.03,7.449L12.22,7.5L1.5,7.5L1.5,27.5L16.03,27.5L15.79,26.76L15.57,25.65L15.5,24.5L15.55,23.58L15.68,22.69L15.91,21.83L16.21,21L16.59,20.21L17.04,19.47L17.56,18.78L18.14,18.14L18.78,17.56L19.47,17.04L20.21,16.59L21,16.21L21.83,15.91L22.69,15.68L23.58,15.55L24.5,15.5L25.65,15.57L26.76,15.79L27.82,16.14L28.5,16.46L28.5,6.5L15.97,6.5zz" fill="#F7DA8E"/>
      <path d="M15.79,6.031L13.69,6.816L12.96,6.952L12.2,7L1.5,7L1,7L1,7.5L1,27.5L1,28L1.5,28L16.22,28L16.14,27.82L15.87,27L2,27L2,8L12.22,8L12.23,8L12.25,7.999L13.06,7.948L13.09,7.946L13.12,7.941L13.92,7.79L13.96,7.782L14,7.767L16.06,7L28,7L28,16.22L28.82,16.61L29,16.72L29,6.5L29,6L28.5,6L15.97,6L15.88,6zz" fill="#E57428"/>
    </g>
    <g id="overlay">
      <path d="M29.45,29.45c-2.734,2.734,-7.166,2.734,-9.899,0c-2.734,-2.734,-2.734,-7.166,0,-9.899s7.166,-2.734,9.899,0C32.183,22.284,32.183,26.716,29.45,29.45z" fill="#FFFFFF" stroke="#228BCB" stroke-width="1" stroke-miterlimit="10"/>
      <path d="M22,21.5h5.5v5.5M21.309,27.691l5.901,-5.901" fill="none" stroke="#228BCB" stroke-width="1" stroke-miterlimit="10"/>
    </g>
  </g>
</svg>
