<?xml version="1.0" encoding="UTF-8"?>
<!DOCTYPE svg PUBLIC "-//W3C//DTD SVG 1.1//EN" "http://www.w3.org/Graphics/SVG/1.1/DTD/svg11.dtd">
<svg version="1.1" id="Layer_1" xmlns="http://www.w3.org/2000/svg" xmlns:xlink="http://www.w3.org/1999/xlink" x="0px" y="0px" width="32px" height="32px" viewBox="0 0 32 32" enable-background="new 0 0 32 32" xml:space="preserve">
  <g id="main">
    <g id="icon">
      <path d="M23.5,15.56L23.58,15.55L24.5,15.5L24.89,15.52L24.94,15.45L27.12,12.54L27.4,12L27.5,11.4L27.5,2.533L27.42,2.131L27.2,1.803L26.87,1.581L26.47,1.5L23.5,1.5zz" fill="#FFFFFF"/>
      <path d="M23,1.5L23,15.64L23.58,15.55L24,15.53L24,2L26.42,2L26.67,2.052L26.84,2.163L26.95,2.328L27,2.583L27,11.36L26.92,11.84L26.7,12.27L24.54,15.15L24.52,15.17L24.51,15.19L24.33,15.48L24.31,15.51L24.5,15.5L25.48,15.56L27.52,12.84L27.54,12.81L27.56,12.77L27.85,12.23L27.88,12.16L27.9,12.08L27.99,11.48L28,11.44L28,11.4L28,2.533L28,2.483L27.99,2.434L27.91,2.032L27.89,1.934L27.83,1.852L27.61,1.523L27.56,1.443L27.48,1.388L27.15,1.167L27.07,1.111L26.97,1.091L26.57,1.01L26.52,1L26.47,1L23.5,1L23,1zz" fill="#0EBDFE"/>
      <path d="M3.5,28.5L16.46,28.5L16.14,27.82L15.79,26.76L15.57,25.65L15.5,24.5L15.55,23.58L15.68,22.69L15.91,21.83L16.21,21L16.59,20.21L17.04,19.47L17.56,18.78L18.14,18.14L18.78,17.56L19.47,17.04L20.21,16.59L21,16.21L21.83,15.91L22.69,15.68L23.58,15.55L24.33,15.51L23.7,13.83L23.55,13.03L23.5,12.22L23.5,1.5L3.5,1.5zz" fill="#85DEFF"/>
      <path d="M3,1.5L3,28.5L3,29L3.5,29L16.72,29L16.61,28.82L16.22,28L4,28L4,2L23,2L23,12.22L23,12.23L23,12.25L23.05,13.06L23.05,13.09L23.06,13.12L23.21,13.92L23.22,13.96L23.23,14L23.81,15.54L24.5,15.5L24.87,15.52L24.18,13.69L24.05,12.96L24,12.2L24,1.5L24,1L23.5,1L3.5,1L3,1zz" fill="#0EBDFE"/>
    </g>
    <g id="overlay">
      <path d="M24.5,17.5c-3.866,0,-7,3.134,-7,7c0,3.866,3.134,7,7,7s7,-3.134,7,-7C31.5,20.634,28.366,17.5,24.5,17.5zM25.1,29h-1.2v-1.5h1.2V29zM25.1,26h-1.2v-6h1.2V26z" fill="#F7BFBF"/>
      <path d="M24.5,17.5c-3.866,0,-7,3.134,-7,7c0,3.866,3.134,7,7,7s7,-3.134,7,-7C31.5,20.634,28.366,17.5,24.5,17.5zM25.1,29h-1.2v-1.5h1.2V29zM25.1,26h-1.2v-6h1.2V26z" fill="#DB2E2A" opacity="0.3"/>
      <path d="M24.5,32c-4.135,0,-7.5,-3.365,-7.5,-7.5s3.365,-7.5,7.5,-7.5s7.5,3.365,7.5,7.5S28.635,32,24.5,32zM24.5,18c-3.584,0,-6.5,2.916,-6.5,6.5s2.916,6.5,6.5,6.5s6.5,-2.916,6.5,-6.5S28.084,18,24.5,18z" fill="#DB2E2A"/>
      <path d="M25.1,29h-1.2v-1.5h1.2V29zM25.1,26h-1.2v-6h1.2V26z" fill="#FFFFFF"/>
    </g>
  </g>
</svg>
