<?xml version="1.0" encoding="UTF-8"?>
<!DOCTYPE svg PUBLIC "-//W3C//DTD SVG 1.1//EN" "http://www.w3.org/Graphics/SVG/1.1/DTD/svg11.dtd">
<svg version="1.1" id="Layer_1" xmlns="http://www.w3.org/2000/svg" xmlns:xlink="http://www.w3.org/1999/xlink" x="0px" y="0px" width="32px" height="32px" viewBox="0 0 32 32" enable-background="new 0 0 32 32" xml:space="preserve">
  <g id="main">
    <g id="icon">
      <path d="M23.5,15.2L24.51,14.8L25.08,14.65L25.6,14.56L27.12,12.54L27.4,12L27.5,11.4L27.5,2.533L27.42,2.131L27.2,1.803L26.87,1.581L26.47,1.5L23.5,1.5zz" fill="#FFFFFF"/>
      <path d="M23,1.5L23,15.49L23.44,15.23L24,15L24,2L26.42,2L26.67,2.052L26.84,2.163L26.95,2.328L27,2.583L27,11.36L26.92,11.84L26.7,12.27L24.87,14.71L25.08,14.65L25.66,14.56L26.26,14.52L27.52,12.84L27.54,12.81L27.56,12.77L27.85,12.23L27.88,12.16L27.9,12.08L27.99,11.48L28,11.44L28,11.4L28,2.533L28,2.483L27.99,2.434L27.91,2.032L27.89,1.934L27.83,1.852L27.61,1.523L27.56,1.443L27.48,1.388L27.15,1.167L27.07,1.111L26.97,1.091L26.57,1.01L26.52,1L26.47,1L23.5,1L23,1zz" fill="#0EBDFE"/>
      <path d="M3.5,28.5L14.53,28.5L14.54,28.37L14.67,27.94L14.89,27.55L15.18,27.19L15.21,27.16L19.71,22.68L19.59,21.64L19.63,20.6L19.72,20.02L19.86,19.46L20.28,18.4L20.87,17.42L21.6,16.56L22.47,15.82L23.44,15.23L24.12,14.95L23.7,13.83L23.55,13.03L23.5,12.22L23.5,1.5L3.5,1.5zz" fill="#85DEFF"/>
      <path d="M3,1.5L3,28.5L3,29L3.5,29L14.5,29L14.5,28.83L14.54,28.37L14.66,28L4,28L4,2L23,2L23,12.22L23,12.23L23,12.25L23.05,13.06L23.05,13.09L23.06,13.12L23.21,13.92L23.22,13.96L23.23,14L23.66,15.14L24.51,14.8L24.59,14.78L24.18,13.69L24.05,12.96L24,12.2L24,1.5L24,1L23.5,1L3.5,1L3,1zz" fill="#0EBDFE"/>
    </g>
    <g id="overlay">
      <path d="M25.903,16.54c-2.244,0.278,-4.031,2.061,-4.285,4.288c-0.099,0.868,0.033,1.696,0.342,2.434c-1.398,1.381,-5.369,5.345,-5.369,5.345c-0.059,0.059,-0.092,0.138,-0.092,0.221V31.5h3v-2h2v-1.572l1.278,-1.281l0.233,0.245c0.122,0.122,0.314,0.125,0.44,0.007c0,0,0.737,-0.744,1.057,-1.042c0.713,0.318,1.516,0.474,2.36,0.421c2.418,-0.151,4.4,-2.042,4.617,-4.434C31.767,18.726,29.083,16.146,25.903,16.54zM27.637,21.585c-0.719,0,-1.302,-0.582,-1.302,-1.299c0,-0.717,0.583,-1.299,1.302,-1.299c0.719,0,1.302,0.582,1.302,1.299C28.939,21.003,28.356,21.585,27.637,21.585z" fill="#F7DA8E" stroke="#E57428" stroke-width="1" stroke-linecap="round" stroke-miterlimit="10"/>
    </g>
  </g>
</svg>
