<?xml version="1.0" encoding="UTF-8"?>
<!DOCTYPE svg PUBLIC "-//W3C//DTD SVG 1.1//EN" "http://www.w3.org/Graphics/SVG/1.1/DTD/svg11.dtd">
<svg version="1.1" id="Layer_1" xmlns="http://www.w3.org/2000/svg" xmlns:xlink="http://www.w3.org/1999/xlink" x="0px" y="0px" width="32px" height="32px" viewBox="0 0 32 32" enable-background="new 0 0 32 32" xml:space="preserve">
  <g id="main">
    <g id="icon">
      <path d="M2.5,29.5L12.5,29.5L12.5,24.5L15.5,24.5L15.5,19.5L18.5,19.5L18.5,15.5L27.5,15.5L27.5,14.01L2.5,14.01zz" fill="#FFFFFF"/>
      <path d="M2.5,29.5L12.5,29.5L12.5,24.5L15.5,24.5L15.5,19.5L18.5,19.5L18.5,15.5L27.5,15.5L27.5,14.01L2.5,14.01zz" fill="#FE8D8D" opacity="0.4"/>
      <path d="M2,29.5L2,30L2.5,30L12.5,30L13,30L13,29.5L13,25L15.5,25L15.5,24L12.5,24L12,24L12,24.5L12,29L3,29L3,14.01L2,14.01zM27,15.5L28,15.5L28,14.01L27,14.01zz" fill="#700000"/>
      <path d="M19.5,3.5L22.5,3.5L22.5,0.5L19.5,0.5zz" fill="#FE8D8D"/>
      <path d="M19,0.5L19,3.5L19,4L19.5,4L22.5,4L23,4L23,3.5L23,0.5L23,0L22.5,0L19.5,0L19,0zM22,1L22,3L20,3L20,1zz" fill="#700000"/>
      <path d="M4.753,3.529L4.568,3.61L4.413,3.739L4.296,3.909L0.634,13.23L0.6422,13.41L0.7068,13.48L0.799,13.5L29.2,13.5L29.29,13.48L29.36,13.41L29.37,13.23L25.71,3.909L25.59,3.739L25.43,3.61L25.25,3.529L25.04,3.5L4.957,3.5zz" fill="#FF8D8D"/>
      <path d="M4.888,3.005L4.684,3.033L4.615,3.043L4.551,3.071L4.366,3.153L4.303,3.181L4.25,3.225L4.094,3.354L4.04,3.398L4.001,3.456L3.884,3.626L3.852,3.673L3.831,3.726L0.1686,13.05L0.1297,13.15L0.1346,13.26L0.1428,13.44L0.1518,13.63L0.2934,13.77L0.3578,13.83L0.452,13.93L0.5787,13.96L0.6709,13.98L0.7338,14L0.799,14L29.2,14L29.27,14L29.33,13.98L29.42,13.96L29.55,13.93L29.64,13.83L29.71,13.77L29.85,13.63L29.86,13.44L29.87,13.26L29.87,13.15L29.83,13.05L26.17,3.726L26.15,3.672L26.12,3.625L26,3.455L25.96,3.398L25.91,3.354L25.75,3.225L25.7,3.181L25.63,3.153L25.45,3.071L25.39,3.043L25.32,3.033L25.11,3.005L25.08,3L25.04,3L4.957,3L4.922,3zM25.01,4L25.11,4.014L25.17,4.04L25.22,4.08L25.26,4.145L28.74,13L1.263,13L4.74,4.146L4.785,4.08L4.834,4.04L4.892,4.014L4.992,4zz" fill="#990000"/>
      <path d="M6.5,21.5L12.5,21.5L12.5,16.5L6.5,16.5zM17.5,19.5L18.5,19.5L18.5,16.5L17.5,16.5zz" fill="#FE8D8D"/>
      <path d="M6,16.5L6,21.5L6,22L6.5,22L12.5,22L13,22L13,21.5L13,16.5L13,16L12.5,16L6.5,16L6,16zM17,16.5L17,19.5L18,19.5L18,17L18.5,17L18.5,16L17.5,16L17,16zM12,17L12,21L7,21L7,17zz" fill="#700000"/>
    </g>
    <g id="overlay">
      <rect x="17.5" y="21.5" width="14" height="7" fill="#92CBEE" stroke="#0964B0" stroke-width="1" stroke-miterlimit="10"/>
      <path d="M20.5,21v-3.5h8v3.5M28.5,25.5h-8v6h8V25.5z" fill="#FFFFFF" stroke="#383838" stroke-width="1" stroke-miterlimit="10"/>
      <path d="M22,27.5h5M22,29.5h5" fill="none" stroke="#787979" stroke-width="1" stroke-miterlimit="10"/>
      <rect x="19" y="23" width="2" height="1" fill="#0964B0"/>
    </g>
  </g>
</svg>
