<?xml version="1.0" encoding="UTF-8"?>
<!DOCTYPE svg PUBLIC "-//W3C//DTD SVG 1.1//EN" "http://www.w3.org/Graphics/SVG/1.1/DTD/svg11.dtd">
<svg version="1.1" id="Layer_1" xmlns="http://www.w3.org/2000/svg" xmlns:xlink="http://www.w3.org/1999/xlink" x="0px" y="0px" width="32px" height="32px" viewBox="0 0 32 32" enable-background="new 0 0 32 32" xml:space="preserve">
  <g id="main">
    <clipPath id="clip_mask">
      <path d="M19.531,32H0V0h32v19.531C30.386,17.103,27.627,15.5,24.5,15.5c-4.963,0,-9,4.037,-9,9C15.5,27.627,17.103,30.386,19.531,32zM29.469,32H32v-2.531C31.334,30.472,30.472,31.334,29.469,32z"/>
    </clipPath>
    <g id="icon" clip-path="url(#clip_mask)">
      <g id="transformed_icon" transform="translate(-1 -1)">
        <rect x="1.5" y="3.5" width="29" height="25" fill="#FFFFFF"/>
        <circle cx="24" cy="9" r="2.5" fill="#F7DA8E" stroke="#E57428" stroke-width="1" stroke-miterlimit="1"/>
        <path d="M30.5,28.4H1.5v-9.1c5.722,-7.308,8.632,-6.852,14.833,0.6c4.496,-5.223,9.249,-3.326,14.167,3.1V28.4z" fill="#ACD8B1"/>
        <path d="M16.388,19.76c5.523,-5.925,9.485,-1.782,14.112,2.909M23.725,25.652C13.93,21.896,10.746,5.181,1.5,20.071" fill="none" stroke="#0BA04A" stroke-width="1.2" stroke-miterlimit="1"/>
        <path d="M31,29H1V3h30V29zM2,28h28V4H2V28z" fill="#383838"/>
      </g>
    </g>
    <g id="overlay">
      <path d="M29.45,29.45c-2.734,2.734,-7.166,2.734,-9.899,0c-2.734,-2.734,-2.734,-7.166,0,-9.899s7.166,-2.734,9.899,0C32.183,22.284,32.183,26.716,29.45,29.45z" fill="#FFFFFF" stroke="#228BCB" stroke-width="1" stroke-miterlimit="1"/>
      <path d="M22,21.5h5.5v5.5M21.309,27.691l5.901,-5.901" fill="none" stroke="#228BCB" stroke-width="1" stroke-miterlimit="1"/>
    </g>
  </g>
</svg>
