<?xml version="1.0" encoding="UTF-8"?>
<!DOCTYPE svg PUBLIC "-//W3C//DTD SVG 1.1//EN" "http://www.w3.org/Graphics/SVG/1.1/DTD/svg11.dtd">
<svg version="1.1" id="Layer_1" xmlns="http://www.w3.org/2000/svg" xmlns:xlink="http://www.w3.org/1999/xlink" x="0px" y="0px" width="32px" height="32px" viewBox="0 0 32 32" enable-background="new 0 0 32 32" xml:space="preserve">
  <g id="icon">
    <g fill="#1b722f" stroke="#1b722f" stroke-width="1" transform="translate(0.5 0.5)">
      <circle cx="15.5" cy="15.5" r="13.9" fill="#1b722f" stroke="#1b722f" stroke-width="1.2" stroke-miterlimit="50"/>
    </g>
    <g fill="#ffffff">
      <path d="m16.0001,24.779q-1.85156,0,-3.26953,-0.773437,-1.40625,-0.785156,-2.17969,-2.20313Q9.77741,20.3727,9.77741,18.4977V13.6696q0,-1.875,0.773437,-3.29297,0.773438,-1.42969,2.17969,-2.20313,1.41797,-0.785156,3.26953,-0.785156,1.85156,0,3.25781,0.785156,1.41797,0.773438,2.19141,2.20313,0.773437,1.41797,0.773437,3.29297v4.82813q0,1.875,-0.773437,3.30469,-0.773438,1.41797,-2.19141,2.20313,-1.40625,0.773437,-3.25781,0.773437zm0,-3.21094q0.867187,0,1.52344,-0.363281,0.65625,-0.375,1.00781,-1.05469,0.363281,-0.679687,0.363281,-1.57031v-4.99219q0,-0.890625,-0.363281,-1.57031,-0.351563,-0.679688,-1.00781,-1.04297,-0.65625,-0.375,-1.52344,-0.375,-0.867188,0,-1.52344,0.375,-0.65625,0.363281,-1.01953,1.04297,-0.351562,0.679687,-0.351562,1.57031v4.99219q0,0.890625,0.351562,1.57031,0.363281,0.679688,1.01953,1.05469,0.65625,0.363281,1.52344,0.363281z"/>
    </g>
  </g>
</svg>
