<?xml version="1.0" encoding="UTF-8"?>
<!DOCTYPE svg PUBLIC "-//W3C//DTD SVG 1.1//EN" "http://www.w3.org/Graphics/SVG/1.1/DTD/svg11.dtd">
<svg version="1.1" id="Layer_1" xmlns="http://www.w3.org/2000/svg" xmlns:xlink="http://www.w3.org/1999/xlink" x="0px" y="0px" width="32px" height="32px" viewBox="0 0 32 32" enable-background="new 0 0 32 32" xml:space="preserve">
  <g id="icon">
    <g fill="#000080" stroke="#000080" stroke-width="1" transform="translate(0.5 0.5)">
      <circle cx="15.5" cy="15.5" r="13.9" fill="#000080" stroke="#000080" stroke-width="1.2" stroke-miterlimit="50"/>
    </g>
    <g fill="#ffffff">
      <path d="m15.9052,24.6486q-1.21875,0,-2.39063,-0.246093,-1.16016,-0.246094,-2.19141,-0.714844,-1.01953,-0.480469,-1.82813,-1.14844v0l1.48828,-2.64844v0q0.984375,0.808594,2.27344,1.25391,1.28906,0.433594,2.64844,0.433594,1.57031,0,2.4375,-0.527344,0.867188,-0.539062,0.867188,-1.51172v-0.01172q0,-0.679688,-0.386719,-1.07813,-0.386719,-0.398438,-1.00781,-0.585938,-0.621093,-0.1875,-1.59375,-0.339844,-0.03516,-0.01172,-0.07031,-0.01172,-0.02344,0,-0.05859,-0.01172l-0.257812,-0.03516q-1.71094,-0.269532,-2.83594,-0.667969,-1.125,-0.410156,-1.91016,-1.41797,-0.785156,-1.01953,-0.785156,-2.88281v-0.01172q0,-1.65234,0.738281,-2.82422,0.738281,-1.17188,2.14453,-1.78125,1.40625,-0.621094,3.39844,-0.621094,0.914062,0,1.86328,0.210938,0.960937,0.210938,1.875,0.609375,0.914062,0.398438,1.73438,0.960938v0l-1.35938,2.71875v0q-0.984375,-0.679687,-2.0625,-1.05469,-1.06641,-0.375,-2.05078,-0.375,-1.47656,0,-2.28516,0.492187,-0.808593,0.480469,-0.808593,1.35938v0.01172q0,0.738281,0.421875,1.17188,0.421875,0.421875,1.04297,0.621094,0.621094,0.199219,1.74609,0.421875,0.04687,0.01172,0.09375,0.02344,0.04687,0,0.09375,0.01172,0.07031,0.01172,0.128906,0.03516,0.07031,0.01172,0.140625,0.02344,1.61719,0.316406,2.69531,0.773437,1.08984,0.445313,1.81641,1.45313,0.726563,0.996094,0.726563,2.73047v0.02344q0,1.62891,-0.761719,2.78906,-0.761719,1.16016,-2.22656,1.76953,-1.45313,0.609375,-3.50391,0.609375z"/>
    </g>
  </g>
</svg>
