<?xml version="1.0" encoding="UTF-8"?>
<!DOCTYPE svg PUBLIC "-//W3C//DTD SVG 1.1//EN" "http://www.w3.org/Graphics/SVG/1.1/DTD/svg11.dtd">
<svg version="1.1" id="Layer_1" xmlns="http://www.w3.org/2000/svg" xmlns:xlink="http://www.w3.org/1999/xlink" x="0px" y="0px" width="32px" height="32px" viewBox="0 0 32 32" enable-background="new 0 0 32 32" xml:space="preserve">
  <g id="icon">
    <path d="M15.963,2.558L2.313,8.939l13.65,6.316L29.7,8.939L15.963,2.558zM24.072,13.419L29.7,16.033l-13.737,6.316l-13.65,-6.316l5.59,-2.613l8.057,3.728L24.072,13.419zM24.072,20.513L29.7,23.127l-13.737,6.316l-13.65,-6.316l5.59,-2.613l8.057,3.728L24.072,20.513z" fill="#92CBEE"/>
    <path d="M15.962,15.812L1.114,8.942L15.962,2l14.943,6.942L15.962,15.812zM3.511,8.937l12.452,5.762l12.532,-5.762L15.963,3.115L3.511,8.937zM23.469,13.696l5.026,2.335l-12.532,5.762L3.511,16.031l4.991,-2.333l-1.2,-0.555l-6.189,2.893l14.848,6.87l14.943,-6.87l-6.23,-2.894L23.469,13.696zM23.469,20.79l5.026,2.335l-12.532,5.762L3.511,23.125l4.991,-2.333l-1.2,-0.555L1.114,23.13L15.962,30l14.943,-6.87l-6.23,-2.894L23.469,20.79z" fill="#0F65B0"/>
  </g>
</svg>
