<?xml version="1.0" encoding="UTF-8"?>
<!DOCTYPE svg PUBLIC "-//W3C//DTD SVG 1.1//EN" "http://www.w3.org/Graphics/SVG/1.1/DTD/svg11.dtd">
<svg version="1.1" id="Layer_1" xmlns="http://www.w3.org/2000/svg" xmlns:xlink="http://www.w3.org/1999/xlink" x="0px" y="0px" width="32px" height="32px" viewBox="0 0 32 32" enable-background="new 0 0 32 32" xml:space="preserve">
  <g id="main">
    <g id="icon">
      <path d="M0.5,25.5L15.56,25.5L15.5,24.5L15.55,23.58L15.68,22.69L15.91,21.83L16.21,21L16.59,20.21L17.04,19.47L17.56,18.78L18.14,18.14L18.78,17.56L19.47,17.04L20.21,16.59L21,16.21L21.83,15.91L22.69,15.68L23.58,15.55L24.5,15.5L25.65,15.57L26.76,15.79L27.82,16.14L28.82,16.61L29.74,17.19L30.5,17.81L30.5,4.5L0.5,4.5zz" fill="#FFFFFF"/>
      <path d="M0,4.5L0,25.5L0,26L0.5,26L15.64,26L15.57,25.65L15.53,25L1,25L1,5L30,5L30,17.4L30.59,17.88L31,18.31L31,4.5L31,4L30.5,4L0.5,4L0,4zz" fill="#383838"/>
      <path d="M23.5,12.5L27.5,12.5L27.5,7.5L23.5,7.5zz" fill="#FFFFFF"/>
      <path d="M23,7.5L23,12.5L23,13L23.5,13L27.5,13L28,13L28,12.5L28,7.5L28,7L27.5,7L23.5,7L23,7zM27,8L27,12L24,12L24,8zz" fill="#EE3D3B"/>
      <path d="M4,9L18,9L18,8L4,8zM4,11L15,11L15,10L4,10zM5,19L17.39,19L17.56,18.78L18.14,18.14L18.29,18L5,18zM5,21L15,21L15,20L5,20zz" fill="#787979"/>
      <path d="M5,17L19,17L19,16L5,16zz" fill="#383838"/>
    </g>
    <g id="overlay">
      <ellipse cx="24.5" cy="24.492" rx="7" ry="6.992" fill="#FFFFFF" stroke="#000070" stroke-width="1" stroke-miterlimit="10"/>
      <path d="M19.273,19.877c1.381,0.725,3.203,1.352,5.201,1.352c1.974,0,3.824,-0.617,5.199,-1.326M29.627,29.128c-1.375,-0.709,-3.178,-1.373,-5.152,-1.373c-1.998,0,-3.821,0.674,-5.201,1.398M24.475,17.522c-2.092,0.957,-3.928,4.384,-3.928,7.003c0,2.587,1.726,6.012,3.846,6.938M24.532,31.463c2.119,-0.926,3.846,-4.351,3.846,-6.938c0,-2.618,-1.789,-6.046,-3.881,-7.003M17.684,24.492h13.66M24.5,17.5v14" fill="none" stroke="#000070" stroke-width="1" stroke-miterlimit="10" opacity="0.7"/>
    </g>
  </g>
</svg>
