<?xml version="1.0" encoding="UTF-8" standalone="no"?>
<svg
   xmlns:dc="http://purl.org/dc/elements/1.1/"
   xmlns:cc="http://creativecommons.org/ns#"
   xmlns:rdf="http://www.w3.org/1999/02/22-rdf-syntax-ns#"
   xmlns:svg="http://www.w3.org/2000/svg"
   xmlns="http://www.w3.org/2000/svg"
   xmlns:sodipodi="http://sodipodi.sourceforge.net/DTD/sodipodi-0.dtd"
   xmlns:inkscape="http://www.inkscape.org/namespaces/inkscape"
   version="1.1"
   id="Layer_1"
   x="0px"
   y="0px"
   width="32px"
   height="32px"
   viewBox="0 0 32 32"
   enable-background="new 0 0 32 32"
   xml:space="preserve"
   sodipodi:docname="PDF.svg"
   inkscape:version="1.0.1 (3bc2e813f5, 2020-09-07)"><metadata
   id="metadata14"><rdf:RDF><cc:Work
       rdf:about=""><dc:format>image/svg+xml</dc:format><dc:type
         rdf:resource="http://purl.org/dc/dcmitype/StillImage" /></cc:Work></rdf:RDF></metadata><defs
   id="defs12">
    
    
    
  </defs><sodipodi:namedview
   pagecolor="#ffffff"
   bordercolor="#666666"
   borderopacity="1"
   objecttolerance="10"
   gridtolerance="10"
   guidetolerance="10"
   inkscape:pageopacity="0"
   inkscape:pageshadow="2"
   inkscape:window-width="1624"
   inkscape:window-height="1199"
   id="namedview10"
   showgrid="false"
   inkscape:zoom="31.5"
   inkscape:cx="14.557482"
   inkscape:cy="16.423417"
   inkscape:window-x="821"
   inkscape:window-y="29"
   inkscape:window-maximized="0"
   inkscape:current-layer="Layer_1"
   showguides="true"
   inkscape:guide-bbox="true"
   inkscape:document-rotation="0"><sodipodi:guide
     position="9.5459762,23.132275"
     orientation="1,0"
     id="guide125" /><sodipodi:guide
     position="28.885319,21.056917"
     orientation="1,0"
     id="guide142" /></sodipodi:namedview>
  <path
   d="m 23.5,1.5 h -16 c -0.047074,9.79573 -0.00497,20.406153 0,29 h 23 v -22 z"
   fill="#ffffff"
   id="path2"
   sodipodi:nodetypes="cccccc" /><path
   d="M 23.707,1 H 7 v 12.184429 l 1,-0.07206 V 2 h 15 v 7 h 7 V 30 H 8 V 23.12829 L 7,23.163046 7,31 H 31 V 8.293 Z M 24,8 V 2.707 L 29.293,8 Z"
   fill="#383838"
   id="path4"
   sodipodi:nodetypes="cccccccccccccccccccc"
   style="fill:#c0bfbc" />
<rect
   style="fill:#e01b24;stroke:#9a9996;stroke-width:0"
   id="rect19"
   width="25.079365"
   height="10.095238"
   x="6.349206"
   y="13.111111" /><text
   xml:space="preserve"
   style="font-weight:bold;font-size:9.13214px;line-height:1.25;font-family:sans-serif;-inkscape-font-specification:'sans-serif Bold';letter-spacing:0.52px;fill:#ffffff;stroke-width:0.856135"
   x="9.1810789"
   y="21.343506"
   id="text25"
   transform="scale(0.99455688,1.0054729)"><tspan
     sodipodi:role="line"
     id="tspan23"
     x="9.1810789"
     y="21.343506"
     style="font-style:normal;font-variant:normal;font-weight:normal;font-stretch:normal;font-size:9.13214px;font-family:sans-serif;-inkscape-font-specification:sans-serif;fill:#ffffff;stroke-width:0.856135">PDF</tspan></text><path
   style="fill:#9a9996;stroke:#9a9996;stroke-width:0.806069px;stroke-linecap:butt;stroke-linejoin:miter;stroke-opacity:1"
   d="M 9.5459762,8.8677247 H 21.819103"
   id="path27-4" /><path
   style="fill:#9a9996;stroke:#9a9996;stroke-width:0.806069px;stroke-linecap:butt;stroke-linejoin:miter;stroke-opacity:1"
   d="M 9.5459762,6.7830685 H 21.819103"
   id="path27-4-0" /><path
   style="fill:#9a9996;stroke:#9a9996;stroke-width:0.806069px;stroke-linecap:butt;stroke-linejoin:miter;stroke-opacity:1"
   d="M 9.5459762,4.6984127 H 21.819103"
   id="path27-4-7" /><path
   style="fill:#9a9996;stroke:#9a9996;stroke-width:0.806069px;stroke-linecap:butt;stroke-linejoin:miter;stroke-opacity:1"
   d="M 9.5459762,10.943083 H 21.819104"
   id="path27-4-5" /><path
   style="fill:#9a9996;stroke:#9a9996;stroke-width:0.806069px;stroke-linecap:butt;stroke-linejoin:miter;stroke-opacity:1"
   d="M 9.5459762,25.587301 H 21.819103"
   id="path27-4-2" /><path
   style="fill:#9a9996;stroke:#9a9996;stroke-width:0.806069px;stroke-linecap:butt;stroke-linejoin:miter;stroke-opacity:1"
   d="M 16.612191,10.943083 H 28.885319"
   id="path27-4-5-2" /><path
   style="fill:#9a9996;stroke:#9a9996;stroke-width:0.806069px;stroke-linecap:butt;stroke-linejoin:miter;stroke-opacity:1"
   d="M 16.612192,25.587302 H 28.885319"
   id="path27-4-2-2" /><path
   d="m 26.657709,25.268385 c 0.266629,-0.04028 0.278433,0.285883 0.278433,0.448093 -2.32e-4,0.210547 -0.01134,0.421748 -0.04213,0.630553 -0.06805,0.4629 -0.224969,0.924492 -0.414988,1.355821 -0.176827,0.401716 -0.377262,0.841753 -0.72675,1.138523 -0.119196,0.101245 -0.40573,0.290891 -0.560338,0.12476 -0.159005,-0.170701 0.137249,-0.404111 0.249734,-0.500131 0.361291,-0.308527 0.808914,-0.494253 1.259313,-0.659076 0.428875,-0.156985 0.858676,-0.27369 1.304909,-0.376677 0.246725,-0.05704 0.53349,-0.119318 0.778363,-0.02134 0.09813,0.03919 0.197195,0.101899 0.221265,0.205322 0.028,0.119753 -0.0412,0.219039 -0.166643,0.242772 -0.40573,0.07686 -0.870248,-0.123018 -1.160253,-0.376895 -0.388372,-0.340315 -0.684395,-0.594191 -0.930656,-0.98807 -0.11804,-0.188556 -0.204601,-0.390176 -0.258529,-0.602901 -0.0449,-0.176363 -0.127528,-0.576337 0.168263,-0.620755 z"
   fill="none"
   stroke="#ee3d3b"
   stroke-width="0.291832"
   stroke-miterlimit="1"
   id="path6" /></svg>
