<?xml version="1.0" encoding="UTF-8"?>
<!DOCTYPE svg PUBLIC "-//W3C//DTD SVG 1.1//EN" "http://www.w3.org/Graphics/SVG/1.1/DTD/svg11.dtd">
<svg version="1.1" id="Layer_1" xmlns="http://www.w3.org/2000/svg" xmlns:xlink="http://www.w3.org/1999/xlink" x="0px" y="0px" width="32px" height="32px" viewBox="0 0 32 32" enable-background="new 0 0 32 32" xml:space="preserve">
  <g id="icon">
    <path d="M29.5,27.433V17.5l1,0V7.567C30.5,6.425,29.675,5.5,28.433,5.5H3.567C2.525,5.5,1.5,6.425,1.5,7.567V17.5h1v9.933C2.5,28.575,3.425,29.5,4.567,29.5h22.867C28.575,29.5,29.5,28.575,29.5,27.433zM2.5,17.5h4M25.5,17.5h3.9" id="b" fill="#FFFFFF"/>
    <path d="M29.5,27.433V17.5l1,0V7.567C30.5,6.425,29.675,5.5,28.433,5.5H3.567C2.525,5.5,1.5,6.425,1.5,7.567V17.5h1v9.933C2.5,28.575,3.425,29.5,4.567,29.5h22.867C28.575,29.5,29.5,28.575,29.5,27.433zM2.5,17.5h4M25.5,17.5h3.9" fill="#A5C7E6" opacity="0.5"/>
    <path d="M29.5,27.433V17.5l1,0V7.567C30.5,6.425,29.675,5.5,28.433,5.5H3.567C2.525,5.5,1.5,6.425,1.5,7.567V17.5h1v9.933C2.5,28.575,3.425,29.5,4.567,29.5h22.867C28.575,29.5,29.5,28.575,29.5,27.433zM2.5,17.5h4M25.5,17.5h3.9" fill="none" stroke="#183957" stroke-width="1" stroke-miterlimit="10"/>
    <path d="M10.5,17.5h11" id="b" fill="#FFFFFF" stroke="#183957" stroke-width="1" stroke-miterlimit="10"/>
    <path d="M9.983,20.5H7.017c-0.285,0,-0.517,-0.231,-0.517,-0.517v-4.917c0,-0.313,0.254,-0.567,0.567,-0.567h2.867c0.313,0,0.567,0.254,0.567,0.567v4.917C10.5,20.269,10.269,20.5,9.983,20.5zM25.5,19.983v-4.917c0,-0.313,-0.254,-0.567,-0.567,-0.567h-2.867c-0.313,0,-0.567,0.254,-0.567,0.567v4.917c0,0.285,0.231,0.517,0.517,0.517h2.967C25.269,20.5,25.5,20.269,25.5,19.983z" fill="#B1CEE9" stroke="#337BBD" stroke-width="1" stroke-linecap="round" stroke-miterlimit="10"/>
    <path d="M9.55,5.6V3.633c0,-1.151,0.933,-2.083,2.083,-2.083h8.733c1.151,0,2.083,0.933,2.083,2.083V5.6" fill="none" stroke="#183957" stroke-width="1.1" stroke-miterlimit="10"/>
  </g>
</svg>
