<?xml version="1.0" encoding="UTF-8"?>
<!DOCTYPE svg PUBLIC "-//W3C//DTD SVG 1.1//EN" "http://www.w3.org/Graphics/SVG/1.1/DTD/svg11.dtd">
<svg version="1.1" id="Layer_1" xmlns="http://www.w3.org/2000/svg" xmlns:xlink="http://www.w3.org/1999/xlink" x="0px" y="0px" width="32px" height="32px" viewBox="0 0 32 32" enable-background="new 0 0 32 32" xml:space="preserve">
  <g id="main">
    <clipPath id="clip_mask">
      <path d="M14.692,32H0V0h32v14.652c-0.207,-0.067,-0.424,-0.102,-0.645,-0.102c-0.53,0,-1.047,0.203,-1.457,0.572c-0.124,0.111,-0.606,0.387,-1.229,0.479c-0.056,0.008,-0.16,0.018,-0.337,0.018c-0.358,0,-0.837,-0.04,-1.346,-0.083c-0.709,-0.059,-1.513,-0.127,-2.41,-0.127c-1.788,0,-3.347,0.282,-4.768,0.862c-1.916,0.783,-3.413,2.218,-4.329,4.15c-0.716,1.511,-0.941,3.052,-0.913,3.991c0.025,0.842,0.211,2.07,0.374,3.153c0.059,0.388,0.151,1,0.182,1.282c-0.192,0.67,-0.359,1.373,-0.502,2.11C14.552,31.312,14.58,31.668,14.692,32zM29.526,25.007c-2.679,3.683,-6.006,5.63,-9.62,5.63c-0.209,0,-0.421,-0.009,-0.633,-0.022l-0.517,0.589c-0.038,0.174,-0.075,0.351,-0.11,0.534c-0.017,0.09,-0.042,0.177,-0.071,0.262H32V20.744C31.373,22.093,30.555,23.592,29.526,25.007z"/>
    </clipPath>
    <g id="icon" clip-path="url(#clip_mask)">
      <g id="transformed_icon" transform="translate(-1 -1)">
        <path d="M28.3,31c0,-6.803,-5.491,-13.2,-12.265,-13.2S3.77,24.197,3.77,31" fill="#DFBCD9"/>
        <path d="M20.389,18.715c-1.353,-0.586,-2.82,-0.915,-4.354,-0.915c-1.547,0,-3.027,0.335,-4.39,0.931c0.767,2.631,2.325,4.692,4.355,6.411C18.161,23.186,19.762,21.081,20.389,18.715z" fill="#FCD8BB"/>
        <path d="M20.389,18.808c-1.353,-0.586,-2.82,-0.915,-4.354,-0.915c-1.547,0,-3.027,0.335,-4.39,0.931" fill="none" stroke="#AF6E41" stroke-width="1.1" stroke-linecap="round" stroke-miterlimit="1"/>
        <path d="M28.3,31c0,-5.214,-3.226,-10.19,-7.783,-12.23c-0.65,2.473,-3.731,6.316,-4.482,6.316c-0.753,0,-3.837,-3.852,-4.482,-6.316C6.996,20.81,3.77,25.786,3.77,31" fill="none" stroke="#A0519F" stroke-width="1" stroke-miterlimit="1"/>
        <path d="M23.5,8.829c0,3.889,-3.358,9.675,-7.5,9.675s-7.5,-5.787,-7.5,-9.675S11.858,1.6,16,1.6S23.5,4.94,23.5,8.829z" fill="#FCD8BB"/>
        <path d="M23.5,8.829c0,3.889,-3.358,9.675,-7.5,9.675s-7.5,-5.787,-7.5,-9.675S11.858,1.6,16,1.6S23.5,4.94,23.5,8.829z" fill="none" stroke="#AF6E41" stroke-width="1.1" stroke-linecap="round" stroke-miterlimit="1"/>
        <path d="M23.507,7.586c-3.906,-3.557,-5.586,-0.86,-7.557,-0.86c-1.973,0,-3.457,-2.764,-7.369,0.87C9.219,4.258,12.317,1.6,16.045,1.6C19.77,1.6,22.865,4.253,23.507,7.586z" fill="#F7DA8E" stroke="#E57428" stroke-width="1.1" stroke-linecap="round" stroke-miterlimit="1" stroke-linejoin="round"/>
      </g>
    </g>
    <g id="overlay">
      <path d="M28.97,17.629c-1.716,0.254,-5.016,-0.836,-8.387,0.541c-3.37,1.376,-4.005,4.948,-3.968,6.183c0.038,1.291,0.587,4.096,0.566,4.617c0.331,-0.554,1.56,-0.455,1.977,-0.415c7.664,0.679,11.395,-9.291,12.227,-11.814c0.044,-0.133,-0.012,-0.187,-0.116,-0.094C30.855,17.018,30.016,17.474,28.97,17.629z" fill="#FFFFFF" stroke="#17AB4F" stroke-width="1.1" stroke-miterlimit="1"/>
      <path d="M16.633,31.349c1.853,-9.564,7.413,-9.67,8.859,-10.084" fill="none" stroke="#17AB4F" stroke-width="1.1" stroke-linecap="round" stroke-miterlimit="1"/>
    </g>
  </g>
</svg>
