<?xml version="1.0" encoding="UTF-8"?>
<!DOCTYPE svg PUBLIC "-//W3C//DTD SVG 1.1//EN" "http://www.w3.org/Graphics/SVG/1.1/DTD/svg11.dtd">
<svg version="1.1" id="Layer_1" xmlns="http://www.w3.org/2000/svg" xmlns:xlink="http://www.w3.org/1999/xlink" x="0px" y="0px" width="32px" height="32px" viewBox="0 0 32 32" enable-background="new 0 0 32 32" xml:space="preserve">
  <g id="main">
    <g id="icon">
      <path d="M0.4,28.5L17.92,28.44L17.76,28.01L17.58,27.02L17.57,25.92L17.69,24.96L17.87,23.99L18.35,22.06L18.68,20.78L18.91,19.63L19.53,15.61L22.18,18.39L22.33,17.48L22.4,16.85L22.68,13L25.67,15.45L26.08,15.81L25.67,13.74L29.5,17.17L29.5,6.5L0.5,6.5zz" fill="#FFFFFF"/>
      <path d="M3,10L16,10L16,9L3,9zM5,13L22,13L22,12L5,12zM12,19L19.01,19L19.16,18L12,18zM22,18.21L22,18L21.8,18zz" fill="#228BCB"/>
      <path d="M7,16L19.47,16L19.53,15.61L19.9,16L22.46,16L22.54,15L7,15zM12,22L18.37,22L18.62,21L12,21zM15,25L17.68,25L17.69,24.96L17.87,24L15,24zz" fill="#EE3D3B"/>
      <path d="M0,28L0,29L1,29L18.15,29L18.09,28.91L17.76,28.01L17.76,28L17,28L16.76,28L1,28L1,15L1,14.2L1,7L29,7L29,16.73L30,17.62L30,6L0,6zz" fill="#383838"/>
      <path d="M0.5,6.5L29.5,6.5L29.5,1.5L0.5,1.5zz" fill="#92CBEE"/>
      <path d="M0,1.5L0,6.5L0,7L0.5,7L29.5,7L30,7L30,6.5L30,1.5L30,1L29.5,1L0.5,1L0,1zM29,2L29,6L1,6L1,2zz" fill="#0964B0"/>
    </g>
    <g id="overlay">
      <path d="M27.68,31.034c4.89,-2.348,4.882,-8.432,1.133,-11.79c0.15,0.747,0.322,2.485,-0.26,3.579c-0.818,-3.088,-4.153,-5.824,-4.153,-5.824s-0.141,1.994,-0.762,3.507c-0.171,0.417,-0.773,2.442,-1.668,3.205c-0.026,-0.815,-0.217,-2.864,-1.082,-3.773c-0.29,1.882,-1.168,4.217,-1.32,6.135c-0.191,2.412,1.587,3.808,3.379,4.929" fill="#FFFFFF" stroke="#383838" stroke-width="1" stroke-miterlimit="10"/>
      <path d="M27.565,31.127c1.255,-2.376,0.493,-5.493,-1.835,-7.045c0.255,0.87,0.451,2.811,-0.076,3.44c-0.352,-0.383,-0.96,-1.335,-1.349,-1.887c-0.341,1.046,-1.063,1.84,-1.489,2.835c-0.438,1.021,0.1,2.347,0.256,2.602C24.526,31.676,26.026,31.662,27.565,31.127z" fill="#F7DA8E" stroke="#ED8730" stroke-width="1" stroke-linecap="round" stroke-miterlimit="10"/>
    </g>
  </g>
</svg>
