<?xml version="1.0" encoding="utf-8" ?>
<svg xmlns="http://www.w3.org/2000/svg" xmlns:xlink="http://www.w3.org/1999/xlink" width="1247" height="1241">
	<path fill="#1A4F5C" d="M757.653 647.953L759.791 643.944L760.804 643.66L761.453 644.194C768.863 650.216 777 653.291 786.293 655.14C775.717 655.739 766.784 653.305 757.653 647.953Z"/>
	<path fill="#1A4F5C" d="M1194.43 654.466L1203.44 654.531L1203.5 664.091L1142.77 664.18L1127.3 664.207C1125.45 664.212 1123.26 664.602 1121.64 663.697L1194.39 663.683L1194.43 654.466Z"/>
	<path fill="#1A4F5C" d="M575.39 654.471L584.492 654.507L584.488 664.079L503.266 664.293L502.46 663.131C504.337 664.448 568.639 663.694 575.375 663.682L575.39 654.471Z"/>
	<path fill="#1A4F5C" d="M797.999 560.748C809.434 560.948 818.201 564.024 828.167 569.357C827.429 571.155 825.539 577.209 824.211 578.176L817.248 574.316C817.886 572.63 818.62 571.121 818.697 569.305C811.896 565.502 805.585 563.851 798.538 560.972L797.999 560.748Z"/>
	<path fill="#1A4F5C" d="M855.563 663.683C857.234 663.691 866.112 664.162 866.926 663.341C867.676 662.586 868.694 659.317 869.171 658.242C870.542 655.156 877.75 637.472 879.494 636.459L918.016 636.402C923.24 636.397 930.963 635.435 935.818 636.891L887.588 636.946L875.683 664.01L860.609 664.198C858.853 664.194 857.17 664.446 855.563 663.683Z"/>
	<path fill="#1A4F5C" d="M625.457 663.132L626.344 663.67C629.373 663.691 633.792 664.232 636.638 663.421L636.653 631.446L645.986 631.537L645.807 632.189C645.262 634.867 645.628 638.106 645.638 640.842C645.666 648.454 646.277 656.498 645.645 664.062L626.261 664.298L625.457 663.132Z"/>
	<path fill="#1A4F5C" d="M41.5641 663.635L52.5628 663.684L52.5862 631.521L84.7182 631.566L83.9384 631.637L61.5918 631.968L61.6305 664.075L46.3021 664.2C44.6244 664.207 42.9703 664.583 41.5641 663.635Z"/>
	<path fill="#1A4F5C" d="M566.754 607.108L575.934 607.134L575.881 616.553L522.576 616.84L522.659 641.559C522.662 645.753 523.054 650.37 522.491 654.519L513.626 654.637L513.639 616.442L566.761 616.391L566.754 607.108Z"/>
	<path fill="#00A57A" d="M912.176 739.22L920.043 739.187L920.075 809.904L912.281 810.311L912.176 739.22Z"/>
	<path fill="#1A4F5C" d="M89.2295 561.485C101.934 561.596 113.694 563.969 122.887 573.387C129.589 580.252 131.287 589.642 131.031 598.881C130.785 607.748 127.212 615.444 120.743 621.455C112.745 628.889 100.468 631.802 89.8114 631.469C95.5318 629.905 101.285 628.322 106.423 625.27C113.664 620.968 119.182 613.952 121.043 605.663C123.169 596.192 122.085 585.167 116.602 577.008C110.43 567.823 99.7531 563.446 89.2295 561.485Z"/>
	<path fill="#00A57A" d="M694.313 739.546C698.811 738.273 706.1 739.233 710.863 739.23L751.723 739.229L751.653 745.947L727.187 745.971C726.182 748.871 726.852 753.436 726.858 756.628L726.928 785.216L726.97 809.926L719.118 810.3L719.11 745.933L694.74 745.914C693.758 744.386 694.264 741.42 694.313 739.546Z"/>
	<path fill="#00A57A" d="M388.088 739.222L396.16 739.244L420.452 779.014C422.72 773.653 426.615 768.202 429.695 763.245L444.318 739.264L452.157 739.153L440.126 759.039L428.401 778.176C426.994 780.476 424.551 783.518 424.015 786.146C423.545 788.455 423.838 791.417 423.83 793.794L423.872 809.927L416.307 810.332C416.02 802.571 417.458 793.245 415.896 785.736C415.288 782.814 411.96 778.886 410.4 776.303C403.017 764.079 394.585 751.911 388.088 739.222Z"/>
	<path fill="#1A4F5C" d="M673.182 561.486C685.525 561.563 697.371 563.914 706.476 572.922C712.897 579.275 715.155 588.417 715.061 597.193C714.961 606.585 711.938 614.63 705.111 621.146C701.323 624.761 696.569 626.909 691.811 628.906L708.024 651.692C710.91 655.713 714.361 659.763 716.785 664.061L702.276 664.183C700.237 664.198 697.917 664.528 695.99 663.832L707.415 663.656L682.692 628.883C690.615 625.534 697.349 621.678 701.748 613.938C706.177 606.147 707.28 595.418 704.877 586.805L704.579 585.791C703.636 582.493 702.34 579.532 700.386 576.711C694.143 567.697 683.636 563.364 673.182 561.486Z"/>
	<path fill="#1A4F5C" d="M1082.12 561.26L1091.07 561.247L1045.76 663.818C1041.3 664.447 1036.57 664.177 1032.06 664.235C1030.09 664.26 1027.72 664.697 1025.98 663.765L1036.85 663.675L1082.12 561.26Z"/>
	<path fill="#1A4F5C" d="M912.906 561.244L921.918 561.279L968.945 663.947L949.764 664.2C952.526 663.278 956.739 663.697 959.713 663.656L912.906 561.244Z"/>
	<path fill="#1A4F5C" d="M457.798 561.26L466.793 561.274L432.223 663.847C427.334 664.7 421.696 664.174 416.679 664.222C415.004 664.238 413.078 664.57 411.572 663.811L423.225 663.684L457.798 561.26Z"/>
	<path fill="#1A4F5C" d="M227.603 560.705C242.481 560.93 255.644 566.526 266.117 577.226C275.628 586.943 279.749 601.004 279.485 614.335C279.236 626.881 274.264 640.257 265.155 649.082C253.411 660.461 239.174 665.058 223.017 664.894L221.303 664.818C222.663 664.488 222.098 664.558 223.394 664.484C231.603 664.021 240.184 660.68 247.107 656.264C258.243 649.16 266.463 637.722 269.097 624.722C270.301 618.781 270.852 612.643 270.024 606.603C269.234 600.843 268.113 595.798 265.761 590.459C260.348 578.172 250.321 569.959 238.282 564.511C234.849 562.957 231.117 562.091 227.603 560.705Z"/>
	<path fill="#00A57A" d="M519.484 738.856C529.192 738.397 537.055 740.227 545.57 744.929L543.03 751.197C535.56 746.895 527.582 744.389 518.905 745.6C514.591 746.202 509.78 747.728 507.143 751.461C505.564 753.696 504.535 756.885 505.135 759.606L505.294 760.25L505.615 761.55C507.914 768.679 521.305 770.702 527.689 772.46C531.62 773.542 535.481 774.795 539.123 776.652C543.379 778.822 546.431 781.733 547.802 786.434C549.013 790.583 548.217 796.105 546.157 799.83C543.563 804.521 538.522 807.874 533.392 809.257L532.471 809.49C528.194 810.613 524.014 810.538 519.62 810.563C510.435 809.668 503.249 807.391 495.752 801.912C496.216 799.694 497.584 797.655 498.648 795.659C502.127 798.054 505.602 800.579 509.67 801.878C517.148 804.266 527.112 805.66 534.301 801.627C537.214 799.993 539.773 797.635 540.48 794.246C543.471 779.897 520.648 778.61 511.46 775.349C507.038 773.779 502.449 771.424 499.826 767.372C497.578 763.901 496.781 758.88 497.776 754.852L497.961 754.16C498.628 751.513 499.545 749.263 501.198 747.054C505.375 741.469 512.918 739.621 519.484 738.856Z"/>
	<path fill="#00A57A" d="M661.611 738.836C671.257 738.391 679.111 740.31 687.587 744.919L685.014 751.171C676.808 746.179 666.563 743.742 657.112 746.283C653.455 747.266 649.897 749.6 648.169 753.041C646.84 755.687 646.712 759.333 647.856 762.076C650.478 768.364 660.681 770.01 666.543 771.599C671.371 772.909 675.958 774.163 680.49 776.33C684.721 778.352 688.135 781.187 689.6 785.798C691.037 790.323 690.436 795.704 688.109 799.83C685.346 804.731 680.652 807.845 675.273 809.3L674.342 809.539C670.158 810.649 665.933 810.516 661.633 810.554C652.57 809.85 644.64 807.323 637.52 801.62L640.649 795.603C649.222 801.875 658.041 805.03 668.765 803.849C673.559 803.322 678.163 801.428 681.115 797.483C682.647 795.435 683.117 791.846 682.438 789.395C679.118 777.394 655.31 778.536 646.013 771.632C642.164 768.773 640.271 765.524 639.547 760.827C638.795 755.948 640.315 750.786 643.303 746.882C647.601 741.267 654.993 739.653 661.611 738.836Z"/>
	<path fill="#00A57A" d="M563.57 739.215L571.632 739.186L571.647 769.478C571.654 775.118 571.177 781.419 572.156 786.967C572.876 791.045 574.521 794.914 577.329 797.995C581.3 802.352 587.325 803.675 592.98 803.756C598.737 803.838 604.037 802.237 608.192 798.113C610.747 795.577 612.311 792.847 613.274 789.371C615.019 783.072 614.371 775.782 614.375 769.279L614.325 739.319C616.749 739.253 619.647 738.859 621.978 739.539L621.998 744.57L622.022 768.328C622.007 780.214 623.246 793.746 614.187 802.999C608.888 808.412 601.322 810.425 593.962 810.529C585.858 810.643 577.707 808.967 571.806 803.044C561.956 793.158 563.718 777.961 563.684 765.178L563.57 739.215Z"/>
	<path fill="#00A57A" d="M763.226 739.233L812.056 739.247L812.007 745.934L770.956 745.964L770.974 770.808L807.69 770.741L807.723 777.591L773.134 777.521C772.325 777.496 771.729 777.697 770.955 777.908L771.013 803.342C776.706 803.361 811.268 802.491 813.507 803.788L813.706 809.962L763.413 810.098L763.226 739.233Z"/>
	<path fill="#00A57A" d="M831.342 739.546C833.008 739.013 835.15 739.261 836.915 739.276C839.13 740.422 840.638 742.783 842.163 744.707L851.949 757.216L882.89 796.298C883.758 791.032 883.051 784.593 883.047 779.214L883.007 739.182L890.753 739.188L890.767 809.573C888.718 810.249 886.536 810.016 884.408 809.954C878.971 804.489 874.29 797.667 869.485 791.609L839.044 753.021L839.064 809.592C837.624 810.559 833.159 810.231 831.27 810.329L831.342 739.546Z"/>
	<path fill="#00BBD8" d="M1035.98 640.185L1062.44 580.311L1067.79 568.155C1068.82 565.84 1069.7 563.094 1071.3 561.127L1082.12 561.26L1036.85 663.675L1025.98 663.765C1023.62 660.047 1021.93 655.526 1020.16 651.481L1011.17 630.984L980.279 561.275L992.168 561.248L1001.18 561.277L1035.98 640.185Z"/>
	<path fill="#1A4F5C" d="M992.168 561.248L1001.18 561.277L1035.98 640.185L1031.55 650.372L992.168 561.248Z"/>
	<path fill="#00BBD8" d="M502.46 663.131C502.045 655.455 502.389 647.561 502.38 639.862L502.338 594.929L502.319 570.926C502.318 567.971 501.794 564.005 502.657 561.196L573.113 561.245L582.18 561.246C582.186 564.111 582.715 568.066 581.81 570.741L522.567 571.095L522.578 607.151L566.754 607.108L566.761 616.391L513.639 616.442L513.626 654.637L522.491 654.519L575.39 654.471L575.375 663.682C568.639 663.694 504.337 664.448 502.46 663.131Z"/>
	<path fill="#1A4F5C" d="M573.113 561.245L582.18 561.246C582.186 564.111 582.715 568.066 581.81 570.741L522.567 571.095L522.578 607.151L513.631 607.196L513.584 570.908C516.215 569.643 524.449 570.547 527.719 570.543L573.119 570.505L573.113 561.245Z"/>
	<path fill="#00BBD8" d="M786.293 655.14C793.517 655.44 801.283 654.202 806.846 649.226C810.6 645.868 812.319 641.905 812.347 636.885C812.439 620.548 783.143 617.89 771.406 614.194C765.642 612.38 759.355 609.329 755.132 604.947C750.352 599.987 749.121 593.687 749.417 587.03C749.738 579.775 752.79 573.785 758.114 568.94C768.535 559.456 784.875 560.043 797.999 560.748L798.538 560.972C805.585 563.851 811.896 565.502 818.697 569.305C818.62 571.121 817.886 572.63 817.248 574.316L815.844 577.57C813.638 578.241 808.649 574.56 806.126 573.61C800.973 571.669 796.049 570.592 790.583 570.082C783.73 570.865 777.443 572.668 772.813 578.192C770.05 581.488 768.871 586.643 769.41 590.894C769.927 594.983 772.065 597.785 775.297 600.225C779.616 603.487 785.024 604.82 790.15 606.224C804.971 610.286 828.613 613.45 831.992 631.847C833.318 639.07 831.601 646.31 827.252 652.213C822.961 658.035 816.275 661.203 809.515 663.129L808.473 663.436C803.145 664.91 796.128 665.058 790.611 664.821C774.268 665.179 759.373 662.558 746.588 651.666L751.067 643.091L757.653 647.953C766.784 653.305 775.717 655.739 786.293 655.14Z"/>
	<path fill="#1A4F5C" d="M790.611 664.821C792.633 664.32 794.68 664.5 796.728 664.188C800.379 663.63 804.648 662.019 807.96 660.357C814.217 657.217 819.66 652.032 821.812 645.23L822.108 644.248C823.282 640.425 823.534 636.719 822.997 632.755C819.398 606.169 781.406 612.627 765.497 599.635C762.24 596.975 760.452 593.996 760.224 589.749C759.966 584.955 761.535 580.236 764.921 576.811C772.171 569.479 781.272 570.268 790.583 570.082C783.73 570.865 777.443 572.668 772.813 578.192C770.05 581.488 768.871 586.643 769.41 590.894C769.927 594.983 772.065 597.785 775.297 600.225C779.616 603.487 785.024 604.82 790.15 606.224C804.971 610.286 828.613 613.45 831.992 631.847C833.318 639.07 831.601 646.31 827.252 652.213C822.961 658.035 816.275 661.203 809.515 663.129L808.473 663.436C803.145 664.91 796.128 665.058 790.611 664.821Z"/>
	<path fill="#00BBD8" d="M1121.64 663.697C1120.51 652.155 1121.48 639.579 1121.47 627.934L1121.58 561.317L1192.18 561.247L1201.27 561.226L1201.24 570.74L1141.65 571.111L1141.74 607.15L1185.66 607.111L1194.82 607.132L1194.73 616.605L1141.67 616.846L1141.59 654.514L1194.43 654.466L1194.39 663.683L1121.64 663.697Z"/>
	<path fill="#1A4F5C" d="M1192.18 561.247L1201.27 561.226L1201.24 570.74L1141.65 571.111L1141.74 607.15L1132.58 607.197L1132.57 570.67L1192.19 570.503L1192.18 561.247Z"/>
	<path fill="#1A4F5C" d="M1185.66 607.111L1194.82 607.132L1194.73 616.605L1141.67 616.846L1141.59 654.514L1132.58 654.644L1132.59 616.432L1185.64 616.398L1185.66 607.111Z"/>
	<path fill="#00A57A" d="M325.19 739.229C336.856 739.21 349.657 738.118 361.182 739.634C367.318 740.441 374.129 742.268 377.927 747.586C380.896 751.743 381.349 757.347 380.326 762.235C379.137 767.918 375.093 770.808 370.544 773.709L371.239 773.909C376.31 775.401 380.276 777.918 382.765 782.742C385.39 787.832 384.881 793.246 383.289 798.55L380.953 802.266C377.801 806.258 372.496 808.456 367.593 809.174L366.55 809.319C360.807 810.183 354.975 809.955 349.178 809.963L325.272 810.116L325.19 739.229ZM333.043 777.495L333.055 803.674L351.5 803.715C359.485 803.702 365.93 804.127 373.038 799.72C375.911 796.458 376.942 794.278 376.831 789.783C376.75 786.526 375.405 783.454 372.866 781.384C367.188 776.754 359.045 777.484 352.176 777.471L333.043 777.495ZM333.042 745.602L333.08 771.056C344.339 771.087 360.883 773.581 370.042 766.342C372.338 763.492 373.522 760.973 373.17 757.205C372.874 754.041 371.289 751.032 368.802 749.056C367.559 748.069 366.192 747.576 364.723 747.04L363.917 746.736C360.404 745.515 356.23 745.58 352.545 745.555L333.042 745.602Z"/>
	<path fill="#00BBD8" d="M855.563 663.683C856.378 659.772 858.88 655.663 860.559 652.01L870.668 629.949C881.101 607.137 890.68 583.325 902.322 561.14L912.906 561.244L959.713 663.656C956.739 663.697 952.526 663.278 949.764 664.2C949.355 664.083 948.848 664.139 948.537 663.848C946.866 662.284 945.486 657.801 944.552 655.649C941.835 649.392 939.209 642.805 935.818 636.891C930.963 635.435 923.24 636.397 918.016 636.402L879.494 636.459C877.75 637.472 870.542 655.156 869.171 658.242C868.694 659.317 867.676 662.586 866.926 663.341C866.112 664.162 857.234 663.691 855.563 663.683ZM912.111 583.068L892.036 627.478L919.387 627.345C923.003 627.34 927.497 626.777 930.92 627.68L931.51 626.569L912.111 583.068Z"/>
	<path fill="#1A4F5C" d="M930.92 627.68C926.09 628.173 920.812 627.769 915.939 627.779L882.811 627.815L907.487 572.514L912.111 583.068L892.036 627.478L919.387 627.345C923.003 627.34 927.497 626.777 930.92 627.68Z"/>
	<path fill="#00BBD8" d="M41.5641 663.635L41.3878 561.183L89.2295 561.485C99.7531 563.446 110.43 567.823 116.602 577.008C122.085 585.167 123.169 596.192 121.043 605.663C119.182 613.952 113.664 620.968 106.423 625.27C101.285 628.322 95.5318 629.905 89.8114 631.469L84.7182 631.566L52.5862 631.521L52.5628 663.684L41.5641 663.635ZM79.4833 571.027L61.5821 571.1L61.691 622.022L84.6845 621.634C92.777 620.894 100.537 618.591 105.859 612.018C110.385 606.428 111.651 598.597 110.75 591.576C110.004 585.762 106.494 580.184 101.766 576.759L100.966 576.2C94.6161 571.702 87.0136 571.164 79.4833 571.027Z"/>
	<path fill="#1A4F5C" d="M61.691 622.022L52.5627 622.059L52.56 570.657C61.0548 570.597 71.2259 569.376 79.4833 571.027L61.5821 571.1L61.691 622.022Z"/>
	<path fill="#00BBD8" d="M625.457 663.132L625.354 561.183L673.182 561.486C683.636 563.364 694.143 567.697 700.386 576.711C702.34 579.532 703.636 582.493 704.579 585.791L704.877 586.805C707.28 595.418 706.177 606.147 701.748 613.938C697.349 621.678 690.615 625.534 682.692 628.883L707.415 663.656L695.99 663.832C693.113 661.655 690.69 657.074 688.562 654.069L672.684 631.429L645.986 631.537L636.653 631.446L636.638 663.421C633.792 664.232 629.373 663.691 626.344 663.67L625.457 663.132ZM665.846 621.862C672.815 621.88 680.532 620.249 686.068 615.813C691.037 611.83 694.171 606.321 694.725 599.931C695.342 592.817 694.501 585.877 689.564 580.311C683.525 573.5 676.255 571.741 667.564 571.088L645.564 571.092L645.732 621.995L665.846 621.862Z"/>
	<path fill="#1A4F5C" d="M665.846 621.862L665.3 622.022C662.323 622.694 638.458 622.926 636.643 621.918L636.62 570.654C646.476 570.552 657.962 569.285 667.564 571.088L645.564 571.092L645.732 621.995L665.846 621.862Z"/>
	<path fill="#00BBD8" d="M421.766 636.389L447.171 561.537C449.026 560.431 455.367 561.223 457.798 561.26L423.225 663.684L411.572 663.811L386.23 590.536L385.995 590.998C382.067 598.948 379.631 608.489 376.708 616.918L360.576 664.009L345.303 664.265C343.529 664.274 341.369 664.668 339.89 663.706L305.191 561.225L316.776 561.236L325.66 561.335L342.906 612.664C345.448 620.214 347.387 628.773 350.94 635.842L376.917 561.106L386.932 561.252L395.869 561.339L421.766 636.389Z"/>
	<path fill="#1A4F5C" d="M339.89 663.706L351.58 663.674L381.58 576.698L386.23 590.536L385.995 590.998C382.067 598.948 379.631 608.489 376.708 616.918L360.576 664.009L345.303 664.265C343.529 664.274 341.369 664.668 339.89 663.706Z"/>
	<path fill="#1A4F5C" d="M316.776 561.236L325.66 561.335L342.906 612.664C345.448 620.214 347.387 628.773 350.94 635.842L346.362 649.994L316.776 561.236Z"/>
	<path fill="#1A4F5C" d="M386.932 561.252L395.869 561.339L421.766 636.389L417.214 650.146L386.932 561.252Z"/>
	<path fill="#00BBD8" d="M221.303 664.818L214.633 664.884C200.318 664.495 186.24 659.212 176.417 648.535C166.427 637.678 161.828 624.153 162.559 609.424C163.251 595.474 169.515 582.441 179.91 573.162C193.363 561.152 210.44 559.695 227.603 560.705C231.117 562.091 234.849 562.957 238.282 564.511C250.321 569.959 260.348 578.172 265.761 590.459C268.113 595.798 269.234 600.843 270.024 606.603C270.852 612.643 270.301 618.781 269.097 624.722C266.463 637.722 258.243 649.16 247.107 656.264C240.184 660.68 231.603 664.021 223.394 664.484C222.098 664.558 222.663 664.488 221.303 664.818ZM218.787 570.632C206.539 572.963 196.459 578.482 189.416 589.088C183.304 598.294 181.025 610.756 183.284 621.587C185.447 631.961 191.986 642.062 200.933 647.856C206.1 651.203 211.233 652.855 217.092 654.599C227.607 654.748 237.29 651.33 245.329 644.432C253.805 637.158 258.659 626.133 259.291 615.097C259.966 603.307 256.205 592.432 248.273 583.648C240.541 575.086 230.127 571.239 218.787 570.632Z"/>
	<path fill="#1A4F5C" d="M217.092 654.599C208.557 655.03 200.97 653.452 193.594 649.039C184.691 643.712 177.212 634.133 174.806 623.958L174.573 622.936C173.53 618.613 173.374 614.642 173.491 610.195C173.771 599.586 178.815 588.79 186.602 581.579C195.817 573.044 206.494 570.271 218.787 570.632C206.539 572.963 196.459 578.482 189.416 589.088C183.304 598.294 181.025 610.756 183.284 621.587C185.447 631.961 191.986 642.062 200.933 647.856C206.1 651.203 211.233 652.855 217.092 654.599Z"/>
	<path fill="#1A4F5C" d="M550.2 249.257C556.748 252.427 561.481 257.347 567.189 261.656L582.206 272.679C593.341 281.455 606.7 295.037 609.743 309.34L611.538 315.831C612.834 309.029 611.156 301.839 612.032 295.027C612.257 293.272 612.729 292.215 614.062 291.095L632.181 291C636.248 290.997 640.654 290.778 644.583 291.961L645.42 292.226C649.486 293.349 651.859 296.157 654.815 299.016L665.522 309.915L680.123 324.949C673.174 334.733 663.351 343.479 654.735 351.828C660.682 352.892 668.185 351.905 674.342 352.066L708.629 353.283C714.823 357.352 720.61 365.266 725.52 370.906C730.098 376.164 735.301 381.158 738.836 387.195C736.247 391.294 732.161 395.026 728.758 398.482L710.96 415.978L746.65 415.948L759.669 415.898C761.814 415.906 764.364 415.658 766.411 416.37C769.915 417.589 772.672 421.08 775.224 423.64L787.436 435.867C790.953 439.38 796.919 444.057 798.928 448.477C798.914 449.072 799.07 450.753 798.86 451.217C797.74 453.69 794.102 456.83 792.23 458.856L767.874 483.683C763.139 484.42 757.974 484.052 753.162 484.062L721.158 483.624C709.453 483.522 618.041 485.506 614.413 483.269C612.405 482.03 610.193 476.911 608.34 474.823C603.539 469.412 597.399 465.767 591.623 461.55C589.387 459.917 586.387 457.117 583.808 456.247L583.009 455.998C576.49 456.059 573.426 461.083 569.051 465.292C559.212 474.757 547.642 481.554 535.603 487.725C529.703 490.75 523.482 494.078 516.958 495.507C513.333 496.3 509.202 496.167 505.501 496.066C499.744 495.909 494.402 493.736 489.057 491.772C467.98 484.028 455.109 465.071 445.603 445.725C441.793 437.97 438.778 430.175 434.012 422.902C430.089 416.915 424.084 412.397 419.176 407.161C429.939 406.713 440.694 407.512 451.285 404.962C458.192 403.298 464.795 398.733 471.337 395.967C474.771 394.515 478.436 393.766 481.903 392.442C484.407 391.486 486.897 390.531 489.537 390.02C495.606 388.844 501.948 389.023 508.11 388.972C511.11 388.947 514.722 388.681 517.63 389.479C521.519 390.545 525.608 392.849 529.144 394.755C545.423 403.529 558.334 417.409 569.089 432.287C572.734 437.33 576.897 446.072 581.942 449.46C584.897 451.444 587.669 453.567 590.324 455.94C592.207 457.624 594.249 460.271 596.706 460.83C596.903 459.038 594.854 457.453 593.672 456.089C584.206 445.164 574.708 435.026 568.808 421.617C566.443 416.243 565.41 410.047 562.744 404.889C559.807 399.203 556.453 398.2 550.794 396.535C538.853 393.022 532.8 380.806 527.378 370.708C522.63 361.863 521.036 352.745 521.048 342.828C521.053 338.753 520.704 334.262 521.264 330.239C523.658 313.03 534.717 298.909 542.201 283.766C544.242 279.637 546.704 275.317 547.988 270.895C550.101 263.616 550.091 256.778 550.2 249.257ZM616.912 421.005L616.969 478.028L765.76 478.578L766.055 478.123C769.617 472.861 775.46 467.657 780.169 463.353C784.766 458.804 789.283 453.874 794.48 450.009L765.887 420.925L616.912 421.005ZM502.112 394.872C491.821 394.885 482.515 396.058 473.106 400.696C466.834 403.788 461.181 407.109 454.296 408.862C451.446 409.587 448.443 410.501 445.531 410.877C441.426 411.409 435.323 410.024 431.765 411.941C432.067 412.968 431.763 412.567 432.424 413.044C435.342 415.145 437.354 418.443 439.321 421.399C443.84 428.19 446.484 435.434 449.929 442.754C458.864 461.735 471.11 479.653 491.999 486.433C498.976 488.698 505.274 490.729 512.683 489.816C513.665 489.695 514.489 489.419 515.423 489.113L522.85 486.766C527.058 485.493 530.972 482.933 534.852 480.871C547.599 474.095 558.147 467.387 569.219 458.004C571.065 456.439 574.09 454.4 575.486 452.48L575.804 451.865C572.865 450.642 570.041 449.227 566.824 449.049L560.931 448.304C552.433 446.745 543.097 448.021 534.603 448.826C531.231 449.145 527.798 449.125 524.445 449.604C513.896 451.111 503.169 453.68 492.564 450.817L491.691 450.595C483.644 448.424 475.478 442.584 469.6 436.796C475.973 438.13 482.186 443.282 488.327 445.689C490.902 446.699 493.866 446.932 496.583 447.187C497.594 447.282 498.454 447.496 499.44 447.705C507.368 449.389 516.419 446.914 524.299 445.699C527.887 445.145 531.352 445.32 534.907 444.945C547.826 443.583 562.333 442.143 574.472 447.829C569.802 441.341 565.427 434.994 560.045 429.058C557.68 426.45 554.894 424.355 552.484 421.828C541.806 410.634 529.989 401.27 515.248 396.022C511.424 394.661 506.135 394.596 502.112 394.872ZM555.234 260.318C555.191 263.304 555.389 266.674 554.845 269.603C553.568 276.464 548.927 284.121 545.516 290.204C539.778 300.437 534.441 310.51 530.672 321.591C529.486 325.078 527.984 328.707 527.389 332.34C526.829 335.763 527.031 339.541 527.042 343.005C527.06 348.738 526.985 353.805 528.818 359.322C532.502 370.409 539.413 386.068 550.603 391.401L552.565 392.046L562.623 395.407C562.887 392.495 563.102 389.557 564.11 386.792C565.413 383.217 567.789 380.117 569.274 376.623C570.385 374.009 570.921 371.179 571.951 368.538C572.871 366.182 574.428 364.077 575.501 361.786C578.192 356.04 580.348 347.383 580.864 341.103C581.399 334.606 580.213 328.329 579.147 321.956C578.762 319.657 578.018 317.292 577.952 314.973C582.163 320.142 583.133 324.78 583.995 331.255C584.095 339.579 584.09 346.829 581.834 354.919C580.224 360.689 577.669 365.379 575.435 370.839C574.307 373.595 573.7 376.595 572.435 379.289C570.376 383.674 567.466 387.441 566.384 392.303C565.828 394.802 565.913 396.864 567.482 398.832C569.999 398.328 572.581 395.359 574.872 394.015C577.18 392.66 579.76 392.041 582.131 390.887C587.359 388.341 591.341 384.099 594.913 379.665L597.002 377.37C599.087 375.179 600.618 372.589 602.214 370.037C603.95 367.262 604.748 363.596 605.657 360.444C606.723 356.747 608.004 352.665 608.703 348.892C610.529 339.052 608.511 326.881 606.094 317.31C604.345 310.385 602.691 305.542 599.015 299.305C596.95 295.803 593.857 292.593 591.193 289.521C581.318 278.134 569.78 268.738 557.436 260.123C556.71 260.177 555.949 260.189 555.234 260.318ZM616.989 356.198L617.011 416.01L703.473 415.935L716.787 401.729L731.536 387.287L714.995 368.624C711.746 364.845 708.696 360.248 704.844 357.107L644.321 356.959C635.334 356.948 625.874 357.52 616.989 356.198ZM611.607 354.702C609.857 357.643 610.237 360.564 609.377 363.802C608.432 367.36 606.825 370.88 605.07 374.116C600.665 382.234 594.273 389.461 586.128 393.995C583.353 395.539 580.31 396.23 577.529 397.655C574.222 399.349 571.216 402.353 568.428 404.79C571.727 414.8 574.473 424.882 581.04 433.289C584.488 437.704 588.716 441.867 591.581 446.688C597.837 455.092 606.018 461.977 611.913 470.531L611.959 388.444L611.978 365.256C611.977 362.162 612.493 357.651 611.607 354.702ZM616.856 294.861L616.989 352.007L645.737 351.991L659.548 337.811L672.447 325.025L649.249 301.803C647.628 300.169 644.183 295.736 642.321 294.914C641.506 294.554 638.05 294.909 637.014 294.908L616.856 294.861Z"/>
	<path fill="#1A4F5C" d="M550.526 329.127L552.393 329.22C554.877 331.472 556.661 334.394 558.564 337.138C561.405 341.235 564.177 344.827 566.015 349.512C559.983 345.26 553.679 337.311 549.977 330.954L550.526 329.127Z"/>
	<path fill="#1A4F5C" d="M512.346 460.954C513.347 460.906 514.115 461.03 515.088 461.265C513.237 463.857 506.25 466.207 503.301 468.132C499.298 470.745 495.382 475.13 491.067 476.882L488.632 476.916C487.379 475.889 487.422 475.979 487.215 474.374L488.327 473.811C492.637 472.437 495.333 469.044 499.17 466.662C503.292 464.103 507.788 462.545 512.346 460.954Z"/>
	<path fill="#00A57A" d="M592.935 80.6473C705.572 77.1377 815.838 109.503 909.372 172.278C999.355 232.67 1070.23 322.752 1108.42 424.082C1120.6 456.403 1128.87 489.21 1135.52 523.071L1098.35 522.962L1089 482.086C1068.64 408.779 1032.7 342.403 982.761 285.03C914.474 206.578 818.436 150.287 716.884 128.291C688.501 122.143 660.124 119.071 631.195 117.081C523.584 113.507 419.614 142.855 330.392 203.283C221.667 276.92 147.529 392.573 122.744 521.063C121.955 521.377 122.259 521.356 121.444 521.308L85.5294 520.605C90.1461 499.681 94.3077 479.093 100.499 458.525C123.245 382.955 164.283 309.626 218.451 252.052C258.03 209.985 302.699 174.885 353.043 146.577C425.613 105.773 509.945 83.497 592.935 80.6473Z"/>
	<path fill="#00A57A" d="M1100.49 696.312C1102.87 695.888 1105.81 696.379 1108.25 696.408C1117.67 696.522 1126.96 697.571 1136.37 697.232C1126.56 760.351 1104.6 820.831 1073.53 876.531C1018.61 975.007 929.135 1054.75 826.259 1100.28C800.796 1111.54 774.603 1120.35 747.831 1127.88C726.769 1133.81 705.059 1137.8 683.408 1140.81C660.174 1144.03 636.598 1145.96 613.149 1146.52C608.5 1146.63 603.794 1146.04 599.145 1145.9L566.447 1144.02C489.339 1136.75 415.754 1115.14 348.134 1076.99C227.158 1008.73 135.2 892.516 97.7244 758.583L84.4437 699.115C88.3765 698.581 120.103 696.188 121.078 697.03C121.219 697.151 121.576 699.503 121.663 699.952C127.839 731.602 135.713 762.09 147.37 792.218C182.422 882.81 243.747 961.421 322.761 1017.83C426.308 1091.75 561.137 1124.65 686.945 1103.51C723.431 1097.38 758.877 1088.21 793.319 1074.58C920.499 1024.22 1021.46 922.418 1072.03 795.485C1081.45 771.843 1088.57 747.717 1094.45 722.981L1098.33 704.228C1098.68 702.217 1098.64 698.528 1099.92 696.954L1100.49 696.312Z"/>
</svg>
