<?xml version="1.0" encoding="UTF-8"?>
<!DOCTYPE svg PUBLIC "-//W3C//DTD SVG 1.1//EN" "http://www.w3.org/Graphics/SVG/1.1/DTD/svg11.dtd">
<svg version="1.1" id="Layer_1" xmlns="http://www.w3.org/2000/svg" xmlns:xlink="http://www.w3.org/1999/xlink" x="0px" y="0px" width="32px" height="32px" viewBox="0 0 32 32" enable-background="new 0 0 32 32" xml:space="preserve">
  <g id="main">
    <g id="icon">
      <path d="M0.5,23.5L18.16,23.5L20.89,20.77L20.81,20.04L20.81,19.31L20.91,18.58L21.09,17.87L21.36,17.18L21.71,16.52L22.15,15.89L22.66,15.32L23.11,14.9L23.6,14.54L24.11,14.22L24.65,13.96L25.21,13.76L25.78,13.61L26.37,13.52L26.96,13.49L27.57,13.53L28.17,13.62L28.76,13.78L29.33,14L29.5,14L29.5,10.5L0.5,10.5zz" fill="#FFFFFF"/>
      <path d="M0,10.5L0,23.5L0,24L0.5,24L17.66,24L18.66,23L1,23L1,11L29,11L29,13.87L29.33,14L30,14L30,10.5L30,10L29.5,10L0.5,10L0,10zz" fill="#383838"/>
      <path d="M6.5,10.5L23.5,10.5L23.5,0.5L6.5,0.5zM6.5,29.5L13.52,29.5L13.52,29.45L13.63,28.79L13.87,28.14L14.21,27.53L14.68,26.98L20.89,20.77L20.81,20.04L20.81,19.5L6.5,19.5zz" fill="#FFFFFF"/>
      <path d="M6,0.5L6,10.5L6,11L6.5,11L23.5,11L24,11L24,10.5L24,0.5L24,0L23.5,0L6.5,0L6,0zM23,1L23,10L7,10L7,1zM6,19.5L6,29.5L6,30L6.5,30L13.52,30L13.52,29.45L13.6,29L7,29L7,20L20.81,20L20.81,19.31L20.85,19L6.5,19L6,19zz" fill="#383838"/>
      <path d="M9,23L18.66,23L19.66,22L9,22zM9,25L16.66,25L17.66,24L9,24zM9,27L14.66,27L14.68,26.98L15.66,26L9,26zz" fill="#787979"/>
      <path d="M3.5,15.5L5.5,15.5L5.5,13.5L3.5,13.5zz" fill="#238BCB"/>
      <path d="M3,13.5L3,15.5L3,16L3.5,16L5.5,16L6,16L6,15.5L6,13.5L6,13L5.5,13L3.5,13L3,13zM5,14L5,15L4,15L4,14zz" fill="#228BCB"/>
    </g>
    <g id="overlay">
      <path d="M30.27,22.927c-1.282,1.282,-3.15,1.605,-4.599,0.914l-7.066,7.066c-0.749,0.749,-1.918,0.793,-2.612,0.1l0,0c-0.694,-0.694,-0.649,-1.863,0.1,-2.612l7.066,-7.066c-0.69,-1.449,-0.367,-3.318,0.914,-4.599c1.282,-1.282,3.095,-1.55,4.545,-0.86l-2.25,2.25c-0.749,0.749,-0.793,1.918,-0.1,2.612l0,0c0.694,0.694,1.863,0.649,2.612,-0.1l2.25,-2.25C31.82,19.832,31.552,21.646,30.27,22.927z" fill="#92CBEE" stroke="#0964B0" stroke-width="1" stroke-miterlimit="10"/>
    </g>
  </g>
</svg>
