<?xml version="1.0" encoding="UTF-8"?>
<!DOCTYPE svg PUBLIC "-//W3C//DTD SVG 1.1//EN" "http://www.w3.org/Graphics/SVG/1.1/DTD/svg11.dtd">
<svg version="1.1" id="Layer_1" xmlns="http://www.w3.org/2000/svg" xmlns:xlink="http://www.w3.org/1999/xlink" x="0px" y="0px" width="32px" height="32px" viewBox="0 0 32 32" enable-background="new 0 0 32 32" xml:space="preserve">
  <g id="icon">
    <path d="M17.735,19.366c-0.565,0.263,-1.202,0.396,-1.892,0.396c-0.678,0,-1.307,-0.133,-1.869,-0.396c-0.56,-0.262,-1.051,-0.646,-1.458,-1.142c-0.418,-0.508,-0.751,-1.143,-0.991,-1.887c-0.244,-0.757,-0.368,-1.636,-0.368,-2.611c0,-0.976,0.124,-1.856,0.368,-2.617c0.24,-0.747,0.574,-1.385,0.992,-1.897c0.407,-0.498,0.897,-0.884,1.457,-1.146c0.562,-0.263,1.191,-0.396,1.869,-0.396c0.69,0,1.326,0.133,1.892,0.396c0.561,0.261,1.051,0.646,1.455,1.144c0.415,0.511,0.744,1.149,0.979,1.895c0.24,0.762,0.361,1.644,0.361,2.621c0,0.977,-0.121,1.857,-0.361,2.615c-0.234,0.743,-0.563,1.377,-0.978,1.884C18.787,18.72,18.297,19.104,17.735,19.366zM30.398,14.215c0,6.967,-6.446,12.615,-14.398,12.615c-0.664,0,-1.317,-0.039,-1.957,-0.116C13.312,27.018,4.6,29.9,4.6,29.9s1.609,-4.6,1.786,-6.294c-2.937,-2.31,-4.784,-5.661,-4.784,-9.391C1.602,7.248,8.048,1.6,16,1.6C23.952,1.6,30.398,7.248,30.398,14.215zM21.87,13.726c0,-1.113,-0.142,-2.13,-0.423,-3.023c-0.285,-0.908,-0.695,-1.695,-1.217,-2.338c-0.533,-0.656,-1.182,-1.166,-1.93,-1.514c-0.744,-0.346,-1.57,-0.522,-2.457,-0.522c-0.876,0,-1.696,0.176,-2.437,0.522c-0.743,0.348,-1.392,0.856,-1.927,1.512c-0.525,0.642,-0.939,1.428,-1.23,2.335c-0.287,0.893,-0.433,1.912,-0.433,3.027c0,1.115,0.146,2.132,0.433,3.023c0.292,0.905,0.706,1.687,1.231,2.326c0.535,0.652,1.183,1.158,1.926,1.506c0.741,0.346,1.561,0.522,2.437,0.522c0.884,0,1.708,-0.174,2.449,-0.518l1.499,2.066l1.084,-0.787l-1.445,-1.991c0.288,-0.235,0.556,-0.504,0.798,-0.799c0.523,-0.64,0.932,-1.423,1.218,-2.329C21.728,15.855,21.87,14.839,21.87,13.726z" fill="#79B2DD"/>
    <path d="M3.712,30.773l0.369,-1.055c0.015,-0.043,1.421,-4.076,1.718,-5.879c-3.021,-2.485,-4.747,-5.976,-4.747,-9.625C1.052,6.956,7.758,1.05,16,1.05s14.948,5.906,14.948,13.165S24.242,27.38,16,27.38c-0.63,0,-1.263,-0.035,-1.886,-0.104c-1.318,0.491,-9,3.033,-9.341,3.146L3.712,30.773zM16,2.15c-7.636,0,-13.848,5.412,-13.848,12.065c0,3.407,1.667,6.673,4.574,8.959l0.239,0.188l-0.032,0.302c-0.13,1.241,-0.966,3.888,-1.457,5.367c3.143,-1.042,7.853,-2.615,8.356,-2.824l0.133,-0.055l0.143,0.017c0.623,0.074,1.26,0.112,1.892,0.112c7.636,0,13.848,-5.412,13.848,-12.065S23.636,2.15,16,2.15z" fill="#0964B0"/>
    <path d="M18.293,20.584c-0.741,0.344,-1.565,0.518,-2.449,0.518c-0.876,0,-1.696,-0.176,-2.437,-0.522c-0.743,-0.347,-1.391,-0.854,-1.926,-1.506c-0.525,-0.639,-0.939,-1.422,-1.231,-2.326c-0.287,-0.89,-0.433,-1.907,-0.433,-3.023c0,-1.115,0.146,-2.133,0.433,-3.027c0.291,-0.907,0.705,-1.693,1.23,-2.335c0.535,-0.655,1.184,-1.164,1.927,-1.512c0.741,-0.346,1.561,-0.522,2.437,-0.522c0.887,0,1.713,0.175,2.457,0.522c0.747,0.348,1.397,0.857,1.93,1.514c0.522,0.643,0.931,1.43,1.217,2.338c0.28,0.892,0.423,1.909,0.423,3.023c0,1.114,-0.142,2.129,-0.423,3.019c-0.286,0.905,-0.695,1.689,-1.218,2.329c-0.241,0.296,-0.509,0.564,-0.798,0.799l1.445,1.991l-1.084,0.787L18.293,20.584zM15.844,7.67c-0.678,0,-1.307,0.133,-1.869,0.396c-0.56,0.262,-1.05,0.647,-1.457,1.146c-0.418,0.512,-0.752,1.15,-0.992,1.897c-0.244,0.761,-0.368,1.641,-0.368,2.617c0,0.975,0.124,1.854,0.368,2.611c0.24,0.744,0.573,1.379,0.991,1.887c0.407,0.496,0.898,0.88,1.458,1.142c0.562,0.263,1.191,0.396,1.869,0.396c0.69,0,1.327,-0.133,1.892,-0.396c0.562,-0.262,1.052,-0.645,1.456,-1.14c0.415,-0.508,0.744,-1.142,0.978,-1.884c0.239,-0.758,0.361,-1.638,0.361,-2.615c0,-0.977,-0.121,-1.859,-0.361,-2.621c-0.235,-0.746,-0.564,-1.384,-0.979,-1.895c-0.404,-0.497,-0.893,-0.882,-1.455,-1.144C17.17,7.803,16.533,7.67,15.844,7.67z" fill="#FFFFFF"/>
  </g>
</svg>
