<?xml version="1.0" encoding="UTF-8"?>
<!DOCTYPE svg PUBLIC "-//W3C//DTD SVG 1.1//EN" "http://www.w3.org/Graphics/SVG/1.1/DTD/svg11.dtd">
<svg version="1.1" id="Layer_1" xmlns="http://www.w3.org/2000/svg" xmlns:xlink="http://www.w3.org/1999/xlink" x="0px" y="0px" width="32px" height="32px" viewBox="0 0 32 32" enable-background="new 0 0 32 32" xml:space="preserve">
  <g id="icon">
    <path d="M11.45,17.455c-0.203,0.063,-0.411,0.115,-0.62,0.156c-1.662,0.323,-3.798,1.962,-4.311,2.859c-0.182,0.317,-0.472,0.739,-0.897,0.739c-0.466,0,-0.673,-0.477,-0.772,-0.707c-0.422,-0.975,-1.059,-4.162,-0.783,-5.229c0.006,-0.024,0.012,-0.049,0.018,-0.074c0.101,-0.433,0.281,-0.877,1.245,-1.138l0.111,-0.03c0.561,-0.154,1.606,-0.441,2.985,-0.441c1.072,0,2.136,0.177,3.169,0.526M12.184,18.876c-2.302,2.046,-2.924,4.43,-3.165,5.351l-0.03,0.112c-0.258,0.973,0.033,1.353,0.354,1.658c0.019,0.018,0.037,0.035,0.054,0.053c0.778,0.775,3.83,1.812,4.878,1.931c0.075,0.008,0.178,0.02,0.288,0.02c0.421,0,0.616,-0.186,0.705,-0.342c0.212,-0.371,-0.005,-0.836,-0.186,-1.153c-0.514,-0.898,-0.851,-3.584,-0.298,-5.198c0.073,-0.212,0.132,-0.423,0.18,-0.637M16.59,20.737c0.604,3.038,2.339,4.775,3.01,5.446l0.082,0.082c0.406,0.41,0.771,0.601,1.147,0.601c0.183,0,0.333,-0.045,0.452,-0.081c0.024,-0.007,0.048,-0.015,0.072,-0.021c1.054,-0.293,3.47,-2.442,4.096,-3.299c0.142,-0.194,0.437,-0.598,0.236,-0.998c-0.199,-0.398,-0.723,-0.445,-1.099,-0.445c-1.027,0,-3.5,-1.048,-4.609,-2.339c-0.151,-0.176,-0.308,-0.339,-0.475,-0.493M20.346,17.855c1.051,0.362,2.135,0.546,3.226,0.546c0,0,0,0,0,0c1.379,0,2.424,-0.287,2.985,-0.442l0.112,-0.031c0.965,-0.261,1.144,-0.705,1.245,-1.138c0.006,-0.025,0.012,-0.05,0.018,-0.074c0.276,-1.067,-0.36,-4.254,-0.783,-5.229c-0.099,-0.229,-0.306,-0.707,-0.772,-0.707c-0.425,0,-0.715,0.422,-0.897,0.739c-0.513,0.898,-2.649,2.536,-4.311,2.859c-0.228,0.044,-0.447,0.1,-0.664,0.17M19.783,13.12c2.297,-2.045,2.919,-4.427,3.16,-5.346l0.03,-0.112c0.258,-0.973,-0.033,-1.353,-0.354,-1.658c-0.019,-0.018,-0.037,-0.035,-0.054,-0.053c-0.778,-0.775,-3.83,-1.812,-4.878,-1.931c-0.075,-0.008,-0.178,-0.02,-0.288,-0.02c-0.421,0,-0.615,0.186,-0.705,0.342c-0.212,0.371,0.005,0.836,0.186,1.153c0.514,0.898,0.851,3.584,0.298,5.198c-0.068,0.199,-0.126,0.402,-0.173,0.607M15.41,11.22c-0.609,-3.02,-2.337,-4.749,-3.003,-5.417l-0.082,-0.082c-0.406,-0.41,-0.771,-0.601,-1.147,-0.601c-0.183,0,-0.332,0.045,-0.452,0.081c-0.024,0.007,-0.048,0.015,-0.072,0.021c-1.054,0.293,-3.47,2.442,-4.096,3.299c-0.142,0.194,-0.437,0.598,-0.236,0.998c0.199,0.398,0.723,0.445,1.099,0.445c1.027,0,3.5,1.048,4.609,2.339c0.136,0.158,0.279,0.309,0.43,0.451" fill="#DFBCD9" stroke="#A0519F" stroke-width="1.1" stroke-miterlimit="10"/>
    <circle cx="16" cy="16" r="4.615" fill="#DFBCD9" stroke="#A0519F" stroke-width="1.1" stroke-miterlimit="10"/>
    <circle cx="16.05" cy="16.05" r="14.35" fill="none" stroke="#383838" stroke-width="1.2" stroke-miterlimit="10"/>
  </g>
</svg>
