<?xml version="1.0" encoding="UTF-8"?>
<!DOCTYPE svg PUBLIC "-//W3C//DTD SVG 1.1//EN" "http://www.w3.org/Graphics/SVG/1.1/DTD/svg11.dtd">
<svg version="1.1" id="Layer_1" xmlns="http://www.w3.org/2000/svg" xmlns:xlink="http://www.w3.org/1999/xlink" x="0px" y="0px" width="32px" height="32px" viewBox="0 0 32 32" enable-background="new 0 0 32 32" xml:space="preserve">
  <g id="icon">
    <path d="M11.5,23.4v4.18l2.311,2.345c0.901,0.795,2.362,0.795,3.263,0L19.5,27.58V23.4" fill="#C8C6C4" stroke="#383838" stroke-width="1" stroke-miterlimit="10"/>
    <line x1="11.614" y1="27.5" x2="19.271" y2="27.5" fill="#FFFFFF" stroke="#383838" stroke-width="1" stroke-miterlimit="10"/>
    <path d="M15.448,1.55C10.507,1.55,6.5,5.619,6.5,10.636c0,2.873,1.999,5.275,1.999,5.275c0.752,0.945,1.475,3.515,1.475,4.732v0.704c0,1.217,1.292,2.152,2.491,2.152h5.901c1.197,0,2.597,-0.936,2.597,-2.152v-0.575c0,-1.214,0.629,-3.772,1.4,-4.704c0,0,2.138,-2.481,2.138,-5.432C24.5,5.619,20.39,1.55,15.448,1.55z" fill="#F7DA8E" stroke="#E57428" stroke-width="1" stroke-miterlimit="10"/>
    <path d="M15.5,3.99v11.979M20.7,6.995l-10.4,5.99M10.3,6.995l10.4,5.99" fill="#F7DA8E" stroke="#E57428" stroke-width="1" stroke-miterlimit="10"/>
  </g>
</svg>
