<?xml version="1.0" encoding="UTF-8"?>
<!DOCTYPE svg PUBLIC "-//W3C//DTD SVG 1.1//EN" "http://www.w3.org/Graphics/SVG/1.1/DTD/svg11.dtd">
<svg version="1.1" id="Layer_1" xmlns="http://www.w3.org/2000/svg" xmlns:xlink="http://www.w3.org/1999/xlink" x="0px" y="0px" width="32px" height="32px" viewBox="0 0 32 32" enable-background="new 0 0 32 32" xml:space="preserve">
  <g id="main">
    <g id="icon">
      <path d="M6.724,4.531L6.436,4.621L6.176,4.762L5.949,4.949L5.762,5.176L5.621,5.436L5.531,5.724L5.5,6.033L5.5,13.6L24.5,13.5L24.5,6.033L24.47,5.724L24.38,5.436L24.24,5.176L24.05,4.949L23.82,4.762L23.56,4.621L23.28,4.531L22.97,4.5L7.033,4.5zz" fill="#FFFFFF"/>
      <path d="M6.983,4.003L6.674,4.034L6.624,4.039L6.576,4.054L6.288,4.143L6.241,4.157L6.198,4.181L5.937,4.322L5.895,4.345L5.858,4.376L5.631,4.563L5.594,4.594L5.563,4.631L5.376,4.858L5.345,4.895L5.322,4.937L5.181,5.198L5.157,5.241L5.143,5.288L5.054,5.576L5.039,5.624L5.034,5.674L5.003,5.983L5,6.008L5,6.033L5,13.6L6,13.6L6,6.058L6.024,5.823L6.083,5.631L6.178,5.457L6.304,5.304L6.457,5.178L6.631,5.083L6.823,5.024L7.058,5L22.94,5L23.18,5.024L23.37,5.083L23.54,5.178L23.69,5.304L23.82,5.457L23.92,5.631L23.98,5.824L24,6.058L24,13.5L25,13.5L25,6.033L25,6.008L25,5.983L24.97,5.674L24.96,5.624L24.95,5.576L24.86,5.288L24.84,5.241L24.82,5.198L24.68,4.937L24.65,4.895L24.62,4.858L24.44,4.631L24.41,4.594L24.37,4.563L24.14,4.376L24.1,4.345L24.06,4.322L23.8,4.181L23.76,4.157L23.71,4.143L23.42,4.054L23.38,4.039L23.33,4.034L23.02,4.003L22.99,4L22.97,4L7.033,4L7.008,4zz" fill="#234D22"/>
      <path d="M12.14,0.5824L11.81,0.8074L11.58,1.141L11.5,1.55L11.5,4.5L18.5,4.5L18.5,1.55L18.42,1.141L18.19,0.8074L17.86,0.5824L17.45,0.5L12.55,0.5zz" fill="#B0DCAF"/>
      <path d="M12.45,0.009961L12.04,0.09238L11.94,0.1121L11.86,0.168L11.53,0.393L11.45,0.4473L11.39,0.5279L11.17,0.8617L11.11,0.9445L11.09,1.042L11.01,1.451L11,1.5L11,1.55L11,4.5L11,5L11.5,5L18.5,5L19,5L19,4.5L19,1.55L19,1.5L18.99,1.451L18.91,1.042L18.89,0.9445L18.83,0.8617L18.61,0.5279L18.55,0.4473L18.47,0.393L18.14,0.168L18.06,0.1121L17.96,0.09238L17.55,0.009961L17.5,0L17.45,0L12.55,0L12.5,0zM17.4,1L17.66,1.053L17.83,1.168L17.95,1.338L18,1.6L18,4L12,4L12,1.6L12.05,1.338L12.17,1.168L12.34,1.053L12.6,1zz" fill="#234D22"/>
      <path d="M10.43,12.28L6.393,13.26L4.409,13.68L2.629,13.99L2.233,14.1L1.901,14.26L1.638,14.47L1.451,14.71L1.346,14.98L1.327,15.27L1.402,15.57L1.575,15.87L2.427,17.09L3.094,18.15L3.867,19.5L4.708,21.11L5.574,22.99L6.426,25.1L7.224,27.45L7.545,27.78L8.388,28.5L8.946,28.89L9.567,29.22L10.23,29.46L10.9,29.55L11.53,29.46L12.08,29.21L12.57,28.87L13.03,28.48L13.48,28.08L13.94,27.74L14.44,27.49L15,27.4L15.5,27.48L15.5,15.5L28.61,15.5L28.64,15.44L28.7,15.15L28.66,14.88L28.52,14.62L28.3,14.4L28.01,14.21L27.66,14.05L27.26,13.95L25.53,13.63L23.57,13.21L19.54,12.25L14.97,11.07zz" fill="#B0DCAF"/>
      <path d="M14.84,10.58L10.31,11.8L10.31,11.8L6.277,12.77L6.276,12.77L4.311,13.19L2.541,13.5L2.52,13.51L2.498,13.51L2.102,13.62L2.057,13.63L2.015,13.65L1.683,13.81L1.635,13.84L1.593,13.87L1.33,14.08L1.281,14.11L1.243,14.16L1.056,14.4L1.012,14.46L0.9859,14.53L0.8801,14.8L0.8516,14.87L0.8467,14.95L0.8279,15.24L0.823,15.31L0.8418,15.39L0.9164,15.69L0.9334,15.76L0.9688,15.82L1.142,16.12L1.153,16.14L1.165,16.15L2.009,17.36L2.665,18.41L3.429,19.74L4.259,21.33L5.115,23.18L5.958,25.28L6.751,27.61L7.697,27.29L6.9,24.94L6.896,24.93L6.89,24.92L6.038,22.8L6.033,22.79L6.028,22.78L5.162,20.9L5.157,20.89L5.151,20.88L4.311,19.27L4.306,19.26L4.301,19.25L3.527,17.9L3.522,17.89L3.517,17.88L2.85,16.82L2.844,16.81L2.837,16.8L1.997,15.6L1.87,15.38L1.831,15.22L1.839,15.09L1.891,14.96L1.996,14.82L2.168,14.69L2.409,14.57L2.738,14.48L4.496,14.17L4.505,14.17L4.513,14.17L6.497,13.75L6.504,13.75L6.511,13.74L10.55,12.77L10.55,12.77L10.56,12.77L14.97,11.58L19.42,12.74L19.42,12.74L19.43,12.74L23.46,13.7L23.46,13.7L23.47,13.7L25.43,14.12L25.43,14.12L25.44,14.12L27.15,14.44L27.5,14.53L27.78,14.65L27.98,14.78L28.11,14.92L28.18,15.04L28.19,15.14L28.17,15.27L28.05,15.48L28.03,15.5L29.14,15.5L29.19,15.25L29.21,15.16L29.19,15.07L29.15,14.8L29.14,14.71L29.1,14.64L28.96,14.39L28.93,14.33L28.88,14.28L28.66,14.05L28.63,14.01L28.58,13.98L28.29,13.79L28.25,13.76L28.21,13.75L27.86,13.59L27.83,13.58L27.79,13.57L27.38,13.47L27.37,13.46L27.35,13.46L25.63,13.14L23.68,12.73L19.66,11.77L15.09,10.58L14.97,10.55zz" fill="#234D22"/>
      <path d="M8,8L10,8L10,7L8,7zM12,8L14,8L14,7L12,7zM16,8L18,8L18,7L16,7zM20,8L22,8L22,7L20,7zz" fill="#234D22"/>
      <path d="M6.936,27L6.272,27.09L6.202,27.1L6.137,27.13L5.614,27.35L5.56,27.38L5.514,27.41L5.084,27.73L5.059,27.75L5.037,27.77L4.654,28.14L4.293,28.49L3.936,28.75L3.53,28.93L2.998,29L2.592,28.95L2.288,28.82L2.03,28.63L1.781,28.37L1.254,27.72L1.235,27.7L1.214,27.68L0.9092,27.38L0.8727,27.35L0.8297,27.32L0.4631,27.09L-0,27.82L0,27.98L0.2506,28.14L0.4979,28.38L1.018,29.01L1.029,29.03L1.041,29.04L1.332,29.35L1.362,29.38L1.398,29.41L1.741,29.66L1.792,29.7L1.85,29.72L2.275,29.9L2.338,29.92L2.405,29.93L2.94,30L3.002,30L3.064,30L3.728,29.91L3.798,29.9L3.863,29.87L4.386,29.65L4.44,29.62L4.486,29.59L4.916,29.27L4.941,29.25L4.963,29.23L5.346,28.86L5.707,28.51L6.064,28.25L6.47,28.07L7,28L7.53,28.07L7.936,28.25L8.293,28.51L8.654,28.86L9.037,29.23L9.059,29.25L9.084,29.27L9.514,29.59L9.56,29.62L9.614,29.65L10.14,29.87L10.2,29.9L10.27,29.91L10.94,30L11,30L11.06,30L11.73,29.91L11.8,29.9L11.86,29.87L12.39,29.65L12.44,29.62L12.49,29.59L12.92,29.27L12.94,29.25L12.96,29.23L13.35,28.86L13.71,28.51L14.06,28.25L14.47,28.07L15,28L15.5,28.07L15.5,27.06L15.06,27L15,27L14.94,27L14.27,27.09L14.2,27.1L14.14,27.13L13.61,27.35L13.56,27.38L13.51,27.41L13.08,27.73L13.06,27.75L13.04,27.77L12.65,28.14L12.29,28.49L11.94,28.75L11.53,28.93L11,29L10.47,28.93L10.06,28.75L9.707,28.49L9.346,28.14L8.963,27.77L8.941,27.75L8.916,27.73L8.486,27.41L8.44,27.38L8.386,27.35L7.863,27.13L7.798,27.1L7.728,27.09L7.064,27L7,27zz" fill="#4AA448"/>
    </g>
    <g id="overlay">
      <rect x="17.5" y="17.5" width="14" height="14" fill="#FFFFFF" stroke="#700900" stroke-width="1" stroke-miterlimit="10"/>
      <path d="M20,20.5h9M20,22.5h9M20,24.5h9M20,26.5h9M20,28.5h9" fill="#FFFFFF" stroke="#EC1400" stroke-width="1" stroke-miterlimit="10"/>
    </g>
  </g>
</svg>
