<?xml version="1.0" encoding="UTF-8"?>
<!DOCTYPE svg PUBLIC "-//W3C//DTD SVG 1.1//EN" "http://www.w3.org/Graphics/SVG/1.1/DTD/svg11.dtd">
<svg version="1.1" id="Layer_1" xmlns="http://www.w3.org/2000/svg" xmlns:xlink="http://www.w3.org/1999/xlink" x="0px" y="0px" width="32px" height="32px" viewBox="0 0 32 32" enable-background="new 0 0 32 32" xml:space="preserve">
  <g id="icon">
    <rect x="26.5" y="17.5" width="4" height="7" fill="#F7DA8E" stroke="#ED8730" stroke-width="1" stroke-linecap="round" stroke-miterlimit="10"/>
    <rect x="26.5" y="10.5" width="4" height="7" fill="#92CBEE" stroke="#0964B0" stroke-width="1" stroke-linecap="round" stroke-miterlimit="10"/>
    <rect x="26.5" y="3.5" width="4" height="7" fill="#ACD8B1" stroke="#0BA04A" stroke-width="1" stroke-linecap="round" stroke-miterlimit="10"/>
    <path d="M26.5,30.5H2.5V1.5h24V30.5z" fill="#FFFFFF" stroke="#383838" stroke-width="1" stroke-miterlimit="10"/>
    <path d="M6,5.5h11M6,8.5h11M6,11.5h11M6,14.5h11M6,17.5h11M6,20.5h11M6,23.5h11M6,26.5h11" fill="none" stroke="#787979" stroke-width="1" stroke-miterlimit="10"/>
    <path d="M19,5.5h4M19,8.5h4M19,11.5h4M19,14.5h4M19,17.5h4M19,20.5h4M19,23.5h4M19,26.5h4" fill="#FFFFFF" stroke="#228BCB" stroke-width="1" stroke-miterlimit="10"/>
  </g>
</svg>
