<?xml version="1.0" encoding="UTF-8"?>
<!DOCTYPE svg PUBLIC "-//W3C//DTD SVG 1.1//EN" "http://www.w3.org/Graphics/SVG/1.1/DTD/svg11.dtd">
<svg version="1.1" id="Layer_1" xmlns="http://www.w3.org/2000/svg" xmlns:xlink="http://www.w3.org/1999/xlink" x="0px" y="0px" width="32px" height="32px" viewBox="0 0 32 32" enable-background="new 0 0 32 32" xml:space="preserve">
  <g id="main">
    <g id="icon">
      <path d="M25.5,20.16L29.5,21.86L29.5,16.5L25.5,16.5zz" fill="#F7DA8E"/>
      <path d="M25,16.5L25,19.94L26,20.37L26,17L29,17L29,21.64L30,22.07L30,16.5L30,16L29.5,16L25.5,16L25,16zz" fill="#ED8730"/>
      <path d="M25.5,16.5L29.5,16.5L29.5,9.5L25.5,9.5zz" fill="#92CBEE"/>
      <path d="M25,9.5L25,16.5L25,17L25.5,17L29.5,17L30,17L30,16.5L30,9.5L30,9L29.5,9L25.5,9L25,9zM29,10L29,16L26,16L26,10zz" fill="#0964B0"/>
      <path d="M25.5,9.5L29.5,9.5L29.5,2.5L25.5,2.5zz" fill="#ACD8B1"/>
      <path d="M25,2.5L25,9.5L25,10L25.5,10L29.5,10L30,10L30,9.5L30,2.5L30,2L29.5,2L25.5,2L25,2zM29,3L29,9L26,9L26,3zz" fill="#0BA04A"/>
      <path d="M1.5,29.5L15.12,29.5L15.59,27.6L15.57,27.6L16.21,25.09L16.35,24.55L15.49,21.5L15.53,21.5L13.86,15.2L25.5,20.16L25.5,0.5L1.5,0.5zz" fill="#FFFFFF"/>
      <path d="M1,0.5L1,29.5L1,30L1.5,30L14.99,30L15.24,29L2,29L2,1L25,1L25,19.94L26,20.37L26,0.5L26,0L25.5,0L1.5,0L1,0zz" fill="#383838"/>
      <path d="M13.43,7.043L12.53,7.17L11.67,7.377L10.85,7.662L10.08,8.02L9.36,8.448L8.691,8.944L8.078,9.503L7.525,10.12L7.034,10.8L6.61,11.53L6.255,12.31L5.974,13.13L5.768,14L5.643,14.91L5.6,15.85L5.635,16.62L5.739,17.36L5.909,18.07L6.143,18.73L6.438,19.36L6.791,19.95L7.201,20.49L7.664,20.98L8.178,21.43L8.741,21.82L9.349,22.17L10,22.45L10.69,22.67L11.43,22.84L12.19,22.94L12.99,22.97L14.14,22.92L15.21,22.76L15.8,22.61L15.49,21.5L15.53,21.5L13.86,15.2L20.03,17.82L20.31,17.49L20.75,16.74L21.1,15.86L21.32,14.86L21.4,13.75L21.37,12.99L21.28,12.26L21.12,11.58L20.91,10.94L20.64,10.34L20.32,9.783L19.94,9.274L19.51,8.813L19.03,8.4L18.5,8.037L17.92,7.727L17.3,7.469L16.63,7.266L15.91,7.119L15.16,7.03L14.37,7zz" fill="#FFFFFF"/>
      <path d="M14.34,6.401L13.4,6.444L13.37,6.445L13.35,6.449L12.45,6.576L12.42,6.58L12.39,6.587L11.53,6.794L11.5,6.801L11.47,6.811L10.66,7.095L10.63,7.105L10.6,7.118L9.829,7.476L9.801,7.489L9.775,7.504L9.054,7.933L9.027,7.948L9.003,7.966L8.334,8.462L8.309,8.48L8.286,8.501L7.674,9.059L7.651,9.08L7.63,9.103L7.077,9.722L7.057,9.745L7.039,9.769L6.548,10.45L6.531,10.47L6.515,10.5L6.091,11.22L6.076,11.25L6.064,11.28L5.709,12.06L5.697,12.08L5.688,12.11L5.406,12.94L5.396,12.96L5.39,12.99L5.184,13.86L5.178,13.89L5.174,13.92L5.048,14.83L5.045,14.85L5.043,14.88L5.001,15.83L4.999,15.85L5.001,15.88L5.036,16.65L5.037,16.68L5.041,16.71L5.145,17.45L5.149,17.48L5.156,17.5L5.326,18.21L5.333,18.24L5.343,18.27L5.577,18.93L5.587,18.96L5.6,18.99L5.895,19.62L5.908,19.64L5.924,19.67L6.278,20.26L6.294,20.28L6.313,20.31L6.722,20.85L6.741,20.88L6.763,20.9L7.226,21.39L7.247,21.42L7.271,21.44L7.785,21.88L7.809,21.9L7.834,21.92L8.396,22.32L8.421,22.33L8.448,22.35L9.056,22.69L9.083,22.7L9.11,22.72L9.762,23L9.788,23.01L9.816,23.02L10.51,23.24L10.54,23.25L10.56,23.26L11.29,23.42L11.32,23.43L11.35,23.43L12.12,23.53L12.14,23.54L12.17,23.54L12.97,23.57L12.99,23.57L13.02,23.57L14.17,23.52L14.19,23.52L14.22,23.51L15.3,23.36L15.33,23.35L15.36,23.34L15.96,23.19L15.64,22.03L15.09,22.18L14.08,22.32L12.99,22.37L12.24,22.34L11.53,22.25L10.85,22.09L10.22,21.89L9.615,21.63L9.06,21.32L8.548,20.96L8.081,20.55L7.661,20.1L7.29,19.61L6.968,19.08L6.699,18.51L6.485,17.89L6.329,17.25L6.233,16.57L6.201,15.85L6.241,14.96L6.359,14.11L6.551,13.3L6.814,12.53L7.144,11.8L7.538,11.13L7.992,10.5L8.504,9.926L9.073,9.408L9.692,8.949L10.36,8.552L11.08,8.219L11.84,7.954L12.64,7.76L13.49,7.641L14.37,7.601L15.11,7.629L15.82,7.712L16.48,7.848L17.09,8.035L17.66,8.27L18.19,8.55L18.66,8.877L19.09,9.246L19.48,9.66L19.82,10.11L20.11,10.61L20.35,11.15L20.54,11.74L20.68,12.37L20.77,13.03L20.8,13.74L20.73,14.77L20.52,15.69L20.21,16.48L19.82,17.14L19.45,17.58L20.61,18.07L20.77,17.89L20.8,17.84L20.83,17.8L21.27,17.05L21.3,17.01L21.31,16.96L21.66,16.08L21.67,16.04L21.68,15.99L21.91,14.99L21.92,14.95L21.92,14.9L22,13.79L22,13.76L22,13.72L21.97,12.96L21.97,12.93L21.96,12.91L21.87,12.19L21.87,12.16L21.86,12.13L21.71,11.45L21.7,11.42L21.69,11.39L21.48,10.75L21.47,10.72L21.46,10.69L21.19,10.09L21.18,10.06L21.16,10.04L20.84,9.48L20.82,9.452L20.8,9.425L20.42,8.917L20.4,8.89L20.38,8.865L19.95,8.404L19.93,8.379L19.9,8.357L19.42,7.945L19.39,7.923L19.37,7.904L18.84,7.542L18.81,7.524L18.78,7.509L18.2,7.198L18.18,7.184L18.15,7.172L17.52,6.914L17.5,6.903L17.47,6.895L16.8,6.692L16.77,6.684L16.75,6.678L16.03,6.532L16.01,6.526L15.98,6.523L15.23,6.434L15.21,6.431L15.18,6.43L14.39,6.4L14.36,6.399zM14.99,10.4L14.44,10.43L14.41,10.43L14.38,10.44L13.85,10.52L13.82,10.52L13.79,10.53L13.27,10.66L13.24,10.67L13.22,10.68L12.72,10.86L12.69,10.87L12.67,10.88L12.2,11.11L12.17,11.12L12.14,11.14L11.7,11.41L11.66,11.43L11.63,11.46L10.83,12.11L10.79,12.15L10.75,12.19L10.09,12.99L10.06,13.02L10.04,13.06L9.77,13.5L9.755,13.52L9.742,13.55L9.515,14.02L9.502,14.05L9.492,14.07L9.31,14.57L9.3,14.59L9.292,14.62L9.159,15.14L9.151,15.17L9.147,15.2L9.065,15.73L9.06,15.76L9.059,15.79L9.031,16.34L9.029,16.38L9.032,16.42L9.076,16.93L9.081,16.99L9.096,17.04L9.224,17.5L9.24,17.56L9.268,17.62L9.476,18.02L9.505,18.08L9.546,18.13L9.828,18.47L9.87,18.52L9.921,18.56L10.27,18.84L10.32,18.87L10.38,18.9L10.79,19.1L10.85,19.13L10.9,19.14L11.38,19.27L11.43,19.28L11.48,19.29L12.01,19.33L12.05,19.33L12.1,19.33L12.49,19.3L12.53,19.3L12.57,19.29L12.95,19.21L13.01,19.2L13.06,19.18L13.79,18.89L13.84,18.87L13.9,18.84L14.57,18.39L14.61,18.37L14.65,18.33L14.68,18.3L14.33,16.99L13.87,17.42L13.29,17.8L12.66,18.05L12.37,18.11L12.06,18.13L11.63,18.1L11.27,18L10.96,17.85L10.71,17.66L10.51,17.42L10.36,17.12L10.27,16.78L10.23,16.36L10.26,15.88L10.33,15.41L10.45,14.95L10.61,14.52L10.81,14.1L11.04,13.72L11.64,13L12.36,12.41L12.74,12.18L13.16,11.98L13.6,11.82L14.06,11.7L14.53,11.63L15.03,11.6L15.6,11.63L16.04,11.68L16.06,11.69L15.52,15.2L15.27,15.73L15.24,15.79L16.87,16.48L16.72,15.43L16.89,14.84L16.9,14.82L16.9,14.8L17.67,11.5L17.79,10.98L17.3,10.8L17.06,10.71L17.03,10.7L17,10.69L16.31,10.51L16.27,10.5L16.23,10.5L15.72,10.43L15.7,10.43L15.67,10.43L15.05,10.4L15.02,10.4zM16.38,11.77L16.26,12.27L16.18,11.72zz" fill="#383838"/>
    </g>
    <g id="overlay">
      <path d="M16.841,18.643L30.6,24.5l-13.667,5.993L18.147,25.6l-0.008,0l0.283,-1.067L18.131,23.5l0.002,0L16.841,18.643zM18.5,24.5h11.9" fill="#DFBCD9" stroke="#A0519F" stroke-width="1" stroke-linecap="round" stroke-miterlimit="10"/>
    </g>
  </g>
</svg>
