<?xml version="1.0" encoding="UTF-8"?>
<!DOCTYPE svg PUBLIC "-//W3C//DTD SVG 1.1//EN" "http://www.w3.org/Graphics/SVG/1.1/DTD/svg11.dtd">
<svg version="1.1" id="Layer_1" xmlns="http://www.w3.org/2000/svg" xmlns:xlink="http://www.w3.org/1999/xlink" x="0px" y="0px" width="32px" height="32px" viewBox="0 0 32 32" enable-background="new 0 0 32 32" xml:space="preserve">
  <g id="main">
    <g id="icon">
      <path d="M25.5,6.5L29.5,6.5L29.5,2.5L25.5,2.5zz" fill="#ACD8B1"/>
      <path d="M25,2.5L25,6.5L26,6.5L26,3L29,3L29,6.5L30,6.5L30,2.5L30,2L29.5,2L25.5,2L25,2zz" fill="#0BA04A"/>
      <path d="M1.5,29.5L25.5,29.5L25.5,24.5L21.5,24.5L21.5,18L13,18L13,13L21.5,13L21.5,6.5L25.5,6.5L25.5,0.5L1.5,0.5zz" fill="#FFFFFF"/>
      <path d="M1,0.5L1,29.5L1,30L1.5,30L25.5,30L26,30L26,29.5L26,24.5L25,24.5L25,29L2,29L2,1L25,1L25,6.5L26,6.5L26,0.5L26,0L25.5,0L1.5,0L1,0zz" fill="#383838"/>
      <path d="M12.53,5.696L11.61,5.973L10.78,6.41L10.06,6.99L9.468,7.692L9.019,8.498L8.735,9.389L8.661,9.86L8.636,10.34L8.661,10.83L8.735,11.3L9.019,12.19L9.468,13L10.06,13.7L10.78,14.28L11.61,14.72L12.53,14.99L13,15.04L13,13L17.55,13L17.55,13L18,12.19L18.28,11.3L18.36,10.83L18.38,10.34L18.36,9.86L18.28,9.389L18,8.498L17.55,7.692L16.96,6.99L16.24,6.41L15.41,5.973L14.49,5.696L13.51,5.6zM12.69,15.16L11.91,15.3L11.15,15.54L10.43,15.85L9.734,16.25L9.083,16.71L8.475,17.24L7.914,17.83L7.404,18.48L6.949,19.17L6.554,19.9L6.221,20.67L5.955,21.47L5.761,22.29L5.641,23.13L5.6,23.99L21.4,23.99L21.36,23.13L21.24,22.29L21.04,21.47L20.78,20.67L20.45,19.9L20.05,19.17L19.6,18.48L19.22,18L13,18L13,15.14zz" fill="#FFFFFF"/>
      <path d="M13.45,5.003L12.47,5.099L12.41,5.105L12.35,5.122L11.44,5.398L11.38,5.415L11.33,5.442L10.5,5.88L10.45,5.907L10.41,5.942L9.688,6.522L9.643,6.558L9.606,6.602L9.011,7.304L8.973,7.349L8.944,7.4L8.495,8.206L8.466,8.258L8.447,8.316L8.163,9.206L8.149,9.25L8.142,9.296L8.068,9.767L8.064,9.798L8.062,9.829L8.037,10.31L8.035,10.34L8.037,10.38L8.062,10.86L8.064,10.89L8.068,10.92L8.142,11.39L8.149,11.44L8.163,11.48L8.447,12.37L8.466,12.43L8.495,12.48L8.944,13.29L8.973,13.34L9.011,13.39L9.606,14.09L9.643,14.13L9.688,14.17L10.41,14.75L10.45,14.78L10.5,14.81L10.87,15L10.19,15.3L10.16,15.32L10.13,15.33L9.437,15.73L9.411,15.74L9.386,15.76L8.734,16.22L8.711,16.24L8.689,16.26L8.08,16.79L8.059,16.81L8.04,16.83L7.479,17.42L7.46,17.44L7.444,17.46L6.934,18.1L6.917,18.12L6.903,18.15L6.448,18.84L6.434,18.86L6.421,18.88L6.026,19.62L6.013,19.64L6.003,19.66L5.67,20.43L5.66,20.46L5.652,20.48L5.386,21.28L5.377,21.3L5.371,21.33L5.177,22.15L5.17,22.18L5.166,22.21L5.047,23.05L5.043,23.08L5.041,23.1L5.001,23.96L4.971,24.59L5.6,24.59L21.4,24.59L22.03,24.59L22.03,24.5L21.5,24.5L21.5,20.94L21.35,20.48L21.34,20.46L21.33,20.43L21,19.66L20.99,19.64L20.97,19.62L20.58,18.88L20.57,18.86L20.55,18.84L20.1,18.15L20.08,18.12L20.07,18.1L19.98,18L18.42,18L18.63,18.23L19.11,18.83L19.53,19.48L19.91,20.16L20.22,20.88L20.47,21.63L20.65,22.4L20.76,23.19L20.77,23.39L6.229,23.39L6.239,23.19L6.351,22.4L6.533,21.63L6.782,20.88L7.093,20.16L7.465,19.48L7.891,18.83L8.368,18.23L8.891,17.68L9.456,17.18L10.06,16.75L10.69,16.39L11.36,16.1L12.05,15.89L12.77,15.76L13,15.74L13,14.44L12.64,14.4L11.84,14.16L11.12,13.78L10.48,13.27L9.963,12.65L9.572,11.95L9.321,11.16L9.259,10.77L9.237,10.34L9.259,9.922L9.321,9.527L9.572,8.737L9.964,8.035L10.48,7.421L11.12,6.914L11.84,6.531L12.64,6.288L13.51,6.203L14.38,6.288L15.18,6.53L15.9,6.914L16.54,7.421L17.06,8.035L17.45,8.737L17.7,9.527L17.76,9.922L17.78,10.34L17.76,10.77L17.7,11.16L17.45,11.95L17.06,12.65L16.76,13L18.24,13L18.53,12.48L18.55,12.43L18.57,12.37L18.86,11.48L18.87,11.44L18.88,11.39L18.95,10.92L18.96,10.89L18.96,10.86L18.98,10.38L18.98,10.34L18.98,10.31L18.96,9.829L18.96,9.798L18.95,9.767L18.88,9.296L18.87,9.25L18.86,9.206L18.57,8.316L18.55,8.258L18.53,8.206L18.08,7.4L18.05,7.349L18.01,7.304L17.41,6.602L17.38,6.558L17.33,6.522L16.61,5.942L16.57,5.907L16.52,5.88L15.69,5.442L15.64,5.415L15.58,5.398L14.67,5.122L14.61,5.105L14.55,5.099L13.57,5.003L13.51,4.997zz" fill="#383838"/>
    </g>
    <g id="overlay">
      <path d="M25.158,9.429L31.1,15.45l-5.942,6.021M31,15.5H15" fill="none" stroke="#EE3D3B" stroke-width="1.2" stroke-miterlimit="10"/>
    </g>
  </g>
</svg>
