<?xml version="1.0" encoding="UTF-8"?>
<!DOCTYPE svg PUBLIC "-//W3C//DTD SVG 1.1//EN" "http://www.w3.org/Graphics/SVG/1.1/DTD/svg11.dtd">
<svg version="1.1" id="Layer_1" xmlns="http://www.w3.org/2000/svg" xmlns:xlink="http://www.w3.org/1999/xlink" x="0px" y="0px" width="32px" height="32px" viewBox="0 0 32 32" enable-background="new 0 0 32 32" xml:space="preserve">
  <g id="icon">
    <polygon points="6.6,17.825 5.1,19.551 5.1,20.953 6.2,21.816 7.1,21.708 7.5,23.002 8.4,23.541 9.6,23.434 9.867,24.584 10.9,25.375 12.4,24.62 12.633,25.735 13.7,26.454 16.667,24.872 24.9,18.436 28.2,14.913 24.3,7.794 20.267,9.556 19.3,7.794 17.8,6.895 14.1,6.5 11.6,6.931 9.6,7.902 7.6,7.794 4,14.913 5.767,16.531" fill="#FFFFFF" stroke-linejoin="miter"/>
    <path d="M3.9,15.021" fill="#78797A"/>
    <path d="M16.133,21.349l-4.408,3.646c-0.28,0.224,-0.625,0.32,-0.97,0.272c-0.36,-0.05,-0.689,-0.259,-0.905,-0.573c-0.213,-0.31,-0.302,-0.692,-0.249,-1.074c0.052,-0.38,0.238,-0.715,0.523,-0.945l3.572,-2.965M4.434,15.298C4.915,15.806,6,16.746,6,16.746M13.233,10.742c0,0,2.867,-0.683,3.5,-0.431c0.633,0.252,0.916,1.012,0.916,1.012c0.239,0.283,0.413,0.643,0.648,0.935c0.396,0.493,0.868,0.929,1.399,1.218c0.341,0.186,1.374,-0.05,1.689,-0.476c0.346,-0.469,-0.348,-2.183,-0.559,-2.552c-0.399,-0.702,-0.828,-1.381,-1.259,-2.058c-0.447,-0.702,-0.705,-1.195,-1.469,-1.421c-0.712,-0.211,-1.453,-0.288,-2.184,-0.358c-0.775,-0.073,-1.567,-0.129,-2.344,-0.063c-0.324,0.027,-0.644,0.088,-0.967,0.129c-0.323,0.04,-0.649,0.128,-0.872,0.184c-0.256,0.065,-1.67,1.023,-2.126,1.056c-0.459,0.033,-0.91,0.007,-1.342,-0.157M24.15,7.975L21.5,9.196M25.832,17.5l2.103,-2.495M15.413,25.513l-0.784,0.688c-0.28,0.224,-0.625,0.32,-0.97,0.272c-0.36,-0.05,-0.689,-0.259,-0.905,-0.573c-0.213,-0.31,-0.302,-0.692,-0.249,-1.074c0.052,-0.38,0.238,-0.715,0.523,-0.945L16.6,20.915M13.786,19.662l-4.408,3.646c-0.28,0.224,-0.625,0.32,-0.97,0.272c-0.36,-0.05,-0.689,-0.259,-0.905,-0.573c-0.213,-0.31,-0.302,-0.692,-0.249,-1.074c0.052,-0.38,0.238,-0.715,0.523,-0.945l3.678,-2.852M10.821,18.649l-2.778,2.097c-0.28,0.224,-0.625,0.32,-0.97,0.272c-0.36,-0.05,-0.689,-0.259,-0.905,-0.573c-0.213,-0.31,-0.302,-0.692,-0.249,-1.074c0.052,-0.38,0.238,-0.715,0.523,-0.945c2.991,-2.993,5.551,-4.409,9.203,-6.317" fill="none" stroke="#383838" stroke-width="1" stroke-miterlimit="10"/>
    <path d="M23.771,24.483c-0.339,0,-0.66,-0.14,-0.905,-0.393l-2.62,-2.803c-0.513,-0.539,-0.527,-1.427,-0.03,-1.984c0.244,-0.274,0.587,-0.431,0.94,-0.431c0.339,0,0.66,0.14,0.905,0.393l2.619,2.803c0.248,0.26,0.388,0.609,0.395,0.982c0.007,0.376,-0.123,0.732,-0.365,1.003C24.466,24.326,24.124,24.483,23.771,24.483zM22.319,25.459c0.242,-0.271,0.371,-0.627,0.365,-1.003c-0.007,-0.373,-0.147,-0.722,-0.395,-0.982l-1.641,-1.748c-0.244,-0.254,-0.566,-0.393,-0.905,-0.393c-0.353,0,-0.695,0.157,-0.94,0.431c-0.497,0.557,-0.483,1.446,0.03,1.984l1.641,1.748c0.244,0.254,0.566,0.393,0.905,0.393C21.732,25.89,22.075,25.733,22.319,25.459zM26.124,21.59c0.242,-0.271,0.371,-0.627,0.365,-1.003c-0.007,-0.373,-0.147,-0.722,-0.395,-0.982l-1.967,-2.099c-0.244,-0.254,-0.566,-0.393,-0.905,-0.393c-0.353,0,-0.695,0.157,-0.94,0.431c-0.497,0.557,-0.483,1.446,0.03,1.984l1.967,2.099c0.244,0.254,0.566,0.393,0.905,0.393C25.537,22.021,25.879,21.864,26.124,21.59zM19.627,26.66c0.242,-0.271,0.371,-0.627,0.365,-1.003c-0.007,-0.373,0.153,-0.398,-0.095,-0.658l-1.289,-1.485c-0.244,-0.254,-0.566,-0.393,-0.905,-0.393c-0.353,0,-0.695,0.157,-0.94,0.431c-0.497,0.557,-0.483,1.446,0.03,1.984l0.989,1.161c0.244,0.254,0.566,0.393,0.905,0.393C19.041,27.091,19.383,26.934,19.627,26.66z" fill="#FFFFFF" stroke="#383838" stroke-width="1" stroke-miterlimit="10"/>
    <path d="M5.896,4.943L0.7,14.542l2.724,1.687l5.196,-9.6L5.896,4.943zM23.227,6.629l5.297,9.6L31.3,14.542l-5.297,-9.6L23.227,6.629z" fill="#92CBEE" stroke="#0964B0" stroke-width="1" stroke-linecap="round" stroke-miterlimit="10"/>
  </g>
</svg>
