<?xml version="1.0" encoding="UTF-8"?>
<!DOCTYPE svg PUBLIC "-//W3C//DTD SVG 1.1//EN" "http://www.w3.org/Graphics/SVG/1.1/DTD/svg11.dtd">
<svg version="1.1" id="Layer_1" xmlns="http://www.w3.org/2000/svg" xmlns:xlink="http://www.w3.org/1999/xlink" x="0px" y="0px" width="32px" height="32px" viewBox="0 0 32 32" enable-background="new 0 0 32 32" xml:space="preserve">
  <g id="main">
    <g id="icon">
      <path d="M2.5,27L2.551,27.5L2.696,27.97L2.927,28.4L3.232,28.77L3.602,29.07L4.027,29.3L4.496,29.45L5,29.5L17.5,29.5L17.5,20.5L19.5,20.5L19.5,19.52L19.53,18.91L19.62,18.31L19.77,17.73L19.97,17.18L20.23,16.65L20.53,16.16L20.87,15.69L21.26,15.27L21.69,14.88L22.15,14.53L22.64,14.23L23.17,13.97L23.72,13.77L24.29,13.62L24.89,13.53L25.5,13.5L26.11,13.53L26.5,13.59L26.5,4.5L4.333,4.5L3.871,4.436L3.484,4.266L3.167,4.025L2.916,3.75L2.599,3.234L2.5,3zz" fill="#FFFEFF"/>
      <path d="M4.097,0.5406L3.721,0.657L3.382,0.8414L3.086,1.086L2.841,1.382L2.657,1.721L2.541,2.097L2.5,2.5L2.541,2.903L2.657,3.279L2.841,3.618L3.086,3.914L3.382,4.159L3.721,4.343L4.097,4.459L4.5,4.5L27,4.5L26.58,4.459L26.15,4.343L25.73,4.159L25.34,3.914L25,3.618L24.74,3.279L24.56,2.903L24.5,2.5L24.56,2.097L24.74,1.721L25,1.382L25.34,1.086L25.73,0.8414L26.15,0.657L26.58,0.5406L27,0.5L4.5,0.5zz" fill="#FFFFFF"/>
      <path d="M4.45,0.002539L4.047,0.04316L3.997,0.04824L3.949,0.06309L3.573,0.1795L3.526,0.1941L3.483,0.2176L3.143,0.402L3.101,0.425L3.063,0.4559L2.767,0.7L2.73,0.7305L2.7,0.7674L2.456,1.063L2.425,1.101L2.402,1.143L2.218,1.483L2.194,1.526L2.179,1.573L2.063,1.949L2.048,1.997L2.043,2.047L2.003,2.45L1.997,2.5L2.003,2.55L2.043,2.953L2.048,3.003L2.063,3.051L2.179,3.427L2.194,3.474L2.218,3.517L2.402,3.857L2.425,3.899L2.456,3.937L2.7,4.233L2.73,4.27L2.767,4.3L3.063,4.544L3.101,4.575L3.143,4.598L3.483,4.782L3.526,4.806L3.573,4.821L3.949,4.937L3.997,4.952L4.047,4.957L4.45,4.997L4.475,5L4.5,5L27,5L27.05,4.002L26.67,3.966L26.31,3.87L25.96,3.716L25.64,3.513L25.37,3.273L25.17,3.017L25.05,2.757L25.01,2.5L25.05,2.243L25.17,1.983L25.37,1.727L25.64,1.487L25.96,1.284L26.31,1.13L26.67,1.034L27.05,0.9977L27,0L4.5,0L4.475,0zM24.68,1L24.67,1.006L24.64,1.037L24.61,1.074L24.34,1.414L24.31,1.459L24.28,1.512L24.11,1.887L24.08,1.951L24.07,2.021L24.01,2.424L23.99,2.5L24.01,2.576L24.07,2.979L24.08,3.049L24.11,3.113L24.28,3.488L24.31,3.541L24.34,3.586L24.61,3.926L24.64,3.963L24.67,3.994L24.68,4L4.525,4L4.197,3.967L3.916,3.88L3.663,3.742L3.441,3.559L3.258,3.337L3.12,3.084L3.033,2.803L3.003,2.5L3.033,2.197L3.12,1.916L3.258,1.663L3.441,1.441L3.663,1.258L3.916,1.12L4.197,1.033L4.525,1zz" fill="#383838"/>
      <path d="M2,2.5L2,27L2,27.03L2.003,27.05L2.053,27.55L2.058,27.6L2.073,27.65L2.219,28.12L2.233,28.17L2.257,28.21L2.488,28.64L2.511,28.68L2.541,28.72L2.846,29.09L2.877,29.12L2.914,29.15L3.284,29.46L3.321,29.49L3.364,29.51L3.788,29.74L3.832,29.77L3.879,29.78L4.348,29.93L4.396,29.94L4.446,29.95L4.95,30L4.975,30L5,30L17.5,30L17.5,29L5.025,29L4.596,28.96L4.222,28.84L3.883,28.66L3.587,28.41L3.344,28.12L3.159,27.78L3.043,27.4L3,26.98L3,2.5L3,2L2,2zM26,4.5L26,13.53L26.11,13.53L26.71,13.62L27,13.7L27,4.5L27,4L26,4zz" fill="#383838"/>
      <path d="M8.5,15.5L20.5,15.5L20.5,9.5L8.5,9.5zz" fill="#FFFFFF"/>
      <path d="M8,9.5L8,15.5L8,16L8.5,16L20.5,16L20.64,16L20.87,15.69L21,15.55L21,15.5L21,9.5L21,9L20.5,9L8.5,9L8,9zM20,10L20,15L9,15L9,10zz" fill="#228BCB"/>
    </g>
    <g id="overlay">
      <path d="M19.5,22.5h12v9H19.5V22.5zM25.5,27v2" fill="#F7DA8E" stroke="#E57428" stroke-width="1" stroke-miterlimit="10"/>
      <path d="M29.5,22.5v-2.976c0,-2.213,-1.8,-4.024,-4,-4.024l0,0c-2.2,0,-4,1.811,-4,4.024V22.5" fill="none" stroke="#E57428" stroke-width="1" stroke-miterlimit="10"/>
    </g>
  </g>
</svg>
