<?xml version="1.0" encoding="UTF-8"?>
<!DOCTYPE svg PUBLIC "-//W3C//DTD SVG 1.1//EN" "http://www.w3.org/Graphics/SVG/1.1/DTD/svg11.dtd">
<svg version="1.1" id="Layer_1" xmlns="http://www.w3.org/2000/svg" xmlns:xlink="http://www.w3.org/1999/xlink" x="0px" y="0px" width="32px" height="32px" viewBox="0 0 32 32" enable-background="new 0 0 32 32" xml:space="preserve">
  <g id="main">
    <g id="icon">
      <path d="M0.5,29.5L14.55,29.5L14.5,29.07L14.5,26.31L14.5,26.25L14.56,25.69L14.72,25.15L14.98,24.64L15.33,24.15L15.76,23.7L16.26,23.28L16.85,22.91L17.5,22.59L17.5,21.24L17.5,21.16L17.55,20.65L17.67,20.17L17.86,19.71L18.12,19.27L18.44,18.86L18.83,18.48L19.27,18.12L19.78,17.8L20.33,17.51L20.94,17.25L22.3,16.84L23.83,16.59L25.52,16.5L26.54,16.53L27.51,16.62L28.43,16.78L29.28,16.98L30.07,17.25L30.5,17.43L30.5,7.5L0.5,7.5zM30.45,29.5L30.5,29.5L30.5,29.05zz" fill="#FFFFFF"/>
      <path d="M0,7.5L0,29.5L0,30L0.5,30L14.67,30L14.57,29.67L14.5,29.07L14.5,29L1,29L1,8L30,8L30,17.22L30.07,17.25L30.79,17.56L31,17.68L31,7.5L31,7L30.5,7L0.5,7L0,7zM30.68,27.47L30.5,27.54L30.5,29.05L30.43,29.66L30.33,30L30.5,30L31,30L31,29.5L31,27.3zz" fill="#383838"/>
      <path d="M0.5,7.5L30.5,7.5L30.5,2.5L0.5,2.5zz" fill="#C8C6C4"/>
      <path d="M0,2.5L0,7.5L0,8L0.5,8L30.5,8L31,8L31,7.5L31,2.5L31,2L30.5,2L0.5,2L0,2zM30,3L30,7L1,7L1,3zz" fill="#383838"/>
      <path d="M7,5L8,5L8,0L7,0zM25,5L26,5L26,0L25,0zz" fill="#383838"/>
      <path d="M9,10.5L9,14L3.5,14L3,14L3,14.5L3,18L3,18.5L3,19L3,22L3,22.5L3,23L3,26.5L3,27L3.5,27L9,27L9.5,27L10,27L14.5,27L14.5,26.31L14.5,26.25L14.53,26L10,26L10,23L15,23L15,24.61L15.33,24.15L15.76,23.7L16,23.5L16,23L16.71,23L16.85,22.91L17.5,22.59L17.5,22L16,22L16,19L18.33,19L18.44,18.86L18.83,18.48L19.27,18.12L19.46,18L16,18L16,15L21,15L21,17.23L22,16.93L22,15L27,15L27,16.58L27.51,16.62L28,16.71L28,15L28,14.5L28,14L28,10.5L28,10L27.5,10L22,10L21.5,10L21,10L16,10L15.5,10L15,10L9.5,10L9,10zM15,11L15,14L10,14L10,11zM21,11L21,14L16,14L16,11zM27,11L27,14L22,14L22,11zM9,15L9,18L4,18L4,15zM15,15L15,18L10,18L10,15zM9,19L9,22L4,22L4,19zM15,19L15,22L10,22L10,19zM9,23L9,26L4,26L4,23zz" fill="#787979" opacity="0.6"/>
    </g>
    <g id="overlay">
      <path d="M28.5,26.308c0,0,0,2.45,0,2.743c0,1.133,-2.683,2.449,-5.998,2.449c-3.315,0,-6.002,-1.316,-6.002,-2.436c0,-0.251,0,-2.757,0,-2.757" fill="#F7DA8E" stroke="#E57428" stroke-width="1" stroke-linecap="round" stroke-miterlimit="10"/>
      <path d="M28.5,26.294c0,1.484,-2.653,2.478,-5.978,2.478c-3.325,0,-6.021,-0.993,-6.021,-2.478c0,-0.877,1.148,-1.852,2.998,-2.244" fill="#F7DA8E" stroke="#E57428" stroke-width="1" stroke-linecap="round" stroke-miterlimit="10"/>
      <path d="M31.5,21.238c0,0,0,2.483,0,2.78c0,1.148,-2.683,2.482,-5.998,2.482c-3.315,0,-6.002,-1.334,-6.002,-2.468c0,-0.254,0,-2.793,0,-2.793" fill="#F7DA8E" stroke="#E57428" stroke-width="1" stroke-linecap="round" stroke-miterlimit="10"/>
      <path d="M25.522,18.5c3.325,0,5.978,1.219,5.978,2.724c0,1.504,-2.653,2.511,-5.978,2.511c-3.325,0,-6.021,-1.007,-6.021,-2.511C19.502,19.719,22.197,18.5,25.522,18.5z" fill="#F7DA8E" stroke="#E57428" stroke-width="1" stroke-linecap="round" stroke-miterlimit="10"/>
    </g>
  </g>
</svg>
