<?xml version="1.0" encoding="UTF-8"?>
<!DOCTYPE svg PUBLIC "-//W3C//DTD SVG 1.1//EN" "http://www.w3.org/Graphics/SVG/1.1/DTD/svg11.dtd">
<svg version="1.1" id="Layer_1" xmlns="http://www.w3.org/2000/svg" xmlns:xlink="http://www.w3.org/1999/xlink" x="0px" y="0px" width="32px" height="32px" viewBox="0 0 32 32" enable-background="new 0 0 32 32" xml:space="preserve">
  <g id="icon">
    <polygon points="12.722,18.861 20.648,15.889 29.5,21.499 29.5,16.215 20.472,7.663 12.944,13.685 4.5,4.303 4.5,12.117" fill="#FFFFFF" stroke-linejoin="miter"/>
    <polygon points="5,12.527 5,5.606 12.888,14.37 20.445,8.325 29,16.43 29,21.182 30,21.816 30,16 20.5,7 13,13 4,3 4,11.707" fill="#ED8730" stroke-linejoin="miter"/>
    <polygon points="4.5,28.5 4.5,14.057 12.439,20.569 20.476,17.556 29.5,23.275 29.5,28.5" fill="#FFFFFF" stroke="#228BCB" stroke-width="1" stroke-miterlimit="10" stroke-linejoin="miter"/>
    <polyline points="2.5,2 2.5,30.5 30,30.5" fill="none" stroke="#383838" stroke-width="1" stroke-miterlimit="10" stroke-linejoin="miter"/>
  </g>
</svg>
