<?xml version="1.0" encoding="UTF-8"?>
<!DOCTYPE svg PUBLIC "-//W3C//DTD SVG 1.1//EN" "http://www.w3.org/Graphics/SVG/1.1/DTD/svg11.dtd">
<svg version="1.1" id="Layer_1" xmlns="http://www.w3.org/2000/svg" xmlns:xlink="http://www.w3.org/1999/xlink" x="0px" y="0px" width="32px" height="32px" viewBox="0 0 32 32" enable-background="new 0 0 32 32" xml:space="preserve">
  <g id="icon">
    <path d="M9.5,22.5H5.5v-4h4V22.5zM9.5,11.5H5.5v4h4V11.5zM7.5,7.5v3.9M7.5,15.5v3M9.5,13.5h5M9.5,20.5h4.7M9.5,29.5H5.5v-4h4V29.5zM7.5,22.5v3M9.5,27.5h4.7" fill="#FFFFFF" stroke="#383838" stroke-width="1" stroke-miterlimit="1"/>
    <path d="M21.5,7.5H2.5V2.5h19V7.5zM29.5,11.5H14.5v4h15V11.5zM29.5,18.5H14.5v4h15V18.5zM29.5,25.5H14.5v4h15V25.5z" fill="#92CBEE" stroke="#0964B0" stroke-width="1" stroke-linecap="round" stroke-miterlimit="1"/>
  </g>
</svg>
