<?xml version="1.0" encoding="UTF-8"?>
<!DOCTYPE svg PUBLIC "-//W3C//DTD SVG 1.1//EN" "http://www.w3.org/Graphics/SVG/1.1/DTD/svg11.dtd">
<svg version="1.1" id="Layer_1" xmlns="http://www.w3.org/2000/svg" xmlns:xlink="http://www.w3.org/1999/xlink" x="0px" y="0px" width="32px" height="32px" viewBox="0 0 32 32" enable-background="new 0 0 32 32" xml:space="preserve">
  <g id="main">
    <g id="icon">
      <path d="M6.5,10.4L6.5,6.5zM4.5,14.5L6.5,14.5L8.5,14.5L8.5,12.5L8.5,10.5L4.5,10.5zM4.5,21.5L6.5,21.5L8.5,21.5L8.5,19.5L8.5,17.5L6.5,17.5L4.5,17.5zM4.5,28.5L8.5,28.5L8.5,26.5L8.5,24.5L6.5,24.5L4.5,24.5zz" fill="#FFFFFF"/>
      <path d="M6,10L4.5,10L4,10L4,10.5L4,14.5L4,15L4.5,15L6,15L6,17L4.5,17L4,17L4,17.5L4,21.5L4,22L4.5,22L6,22L6,24L4.5,24L4,24L4,24.5L4,28.5L4,29L4.5,29L8.5,29L9,29L9,28.5L9,27L13.2,27L13.2,26L9,26L9,24.5L9,24L8.5,24L7,24L7,22L8.5,22L9,22L9,21.5L9,20L13.2,20L13.2,19L9,19L9,17.5L9,17L8.5,17L7,17L7,15L8.5,15L9,15L9,14.5L9,13L13.5,13L13.5,12L9,12L9,10.5L9,10L8.5,10L7,10L7,6.5L6,6.5zM8,11L8,14L5,14L5,11zM8,18L8,21L5,21L5,18zM8,25L8,28L5,28L5,25zz" fill="#383838"/>
      <path d="M1.5,6.5L20.5,6.5L20.5,1.5L1.5,1.5zM13.5,14.5L28.5,14.5L28.5,10.5L13.5,10.5zM13.5,21.5L16.03,21.5L16.21,21L16.59,20.21L17.04,19.47L17.56,18.78L18.14,18.14L18.78,17.56L18.86,17.5L13.5,17.5zM13.5,28.5L16.46,28.5L16.14,27.82L15.79,26.76L15.57,25.65L15.5,24.5L13.5,24.5zz" fill="#92CBEE"/>
      <path d="M1,1.5L1,6.5L1,7L1.5,7L20.5,7L21,7L21,6.5L21,1.5L21,1L20.5,1L1.5,1L1,1zM20,2L20,6L2,6L2,2zM13,10.5L13,14.5L13,15L13.5,15L28.5,15L29,15L29,14.5L29,10.5L29,10L28.5,10L13.5,10L13,10zM28,11L28,14L14,14L14,11zM13,17.5L13,21.5L13,22L13.5,22L15.86,22L15.91,21.83L16.21,21L14,21L14,18L18.29,18L18.78,17.56L19.47,17.04L19.54,17L13.5,17L13,17zM13,24.5L13,28.5L13,29L13.5,29L16.72,29L16.61,28.82L16.22,28L14,28L14,25L15.53,25L15.5,24.5L15.53,24L13.5,24L13,24zz" fill="#0964B0"/>
    </g>
    <g id="overlay">
      <path d="M19.55,19.55c2.734,-2.734,7.166,-2.734,9.899,0c2.734,2.734,2.734,7.166,0,9.899c-2.734,2.734,-7.166,2.734,-9.899,0C16.817,26.716,16.817,22.284,19.55,19.55z" fill="#FFFFFF" stroke="#DB6811" stroke-width="1" stroke-miterlimit="10"/>
      <path d="M21.5,27v-5.5h5.5M21.789,21.789l5.901,5.901" fill="none" stroke="#DB6811" stroke-width="1" stroke-miterlimit="10"/>
    </g>
  </g>
</svg>
