<?xml version="1.0" encoding="UTF-8"?>
<!DOCTYPE svg PUBLIC "-//W3C//DTD SVG 1.1//EN" "http://www.w3.org/Graphics/SVG/1.1/DTD/svg11.dtd">
<svg version="1.1" id="Layer_1" xmlns="http://www.w3.org/2000/svg" xmlns:xlink="http://www.w3.org/1999/xlink" x="0px" y="0px" width="32px" height="32px" viewBox="0 0 32 32" enable-background="new 0 0 32 32" xml:space="preserve">
  <g id="icon">
    <rect x="1.5" y="6.5" width="29" height="23" fill="#FFFFFF" stroke="#383838" stroke-width="1" stroke-miterlimit="1"/>
    <rect x="1.5" y="1.5" width="29" height="5" fill="#92CBEE" stroke="#0964B0" stroke-width="1" stroke-linecap="round" stroke-miterlimit="1"/>
    <path d="M4,10.5h2M7,10.5h7M4,13.5h2M7,13.5h7M4,16.5h2M7,16.5h7M4,19.5h2M7,19.5h7M4,22.5h2M7,22.5h7M4,25.5h2M7,25.5h7M18,10.5h2M21,10.5h7M18,13.5h2M21,13.5h7M18,16.5h2M21,16.5h7M18,19.5h2M21,19.5h7M18,22.5h2M21,22.5h7" fill="none" stroke="#787979" stroke-width="1" stroke-miterlimit="1"/>
  </g>
</svg>
