<?xml version="1.0" encoding="UTF-8"?>
<!DOCTYPE svg PUBLIC "-//W3C//DTD SVG 1.1//EN" "http://www.w3.org/Graphics/SVG/1.1/DTD/svg11.dtd">
<svg version="1.1" id="Layer_1" xmlns="http://www.w3.org/2000/svg" xmlns:xlink="http://www.w3.org/1999/xlink" x="0px" y="0px" width="32px" height="32px" viewBox="0 0 32 32" enable-background="new 0 0 32 32" xml:space="preserve">
  <g id="icon">
    <path d="M22.1,25.5H11.5V6.755c0,-0.759,0.628,-1.255,1.383,-1.255h17.32c0.754,0,1.297,0.495,1.297,1.255V25.5h-2.7M3.1,25.5H1.264C0.889,25.5,0.5,25.213,0.5,24.831c0,0,0,-3.962,0,-6.36c0,-0.31,0.088,-0.706,0.13,-0.899c0.536,-2.416,1.652,-5.974,1.935,-6.435c0.283,-0.46,0.804,-0.637,1.179,-0.637h7.156c0.375,0,0.599,0.202,0.599,0.584v13.748c0,0.285,-0.167,0.669,-0.5,0.669H9.767" fill="#FFFFFF"/>
    <path d="M1.264,25H3.1v1H1.264C0.654,26,0,25.53,0,24.831V18h1v6.831C1,24.895,1.128,25,1.264,25zM30.203,5h-17.32C11.881,5,11,5.671,11,6.755v3.249c-0.032,-0.002,-0.065,-0.003,-0.099,-0.003H6v1h4.901c0.047,0,0.077,0.006,0.091,0.011c0.004,0.012,0.008,0.036,0.008,0.073v13.748c0,0.064,-0.023,0.132,-0.044,0.169h-1.19v1H22.1v-1H12V6.755c0,-0.432,0.372,-0.755,0.883,-0.755h17.32c0.492,0,0.797,0.289,0.797,0.755V25h-2.2v1h3.2V6.755C32,5.738,31.244,5,30.203,5z" fill="#383838"/>
    <path d="M6.5,17.5H0.7l1.368,-5.487C2.324,11.118,3.142,10.5,4.074,10.5H6.5V17.5z" fill="#92CBEE" stroke="#0964B0" stroke-width="1" stroke-linecap="round" stroke-miterlimit="10"/>
    <path d="M25.479,21.688c-1.83,0,-3.313,1.495,-3.313,3.339c0,1.844,1.483,3.339,3.313,3.339c1.829,0,3.313,-1.495,3.313,-3.339C28.792,23.183,27.309,21.688,25.479,21.688zM9.792,25.027c0,1.844,-1.483,3.339,-3.313,3.339c-1.83,0,-3.313,-1.495,-3.313,-3.339c0,-1.844,1.483,-3.339,3.313,-3.339C8.309,21.688,9.792,23.183,9.792,25.027z" fill="#C8C6C4" stroke="#383838" stroke-width="1" stroke-linecap="round" stroke-miterlimit="10"/>
    <rect x="15.5" y="9.5" width="12" height="6" fill="#92CBEE" stroke="#0964B0" stroke-width="1" stroke-linecap="round" stroke-miterlimit="10"/>
  </g>
</svg>
