<?xml version="1.0" encoding="UTF-8"?>
<!DOCTYPE svg PUBLIC "-//W3C//DTD SVG 1.1//EN" "http://www.w3.org/Graphics/SVG/1.1/DTD/svg11.dtd">
<svg version="1.1" id="Layer_1" xmlns="http://www.w3.org/2000/svg" xmlns:xlink="http://www.w3.org/1999/xlink" x="0px" y="0px" width="32px" height="32px" viewBox="0 0 32 32" enable-background="new 0 0 32 32" xml:space="preserve">
  <g id="main">
    <g id="icon">
      <path d="M3.5,29.5L17.04,29.5L16.61,28.82L16.14,27.82L15.79,26.76L15.57,25.65L15.5,24.5L15.55,23.58L15.68,22.69L15.91,21.83L16.21,21L16.59,20.21L17.04,19.47L17.56,18.78L18.14,18.14L18.78,17.56L19.47,17.04L20.21,16.59L21,16.21L21.83,15.91L22.69,15.68L23.58,15.55L24.5,15.5L25.65,15.57L26.5,15.74L26.5,8.5L18.5,0.5L3.5,0.5zz" fill="#FFFFFF"/>
      <path d="M3,30L17.4,30L17.19,29.74L16.72,29L4,29L4,1L18,1L18,9L26,9L26,15.64L26.76,15.79L27,15.87L27,8.293L18.71,0L3,0zM25.29,8L19,8L19,1.707zz" fill="#383838"/>
      <path d="M18,14L23.5,14L23.5,13L18,13zM6.5,17L19.54,17L20.21,16.59L21,16.21L21.57,16L6.5,16zM6.5,20L16.72,20L17.04,19.47L17.39,19L6.5,19zM6.5,23L15.64,23L15.68,22.69L15.86,22L6.5,22zM6.5,26L15.64,26L15.57,25.65L15.53,25L6.5,25zz" fill="#78797A" opacity="0.5"/>
      <path d="M10.82,3.308L6.466,13.77L7.39,14.16L8.808,10.75L13.96,10.75L15.43,14.2L16.35,13.8L11.89,3.305L11.76,3L11.43,3L11.28,3L10.95,3zM13.54,9.749L9.224,9.749L11.36,4.615zz" fill="#228BCB"/>
    </g>
    <g id="overlay">
      <path d="M24.5,17.5c-3.866,0,-7,3.134,-7,7c0,3.866,3.134,7,7,7s7,-3.134,7,-7C31.5,20.634,28.366,17.5,24.5,17.5zM23.25,28.669l-3.53,-3.53l0.919,-0.919l2.611,2.611l5.261,-5.261l0.919,0.919L23.25,28.669z" fill="#B2DBB4"/>
      <path d="M24.5,17.5c-3.866,0,-7,3.134,-7,7c0,3.866,3.134,7,7,7s7,-3.134,7,-7C31.5,20.634,28.366,17.5,24.5,17.5zM23.25,28.669l-3.53,-3.53l0.919,-0.919l2.611,2.611l5.261,-5.261l0.919,0.919L23.25,28.669z" fill="#009949" opacity="0.2"/>
      <path d="M24.5,32c-4.135,0,-7.5,-3.365,-7.5,-7.5s3.365,-7.5,7.5,-7.5s7.5,3.365,7.5,7.5S28.635,32,24.5,32zM24.5,18c-3.584,0,-6.5,2.916,-6.5,6.5s2.916,6.5,6.5,6.5s6.5,-2.916,6.5,-6.5S28.084,18,24.5,18z" fill="#009949"/>
      <polygon points="19.72,25.139 20.639,24.22 23.25,26.831 28.511,21.57 29.43,22.489 23.25,28.669" fill="#FFFFFF" stroke-linejoin="miter"/>
    </g>
  </g>
</svg>
