<?xml version="1.0" encoding="UTF-8"?>
<!DOCTYPE svg PUBLIC "-//W3C//DTD SVG 1.1//EN" "http://www.w3.org/Graphics/SVG/1.1/DTD/svg11.dtd">
<svg version="1.1" id="Layer_1" xmlns="http://www.w3.org/2000/svg" xmlns:xlink="http://www.w3.org/1999/xlink" x="0px" y="0px" width="32px" height="32px" viewBox="0 0 32 32" enable-background="new 0 0 32 32" xml:space="preserve">
  <g id="main">
    <g id="icon">
      <path d="M3.5,29.5L17.03,29.5L16.61,28.82L16.13,27.82L15.79,26.77L15.58,25.65L15.5,24.5L15.55,23.58L15.68,22.69L15.91,21.83L16.21,21L16.59,20.21L17.04,19.47L17.56,18.78L18.14,18.14L18.78,17.56L19.47,17.04L20.21,16.59L21,16.21L21.83,15.91L22.69,15.68L23.58,15.55L24.5,15.5L25.65,15.58L26.5,15.74L26.5,8.5L18.5,0.5L3.5,0.5z" fill="#FFFFFF"/>
      <path d="M3,30L17.4,30L17.19,29.74L16.72,29L4,29L4,1L18,1L18,9L26,9L26,15.64L26.77,15.79L27,15.87L27,8.294L18.71,0L3,0M25.29,8L19,8L19,1.706z" fill="#383838"/>
      <path d="M6.5,5L16,5L16,4L6.5,4M6.5,8L16,8L16,7L6.5,7M6.5,11L16,11L16,10L6.5,10M6.5,14L23.5,14L23.5,13L6.5,13M6.5,17L19.53,17L20.21,16.59L21,16.21L21.57,16L6.5,16z" fill="#78797A" opacity="0.5"/>
      <path d="M6.5,26.5L8.5,26.5L8.5,22.5L6.5,22.5z" fill="#92CBEE"/>
      <path d="M6,22.5L6,26.5L6,27L6.5,27L8.5,27L9,27L9,26.5L9,22.5L9,22L8.5,22L6.5,22L6,22M8,23L8,26L7,26L7,23z" fill="#0964B0"/>
      <path d="M10.5,26.5L12.5,26.5L12.5,20.5L10.5,20.5z" fill="#92CBEE"/>
      <path d="M10,20.5L10,26.5L10,27L10.5,27L12.5,27L13,27L13,26.5L13,20.5L13,20L12.5,20L10.5,20L10,20M12,21L12,26L11,26L11,21z" fill="#0964B0"/>
      <path d="M14.5,26.5L15.74,26.5L15.58,25.65L15.5,24.5L15.55,23.58L15.68,22.69L15.91,21.83L16.21,21L16.5,20.39L16.5,18.5L14.5,18.5z" fill="#92CBEE"/>
      <path d="M14,18.5L14,26.5L14,27L14.5,27L15.87,27L15.79,26.77L15.64,26L15,26L15,19L16,19L16,21.57L16.21,21L16.59,20.21L17,19.53L17,18.5L17,18L16.5,18L14.5,18L14,18z" fill="#0964B0"/>
    </g>
    <g id="overlay">
      <path d="M29.45,29.45c-2.734,2.734,-7.166,2.734,-9.899,0c-2.734,-2.734,-2.734,-7.166,0,-9.899s7.166,-2.734,9.899,0C32.183,22.284,32.183,26.716,29.45,29.45z" fill="#FFFFFF" stroke="#228BCB" stroke-width="1" stroke-miterlimit="1"/>
      <path d="M22,21.5h5.5v5.5M21.309,27.691l5.901,-5.901" fill="none" stroke="#228BCB" stroke-width="1" stroke-miterlimit="1"/>
    </g>
  </g>
</svg>
