<?xml version="1.0" encoding="UTF-8"?>
<!DOCTYPE svg PUBLIC "-//W3C//DTD SVG 1.1//EN" "http://www.w3.org/Graphics/SVG/1.1/DTD/svg11.dtd">
<svg version="1.1" id="Layer_1" xmlns="http://www.w3.org/2000/svg" xmlns:xlink="http://www.w3.org/1999/xlink" x="0px" y="0px" width="32px" height="32px" viewBox="0 0 32 32" enable-background="new 0 0 32 32" xml:space="preserve">
  <g id="main">
    <g id="icon">
      <path d="M3.5,29.5L18.17,29.5L18.13,29.21L18.15,28.89L18.22,28.58L18.35,28.29L18.54,28.02L19.83,26.5L17.2,26.32L16.85,26.26L16.53,26.14L16.24,25.97L15.99,25.74L15.79,25.48L15.63,25.18L15.53,24.85L15.5,24.5L15.53,24.15L15.63,23.82L15.79,23.52L15.99,23.26L16.24,23.03L16.53,22.86L16.85,22.74L17.2,22.68L19.83,22.51L18.54,20.99L18.35,20.71L18.22,20.42L18.15,20.11L18.13,19.79L18.17,19.48L18.27,19.17L18.43,18.89L18.63,18.64L18.9,18.42L19.2,18.26L19.52,18.16L19.86,18.13L20.17,18.15L20.46,18.23L20.74,18.36L20.98,18.54L22.5,19.83L22.68,17.19L22.74,16.85L22.86,16.53L23.03,16.24L23.26,15.99L23.52,15.79L23.82,15.63L24.15,15.53L24.49,15.5L24.85,15.53L25.19,15.64L25.49,15.8L25.76,16.01L25.98,16.27L26.15,16.56L26.26,16.9L26.31,17.25L26.4,19.84L26.5,19.75L26.5,8.5L18.5,0.5L3.5,0.5zM22.12,29.5L22.53,29.5L22.51,29.17zz" fill="#FFFFFF"/>
      <path d="M3,30L18.37,30L18.27,29.83L18.17,29.52L18.13,29.21L18.14,29L4,29L4,1L18,1L18,9L26,9L26,16.3L26.15,16.56L26.26,16.9L26.31,17.25L26.4,19.84L27,19.35L27,8.293L18.71,0L3,0zM25.29,8L19,8L19,1.707zM21.53,30L22.56,30L22.51,29.17zz" fill="#383838"/>
      <path d="M6.5,5L16,5L16,4L6.5,4zM6.5,8L16,8L16,7L6.5,7zM6.5,11L16,11L16,10L6.5,10zM6.5,14L23.5,14L23.5,13L6.5,13zM6.5,17L22.72,17L22.74,16.85L22.86,16.53L23.03,16.24L23.25,16L6.5,16zM22.5,19.83L22.56,19L21.53,19zM19,22.56L19.83,22.51L19.4,22L19,22zz" fill="#78797A" opacity="0.5"/>
      <path d="M6.5,26.5L8.5,26.5L8.5,22.5L6.5,22.5zz" fill="#92CBEE"/>
      <path d="M6,22.5L6,26.5L6,27L6.5,27L8.5,27L9,27L9,26.5L9,22.5L9,22L8.5,22L6.5,22L6,22zM8,23L8,26L7,26L7,23zz" fill="#0964B0"/>
      <path d="M10.5,26.5L12.5,26.5L12.5,20.5L10.5,20.5zz" fill="#92CBEE"/>
      <path d="M10,20.5L10,26.5L10,27L10.5,27L12.5,27L13,27L13,26.5L13,20.5L13,20L12.5,20L10.5,20L10,20zM12,21L12,26L11,26L11,21zz" fill="#0964B0"/>
      <path d="M14.5,26.5L16.5,26.5L16.5,26.12L16.24,25.97L15.99,25.74L15.79,25.48L15.63,25.18L15.53,24.85L15.5,24.5L15.53,24.15L15.63,23.82L15.79,23.52L15.99,23.26L16.24,23.03L16.5,22.88L16.5,18.5L14.5,18.5zz" fill="#92CBEE"/>
      <path d="M14,18.5L14,26.5L14,27L14.5,27L16.5,27L17,27L17,26.5L17,26.28L16.85,26.26L16.53,26.14L16.24,25.97L16,25.75L16,26L15,26L15,19L16,19L16,23.25L16.24,23.03L16.53,22.86L16.85,22.74L17,22.72L17,18.5L17,18L16.5,18L14.5,18L14,18zz" fill="#0964B0"/>
    </g>
    <g id="overlay">
      <path d="M24.762,32h-0.524c-0.021,0,-0.039,-0.017,-0.04,-0.038L23.8,26.107l-3.784,3.209c-0.094,0.079,-0.232,0.074,-0.319,-0.013l0,0c-0.087,-0.087,-0.092,-0.226,-0.013,-0.319L22.893,25.2l-5.594,-0.38c-0.168,-0.011,-0.299,-0.151,-0.299,-0.32l0,0c0,-0.169,0.131,-0.309,0.299,-0.32l5.594,-0.38l-3.209,-3.784c-0.079,-0.094,-0.074,-0.232,0.013,-0.319l0,0c0.087,-0.087,0.226,-0.092,0.319,-0.013L23.8,22.893l0.38,-5.599c0.011,-0.166,0.149,-0.294,0.315,-0.294h0c0.17,0,0.31,0.135,0.315,0.305l0.19,5.588l3.983,-3.215c0.095,-0.077,0.232,-0.069,0.319,0.017l0,0c0.088,0.088,0.094,0.228,0.013,0.323L26.107,23.8l5.594,0.38c0.168,0.011,0.299,0.151,0.299,0.32l0,0c0,0.169,-0.131,0.309,-0.299,0.32l-5.594,0.38l3.209,3.784c0.079,0.094,0.074,0.232,-0.013,0.319l0,0c-0.087,0.087,-0.226,0.092,-0.319,0.013L25.2,26.107l-0.397,5.855C24.801,31.983,24.783,32,24.762,32z" fill="#ED8730"/>
    </g>
  </g>
</svg>
