<?xml version="1.0" encoding="UTF-8"?>
<!DOCTYPE svg PUBLIC "-//W3C//DTD SVG 1.1//EN" "http://www.w3.org/Graphics/SVG/1.1/DTD/svg11.dtd">
<svg version="1.1" id="Layer_1" xmlns="http://www.w3.org/2000/svg" xmlns:xlink="http://www.w3.org/1999/xlink" x="0px" y="0px" width="32px" height="32px" viewBox="0 0 32 32" enable-background="new 0 0 32 32" xml:space="preserve">
  <g id="main">
    <g id="icon">
      <path d="M3.5,29.5L15.77,29.5L15.65,29.08L15.57,28.54L15.55,28L15.64,27.25L15.9,26.59L16.09,26.31L16.31,26.06L16.58,25.85L16.87,25.69L17.44,25.5L17.86,25.47L18.35,25.47L18.26,25.33L17.47,23.97L16.91,22.68L16.57,21.45L16.48,20.86L16.45,20.3L16.54,19.32L16.79,18.43L17.2,17.64L17.75,16.95L18.43,16.38L19.22,15.95L20.12,15.66L21.11,15.52L21.64,15.5L25.5,15.5L25.5,7.5L18.5,0.5L3.5,0.5zz" fill="#FFFFFF"/>
      <path d="M3,30L15.92,30L15.65,29.08L15.64,29L4,29L4,1L18,1L18,8L25,8L25,15.5L26,15.5L26,7.293L18.71,0L3,0zM24.29,7L19,7L19,1.707zz" fill="#383838"/>
      <path d="M7,11L22,11L22,10L7,10zM7,14L22,14L22,13L7,13zM7,17L17.71,17L17.75,16.95L18.43,16.38L19.12,16L7,16zM7,20L16.48,20L16.54,19.32L16.63,19L7,19zM7,23L17.05,23L16.91,22.68L16.72,22L7,22zM7,26L16.39,26L16.58,25.85L16.87,25.69L17.44,25.5L17.86,25.47L18.35,25.47L18.26,25.33L18.07,25L7,25zz" fill="#228BCB"/>
    </g>
    <g id="overlay">
      <path d="M20.487,31.5v-0.093h-0.24c-1.46,0,-2.74,-1.654,-2.74,-3.409c0,-0.208,0.056,-0.445,0.18,-0.504c0.035,-0.017,0.096,-0.027,0.132,-0.027h3.642l-0.083,-0.19c-0.272,-0.991,-0.756,-2.027,-1.438,-3.081c-0.967,-1.493,-1.479,-2.852,-1.479,-3.928c0,-1.585,1.062,-2.669,2.705,-2.76l0.113,-0.006h7.796c1.932,0,2.374,2.602,2.379,2.627c0.025,0.153,-0.057,0.299,-0.2,0.355c-0.03,0.012,-0.063,0.017,-0.103,0.017h-2.491l0.054,0.286c0.292,1.55,0.936,3.143,1.41,4.067c0.076,0.148,0.151,0.293,0.225,0.435l0.006,0.011c0.59,1.134,1.099,2.114,1.099,3.001c0,2.347,-1.384,3.199,-2.314,3.199H20.487z" fill="#F7DA8E"/>
      <path d="M31.254,20.483c-0.033,0.013,-0.068,0.017,-0.103,0.017l-8.244,0c-0.145,0,-0.269,-0.106,-0.299,-0.254c-0.003,-0.015,-0.268,-1.373,-1.195,-2.195c-0.477,-0.423,-0.507,-0.551,0.225,-0.551h7.437c1.898,0,2.36,2.512,2.378,2.627C31.477,20.273,31.402,20.425,31.254,20.483zM21.401,17.516c-1.719,0,-2.948,1.057,-2.948,2.78c0,1.129,0.572,2.536,1.485,3.946c2.595,4.006,1.769,7.258,0.348,7.258c0.279,0,0.59,0,0.864,0c1.957,0,7.971,0,8.015,0c1.01,0,2.311,-0.932,2.311,-3.194c0,-1.001,-0.648,-2.118,-1.328,-3.443c-0.579,-1.128,-1.225,-2.901,-1.458,-4.347M21.514,27.467h-3.655c-0.038,0,-0.098,0.011,-0.132,0.027c-0.142,0.067,-0.18,0.359,-0.18,0.503c0,1.697,1.222,3.457,2.739,3.457" fill="none" stroke="#E57428" stroke-width="1" stroke-miterlimit="10"/>
      <path d="M21.614,23.5h5.953M22.6,25.533h5.853M23.38,27.5h6.053M23.38,29.5h5.853" fill="#FFFFFF" stroke="#383838" stroke-width="1" stroke-miterlimit="10"/>
    </g>
  </g>
</svg>
