<?xml version="1.0" encoding="UTF-8"?>
<!DOCTYPE svg PUBLIC "-//W3C//DTD SVG 1.1//EN" "http://www.w3.org/Graphics/SVG/1.1/DTD/svg11.dtd">
<svg version="1.1" id="Layer_1" xmlns="http://www.w3.org/2000/svg" xmlns:xlink="http://www.w3.org/1999/xlink" x="0px" y="0px" width="32px" height="32px" viewBox="0 0 32 32" enable-background="new 0 0 32 32" xml:space="preserve">
  <g id="main">
    <g id="icon">
      <path d="M2.131,3.581L1.803,3.803L1.581,4.131L1.5,4.533L1.5,7.5L17.5,7.5L17.5,6.5L16.76,6.5L16.41,6.472L16.07,6.388L15.75,6.252L15.45,6.064L12.54,3.88L12,3.597L11.4,3.5L2.533,3.5zz" fill="#FFFFFF"/>
      <path d="M2.434,3.01L2.032,3.091L1.934,3.111L1.852,3.167L1.523,3.388L1.443,3.443L1.388,3.523L1.167,3.852L1.111,3.934L1.091,4.032L1.01,4.434L1,4.483L1,4.533L1,7.5L1,8L1.5,8L17.5,8L18,8L18,7.5L18,6.5L18,6L17.5,6L16.78,6L16.49,5.977L16.23,5.913L15.98,5.807L15.73,5.651L12.84,3.48L12.81,3.456L12.77,3.437L12.23,3.154L12.16,3.117L12.08,3.104L11.48,3.006L11.44,3L11.4,3L2.533,3L2.483,3zM11.36,4L11.84,4.078L12.27,4.304L15.15,6.464L15.17,6.476L15.19,6.487L15.48,6.674L15.52,6.696L15.55,6.712L15.87,6.848L15.91,6.864L15.95,6.874L16.29,6.957L16.33,6.967L16.37,6.97L16.72,6.998L16.74,7L2,7L2,4.583L2.052,4.328L2.163,4.163L2.328,4.052L2.583,4zz" fill="#0EBDFE"/>
      <path d="M13.83,7.299L13.03,7.449L12.22,7.5L1.5,7.5L1.5,27.5L15.5,27.5L15.5,23.5L15.5,19.5L15.5,19.07L15.55,18.56L15.7,18.07L15.94,17.64L16.25,17.25L16.64,16.94L17.07,16.7L17.56,16.55L18.07,16.5L23.01,16.5L23.49,16.54L23.95,16.65L24.39,16.83L24.8,17.08L24.91,17.16L26.3,18.5L28.4,18.5L28.5,18.5L28.5,6.5L15.97,6.5zz" fill="#85DEFF"/>
      <path d="M15.79,6.031L13.69,6.816L12.96,6.952L12.2,7L1.5,7L1,7L1,7.5L1,27.5L1,28L1.5,28L15.5,28L15.5,27L2,27L2,8L12.22,8L12.23,8L12.25,7.999L13.06,7.948L13.09,7.946L13.12,7.941L13.92,7.79L13.96,7.782L14,7.767L16.06,7L28,7L28,18.5L28.4,18.5L29,18.5L29,6.5L29,6L28.5,6L15.97,6L15.88,6zz" fill="#0EBDFE"/>
    </g>
    <g id="overlay">
      <path d="M26.4,21.5h-8.9v-2.426c0,-0.317,0.257,-0.574,0.574,-0.574h4.937c0.221,0,0.437,0.07,0.617,0.199l1.629,1.573c0.206,0.148,0.454,0.228,0.708,0.228H26.4V21.5z" fill="#FFFFFF" stroke="#E57428" stroke-width="1" stroke-linecap="round" stroke-miterlimit="10"/>
      <path d="M31.5,31.5H17.5V21.5h5.953c0.302,0,0.602,-0.041,0.894,-0.121l1.19,-0.879H31.5V31.5z" fill="#F7DA8E" stroke="#E57428" stroke-width="1" stroke-linecap="round" stroke-miterlimit="10"/>
    </g>
  </g>
</svg>
