<?xml version="1.0" encoding="UTF-8"?>
<!DOCTYPE svg PUBLIC "-//W3C//DTD SVG 1.1//EN" "http://www.w3.org/Graphics/SVG/1.1/DTD/svg11.dtd">
<svg version="1.1" id="Layer_1" xmlns="http://www.w3.org/2000/svg" xmlns:xlink="http://www.w3.org/1999/xlink" x="0px" y="0px" width="32px" height="32px" viewBox="0 0 32 32" enable-background="new 0 0 32 32" xml:space="preserve">
  <g id="icon">
    <g transform="matrix(0.694081 0 0 0.676113 10.2822 1.33121)">
      <path d="m28.5,31.012c0,-6.7,-5.603,-13,-12.515,-13,-6.912,0,-12.515,6.3,-12.515,13" fill="#92cbee"/>
      <path d="M20.428,18.901C19.047,18.324,17.55,18,15.985,18c-1.579,0,-3.089,0.33,-4.48,0.917" fill="none" stroke="#af6e41" stroke-width="1.1" stroke-linecap="round" stroke-miterlimit="1"/>
      <path d="M12.673,18.56C7.384,20.056,3.5,25.035,3.5,31m25,0c0,-6.009,-3.942,-11.018,-9.29,-12.473" fill="#92cbee" stroke="#0964b0" stroke-width="1.1" stroke-miterlimit="1"/>
      <path d="M11.412,18.968C6.762,20.977,3.47,25.877,3.47,31.012m25.03,0c0,-5.135,-3.292,-10.035,-7.942,-12.044" fill="none" stroke="#0964b0" stroke-width="1" stroke-miterlimit="1"/>
      <polygon points="20.1,18.74 17.5,23.415 16.1,28.714 14.4,23.311 11.8,18.74 16,18.012" fill="#fcd8bb" stroke-linejoin="miter"/>
      <path d="m15.982,30.471c-0.027,0,-0.091,-0.008,-0.112,-0.087L15.503,29.016C15.444,28.794,15.349,28.344,15.239,27.823,15,26.687,14.673,25.132,14.378,24.341L14.283,24.085,9.624,26.227C9.442,26.311,9.248,26.137,9.302,25.938L11.2,19l1.594,-0.928,2.184,5.099c0.076,0.156,0.157,0.346,0.244,0.568l0.033,0.077,0.036,0.103c0.072,0.191,0.157,0.667,0.231,1.087,0.077,0.429,0.149,0.835,0.225,1.074l0.236,0.744,0.236,-0.744c0.076,-0.24,0.148,-0.645,0.225,-1.074,0.075,-0.421,0.159,-0.895,0.232,-1.087l0.073,-0.194,0.016,-0.036c0.082,-0.207,0.155,-0.376,0.222,-0.515l2.205,-5.1,1.608,0.826,1.878,7.046c0.054,0.198,-0.14,0.372,-0.322,0.289l-4.444,-2.043,-0.233,-0.107,-0.095,0.256c-0.294,0.791,-0.622,2.347,-0.861,3.484,-0.11,0.524,-0.204,0.971,-0.264,1.192l-0.366,1.368c-0.02,0.078,-0.084,0.086,-0.111,0.086zM21.271,24.582,19.8,19.2,18.098,23.129ZM10.711,24.58,13.868,23.129,12.2,19.3Z" fill="#0f65b0"/>
      <path d="m23.5,8.829c0,3.889,-3.358,9.675,-7.5,9.675,-4.142,0,-7.5,-5.787,-7.5,-9.675C8.5,4.941,11.858,1.6,16,1.6c4.142,0,7.5,3.34,7.5,7.229z" fill="#fcd8bb"/>
      <path d="m23.5,8.829c0,3.889,-3.358,9.675,-7.5,9.675,-4.142,0,-7.5,-5.787,-7.5,-9.675C8.5,4.941,11.858,1.6,16,1.6c4.142,0,7.5,3.34,7.5,7.229z" fill="none" stroke="#af6e41" stroke-width="1.1" stroke-linecap="round" stroke-miterlimit="1"/>
      <path d="M23.187,6.8C22.264,3.847,19.397,1.6,16,1.6,12.288,1.6,9.208,4.283,8.608,7.639,17.906,3.313,17.411,9.865,23.187,6.8Z" fill="#f7da8e" stroke="#e57428" stroke-width="1" stroke-linecap="round" stroke-miterlimit="1" stroke-linejoin="round"/>
    </g>
    <g transform="matrix(0.696315 0 0 0.670006 1.07058 7.44573)">
      <path d="M20.437,19.964C19.058,19.437,17.562,19.142,16,19.142c-1.577,0,-3.085,0.301,-4.474,0.836" fill="none" stroke="#af6e41" stroke-width="1.1" stroke-linecap="round" stroke-miterlimit="1"/>
      <path d="M20.437,19.964C19.058,19.437,17.562,19.142,16,19.142c-1.577,0,-3.085,0.301,-4.474,0.836,1.891,2.25,3.776,7.806,4.439,9.936,0.56,-2.047,3.159,-7.936,4.472,-9.95z" fill="#fcd8bb"/>
      <path d="M20.191,18.6C17.523,21.365,14.785,21.381,11.972,18.5,10.347,16.125,9.811,12.501,9.89,8.3c4.822,4,9.425,-1.8,12.384,0.1,0.209,4.248,-0.476,7.657,-2.083,10.2z" fill="#fcd8bb"/>
      <path d="m20.2,18.818c-0.409,0.461,-0.619,0.849,-1.604,1.385,-0.698,0.379,-1.643,0.813,-2.66,0.813,-1.017,0,-1.934,-0.433,-2.631,-0.813,-0.985,-0.536,-1.195,-0.924,-1.604,-1.385" fill="none" stroke="#af6e41" stroke-width="1.1" stroke-linecap="round" stroke-miterlimit="1"/>
      <path d="M28.5,31C28.5,26.316,25.212,21.846,20.568,20.014,18.767,21.853,16.219,28.536,16,29.865,15.71,28.536,13.264,21.853,11.432,20.014,6.788,21.846,3.5,26.316,3.5,31" fill="#dfbcd9"/>
      <path d="M28.5,31C28.5,26.316,25.212,21.846,20.568,20.014,18.767,21.853,16.219,28.536,16,29.865,15.71,28.536,13.264,21.853,11.432,20.014,6.788,21.846,3.5,26.316,3.5,31" fill="none" stroke="#a0519f" stroke-width="1.1" stroke-miterlimit="1" stroke-linejoin="round"/>
      <path d="m26.603,19.494c-1.208,-0.775,-1.63,-2,-1.859,-3.273,-0.245,-1.36,-0.32,-2.756,-0.342,-4.137C24.37,10.093,24.263,8.131,23.565,6.218,22.278,2.691,18.603,1.423,15.709,1.62,14.7,1.689,13.783,2.058,12.982,2.658,12.782,2.807,12.493,2.948,12.25,2.941,9.821,2.87,8.369,4.191,7.592,5.938,7.076,7.099,6.807,8.323,6.779,9.563c-0.032,1.433,0.064,2.87,0.137,4.303,0.075,1.485,-0.039,2.935,-0.81,4.278,-0.36,0.627,-0.69,0.994,-1.275,1.378,-0.371,0.244,-0.377,0.756,-0.007,1.003,0.928,0.617,2.525,1.062,4.821,1.341h0.603c1.036,0,1.868,-0.794,1.838,-1.753C12.072,19.66,12.027,19.321,11.949,19.22,10.133,16.869,9.518,12.588,9.518,9.707c0,-2.126,0.557,1.014,4.039,1.014,2.111,0,8.655,-3.394,8.655,-0.507,0,3.987,-0.842,7.224,-2.32,9.006,-0.082,0.099,-0.123,0.449,-0.13,0.917,-0.015,0.95,0.812,1.73,1.838,1.73h1.109c1.388,-0.191,2.712,-0.575,3.91,-1.364,0.376,-0.247,0.363,-0.766,-0.016,-1.009z" fill="#999999" stroke="#383838" stroke-width="1.1" stroke-linecap="round" stroke-miterlimit="1" stroke-linejoin="round"/>
    </g>
  </g>
</svg>
