<?xml version="1.0" encoding="UTF-8"?>
<!DOCTYPE svg PUBLIC "-//W3C//DTD SVG 1.1//EN" "http://www.w3.org/Graphics/SVG/1.1/DTD/svg11.dtd">
<svg version="1.1" id="Layer_1" xmlns="http://www.w3.org/2000/svg" xmlns:xlink="http://www.w3.org/1999/xlink" x="0px" y="0px" width="32px" height="32px" viewBox="0 0 32 32" enable-background="new 0 0 32 32" xml:space="preserve">
  <g id="main">
    <g id="icon">
      <path d="M0.5,27.5L16.03,27.5L15.79,26.76L15.57,25.65L15.5,24.5L15.55,23.58L15.68,22.69L15.91,21.83L16.21,21L16.59,20.21L17.04,19.47L17.56,18.78L18.14,18.14L18.78,17.56L19.47,17.04L20.21,16.59L21,16.21L21.83,15.91L22.69,15.68L23.58,15.55L24.5,15.5L25.65,15.57L26.76,15.79L27.82,16.14L28.82,16.61L29.5,17.04L29.5,2.5L0.5,2.5zz" fill="#FFFFFF"/>
      <path d="M22.5,5.551L22.03,5.696L21.6,5.927L21.23,6.232L20.93,6.602L20.7,7.027L20.55,7.496L20.5,8L20.55,8.504L20.7,8.973L20.93,9.398L21.23,9.768L21.6,10.07L22.03,10.3L22.5,10.45L23,10.5L23.5,10.45L23.97,10.3L24.4,10.07L24.77,9.768L25.07,9.398L25.3,8.973L25.45,8.504L25.5,8L25.45,7.496L25.3,7.027L25.07,6.602L24.77,6.232L24.4,5.927L23.97,5.696L23.5,5.551L23,5.5zz" fill="#F7DA8E"/>
      <path d="M22.95,5.003L22.45,5.053L22.4,5.058L22.35,5.073L21.88,5.219L21.83,5.234L21.79,5.257L21.36,5.488L21.32,5.511L21.28,5.541L20.91,5.846L20.88,5.877L20.85,5.914L20.54,6.284L20.51,6.321L20.49,6.364L20.26,6.788L20.23,6.832L20.22,6.879L20.07,7.348L20.06,7.396L20.05,7.446L20,7.95L20,8L20,8.05L20.05,8.554L20.06,8.604L20.07,8.652L20.22,9.121L20.23,9.168L20.26,9.212L20.49,9.636L20.51,9.679L20.54,9.716L20.85,10.09L20.88,10.12L20.91,10.15L21.28,10.46L21.32,10.49L21.36,10.51L21.79,10.74L21.83,10.77L21.88,10.78L22.35,10.93L22.4,10.94L22.45,10.95L22.95,11L23,11L23.05,11L23.55,10.95L23.6,10.94L23.65,10.93L24.12,10.78L24.17,10.77L24.21,10.74L24.64,10.51L24.68,10.49L24.72,10.46L25.09,10.15L25.12,10.12L25.15,10.09L25.46,9.716L25.49,9.679L25.51,9.636L25.74,9.212L25.77,9.168L25.78,9.121L25.93,8.652L25.94,8.604L25.95,8.554L26,8.05L26,8L26,7.95L25.95,7.446L25.94,7.396L25.93,7.348L25.78,6.879L25.77,6.832L25.74,6.788L25.51,6.364L25.49,6.321L25.46,6.284L25.15,5.914L25.12,5.877L25.09,5.846L24.72,5.541L24.68,5.511L24.64,5.488L24.21,5.257L24.17,5.234L24.12,5.219L23.65,5.073L23.6,5.058L23.55,5.053L23.05,5.003L23,4.997zM23.4,6.043L23.78,6.159L24.12,6.343L24.41,6.588L24.66,6.883L24.84,7.222L24.96,7.596L25,8L24.96,8.404L24.84,8.778L24.66,9.117L24.41,9.413L24.12,9.657L23.78,9.841L23.4,9.957L23,9.997L22.6,9.957L22.22,9.841L21.88,9.657L21.59,9.413L21.34,9.117L21.16,8.778L21.04,8.404L21,8L21.04,7.596L21.16,7.222L21.34,6.883L21.59,6.588L21.88,6.343L22.22,6.159L22.6,6.043L23,6.003zz" fill="#E57428"/>
      <path d="M6.906,13.1L6.073,13.31L5.227,13.7L4.36,14.26L3.462,15L2.526,15.92L1.541,17.02L0.5,18.3L0.5,27.4L16,27.4L15.79,26.76L15.57,25.65L15.5,24.5L15.55,23.58L15.68,22.69L15.91,21.83L16.21,21L16.59,20.21L17.04,19.47L17.56,18.78L18.14,18.14L18.78,17.56L19.47,17.04L20.21,16.59L21,16.21L21.65,15.97L21.37,15.92L20.49,15.89L19.62,16.01L18.75,16.28L17.89,16.7L17.03,17.27L16.18,18L15.33,18.9L14.21,17.58L13.15,16.43L12.15,15.45L11.2,14.63L10.3,13.99L9.423,13.51L8.573,13.2L7.737,13.07zz" fill="#ACD8B1"/>
      <path d="M7.774,12.41L7.14,12.42L7.089,12.42L7.038,12.43L6.389,12.54L6.341,12.55L6.295,12.57L5.629,12.8L5.587,12.82L5.548,12.84L4.863,13.21L4.829,13.22L4.798,13.25L4.091,13.75L4.065,13.77L4.041,13.79L3.311,14.43L3.291,14.45L3.272,14.47L2.516,15.27L2.501,15.28L2.487,15.3L1.702,16.26L1.69,16.27L1.68,16.29L0.8635,17.41L0.8547,17.43L0.8467,17.44L-0,18.74L0,18.75L1.003,19.4L1.845,18.11L2.642,17L3.402,16.08L4.125,15.31L4.811,14.71L5.462,14.25L6.073,13.92L6.651,13.71L7.2,13.62L7.735,13.61L8.263,13.69L8.794,13.86L9.335,14.11L9.886,14.45L10.44,14.85L11.01,15.32L12.18,16.44L13.39,17.72L15.98,20.51L15.99,20.52L16,20.53L16.3,20.82L16.59,20.21L16.89,19.72L16.85,19.68L16.11,18.89L16.8,18.22L17.73,17.49L18.61,16.97L19.45,16.63L20.25,16.46L20.49,16.46L21,16.21L21.83,15.91L22.69,15.68L22.92,15.65L22.11,15.39L22.06,15.38L22.01,15.37L21.15,15.25L21.1,15.24L21.04,15.24L20.16,15.26L20.11,15.27L20.05,15.28L19.15,15.47L19.1,15.48L19.05,15.5L18.12,15.87L18.08,15.89L18.04,15.91L17.08,16.48L17.05,16.5L17.02,16.52L16.04,17.29L16.01,17.31L15.99,17.34L15.3,18.01L14.27,16.9L14.26,16.9L14.26,16.9L13.04,15.6L13.03,15.59L13.02,15.58L11.82,14.44L11.81,14.42L11.79,14.41L11.19,13.91L11.18,13.9L11.16,13.89L10.57,13.46L10.55,13.44L10.53,13.43L9.926,13.07L9.899,13.05L9.87,13.04L9.266,12.76L9.231,12.74L9.194,12.73L8.582,12.54L8.539,12.52L8.495,12.52L7.873,12.42L7.824,12.41zz" fill="#0BA04A"/>
      <path d="M0,28L16.22,28L16.14,27.82L15.87,27L1,27L1,3L29,3L29,16.72L29.74,17.19L30,17.4L30,2L0,2zz" fill="#383838"/>
    </g>
    <g id="overlay">
      <circle cx="24.5" cy="24.5" r="7" fill="#FFFFFF" stroke="#EE3D3B" stroke-width="1" stroke-miterlimit="10"/>
      <path d="M20,24.5h9" fill="none" stroke="#EE3D3B" stroke-width="1" stroke-miterlimit="10"/>
    </g>
  </g>
</svg>
