<?xml version="1.0" encoding="UTF-8"?>
<!DOCTYPE svg PUBLIC "-//W3C//DTD SVG 1.1//EN" "http://www.w3.org/Graphics/SVG/1.1/DTD/svg11.dtd">
<svg version="1.1" id="Layer_1" xmlns="http://www.w3.org/2000/svg" xmlns:xlink="http://www.w3.org/1999/xlink" x="0px" y="0px" width="32px" height="32px" viewBox="0 0 32 32" enable-background="new 0 0 32 32" xml:space="preserve">
  <g id="main">
    <g id="icon">
      <path d="M0.5,29.5L17.04,29.5L16.61,28.82L16.14,27.82L15.79,26.76L15.57,25.65L15.5,24.5L15.55,23.58L15.68,22.69L15.91,21.83L16.21,21L16.59,20.21L17.04,19.47L17.56,18.78L18.14,18.14L18.78,17.56L19.47,17.04L20.21,16.59L21,16.21L21.83,15.91L22.69,15.68L23.58,15.55L24.5,15.5L25.65,15.57L26.76,15.79L27.82,16.14L28.82,16.61L29.74,17.19L30.5,17.81L30.5,7.5L0.5,7.5zz" fill="#FFFFFF"/>
      <path d="M0,7.5L0,29.5L0,30L0.5,30L17.4,30L17.19,29.74L16.72,29L1,29L1,8L30,8L30,17.4L30.59,17.88L31,18.31L31,7.5L31,7L30.5,7L0.5,7L0,7zz" fill="#383838"/>
      <path d="M0.5,7.5L30.5,7.5L30.5,2.5L0.5,2.5zz" fill="#C8C6C4"/>
      <path d="M0,2.5L0,7.5L0,8L0.5,8L30.5,8L31,8L31,7.5L31,2.5L31,2L30.5,2L0.5,2L0,2zM30,3L30,7L1,7L1,3zz" fill="#383838"/>
      <path d="M7,5L8,5L8,0L7,0zM25,5L26,5L26,0L25,0zz" fill="#383838"/>
      <path d="M9,10.5L9,14L3.5,14L3,14L3,14.5L3,18L3,18.5L3,19L3,22L3,22.5L3,23L3,26.5L3,27L3.5,27L9,27L9.5,27L10,27L15,27L15.5,27L15.87,27L15.79,26.76L15.57,25.65L15.5,24.5L15.55,23.58L15.68,22.69L15.91,21.83L16,21.57L16,19L17.39,19L17.56,18.78L18.14,18.14L18.29,18L16,18L16,15L21,15L21,16.21L21.83,15.91L22,15.86L22,15L27,15L27,15.87L27.82,16.14L28,16.22L28,15L28,14.5L28,14L28,10.5L28,10L27.5,10L22,10L21.5,10L21,10L16,10L15.5,10L15,10L9.5,10L9,10zM15,11L15,14L10,14L10,11zM21,11L21,14L16,14L16,11zM27,11L27,14L22,14L22,11zM9,15L9,18L4,18L4,15zM15,15L15,18L10,18L10,15zM9,19L9,22L4,22L4,19zM15,19L15,22L10,22L10,19zM9,23L9,26L4,26L4,23zM15,23L15,26L10,26L10,23zz" fill="#787979" opacity="0.6"/>
      <path d="M9.5,18.5L3.5,18.5L3.5,22.5L9.5,22.5L15.5,22.5L15.5,18.5L17.81,18.5L18.14,18.14L18.78,17.56L19.47,17.04L20.21,16.59L21,16.21L21.83,15.91L22.69,15.68L23.58,15.55L24.5,15.5L25.65,15.57L26.76,15.79L27.5,16.03L27.5,14.5L21.5,14.5L15.5,14.5L9.5,14.5zz" fill="#92CBEE"/>
      <path d="M9,14.5L9,18L3.5,18L3,18L3,18.5L3,22.5L3,23L3.5,23L9,23L9.5,23L10,23L15.5,23L15.64,23L15.68,22.69L15.91,21.83L16,21.57L16,19L17.39,19L17.56,18.78L18.14,18.14L18.29,18L16,18L16,15L21,15L21,16.21L21.83,15.91L22,15.86L22,15L27,15L27,15.87L27.82,16.14L28,16.22L28,14.5L28,14L27.5,14L22,14L21.5,14L21,14L16,14L15.5,14L15,14L9.5,14L9,14zM15,15L15,18L10,18L10,15zM9,19L9,22L4,22L4,19zM15,19L15,22L10,22L10,19zz" fill="#0964B0"/>
    </g>
    <g id="overlay">
      <circle cx="24.5" cy="24.5" r="7" fill="#FFFFFF" stroke="#17AB4F" stroke-width="1" stroke-miterlimit="10"/>
      <path d="M20.25,24.75l3,3L29.2,21.8" fill="none" stroke="#17AB4F" stroke-width="1.1" stroke-miterlimit="10"/>
    </g>
  </g>
</svg>
