<?xml version="1.0" encoding="UTF-8"?>
<!DOCTYPE svg PUBLIC "-//W3C//DTD SVG 1.1//EN" "http://www.w3.org/Graphics/SVG/1.1/DTD/svg11.dtd">
<svg version="1.1" id="Layer_1" xmlns="http://www.w3.org/2000/svg" xmlns:xlink="http://www.w3.org/1999/xlink" x="0px" y="0px" width="32px" height="32px" viewBox="0 0 32 32" enable-background="new 0 0 32 32" xml:space="preserve">
  <g id="icon">
    <path d="M18.745,12.088c-0.73,-0.728,-1.626,-1.19,-2.568,-1.39l-0.38,0.377c-0.213,0.213,-0.383,0.454,-0.51,0.711c0.951,0.046,1.887,0.43,2.611,1.151l1.227,1.223c1.532,1.532,1.532,4.024,0,5.556l-7.938,7.938c-1.532,1.532,-4.024,1.532,-5.556,0l-1.277,-1.277c-0.738,-0.738,-1.145,-1.725,-1.145,-2.778s1.407,-3.04,2.144,-3.776l3.803,-3.759c-0.03,-0.252,-0.047,-0.507,-0.047,-0.764c0,-0.32,0.024,-0.637,0.07,-0.948c-0.01,0.009,-0.02,0.018,-0.029,0.028l-5.644,5.594c-0.965,0.965,-1.497,2.253,-1.497,3.627s0.532,2.661,1.497,3.626l1.277,1.277C5.747,29.468,7.035,30,8.408,30s2.661,-0.532,3.627,-1.497l7.938,-7.938c0.965,-0.965,1.497,-2.253,1.497,-3.627s-0.532,-2.661,-1.497,-3.627L18.745,12.088z" fill="#228BCB"/>
    <path d="M13.232,19.91c0.73,0.728,1.626,1.19,2.568,1.39l0.38,-0.377c0.213,-0.213,0.383,-0.454,0.51,-0.711c-0.951,-0.046,-1.887,-0.43,-2.611,-1.151l-1.227,-1.223c-1.532,-1.532,-1.532,-4.024,0,-5.556l7.938,-7.938c1.532,-1.532,4.024,-1.532,5.556,0l1.277,1.277c0.738,0.738,1.145,1.725,1.145,2.778s-0.407,2.04,-1.144,2.776l-4.803,4.759c0.03,0.252,0.047,0.507,0.047,0.764c0,0.32,-0.024,0.637,-0.07,0.948c0.01,-0.009,0.02,-0.018,0.029,-0.028l5.644,-5.594c0.965,-0.965,1.497,-2.253,1.497,-3.627s-0.532,-2.661,-1.497,-3.626l-1.277,-1.277c-0.965,-0.965,-2.253,-1.497,-3.627,-1.497s-2.661,0.532,-3.627,1.497l-7.938,7.938c-0.965,0.965,-1.497,2.253,-1.497,3.627s0.532,2.661,1.497,3.627L13.232,19.91z" fill="#228BCB"/>
  </g>
</svg>
