<?xml version="1.0" encoding="UTF-8"?><svg id="Layer_1" xmlns="http://www.w3.org/2000/svg" viewBox="0 0 217.62 185"><defs><style>.cls-1{fill:none;}.cls-1,.cls-2,.cls-3{stroke-width:0px;}.cls-2{fill:#289eff;}.cls-3{fill:#00ab84;}</style></defs><path class="cls-3" d="m30.02,96.61c0,1.47-.32,2.76-.96,3.88-.64,1.12-1.58,2.04-2.83,2.79-1.25.74-2.8,1.3-4.64,1.68-1.84.38-3.97.57-6.36.57s-4.68-.26-6.58-.77c-1.9-.52-3.49-1.22-4.77-2.12-1.28-.9-2.25-1.95-2.9-3.16-.65-1.21-.98-2.51-.98-3.89h6.64c.01.58.15,1.18.41,1.79.26.61.71,1.17,1.35,1.67s1.52.92,2.63,1.24c1.11.32,2.53.48,4.26.48,1.39,0,2.58-.1,3.56-.3s1.78-.48,2.4-.83c.62-.35,1.07-.77,1.34-1.25.28-.48.42-.99.42-1.55,0-1.07-.45-1.88-1.34-2.42-.9-.54-2.22-.96-3.98-1.26l-7.89-1.41c-3.08-.55-5.34-1.5-6.77-2.84-1.43-1.34-2.15-3.13-2.15-5.36,0-.71.1-1.42.3-2.12.2-.7.52-1.37.97-2,.44-.63,1.03-1.22,1.75-1.76.72-.54,1.6-1.01,2.64-1.39,1.04-.39,2.25-.69,3.63-.92,1.38-.23,2.96-.34,4.74-.34,2.51,0,4.68.24,6.49.73,1.81.48,3.31,1.15,4.5,2,1.19.85,2.08,1.86,2.68,3.03.6,1.17.95,2.43,1.05,3.8h-6.21c-.1-.67-.31-1.3-.62-1.89-.31-.59-.78-1.09-1.42-1.52-.64-.43-1.48-.76-2.52-1.01-1.04-.25-2.34-.37-3.9-.37-1.39,0-2.54.12-3.45.35-.91.23-1.63.53-2.16.9-.53.37-.9.77-1.1,1.21-.21.44-.31.86-.31,1.28,0,.5.09.95.28,1.33.19.39.48.73.89,1.02.41.29.93.54,1.57.73.64.2,1.4.37,2.29.51l7.22,1.22c1.68.3,3.13.67,4.36,1.12,1.23.45,2.25,1.01,3.07,1.67.81.66,1.42,1.44,1.82,2.34.4.9.6,1.94.6,3.12Z"/><path class="cls-3" d="m66.57,75.64v16.85c0,1.73-.28,3.38-.85,4.95-.57,1.57-1.49,2.96-2.77,4.16-1.28,1.2-2.94,2.15-5,2.86-2.06.71-4.58,1.06-7.55,1.06-2.04,0-3.85-.16-5.45-.48-1.59-.32-2.99-.77-4.18-1.35s-2.21-1.27-3.04-2.08c-.83-.81-1.5-1.69-2.01-2.66-.51-.97-.88-2-1.11-3.09s-.35-2.21-.35-3.36v-16.87h6.96v16.87c0,1.14.17,2.19.51,3.16.34.97.88,1.82,1.62,2.53.74.72,1.69,1.28,2.85,1.69,1.17.41,2.58.62,4.23.62s3.14-.21,4.3-.63c1.17-.42,2.11-.99,2.83-1.72.72-.73,1.24-1.58,1.57-2.56s.48-2.02.48-3.13v-16.83h6.95Z"/><path class="cls-3" d="m100.68,96.61c0,1.47-.32,2.76-.96,3.88-.64,1.12-1.58,2.04-2.83,2.79-1.25.74-2.8,1.3-4.64,1.68-1.84.38-3.97.57-6.36.57s-4.68-.26-6.58-.77c-1.9-.52-3.49-1.22-4.77-2.12-1.28-.9-2.25-1.95-2.9-3.16-.65-1.21-.98-2.51-.98-3.89h6.64c.01.58.15,1.18.41,1.79.26.61.71,1.17,1.35,1.67s1.52.92,2.63,1.24c1.11.32,2.53.48,4.26.48,1.39,0,2.58-.1,3.56-.3s1.78-.48,2.4-.83c.62-.35,1.07-.77,1.34-1.25.28-.48.42-.99.42-1.55,0-1.07-.45-1.88-1.34-2.42-.9-.54-2.22-.96-3.98-1.26l-7.89-1.41c-3.08-.55-5.34-1.5-6.77-2.84-1.43-1.34-2.15-3.13-2.15-5.36,0-.71.1-1.42.3-2.12.2-.7.52-1.37.97-2,.44-.63,1.03-1.22,1.75-1.76.72-.54,1.6-1.01,2.64-1.39,1.04-.39,2.25-.69,3.63-.92,1.38-.23,2.96-.34,4.74-.34,2.51,0,4.68.24,6.49.73,1.81.48,3.31,1.15,4.5,2,1.19.85,2.08,1.86,2.68,3.03.6,1.17.95,2.43,1.05,3.8h-6.21c-.1-.67-.31-1.3-.62-1.89-.31-.59-.78-1.09-1.42-1.52-.64-.43-1.48-.76-2.52-1.01-1.04-.25-2.34-.37-3.9-.37-1.39,0-2.54.12-3.45.35-.91.23-1.63.53-2.16.9-.53.37-.9.77-1.1,1.21-.21.44-.31.86-.31,1.28,0,.5.09.95.28,1.33.19.39.48.73.89,1.02.41.29.93.54,1.57.73.64.2,1.4.37,2.29.51l7.22,1.22c1.68.3,3.13.67,4.36,1.12,1.23.45,2.25,1.01,3.07,1.67.81.66,1.42,1.44,1.82,2.34.4.9.6,1.94.6,3.12Z"/><path class="cls-3" d="m121.12,80.63v24.28h-6.96v-24.28h-12.17v-4.99h31.28v4.99h-12.15Z"/><path class="cls-3" d="m137.24,104.91v-29.27h27.1v4.99h-20.22v6.98h18.22v4.97h-18.22v7.35h20.33v4.97h-27.22Z"/><path class="cls-3" d="m195.55,104.91l-18.38-21.07h-.17l.21,1.86.1,19.21h-6.63v-29.27h6.89l18.55,21.45h.15l-.17-1.66-.1-19.79h6.64v29.27h-7.08Z"/><path class="cls-3" d="m210.66,104.91v-29.27h6.96v29.27h-6.96Z"/><path class="cls-3" d="m.44,116.79l.99-1.18c.54.47,1.25.79,1.88.79.72,0,1.07-.28,1.07-.73,0-.48-.43-.63-1.1-.91l-.99-.42c-.79-.32-1.54-.97-1.54-2.07,0-1.26,1.13-2.27,2.72-2.27.88,0,1.8.35,2.46,1l-.87,1.08c-.5-.38-.98-.6-1.59-.6s-.98.25-.98.68c0,.47.5.64,1.17.9l.97.39c.93.38,1.52,1,1.52,2.07,0,1.26-1.06,2.36-2.88,2.36-1,0-2.05-.37-2.83-1.1Z"/><path class="cls-3" d="m11.63,114.23v-4.08h1.73v4.26c0,1.49.47,2,1.33,2s1.35-.52,1.35-2v-4.26h1.67v4.08c0,2.55-1.04,3.67-3.02,3.67s-3.06-1.11-3.06-3.67Z"/><path class="cls-3" d="m23.09,116.79l.99-1.18c.54.47,1.25.79,1.88.79.72,0,1.07-.28,1.07-.73,0-.48-.43-.63-1.1-.91l-.99-.42c-.79-.32-1.54-.97-1.54-2.07,0-1.26,1.13-2.27,2.72-2.27.88,0,1.8.35,2.46,1l-.87,1.08c-.5-.38-.98-.6-1.59-.6s-.98.25-.98.68c0,.47.5.64,1.17.9l.97.39c.93.38,1.52,1,1.52,2.07,0,1.26-1.06,2.36-2.88,2.36-1,0-2.05-.37-2.83-1.1Z"/><path class="cls-3" d="m35.59,111.59h-2.1v-1.44h5.94v1.44h-2.1v6.17h-1.73v-6.17Z"/><path class="cls-3" d="m45.79,110.15h2.07l2.4,7.61h-1.83l-1-3.85c-.21-.76-.42-1.66-.62-2.45h-.05c-.18.8-.39,1.69-.6,2.45l-1,3.85h-1.77l2.4-7.61Zm-.82,4.46h3.68v1.34h-3.68v-1.34Z"/><path class="cls-3" d="m55.22,110.15h1.73v7.61h-1.73v-7.61Z"/><path class="cls-3" d="m62.97,110.15h1.77l2,3.78.76,1.67h.05c-.08-.81-.22-1.87-.22-2.77v-2.69h1.65v7.61h-1.77l-2-3.79-.76-1.66h-.05c.08.84.22,1.86.22,2.75v2.7h-1.65v-7.61Z"/><path class="cls-3" d="m76.42,110.15h2.07l2.4,7.61h-1.83l-1-3.85c-.21-.76-.42-1.66-.62-2.45h-.05c-.18.8-.39,1.69-.6,2.45l-1,3.85h-1.77l2.4-7.61Zm-.82,4.46h3.68v1.34h-3.68v-1.34Z"/><path class="cls-3" d="m85.85,110.15h2.62c1.59,0,2.82.43,2.82,1.89,0,.68-.38,1.41-1.01,1.64v.05c.78.2,1.38.77,1.38,1.79,0,1.55-1.32,2.24-2.98,2.24h-2.84v-7.61Zm2.54,3.05c.84,0,1.21-.35,1.21-.91,0-.59-.39-.81-1.2-.81h-.82v1.72h.81Zm.16,3.23c.94,0,1.43-.33,1.43-1.03s-.48-.94-1.43-.94h-.97v1.96h.97Z"/><path class="cls-3" d="m97.17,110.15h1.73v6.17h3.02v1.44h-4.75v-7.61Z"/><path class="cls-3" d="m107.47,110.15h4.79v1.44h-3.06v1.53h2.61v1.44h-2.61v1.75h3.18v1.44h-4.91v-7.61Z"/><path class="cls-2" d="m124.19,116.79l.99-1.18c.54.47,1.25.79,1.88.79.72,0,1.07-.28,1.07-.73,0-.48-.43-.63-1.1-.91l-.99-.42c-.79-.32-1.54-.97-1.54-2.07,0-1.26,1.13-2.27,2.72-2.27.88,0,1.8.35,2.46,1l-.87,1.08c-.5-.38-.98-.6-1.59-.6s-.98.25-.98.68c0,.47.5.64,1.17.9l.97.39c.93.38,1.52,1,1.52,2.07,0,1.26-1.06,2.36-2.88,2.36-1,0-2.05-.37-2.83-1.1Z"/><path class="cls-2" d="m135.07,113.92c0-2.49,1.41-3.91,3.47-3.91s3.47,1.43,3.47,3.91-1.41,3.98-3.47,3.98-3.47-1.49-3.47-3.98Zm5.17,0c0-1.53-.66-2.43-1.7-2.43s-1.7.9-1.7,2.43.66,2.49,1.7,2.49,1.7-.97,1.7-2.49Z"/><path class="cls-2" d="m147.68,110.15h1.73v6.17h3.02v1.44h-4.75v-7.61Z"/><path class="cls-2" d="m157.5,114.23v-4.08h1.73v4.26c0,1.49.47,2,1.33,2s1.35-.52,1.35-2v-4.26h1.67v4.08c0,2.55-1.04,3.67-3.02,3.67s-3.06-1.11-3.06-3.67Z"/><path class="cls-2" d="m171.06,111.59h-2.11v-1.44h5.94v1.44h-2.11v6.17h-1.73v-6.17Z"/><path class="cls-2" d="m180.31,110.15h1.73v7.61h-1.73v-7.61Z"/><path class="cls-2" d="m187.71,113.92c0-2.49,1.41-3.91,3.47-3.91s3.47,1.43,3.47,3.91-1.41,3.98-3.47,3.98-3.47-1.49-3.47-3.98Zm5.17,0c0-1.53-.66-2.43-1.7-2.43s-1.7.9-1.7,2.43.66,2.49,1.7,2.49,1.7-.97,1.7-2.49Z"/><path class="cls-2" d="m200.31,110.15h1.77l2,3.78.76,1.67h.05c-.08-.81-.22-1.87-.22-2.77v-2.69h1.65v7.61h-1.77l-2-3.79-.76-1.66h-.05c.08.84.22,1.86.22,2.75v2.7h-1.65v-7.61Z"/><path class="cls-2" d="m211.84,116.79l.99-1.18c.54.47,1.25.79,1.88.79.72,0,1.07-.28,1.07-.73,0-.48-.43-.63-1.1-.91l-.99-.42c-.79-.32-1.54-.97-1.54-2.07,0-1.26,1.13-2.27,2.72-2.27.88,0,1.8.35,2.46,1l-.87,1.08c-.5-.38-.98-.6-1.59-.6s-.98.25-.98.68c0,.47.5.64,1.17.9l.97.39c.93.38,1.52,1,1.52,2.07,0,1.26-1.06,2.36-2.88,2.36-1,0-2.05-.37-2.83-1.1Z"/><path class="cls-1" d="m144.27,13.45c-10.58-4.47-21.81-6.74-33.4-6.74s-22.82,2.27-33.39,6.74c-10.22,4.32-19.39,10.51-27.27,18.39-7.63,7.63-13.65,16.48-17.95,26.3h157.23c-4.3-9.82-10.32-18.67-17.95-26.3-7.88-7.88-17.05-14.06-27.27-18.39Z"/><path class="cls-1" d="m77.48,171.55c10.58,4.47,21.81,6.74,33.39,6.74s22.82-2.27,33.4-6.74c10.21-4.32,19.39-10.5,27.27-18.39,7.48-7.48,13.41-16.14,17.69-25.73H32.52c4.28,9.59,10.21,18.25,17.69,25.73,7.88,7.88,17.05,14.06,27.27,18.39Z"/><path class="cls-3" d="m32.26,58.13c4.3-9.82,10.32-18.67,17.95-26.3,7.88-7.88,17.06-14.06,27.27-18.39,10.58-4.47,21.81-6.74,33.39-6.74s22.82,2.27,33.4,6.74c10.22,4.32,19.39,10.51,27.27,18.39,7.63,7.63,13.65,16.48,17.95,26.3h7.28c-.22-.55-.44-1.09-.67-1.64-4.66-11.02-11.33-20.91-19.83-29.4-8.49-8.49-18.38-15.16-29.4-19.82-11.41-4.82-23.52-7.27-36.01-7.27s-24.6,2.45-36,7.27c-11.02,4.66-20.91,11.33-29.4,19.82h0c-8.5,8.5-15.17,18.39-19.82,29.4-.23.54-.43,1.09-.65,1.64h7.26Z"/><path class="cls-3" d="m189.23,127.44c-4.28,9.59-10.21,18.25-17.69,25.73-7.88,7.88-17.06,14.07-27.27,18.39-10.58,4.47-21.81,6.74-33.4,6.74s-22.82-2.27-33.39-6.74c-10.22-4.32-19.4-10.51-27.27-18.39-7.48-7.48-13.41-16.14-17.69-25.73h-7.3c.14.36.27.71.42,1.07,4.66,11.02,11.33,20.91,19.82,29.4,8.49,8.49,18.38,15.16,29.4,19.82,11.41,4.83,23.52,7.27,36,7.27s24.6-2.45,36.01-7.27c11.01-4.66,20.9-11.33,29.4-19.82,8.5-8.5,15.17-18.39,19.83-29.4h0c.15-.35.28-.71.42-1.07h-7.3Z"/></svg>