<?xml version="1.0" encoding="UTF-8"?>
<!DOCTYPE svg PUBLIC "-//W3C//DTD SVG 1.1//EN" "http://www.w3.org/Graphics/SVG/1.1/DTD/svg11.dtd">
<svg version="1.1" id="Layer_1" xmlns="http://www.w3.org/2000/svg" xmlns:xlink="http://www.w3.org/1999/xlink" x="0px" y="0px" width="32px" height="32px" viewBox="0 0 32 32" enable-background="new 0 0 32 32" xml:space="preserve">
  <g id="main">
    <g id="icon">
      <path d="M0.5,26.5L15.74,26.5L15.58,25.65L15.5,24.5L15.55,23.58L15.68,22.69L15.91,21.83L16.21,21L16.59,20.21L17.04,19.47L17.56,18.78L18.14,18.14L18.78,17.56L19.47,17.04L20.21,16.59L21,16.21L21.83,15.91L22.69,15.68L23.58,15.55L24.5,15.5L25.65,15.58L26.77,15.79L27.82,16.13L28.82,16.61L29.5,17.03L29.5,4.5L0.5,4.5z" fill="#F7DA8E"/>
      <path d="M0,4.5L0,26.5L0,27L0.5,27L15.87,27L15.79,26.77L15.64,26L1,26L1,5L29,5L29,16.72L29.74,17.19L30,17.4L30,4.5L30,4L29.5,4L0.5,4L0,4z" fill="#E57428"/>
      <path d="M15,16.11L29.5,5.1L0.5,5.1z" fill="#F7DA8E"/>
      <path d="M0.1031,4.8L0,5.1L0,5.209L0.1969,5.5L14.7,16.51L15,16.74L15.3,16.51L29.8,5.5L30.03,5.172L29.9,4.8L29.57,4.575L29.2,4.703L15,15.48L0.8031,4.703L0.4281,4.575z" fill="#E57428"/>
    </g>
    <g id="overlay">
      <path d="M24.5,17.5c-3.866,0,-7,3.134,-7,7c0,3.866,3.134,7,7,7s7,-3.134,7,-7C31.5,20.634,28.366,17.5,24.5,17.5zM28.3,27v1h-7.6v-1h3.117l-3.165,-3.123l0.702,-0.712l2.645,2.61V19.7h1v6.075l2.645,-2.61l0.702,0.712L25.183,27H28.3z" fill="#B2DBB4"/>
      <path d="M24.5,17.5c-3.866,0,-7,3.134,-7,7c0,3.866,3.134,7,7,7s7,-3.134,7,-7C31.5,20.634,28.366,17.5,24.5,17.5zM28.3,27v1h-7.6v-1h3.117l-3.165,-3.123l0.702,-0.712l2.645,2.61V19.7h1v6.075l2.645,-2.61l0.702,0.712L25.183,27H28.3z" fill="#009949" opacity="0.2"/>
      <path d="M24.5,32c-4.135,0,-7.5,-3.365,-7.5,-7.5s3.365,-7.5,7.5,-7.5s7.5,3.365,7.5,7.5S28.635,32,24.5,32zM24.5,18c-3.584,0,-6.5,2.916,-6.5,6.5s2.916,6.5,6.5,6.5s6.5,-2.916,6.5,-6.5S28.084,18,24.5,18z" fill="#009949"/>
      <polygon points="28.3,28 20.7,28 20.7,27 23.817,27 20.652,23.877 21.355,23.165 24,25.775 24,19.7 25,19.7 25,25.775 27.645,23.165 28.348,23.877 25.183,27 28.3,27" fill="#FFFFFF" stroke-linejoin="miter"/>
    </g>
  </g>
</svg>
