<?xml version="1.0" encoding="UTF-8"?>
<!DOCTYPE svg PUBLIC "-//W3C//DTD SVG 1.1//EN" "http://www.w3.org/Graphics/SVG/1.1/DTD/svg11.dtd">
<svg version="1.1" id="Layer_1" xmlns="http://www.w3.org/2000/svg" xmlns:xlink="http://www.w3.org/1999/xlink" x="0px" y="0px" width="32px" height="32px" viewBox="0 0 32 32" enable-background="new 0 0 32 32" xml:space="preserve">
  <g id="icon">
    <path d="M30.5,1.5v17h-8.5v-1.438c0,-1.563,-1.076,-2.938,-3.031,-3.872c-1.605,-0.767,-3.715,-1.19,-5.942,-1.19c-2.33,0,-4.515,0.456,-6.152,1.285c-1.853,0.938,-2.874,2.279,-2.874,3.777L4.001,18.5H2.5V1.5H30.5z" fill="#FFFFFF"/>
    <path d="M30.5,1.5v17h-8.5v-1.438c0,-1.563,-1.076,-2.938,-3.031,-3.872c-1.605,-0.767,-3.715,-1.19,-5.942,-1.19c-2.33,0,-4.515,0.456,-6.152,1.285c-1.853,0.938,-2.874,2.279,-2.874,3.777L4.001,18.5H2.5V1.5H30.5z" fill="#C8C6C4" opacity="0.2"/>
    <path d="M31,1v18h-9v-1h8V2H3v16h1.001l-0.001,1H2V1H31z" fill="#17AB4F"/>
    <path d="M3.167,5.986L2.5,5.965V1.5h4.667l0,0.641C7.167,4.265,5.376,5.986,3.167,5.986zM13.028,12c2.226,0,4.336,0.423,5.942,1.19c0.336,0.16,0.645,0.334,0.927,0.519c0.507,-1.058,0.803,-2.334,0.803,-3.709c0,-3.651,-2.089,-6.611,-4.667,-6.611c-2.577,0,-4.667,2.96,-4.667,6.611c0,0.719,0.082,1.411,0.232,2.059C12.067,12.021,12.544,12,13.028,12zM4.002,17.062c0,-0.93,0.393,-1.799,1.135,-2.549c-0.582,-0.317,-1.253,-0.499,-1.97,-0.499L2.5,14.035V18.5h1.501L4.002,17.062zM8.1,10.944c0.515,0,0.933,-0.423,0.933,-0.944c0,-0.522,-0.418,-0.944,-0.933,-0.944c-0.515,0,-0.933,0.423,-0.933,0.944C7.167,10.522,7.585,10.944,8.1,10.944zM25.833,1.5l0,0.641c0,2.124,1.791,3.845,4,3.845l0.667,-0.021V1.5H25.833zM23.967,9.056c-0.515,0,-0.933,0.423,-0.933,0.944c0,0.522,0.418,0.944,0.933,0.944S24.9,10.522,24.9,10C24.9,9.478,24.482,9.056,23.967,9.056zM25.833,17.859l0.022,0.641H30.5v-4.486l-0.667,0C27.624,14.014,25.833,15.735,25.833,17.859z" fill="#ACD8B1"/>
    <path d="M6.667,10c0,0.796,0.643,1.444,1.433,1.444s1.433,-0.648,1.433,-1.444S8.89,8.556,8.1,8.556S6.667,9.204,6.667,10zM8.1,9.556c0.239,0,0.433,0.199,0.433,0.444s-0.194,0.444,-0.433,0.444s-0.433,-0.199,-0.433,-0.444S7.861,9.556,8.1,9.556zM11.099,12.108c-0.151,-0.666,-0.232,-1.375,-0.232,-2.108c0,-3.921,2.318,-7.111,5.167,-7.111c2.849,0,5.167,3.19,5.167,7.111c0,1.481,-0.331,2.858,-0.896,3.998c-0.252,-0.194,-0.53,-0.377,-0.834,-0.548c0.46,-0.983,0.73,-2.171,0.73,-3.45c0,-3.37,-1.869,-6.111,-4.167,-6.111S11.867,6.63,11.867,10c0,0.71,0.084,1.391,0.236,2.025C11.763,12.043,11.428,12.071,11.099,12.108zM25.333,1l0,1.141c0,2.396,2.019,4.345,4.5,4.345h0.008L31,6.449V1H25.333zM30,5.481l-0.175,0.006c-1.926,-0.004,-3.492,-1.503,-3.492,-3.345V2H30V5.481zM23.967,8.556c-0.79,0,-1.433,0.648,-1.433,1.444s0.643,1.444,1.433,1.444S25.4,10.796,25.4,10S24.757,8.556,23.967,8.556zM23.967,10.444c-0.239,0,-0.433,-0.199,-0.433,-0.444s0.194,-0.444,0.433,-0.444c0.239,0,0.433,0.199,0.433,0.444S24.206,10.444,23.967,10.444zM25.333,17.859l0.039,1.141H31v-5.486l-1.167,0C27.352,13.514,25.333,15.463,25.333,17.859zM30,18h-3.662l-0.005,-0.149c0.005,-1.841,1.573,-3.337,3.5,-3.337H30V18zM4.001,19H2v-5.449l1.167,-0.037c0.863,0,1.67,0.236,2.356,0.645c-0.28,0.233,-0.523,0.481,-0.728,0.74c-0.485,-0.244,-1.035,-0.384,-1.62,-0.385L3,14.519V18h1.001L4.001,19zM3.167,6.486c2.481,0,4.5,-1.949,4.5,-4.345V1H2v5.449l1.151,0.037L3.167,6.486zM3,2h3.667v0.141c0,1.842,-1.566,3.341,-3.492,3.345L3,5.481V2z" fill="#0BA04A"/>
    <path d="M16.5,23.71c0,0,0,3.204,0,3.587c0,1.482,-3.198,3.203,-7.397,3.203C4.904,30.5,1.5,28.779,1.5,27.315c0,-0.328,0,-3.605,0,-3.605M16.5,23.692c0,1.941,-3.16,3.24,-7.372,3.24c-4.212,0,-7.626,-1.299,-7.626,-3.24c0,-1.147,1.455,-2.422,3.798,-2.935M20.5,17.081c0,0,0,3.247,0,3.635c0,1.502,-3.354,3.246,-7.497,3.246c-4.144,0,-7.503,-1.744,-7.503,-3.228c0,-0.332,0,-3.653,0,-3.653M13.028,13.5c4.156,0,7.472,1.595,7.472,3.562s-3.316,3.284,-7.472,3.284c-4.156,0,-7.526,-1.316,-7.526,-3.284S8.871,13.5,13.028,13.5z" fill="#F7DA8E" stroke="#E57428" stroke-width="1" stroke-linecap="round" stroke-miterlimit="10"/>
  </g>
</svg>
