<?xml version="1.0" encoding="UTF-8"?>
<!DOCTYPE svg PUBLIC "-//W3C//DTD SVG 1.1//EN" "http://www.w3.org/Graphics/SVG/1.1/DTD/svg11.dtd">
<svg version="1.1" id="Layer_1" xmlns="http://www.w3.org/2000/svg" xmlns:xlink="http://www.w3.org/1999/xlink" x="0px" y="0px" width="32px" height="32px" viewBox="0 0 32 32" enable-background="new 0 0 32 32" xml:space="preserve">
  <g id="icon">
    <path d="M1.5,28.5V2.5h13v26H1.5z" fill="#F7DA8E" stroke="#E57428" stroke-width="1" stroke-linecap="round" stroke-miterlimit="10"/>
    <path d="M17,15.5h11M21.317,19.65M17.083,15.417M21.317,11.183M17.083,15.417M21.317,11.183l-4.233,4.233l4.233,4.233" fill="none" stroke="#228BCB" stroke-width="1.2" stroke-miterlimit="10"/>
    <path d="M16,29v-1h3v1H16zM16,3V2h3v1H16zM20,29v-1h3v1H20zM20,3V2h3v1H20zM24,29v-1h3v1H24zM24,3V2h3v1H24zM28,29v-1h2v-2h1v3H28zM28,3V2h3v3h-1V3H28zM30,25v-3h1v3H30zM30,21v-3h1v3H30zM30,17v-3h1v3H30zM30,13v-3h1v3H30zM30,9V6h1v3H30z" fill="#787979"/>
  </g>
</svg>
