<?xml version="1.0" encoding="UTF-8"?>
<!DOCTYPE svg PUBLIC "-//W3C//DTD SVG 1.1//EN" "http://www.w3.org/Graphics/SVG/1.1/DTD/svg11.dtd">
<svg version="1.1" id="Layer_1" xmlns="http://www.w3.org/2000/svg" xmlns:xlink="http://www.w3.org/1999/xlink" x="0px" y="0px" width="32px" height="32px" viewBox="0 0 32 32" enable-background="new 0 0 32 32" xml:space="preserve">
  <g id="main">
    <g id="icon">
      <path d="M5.5,28.5L16.46,28.5L16.14,27.82L15.79,26.76L15.57,25.65L15.5,24.5L15.55,23.58L15.68,22.69L15.91,21.83L16.21,21L16.59,20.21L17.04,19.47L17.56,18.78L18.14,18.14L18.78,17.56L19.47,17.04L20.21,16.59L21,16.21L21.83,15.91L22.69,15.68L23.5,15.56L23.5,1.5L5.5,1.5zz" fill="#92CBEE"/>
      <path d="M5,1.5L5,28.5L5,29L5.5,29L16.72,29L16.61,28.82L16.22,28L6,28L6,2L23,2L23,15.64L23.58,15.55L24,15.53L24,1.5L24,1L23.5,1L5.5,1L5,1zz" fill="#0964B0"/>
      <path d="M2,1.5L2,28.5L2,29L2.5,29L16.72,29L16.61,28.82L16.22,28L6,28L6,16L21.57,16L21.83,15.91L22.69,15.68L23.58,15.55L24,15.53L24,14L26,14L26,15.64L26.76,15.79L27,15.87L27,1.5L27,1L26.5,1L2.5,1L2,1zM5,2L5,4L3,4L3,2zM23,2L23,15L6,15L6,2zM26,2L26,4L24,4L24,2zM5,5L5,7L3,7L3,5zM26,5L26,7L24,7L24,5zM5,8L5,10L3,10L3,8zM26,8L26,10L24,10L24,8zM5,11L5,13L3,13L3,11zM26,11L26,13L24,13L24,11zM5,14L5,16L3,16L3,14zM5,17L5,19L3,19L3,17zM5,20L5,22L3,22L3,20zM5,23L5,25L3,25L3,23zM5,26L5,28L3,28L3,26zz" fill="#383838"/>
    </g>
    <g id="overlay">
      <path d="M24.5,17.5c-3.866,0,-7,3.134,-7,7c0,3.866,3.134,7,7,7s7,-3.134,7,-7C31.5,20.634,28.366,17.5,24.5,17.5zM27.845,26.034L25,23.225V29.5h-1v-6.275l-2.845,2.809l-0.703,-0.712L23.818,22H20.7v-1h7.6v1h-3.118l3.365,3.323L27.845,26.034z" fill="#F7BFBF"/>
      <path d="M24.5,17.5c-3.866,0,-7,3.134,-7,7c0,3.866,3.134,7,7,7s7,-3.134,7,-7C31.5,20.634,28.366,17.5,24.5,17.5zM27.845,26.034L25,23.225V29.5h-1v-6.275l-2.845,2.809l-0.703,-0.712L23.818,22H20.7v-1h7.6v1h-3.118l3.365,3.323L27.845,26.034z" fill="#DB2E2A" opacity="0.3"/>
      <path d="M24.5,32c-4.135,0,-7.5,-3.364,-7.5,-7.5c0,-4.135,3.365,-7.5,7.5,-7.5c4.136,0,7.5,3.365,7.5,7.5C32,28.636,28.636,32,24.5,32zM24.5,18c-3.584,0,-6.5,2.916,-6.5,6.5c0,3.584,2.916,6.5,6.5,6.5c3.584,0,6.5,-2.916,6.5,-6.5C31,20.916,28.084,18,24.5,18z" fill="#DB2E2A"/>
      <polygon points="25,29.5 24,29.5 24,23.225 21.155,26.034 20.452,25.323 23.818,22 20.7,22 20.7,21 28.3,21 28.3,22 25.182,22 28.548,25.323 27.845,26.034 25,23.225" fill="#FFFFFF" stroke-linejoin="miter"/>
    </g>
  </g>
</svg>
