<?xml version="1.0" encoding="UTF-8"?>
<!DOCTYPE svg PUBLIC "-//W3C//DTD SVG 1.1//EN" "http://www.w3.org/Graphics/SVG/1.1/DTD/svg11.dtd">
<svg version="1.1" id="Layer_1" xmlns="http://www.w3.org/2000/svg" xmlns:xlink="http://www.w3.org/1999/xlink" x="0px" y="0px" width="32px" height="32px" viewBox="0 0 32 32" enable-background="new 0 0 32 32" xml:space="preserve">
  <g id="main">
    <g id="icon">
      <path d="M2.5,29.5L17.04,29.5L16.61,28.82L16.14,27.82L15.79,26.76L15.57,25.65L15.5,24.5L15.55,23.58L15.68,22.69L15.91,21.83L16.21,21L16.59,20.21L17.04,19.47L17.56,18.78L18.14,18.14L18.78,17.56L19.47,17.04L20.21,16.59L21,16.21L21.83,15.91L22.69,15.68L23.58,15.55L24.5,15.5L25.65,15.57L26.76,15.79L27.5,16.03L27.5,0.5L2.5,0.5zz" fill="#FFFFFF"/>
      <path d="M2,0.5L2,29.5L2,30L2.5,30L17.4,30L17.19,29.74L16.72,29L3,29L3,1L27,1L27,15.87L27.82,16.14L28,16.22L28,0.5L28,0L27.5,0L2.5,0L2,0zz" fill="#383838"/>
      <path d="M14.73,4.017L14.16,4.076L14.1,4.082L14.04,4.103L13.55,4.282L13.49,4.301L13.45,4.332L13,4.624L12.96,4.647L12.93,4.675L12.5,5.075L12.13,5.413L12.81,6.149L13.17,5.811L13.58,5.44L13.94,5.203L14.33,5.064L14.78,5.016L15.1,5.044L15.35,5.118L15.54,5.231L15.69,5.383L15.82,5.585L15.92,5.853L15.98,6.189L16,6.602L16,6.969L15.32,7.01L15.3,7.011L15.29,7.013L14.6,7.109L14.58,7.113L14.55,7.119L13.99,7.258L13.97,7.264L13.94,7.274L13.45,7.457L13.42,7.469L13.39,7.486L12.97,7.711L12.92,7.74L12.88,7.78L12.58,8.047L12.52,8.101L12.49,8.17L12.31,8.479L12.26,8.557L12.25,8.645L12.19,8.996L12.18,9.06L12.19,9.125L12.22,9.452L12.22,9.507L12.24,9.56L12.33,9.838L12.35,9.893L12.38,9.942L12.51,10.17L12.54,10.22L12.58,10.26L12.76,10.45L12.79,10.48L12.84,10.51L13.05,10.66L13.09,10.68L13.13,10.7L13.37,10.81L13.43,10.83L13.49,10.84L14.01,10.92L14.06,10.93L14.11,10.93L14.52,10.9L14.55,10.9L14.58,10.89L14.95,10.82L14.99,10.81L15.04,10.79L15.67,10.54L15.72,10.52L15.77,10.49L16,10.33L16,10.5L16,11L17,11L17,10.5L17,6.588L17,6.574L17,6.56L16.97,6.102L16.97,6.07L16.97,6.039L16.89,5.63L16.88,5.589L16.87,5.551L16.74,5.195L16.72,5.146L16.69,5.101L16.51,4.804L16.48,4.753L16.44,4.711L16.19,4.474L16.15,4.431L16.1,4.4L15.8,4.226L15.75,4.196L15.69,4.179L15.34,4.071L15.29,4.056L15.24,4.052L14.82,4.016L14.78,4.012zM9.857,4.744L6.732,7.164L6.221,7.559L6.732,7.954L9.857,10.37L10.25,10.68L10.86,9.89L10.47,9.584L7.855,7.559L10.47,5.534L10.86,5.228L10.25,4.438zM18.64,5.228L19.03,5.534L21.65,7.559L19.03,9.584L18.64,9.89L19.25,10.68L19.65,10.37L22.77,7.954L23.28,7.559L22.77,7.164L19.65,4.744L19.25,4.438zM16,9.091L15.81,9.252L15.78,9.266L15.74,9.291L15.25,9.632L14.71,9.849L14.42,9.905L14.11,9.924L13.71,9.861L13.57,9.803L13.45,9.717L13.34,9.61L13.26,9.475L13.21,9.305L13.19,9.098L13.22,8.898L13.31,8.734L13.51,8.56L13.84,8.38L14.26,8.221L14.77,8.096L15.4,8.007L16,7.971zz" fill="#A0519F"/>
      <path d="M5,14L13,14L13,13L5,13zz" fill="#787979"/>
      <path d="M5,17L13,17L13,16L5,16zz" fill="#787979"/>
      <path d="M5,20L13,20L13,19L5,19zz" fill="#787979"/>
      <path d="M5,23L15.64,23L15.68,22.69L15.86,22L5,22zz" fill="#787979"/>
      <path d="M5,26L15.64,26L15.57,25.65L15.53,25L5,25zz" fill="#787979"/>
      <path d="M15.5,19.5L17.02,19.5L17.04,19.47L17.56,18.78L18.14,18.14L18.78,17.56L19.47,17.04L20.21,16.59L21,16.21L21.83,15.91L22.69,15.68L23.5,15.56L23.5,13.5L15.5,13.5zz" fill="#FFFFFF"/>
      <path d="M15,13.5L15,19.5L15,20L15.5,20L16.72,20L17.04,19.47L17.39,19L16,19L16,14L23,14L23,15.64L23.58,15.55L24,15.53L24,13.5L24,13L23.5,13L15.5,13L15,13zz" fill="#228BCB"/>
    </g>
    <g id="overlay">
      <path d="M29.45,29.45c-2.734,2.734,-7.166,2.734,-9.899,0c-2.734,-2.734,-2.734,-7.166,0,-9.899s7.166,-2.734,9.899,0C32.183,22.284,32.183,26.716,29.45,29.45z" fill="#FFFFFF" stroke="#228BCB" stroke-width="1" stroke-miterlimit="10"/>
      <path d="M22,21.5h5.5v5.5M21.309,27.691l5.901,-5.901" fill="none" stroke="#228BCB" stroke-width="1" stroke-miterlimit="10"/>
    </g>
  </g>
</svg>
