<?xml version="1.0" encoding="UTF-8"?>
<!DOCTYPE svg PUBLIC "-//W3C//DTD SVG 1.1//EN" "http://www.w3.org/Graphics/SVG/1.1/DTD/svg11.dtd">
<svg version="1.1" id="Layer_1" xmlns="http://www.w3.org/2000/svg" xmlns:xlink="http://www.w3.org/1999/xlink" x="0px" y="0px" width="32px" height="32px" viewBox="0 0 32 32" enable-background="new 0 0 32 32" xml:space="preserve">
  <g id="main">
    <g id="icon">
      <path d="M13.77,17.68L12.55,17.86L11.37,18.16L10.24,18.57L9.168,19.09L8.154,19.7L7.208,20.41L6.334,21.2L5.541,22.07L4.833,23.01L4.217,24.03L3.699,25.1L3.286,26.23L2.983,27.41L2.796,28.64L2.733,29.9L17.32,29.9L17.19,29.74L16.61,28.82L16.14,27.82L15.79,26.76L15.57,25.65L15.5,24.5L15.55,23.58L15.68,22.69L15.91,21.83L16.21,21L16.59,20.21L17.04,19.47L17.56,18.78L18.14,18.14L18.24,18.05L17.51,17.86L16.29,17.68L15.03,17.61zz" fill="#FFFFFF"/>
      <path d="M15,17.06L13.74,17.13L13.72,17.13L13.69,17.13L12.47,17.32L12.44,17.32L12.41,17.33L11.24,17.63L11.21,17.64L11.18,17.64L10.05,18.06L10.03,18.07L10.01,18.08L8.93,18.59L8.906,18.6L8.883,18.62L7.869,19.23L7.847,19.24L7.826,19.26L6.879,19.97L6.858,19.98L6.838,20L5.965,20.79L5.946,20.81L5.928,20.83L5.134,21.7L5.116,21.72L5.101,21.74L4.393,22.69L4.377,22.71L4.363,22.73L3.747,23.74L3.733,23.77L3.721,23.79L3.204,24.86L3.192,24.89L3.183,24.91L2.769,26.04L2.76,26.07L2.753,26.1L2.45,27.28L2.443,27.3L2.439,27.33L2.253,28.56L2.249,28.58L2.247,28.61L2.184,29.87L3.282,29.93L3.344,28.69L3.522,27.52L3.812,26.4L4.207,25.32L4.701,24.29L5.289,23.32L5.965,22.42L6.724,21.59L7.557,20.83L8.462,20.16L9.432,19.57L10.46,19.08L11.54,18.69L12.66,18.4L13.83,18.22L15.03,18.16L16.23,18.22L17.4,18.4L17.81,18.5L18.14,18.14L18.73,17.6L17.64,17.33L17.62,17.32L17.59,17.32L16.37,17.13L16.34,17.13L16.31,17.13L15.06,17.06L15.03,17.06zz" fill="#383838"/>
      <path d="M14.23,0.6385L13.49,0.7512L12.77,0.934L12.08,1.183L11.43,1.494L10.81,1.862L10.23,2.285L9.697,2.756L9.213,3.274L8.781,3.833L8.405,4.429L8.089,5.059L7.837,5.718L7.652,6.402L7.539,7.107L7.5,7.829L7.539,8.578L7.652,9.361L7.837,10.17L8.089,10.98L8.405,11.8L8.781,12.6L9.213,13.38L9.697,14.12L10.23,14.82L10.81,15.47L11.43,16.04L12.08,16.54L12.77,16.94L13.49,17.25L14.23,17.44L15,17.5L15.77,17.44L16.51,17.25L17.23,16.94L17.92,16.54L18.57,16.04L19.19,15.47L19.77,14.83L20.3,14.12L20.79,13.38L21.22,12.6L21.59,11.8L21.91,10.98L22.16,10.17L22.35,9.361L22.46,8.579L22.5,7.829L22.46,7.107L22.35,6.402L22.16,5.718L21.91,5.059L21.59,4.429L21.22,3.833L20.79,3.274L20.3,2.756L19.77,2.284L19.19,1.862L18.57,1.493L17.92,1.183L17.23,0.9338L16.51,0.7512L15.77,0.6385L15,0.6zz" fill="#FCD8BB"/>
      <path d="M14.97,0.05078L14.21,0.08926L14.18,0.09063L14.15,0.09473L13.41,0.2074L13.38,0.2113L13.35,0.2182L12.63,0.401L12.61,0.4076L12.58,0.4166L11.89,0.6654L11.87,0.6744L11.85,0.6857L11.19,0.9965L11.17,1.008L11.14,1.021L10.53,1.39L10.5,1.403L10.48,1.418L9.905,1.841L9.884,1.856L9.865,1.873L9.332,2.345L9.313,2.362L9.295,2.381L8.811,2.898L8.793,2.917L8.777,2.938L8.346,3.497L8.329,3.518L8.316,3.54L7.94,4.136L7.926,4.159L7.914,4.183L7.598,4.813L7.586,4.837L7.576,4.863L7.324,5.521L7.313,5.548L7.306,5.575L7.121,6.259L7.114,6.286L7.109,6.315L6.996,7.02L6.991,7.048L6.989,7.078L6.951,7.8L6.949,7.829L6.951,7.857L6.989,8.607L6.991,8.632L6.994,8.657L7.108,9.44L7.111,9.462L7.116,9.484L7.301,10.29L7.306,10.31L7.312,10.33L7.564,11.14L7.57,11.16L7.577,11.18L7.892,11.99L7.899,12.01L7.907,12.03L8.283,12.83L8.291,12.85L8.3,12.87L8.731,13.65L8.741,13.66L8.751,13.68L9.235,14.42L9.247,14.44L9.259,14.46L9.792,15.16L9.805,15.18L9.82,15.19L10.4,15.84L10.41,15.85L10.43,15.87L11.05,16.45L11.07,16.46L11.09,16.48L11.75,16.98L11.77,17L11.8,17.01L12.49,17.42L12.52,17.44L12.56,17.45L13.27,17.75L13.31,17.77L13.35,17.78L14.1,17.97L14.14,17.98L14.19,17.99L14.95,18.05L15,18.06L15.05,18.05L15.81,17.99L15.86,17.98L15.9,17.97L16.65,17.78L16.69,17.77L16.73,17.75L17.44,17.45L17.48,17.44L17.51,17.42L18.2,17.01L18.23,17L18.25,16.98L18.91,16.48L18.93,16.47L18.95,16.45L19.57,15.87L19.59,15.85L19.6,15.84L20.18,15.19L20.19,15.18L20.21,15.16L20.74,14.46L20.75,14.44L20.76,14.42L21.25,13.68L21.26,13.66L21.27,13.65L21.7,12.87L21.71,12.85L21.72,12.83L22.09,12.03L22.1,12.01L22.11,11.99L22.42,11.18L22.43,11.16L22.44,11.14L22.69,10.33L22.69,10.31L22.7,10.29L22.88,9.484L22.89,9.463L22.89,9.44L23.01,8.658L23.01,8.632L23.01,8.607L23.05,7.857L23.05,7.829L23.05,7.8L23.01,7.078L23.01,7.048L23,7.019L22.89,6.314L22.89,6.286L22.88,6.258L22.69,5.574L22.69,5.547L22.68,5.521L22.42,4.862L22.41,4.837L22.4,4.812L22.09,4.182L22.07,4.159L22.06,4.136L21.68,3.539L21.67,3.517L21.65,3.496L21.22,2.938L21.21,2.917L21.19,2.898L20.7,2.38L20.69,2.362L20.67,2.345L20.14,1.872L20.12,1.855L20.1,1.84L19.52,1.418L19.5,1.403L19.47,1.389L18.86,1.021L18.83,1.007L18.81,0.9963L18.15,0.6855L18.13,0.6742L18.11,0.6652L17.42,0.4166L17.39,0.4074L17.37,0.4008L16.65,0.2182L16.62,0.2113L16.59,0.2072L15.85,0.09473L15.82,0.09063L15.79,0.08906L15.03,0.05078L15,0.04922zM15.71,1.186L16.4,1.291L17.07,1.461L17.71,1.691L18.32,1.98L18.89,2.321L19.42,2.713L19.92,3.151L20.37,3.63L20.77,4.149L21.12,4.701L21.41,5.28L21.64,5.887L21.81,6.519L21.91,7.165L21.95,7.83L21.91,8.526L21.81,9.259L21.63,10.02L21.39,10.8L21.09,11.58L20.73,12.35L20.32,13.1L19.85,13.81L19.35,14.47L18.8,15.08L18.22,15.62L17.61,16.08L16.98,16.45L16.34,16.73L15.68,16.89L15,16.95L14.32,16.89L13.66,16.73L13.02,16.45L12.39,16.08L11.78,15.62L11.2,15.08L10.65,14.47L10.15,13.81L9.685,13.1L9.271,12.35L8.911,11.58L8.61,10.8L8.369,10.02L8.193,9.259L8.087,8.526L8.051,7.83L8.086,7.166L8.191,6.519L8.361,5.888L8.593,5.281L8.885,4.7L9.232,4.149L9.632,3.631L10.08,3.151L10.58,2.713L11.11,2.321L11.68,1.98L12.29,1.691L12.93,1.461L13.6,1.291L14.29,1.186L15,1.151zz" fill="#AF6E41"/>
      <path d="M14.35,0.6307L13.68,0.7207L13.03,0.8674L12.4,1.067L11.79,1.318L11.21,1.617L10.67,1.961L10.15,2.346L9.678,2.771L9.24,3.232L8.844,3.726L8.492,4.251L8.187,4.803L7.932,5.38L7.729,5.979L7.581,6.596L8.287,5.987L8.94,5.515L9.545,5.166L10.11,4.927L10.63,4.784L11.11,4.724L11.57,4.733L11.99,4.798L12.78,5.043L13.52,5.351L14.23,5.614L14.59,5.696L14.95,5.726L15.32,5.696L15.68,5.617L16.41,5.36L17.18,5.06L18,4.822L18.45,4.759L18.92,4.751L19.42,4.81L19.96,4.951L20.53,5.186L21.14,5.528L21.8,5.99L22.51,6.586L22.36,5.97L22.15,5.372L21.9,4.796L21.59,4.245L21.24,3.721L20.85,3.227L20.41,2.767L19.93,2.343L19.42,1.958L18.87,1.615L18.3,1.317L17.69,1.067L17.06,0.8668L16.41,0.7205L15.74,0.6307L15.04,0.6zz" fill="#999999"/>
      <path d="M14.33,0.08125L14.28,0.08555L13.61,0.1756L13.56,0.184L12.91,0.3307L12.86,0.343L12.23,0.5432L12.19,0.5594L11.58,0.8104L11.54,0.8299L10.96,1.129L10.92,1.152L10.37,1.495L10.34,1.521L9.824,1.907L9.788,1.936L9.312,2.36L9.279,2.392L8.841,2.853L8.811,2.888L8.415,3.382L8.387,3.42L8.035,3.945L8.011,3.985L7.706,4.537L7.684,4.58L7.429,5.157L7.411,5.203L7.208,5.802L7.194,5.85L7.046,6.468L7.081,6.825L7.329,7.085L7.685,7.136L7.94,7.013L8.627,6.42L9.239,5.978L9.791,5.659L10.29,5.448L10.73,5.325L11.14,5.274L11.52,5.282L11.87,5.336L12.59,5.56L13.3,5.858L13.33,5.867L14.04,6.13L14.11,6.151L14.46,6.232L14.54,6.244L14.9,6.274L14.99,6.274L15.36,6.245L15.43,6.234L15.8,6.154L15.86,6.136L16.59,5.879L16.61,5.872L17.36,5.581L18.12,5.361L18.49,5.308L18.89,5.301L19.32,5.352L19.78,5.474L20.29,5.683L20.85,5.994L21.46,6.426L22.15,7.006L22.49,7.136L22.83,7.03L23.04,6.736L23.04,6.457L22.89,5.841L22.88,5.792L22.68,5.195L22.66,5.149L22.4,4.573L22.38,4.529L22.08,3.978L22.05,3.938L21.7,3.414L21.67,3.376L21.28,2.883L21.24,2.848L20.81,2.388L20.77,2.356L20.3,1.932L20.26,1.903L19.75,1.518L19.71,1.492L19.17,1.149L19.13,1.127L18.55,0.8285L18.51,0.8088L17.9,0.5584L17.86,0.5424L17.23,0.3426L17.18,0.3301L16.53,0.1838L16.48,0.1754L15.81,0.08535L15.76,0.08105L15.07,0.05059L15.02,0.05059zM15.69,1.179L16.31,1.262L16.92,1.399L17.5,1.583L18.06,1.816L18.6,2.093L19.11,2.411L19.58,2.769L20.03,3.163L20.43,3.59L20.8,4.046L21.12,4.532L21.41,5.041L21.41,5.047L20.8,4.705L20.74,4.677L20.16,4.442L20.1,4.419L19.56,4.279L19.49,4.264L18.98,4.205L18.91,4.201L18.44,4.209L18.37,4.214L17.93,4.278L17.85,4.294L17.03,4.532L16.98,4.548L16.22,4.845L15.53,5.087L15.23,5.152L14.95,5.174L14.67,5.151L14.38,5.086L13.72,4.839L13,4.536L12.95,4.518L12.16,4.273L12.08,4.254L11.65,4.189L11.58,4.183L11.12,4.174L11.04,4.178L10.56,4.238L10.48,4.254L9.96,4.397L9.889,4.421L9.329,4.66L9.27,4.69L8.695,5.022L8.962,4.538L9.287,4.053L9.656,3.593L10.06,3.168L10.5,2.772L10.98,2.413L11.49,2.095L12.02,1.817L12.58,1.585L13.17,1.398L13.78,1.263L14.4,1.179L15.04,1.151zz" fill="#383838"/>
      <path d="M10,24.98L14.97,23.21L15.57,23.42L15.68,22.69L15.91,21.83L15.92,21.77L14.97,22.13L10,20.26zz" fill="#238BCB"/>
    </g>
    <g id="overlay">
      <path d="M24.5,17.5c-3.866,0,-7,3.134,-7,7c0,3.866,3.134,7,7,7s7,-3.134,7,-7C31.5,20.634,28.366,17.5,24.5,17.5zM29,25h-4v4h-1v-4h-4v-1h4v-4h1v4h4V25z" fill="#B2DBB4"/>
      <path d="M24.5,17.5c-3.866,0,-7,3.134,-7,7c0,3.866,3.134,7,7,7s7,-3.134,7,-7C31.5,20.634,28.366,17.5,24.5,17.5zM29,25h-4v4h-1v-4h-4v-1h4v-4h1v4h4V25z" fill="#009949" opacity="0.2"/>
      <path d="M24.5,32c-4.135,0,-7.5,-3.365,-7.5,-7.5s3.365,-7.5,7.5,-7.5s7.5,3.365,7.5,7.5S28.635,32,24.5,32zM24.5,18c-3.584,0,-6.5,2.916,-6.5,6.5s2.916,6.5,6.5,6.5s6.5,-2.916,6.5,-6.5S28.084,18,24.5,18z" fill="#009949"/>
      <polygon points="25,29 24,29 24,25 20,25 20,24 24,24 24,20 25,20 25,24 29,24 29,25 25,25" fill="#FFFFFF" stroke-linejoin="miter"/>
    </g>
  </g>
</svg>
