<?xml version="1.0" encoding="UTF-8"?>
<!DOCTYPE svg PUBLIC "-//W3C//DTD SVG 1.1//EN" "http://www.w3.org/Graphics/SVG/1.1/DTD/svg11.dtd">
<svg version="1.1" id="Layer_1" xmlns="http://www.w3.org/2000/svg" xmlns:xlink="http://www.w3.org/1999/xlink" x="0px" y="0px" width="32px" height="32px" viewBox="0 0 32 32" enable-background="new 0 0 32 32" xml:space="preserve">
  <g id="icon">
    <path d="M11.305,19.46c-0.816,-1.144,-0.928,-2.628,-0.294,-3.872c0.484,-0.953,1.389,-1.672,2.427,-1.953c1.112,1.652,2.8,2.958,4.813,3.697c-0.004,0.265,-0.023,0.534,-0.059,0.696c-0.158,0.723,-0.496,1.351,-1.005,1.868c-0.552,0.56,-1.201,0.915,-1.985,1.086c-0.189,0.041,-0.469,0.064,-0.767,0.064c-0.305,0,-0.591,-0.025,-0.785,-0.067c-0.504,-0.107,-0.967,-0.305,-1.417,-0.604C11.964,20.197,11.513,19.752,11.305,19.46zM20.107,24.172c-0.408,-0.795,-1.021,-1.112,-2.427,-1.256c-0.278,-0.028,-1.356,-0.049,-2.507,-0.049c-0.763,0,-1.353,0.01,-1.62,0.026c-0.338,0.021,-0.643,0.032,-0.934,0.032c-1.313,0,-2.445,-0.208,-4.329,-0.794c-0.422,-0.132,-2.633,-0.887,-2.762,-1.016c-0.099,-0.099,-0.099,-0.099,0.357,-1.13c0.269,-0.608,0.618,-1.387,0.984,-2.192c0.793,-1.754,1.443,-3.203,1.494,-3.325c0.221,-0.537,0.256,-0.967,0.103,-1.278c-0.105,-0.213,-0.297,-0.406,-0.555,-0.558c-0.276,-0.161,-0.547,-0.246,-0.784,-0.246c-0.099,0,-0.191,0.015,-0.274,0.045c-0.365,0.131,-0.686,0.494,-1.01,1.143c-0.532,1.072,-3.645,7.761,-3.741,8.036c-0.079,0.282,-0.07,0.526,0.028,0.816c0.129,0.373,0.201,0.488,0.337,0.621c0.271,0.263,0.622,0.458,1.501,0.835c1.561,0.672,2.948,1.316,4.242,1.968l1.054,0.53l-0.005,0.275c-0.002,0.054,-0.026,0.835,-0.026,0.835c-0.037,1.088,0.066,2.156,0.291,3.01l5.33,-0.006l5.344,-0.008l0.011,-0.026c0.06,-0.153,0.195,-0.744,0.258,-1.067c0.137,-0.717,0.195,-1.661,0.155,-2.526C20.557,25.554,20.403,24.748,20.107,24.172z" fill="#C8C6C4"/>
    <path d="M20.552,23.944c-0.558,-1.086,-1.493,-1.389,-2.822,-1.525c-0.337,-0.034,-1.541,-0.051,-2.557,-0.051c-0.772,0,-1.374,0.01,-1.651,0.027c-0.327,0.021,-0.622,0.031,-0.903,0.031c-1.256,0,-2.35,-0.202,-4.179,-0.771c-0.442,-0.138,-1.785,-0.604,-2.372,-0.837c0.066,-0.156,0.162,-0.373,0.276,-0.63c0.268,-0.606,0.617,-1.384,0.982,-2.189c0.725,-1.606,1.44,-3.196,1.501,-3.34c0.279,-0.675,0.309,-1.244,0.089,-1.69c-0.149,-0.301,-0.408,-0.566,-0.751,-0.768c-0.522,-0.305,-1.057,-0.392,-1.48,-0.24c-0.494,0.177,-0.903,0.619,-1.289,1.391c-0.464,0.936,-3.643,7.743,-3.765,8.093l-0.01,0.031c-0.106,0.381,-0.095,0.724,0.037,1.114c0.146,0.422,0.253,0.612,0.461,0.817c0.322,0.312,0.708,0.531,1.652,0.935c1.551,0.668,2.93,1.307,4.215,1.955l0.773,0.389c-0.006,0.18,-0.024,0.788,-0.024,0.788c-0.038,1.134,0.07,2.254,0.307,3.154l0.098,0.373l11.397,-0.015l0.138,-0.343c0.089,-0.227,0.239,-0.926,0.284,-1.156c0.144,-0.753,0.205,-1.741,0.164,-2.645C21.053,25.453,20.882,24.587,20.552,23.944zM19.976,29.297c-0.044,0.225,-0.104,0.49,-0.153,0.69l-4.97,0.008L9.921,30c-0.151,-0.738,-0.218,-1.607,-0.188,-2.494c0,0,0.024,-0.779,0.026,-0.841l0.011,-0.589l-1.335,-0.672c-1.303,-0.657,-2.699,-1.305,-4.27,-1.981c-0.805,-0.345,-1.133,-0.523,-1.348,-0.732c-0.061,-0.06,-0.101,-0.099,-0.214,-0.425c-0.064,-0.188,-0.071,-0.325,-0.026,-0.499c0.189,-0.459,3.124,-6.782,3.713,-7.969c0.256,-0.512,0.502,-0.813,0.732,-0.896c0.028,-0.01,0.065,-0.015,0.106,-0.015c0.147,0,0.336,0.063,0.53,0.177c0.171,0.101,0.299,0.225,0.36,0.348c0.084,0.172,0.043,0.479,-0.115,0.862c-0.044,0.105,-0.646,1.448,-1.489,3.313c-0.366,0.807,-0.716,1.587,-0.986,2.197c-0.243,0.548,-0.353,0.799,-0.406,0.966c-0.093,0.294,-0.044,0.523,0.153,0.72c0.279,0.279,2.939,1.131,2.967,1.14c1.937,0.603,3.108,0.817,4.477,0.817c0.302,0,0.618,-0.011,0.966,-0.033c0.253,-0.016,0.847,-0.025,1.589,-0.025c1.248,0,2.229,0.024,2.456,0.046c1.37,0.14,1.747,0.43,2.033,0.987c0.262,0.509,0.399,1.253,0.46,2.488C20.161,27.717,20.106,28.618,19.976,29.297zM10.898,19.751c-0.924,-1.297,-1.052,-2.979,-0.332,-4.39c0.524,-1.032,1.485,-1.82,2.596,-2.165c0.179,0.303,0.376,0.595,0.591,0.876c-0.979,0.204,-1.847,0.858,-2.296,1.742c-0.55,1.078,-0.452,2.364,0.255,3.356c0.171,0.239,0.58,0.645,0.797,0.788c0.397,0.264,0.804,0.437,1.245,0.531c0.161,0.035,0.415,0.056,0.681,0.056c0.26,0,0.508,-0.02,0.662,-0.053c0.686,-0.149,1.253,-0.459,1.735,-0.948c0.441,-0.448,0.735,-0.995,0.872,-1.624c0.038,-0.168,0.051,-0.505,0.048,-0.787c0.323,0.137,0.655,0.26,0.995,0.366c-0.009,0.244,-0.031,0.476,-0.067,0.637c-0.178,0.814,-0.561,1.524,-1.136,2.109c-0.622,0.632,-1.354,1.032,-2.236,1.224c-0.226,0.049,-0.537,0.076,-0.874,0.076c-0.344,0,-0.661,-0.028,-0.893,-0.079c-0.563,-0.12,-1.083,-0.341,-1.586,-0.676C11.637,20.58,11.142,20.093,10.898,19.751z" fill="#383838"/>
    <path d="M22.05,2C17.611,2,14,5.14,14,9s3.611,7,8.05,7S30.1,12.86,30.1,9S26.489,2,22.05,2zM22.016,14c-0.403,0,-0.73,-0.327,-0.73,-0.73c0,-0.403,0.327,-0.73,0.73,-0.73s0.73,0.327,0.73,0.73C22.746,13.673,22.418,14,22.016,14zM24.958,8.019c-0.152,0.338,-0.347,0.639,-0.58,0.896c-0.22,0.242,-0.462,0.459,-0.72,0.645c-0.229,0.165,-0.438,0.32,-0.623,0.46c-0.165,0.124,-0.303,0.249,-0.412,0.371c-0.044,0.049,-0.063,0.088,-0.066,0.132l0,0.96h-1.12l0,-0.985c0.009,-0.316,0.127,-0.604,0.351,-0.855c0.157,-0.176,0.349,-0.35,0.571,-0.517c0.195,-0.147,0.411,-0.307,0.643,-0.474c0.196,-0.141,0.38,-0.306,0.547,-0.49c0.153,-0.169,0.284,-0.372,0.387,-0.602c0.095,-0.212,0.143,-0.474,0.143,-0.778c0,-0.255,-0.049,-0.472,-0.148,-0.663c-0.106,-0.203,-0.243,-0.37,-0.418,-0.511c-0.179,-0.144,-0.391,-0.258,-0.63,-0.337c-0.246,-0.081,-0.502,-0.122,-0.76,-0.122c-0.23,0,-0.442,0.024,-0.629,0.072c-0.192,0.049,-0.369,0.114,-0.528,0.195c-0.163,0.083,-0.312,0.178,-0.443,0.281c-0.108,0.086,-0.378,0.338,-0.529,0.488L19.193,5.4c0.148,-0.147,0.462,-0.447,0.636,-0.584c0.188,-0.148,0.399,-0.282,0.627,-0.399c0.233,-0.119,0.489,-0.214,0.762,-0.283c0.277,-0.07,0.582,-0.106,0.905,-0.106c0.378,0,0.752,0.06,1.111,0.179c0.367,0.121,0.697,0.299,0.982,0.528c0.293,0.236,0.531,0.527,0.707,0.864c0.183,0.35,0.276,0.748,0.276,1.183C25.2,7.245,25.119,7.661,24.958,8.019z" fill="#46BAD4"/>
    <path d="M22.05,17c-4.99,0,-9.05,-3.589,-9.05,-8s4.06,-8,9.05,-8c4.99,0,9.05,3.589,9.05,8S27.04,17,22.05,17zM22.05,2C17.611,2,14,5.14,14,9s3.611,7,8.05,7S30.1,12.86,30.1,9S26.489,2,22.05,2z" fill="#1D6F82"/>
    <path d="M22.557,11.483l0,-0.96c0.002,-0.044,0.022,-0.083,0.066,-0.132c0.109,-0.122,0.248,-0.247,0.412,-0.371c0.185,-0.14,0.394,-0.295,0.623,-0.46c0.258,-0.186,0.5,-0.404,0.72,-0.645c0.233,-0.257,0.428,-0.558,0.58,-0.896c0.161,-0.357,0.242,-0.774,0.242,-1.237c0,-0.435,-0.093,-0.833,-0.276,-1.183c-0.177,-0.337,-0.415,-0.628,-0.707,-0.864c-0.285,-0.229,-0.615,-0.407,-0.982,-0.528c-0.36,-0.119,-0.733,-0.179,-1.112,-0.179c-0.323,0,-0.627,0.036,-0.905,0.106c-0.273,0.069,-0.529,0.165,-0.762,0.283c-0.228,0.116,-0.439,0.251,-0.627,0.399c-0.174,0.137,-0.488,0.438,-0.636,0.584l0.801,0.784c0.151,-0.15,0.421,-0.403,0.529,-0.488c0.131,-0.103,0.28,-0.198,0.443,-0.281c0.159,-0.081,0.336,-0.147,0.528,-0.195c0.187,-0.048,0.399,-0.072,0.629,-0.072c0.258,0,0.514,0.041,0.76,0.122c0.239,0.079,0.451,0.192,0.63,0.337c0.175,0.141,0.311,0.308,0.418,0.511c0.1,0.191,0.148,0.407,0.148,0.663c0,0.305,-0.048,0.566,-0.143,0.778c-0.104,0.231,-0.234,0.433,-0.387,0.602c-0.167,0.184,-0.351,0.349,-0.547,0.49c-0.232,0.167,-0.448,0.327,-0.643,0.474c-0.222,0.168,-0.414,0.342,-0.571,0.517c-0.224,0.251,-0.342,0.539,-0.351,0.855l0,0.985H22.557zM22.746,13.27c0,-0.403,-0.327,-0.73,-0.73,-0.73s-0.73,0.327,-0.73,0.73s0.327,0.73,0.73,0.73S22.746,13.673,22.746,13.27z" fill="#FFFFFF"/>
  </g>
</svg>
