<?xml version="1.0" encoding="UTF-8"?>
<!DOCTYPE svg PUBLIC "-//W3C//DTD SVG 1.1//EN" "http://www.w3.org/Graphics/SVG/1.1/DTD/svg11.dtd">
<svg version="1.1" id="Layer_1" xmlns="http://www.w3.org/2000/svg" xmlns:xlink="http://www.w3.org/1999/xlink" x="0px" y="0px" width="32px" height="32px" viewBox="0 0 32 32" enable-background="new 0 0 32 32" xml:space="preserve">
  <g id="icon">
    <path d="M16,1.6C8.048,1.6,1.602,7.248,1.602,14.215c0,3.73,1.847,7.081,4.784,9.391C6.209,25.3,4.6,29.9,4.6,29.9s8.712,-2.882,9.443,-3.186c0.64,0.076,1.293,0.116,1.957,0.116c7.952,0,14.398,-5.648,14.398,-12.615S23.952,1.6,16,1.6zM15.618,22.08c-0.541,0,-0.981,-0.44,-0.981,-0.981s0.44,-0.981,0.981,-0.981s0.981,0.44,0.981,0.981S16.16,22.08,15.618,22.08zM20.117,12.271c-0.232,0.516,-0.529,0.975,-0.882,1.364c-0.338,0.372,-0.711,0.706,-1.108,0.993c-0.362,0.262,-0.695,0.508,-0.99,0.731c-0.271,0.205,-0.5,0.411,-0.682,0.614c-0.104,0.116,-0.152,0.223,-0.157,0.348l0,2.312h-1.36l0,-2.341c0.013,-0.455,0.182,-0.867,0.503,-1.226c0.24,-0.268,0.534,-0.535,0.875,-0.792c0.303,-0.229,0.644,-0.481,1.014,-0.748c0.321,-0.232,0.623,-0.502,0.897,-0.805c0.257,-0.283,0.476,-0.623,0.649,-1.008c0.163,-0.362,0.245,-0.805,0.245,-1.316c0,-0.433,-0.087,-0.818,-0.259,-1.145c-0.179,-0.342,-0.42,-0.637,-0.715,-0.874c-0.304,-0.245,-0.661,-0.436,-1.063,-0.568c-0.41,-0.135,-0.837,-0.204,-1.268,-0.204c-0.381,0,-0.733,0.04,-1.047,0.12c-0.319,0.081,-0.614,0.19,-0.879,0.325c-0.271,0.138,-0.518,0.295,-0.735,0.466c-0.22,0.174,-0.74,0.669,-0.938,0.871l-0.056,0.057l-0.972,-0.951l0.056,-0.057c0.212,-0.217,0.781,-0.761,1.067,-0.987c0.287,-0.226,0.609,-0.431,0.959,-0.61c0.355,-0.181,0.746,-0.327,1.163,-0.432c0.423,-0.107,0.888,-0.161,1.381,-0.161c0.576,0,1.147,0.092,1.695,0.273c0.557,0.184,1.058,0.453,1.489,0.801c0.441,0.356,0.8,0.794,1.066,1.302c0.275,0.524,0.414,1.122,0.414,1.776C20.482,11.102,20.359,11.732,20.117,12.271z" fill="#46BAD4"/>
    <path d="M3.712,30.773l0.369,-1.055c0.015,-0.043,1.421,-4.076,1.718,-5.879c-3.021,-2.485,-4.747,-5.976,-4.747,-9.625C1.052,6.956,7.758,1.05,16,1.05s14.948,5.906,14.948,13.165S24.242,27.38,16,27.38c-0.63,0,-1.263,-0.035,-1.886,-0.104c-1.318,0.491,-9,3.033,-9.341,3.146L3.712,30.773zM16,2.15c-7.636,0,-13.848,5.412,-13.848,12.065c0,3.407,1.667,6.673,4.574,8.959l0.239,0.188l-0.032,0.302c-0.13,1.241,-0.966,3.888,-1.457,5.367c3.143,-1.042,7.853,-2.615,8.356,-2.824l0.133,-0.055l0.143,0.017c0.623,0.074,1.26,0.112,1.892,0.112c7.636,0,13.848,-5.412,13.848,-12.065S23.636,2.15,16,2.15z" fill="#1D6F82"/>
    <path d="M15.618,22.08c-0.541,0,-0.981,-0.44,-0.981,-0.981s0.44,-0.981,0.981,-0.981s0.981,0.44,0.981,0.981S16.16,22.08,15.618,22.08zM14.938,18.633l0,-2.341c0.013,-0.455,0.182,-0.867,0.503,-1.226c0.24,-0.268,0.534,-0.535,0.875,-0.792c0.303,-0.229,0.644,-0.481,1.014,-0.748c0.321,-0.232,0.623,-0.502,0.897,-0.805c0.257,-0.283,0.476,-0.623,0.649,-1.008c0.163,-0.362,0.245,-0.805,0.245,-1.316c0,-0.433,-0.087,-0.818,-0.259,-1.145c-0.179,-0.342,-0.42,-0.637,-0.715,-0.874c-0.304,-0.245,-0.661,-0.436,-1.063,-0.568c-0.41,-0.135,-0.837,-0.204,-1.268,-0.204c-0.381,0,-0.733,0.04,-1.047,0.12c-0.319,0.081,-0.614,0.19,-0.879,0.325c-0.271,0.138,-0.518,0.295,-0.735,0.466c-0.22,0.174,-0.74,0.669,-0.938,0.871l-0.056,0.057l-0.972,-0.951l0.056,-0.057c0.212,-0.217,0.781,-0.761,1.067,-0.987c0.287,-0.226,0.609,-0.431,0.959,-0.61c0.355,-0.181,0.746,-0.327,1.163,-0.432c0.423,-0.107,0.888,-0.161,1.381,-0.161c0.576,0,1.147,0.092,1.695,0.273c0.557,0.184,1.058,0.453,1.489,0.801c0.441,0.356,0.8,0.794,1.066,1.302c0.275,0.524,0.414,1.122,0.414,1.776c0,0.705,-0.123,1.335,-0.365,1.874c-0.232,0.516,-0.529,0.975,-0.882,1.364c-0.338,0.372,-0.711,0.706,-1.108,0.993c-0.362,0.262,-0.695,0.508,-0.99,0.731c-0.271,0.205,-0.5,0.411,-0.682,0.614c-0.104,0.116,-0.152,0.223,-0.157,0.348l0,2.312H14.938z" fill="#FFFFFF"/>
  </g>
</svg>
