<?xml version="1.0" encoding="UTF-8"?>
<!DOCTYPE svg PUBLIC "-//W3C//DTD SVG 1.1//EN" "http://www.w3.org/Graphics/SVG/1.1/DTD/svg11.dtd">
<svg version="1.1" id="Layer_1" xmlns="http://www.w3.org/2000/svg" xmlns:xlink="http://www.w3.org/1999/xlink" x="0px" y="0px" width="32px" height="32px" viewBox="0 0 32 32" enable-background="new 0 0 32 32" xml:space="preserve">
  <g id="icon">
    <path d="M30.126,9.541h-2.499c-0.352,-1.479,-1.124,-2.81,-2.24,-3.86l1.28,-2.169c0.106,-0.179,0.045,-0.411,-0.136,-0.515l-2.5,-1.437c-0.178,-0.102,-0.404,-0.042,-0.509,0.134l-1.283,2.174c-0.724,-0.215,-1.477,-0.323,-2.239,-0.323s-1.515,0.109,-2.239,0.323l-1.214,-2.163c-0.102,-0.182,-0.332,-0.245,-0.513,-0.141l-2.5,1.437c-0.178,0.102,-0.24,0.329,-0.14,0.507l1.219,2.172c-1.029,0.969,-1.765,2.176,-2.149,3.519c1.438,0.43,2.681,1.3,3.566,2.45c-0.007,-0.099,-0.012,-0.198,-0.012,-0.298c0,-2.196,1.787,-3.983,3.983,-3.983c2.196,0,3.983,1.787,3.983,3.983s-1.787,3.983,-3.983,3.983c-1.059,0,-2.023,-0.417,-2.737,-1.094c0.117,0.498,0.181,1.015,0.181,1.547c0,1.915,-0.805,3.701,-2.179,4.982l0.765,0.44c0.182,0.105,0.414,0.039,0.515,-0.145l1.216,-2.229c0.724,0.215,1.477,0.323,2.239,0.323s1.515,-0.109,2.239,-0.323l1.285,2.24c0.103,0.179,0.332,0.241,0.511,0.138l2.5,-1.437c0.179,-0.103,0.241,-0.331,0.138,-0.511l-1.287,-2.243c1.115,-1.05,1.887,-2.381,2.24,-3.86h2.499c0.207,0,0.374,-0.168,0.374,-0.374V9.915C30.5,9.708,30.332,9.541,30.126,9.541z" fill="#FCA18F"/>
    <path d="M24.483,11.351c0,-2.472,-2.011,-4.483,-4.483,-4.483c-2.377,0,-4.326,1.859,-4.473,4.2c1.013,1.053,1.692,2.417,1.869,3.929c0.735,0.526,1.633,0.837,2.604,0.837C22.472,15.834,24.483,13.823,24.483,11.351zM16.518,11.351c0,-1.92,1.562,-3.483,3.483,-3.483s3.483,1.562,3.483,3.483c0,1.92,-1.562,3.483,-3.483,3.483S16.518,13.271,16.518,11.351zM31,9.915v2.872c0,0.482,-0.392,0.874,-0.874,0.874h-2.114c-0.374,1.293,-1.058,2.472,-1.999,3.445l1.095,1.909c0.24,0.418,0.095,0.953,-0.323,1.193l-2.5,1.437c-0.134,0.077,-0.283,0.117,-0.434,0.117c-0.077,0,-0.154,-0.01,-0.23,-0.031c-0.226,-0.061,-0.414,-0.206,-0.53,-0.409l-1.093,-1.906c-1.299,0.318,-2.687,0.319,-3.986,0.002l-1.027,1.883c-0.114,0.208,-0.302,0.358,-0.53,0.423c-0.004,0.001,-0.009,0.002,-0.013,0.003c-0.401,-0.328,-0.82,-0.625,-1.254,-0.885c0.155,-0.14,0.302,-0.288,0.444,-0.441l0.537,0.309l1.348,-2.471l0.388,0.115c1.356,0.402,2.838,0.402,4.194,0l0.379,-0.112l1.419,2.474l2.282,-1.312l-1.42,-2.476l0.287,-0.271c1.042,-0.981,1.767,-2.231,2.096,-3.612l0.092,-0.384H30v-2.621h-2.768l-0.092,-0.384c-0.329,-1.382,-1.054,-2.631,-2.096,-3.612l-0.291,-0.274l1.419,-2.403L23.89,2.055l-1.419,2.403l-0.374,-0.111c-1.356,-0.402,-2.839,-0.402,-4.194,0l-0.383,0.113l-1.347,-2.4l-2.282,1.312l1.349,2.404l-0.285,0.268c-0.967,0.911,-1.66,2.052,-2.018,3.316c-0.356,-0.135,-0.725,-0.243,-1.107,-0.32h0.157c0.375,-1.294,1.06,-2.474,2.002,-3.448l-1.032,-1.839c-0.233,-0.416,-0.087,-0.948,0.327,-1.186l2.5,-1.437c0.204,-0.117,0.441,-0.148,0.668,-0.085c0.227,0.062,0.415,0.21,0.53,0.415l1.024,1.824c1.303,-0.318,2.694,-0.318,3.996,0.002l1.09,-1.846c0.242,-0.41,0.775,-0.551,1.188,-0.313l2.5,1.437c0.204,0.117,0.35,0.307,0.409,0.535c0.06,0.228,0.027,0.465,-0.092,0.667l-1.082,1.833c0.939,0.973,1.622,2.15,1.996,3.442h2.114C30.608,9.041,31,9.433,31,9.915z" fill="#6D1402"/>
    <path d="M15.844,15.787c0,2.92,-2.431,5.287,-5.431,5.287s-5.431,-2.367,-5.431,-5.287S7.414,10.5,10.414,10.5S15.844,12.867,15.844,15.787zM19.205,30.987c0,-5.098,-3.941,-9.891,-8.802,-9.891S1.6,25.889,1.6,30.987" fill="#FFFFFF" stroke="#6D1402" stroke-width="1.2" stroke-miterlimit="1"/>
  </g>
</svg>
