<?xml version="1.0" encoding="UTF-8"?>
<!DOCTYPE svg PUBLIC "-//W3C//DTD SVG 1.1//EN" "http://www.w3.org/Graphics/SVG/1.1/DTD/svg11.dtd">
<svg version="1.1" id="Layer_1" xmlns="http://www.w3.org/2000/svg" xmlns:xlink="http://www.w3.org/1999/xlink" x="0px" y="0px" width="32px" height="32px" viewBox="0 0 32 32" enable-background="new 0 0 32 32" xml:space="preserve">
  <g id="main">
    <g id="icon">
      <path d="M0.5,20.72L14.43,26.11L15.58,25.67L15.57,25.65L15.5,24.5L15.55,23.58L15.68,22.69L15.91,21.83L16.21,21L16.59,20.21L17.04,19.47L17.56,18.78L18.14,18.14L18.78,17.56L18.81,17.53L14.43,16.06zz" fill="#FFFFFF"/>
      <path d="M14.28,16.44L18.53,17.79L18.78,17.56L19.47,17.04L19.47,17.04L14.58,15.48zz" fill="#383838"/>
      <path d="M14.58,0.9779L28,5.107L28,16.22L28.82,16.61L29,16.72L29,4.738L29,4.369L28.65,4.26L14.88,0.02207zz" fill="#787979" opacity="0.6"/>
      <path d="M0.5,24L14.43,29.38L16.5,28.6L16.14,27.82L15.79,26.76L15.57,25.65L15.57,25.61L14.43,26.03L0.5,20.72zz" fill="#FFFFFF"/>
      <path d="M0.5,24L14.43,29.38L16.5,28.6L16.14,27.82L15.79,26.76L15.57,25.65L15.57,25.61L14.43,26.03L0.5,20.72zz" fill="#C8C6C4" opacity="0.5"/>
      <path d="M0,20.72L0,24L0,24.34L0.3197,24.46L14.25,29.85L14.43,29.92L14.6,29.85L16.75,29.04L16.61,28.82L16.29,28.14L14.43,28.85L1,23.65L1,21.45L14.25,26.5L14.43,26.57L14.6,26.5L15.66,26.11L15.57,25.65L15.54,25.09L14.43,25.5L0.6781,20.26L0,20zz" fill="#383838"/>
      <path d="M0.5,4.7L0.5,20.6L14.5,16.1L14.5,0.7zz" fill="#FFFFFF"/>
      <path d="M5.5,9.178L5.5,18.6L10.5,17.1L10.5,7.68zz" fill="#FFFFFF"/>
      <path d="M10.36,7.201L5.356,8.699L5,8.806L5,9.178L5,18.6L6,18.6L6,9.55L10,8.352L10,17.1L11,17.1L11,7.68L11,7.008zz" fill="#228BCB"/>
      <path d="M14.36,0.2191L0.3627,4.219L0,4.323L0,4.7L0,20.6L0,21.29L0.6529,21.08L14.65,16.58L15,16.46L15,16.1L15,0.7L15,0.03711zM14,15.74L1,19.91L1,5.077L14,1.363zz" fill="#383838"/>
    </g>
    <g id="overlay">
      <circle cx="24.5" cy="24.5" r="7" fill="#92CBEE"/>
      <circle cx="24.5" cy="24.5" r="7" fill="#0964B0" opacity="0.2"/>
      <path d="M24.5,32c-4.135,0,-7.5,-3.365,-7.5,-7.5s3.365,-7.5,7.5,-7.5s7.5,3.365,7.5,7.5S28.635,32,24.5,32zM24.5,18c-3.584,0,-6.5,2.916,-6.5,6.5s2.916,6.5,6.5,6.5s6.5,-2.916,6.5,-6.5S28.084,18,24.5,18z" fill="#0964B0"/>
      <path d="M23.953,27.042v-0.865c-0.017,-1.014,0.736,-1.408,1.34,-1.725l0.062,-0.033c0.711,-0.376,1.178,-0.687,1.194,-1.549c0.008,-0.461,-0.161,-0.892,-0.477,-1.213c-0.39,-0.397,-0.968,-0.607,-1.673,-0.607c-0.907,0,-1.591,0.388,-1.926,1.094l-0.013,0.026c-0.078,0.143,-0.185,0.452,-0.221,0.636l-0.01,0.049l-1.08,-0.21l0.01,-0.049c0.049,-0.251,0.184,-0.671,0.327,-0.937c0.521,-1.085,1.583,-1.708,2.913,-1.708c1.272,0,2.039,0.509,2.458,0.936c0.524,0.534,0.805,1.246,0.791,2.004c-0.03,1.575,-1.084,2.133,-1.781,2.502l-0.065,0.034c-0.603,0.316,-0.756,0.43,-0.751,0.741l0,0.874H23.953zM25.3,28h-1.6v1.3h1.6V28z" fill="#FFFFFF"/>
    </g>
  </g>
</svg>
