<?xml version="1.0" encoding="UTF-8"?>
<!DOCTYPE svg PUBLIC "-//W3C//DTD SVG 1.1//EN" "http://www.w3.org/Graphics/SVG/1.1/DTD/svg11.dtd">
<svg version="1.1" id="Layer_1" xmlns="http://www.w3.org/2000/svg" xmlns:xlink="http://www.w3.org/1999/xlink" x="0px" y="0px" width="32px" height="32px" viewBox="0 0 32 32" enable-background="new 0 0 32 32" xml:space="preserve">
  <g id="icon">
    <path d="M27.935,30.9c0,-5.845,-5.08,-11.342,-11.935,-11.342S4.065,25.055,4.065,30.9" fill="#C8C6C4" stroke="#383838" stroke-width="1.1" stroke-miterlimit="10"/>
    <path d="M7.816,7.699C9.008,4.419,12.275,1.6,16,1.6c3.729,0,6.903,2.351,8.092,5.637" fill="none" stroke="#383838" stroke-width="1.1" stroke-miterlimit="10"/>
    <path d="M23.996,13.24c-1.258,3.7,-4.364,6.318,-7.996,6.318c-3.658,0,-6.782,-2.654,-8.022,-6.395" fill="none" stroke="#383838" stroke-width="1.1" stroke-miterlimit="10"/>
    <path d="M24.75,10.575c0,4.957,-3.895,8.975,-8.7,8.975s-8.7,-4.018,-8.7,-8.975S11.245,1.6,16.05,1.6S24.75,5.618,24.75,10.575z" fill="#FCD8BB"/>
    <path d="M14.1,14.5H8.4" fill="none" stroke="#787979" stroke-width="1" stroke-miterlimit="10"/>
    <path d="M16.05,20.1c-5.1,0,-9.25,-4.273,-9.25,-9.525s4.15,-9.525,9.25,-9.525S25.3,5.323,25.3,10.575S21.15,20.1,16.05,20.1zM16.05,2.15c-4.494,0,-8.15,3.779,-8.15,8.425S11.556,19,16.05,19s8.15,-3.779,8.15,-8.425S20.544,2.15,16.05,2.15z" fill="#AF6E41"/>
    <path d="M5.5,8.491v4.024c0,0.561,0.756,1.016,1.626,1.016c0.87,0,1.374,-0.455,1.374,-1.016V8.491c0,-0.561,-0.134,-1.016,-1.004,-1.016c-0.36,0,-1.111,0.079,-1.377,0.209c-0.017,0.008,-0.032,0.018,-0.048,0.027C5.724,7.898,5.5,8.177,5.5,8.491zM25.929,7.711c-0.016,-0.009,-0.032,-0.018,-0.048,-0.027c-0.265,-0.131,-1.017,-0.209,-1.377,-0.209c-0.87,0,-1.004,0.455,-1.004,1.016v4.024c0,0.561,0.504,1.016,1.374,1.016c0.87,0,1.626,-0.455,1.626,-1.016V8.491C26.5,8.177,26.276,7.898,25.929,7.711z" fill="#92CBEE" stroke="#0964B0" stroke-width="1" stroke-linecap="round" stroke-miterlimit="10"/>
    <path d="M14.135,14.526c0,0.74,0.664,1.34,1.866,1.34s1.866,-0.6,1.866,-1.34c0,-0.74,-0.664,-1.34,-1.866,-1.34S14.135,13.786,14.135,14.526" fill="#92CBEE" stroke="#0964B0" stroke-width="1" stroke-linecap="round" stroke-miterlimit="10"/>
  </g>
</svg>
