<?xml version="1.0" encoding="UTF-8"?>
<!DOCTYPE svg PUBLIC "-//W3C//DTD SVG 1.1//EN" "http://www.w3.org/Graphics/SVG/1.1/DTD/svg11.dtd">
<svg version="1.1" id="Layer_1" xmlns="http://www.w3.org/2000/svg" xmlns:xlink="http://www.w3.org/1999/xlink" x="0px" y="0px" width="32px" height="32px" viewBox="0 0 32 32" enable-background="new 0 0 32 32" xml:space="preserve">
  <g id="icon">
    <path d="M30.5,11.229V7.5H1.5v3.729c2.028,0.637,3.5,2.532,3.5,4.771c0,2.239,-1.472,4.134,-3.5,4.771V24.5h29v-3.729c-2.028,-0.637,-3.5,-2.532,-3.5,-4.771C27,13.761,28.472,11.866,30.5,11.229z" fill="#FFFFFF"/>
    <path d="M30.5,11.229V7.5H1.5v3.729c2.028,0.637,3.5,2.532,3.5,4.771c0,2.239,-1.472,4.134,-3.5,4.771V24.5h29v-3.729c-2.028,-0.637,-3.5,-2.532,-3.5,-4.771C27,13.761,28.472,11.866,30.5,11.229z" fill="#8DDFFE" opacity="0.5"/>
    <path d="M30.5,11.229V7.5H1.5v3.729c2.028,0.637,3.5,2.532,3.5,4.771c0,2.239,-1.472,4.134,-3.5,4.771V24.5h29v-3.729c-2.028,-0.637,-3.5,-2.532,-3.5,-4.771C27,13.761,28.472,11.866,30.5,11.229z" fill="none" stroke="#005170" stroke-width="1" stroke-miterlimit="10"/>
    <path d="M20.5,9v2M20.5,12v2M20.5,15v2M20.5,18v2M20.5,21v2" fill="#8DDFFE" stroke="#005170" stroke-width="1" stroke-miterlimit="10"/>
    <path d="M8,11.5h9M8,13.5h5M8,15.5h7M8,20.5h9" fill="#8DDFFE" stroke="#005170" stroke-width="1" stroke-miterlimit="10"/>
  </g>
</svg>
