<?xml version="1.0" encoding="UTF-8"?>
<!DOCTYPE svg PUBLIC "-//W3C//DTD SVG 1.1//EN" "http://www.w3.org/Graphics/SVG/1.1/DTD/svg11.dtd">
<svg version="1.1" id="Layer_1" xmlns="http://www.w3.org/2000/svg" xmlns:xlink="http://www.w3.org/1999/xlink" x="0px" y="0px" width="32px" height="32px" viewBox="0 0 32 32" enable-background="new 0 0 32 32" xml:space="preserve">
  <g id="main">
    <g id="icon">
      <path d="M22.39,4.05L22.47,4.232L22.6,4.374L22.77,4.467L22.96,4.5L23.5,4.5L24.04,4.5L24.23,4.467L24.4,4.374L24.53,4.232L24.61,4.05L25.3,0.5L21.7,0.5zz" fill="#8DDFFE"/>
      <path d="M21.38,0.1133L21.21,0.402L21.21,0.5949L21.9,4.145L21.93,4.25L22.01,4.432L22.1,4.571L22.23,4.713L22.36,4.813L22.53,4.906L22.68,4.96L22.88,4.993L22.96,5L23,5L23,12.92L23.9,13.56L23.96,13.49L24,13.3L24,5L24.04,5L24.12,4.993L24.32,4.96L24.47,4.906L24.64,4.813L24.77,4.713L24.9,4.571L24.99,4.432L25.07,4.251L25.1,4.145L25.79,0.5949L25.74,0.2623L25.49,0.0373L25.3,0L21.7,0zM24.69,1L24.13,3.901L24.11,3.954L24.09,3.975L24.07,3.988L23.99,4L23.01,4L22.93,3.988L22.91,3.975L22.89,3.955L22.87,3.901L22.31,1zz" fill="#005170"/>
      <path d="M20.5,16L20.5,19.71L22.15,18.49L22.01,14.64zM20.5,23.91L21.01,23.4L20.5,23.26zz" fill="#81DCFF"/>
      <path d="M23.2,12.9L23.17,12.93L23.1,12.99L26.89,15.68L26.89,15.68L26.83,15.63L23.83,12.93L23.52,12.8zM20.17,15.63L20.01,15.92L20,16L20,20.08L21,19.34L21,16.22L22.03,15.29L21.99,13.99zM20,24.41L21,23.41L21,23.4L20,23.11zz" fill="#0086B9"/>
      <path d="M5.577,1.002L4.735,1.51L3.985,2.134L3.342,2.862L2.819,3.683L2.428,4.588L2.184,5.563L2.1,6.6L2.184,7.642L2.428,8.631L2.819,9.555L3.342,10.4L3.985,11.15L4.735,11.79L5.577,12.31L6.5,12.7L6.5,26.5L6.561,27.1L6.736,27.67L7.012,28.18L7.379,28.62L7.823,28.99L8.332,29.26L8.895,29.44L9.5,29.5L10.1,29.44L10.67,29.26L11.18,28.99L11.62,28.62L11.99,28.18L12.26,27.67L12.44,27.1L12.5,26.5L12.5,12.7L13.42,12.31L14.27,11.79L15.02,11.15L15.66,10.4L16.18,9.555L16.57,8.631L16.82,7.642L16.9,6.6L16.82,5.563L16.57,4.588L16.18,3.683L15.66,2.862L15.02,2.134L14.27,1.51L13.42,1.002L12.5,0.6199L12.5,5.6L12.44,6.205L12.26,6.768L11.99,7.277L11.62,7.721L11.18,8.088L10.67,8.364L10.1,8.539L9.5,8.6L8.895,8.539L8.332,8.364L7.823,8.088L7.379,7.721L7.012,7.277L6.736,6.768L6.561,6.205L6.5,5.6L6.5,0.6199zz" fill="#8DDFFE"/>
      <path d="M6.309,0.158L5.386,0.5402L5.319,0.574L4.476,1.082L4.415,1.126L3.665,1.75L3.61,1.803L2.967,2.531L2.92,2.593L2.397,3.415L2.359,3.485L1.969,4.389L1.943,4.466L1.699,5.442L1.686,5.523L1.602,6.56L1.602,6.64L1.686,7.682L1.699,7.762L1.943,8.751L1.968,8.826L2.358,9.75L2.394,9.819L2.917,10.66L2.962,10.72L3.605,11.47L3.66,11.53L4.409,12.17L4.471,12.22L5.314,12.74L5.384,12.77L6,13.03L6,26.5L6.003,26.55L6.063,27.15L6.083,27.25L6.258,27.82L6.296,27.91L6.573,28.42L6.627,28.5L6.993,28.94L7.06,29.01L7.504,29.37L7.584,29.43L8.094,29.7L8.184,29.74L8.747,29.92L8.845,29.94L9.45,30L9.55,30L10.15,29.94L10.25,29.92L10.82,29.74L10.91,29.7L11.42,29.43L11.5,29.37L11.94,29.01L12.01,28.94L12.37,28.5L12.43,28.42L12.7,27.91L12.74,27.82L12.92,27.25L12.94,27.15L13,26.55L13,26.5L13,13.03L13.62,12.77L13.69,12.74L14.53,12.22L14.59,12.17L15.34,11.53L15.39,11.47L16.04,10.72L16.08,10.66L16.61,9.819L16.64,9.75L17.03,8.826L17.06,8.751L17.3,7.762L17.31,7.682L17.4,6.64L17.4,6.56L17.31,5.523L17.3,5.442L17.06,4.466L17.03,4.389L16.64,3.485L16.6,3.415L16.08,2.593L16.03,2.531L15.39,1.803L15.33,1.75L14.59,1.126L14.52,1.082L13.68,0.574L13.61,0.5402L12.69,0.158L12.36,0.1414L12.08,0.3418L12,0.6199L12,5.575L11.95,6.104L11.8,6.573L11.57,6.996L11.27,7.366L10.9,7.671L10.47,7.901L10,8.047L9.5,8.097L8.996,8.047L8.527,7.901L8.104,7.671L7.734,7.366L7.429,6.996L7.199,6.573L7.053,6.104L7,5.575L7,0.6199L6.887,0.3029L6.598,0.1297zM6,5.6L6.003,5.65L6.063,6.255L6.083,6.353L6.258,6.916L6.296,7.006L6.573,7.516L6.627,7.596L6.993,8.04L7.06,8.107L7.504,8.473L7.584,8.527L8.094,8.804L8.184,8.842L8.747,9.017L8.845,9.037L9.45,9.097L9.55,9.097L10.15,9.037L10.25,9.017L10.82,8.842L10.91,8.804L11.42,8.527L11.5,8.473L11.94,8.107L12.01,8.04L12.37,7.596L12.43,7.516L12.7,7.006L12.74,6.916L12.92,6.353L12.94,6.255L13,5.65L13,5.6L13,1.368L13.2,1.45L13.97,1.919L14.67,2.493L15.26,3.164L15.74,3.919L16.1,4.748L16.32,5.645L16.4,6.6L16.32,7.561L16.1,8.474L15.74,9.325L15.25,10.1L14.66,10.79L13.97,11.39L13.19,11.87L12.31,12.24L12.06,12.47L12,12.7L12,26.48L11.95,27L11.8,27.47L11.57,27.9L11.27,28.27L10.9,28.57L10.47,28.8L10,28.95L9.5,29L8.996,28.95L8.527,28.8L8.104,28.57L7.734,28.27L7.429,27.9L7.199,27.47L7.053,27L7,26.48L7,12.7L6.887,12.38L6.693,12.24L5.807,11.87L5.031,11.39L4.34,10.79L3.746,10.1L3.264,9.325L2.904,8.474L2.679,7.561L2.602,6.6L2.679,5.645L2.904,4.748L3.262,3.919L3.742,3.164L4.335,2.493L5.025,1.919L5.803,1.45L6,1.368zz" fill="#005170"/>
    </g>
    <g id="overlay">
      <path d="M26.793,18.071l3.146,-1.142l-1.003,3.186L31,22.747l-3.349,0.031l0,0l-1.871,2.769l-1.067,-3.167l-3.22,-0.921l2.69,-1.988l-0.119,-3.338L26.793,18.071C26.793,18.071,26.793,18.071,26.793,18.071zM15.6,31.634l9.082,-9.082" fill="#FFFFFF" stroke="#ED8730" stroke-width="1" stroke-miterlimit="10"/>
    </g>
  </g>
</svg>
