<?xml version="1.0" encoding="UTF-8"?>
<!DOCTYPE svg PUBLIC "-//W3C//DTD SVG 1.1//EN" "http://www.w3.org/Graphics/SVG/1.1/DTD/svg11.dtd">
<svg version="1.1" id="Layer_1" xmlns="http://www.w3.org/2000/svg" xmlns:xlink="http://www.w3.org/1999/xlink" x="0px" y="0px" width="32px" height="32px" viewBox="0 0 32 32" enable-background="new 0 0 32 32" xml:space="preserve">
  <g id="icon">
    <path d="M11.937,17.858c-0.569,-0.777,-2.073,-2.753,-2.389,-3.06c-0.955,-0.929,-1.689,-0.965,-2.6,0c-1.005,1.065,-1.98,2.166,-2.874,3.323c-1.295,1.677,-2.355,3.455,-2.501,5.676c-0.114,1.741,-0.157,3.159,0.353,4.803c0.114,0.368,0.305,0.674,0.563,0.91c0.236,0.257,0.542,0.449,0.91,0.563c1.644,0.511,3.062,0.468,4.803,0.353c2.221,-0.146,3.999,-1.205,5.676,-2.501c1.157,-0.894,2.258,-1.87,3.323,-2.874c0.965,-0.911,0.929,-1.644,0,-2.6c-0.281,-0.289,-2.1,-1.779,-2.855,-2.335" fill="#C8C6C4" stroke="#383838" stroke-width="1" stroke-miterlimit="10"/>
    <path d="M29.695,7.631c-0.819,-0.817,-4.509,-4.507,-5.326,-5.326c-1.031,-1.033,-2.614,-1.084,-3.69,-0.081c-0.63,0.587,-1.264,1.18,-1.822,1.834c-0.908,1.063,-1.159,2.305,-0.687,3.631c0.28,0.786,0.42,1.36,0.752,2.148c0.173,0.457,0.173,0.73,-0.213,1.116c-1.744,1.743,-7.282,7.614,-7.282,7.614s-2.35,3.74,-2.009,4.081c0.415,0.415,4.209,-1.88,4.209,-1.88s5.677,-5.732,7.42,-7.476c0.387,-0.386,0.659,-0.386,1.116,-0.213c0.787,0.333,1.361,0.472,2.148,0.752c1.326,0.472,2.569,0.221,3.631,-0.687c0.654,-0.558,1.247,-1.192,1.834,-1.822C30.779,10.245,30.728,8.662,29.695,7.631zM27.6,10.1c-0.391,0.391,-1.024,0.391,-1.414,0L21.8,5.714c-0.391,-0.391,-0.391,-1.024,0,-1.414c0.391,-0.391,1.024,-0.391,1.414,0L27.6,8.686C27.991,9.076,27.991,9.709,27.6,10.1z" fill="#92CBEE" stroke="#0964B0" stroke-width="1" stroke-miterlimit="10"/>
  </g>
</svg>
