<?xml version="1.0" encoding="UTF-8"?>
<!DOCTYPE svg PUBLIC "-//W3C//DTD SVG 1.1//EN" "http://www.w3.org/Graphics/SVG/1.1/DTD/svg11.dtd">
<svg version="1.1" id="Layer_1" xmlns="http://www.w3.org/2000/svg" xmlns:xlink="http://www.w3.org/1999/xlink" x="0px" y="0px" width="32px" height="32px" viewBox="0 0 32 32" enable-background="new 0 0 32 32" xml:space="preserve">
  <g id="icon">
    <path d="M20.874,17.756c0,2.682,-2.178,4.856,-4.865,4.856s-4.865,-2.174,-4.865,-4.856S13.322,12.9,16.008,12.9S20.874,15.074,20.874,17.756zM24.116,32c0,-4.688,-3.723,-9.355,-8.075,-9.355S7.9,27.312,7.9,32" fill="#FFFFFF" stroke="#228BCB" stroke-width="1.2" stroke-miterlimit="10"/>
    <path d="M25.533,11.557l0.305,0.001c3.214,1.16,5.546,4.452,5.546,8.041h-8.869c0.168,-0.592,0.258,-1.211,0.258,-1.844c0,-2.318,-1.176,-4.367,-2.962,-5.584c0.432,-0.254,0.887,-0.468,1.362,-0.634l0.318,0.001C22.845,11.656,24.192,11.66,25.533,11.557zM0.666,19.6h8.835c-0.168,-0.592,-0.258,-1.211,-0.258,-1.844c0,-2.325,1.182,-4.379,2.977,-5.595c-0.408,-0.238,-0.836,-0.441,-1.282,-0.602l-0.305,-0.001c-1.341,0.103,-2.689,0.099,-4.042,-0.019l-0.318,-0.001C3.028,12.675,0.666,15.988,0.666,19.6zM17.964,10.712c0.551,0.384,1.564,0.644,3.064,0.783c0.154,0.016,0.308,0.03,0.463,0.043l4.042,0.019c0.157,-0.012,0.314,-0.024,0.471,-0.039c1.095,-0.04,2.15,-0.189,3.062,-0.818c0.19,-0.131,0.191,-0.406,-0.001,-0.534c-0.621,-0.414,-0.837,-1.071,-0.954,-1.754c-0.125,-0.727,-0.163,-1.472,-0.174,-2.211c-0.016,-1.064,-0.071,-2.112,-0.426,-3.134c-0.656,-1.885,-2.528,-2.562,-4.002,-2.457c-0.514,0.037,-0.981,0.234,-1.389,0.555c-0.102,0.08,-0.249,0.155,-0.373,0.151c-1.237,-0.038,-1.977,0.668,-2.373,1.602c-0.263,0.62,-0.4,1.274,-0.414,1.937c-0.016,0.766,0.033,1.533,0.07,2.299c0.038,0.794,-0.02,1.568,-0.413,2.286c-0.184,0.335,-0.352,0.531,-0.65,0.737C17.776,10.308,17.774,10.58,17.964,10.712zM11.104,11.518c1.095,-0.04,2.15,-0.189,3.062,-0.818c0.19,-0.131,0.191,-0.406,-0.001,-0.534c-0.621,-0.414,-0.837,-1.071,-0.954,-1.754c-0.125,-0.727,-0.163,-1.472,-0.174,-2.211c-0.016,-1.064,-0.071,-2.112,-0.426,-3.134c-0.656,-1.885,-2.528,-2.562,-4.002,-2.457c-0.514,0.037,-0.981,0.234,-1.389,0.555c-0.102,0.08,-0.249,0.155,-0.373,0.151c-1.237,-0.038,-1.977,0.668,-2.373,1.602c-0.263,0.62,-0.4,1.274,-0.414,1.937c-0.016,0.766,0.033,1.533,0.07,2.299c0.038,0.794,-0.02,1.568,-0.413,2.286c-0.184,0.335,-0.352,0.531,-0.65,0.737c-0.191,0.132,-0.193,0.403,-0.003,0.536c0.551,0.384,1.564,0.644,3.064,0.783c0.154,0.016,0.308,0.03,0.463,0.043l4.042,0.019C10.79,11.545,10.947,11.533,11.104,11.518z" fill="#FFFFFF"/>
    <path d="M6.546,12.138c1.365,0.118,2.748,0.124,4.125,0.019l0.159,0.001c0.299,0.113,0.588,0.245,0.868,0.395c0.813,-0.673,1.786,-1.159,2.853,-1.394c0.227,-0.177,0.361,-0.448,0.359,-0.736c-0.002,-0.305,-0.156,-0.588,-0.411,-0.757c-0.371,-0.247,-0.573,-0.64,-0.696,-1.356c-0.101,-0.591,-0.152,-1.244,-0.166,-2.118c-0.016,-1.059,-0.065,-2.188,-0.46,-3.322C12.429,0.721,10.322,-0.113,8.566,0.012c-0.62,0.044,-1.198,0.274,-1.717,0.681c-0.012,0.009,-0.024,0.017,-0.034,0.022C5.494,0.693,4.469,1.39,3.921,2.684c-0.29,0.685,-0.446,1.411,-0.462,2.158c-0.014,0.669,0.02,1.339,0.053,1.987l0.018,0.354c0.042,0.868,-0.06,1.457,-0.34,1.969c-0.142,0.26,-0.251,0.384,-0.464,0.531c-0.252,0.174,-0.403,0.458,-0.404,0.761c-0.001,0.302,0.148,0.586,0.398,0.761c0.374,0.261,0.901,0.468,1.592,0.625C1.744,13.47,0.066,16.436,0.066,19.6h1.2c0,-3.304,2.096,-6.357,5.11,-7.462L6.546,12.138zM3.743,10.401c0.193,-0.184,0.347,-0.394,0.5,-0.673c0.498,-0.91,0.521,-1.869,0.486,-2.603l-0.018,-0.357c-0.032,-0.627,-0.065,-1.275,-0.052,-1.901c0.013,-0.594,0.136,-1.171,0.367,-1.716c0.363,-0.858,0.954,-1.262,1.802,-1.236c0.352,0.011,0.65,-0.191,0.761,-0.279c0.327,-0.257,0.685,-0.401,1.062,-0.428c1.301,-0.093,2.854,0.506,3.392,2.055c0.336,0.966,0.378,1.985,0.393,2.946c0.01,0.632,0.039,1.464,0.183,2.303c0.104,0.604,0.3,1.337,0.883,1.889c-0.751,0.399,-1.602,0.486,-2.42,0.516l-0.035,0.002c-0.14,0.013,-0.28,0.025,-0.42,0.036l-4.026,-0.019c-0.139,-0.012,-0.279,-0.026,-0.418,-0.04C4.904,10.779,4.167,10.584,3.743,10.401zM27.83,11.892c0.537,-0.135,1.074,-0.351,1.577,-0.698c0.254,-0.175,0.405,-0.463,0.402,-0.77c-0.003,-0.305,-0.156,-0.588,-0.411,-0.757c-0.371,-0.247,-0.573,-0.64,-0.695,-1.356c-0.101,-0.591,-0.153,-1.244,-0.166,-2.118c-0.016,-1.059,-0.065,-2.188,-0.46,-3.322c-0.747,-2.149,-2.855,-2.984,-4.611,-2.858c-0.62,0.044,-1.198,0.274,-1.717,0.681c-0.012,0.009,-0.024,0.017,-0.034,0.022c-1.321,-0.023,-2.345,0.675,-2.893,1.968c-0.29,0.685,-0.446,1.411,-0.462,2.158c-0.014,0.669,0.02,1.339,0.053,1.987l0.018,0.354c0.042,0.868,-0.06,1.457,-0.34,1.969c-0.142,0.26,-0.251,0.384,-0.464,0.531c-0.252,0.174,-0.403,0.458,-0.404,0.761c-0.001,0.295,0.142,0.573,0.382,0.748c1.018,0.247,1.947,0.723,2.727,1.372c0.303,-0.163,0.618,-0.307,0.944,-0.427l0.17,0.001c1.365,0.118,2.748,0.124,4.125,0.019l0.159,0.001c2.981,1.123,5.055,4.168,5.055,7.442h1.2C31.985,16.484,30.346,13.547,27.83,11.892zM25.947,10.921c-0.14,0.013,-0.28,0.025,-0.42,0.036l-4.026,-0.019c-0.139,-0.012,-0.279,-0.026,-0.418,-0.04c-1.281,-0.119,-2.017,-0.314,-2.441,-0.497c0.193,-0.184,0.347,-0.394,0.5,-0.673c0.498,-0.91,0.521,-1.869,0.486,-2.603l-0.018,-0.357c-0.032,-0.627,-0.065,-1.275,-0.052,-1.901c0.013,-0.594,0.136,-1.171,0.367,-1.716c0.363,-0.858,0.955,-1.262,1.802,-1.236c0.351,0.011,0.65,-0.191,0.761,-0.279c0.327,-0.257,0.685,-0.401,1.062,-0.428c1.3,-0.094,2.854,0.506,3.392,2.055c0.336,0.966,0.379,1.985,0.393,2.946c0.01,0.632,0.039,1.464,0.183,2.303c0.104,0.604,0.299,1.337,0.883,1.889c-0.751,0.399,-1.602,0.486,-2.42,0.516L25.947,10.921z" fill="#A0519F"/>
  </g>
</svg>
