<?xml version="1.0" encoding="UTF-8"?>
<!DOCTYPE svg PUBLIC "-//W3C//DTD SVG 1.1//EN" "http://www.w3.org/Graphics/SVG/1.1/DTD/svg11.dtd">
<svg version="1.1" id="Layer_1" xmlns="http://www.w3.org/2000/svg" xmlns:xlink="http://www.w3.org/1999/xlink" x="0px" y="0px" width="32px" height="32px" viewBox="0 0 32 32" enable-background="new 0 0 32 32" xml:space="preserve">
  <g id="main">
    <g id="icon">
      <path d="M8.318,0.59L7.954,0.6453L7.609,0.7553L7.282,0.9166L6.976,1.126L6.804,1.229L6.616,1.272L6.19,1.291L5.807,1.371L5.466,1.507L5.165,1.693L4.902,1.923L4.675,2.192L4.324,2.819L4.034,3.739L3.924,4.69L3.938,5.801L3.992,6.911L3.999,7.482L3.949,8.043L3.821,8.589L3.593,9.119L3.321,9.522L2.965,9.831L2.861,9.947L2.826,10.09L2.86,10.23L2.963,10.35L3.446,10.6L4.099,10.82L4.924,10.98L5.923,11.11L6.359,11.15L6.063,11.14L5.485,11.38L4.93,11.65L3.894,12.34L2.971,13.17L2.179,14.14L1.533,15.23L1.051,16.4L0.7502,17.64L0.6725,18.28L0.6461,18.93L9.207,18.93L9.201,18.78L9.184,18.43L9.139,17.42L9.13,16.37L9.176,15.7L9.284,15.04L9.454,14.4L9.686,13.77L10.04,13.09L10.47,12.49L10.97,12L11.55,11.6L10.57,11.17L10.29,11.16L10.73,11.13L11.51,11.07L12.27,10.95L13,10.71L13.69,10.34L13.79,10.22L13.82,10.08L13.79,9.936L13.69,9.821L13.3,9.48L13.04,9.071L12.87,8.614L12.76,8.127L12.64,7.064L12.59,5.992L12.51,4.463L12.39,3.709L12.18,2.964L11.89,2.335L11.51,1.81L11.06,1.385L10.55,1.055L10,0.8158L9.434,0.6617L8.867,0.5881zM22.71,0.59L22.35,0.6453L22,0.7553L21.67,0.9166L21.37,1.126L21.2,1.229L21.01,1.272L20.58,1.291L20.2,1.371L19.86,1.507L19.56,1.693L19.29,1.923L19.07,2.192L18.72,2.819L18.43,3.739L18.32,4.69L18.33,5.801L18.38,6.911L18.39,7.482L18.34,8.043L18.21,8.589L17.98,9.119L17.71,9.522L17.36,9.831L17.25,9.947L17.22,10.09L17.25,10.23L17.36,10.35L17.84,10.6L18.49,10.82L19.32,10.98L20.32,11.11L20.76,11.15L20.46,11.14L19.44,11.59L20,12.1L20.47,12.68L20.87,13.32L21.18,14.03L21.45,15L21.6,15.93L21.61,15.99L21.83,15.91L22.69,15.68L23.58,15.55L24.5,15.5L25.65,15.57L26.76,15.79L27.82,16.14L28.82,16.61L29.74,17.19L30.2,17.56L29.92,16.42L29.44,15.25L28.81,14.17L28.02,13.2L27.11,12.36L26.08,11.68L25.53,11.4L24.96,11.17L24.67,11.17L22.72,11.24L20.77,11.15L24.67,11.16L25.12,11.13L25.91,11.07L26.67,10.94L27.39,10.71L28.08,10.34L28.18,10.22L28.22,10.08L28.18,9.935L28.08,9.82L27.7,9.479L27.44,9.071L27.26,8.613L27.16,8.126L27.03,7.063L26.99,5.991L26.91,4.462L26.78,3.708L26.58,2.963L26.29,2.334L25.91,1.81L25.45,1.385L24.94,1.055L24.39,0.8158L23.83,0.6617L23.26,0.5881zM10.25,11.16L8.326,11.23L6.394,11.15zz" fill="#FFFFFF"/>
      <path d="M22.67,0.01191L22.23,0.07754L21.8,0.2094L21.4,0.407L21.01,0.6699L20.98,0.691L20.51,0.7152L20.08,0.8031L19.67,0.9535L19.3,1.165L18.96,1.436L18.66,1.765L18.4,2.151L18.18,2.592L18,3.096L17.86,3.612L17.77,4.14L17.74,4.677L17.79,6.597L17.81,6.939L17.81,7.521L17.76,8.019L17.65,8.453L17.48,8.841L17.28,9.138L17.03,9.354L16.87,9.499L16.74,9.675L16.67,9.875L16.64,10.09L16.71,10.43L17.61,10.63L18.46,10.97L19.23,11.43L19.9,12L20.56,11.73L20.72,11.73L22.71,11.82L24.7,11.74L24.86,11.74L25.89,12.24L26.84,12.88L27.67,13.66L28.38,14.56L28.96,15.56L29.38,16.63L29.47,17.02L29.74,17.19L30.59,17.88L30.85,18.15L30.83,17.82L30.61,16.73L30.27,15.68L29.8,14.68L29.22,13.75L28.54,12.9L27.76,12.14L26.89,11.49L27.66,11.23L28.41,10.81L28.57,10.67L28.7,10.49L28.77,10.29L28.8,10.07L28.77,9.855L28.69,9.655L28.57,9.48L28.4,9.338L28.16,9.13L27.98,8.853L27.83,8.491L27.73,8.028L27.62,7.107L27.57,5.982L27.48,4.404L27.35,3.593L27.13,2.773L26.8,2.053L26.36,1.449L25.85,0.9549L25.26,0.5682L24.63,0.2846L23.98,0.1L23.32,0.01055zM8.277,0.01191L7.836,0.07754L7.411,0.2094L7.005,0.407L6.618,0.6699L6.585,0.691L6.12,0.7152L5.685,0.8031L5.28,0.9535L4.908,1.165L4.571,1.436L4.271,1.765L4.01,2.152L3.79,2.593L3.604,3.096L3.467,3.613L3.38,4.141L3.344,4.678L3.395,6.598L3.412,6.94L3.416,7.521L3.365,8.02L3.255,8.454L3.084,8.842L2.886,9.139L2.636,9.355L2.473,9.5L2.35,9.676L2.273,9.876L2.246,10.09L2.272,10.3L2.347,10.5L2.469,10.68L2.631,10.83L3.285,11.16L4.169,11.43L3.28,12.08L2.481,12.84L1.78,13.69L1.187,14.63L0.7098,15.63L0.358,16.7L0.1404,17.8L0.06602,18.93L1.225,18.93L1.318,17.75L1.587,16.61L2.019,15.53L2.601,14.53L3.32,13.63L4.162,12.85L5.113,12.21L6.161,11.73L6.326,11.73L8.314,11.82L10.31,11.74L10.47,11.74L11,11.97L11.51,11.62L12.06,11.36L12.65,11.17L13.28,11.08L13.75,10.81L14.23,10.61L14.36,10.35L14.41,10.07L14.38,9.854L14.3,9.654L14.17,9.479L14.01,9.337L13.77,9.129L13.58,8.852L13.44,8.49L13.34,8.027L13.22,7.106L13.18,5.981L13.09,4.404L12.96,3.591L12.73,2.772L12.4,2.053L11.97,1.448L11.45,0.9549L10.87,0.5686L10.24,0.285L9.587,0.1004L8.926,0.01074zM23.72,1.229L24.21,1.362L24.67,1.565L25.1,1.844L25.48,2.199L25.79,2.634L26.03,3.153L26.23,3.861L26.34,4.578L26.41,5.999L26.45,7.036L26.59,8.223L26.68,8.679L26.84,9.155L27.08,9.62L27.44,10.05L26.88,10.28L26.3,10.43L25.7,10.51L25.1,10.55L25.07,10.55L24.66,10.58L20.77,10.57L20.37,10.53L18.88,10.31L18.01,10.05L18.27,9.758L18.49,9.398L18.78,8.734L18.92,8.077L18.97,7.452L18.96,6.883L18.95,6.538L18.9,4.702L18.99,3.855L19.25,3.045L19.56,2.505L19.95,2.128L20.42,1.91L20.99,1.851L21.23,1.825L21.45,1.752L21.73,1.582L22.22,1.292L22.75,1.168L23.23,1.166zM9.329,1.23L9.812,1.362L10.27,1.566L10.7,1.844L11.08,2.199L11.4,2.635L11.64,3.153L11.83,3.861L11.94,4.578L12.02,5.999L12.06,7.036L12.19,8.223L12.29,8.679L12.45,9.155L12.69,9.62L13.05,10.05L12.49,10.28L11.9,10.43L11.31,10.51L10.71,10.55L10.68,10.55L10.27,10.58L6.381,10.57L5.978,10.53L4.487,10.31L3.618,10.05L3.874,9.758L4.101,9.398L4.382,8.734L4.529,8.077L4.579,7.452L4.57,6.883L4.553,6.538L4.503,4.702L4.601,3.855L4.857,3.045L5.162,2.505L5.552,2.128L6.03,1.91L6.598,1.851L6.841,1.825L7.053,1.752L7.334,1.582L7.829,1.292L8.36,1.168L8.84,1.166zz" fill="#A0519F"/>
      <path d="M15.48,12.2L15.1,12.26L14.75,12.37L14.41,12.54L14.1,12.75L13.92,12.86L13.73,12.9L13.29,12.92L12.9,13L12.55,13.14L12.24,13.34L11.97,13.57L11.74,13.85L11.38,14.49L11.08,15.44L10.97,16.41L10.98,17.55L11.03,18.69L11.04,19.28L10.99,19.85L10.86,20.41L10.63,20.96L10.35,21.37L9.981,21.69L9.874,21.81L9.838,21.95L9.873,22.1L9.978,22.22L10.47,22.48L11.14,22.7L11.99,22.87L13.02,22.99L13.56,23.04L15.63,23.05L15.68,22.69L15.91,21.83L16.21,21L16.59,20.21L17.04,19.47L17.56,18.78L18.14,18.14L18.78,17.56L19.47,17.04L19.82,16.83L19.78,16.18L19.65,15.4L19.44,14.64L19.14,13.99L18.75,13.45L18.29,13.02L17.76,12.68L17.2,12.43L16.62,12.28L16.04,12.2zM13.56,23.04L13.16,23.04L12.57,23.27L12,23.56L11.45,23.89L10.93,24.26L9.987,25.12L9.174,26.11L8.511,27.22L8.017,28.43L7.838,29.06L7.708,29.7L7.628,30.36L7.601,31.03L18.34,31.03L17.88,30.59L17.19,29.74L16.61,28.82L16.14,27.82L15.79,26.76L15.57,25.65L15.5,24.5L15.55,23.58L15.62,23.13L15.49,23.13L14.25,23.09L13.56,23.04zz" fill="#FFFFFF"/>
      <path d="M15.47,11.6L15.43,11.6L15.39,11.61L15.01,11.67L14.97,11.67L14.92,11.69L14.57,11.8L14.52,11.81L14.48,11.83L14.15,12L14.11,12.02L14.07,12.04L13.77,12.25L13.69,12.3L13.65,12.31L13.26,12.32L13.22,12.33L13.17,12.34L12.77,12.42L12.72,12.43L12.68,12.45L12.33,12.59L12.28,12.61L12.23,12.63L11.92,12.83L11.88,12.85L11.84,12.88L11.57,13.12L11.54,13.15L11.51,13.18L11.28,13.46L11.24,13.5L11.21,13.55L10.85,14.2L10.82,14.25L10.8,14.31L10.51,15.25L10.49,15.31L10.48,15.37L10.37,16.34L10.36,16.38L10.37,16.42L10.38,17.56L10.38,17.57L10.38,17.58L10.43,18.7L10.44,19.25L10.4,19.76L10.29,20.22L10.1,20.67L9.893,20.97L9.588,21.23L9.558,21.26L9.533,21.29L9.426,21.41L9.328,21.52L9.292,21.66L9.256,21.81L9.221,21.95L9.254,22.09L9.289,22.24L9.323,22.38L9.422,22.49L9.528,22.61L9.6,22.7L9.697,22.75L10.19,23.01L10.24,23.03L10.29,23.05L10.96,23.27L10.99,23.28L11.02,23.28L11.22,23.32L11.14,23.37L11.12,23.38L11.1,23.4L10.58,23.77L10.56,23.79L10.53,23.81L9.584,24.67L9.551,24.7L9.522,24.74L8.709,25.73L8.681,25.77L8.658,25.81L7.996,26.92L7.973,26.95L7.956,27L7.462,28.2L7.449,28.23L7.44,28.26L7.261,28.89L7.255,28.92L7.25,28.94L7.12,29.58L7.115,29.61L7.112,29.63L7.032,30.29L7.029,30.31L7.029,30.34L7.002,31L6.976,31.63L7.601,31.63L19.04,31.63L18.66,31.34L17.88,30.59L17.75,30.43L8.226,30.43L8.227,30.41L8.301,29.8L8.422,29.2L8.585,28.62L9.05,27.49L9.667,26.46L10.42,25.53L11.31,24.72L11.78,24.39L12.29,24.08L12.81,23.82L13.27,23.64L13.54,23.64L14.21,23.69L14.22,23.69L14.24,23.69L15.47,23.73L15.49,23.73L15.5,23.73L15.54,23.73L15.55,23.58L15.68,22.69L15.75,22.45L13.59,22.44L13.08,22.4L12.09,22.27L11.3,22.11L10.71,21.93L10.65,21.9L10.74,21.82L10.8,21.77L10.84,21.71L11.12,21.29L11.15,21.25L11.18,21.19L11.41,20.65L11.43,20.6L11.44,20.55L11.57,19.99L11.58,19.95L11.59,19.9L11.64,19.33L11.64,19.3L11.64,19.27L11.63,18.68L11.63,18.67L11.63,18.66L11.58,17.53L11.57,16.44L11.67,15.56L11.93,14.73L12.23,14.19L12.4,13.99L12.6,13.82L12.82,13.68L13.07,13.58L13.37,13.52L13.75,13.5L13.81,13.5L13.86,13.49L14.05,13.44L14.15,13.42L14.23,13.37L14.41,13.27L14.42,13.26L14.44,13.25L14.72,13.06L14.97,12.93L15.24,12.85L15.52,12.8L16,12.8L16.5,12.87L17,13L17.48,13.21L17.92,13.49L18.3,13.85L18.62,14.3L18.88,14.85L19.07,15.53L19.18,16.24L19.24,17.22L19.47,17.04L20.21,16.59L20.4,16.5L20.38,16.14L20.38,16.11L20.37,16.08L20.25,15.31L20.24,15.27L20.23,15.24L20.02,14.48L20.01,14.43L19.99,14.39L19.69,13.74L19.67,13.69L19.63,13.64L19.24,13.1L19.2,13.06L19.16,13.02L18.7,12.58L18.66,12.54L18.61,12.52L18.09,12.18L18.05,12.15L18,12.13L17.44,11.89L17.4,11.87L17.36,11.86L16.78,11.7L16.74,11.69L16.7,11.68L16.12,11.61L16.08,11.6L16.04,11.6zz" fill="#A0519F"/>
    </g>
    <g id="overlay">
      <path d="M24.5,17.5c-3.866,0,-7,3.134,-7,7c0,3.866,3.134,7,7,7s7,-3.134,7,-7C31.5,20.634,28.366,17.5,24.5,17.5zM29,25h-4v4h-1v-4h-4v-1h4v-4h1v4h4V25z" fill="#B2DBB4"/>
      <path d="M24.5,17.5c-3.866,0,-7,3.134,-7,7c0,3.866,3.134,7,7,7s7,-3.134,7,-7C31.5,20.634,28.366,17.5,24.5,17.5zM29,25h-4v4h-1v-4h-4v-1h4v-4h1v4h4V25z" fill="#009949" opacity="0.2"/>
      <path d="M24.5,32c-4.135,0,-7.5,-3.365,-7.5,-7.5s3.365,-7.5,7.5,-7.5s7.5,3.365,7.5,7.5S28.635,32,24.5,32zM24.5,18c-3.584,0,-6.5,2.916,-6.5,6.5s2.916,6.5,6.5,6.5s6.5,-2.916,6.5,-6.5S28.084,18,24.5,18z" fill="#009949"/>
      <polygon points="25,29 24,29 24,25 20,25 20,24 24,24 24,20 25,20 25,24 29,24 29,25 25,25" fill="#FFFFFF" stroke-linejoin="miter"/>
    </g>
  </g>
</svg>
