<?xml version="1.0" encoding="UTF-8"?>
<!DOCTYPE svg PUBLIC "-//W3C//DTD SVG 1.1//EN" "http://www.w3.org/Graphics/SVG/1.1/DTD/svg11.dtd">
<svg version="1.1" id="Layer_1" xmlns="http://www.w3.org/2000/svg" xmlns:xlink="http://www.w3.org/1999/xlink" x="0px" y="0px" width="32px" height="32px" viewBox="0 0 32 32" enable-background="new 0 0 32 32" xml:space="preserve">
  <g id="icon">
    <path d="M31.5,27.5H0.5V4.5h31V27.5z" fill="#FFFFFF" stroke="#383838" stroke-width="1" stroke-miterlimit="1"/>
    <path d="M19,11.5h10M19,14.5h10M19,17.5h10M19,20.5h10" fill="none" stroke="#787979" stroke-width="1" stroke-miterlimit="1"/>
    <path d="M4.208,24c0,-2.923,1.836,-5.605,4.359,-6.526l3.626,0.017c2.498,0.939,4.311,3.604,4.311,6.509M12.321,17.459c0.851,-0.032,1.671,-0.153,2.38,-0.662c0.148,-0.106,0.149,-0.329,-0.001,-0.432c-0.483,-0.335,-0.651,-0.867,-0.742,-1.42c-0.097,-0.588,-0.127,-1.192,-0.136,-1.789c-0.013,-0.861,-0.055,-1.71,-0.331,-2.537c-0.51,-1.525,-1.965,-2.074,-3.111,-1.988c-0.399,0.03,-0.763,0.19,-1.08,0.449c-0.079,0.065,-0.194,0.125,-0.29,0.122c-0.962,-0.031,-1.537,0.541,-1.844,1.296c-0.204,0.502,-0.311,1.031,-0.322,1.568c-0.013,0.62,0.026,1.241,0.054,1.861c0.03,0.642,-0.015,1.269,-0.321,1.85c-0.143,0.271,-0.273,0.43,-0.505,0.596c-0.148,0.107,-0.15,0.326,-0.002,0.434c0.428,0.311,1.216,0.521,2.382,0.634C9.75,17.583,11.039,17.586,12.321,17.459z" fill="#FFFFFF" stroke="#A0519F" stroke-width="1.1" stroke-miterlimit="1"/>
  </g>
</svg>
