<?xml version="1.0" encoding="UTF-8"?>
<!DOCTYPE svg PUBLIC "-//W3C//DTD SVG 1.1//EN" "http://www.w3.org/Graphics/SVG/1.1/DTD/svg11.dtd">
<svg version="1.1" id="Layer_1" xmlns="http://www.w3.org/2000/svg" xmlns:xlink="http://www.w3.org/1999/xlink" x="0px" y="0px" width="32px" height="32px" viewBox="0 0 32 32" enable-background="new 0 0 32 32" xml:space="preserve">
  <g id="main">
    <g id="icon">
      <path d="M7.223,10.27L8.223,10.22L8.223,2.128L22.22,2.128L22.22,9.128L29.22,9.128L29.22,16.56L29.93,16.78L30.22,16.84L30.22,8.421L22.93,1.128L7.223,1.128zM7.223,24.49L7.223,31.13L20.88,31.13L20.5,30.76L19.95,30.13L8.223,30.13L8.223,24.48zz" fill="#77767b"/>
      <path d="M1.801,10.22L1.464,10.45L1.237,10.79L1.154,11.2L1.154,23.45L1.237,23.86L1.464,24.2L1.801,24.42L2.215,24.51L14.95,24.51L15.37,24.42L15.7,24.2L15.93,23.86L16.01,23.45L16.01,11.2L15.93,10.79L15.7,10.45L15.37,10.22L14.95,10.14L2.215,10.14zM5.791,19.1L7.533,12.61L9.824,12.57L11.53,19.23L12.98,12.61L14.91,12.59L12.57,22.18L10.56,22.1L8.633,15.01L6.764,22.14L4.654,22.14L2.383,12.59L4.344,12.57zz" fill="#1a5fb4"/>
      <path d="M2.205,10.09L1.791,10.17L1.781,10.18L1.773,10.18L1.436,10.41L1.428,10.41L1.423,10.42L1.196,10.76L1.19,10.77L1.188,10.78L1.105,11.19L1.104,11.2L1.104,11.2L1.104,23.45L1.104,23.45L1.105,23.46L1.188,23.87L1.19,23.88L1.196,23.89L1.423,24.22L1.428,24.23L1.436,24.24L1.773,24.46L1.781,24.47L1.791,24.47L2.205,24.55L2.21,24.56L2.215,24.56L14.95,24.56L14.96,24.56L14.96,24.55L15.38,24.47L15.39,24.47L15.39,24.46L15.73,24.24L15.74,24.23L15.75,24.22L15.97,23.89L15.98,23.88L15.98,23.87L16.06,23.46L16.06,23.45L16.06,23.45L16.06,11.2L16.06,11.2L16.06,11.19L15.98,10.78L15.98,10.77L15.97,10.76L15.75,10.42L15.74,10.41L15.73,10.41L15.39,10.18L15.39,10.18L15.38,10.17L14.96,10.09L14.96,10.09L14.95,10.09L2.215,10.09L2.21,10.09zM14.95,10.19L15.35,10.27L15.67,10.49L15.88,10.81L15.96,11.21L15.96,23.44L15.88,23.84L15.67,24.16L15.35,24.38L14.95,24.46L2.22,24.46L1.821,24.38L1.5,24.16L1.284,23.84L1.204,23.44L1.204,11.21L1.284,10.81L1.5,10.49L1.821,10.27L2.22,10.19zM9.823,12.52L7.532,12.56L7.495,12.56L7.485,12.6L5.796,18.89L4.393,12.56L4.384,12.52L4.343,12.52L2.382,12.54L2.32,12.54L2.334,12.6L4.606,22.15L4.615,22.19L4.654,22.19L6.764,22.19L6.802,22.19L6.812,22.15L8.634,15.2L10.51,22.12L10.52,22.15L10.55,22.15L12.57,22.23L12.61,22.23L12.62,22.19L14.96,12.6L14.97,12.54L14.91,12.54L12.98,12.56L12.94,12.56L12.93,12.6L11.52,19.01L9.873,12.56L9.863,12.52zM5.742,19.11L5.786,19.31L5.839,19.11L7.572,12.66L9.786,12.62L11.48,19.24L11.53,19.44L11.58,19.24L13.02,12.66L14.84,12.64L12.53,22.12L10.6,22.05L8.681,15L8.632,14.82L8.584,15L6.725,22.09L4.694,22.09L2.446,12.64L4.304,12.62zz" fill="#9a9996"/>
      <path d="M18.18,15.24L23.56,15.24L23.86,15.06L25.01,14.26L26.16,15.06L26.45,15.24L27.29,15.24L27.29,14.16L18.18,14.16zz" fill="#62a0ea" fill-opacity="1"/>
      <path d="M18.18,16.98L19.05,16.98L19.23,16.96L20.07,16.78L20.88,16.53L21.64,16.24L22.38,15.89L18.18,15.89zz" fill="#3584e4" fill-opacity="1"/>
    </g>
    <g id="overlay">
      <path d="M31.5,19.053c-2.594,-0.155,-5.212,-1.453,-6.492,-2.353c-1.28,0.9,-3.913,2.198,-6.507,2.353c-0.008,0.685,0.116,2.03,0.272,3.159c0.329,2.379,1.042,4.418,2.008,5.742c1.35,1.852,2.678,2.982,4.227,3.446c1.549,-0.464,2.863,-1.594,4.213,-3.446c0.966,-1.324,1.679,-3.364,2.008,-5.742C31.383,21.083,31.508,19.739,31.5,19.053zM24.251,27.18l-2.889,-2.889l0.849,-0.849l2.041,2.041l4.395,-4.395l0.849,0.849L24.251,27.18z" fill="#B2DBB4"/>
      <path d="M31.5,19.053c-2.594,-0.155,-5.212,-1.453,-6.492,-2.353c-1.28,0.9,-3.913,2.198,-6.507,2.353c-0.008,0.685,0.116,2.03,0.272,3.159c0.329,2.379,1.042,4.418,2.008,5.742c1.35,1.852,2.678,2.982,4.227,3.446c1.549,-0.464,2.863,-1.594,4.213,-3.446c0.966,-1.324,1.679,-3.364,2.008,-5.742C31.383,21.083,31.508,19.739,31.5,19.053zM24.251,27.18l-2.889,-2.889l0.849,-0.849l2.041,2.041l4.395,-4.395l0.849,0.849L24.251,27.18z" fill="#009949" opacity="0.2"/>
      <path d="M25.007,31.922l-0.143,-0.043c-1.607,-0.481,-3.033,-1.634,-4.488,-3.63c-1.013,-1.39,-1.759,-3.509,-2.099,-5.968c-0.14,-1.012,-0.286,-2.456,-0.277,-3.233l0.006,-0.465l0.465,-0.028c2.614,-0.156,5.158,-1.496,6.249,-2.263l0.288,-0.202l0.288,0.202c1.092,0.767,3.634,2.108,6.235,2.263l0.465,0.028l0.006,0.465c0.009,0.778,-0.137,2.221,-0.277,3.233c-0.34,2.459,-1.085,4.578,-2.099,5.968c-1.457,2,-2.879,3.153,-4.473,3.63L25.007,31.922zM19.01,19.511c0.031,0.683,0.128,1.697,0.258,2.632c0.318,2.298,0.998,4.257,1.916,5.516c1.274,1.748,2.493,2.774,3.823,3.216c1.334,-0.442,2.514,-1.441,3.808,-3.216c0.918,-1.259,1.599,-3.218,1.916,-5.516c0.129,-0.935,0.227,-1.949,0.258,-2.632c-2.443,-0.267,-4.764,-1.418,-5.983,-2.209C23.788,18.093,21.464,19.244,19.01,19.511z" fill="#009949"/>
      <polygon points="21.362,24.291 22.211,23.442 24.251,25.483 28.646,21.088 29.495,21.936 24.251,27.18" fill="#FFFFFF" stroke-linejoin="miter"/>
    </g>
  </g>
</svg>
