<?xml version="1.0" encoding="UTF-8"?>
<!DOCTYPE svg PUBLIC "-//W3C//DTD SVG 1.1//EN" "http://www.w3.org/Graphics/SVG/1.1/DTD/svg11.dtd">
<svg version="1.1" id="Layer_1" xmlns="http://www.w3.org/2000/svg" xmlns:xlink="http://www.w3.org/1999/xlink" x="0px" y="0px" width="32px" height="32px" viewBox="0 0 32 32" enable-background="new 0 0 32 32" xml:space="preserve">
  <g id="main">
    <g id="icon">
      <path d="M25.5,16.5L25.52,16.5L25.5,16.5zM25.52,16.5L26.54,16.53L27.51,16.62L28.43,16.78L29.28,16.98L29.5,17.06L29.5,16.5L25.52,16.5zz" fill="#F7DA8E"/>
      <path d="M25,16.5L25,16.53L25.52,16.5L26.54,16.53L27.51,16.62L28.43,16.78L29.28,16.98L30,17.22L30,16.5L30,16L29.5,16L25.5,16L25,16zz" fill="#ED8730"/>
      <path d="M25.5,16.5L25.52,16.5L29.5,16.5L29.5,9.5L25.5,9.5zz" fill="#92CBEE"/>
      <path d="M25,9.5L25,16.5L25,16.53L25.52,16.5L26.54,16.53L27.51,16.62L28.43,16.78L29.28,16.98L29.33,17L29.5,17L30,17L30,16.5L30,9.5L30,9L29.5,9L25.5,9L25,9zM29,10L29,16L26,16L26,10zz" fill="#0964B0"/>
      <path d="M25.5,9.5L29.5,9.5L29.5,2.5L25.5,2.5zz" fill="#ACD8B1"/>
      <path d="M25,2.5L25,9.5L25,10L25.5,10L29.5,10L30,10L30,9.5L30,2.5L30,2L29.5,2L25.5,2L25,2zM29,3L29,9L26,9L26,3zz" fill="#0BA04A"/>
      <path d="M1.5,29.5L14.55,29.5L14.5,29.07L14.5,26.31L14.5,26.25L14.56,25.69L14.72,25.15L14.98,24.64L15.33,24.15L15.76,23.7L16.26,23.28L16.85,22.91L17.5,22.59L17.5,21.24L17.5,21.16L17.55,20.65L17.67,20.17L17.86,19.71L18.12,19.27L18.44,18.86L18.83,18.48L19.27,18.12L19.78,17.8L20.33,17.51L20.94,17.25L22.3,16.84L23.83,16.59L25.5,16.5L25.5,0.5L1.5,0.5zz" fill="#FFFFFF"/>
      <path d="M1,0.5L1,29.5L1,30L1.5,30L14.67,30L14.57,29.67L14.5,29.07L14.5,29L2,29L2,1L25,1L25,16.53L25.52,16.5L26,16.51L26,0.5L26,0L25.5,0L1.5,0L1,0zz" fill="#383838"/>
      <path d="M12.53,5.696L11.61,5.973L10.78,6.41L10.06,6.99L9.468,7.692L9.019,8.498L8.735,9.389L8.661,9.86L8.636,10.34L8.661,10.83L8.735,11.3L9.019,12.19L9.468,13L10.06,13.7L10.78,14.28L11.61,14.72L12.53,14.99L13.51,15.09L14.49,14.99L15.41,14.72L16.24,14.28L16.96,13.7L17.55,13L18,12.19L18.28,11.3L18.36,10.83L18.38,10.34L18.36,9.86L18.28,9.389L18,8.498L17.55,7.692L16.96,6.99L16.24,6.41L15.41,5.973L14.49,5.696L13.51,5.6zM12.69,15.16L11.91,15.3L11.15,15.54L10.43,15.85L9.734,16.25L9.083,16.71L8.475,17.24L7.914,17.83L7.404,18.48L6.949,19.17L6.554,19.9L6.221,20.67L5.955,21.47L5.761,22.29L5.641,23.13L5.6,23.99L15.48,23.99L15.76,23.7L16.26,23.28L16.85,22.91L17.5,22.59L17.5,21.24L17.5,21.16L17.55,20.65L17.67,20.17L17.86,19.71L18.12,19.27L18.44,18.86L18.83,18.48L19.27,18.12L19.3,18.1L19.09,17.83L18.53,17.24L17.92,16.71L17.27,16.25L16.58,15.85L15.85,15.54L15.09,15.3L14.31,15.16L13.5,15.11zz" fill="#FFFFFF"/>
      <path d="M13.45,5.003L12.47,5.099L12.41,5.105L12.35,5.122L11.44,5.398L11.38,5.415L11.33,5.442L10.5,5.88L10.45,5.907L10.41,5.942L9.688,6.522L9.643,6.558L9.606,6.602L9.011,7.304L8.973,7.349L8.944,7.4L8.495,8.206L8.466,8.258L8.447,8.316L8.163,9.206L8.149,9.25L8.142,9.296L8.068,9.767L8.064,9.798L8.062,9.829L8.037,10.31L8.035,10.34L8.037,10.38L8.062,10.86L8.064,10.89L8.068,10.92L8.142,11.39L8.149,11.44L8.163,11.48L8.447,12.37L8.466,12.43L8.495,12.48L8.944,13.29L8.973,13.34L9.011,13.39L9.606,14.09L9.643,14.13L9.688,14.17L10.41,14.75L10.45,14.78L10.5,14.81L10.87,15L10.19,15.3L10.16,15.32L10.13,15.33L9.437,15.73L9.411,15.74L9.386,15.76L8.734,16.22L8.711,16.24L8.689,16.26L8.08,16.79L8.059,16.81L8.04,16.83L7.479,17.42L7.46,17.44L7.444,17.46L6.934,18.1L6.917,18.12L6.903,18.15L6.448,18.84L6.434,18.86L6.421,18.88L6.026,19.62L6.013,19.64L6.003,19.66L5.67,20.43L5.66,20.46L5.652,20.48L5.386,21.28L5.377,21.3L5.371,21.33L5.177,22.15L5.17,22.18L5.166,22.21L5.047,23.05L5.043,23.08L5.041,23.1L5.001,23.96L4.971,24.59L5.6,24.59L15.02,24.59L15.33,24.15L15.76,23.7L16.14,23.39L6.229,23.39L6.239,23.19L6.351,22.4L6.533,21.63L6.782,20.88L7.093,20.16L7.465,19.48L7.891,18.83L8.368,18.23L8.891,17.68L9.456,17.18L10.06,16.75L10.69,16.39L11.36,16.1L12.05,15.89L12.77,15.76L13.5,15.71L14.23,15.76L14.95,15.89L15.64,16.1L16.31,16.39L16.94,16.75L17.54,17.18L18.11,17.68L18.63,18.23L18.83,18.48L19.27,18.12L19.78,17.8L19.81,17.78L19.56,17.46L19.54,17.44L19.52,17.42L18.96,16.83L18.94,16.81L18.92,16.79L18.31,16.26L18.29,16.24L18.27,16.22L17.61,15.76L17.59,15.74L17.56,15.73L16.87,15.33L16.84,15.32L16.81,15.3L16.14,15.01L16.52,14.81L16.57,14.78L16.61,14.75L17.33,14.17L17.38,14.13L17.41,14.09L18.01,13.39L18.05,13.34L18.08,13.29L18.53,12.48L18.55,12.43L18.57,12.37L18.86,11.48L18.87,11.44L18.88,11.39L18.95,10.92L18.96,10.89L18.96,10.86L18.98,10.38L18.98,10.34L18.98,10.31L18.96,9.829L18.96,9.798L18.95,9.767L18.88,9.296L18.87,9.25L18.86,9.206L18.57,8.316L18.55,8.258L18.53,8.206L18.08,7.4L18.05,7.349L18.01,7.304L17.41,6.602L17.38,6.558L17.33,6.522L16.61,5.942L16.57,5.907L16.52,5.88L15.69,5.442L15.64,5.415L15.58,5.398L14.67,5.122L14.61,5.105L14.55,5.099L13.57,5.003L13.51,4.997zM14.38,6.288L15.18,6.53L15.9,6.914L16.54,7.421L17.06,8.035L17.45,8.737L17.7,9.527L17.76,9.922L17.78,10.34L17.76,10.77L17.7,11.16L17.45,11.95L17.06,12.65L16.54,13.27L15.9,13.78L15.18,14.16L14.38,14.4L13.51,14.49L12.64,14.4L11.84,14.16L11.12,13.78L10.48,13.27L9.963,12.65L9.572,11.95L9.321,11.16L9.259,10.77L9.237,10.34L9.259,9.922L9.321,9.527L9.572,8.737L9.964,8.035L10.48,7.421L11.12,6.914L11.84,6.531L12.64,6.288L13.51,6.203zz" fill="#383838"/>
      <path d="M12.98,18.54L12.4,24L14.73,24L14.15,18.56L14.73,17L12.4,17zz" fill="#78797A"/>
    </g>
    <g id="overlay">
      <path d="M28.5,26.308c0,0,0,2.45,0,2.743c0,1.133,-2.683,2.449,-5.998,2.449c-3.315,0,-6.002,-1.316,-6.002,-2.436c0,-0.251,0,-2.757,0,-2.757" fill="#F7DA8E" stroke="#E57428" stroke-width="1" stroke-linecap="round" stroke-miterlimit="10"/>
      <path d="M28.5,26.294c0,1.484,-2.653,2.478,-5.978,2.478c-3.325,0,-6.021,-0.993,-6.021,-2.478c0,-0.877,1.148,-1.852,2.998,-2.244" fill="#F7DA8E" stroke="#E57428" stroke-width="1" stroke-linecap="round" stroke-miterlimit="10"/>
      <path d="M31.5,21.238c0,0,0,2.483,0,2.78c0,1.148,-2.683,2.482,-5.998,2.482c-3.315,0,-6.002,-1.334,-6.002,-2.468c0,-0.254,0,-2.793,0,-2.793" fill="#F7DA8E" stroke="#E57428" stroke-width="1" stroke-linecap="round" stroke-miterlimit="10"/>
      <path d="M25.522,18.5c3.325,0,5.978,1.219,5.978,2.724c0,1.504,-2.653,2.511,-5.978,2.511c-3.325,0,-6.021,-1.007,-6.021,-2.511C19.502,19.719,22.197,18.5,25.522,18.5z" fill="#F7DA8E" stroke="#E57428" stroke-width="1" stroke-linecap="round" stroke-miterlimit="10"/>
    </g>
  </g>
</svg>
