<?xml version="1.0" encoding="UTF-8"?>
<!DOCTYPE svg PUBLIC "-//W3C//DTD SVG 1.1//EN" "http://www.w3.org/Graphics/SVG/1.1/DTD/svg11.dtd">
<svg version="1.1" id="Layer_1" xmlns="http://www.w3.org/2000/svg" xmlns:xlink="http://www.w3.org/1999/xlink" x="0px" y="0px" width="32px" height="32px" viewBox="0 0 32 32" enable-background="new 0 0 32 32" xml:space="preserve">
  <g id="main">
    <g id="icon">
      <g transform="translate(-0.365053 0.20634)">
        <path d="M5.773,5.778L6.422,7.307L6.857,8.213L7.343,9.113L7.865,9.929L8.405,10.59L9.055,11.15L9.867,11.7L10.76,12.22L11.67,12.69L13.2,13.41L13.85,13.68L9.913,26.81L9.684,27.72L9.629,28.47L9.683,28.79L9.801,29.07L9.988,29.32L10.25,29.54L10.6,29.72L11.04,29.88L12.22,30.11L13.84,30.24L15.95,30.28L17.6,30.25L17.19,29.74L16.61,28.82L16.14,27.82L15.79,26.76L15.57,25.65L15.5,24.5L15.55,23.58L15.68,22.69L15.91,21.83L16.21,21L16.59,20.21L17.04,19.47L17.56,18.78L18.14,18.14L18.78,17.56L19.23,17.22L18.23,13.68L18.78,13.43L20.11,12.74L20.9,12.28L21.69,11.77L22.42,11.21L23.03,10.63L23.58,9.954L24.15,9.129L25.26,7.334L26.43,5.201L5.528,5.134zz" fill="#f7da8e"/>
        <path d="M5.151,4.805L5.028,5.118L5.06,5.312L5.306,5.956L5.313,5.973L5.962,7.502L5.971,7.523L6.406,8.429L6.417,8.451L6.903,9.35L6.922,9.381L7.443,10.2L7.478,10.25L8.018,10.91L8.079,10.97L8.73,11.53L8.775,11.56L9.587,12.11L9.616,12.13L10.51,12.65L10.53,12.66L11.44,13.13L11.46,13.14L12.99,13.86L13.01,13.87L13.24,13.97L9.434,26.67L9.428,26.69L9.199,27.6L9.185,27.68L9.13,28.43L9.136,28.55L9.19,28.87L9.221,28.98L9.339,29.26L9.401,29.37L9.589,29.62L9.672,29.71L9.937,29.92L10.02,29.98L10.37,30.16L10.43,30.19L10.87,30.35L10.95,30.37L12.12,30.6L12.18,30.61L13.8,30.74L13.83,30.74L15.94,30.78L15.96,30.78L18.04,30.74L17.88,30.59L17.2,29.76L15.95,29.78L13.86,29.74L12.29,29.61L11.17,29.39L10.81,29.26L10.53,29.12L10.35,28.97L10.24,28.82L10.17,28.65L10.13,28.44L10.18,27.8L10.4,26.94L14.33,13.83L14.05,13.22L13.41,12.95L11.89,12.24L11.01,11.78L10.13,11.27L9.359,10.75L8.764,10.24L8.27,9.635L7.775,8.86L7.303,7.986L6.877,7.1L6.237,5.592L5.995,4.955L5.776,4.7L5.445,4.64zM26.12,4.81L25.99,4.96L24.82,7.084L23.73,8.856L23.18,9.654L22.66,10.3L22.1,10.83L21.4,11.36L20.63,11.86L19.87,12.3L18.56,12.98L18.02,13.23L17.75,13.82L18.8,17.54L19.47,17.04L19.67,16.92L18.83,13.96L18.99,13.88L19.01,13.87L20.33,13.19L20.36,13.17L21.15,12.72L21.17,12.7L21.96,12.19L21.99,12.17L22.73,11.61L22.77,11.58L23.38,11L23.42,10.95L23.97,10.27L23.99,10.24L24.56,9.414L24.58,9.391L25.68,7.596L25.69,7.575L26.87,5.441L26.92,5.109L26.75,4.818L26.43,4.701zz" fill="#e57428"/>
        <path d="M13.87,1.547L11.9,1.743L10.11,2.052L8.556,2.462L7.273,2.958L6.747,3.234L6.305,3.528L5.952,3.836L5.693,4.157L5.534,4.49L5.479,4.833L5.534,5.176L5.693,5.509L5.952,5.83L6.305,6.138L6.747,6.432L7.273,6.708L8.556,7.204L10.11,7.614L11.9,7.923L13.87,8.119L15.98,8.187L18.1,8.119L20.07,7.923L21.86,7.614L23.41,7.204L24.69,6.708L25.22,6.432L25.66,6.138L26.02,5.83L26.28,5.509L26.43,5.176L26.49,4.833L26.43,4.49L26.28,4.157L26.02,3.836L25.66,3.528L25.22,3.234L24.69,2.958L23.41,2.462L21.86,2.052L20.07,1.743L18.1,1.547L15.98,1.479zz" fill="#99c1f1"/>
        <path d="M15.97,1L13.85,1.068L13.84,1.069L13.82,1.071L11.85,1.266L11.83,1.268L11.81,1.271L10.03,1.58L10.01,1.583L9.989,1.588L8.434,1.998L8.408,2.005L8.383,2.015L7.1,2.511L7.075,2.521L7.05,2.534L6.524,2.81L6.503,2.821L6.482,2.835L6.04,3.128L6.014,3.146L5.99,3.166L5.637,3.474L5.605,3.502L5.578,3.535L5.319,3.856L5.284,3.9L5.26,3.95L5.101,4.283L5.071,4.346L5.06,4.415L5.006,4.758L4.994,4.833L5.006,4.908L5.06,5.251L5.071,5.32L5.101,5.383L5.26,5.716L5.284,5.766L5.319,5.81L5.578,6.131L5.605,6.164L5.637,6.192L5.99,6.5L6.014,6.521L6.04,6.538L6.482,6.831L6.503,6.845L6.524,6.856L7.05,7.132L7.075,7.145L7.1,7.155L8.383,7.651L8.408,7.661L8.434,7.668L9.989,8.077L10.01,8.083L10.03,8.086L11.81,8.396L11.83,8.398L11.85,8.4L13.82,8.596L13.84,8.597L13.85,8.598L15.97,8.666L15.98,8.666L16,8.666L18.12,8.598L18.13,8.597L18.15,8.596L20.12,8.4L20.14,8.398L20.15,8.396L21.94,8.086L21.96,8.083L21.98,8.077L23.53,7.668L23.56,7.661L23.59,7.651L24.87,7.155L24.89,7.145L24.92,7.132L25.44,6.856L25.47,6.845L25.49,6.831L25.93,6.538L25.95,6.521L25.98,6.5L26.33,6.192L26.36,6.164L26.39,6.131L26.65,5.81L26.68,5.766L26.71,5.716L26.87,5.383L26.9,5.32L26.91,5.251L26.96,4.908L26.97,4.833L26.96,4.758L26.91,4.415L26.9,4.346L26.87,4.283L26.71,3.95L26.68,3.9L26.65,3.856L26.39,3.535L26.36,3.502L26.33,3.474L25.98,3.166L25.95,3.146L25.93,3.128L25.49,2.835L25.47,2.821L25.44,2.81L24.92,2.534L24.89,2.521L24.87,2.511L23.59,2.015L23.56,2.005L23.53,1.998L21.98,1.588L21.96,1.583L21.94,1.58L20.15,1.271L20.14,1.268L20.12,1.266L18.15,1.071L18.13,1.069L18.12,1.068L16,1L15.98,0.9998zM18.07,2.026L20.01,2.218L21.76,2.521L23.26,2.919L24.5,3.396L24.98,3.648L25.37,3.909L25.67,4.169L25.87,4.414L25.97,4.634L26,4.833L25.97,5.032L25.87,5.252L25.67,5.496L25.37,5.757L24.98,6.018L24.5,6.271L23.26,6.747L21.76,7.145L20.01,7.448L18.07,7.64L15.98,7.707L13.9,7.64L11.96,7.448L10.21,7.145L8.704,6.747L7.471,6.271L6.991,6.018L6.597,5.757L6.298,5.496L6.101,5.252L5.996,5.032L5.965,4.833L5.996,4.634L6.101,4.414L6.298,4.169L6.596,3.909L6.991,3.648L7.471,3.396L8.704,2.919L10.21,2.521L11.96,2.218L13.9,2.026L15.98,1.959zz" fill="#e57428"/>
      </g>
    </g>
    <g id="overlay">
      <path d="M24.5,17.5c-3.866,0,-7,3.134,-7,7c0,3.866,3.134,7,7,7s7,-3.134,7,-7C31.5,20.634,28.366,17.5,24.5,17.5zM29,25.1h-9v-1.2h9V25.1z" fill="#F7BFBF"/>
      <path d="M24.5,17.5c-3.866,0,-7,3.134,-7,7c0,3.866,3.134,7,7,7s7,-3.134,7,-7C31.5,20.634,28.366,17.5,24.5,17.5zM29,25.1h-9v-1.2h9V25.1z" fill="#DB2E2A" opacity="0.3"/>
      <path d="M24.5,32c-4.135,0,-7.5,-3.365,-7.5,-7.5s3.365,-7.5,7.5,-7.5s7.5,3.365,7.5,7.5S28.635,32,24.5,32zM24.5,18c-3.584,0,-6.5,2.916,-6.5,6.5s2.916,6.5,6.5,6.5s6.5,-2.916,6.5,-6.5S28.084,18,24.5,18z" fill="#DB2E2A"/>
      <rect x="20" y="23.9" width="9" height="1.2" fill="#FFFFFF"/>
    </g>
  </g>
</svg>
