<?xml version="1.0" encoding="UTF-8"?>
<!DOCTYPE svg PUBLIC "-//W3C//DTD SVG 1.1//EN" "http://www.w3.org/Graphics/SVG/1.1/DTD/svg11.dtd">
<svg version="1.1" id="Layer_1" xmlns="http://www.w3.org/2000/svg" xmlns:xlink="http://www.w3.org/1999/xlink" x="0px" y="0px" width="32px" height="32px" viewBox="0 0 32 32" enable-background="new 0 0 32 32" xml:space="preserve">
  <g id="main">
    <g id="icon">
      <path d="M3.5,30.5L15.66,30.5L20.08,26.09L19.69,25.28L19.42,24.43L19.25,23.55L19.19,22.65L19.23,21.92L19.34,21.21L19.51,20.53L19.75,19.87L20.06,19.25L20.41,18.66L20.83,18.1L21.29,17.6L21.8,17.13L22.35,16.72L22.94,16.36L23.56,16.06L24.22,15.82L24.91,15.65L25.62,15.54L26.35,15.5L27.19,15.55L28.01,15.7L28.5,15.84L28.5,1.5L3.5,1.5zM21.34,30.5L28.5,30.5L28.5,29.46L28.01,29.61L27.19,29.75L26.35,29.8L25.45,29.75L24.57,29.58L23.72,29.3L22.91,28.92zz" fill="#ffffff"/>
      <path d="M3,1.5L3,30.5L3,31L3.5,31L15.16,31L16.16,30L4,30L4,2L28,2L28,15.69L28.01,15.7L28.8,15.93L29,16.02L29,1.5L29,1L28.5,1L3.5,1L3,1zM28.8,29.37L28.01,29.61L28,29.61L28,30L21.84,30L20.84,31L28.5,31L29,31L29,30.5L29,29.28zz" fill="#383838"/>
      <path d="M8,10L24,10L24,9L8,9zM9,12L23,12L23,11L9,11zM8,14L24,14L24,13L8,13zz" fill="#787979"/>
      <path d="M18,18L20.92,18L21.29,17.6L21.8,17.13L21.98,17L18,17zM20,19.36L20.06,19.25L20.21,19L20,19zM18,22L19.22,22L19.23,21.92L19.34,21.21L19.39,21L18,21zM19,24L19.33,24L19.25,23.55L19.21,23L19,23zM19,26L20.03,26L19.69,25.28L19.6,25L19,25zz" fill="#787979"/>
      <path d="M9.53,28.3L11.18,28.3L11.18,16.27L9.53,16.27zz" fill="#0c5460"/>
      <path d="M9.45,16.22L9.43,16.27L9.43,28.3L9.471,28.38L9.53,28.4L11.18,28.4L11.26,28.36L11.28,28.3L11.28,16.27L11.24,16.19L11.18,16.17L9.53,16.17zM11.08,16.37L11.08,28.2L9.63,28.2L9.63,16.37zz" fill="none"/>
      <path d="M5.975,21.22L14.74,21.22L14.74,19.72L5.975,19.72zz" fill="#0c5460"/>
      <path d="M5.891,19.66L5.87,19.72L5.87,21.22L5.912,21.31L5.975,21.33L14.74,21.33L14.82,21.29L14.84,21.22L14.84,19.72L14.8,19.64L14.74,19.62L5.975,19.62zM14.63,19.83L14.63,21.12L6.079,21.12L6.079,19.83zz" fill="none"/>
      <path d="M6.048,5.938L26.5,5.938L26.5,3.006L6.048,3.006zz" fill="#ffc107"/>
      <path d="M5.807,2.752L5.699,2.988L5.698,3.006L5.698,5.938L5.795,6.179L6.031,6.288L6.048,6.288L26.5,6.288L26.74,6.192L26.85,5.955L26.85,5.938L26.85,3.006L26.76,2.764L26.52,2.656L26.5,2.656L6.048,2.656zM26.15,3.356L26.15,5.588L6.398,5.588L6.398,3.356zz" fill="#d57f1e" fill-opacity="1"/>
    </g>
    <g id="overlay">
      <path d="M26.345,27.798c-2.844,0,-5.15,-2.304,-5.15,-5.146s2.306,-5.146,5.15,-5.146s5.15,2.304,5.15,5.146S29.19,27.798,26.345,27.798zM17.357,31.643l5.313,-5.313" fill="#93CAEC"/>
      <path d="M17.714,32l-0.714,-0.714l5.01,-5.01c-0.823,-0.982,-1.319,-2.246,-1.319,-3.624c0,-3.116,2.537,-5.651,5.655,-5.651c3.118,0,5.655,2.535,5.655,5.651s-2.537,5.651,-5.655,5.651c-1.376,0,-2.639,-0.494,-3.621,-1.314L17.714,32zM26.345,18.01c-2.561,0,-4.645,2.082,-4.645,4.642s2.084,4.642,4.645,4.642c2.561,0,4.645,-2.082,4.645,-4.642S28.907,18.01,26.345,18.01z" fill="#1A6C9E"/>
    </g>
  </g>
</svg>
