<?xml version="1.0" encoding="UTF-8" standalone="no"?>
<svg
   xmlns:dc="http://purl.org/dc/elements/1.1/"
   xmlns:cc="http://creativecommons.org/ns#"
   xmlns:rdf="http://www.w3.org/1999/02/22-rdf-syntax-ns#"
   xmlns:svg="http://www.w3.org/2000/svg"
   xmlns="http://www.w3.org/2000/svg"
   xmlns:sodipodi="http://sodipodi.sourceforge.net/DTD/sodipodi-0.dtd"
   xmlns:inkscape="http://www.inkscape.org/namespaces/inkscape"
   version="1.1"
   id="Layer_1"
   x="0px"
   y="0px"
   width="32px"
   height="32px"
   viewBox="0 0 32 32"
   enable-background="new 0 0 32 32"
   xml:space="preserve"
   sodipodi:docname="heart-filled-2.svg"
   inkscape:version="1.0.1 (3bc2e813f5, 2020-09-07)"><metadata
   id="metadata10"><rdf:RDF><cc:Work
       rdf:about=""><dc:format>image/svg+xml</dc:format><dc:type
         rdf:resource="http://purl.org/dc/dcmitype/StillImage" /></cc:Work></rdf:RDF></metadata><defs
   id="defs8" /><sodipodi:namedview
   pagecolor="#ffffff"
   bordercolor="#666666"
   borderopacity="1"
   objecttolerance="10"
   gridtolerance="10"
   guidetolerance="10"
   inkscape:pageopacity="0"
   inkscape:pageshadow="2"
   inkscape:window-width="1634"
   inkscape:window-height="1284"
   id="namedview6"
   showgrid="false"
   inkscape:zoom="31.5"
   inkscape:cx="16"
   inkscape:cy="16"
   inkscape:window-x="397"
   inkscape:window-y="78"
   inkscape:window-maximized="0"
   inkscape:current-layer="Layer_1" />
  
<path
   style="fill:none;stroke:#26a269;stroke-width:1px;stroke-linecap:butt;stroke-linejoin:miter;stroke-opacity:1"
   d="m 15.619048,20.698413 c 0,0 -0.349207,2.095238 0.571428,4.63492 0.920635,2.539683 3.047619,4.317461 3.047619,4.317461"
   id="path48" /><path
   style="fill:#2ec27e;stroke:#26a269;stroke-width:0.99049px;stroke-linecap:butt;stroke-linejoin:miter;stroke-opacity:1"
   d="m 15.655997,25.850036 c 0,0 -1.382779,-1.437123 -3.051378,-2.021937 -1.6686,-0.584815 -4.386357,-0.777668 -4.9267053,1.05763 -0.5403482,1.835296 1.4323145,2.34631 4.1320763,2.861817 2.699759,0.515508 3.846007,-1.89751 3.846007,-1.89751 z"
   id="path50"
   sodipodi:nodetypes="czszc" /><path
   style="fill:#2ec27e;stroke:#26a269;stroke-width:1px;stroke-linecap:butt;stroke-linejoin:miter;stroke-opacity:1"
   d="m 16.952381,25.873016 c 0,0 3.338786,1.190925 5.84127,0.222222 0.984126,-0.380953 2.444445,-0.952381 1.650794,-2.634921 -0.793651,-1.68254 -3.492064,-0.920634 -4.285715,-0.571428 -1.248126,0.549173 -3.206349,2.984127 -3.206349,2.984127 z"
   id="path52"
   sodipodi:nodetypes="csssc" /><path
   style="fill:#ff7800;stroke:#e01b24;stroke-width:1px;stroke-linecap:butt;stroke-linejoin:miter;stroke-opacity:1"
   d="m 13.650794,6.0952381 c 0,0 -3.03297,-2.2405362 -4.634921,-0.4761905 -1.601951,1.7643458 -0.401244,3.6081238 1.047619,5.2380944 -1.893839,-0.406239 -4.142086,0.121922 -4.31746,2.222222 -0.06349,1.079365 -0.09188,1.943128 1.047619,3.111111 1.269841,1.301588 3.174603,0.857144 3.174603,0.857144 -0.682528,2.029302 -0.426043,3.731965 1.015873,4.634921 1.682539,1.015872 4.761905,-1.396826 4.761905,-1.396826 0,0 1.269841,2.730159 3.523809,1.714286 2.253968,-1.015873 2.15873,-3.460318 2.15873,-3.460318 0,0 4.095239,1.079365 4.730159,-1.873016 0.634921,-2.952381 -3.777778,-4.412698 -3.777778,-4.412698 0,0 3.714286,-3.3968251 1.968254,-6.0317458 -1.476871,-2.228733 -4.380952,-0.6031746 -4.380952,-0.6031746 0,0 -0.603175,-2.7936508 -3.301587,-2.5714286 -2.698413,0.2222223 -3.015873,3.0476191 -3.015873,3.0476191 z"
   id="path44"
   sodipodi:nodetypes="czccscccscscscsc" /><ellipse
   style="fill:#f9f06b;stroke-width:0"
   id="path38"
   cx="15.968256"
   cy="13.190477"
   rx="3.6507936"
   ry="3.5396826" /></svg>
