<?xml version="1.0" encoding="UTF-8"?>
<!DOCTYPE svg PUBLIC "-//W3C//DTD SVG 1.1//EN" "http://www.w3.org/Graphics/SVG/1.1/DTD/svg11.dtd">
<svg version="1.1" id="Layer_1" xmlns="http://www.w3.org/2000/svg" xmlns:xlink="http://www.w3.org/1999/xlink" x="0px" y="0px" width="32px" height="32px" viewBox="0 0 32 32" enable-background="new 0 0 32 32" xml:space="preserve">
  <g id="icon">
    <path d="m15.4574,20.9944c0,0,-0.349207,2.09524,0.571428,4.63492,0.920635,2.53968,3.04762,4.31746,3.04762,4.31746" fill="none" stroke="#9D9D9D" stroke-width="1" stroke-linecap="butt" stroke-linejoin="miter" stroke-opacity="1"/>
    <path d="m15.4943,26.1461c0,0,-1.38278,-1.43712,-3.05138,-2.02194,-1.6686,-0.584815,-4.38636,-0.777668,-4.92671,1.05763,-0.540348,1.8353,1.43232,2.34631,4.13208,2.86182,2.69976,0.515508,3.84601,-1.89751,3.84601,-1.89751z" fill="#A7A7A7" stroke="#9D9D9D" stroke-width="0.99049" stroke-linecap="butt" stroke-linejoin="miter" stroke-opacity="1"/>
    <path d="m16.7907,26.169c0,0,3.33879,1.19093,5.84127,0.222222,0.984126,-0.380953,2.44444,-0.952381,1.65079,-2.63492,-0.793651,-1.68254,-3.49206,-0.920634,-4.28571,-0.571428,-1.24813,0.549173,-3.20635,2.98413,-3.20635,2.98413z" fill="#A7A7A7" stroke="#9D9D9D" stroke-width="1" stroke-linecap="butt" stroke-linejoin="miter" stroke-opacity="1"/>
    <path d="m13.4891,6.39127c0,0,-3.03297,-2.24054,-4.63492,-0.476191,-1.60195,1.76435,-0.401244,3.60812,1.04762,5.23809,-1.89384,-0.406239,-4.14209,0.121922,-4.31746,2.22222,-0.06349,1.07936,-0.09188,1.94313,1.04762,3.11111,1.26984,1.30159,3.1746,0.857144,3.1746,0.857144,-0.682528,2.0293,-0.426043,3.73197,1.01587,4.63492,1.68254,1.01587,4.7619,-1.39683,4.7619,-1.39683,0,0,1.26984,2.73016,3.52381,1.71429,2.25397,-1.01587,2.15873,-3.46032,2.15873,-3.46032,0,0,4.09524,1.07936,4.73016,-1.87302,0.634921,-2.95238,-3.77778,-4.4127,-3.77778,-4.4127,0,0,3.71429,-3.39683,1.96825,-6.03175,-1.47687,-2.22873,-4.38095,-0.603175,-4.38095,-0.603175,0,0,-0.603175,-2.79365,-3.30159,-2.57143,-2.69841,0.222222,-3.01587,3.04762,-3.01587,3.04762z" fill="#ABABAB" stroke="#AAAAAA" stroke-width="1" stroke-linecap="butt" stroke-linejoin="miter" stroke-opacity="1"/>
    <ellipse cx="15.8066" cy="13.4865" rx="3.65079" ry="3.53968" fill="#C4C4C4" stroke-width="0"/>
  </g>
</svg>
