<?xml version="1.0" encoding="UTF-8"?>
<!DOCTYPE svg PUBLIC "-//W3C//DTD SVG 1.1//EN" "http://www.w3.org/Graphics/SVG/1.1/DTD/svg11.dtd">
<svg version="1.1" id="Layer_1" xmlns="http://www.w3.org/2000/svg" xmlns:xlink="http://www.w3.org/1999/xlink" x="0px" y="0px" width="32px" height="32px" viewBox="0 0 32 32" enable-background="new 0 0 32 32" xml:space="preserve">
  <g id="main">
    <g id="icon">
      <path d="M14.92,21.31L14.92,21.33L14.92,21.35L14.9,22.35L14.9,22.37L14.9,22.39L14.94,23.08L14.95,23.1L14.95,23.11L15.06,23.9L15.06,23.92L15.06,23.94L15.25,24.81L15.26,24.83L15.26,24.85L15.55,25.78L15.56,25.8L15.57,25.83L15.64,25.98L15.57,25.65L15.5,24.5L15.55,23.58L15.68,22.69L15.91,21.83L15.91,21.82L15.92,21.39L15.95,21.05L14.96,20.94zz" fill="#9D9D9D" fill-opacity="1"/>
      <path d="M9.556,23.75L8.872,23.89L8.279,24.16L8.029,24.35L7.815,24.59L7.642,24.86L7.516,25.18L7.444,25.51L7.428,25.81L7.466,26.08L7.554,26.33L7.691,26.55L7.874,26.76L8.367,27.11L9.012,27.4L9.788,27.64L11.65,28.04L12.14,28.11L12.59,28.11L13.01,28.06L13.39,27.96L14.05,27.67L14.58,27.29L14.99,26.88L15.27,26.52L15.49,26.15L15.25,25.91L14.59,25.35L13.62,24.69L13.05,24.38L12.44,24.12L11.77,23.93L11.05,23.78L10.29,23.72zz" fill="#A7A7A7"/>
      <path d="M10.27,23.22L9.538,23.25L9.497,23.25L9.456,23.26L8.772,23.4L8.717,23.41L8.665,23.44L8.072,23.71L8.022,23.73L7.978,23.77L7.727,23.96L7.693,23.99L7.664,24.02L7.45,24.25L7.419,24.28L7.395,24.32L7.222,24.6L7.198,24.64L7.181,24.68L7.055,25L7.041,25.04L7.032,25.08L6.96,25.4L6.952,25.44L6.949,25.48L6.933,25.78L6.931,25.83L6.937,25.88L6.975,26.15L6.982,26.2L6.999,26.25L7.088,26.5L7.105,26.55L7.132,26.59L7.269,26.81L7.293,26.85L7.324,26.89L7.506,27.09L7.543,27.13L7.588,27.16L8.081,27.51L8.121,27.54L8.165,27.56L8.81,27.85L8.837,27.86L8.865,27.87L9.64,28.11L9.661,28.12L9.682,28.12L11.54,28.53L11.56,28.53L11.58,28.53L12.07,28.6L12.1,28.6L12.13,28.6L12.59,28.61L12.62,28.61L12.65,28.6L13.06,28.55L13.1,28.55L13.13,28.54L13.51,28.45L13.55,28.43L13.59,28.42L14.25,28.12L14.3,28.1L14.34,28.07L14.87,27.69L14.91,27.67L14.93,27.64L15.34,27.23L15.36,27.21L15.38,27.19L15.66,26.82L15.68,26.79L15.7,26.77L15.77,26.65L15.57,25.65L15.57,25.53L14.91,24.98L14.9,24.96L14.88,24.95L13.9,24.28L13.88,24.26L13.86,24.25L13.29,23.94L13.27,23.93L13.24,23.92L12.63,23.67L12.61,23.66L12.58,23.65L11.91,23.45L11.89,23.44L11.87,23.44L11.14,23.3L11.11,23.29L11.09,23.29L10.34,23.22L10.31,23.22zM10.98,24.28L11.66,24.41L12.28,24.59L12.84,24.83L13.36,25.11L14.29,25.75L14.86,26.23L14.86,26.24L14.62,26.55L14.26,26.91L13.8,27.24L13.23,27.49L12.92,27.57L12.56,27.61L12.17,27.61L11.73,27.56L9.915,27.16L9.187,26.93L8.614,26.68L8.205,26.39L8.09,26.26L8.003,26.12L7.949,25.96L7.925,25.79L7.936,25.58L7.992,25.33L8.086,25.08L8.21,24.89L8.364,24.72L8.537,24.59L9.028,24.36L9.617,24.24L10.28,24.21zz" fill="#9D9D9D" fill-opacity="1"/>
      <path d="M16.5,3.344L16.03,3.414L15.6,3.538L15.22,3.707L14.9,3.913L14.36,4.406L13.99,4.951L13.73,5.486L13.58,5.946L13.49,6.391L12.99,6.069L12.44,5.775L11.77,5.492L11.02,5.29L10.64,5.244L10.25,5.245L9.877,5.304L9.513,5.429L9.17,5.63L8.854,5.915L8.586,6.247L8.38,6.58L8.232,6.914L8.138,7.249L8.1,7.918L8.234,8.585L8.511,9.245L8.902,9.895L9.375,10.53L9.902,11.15L9.18,11.05L8.453,11.03L7.75,11.12L7.099,11.32L6.528,11.64L6.067,12.08L5.886,12.36L5.743,12.66L5.641,13L5.584,13.38L5.561,14.15L5.657,14.9L5.783,15.27L5.979,15.66L6.257,16.06L6.632,16.49L7.133,16.9L7.664,17.17L8.195,17.33L8.696,17.4L9.489,17.39L9.807,17.34L9.595,18.09L9.475,18.8L9.448,19.46L9.518,20.08L9.687,20.65L9.959,21.16L10.34,21.6L10.82,21.98L11.15,22.13L11.51,22.21L11.89,22.23L12.28,22.19L13.07,21.98L13.83,21.66L14.52,21.29L15.08,20.94L15.58,20.58L15.82,20.99L16.08,21.35L16.21,21L16.59,20.21L17.04,19.47L17.56,18.78L18.14,18.14L18.78,17.56L19.47,17.04L20.21,16.59L21,16.21L21.83,15.91L22.69,15.68L23.58,15.55L24.5,15.5L25.65,15.57L25.93,15.63L25.88,15.46L25.67,15.03L25.4,14.63L25.08,14.27L24.35,13.65L23.58,13.17L22.9,12.82L22.22,12.55L22.77,11.98L23.3,11.34L23.86,10.52L24.33,9.585L24.5,9.085L24.62,8.572L24.65,8.053L24.6,7.534L24.45,7.02L24.19,6.518L23.89,6.144L23.58,5.852L23.23,5.635L22.88,5.484L22.52,5.391L22.15,5.348L21.44,5.381L20.8,5.518L20.28,5.696L19.81,5.915L19.67,5.482L19.47,5.043L19.17,4.546L18.74,4.06L18.16,3.652L17.81,3.498L17.42,3.39L16.99,3.336zz" fill="#ABABAB"/>
      <path d="M16.98,2.836L16.5,2.844L16.46,2.844L16.43,2.849L15.95,2.92L15.92,2.925L15.89,2.934L15.46,3.058L15.43,3.068L15.4,3.082L15.02,3.251L14.99,3.265L14.96,3.284L14.63,3.49L14.59,3.515L14.56,3.547L14.02,4.039L13.99,4.076L13.95,4.12L13.57,4.665L13.55,4.699L13.53,4.737L13.28,5.271L13.27,5.3L13.26,5.33L13.17,5.597L12.68,5.335L12.66,5.324L12.64,5.315L11.97,5.031L11.94,5.018L11.9,5.009L11.15,4.808L11.12,4.798L11.08,4.794L10.7,4.747L10.67,4.744L10.64,4.744L10.25,4.745L10.21,4.745L10.18,4.751L9.8,4.81L9.756,4.817L9.714,4.831L9.351,4.956L9.304,4.972L9.261,4.997L8.918,5.198L8.873,5.224L8.835,5.259L8.519,5.544L8.49,5.57L8.465,5.601L8.197,5.932L8.178,5.957L8.161,5.984L7.955,6.317L7.937,6.346L7.923,6.377L7.775,6.712L7.76,6.745L7.75,6.779L7.657,7.114L7.642,7.166L7.639,7.22L7.6,7.889L7.597,7.954L7.61,8.017L7.744,8.683L7.754,8.732L7.773,8.778L8.05,9.438L8.064,9.471L8.082,9.502L8.473,10.15L8.486,10.17L8.5,10.19L8.757,10.54L8.461,10.53L8.425,10.53L8.389,10.54L7.686,10.63L7.644,10.63L7.603,10.65L6.952,10.85L6.901,10.86L6.855,10.89L6.285,11.21L6.229,11.24L6.182,11.28L5.721,11.72L5.681,11.76L5.651,11.81L5.47,12.08L5.449,12.11L5.433,12.14L5.29,12.45L5.274,12.48L5.263,12.52L5.162,12.86L5.152,12.89L5.146,12.93L5.09,13.3L5.086,13.33L5.085,13.36L5.061,14.14L5.06,14.18L5.065,14.22L5.161,14.96L5.167,15.01L5.183,15.06L5.309,15.43L5.321,15.47L5.337,15.5L5.533,15.89L5.548,15.92L5.568,15.94L5.846,16.35L5.863,16.37L5.882,16.39L6.257,16.82L6.284,16.85L6.315,16.87L6.816,17.28L6.857,17.32L6.904,17.34L7.435,17.61L7.476,17.64L7.519,17.65L8.05,17.81L8.085,17.82L8.122,17.82L8.623,17.9L8.662,17.9L8.702,17.9L9.129,17.9L9.114,17.95L9.107,17.98L9.102,18L8.982,18.71L8.976,18.74L8.975,18.78L8.948,19.44L8.947,19.48L8.951,19.52L9.021,20.14L9.026,20.18L9.039,20.23L9.208,20.79L9.223,20.84L9.246,20.89L9.519,21.39L9.544,21.44L9.578,21.48L9.956,21.93L9.99,21.97L10.03,22L10.52,22.37L10.56,22.41L10.61,22.43L10.94,22.58L10.99,22.61L11.04,22.62L11.4,22.7L11.44,22.71L11.49,22.71L11.86,22.73L11.9,22.73L11.94,22.72L12.32,22.69L12.36,22.68L12.4,22.67L13.19,22.47L13.23,22.46L13.26,22.44L14.03,22.12L14.05,22.11L14.07,22.1L14.76,21.73L14.77,21.72L14.79,21.72L15.34,21.37L15.35,21.36L15.37,21.35L15.43,21.31L15.7,21.68L15.72,21.71L15.74,21.73L15.89,21.89L15.91,21.83L16.21,21L16.3,20.81L16.24,20.72L16.02,20.33L15.75,19.85L15.29,20.17L14.8,20.53L14.27,20.86L13.62,21.21L12.91,21.51L12.19,21.7L11.87,21.73L11.58,21.71L11.31,21.65L11.08,21.55L10.68,21.24L10.38,20.88L10.15,20.46L10.01,19.98L9.949,19.45L9.973,18.85L10.08,18.2L10.29,17.48L10.5,16.73L9.73,16.85L9.448,16.89L8.729,16.9L8.304,16.84L7.851,16.7L7.408,16.48L6.98,16.13L6.651,15.75L6.409,15.4L6.246,15.08L6.147,14.79L6.062,14.13L6.083,13.42L6.13,13.11L6.211,12.84L6.322,12.6L6.452,12.41L6.828,12.05L7.296,11.79L7.856,11.61L8.48,11.53L9.139,11.55L9.828,11.65L11.14,11.84L10.28,10.83L9.766,10.22L9.318,9.617L8.958,9.018L8.714,8.437L8.603,7.882L8.634,7.331L8.704,7.083L8.823,6.813L8.995,6.537L9.219,6.26L9.467,6.036L9.723,5.886L9.997,5.791L10.29,5.745L10.61,5.744L10.93,5.782L11.61,5.966L12.23,6.227L12.73,6.499L13.22,6.811L13.83,7.208L13.98,6.492L14.06,6.076L14.2,5.671L14.42,5.202L14.74,4.735L15.2,4.313L15.46,4.149L15.77,4.009L16.13,3.904L16.55,3.843L16.96,3.836L17.32,3.882L17.64,3.971L17.91,4.089L18.4,4.434L18.76,4.845L19.03,5.277L19.2,5.659L19.33,6.065L19.5,6.606L20.02,6.369L20.47,6.161L20.94,6.001L21.51,5.878L22.14,5.849L22.42,5.883L22.72,5.959L23,6.079L23.27,6.251L23.53,6.486L23.77,6.791L23.99,7.21L24.11,7.629L24.15,8.059L24.12,8.5L24.02,8.949L23.87,9.389L23.43,10.27L22.9,11.03L22.4,11.65L21.86,12.2L21.34,12.74L22.03,13.01L22.69,13.28L23.34,13.6L24.05,14.05L24.73,14.63L25.01,14.94L25.24,15.28L25.38,15.56L25.65,15.57L26.48,15.73L26.37,15.32L26.35,15.28L26.33,15.24L26.12,14.81L26.11,14.78L26.09,14.74L25.81,14.35L25.8,14.32L25.78,14.3L25.45,13.94L25.43,13.91L25.4,13.89L24.67,13.27L24.64,13.24L24.61,13.23L23.85,12.74L23.83,12.73L23.81,12.72L23.12,12.38L23.11,12.37L23.09,12.36L23.13,12.33L23.15,12.31L23.16,12.3L23.69,11.65L23.7,11.64L23.72,11.62L24.27,10.8L24.29,10.78L24.3,10.75L24.78,9.81L24.79,9.78L24.8,9.748L24.98,9.248L24.99,9.22L24.99,9.191L25.11,8.679L25.11,8.644L25.12,8.608L25.15,8.089L25.16,8.047L25.15,8.005L25.1,7.486L25.1,7.438L25.08,7.393L24.93,6.879L24.92,6.831L24.9,6.786L24.63,6.284L24.61,6.245L24.58,6.21L24.29,5.836L24.26,5.803L24.23,5.775L23.91,5.483L23.88,5.454L23.84,5.431L23.5,5.214L23.47,5.191L23.43,5.175L23.08,5.024L23.04,5.009L23,4.999L22.64,4.906L22.61,4.898L22.58,4.894L22.21,4.851L22.17,4.847L22.13,4.848L21.42,4.881L21.38,4.883L21.34,4.892L20.7,5.029L20.67,5.036L20.64,5.045L20.12,5.223L20.1,5.229L19.93,4.838L19.92,4.809L19.9,4.781L19.59,4.284L19.57,4.247L19.54,4.214L19.11,3.728L19.07,3.685L19.02,3.652L18.45,3.244L18.41,3.214L18.36,3.194L18.01,3.041L17.98,3.026L17.95,3.017L17.56,2.908L17.52,2.899L17.48,2.894L17.05,2.84L17.01,2.835zz" fill="#AAAAAA" fill-opacity="1"/>
      <path d="M15.07,10.02L14.39,10.23L13.77,10.55L13.23,10.98L12.78,11.51L12.44,12.11L12.23,12.77L12.16,13.49L12.23,14.2L12.44,14.86L12.78,15.47L13.23,15.99L13.77,16.42L14.39,16.75L15.07,16.95L15.81,17.03L16.54,16.95L17.23,16.75L17.85,16.42L18.39,15.99L18.83,15.47L19.17,14.86L19.38,14.2L19.46,13.49L19.38,12.77L19.17,12.11L18.83,11.51L18.39,10.98L17.85,10.55L17.23,10.23L16.54,10.02L15.81,9.947zz" fill="#C4C4C4"/>
    </g>
    <g id="overlay">
      <path d="M17.5,24.5c0,-3.866,3.134,-7,7,-7s7,3.134,7,7s-3.134,7,-7,7S17.5,28.366,17.5,24.5zM20.23,30.046M28.805,30.02" fill="#FFFFFF" stroke="#541B23" stroke-width="1" stroke-miterlimit="10"/>
      <path d="M24.5,19v5.559l3.39,3.72" fill="none" stroke="#B3394B" stroke-width="1" stroke-miterlimit="10"/>
    </g>
  </g>
</svg>
