<?xml version="1.0" encoding="UTF-8"?>
<!DOCTYPE svg PUBLIC "-//W3C//DTD SVG 1.1//EN" "http://www.w3.org/Graphics/SVG/1.1/DTD/svg11.dtd">
<svg version="1.1" id="Layer_1" xmlns="http://www.w3.org/2000/svg" xmlns:xlink="http://www.w3.org/1999/xlink" x="0px" y="0px" width="32px" height="32px" viewBox="0 0 32 32" enable-background="new 0 0 32 32" xml:space="preserve">
  <g id="main">
    <clipPath id="clip_mask">
      <path d="M19.531,32H0V0h32v19.531C30.386,17.103,27.627,15.5,24.5,15.5c-4.963,0,-9,4.037,-9,9C15.5,27.627,17.103,30.386,19.531,32zM29.469,32H32v-2.531C31.334,30.472,30.472,31.334,29.469,32z"/>
    </clipPath>
    <g id="icon" clip-path="url(#clip_mask)">
      <path d="M0.5,7.5v22h30V7.5H0.5z" fill="#FFFFFF" stroke="#383838" stroke-width="1" stroke-miterlimit="5"/>
      <rect x="0.5" y="2.5" width="30" height="5" fill="#C8C6C4" stroke="#383838" stroke-width="1" stroke-linecap="round" stroke-miterlimit="5"/>
      <path d="M7.5,0v5M25.5,0v5" fill="#FFFFFF" stroke="#383838" stroke-width="1" stroke-miterlimit="5"/>
      <path d="M5.544,15.048c0.073,-0.555,0.225,-1.056,0.455,-1.502c0.23,-0.446,0.525,-0.824,0.885,-1.135c0.36,-0.311,0.775,-0.55,1.244,-0.719c0.47,-0.169,0.981,-0.253,1.534,-0.253c0.48,0,0.951,0.069,1.414,0.208c0.463,0.139,0.875,0.355,1.234,0.649c0.36,0.294,0.651,0.669,0.875,1.125c0.223,0.456,0.335,1.005,0.335,1.646c0,0.529,-0.085,1.021,-0.255,1.477c-0.17,0.456,-0.398,0.892,-0.685,1.309c-0.287,0.416,-0.618,0.825,-0.995,1.224c-0.377,0.4,-0.771,0.808,-1.184,1.224L5.5,25.407V25.5h9.1" fill="#FFFFFF" stroke="#A0519F" stroke-width="1.2" stroke-miterlimit="5"/>
      <path d="M17.617,22.047c0.013,0.047,0.076,0.321,0.12,0.495c0.043,0.175,0.116,0.382,0.22,0.62c0.103,0.239,0.248,0.491,0.434,0.756c0.186,0.266,0.431,0.511,0.733,0.736c0.303,0.225,0.67,0.412,1.103,0.56c0.432,0.148,0.951,0.222,1.557,0.222c0.685,0,1.284,-0.116,1.796,-0.348c0.512,-0.232,0.939,-0.528,1.282,-0.887c0.343,-0.36,0.6,-0.756,0.773,-1.19c0.173,-0.434,0.259,-0.855,0.259,-1.265c0,-0.484,-0.083,-0.934,-0.249,-1.351c-0.166,-0.417,-0.429,-0.78,-0.788,-1.089c-0.359,-0.309,-0.818,-0.553,-1.377,-0.731c-0.559,-0.178,-1.194,-0.303,-1.978,-0.31v-0.047c0.612,-0.02,1.13,-0.197,1.629,-0.369c0.499,-0.171,0.923,-0.407,1.272,-0.706c0.349,-0.299,0.619,-0.652,0.808,-1.059c0.19,-0.407,0.284,-0.859,0.284,-1.356c0,-0.585,-0.098,-1.087,-0.294,-1.507c-0.196,-0.42,-0.459,-0.765,-0.788,-1.034c-0.329,-0.269,-0.707,-0.467,-1.132,-0.595c-0.426,-0.128,-0.865,-0.192,-1.317,-0.192c-0.519,0,-0.998,0.081,-1.437,0.242c-0.439,0.161,-0.825,0.388,-1.157,0.681c-0.333,0.292,-0.609,0.64,-0.828,1.044c-0.22,0.403,-0.422,1.003,-0.502,1.494" fill="#FFFFFF" stroke="#A0519F" stroke-width="1.2" stroke-miterlimit="5"/>
    </g>
    <g id="overlay">
      <circle cx="24.5" cy="24.5" r="7" fill="#FFFFFF" stroke="#17AB4F" stroke-width="1" stroke-miterlimit="1"/>
      <path d="M24.5,19.44V29.56M19.44,24.5H29.56" fill="#FFFFFF" stroke="#17AB4F" stroke-width="1" stroke-miterlimit="1"/>
    </g>
  </g>
</svg>
