<?xml version="1.0" encoding="UTF-8"?>
<!DOCTYPE svg PUBLIC "-//W3C//DTD SVG 1.1//EN" "http://www.w3.org/Graphics/SVG/1.1/DTD/svg11.dtd">
<svg version="1.1" id="Layer_1" xmlns="http://www.w3.org/2000/svg" xmlns:xlink="http://www.w3.org/1999/xlink" x="0px" y="0px" width="32px" height="32px" viewBox="0 0 32 32" enable-background="new 0 0 32 32" xml:space="preserve">
  <g id="main">
    <g id="icon">
      <path d="M9.746,14.6L3.746,17.6L3.746,30.6L15.56,30.6L20.08,26.09L19.69,25.28L19.42,24.43L19.25,23.55L19.19,22.65L19.23,21.92L19.34,21.21L19.51,20.53L19.75,19.87L20.06,19.25L20.41,18.66L20.83,18.1L21.29,17.6L21.8,17.13L22.35,16.72L22.94,16.36L23.56,16.06L24.2,15.83L21.75,14.6L21.75,12.6L9.746,12.6zM21.23,30.6L27.75,30.6L27.75,29.65L27.19,29.75L26.35,29.8L25.45,29.75L24.57,29.58L23.72,29.3L22.91,28.92zz" fill="#ffffff"/>
      <path d="M9.414,12.6L9.414,14.4L3.597,17.3L3.414,17.4L3.414,17.6L3.414,30.6L3.746,30.93L15.23,30.93L15.9,30.27L4.078,30.27L4.078,17.81L9.895,14.9L10.08,14.81L10.08,14.6L10.08,12.93L21.41,12.93L21.41,14.6L21.41,14.81L21.6,14.9L23.77,15.99L24.22,15.82L24.69,15.7L22.08,14.4L22.08,12.6L21.75,12.27L9.746,12.27zM28.01,29.61L27.41,29.71L27.41,30.27L21.57,30.27L20.9,30.93L27.75,30.93L28.08,30.6L28.08,29.59zz" fill="#000000" fill-opacity="1"/>
      <path d="M14.98,21.6L16.51,21.6L16.51,14.6L14.98,14.6zz" fill="#000000" fill-opacity="1"/>
      <path d="M12.75,18.21L18.75,18.21L18.75,16.99L12.75,16.99zz" fill="#000000" fill-opacity="1"/>
      <path d="M15.7,23.25L15.04,23.34L14.99,23.35L14.94,23.37L14.44,23.6L14.4,23.62L14.36,23.65L14,23.97L13.97,24.01L13.94,24.04L13.7,24.41L13.68,24.44L13.67,24.47L13.53,24.84L13.52,24.86L13.51,24.89L13.44,25.21L13.43,25.23L13.43,25.25L13.4,25.57L13.4,25.58L13.4,25.6L13.4,30.6L14.1,30.6L14.1,25.62L14.12,25.35L14.19,25.07L14.31,24.76L14.5,24.46L14.78,24.21L15.18,24.03L15.75,23.95L16.31,24.03L16.71,24.21L16.99,24.46L17.18,24.76L17.31,25.07L17.37,25.35L17.4,25.62L17.4,28.77L18.1,28.07L18.1,25.6L18.1,25.58L18.09,25.57L18.06,25.25L18.06,25.23L18.06,25.21L17.98,24.89L17.98,24.86L17.97,24.84L17.82,24.47L17.81,24.44L17.79,24.41L17.55,24.04L17.53,24.01L17.49,23.97L17.14,23.65L17.1,23.62L17.05,23.6L16.55,23.37L16.5,23.35L16.45,23.34L15.79,23.25L15.75,23.25zz" fill="#000000" fill-opacity="1"/>
      <path d="M9.396,30.6L10.1,30.6L10.1,12.6L9.396,12.6zz" fill="#000000" fill-opacity="1"/>
      <path d="M21.4,17.5L21.8,17.13L22.1,16.91L22.1,14.6L21.4,14.6zM21.4,30.44L21.4,30.6L22.1,30.6L22.1,29.74zz" fill="#000000" fill-opacity="1"/>
      <path d="M11.75,12.6L15.75,12.6L19.75,12.6L15.75,1.602zz" fill="#000000"/>
      <path d="M15.41,1.37L15.36,1.462L11.36,12.46L11.37,12.75L11.57,12.97L11.75,13.01L15.75,13.01L19.75,13.01L20.02,12.91L20.15,12.65L20.13,12.46L16.13,1.462L15.94,1.242L15.65,1.205zM19.16,12.19L15.75,12.19L12.33,12.19L15.75,2.796zz" fill="#000000" fill-opacity="1"/>
      <path d="M9.746,13.06L21.75,13.06L21.75,12.14L9.746,12.14zz" fill="#000000" fill-opacity="1"/>
    </g>
    <g id="overlay">
      <path d="M26.345,27.798c-2.844,0,-5.15,-2.304,-5.15,-5.146s2.306,-5.146,5.15,-5.146s5.15,2.304,5.15,5.146S29.19,27.798,26.345,27.798zM17.357,31.643l5.313,-5.313" fill="#92CBEE"/>
      <path d="M17.714,32l-0.714,-0.714l5.01,-5.01c-0.823,-0.982,-1.319,-2.246,-1.319,-3.624c0,-3.116,2.537,-5.651,5.655,-5.651c3.118,0,5.655,2.535,5.655,5.651s-2.537,5.651,-5.655,5.651c-1.376,0,-2.639,-0.494,-3.621,-1.314L17.714,32zM26.345,18.01c-2.561,0,-4.645,2.082,-4.645,4.642s2.084,4.642,4.645,4.642c2.561,0,4.645,-2.082,4.645,-4.642S28.907,18.01,26.345,18.01z" fill="#0964B0"/>
    </g>
  </g>
</svg>
