<?xml version="1.0" encoding="UTF-8"?>
<!DOCTYPE svg PUBLIC "-//W3C//DTD SVG 1.1//EN" "http://www.w3.org/Graphics/SVG/1.1/DTD/svg11.dtd">
<svg version="1.1" id="Layer_1" xmlns="http://www.w3.org/2000/svg" xmlns:xlink="http://www.w3.org/1999/xlink" x="0px" y="0px" width="32px" height="32px" viewBox="0 0 32 32" enable-background="new 0 0 32 32" xml:space="preserve">
  <g id="main">
    <g id="icon">
      <path d="M9.746,14.6L3.746,17.6L3.746,30.6L17.89,30.6L17.88,30.59L17.19,29.74L16.61,28.82L16.14,27.82L15.79,26.76L15.57,25.65L15.5,24.5L15.55,23.58L15.68,22.69L15.91,21.83L16.21,21L16.59,20.21L17.04,19.47L17.56,18.78L18.14,18.14L18.78,17.56L19.47,17.04L20.21,16.59L21,16.21L21.83,15.91L22.69,15.68L23.58,15.55L23.63,15.54L21.75,14.6L21.75,12.6L9.746,12.6zz" fill="#ffffff"/>
      <path d="M9.414,12.6L9.414,14.4L3.597,17.3L3.414,17.4L3.414,17.6L3.414,30.6L3.746,30.93L18.24,30.93L17.88,30.59L17.62,30.27L4.078,30.27L4.078,17.81L9.895,14.9L10.08,14.81L10.08,14.6L10.08,12.93L21.41,12.93L21.41,14.6L21.41,14.81L21.6,14.9L23.05,15.63L23.58,15.55L24.3,15.51L22.08,14.4L22.08,12.6L21.75,12.27L9.746,12.27zz" fill="#000000" fill-opacity="1"/>
      <path d="M14.98,21.6L15.99,21.6L16.21,21L16.51,20.38L16.51,14.6L14.98,14.6zz" fill="#000000" fill-opacity="1"/>
      <path d="M12.75,18.21L18.07,18.21L18.14,18.14L18.75,17.59L18.75,16.99L12.75,16.99zz" fill="#000000" fill-opacity="1"/>
      <path d="M15.04,23.34L14.99,23.35L14.94,23.37L14.44,23.6L14.4,23.62L14.36,23.65L14,23.97L13.97,24.01L13.94,24.04L13.7,24.41L13.68,24.44L13.67,24.47L13.53,24.84L13.52,24.86L13.51,24.89L13.44,25.21L13.43,25.23L13.43,25.25L13.4,25.57L13.4,25.58L13.4,25.6L13.4,30.6L14.1,30.6L14.1,25.62L14.12,25.35L14.19,25.07L14.31,24.76L14.5,24.46L14.78,24.21L15.18,24.03L15.53,23.98L15.55,23.58L15.59,23.27zM17.4,30.6L17.89,30.6L17.88,30.59L17.4,30zz" fill="#000000" fill-opacity="1"/>
      <path d="M9.396,30.6L10.1,30.6L10.1,12.6L9.396,12.6zz" fill="#000000" fill-opacity="1"/>
      <path d="M21.4,16.06L21.83,15.91L22.1,15.84L22.1,14.6L21.4,14.6zz" fill="#000000" fill-opacity="1"/>
      <path d="M11.75,12.6L15.75,12.6L19.75,12.6L15.75,1.602zz" fill="#000000"/>
      <path d="M15.41,1.37L15.36,1.462L11.36,12.46L11.37,12.75L11.57,12.97L11.75,13.01L15.75,13.01L19.75,13.01L20.02,12.91L20.15,12.65L20.13,12.46L16.13,1.462L15.94,1.242L15.65,1.205zM19.16,12.19L15.75,12.19L12.33,12.19L15.75,2.796zz" fill="#000000" fill-opacity="1"/>
      <path d="M9.746,13.06L21.75,13.06L21.75,12.14L9.746,12.14zz" fill="#000000" fill-opacity="1"/>
    </g>
    <g id="overlay">
      <path d="M17.5,24.5c0,-3.866,3.134,-7,7,-7s7,3.134,7,7s-3.134,7,-7,7S17.5,28.366,17.5,24.5zM20.23,30.046M28.805,30.02" fill="#FFFFFF" stroke="#383838" stroke-width="1" stroke-miterlimit="10"/>
      <path d="M24.5,19v5.559l3.39,3.72" fill="none" stroke="#228BCB" stroke-width="1" stroke-miterlimit="10"/>
    </g>
  </g>
</svg>
