<?xml version="1.0" encoding="UTF-8"?>
<!DOCTYPE svg PUBLIC "-//W3C//DTD SVG 1.1//EN" "http://www.w3.org/Graphics/SVG/1.1/DTD/svg11.dtd">
<svg version="1.1" id="Layer_1" xmlns="http://www.w3.org/2000/svg" xmlns:xlink="http://www.w3.org/1999/xlink" x="0px" y="0px" width="32px" height="32px" viewBox="0 0 32 32" enable-background="new 0 0 32 32" xml:space="preserve">
  <g id="main">
    <g id="icon">
      <path d="M2.5,24L2.559,24.52L2.734,25.03L3.017,25.53L3.404,26.02L3.888,26.5L4.464,26.95L5.126,27.38L5.868,27.79L6.685,28.15L7.57,28.49L8.519,28.78L9.524,29.03L10.58,29.23L11.68,29.38L12.63,29.45L12.61,29.35L12.53,28.83L12.5,28.29L12.55,27.59L12.68,26.92L12.9,26.27L13.2,25.67L13.57,25.11L14.02,24.6L14.52,24.15L15.08,23.77L15.49,22.76L16.03,21.84L16.71,21.03L17.5,20.33L18.39,19.77L19.35,19.35L20.39,19.09L21.47,19L22.23,19.04L22.96,19.17L23.68,19.38L24.36,19.67L25.01,20.03L25.5,20.38L25.5,4.033L2.5,4.033zz" fill="#F7DA8E"/>
      <path d="M2.265,3.592L2.038,3.841L2,4.033L2,24L2,24.03L2.003,24.06L2.063,24.57L2.069,24.63L2.086,24.68L2.26,25.19L2.275,25.23L2.298,25.27L2.581,25.78L2.6,25.81L2.624,25.84L3.011,26.33L3.031,26.36L3.054,26.38L3.538,26.86L3.557,26.88L3.578,26.89L4.154,27.35L4.172,27.36L4.192,27.37L4.854,27.8L4.871,27.81L4.888,27.82L5.63,28.23L5.646,28.23L5.662,28.24L6.479,28.61L6.494,28.62L6.509,28.62L7.394,28.96L7.408,28.96L7.423,28.97L8.371,29.26L8.385,29.26L8.399,29.27L9.404,29.51L9.417,29.52L9.431,29.52L10.49,29.72L10.5,29.72L10.51,29.72L11.62,29.87L11.63,29.87L11.64,29.88L12.78,29.97L12.74,29.85L12.61,29.35L12.54,28.94L11.73,28.88L10.66,28.74L9.631,28.54L8.653,28.3L7.733,28.01L6.874,27.69L6.091,27.34L5.381,26.95L4.756,26.55L4.219,26.12L3.777,25.69L3.434,25.25L3.192,24.82L3.05,24.41L3,23.97L3,4.033L2.887,3.716L2.598,3.543zM25.27,3.592L25.04,3.841L25,4.033L25,20.03L25.01,20.03L25.61,20.46L26,20.81L26,4.033L25.89,3.716L25.6,3.543zz" fill="#E57428"/>
      <path d="M11.68,0.5678L9.524,0.7619L7.57,1.069L5.868,1.476L4.464,1.97L3.888,2.244L3.404,2.536L3.017,2.842L2.734,3.161L2.559,3.492L2.5,3.833L2.559,4.174L2.734,4.505L3.017,4.824L3.404,5.13L3.888,5.422L4.464,5.696L5.868,6.19L7.57,6.597L9.524,6.904L11.68,7.098L14,7.166L16.32,7.098L18.48,6.904L20.43,6.597L22.13,6.19L23.54,5.696L24.11,5.422L24.6,5.13L24.98,4.824L25.27,4.505L25.44,4.174L25.5,3.833L25.44,3.492L25.27,3.161L24.98,2.842L24.6,2.536L24.11,2.244L23.54,1.97L22.13,1.476L20.43,1.069L18.48,0.7619L16.32,0.5678L14,0.5zz" fill="#F7DA8E"/>
      <path d="M13.99,0.0001953L11.67,0.06797L11.65,0.06836L11.64,0.06973L9.479,0.2639L9.462,0.2654L9.446,0.268L7.493,0.5754L7.473,0.5783L7.454,0.583L5.752,0.9898L5.727,0.9959L5.703,1.004L4.298,1.498L4.273,1.507L4.249,1.518L3.673,1.793L3.651,1.803L3.63,1.816L3.146,2.107L3.119,2.124L3.093,2.144L2.707,2.45L2.672,2.477L2.643,2.51L2.36,2.829L2.32,2.875L2.291,2.928L2.117,3.259L2.08,3.329L2.067,3.406L2.007,3.747L1.992,3.833L2.007,3.919L2.067,4.26L2.08,4.337L2.117,4.407L2.291,4.738L2.32,4.791L2.36,4.837L2.643,5.156L2.672,5.189L2.707,5.216L3.093,5.522L3.119,5.542L3.146,5.559L3.63,5.85L3.651,5.863L3.673,5.873L4.249,6.148L4.273,6.159L4.298,6.168L5.703,6.662L5.727,6.67L5.752,6.676L7.454,7.083L7.473,7.088L7.493,7.091L9.446,7.398L9.462,7.401L9.479,7.402L11.64,7.596L11.65,7.598L11.67,7.598L13.99,7.666L14,7.666L14.01,7.666L16.33,7.598L16.35,7.598L16.36,7.596L18.52,7.402L18.54,7.401L18.55,7.398L20.51,7.091L20.53,7.088L20.55,7.083L22.25,6.676L22.27,6.67L22.3,6.662L23.7,6.168L23.73,6.159L23.75,6.148L24.33,5.873L24.35,5.863L24.37,5.85L24.85,5.559L24.88,5.542L24.91,5.522L25.29,5.216L25.33,5.189L25.36,5.156L25.64,4.837L25.68,4.791L25.71,4.738L25.88,4.407L25.92,4.337L25.93,4.26L25.99,3.919L26.01,3.833L25.99,3.747L25.93,3.406L25.92,3.329L25.88,3.259L25.71,2.928L25.68,2.875L25.64,2.829L25.36,2.51L25.33,2.477L25.29,2.45L24.91,2.144L24.88,2.124L24.85,2.107L24.37,1.816L24.35,1.803L24.33,1.793L23.75,1.518L23.73,1.507L23.7,1.498L22.3,1.004L22.27,0.9959L22.25,0.9898L20.55,0.583L20.53,0.5783L20.51,0.5754L18.55,0.268L18.54,0.2654L18.52,0.2639L16.36,0.06973L16.35,0.06836L16.33,0.06797L14.01,0.0001953L14.01,0L13.99,0zM16.29,1.067L18.42,1.259L20.33,1.56L21.99,1.956L23.35,2.432L23.88,2.685L24.31,2.948L24.64,3.206L24.85,3.448L24.96,3.655L24.99,3.833L24.96,4.011L24.85,4.218L24.64,4.46L24.31,4.719L23.88,4.981L23.35,5.234L21.99,5.71L20.33,6.106L18.42,6.407L16.29,6.599L14,6.666L11.71,6.599L9.584,6.407L7.668,6.106L6.011,5.71L4.655,5.234L4.125,4.981L3.689,4.719L3.362,4.46L3.148,4.218L3.038,4.011L3.008,3.833L3.038,3.655L3.148,3.448L3.362,3.206L3.688,2.948L4.125,2.685L4.655,2.432L6.011,1.956L7.668,1.56L9.584,1.259L11.71,1.067L14,1zz" fill="#E57428"/>
    </g>
    <g id="overlay">
      <path d="M25.782,23.907c0.541,-0.291,1.156,-0.457,1.808,-0.457c2.159,0,3.91,1.802,3.91,4.025c0,2.223,-1.751,4.025,-3.91,4.025h-9.973c-1.721,0,-3.117,-1.436,-3.117,-3.208c0,-1.485,0.98,-2.733,2.31,-3.099c0.308,-2.367,2.276,-4.192,4.66,-4.192C23.399,21,25.056,22.196,25.782,23.907c0.251,0.593,0.392,1.247,0.392,1.935" fill="#92CBEE"/>
      <path d="M27.59,32h-9.973c-1.994,0,-3.617,-1.664,-3.617,-3.708c0,-1.562,0.957,-2.948,2.365,-3.479c0.472,-2.48,2.614,-4.312,5.105,-4.312c1.902,0,3.637,1.063,4.549,2.747c0.5,-0.195,1.035,-0.297,1.571,-0.297c2.432,0,4.41,2.03,4.41,4.525S30.022,32,27.59,32zM21.47,21.5c-2.095,0,-3.885,1.615,-4.164,3.757l-0.043,0.329l-0.32,0.088c-1.144,0.315,-1.943,1.391,-1.943,2.617c0,1.493,1.174,2.708,2.617,2.708h9.973c1.88,0,3.41,-1.581,3.41,-3.525s-1.53,-3.525,-3.41,-3.525c-0.408,0,-0.803,0.073,-1.178,0.217c0.174,0.539,0.262,1.1,0.262,1.675h-1c0,-0.604,-0.118,-1.189,-0.352,-1.74C24.651,22.521,23.139,21.5,21.47,21.5z" fill="#0964B0"/>
    </g>
  </g>
</svg>
