<?xml version="1.0" encoding="UTF-8"?>
<!DOCTYPE svg PUBLIC "-//W3C//DTD SVG 1.1//EN" "http://www.w3.org/Graphics/SVG/1.1/DTD/svg11.dtd">
<svg version="1.1" id="Layer_1" xmlns="http://www.w3.org/2000/svg" xmlns:xlink="http://www.w3.org/1999/xlink" x="0px" y="0px" width="32px" height="32px" viewBox="0 0 32 32" enable-background="new 0 0 32 32" xml:space="preserve">
  <g id="icon">
    <path d="M30.5,5.39c0,-1.601,-4.477,-2.899,-10,-2.899S10.5,3.789,10.5,5.39c0,0.058,0.007,0.116,0.018,0.174H10.5V9.6v6.3v3.2v4.6v1.026c0,2.401,4.477,4.783,10,4.783s10,-2.381,10,-4.783V5.564h-0.018C30.493,5.506,30.5,5.448,30.5,5.39z" fill="#FFFFFF"/>
    <path d="M31,5.39c0,-2.231,-5.282,-3.399,-10.5,-3.399S10,3.159,10,5.39c0,0.059,0.004,0.117,0.012,0.174H10V14h1V6.928c1.776,1.226,5.655,1.86,9.5,1.86s7.724,-0.634,9.5,-1.86v17.798c0,1.98,-4.15,4.283,-9.5,4.283s-9.5,-2.302,-9.5,-4.283V21h-1v3.726c0,1.368,1.169,2.731,3.207,3.74c2.01,0.995,4.6,1.543,7.293,1.543s5.282,-0.548,7.293,-1.543c2.038,-1.009,3.207,-2.372,3.207,-3.74V5.564h-0.012C30.996,5.506,31,5.449,31,5.39zM20.5,7.788c-5.799,0,-9.5,-1.421,-9.5,-2.399s3.701,-2.399,9.5,-2.399s9.5,1.421,9.5,2.399S26.299,7.788,20.5,7.788z" fill="#E57428"/>
    <path d="M15.163,11.4l6.036,6.1l-6.036,6.1M20.9,17.5H1" fill="none" stroke="#17AB4F" stroke-width="1.2" stroke-miterlimit="10"/>
  </g>
</svg>
