<?xml version="1.0" encoding="UTF-8" standalone="no"?>
<svg
   xmlns:dc="http://purl.org/dc/elements/1.1/"
   xmlns:cc="http://creativecommons.org/ns#"
   xmlns:rdf="http://www.w3.org/1999/02/22-rdf-syntax-ns#"
   xmlns:svg="http://www.w3.org/2000/svg"
   xmlns="http://www.w3.org/2000/svg"
   xmlns:sodipodi="http://sodipodi.sourceforge.net/DTD/sodipodi-0.dtd"
   xmlns:inkscape="http://www.inkscape.org/namespaces/inkscape"
   version="1.1"
   id="Layer_1"
   x="0px"
   y="0px"
   width="32px"
   height="32px"
   viewBox="0 0 32 32"
   enable-background="new 0 0 32 32"
   xml:space="preserve"
   sodipodi:docname="DOCX-edit-filled.svg"
   inkscape:version="1.0.1 (3bc2e813f5, 2020-09-07)"><metadata
   id="metadata34"><rdf:RDF><cc:Work
       rdf:about=""><dc:format>image/svg+xml</dc:format><dc:type
         rdf:resource="http://purl.org/dc/dcmitype/StillImage" /></cc:Work></rdf:RDF></metadata><defs
   id="defs32">
    
    
  
      
      
      
      
      
      
      
      
    </defs><sodipodi:namedview
   pagecolor="#ffffff"
   bordercolor="#666666"
   borderopacity="1"
   objecttolerance="10"
   gridtolerance="10"
   guidetolerance="10"
   inkscape:pageopacity="0"
   inkscape:pageshadow="2"
   inkscape:window-width="2228"
   inkscape:window-height="1209"
   id="namedview30"
   showgrid="false"
   inkscape:zoom="22.273864"
   inkscape:cx="17.7199"
   inkscape:cy="13.250979"
   inkscape:window-x="0"
   inkscape:window-y="0"
   inkscape:window-maximized="0"
   inkscape:current-layer="Layer_1"
   inkscape:document-rotation="0" />
  <path
   d="m 8.5,10 v 19 1.5 h 4.58 l 0.07,-0.15 1.08,-2.57 0.67,-1.45 0.4,-0.67 0.23,-0.28 12.11,-12.18 0.37,-0.3 0.42,-0.22 0.45,-0.14 0.48,-0.04 0.66,0.08 0.48,0.17 V 8.5 l -7,-7 h -15 m 12.21,29 h 9.79 v -9.83 z"
   fill="#ffffff"
   id="path2" /><path
   d="M 8,10.14 9,10.09 V 2 h 14 v 7 h 7 v 3.58 h 0.02 l 0.66,0.24 0.32,0.19 V 8.294 L 23.71,1 H 8 M 30,21.17 V 30 h -8.79 l -0.53,0.53 -0.19,0.17 -0.4,0.26 L 20.02,31 H 31 V 20.16 M 8,24.37 V 31 h 4.88 L 13.15,30.35 13.29,30 H 9 v -5.65 z"
   fill="#77767b"
   id="path4"
   style="fill:#000000" /><path
   d="M 1.931,24.38 H 16.53 l 0.26,-0.26 V 10.01 H 1.931 Z"
   fill="#1a5fb4"
   id="path6" /><path
   d="m 1.881,10.01 v 14.37 0.05 h 0.05 14.549 l 0.1,-0.1 H 1.981 V 10.06 H 16.74 v 14.11 l 0.1,-0.1 V 10.01 9.963 H 16.79 1.931 1.881 Z"
   fill="#9a9996"
   id="path8" /><path
   d="m 18.95,15.12 h 6.79 l 1.08,-1.09 h -7.87 z"
   fill="#62a0ea"
   fill-opacity="1"
   id="path10" /><path
   d="m 18.95,16.85 h 5.07 l 1.08,-1.09 h -6.15 z"
   fill="#3584e4"
   fill-opacity="1"
   id="path12" /><path
   d="m 18.95,18.58 h 3.34 l 1.08,-1.08 h -4.42 z"
   fill="#1c71d8"
   fill-opacity="1"
   id="path14" /><path
   d="m 18.95,20.32 h 1.61 l 1.08,-1.09 h -2.69 z"
   fill="#1a5fb4"
   fill-opacity="1"
   id="path16" /><g
   id="overlay">
      <path
   d="m 29.605,18.743 1.78,-1.774 C 32.044,16.31 29.69,13.956 29.031,14.615 l -1.792,1.787 z"
   fill="#f3b8b8"
   stroke="#e42d2c"
   stroke-width="1"
   stroke-linecap="round"
   stroke-miterlimit="1"
   id="path19" />
      <path
   d="m 18.772,29.537 -0.058,0.058 C 18.373,29.936 14.8,31.2 14.8,31.2 c 0,0 1.224,-3.612 1.566,-3.953 l 0.058,-0.058 z"
   fill="#ffffff"
   stroke="#383838"
   stroke-width="1"
   stroke-miterlimit="1"
   id="path21" />
      <polygon
   points="27.239,16.402 16.424,27.189 18.772,29.537 29.605,18.743 "
   fill="#92cbee"
   stroke="#0964b0"
   stroke-width="1"
   stroke-linecap="round"
   stroke-miterlimit="1"
   stroke-linejoin="round"
   id="polygon23" />
      <line
   x1="29.919001"
   y1="19.086"
   x2="26.909"
   y2="16.082001"
   fill="none"
   stroke="#787979"
   stroke-width="1.1"
   stroke-miterlimit="1"
   id="line25" />
    </g>
<text
   xml:space="preserve"
   style="font-weight:bold;font-size:12.8134px;line-height:1.25;font-family:sans-serif;-inkscape-font-specification:'sans-serif Bold';stroke-width:0.800836;fill:#ffffff;"
   x="3.2217801"
   y="20.067078"
   id="text60"
   transform="scale(0.90173034,1.108979)"><tspan
     sodipodi:role="line"
     id="tspan58"
     x="3.2217801"
     y="20.067078"
     style="stroke-width:0.800836;fill:#ffffff;">W</tspan></text><path
   style="fill:#ffffff;stroke:#ffffff;stroke-width:1px;stroke-linecap:butt;stroke-linejoin:miter;stroke-opacity:1"
   d="m 24.31746,3.4474982 v 4.2667875 l 4.156475,0.022448 z"
   id="path22"
   sodipodi:nodetypes="cccc" /></svg>
