<?xml version="1.0" encoding="UTF-8"?>
<!DOCTYPE svg PUBLIC "-//W3C//DTD SVG 1.1//EN" "http://www.w3.org/Graphics/SVG/1.1/DTD/svg11.dtd">
<svg version="1.1" id="Layer_1" xmlns="http://www.w3.org/2000/svg" xmlns:xlink="http://www.w3.org/1999/xlink" x="0px" y="0px" width="32px" height="32px" viewBox="0 0 32 32" enable-background="new 0 0 32 32" xml:space="preserve">
  <g id="main">
    <g id="icon">
      <path d="M3.5,29.5L17.04,29.5L16.61,28.82L16.14,27.82L15.79,26.76L15.57,25.65L15.5,24.5L15.55,23.58L15.68,22.69L15.91,21.83L16.21,21L16.59,20.21L17.04,19.47L17.56,18.78L18.14,18.14L18.78,17.56L19.47,17.04L20.21,16.59L21,16.21L21.83,15.91L22.69,15.68L23.58,15.55L24.5,15.5L25.65,15.57L26.5,15.74L26.5,8.5L18.5,0.5L3.5,0.5zz" fill="#FFFFFF"/>
      <path d="M3,30L17.4,30L17.19,29.74L16.72,29L4,29L4,1L18,1L18,9L26,9L26,15.64L26.76,15.79L27,15.87L27,8.293L18.71,0L3,0zM25.29,8L19,8L19,1.707zz" fill="#383838"/>
      <path d="M6.5,5L16,5L16,4L6.5,4zM6.5,8L16,8L16,7L6.5,7zM6.5,11L16,11L16,10L6.5,10zM6.5,14L23.5,14L23.5,13L6.5,13zM6.5,17L19.54,17L20.21,16.59L21,16.21L21.57,16L6.5,16zz" fill="#78797A" opacity="0.5"/>
      <path d="M6.5,26.5L8.5,26.5L8.5,22.5L6.5,22.5zz" fill="#92CBEE"/>
      <path d="M6,22.5L6,26.5L6,27L6.5,27L8.5,27L9,27L9,26.5L9,22.5L9,22L8.5,22L6.5,22L6,22zM8,23L8,26L7,26L7,23zz" fill="#0964B0"/>
      <path d="M10.5,26.5L12.5,26.5L12.5,20.5L10.5,20.5zz" fill="#92CBEE"/>
      <path d="M10,20.5L10,26.5L10,27L10.5,27L12.5,27L13,27L13,26.5L13,20.5L13,20L12.5,20L10.5,20L10,20zM12,21L12,26L11,26L11,21zz" fill="#0964B0"/>
      <path d="M14.5,26.5L15.74,26.5L15.57,25.65L15.5,24.5L15.55,23.58L15.68,22.69L15.91,21.83L16.21,21L16.5,20.4L16.5,18.5L14.5,18.5zz" fill="#92CBEE"/>
      <path d="M14,18.5L14,26.5L14,27L14.5,27L15.87,27L15.79,26.76L15.64,26L15,26L15,19L16,19L16,21.57L16.21,21L16.59,20.21L17,19.54L17,18.5L17,18L16.5,18L14.5,18L14,18zz" fill="#0964B0"/>
    </g>
    <g id="overlay">
      <path d="M24.5,17.5c-3.866,0,-7,3.134,-7,7c0,3.866,3.134,7,7,7s7,-3.134,7,-7C31.5,20.634,28.366,17.5,24.5,17.5zM28.3,27v1h-7.6v-1h3.117l-3.165,-3.123l0.702,-0.712l2.645,2.61V19.7h1v6.075l2.645,-2.61l0.702,0.712L25.183,27H28.3z" fill="#B2DBB4"/>
      <path d="M24.5,17.5c-3.866,0,-7,3.134,-7,7c0,3.866,3.134,7,7,7s7,-3.134,7,-7C31.5,20.634,28.366,17.5,24.5,17.5zM28.3,27v1h-7.6v-1h3.117l-3.165,-3.123l0.702,-0.712l2.645,2.61V19.7h1v6.075l2.645,-2.61l0.702,0.712L25.183,27H28.3z" fill="#009949" opacity="0.2"/>
      <path d="M24.5,32c-4.135,0,-7.5,-3.365,-7.5,-7.5s3.365,-7.5,7.5,-7.5s7.5,3.365,7.5,7.5S28.635,32,24.5,32zM24.5,18c-3.584,0,-6.5,2.916,-6.5,6.5s2.916,6.5,6.5,6.5s6.5,-2.916,6.5,-6.5S28.084,18,24.5,18z" fill="#009949"/>
      <polygon points="28.3,28 20.7,28 20.7,27 23.817,27 20.652,23.877 21.355,23.165 24,25.775 24,19.7 25,19.7 25,25.775 27.645,23.165 28.348,23.877 25.183,27 28.3,27" fill="#FFFFFF" stroke-linejoin="miter"/>
    </g>
  </g>
</svg>
