<?xml version="1.0" encoding="UTF-8"?>
<!DOCTYPE svg PUBLIC "-//W3C//DTD SVG 1.1//EN" "http://www.w3.org/Graphics/SVG/1.1/DTD/svg11.dtd">
<svg version="1.1" id="Layer_1" xmlns="http://www.w3.org/2000/svg" xmlns:xlink="http://www.w3.org/1999/xlink" x="0px" y="0px" width="32px" height="32px" viewBox="0 0 32 32" enable-background="new 0 0 32 32" xml:space="preserve">
  <g id="icon">
    <path d="M3.5,30.75c-1.241,0,-2.25,-1.009,-2.25,-2.25s1.009,-2.25,2.25,-2.25s2.25,1.009,2.25,2.25S4.741,30.75,3.5,30.75zM28.5,5.75c-1.241,0,-2.25,-1.009,-2.25,-2.25s1.009,-2.25,2.25,-2.25s2.25,1.009,2.25,2.25S29.741,5.75,28.5,5.75zM9,8.35c-1.241,0,-2.25,-1.009,-2.25,-2.25S7.759,3.85,9,3.85s2.25,1.009,2.25,2.25S10.241,8.35,9,8.35zM23,28.25c-1.241,0,-2.25,-1.009,-2.25,-2.25s1.009,-2.25,2.25,-2.25s2.25,1.009,2.25,2.25S24.241,28.25,23,28.25z" fill="#EF3E3B"/>
    <path d="M4.434,25.491c-0.302,-0.094,-0.616,-0.141,-0.934,-0.141c-0.01,0,-0.049,0.001,-0.057,0.001v0C4.529,18.71,6.15,15.053,8.545,13.844c0.595,-0.301,1.22,-0.447,1.91,-0.447c1.879,0,3.863,1.118,5.781,2.198c1.89,1.065,3.675,2.071,5.281,2.071c0.539,0,1.021,-0.111,1.474,-0.34c2.061,-1.041,3.559,-4.58,4.577,-10.818h0c0.301,0.094,0.615,0.141,0.932,0.141c0.004,0,0.029,-0.001,0.059,-0.001c-1.088,6.68,-2.715,10.357,-5.118,11.571c-0.588,0.297,-1.231,0.447,-1.912,0.448c-1.881,0,-3.865,-1.118,-5.784,-2.199c-1.889,-1.064,-3.673,-2.07,-5.278,-2.07c-0.538,0,-1.019,0.111,-1.471,0.339C6.942,15.774,5.45,19.292,4.434,25.491L4.434,25.491z" fill="#383838"/>
  </g>
</svg>
