<?xml version="1.0" encoding="UTF-8"?>
<!DOCTYPE svg PUBLIC "-//W3C//DTD SVG 1.1//EN" "http://www.w3.org/Graphics/SVG/1.1/DTD/svg11.dtd">
<svg version="1.1" id="Layer_1" xmlns="http://www.w3.org/2000/svg" xmlns:xlink="http://www.w3.org/1999/xlink" x="0px" y="0px" width="32px" height="32px" viewBox="0 0 32 32" enable-background="new 0 0 32 32" xml:space="preserve">
  <g id="icon">
    <path d="M15.066,26.92c-3.963,0,-7.696,-1.122,-10.51,-3.16c-2.864,-2.074,-4.442,-4.848,-4.442,-7.81s1.577,-5.736,4.442,-7.81c2.016,-1.46,4.534,-2.465,7.282,-2.905l0.024,-0.004l-0.002,0.025c-0.007,0.092,-0.01,0.169,-0.01,0.242c0,0.251,0.03,0.503,0.089,0.749l0.005,0.02l-0.021,0.003C8.911,6.769,6.176,7.998,4.223,9.73c-1.982,1.757,-3.073,3.966,-3.073,6.22c0,5.478,6.243,9.935,13.917,9.935c6.082,0,11.411,-2.782,13.261,-6.921l0.008,-0.017l0.017,0.007c0.318,0.122,0.652,0.192,0.992,0.209l0.028,0.001l-0.011,0.026c-0.716,1.715,-2.025,3.296,-3.786,4.571C22.762,25.798,19.029,26.92,15.066,26.92zM28.327,12.937c-1.486,-3.325,-5.364,-5.879,-10.119,-6.666l-0.021,-0.003l0.005,-0.02c0.059,-0.246,0.089,-0.498,0.089,-0.749c0,-0.074,-0.003,-0.151,-0.01,-0.242l-0.002,-0.025l0.024,0.004c2.747,0.44,5.265,1.445,7.282,2.905c1.761,1.275,3.07,2.856,3.786,4.571l0.011,0.026l-0.028,0.001c-0.34,0.016,-0.674,0.086,-0.992,0.208l-0.017,0.007L28.327,12.937z" fill="#383838"/>
    <path d="M15,18.25c-1.241,0,-2.25,-1.009,-2.25,-2.25s1.009,-2.25,2.25,-2.25s2.25,1.009,2.25,2.25S16.241,18.25,15,18.25zM17.25,5.5c0,-1.241,-1.009,-2.25,-2.25,-2.25S12.75,4.259,12.75,5.5s1.009,2.25,2.25,2.25S17.25,6.741,17.25,5.5zM31.75,16c0,-1.241,-1.009,-2.25,-2.25,-2.25s-2.25,1.009,-2.25,2.25s1.009,2.25,2.25,2.25S31.75,17.241,31.75,16z" fill="#EF3E3B"/>
  </g>
</svg>
