<?xml version="1.0" encoding="UTF-8"?>
<!DOCTYPE svg PUBLIC "-//W3C//DTD SVG 1.1//EN" "http://www.w3.org/Graphics/SVG/1.1/DTD/svg11.dtd">
<svg version="1.1" id="Layer_1" xmlns="http://www.w3.org/2000/svg" xmlns:xlink="http://www.w3.org/1999/xlink" x="0px" y="0px" width="32px" height="32px" viewBox="0 0 32 32" enable-background="new 0 0 32 32" xml:space="preserve">
  <g id="icon">
    <path d="M3.5,30.75c-1.241,0,-2.25,-1.009,-2.25,-2.25s1.009,-2.25,2.25,-2.25s2.25,1.009,2.25,2.25S4.741,30.75,3.5,30.75zM10.4,12.65c-1.241,0,-2.25,-1.009,-2.25,-2.25S9.159,8.15,10.4,8.15s2.25,1.009,2.25,2.25S11.641,12.65,10.4,12.65zM28.5,5.75c-1.241,0,-2.25,-1.009,-2.25,-2.25s1.009,-2.25,2.25,-2.25s2.25,1.009,2.25,2.25S29.741,5.75,28.5,5.75z" fill="#EF3E3B"/>
    <path d="M4.081,25.333c-0.194,-0.035,-0.39,-0.054,-0.581,-0.054c-0.133,0,-0.271,0.009,-0.412,0.027l-0.037,0.005l0.003,-0.037c0.38,-4.642,2.073,-9.045,4.897,-12.732l0.022,-0.029l0.024,0.027c0.225,0.252,0.487,0.467,0.779,0.638l0.029,0.017l-0.021,0.027c-2.68,3.517,-4.295,7.695,-4.669,12.083l-0.003,0.033L4.081,25.333zM13.179,8.777c-0.171,-0.292,-0.386,-0.554,-0.638,-0.779l-0.027,-0.024l0.029,-0.022c3.687,-2.824,8.09,-4.517,12.732,-4.897l0.037,-0.003l-0.005,0.037c-0.018,0.141,-0.027,0.279,-0.027,0.412c0,0.192,0.018,0.387,0.054,0.581l0.006,0.033l-0.033,0.003c-4.388,0.374,-8.566,1.989,-12.083,4.669l-0.027,0.021L13.179,8.777z" fill="#383838"/>
  </g>
</svg>
