<?xml version="1.0" encoding="UTF-8"?>
<!DOCTYPE svg PUBLIC "-//W3C//DTD SVG 1.1//EN" "http://www.w3.org/Graphics/SVG/1.1/DTD/svg11.dtd">
<svg version="1.1" id="Layer_1" xmlns="http://www.w3.org/2000/svg" xmlns:xlink="http://www.w3.org/1999/xlink" x="0px" y="0px" width="32px" height="32px" viewBox="0 0 32 32" enable-background="new 0 0 32 32" xml:space="preserve">
  <g id="icon">
    <path d="M5.811,26c0.026,-0.165,0.039,-0.333,0.039,-0.5c0,-0.167,-0.013,-0.335,-0.039,-0.5H29l0,-15.189c0.165,0.026,0.333,0.039,0.5,0.039s0.335,-0.013,0.5,-0.039V26L5.811,26zM3,22.189c-0.165,-0.026,-0.333,-0.039,-0.5,-0.039s-0.335,0.013,-0.5,0.039V6h24.189c-0.026,0.165,-0.039,0.333,-0.039,0.5s0.013,0.335,0.039,0.5H3V22.189z" fill="#383838"/>
    <path d="M2.5,27.75c-1.241,0,-2.25,-1.009,-2.25,-2.25s1.009,-2.25,2.25,-2.25s2.25,1.009,2.25,2.25S3.741,27.75,2.5,27.75zM29.5,8.75c-1.241,0,-2.25,-1.009,-2.25,-2.25s1.009,-2.25,2.25,-2.25s2.25,1.009,2.25,2.25S30.741,8.75,29.5,8.75z" fill="#EF3E3B"/>
  </g>
</svg>
