<?xml version="1.0" encoding="UTF-8"?>
<!DOCTYPE svg PUBLIC "-//W3C//DTD SVG 1.1//EN" "http://www.w3.org/Graphics/SVG/1.1/DTD/svg11.dtd">
<svg version="1.1" id="Layer_1" xmlns="http://www.w3.org/2000/svg" xmlns:xlink="http://www.w3.org/1999/xlink" x="0px" y="0px" width="32px" height="32px" viewBox="0 0 32 32" enable-background="new 0 0 32 32" xml:space="preserve">
  <g id="icon">
    <path d="M31,4H1V2h30V4zM5,7H1v2h4V7zM7,12H1v2h6V12zM15,12H9v2h6V12zM23,12h-6v2h6V12zM31,12h-6v2h6V12zM7,27H1v2h6V27zM15,27H9v2h6V27zM23,27h-6v2h6V27zM31,27h-6v2h6V27zM10,7H7v2h3V7zM4,17H1v2h3V17zM4,22H1v2h3V22zM15,22H6v2h9V22zM20,22h-3v2h3V22zM31,22h-9v2h9V22zM13,17h-3v2h3V17zM22,17h-3v2h3V17zM31,17h-3v2h3V17zM15,7h-3v2h3V7zM20,7h-3v2h3V7zM25,7h-3v2h3V7zM31,7h-4v2h4V7z" fill="#383838"/>
  </g>
</svg>
