<?xml version="1.0" encoding="UTF-8"?>
<!DOCTYPE svg PUBLIC "-//W3C//DTD SVG 1.1//EN" "http://www.w3.org/Graphics/SVG/1.1/DTD/svg11.dtd">
<svg version="1.1" id="Layer_1" xmlns="http://www.w3.org/2000/svg" xmlns:xlink="http://www.w3.org/1999/xlink" x="0px" y="0px" width="32px" height="32px" viewBox="0 0 32 32" enable-background="new 0 0 32 32" xml:space="preserve">
  <g id="icon">
    <path d="M10.611,29c0.026,-0.165,0.039,-0.333,0.039,-0.5s-0.013,-0.335,-0.039,-0.5h13.696l5.104,-15.607L16.049,2.685L2.688,12.393L6.91,25.287c-0.33,0.05,-0.651,0.152,-0.953,0.302L1.581,12.22c-0.041,-0.125,0.003,-0.262,0.11,-0.34l14.18,-10.303c0.052,-0.038,0.114,-0.058,0.178,-0.058s0.126,0.02,0.178,0.058l14.18,10.303c0.107,0.078,0.151,0.214,0.11,0.339l-5.416,16.571c-0.041,0.125,-0.157,0.209,-0.288,0.209L10.611,29z" fill="#383838"/>
    <path d="M7.4,30.65c-1.241,0,-2.25,-1.009,-2.25,-2.25s1.009,-2.25,2.25,-2.25s2.25,1.009,2.25,2.25S8.641,30.65,7.4,30.65zM16,18.25c-1.241,0,-2.25,-1.009,-2.25,-2.25s1.009,-2.25,2.25,-2.25s2.25,1.009,2.25,2.25S17.241,18.25,16,18.25z" fill="#EF3E3B"/>
  </g>
</svg>
