<?xml version="1.0" encoding="UTF-8"?>
<!DOCTYPE svg PUBLIC "-//W3C//DTD SVG 1.1//EN" "http://www.w3.org/Graphics/SVG/1.1/DTD/svg11.dtd">
<svg version="1.1" id="Layer_1" xmlns="http://www.w3.org/2000/svg" xmlns:xlink="http://www.w3.org/1999/xlink" x="0px" y="0px" width="32px" height="32px" viewBox="0 0 32 32" enable-background="new 0 0 32 32" xml:space="preserve">
  <g id="icon">
    <path d="M16,31c-8.271,0,-15,-6.729,-15,-15S7.729,1,16,1s15,6.729,15,15S24.271,31,16,31zM16,2.046C8.306,2.046,2.046,8.306,2.046,16S8.306,29.954,16,29.954S29.954,23.694,29.954,16S23.694,2.046,16,2.046z" fill="#383838"/>
    <path d="M16,18.25c-1.241,0,-2.25,-1.009,-2.25,-2.25s1.009,-2.25,2.25,-2.25s2.25,1.009,2.25,2.25S17.241,18.25,16,18.25z" fill="#EF3E3B"/>
    <path d="M18.113,13.019l3.566,-3.566l-1.196,-1.196l4.611,-1.356l-1.487,4.48l-1.061,-1.061l-3.566,3.566L18.113,13.019zM6.924,25.08l4.611,-1.356l-1.196,-1.196l3.566,-3.566l-0.868,-0.868L9.472,21.66L8.411,20.6L6.924,25.08z" fill="#238BCB"/>
  </g>
</svg>
