<?xml version="1.0" encoding="UTF-8"?>
<!DOCTYPE svg PUBLIC "-//W3C//DTD SVG 1.1//EN" "http://www.w3.org/Graphics/SVG/1.1/DTD/svg11.dtd">
<svg version="1.1" id="Layer_1" xmlns="http://www.w3.org/2000/svg" xmlns:xlink="http://www.w3.org/1999/xlink" x="0px" y="0px" width="32px" height="32px" viewBox="0 0 32 32" enable-background="new 0 0 32 32" xml:space="preserve">
  <g id="icon">
    <path d="M6.711,24c0.026,-0.165,0.039,-0.333,0.039,-0.5s-0.013,-0.335,-0.039,-0.5h10.477c-0.026,0.165,-0.039,0.333,-0.039,0.5s0.013,0.335,0.039,0.5H6.711zM23.633,23.832c0.011,-0.11,0.017,-0.221,0.017,-0.332c0,-0.227,-0.024,-0.455,-0.072,-0.679l0,0C27.241,22.036,29.9,18.789,29.9,15.1c0,-3.747,-2.659,-7.036,-6.322,-7.821v0c0.048,-0.223,0.072,-0.452,0.072,-0.679c0,-0.111,-0.006,-0.222,-0.017,-0.332h0C27.844,7.093,30.9,10.807,30.9,15.1c0,2.069,-0.729,4.081,-2.054,5.666C27.528,22.343,25.676,23.432,23.633,23.832L23.633,23.832z" fill="#383838"/>
    <path d="M3.5,25.65c-1.241,0,-2.25,-1.009,-2.25,-2.25s1.009,-2.25,2.25,-2.25s2.25,1.009,2.25,2.25S4.741,25.65,3.5,25.65zM20.4,25.65c-1.241,0,-2.25,-1.009,-2.25,-2.25s1.009,-2.25,2.25,-2.25s2.25,1.009,2.25,2.25S21.641,25.65,20.4,25.65zM20.4,8.75c-1.241,0,-2.25,-1.009,-2.25,-2.25s1.009,-2.25,2.25,-2.25s2.25,1.009,2.25,2.25S21.641,8.75,20.4,8.75z" fill="#EF3E3B"/>
  </g>
</svg>
