<?xml version="1.0" encoding="UTF-8"?>
<!DOCTYPE svg PUBLIC "-//W3C//DTD SVG 1.1//EN" "http://www.w3.org/Graphics/SVG/1.1/DTD/svg11.dtd">
<svg version="1.1" id="Layer_1" xmlns="http://www.w3.org/2000/svg" xmlns:xlink="http://www.w3.org/1999/xlink" x="0px" y="0px" width="32px" height="32px" viewBox="0 0 32 32" enable-background="new 0 0 32 32" xml:space="preserve">
  <g id="icon">
    <path d="M25.5,13.018v6.643c-4.194,5.302,-14.812,5.474,-19,0.27V13l0.093,0.001L0.556,10.953L15.983,5.43l15.427,5.417L25.5,13.018zM2.5,19.5c-0.552,0,-1,0.448,-1,1l-0.2,4.167c0,0.46,0.373,0.833,0.833,0.833h0.733c0.46,0,0.833,-0.373,0.833,-0.833L3.5,20.5C3.5,19.948,3.052,19.5,2.5,19.5z" fill="#92CBEE"/>
    <path d="M31.583,10.298l-15.4,-5.417c-0.119,-0.042,-0.249,-0.042,-0.368,0.001l-15.4,5.523c-0.273,0.098,-0.433,0.397,-0.336,0.695c0.053,0.163,0.187,0.287,0.349,0.345l1.572,0.56v7.082c-0.578,0.205,-0.994,0.753,-1,1.399l-0.199,4.156L0.8,24.667C0.8,25.402,1.398,26,2.133,26h0.735c0.727,0,1.319,-0.598,1.319,-1.333l-0.198,-4.18c-0.006,-0.646,-0.418,-1.194,-0.989,-1.399v-6.726l3,0.982l0,6.554c0,0.114,0.039,0.225,0.111,0.314c1.063,1.323,1.612,2.132,3.545,2.852c1.777,0.661,3.808,1.01,5.88,1.01c0.026,0,0.051,0,0.077,0c4.406,-0.018,8.249,-1.565,10.28,-4.136c0.07,-0.088,0.108,-0.198,0.108,-0.31V13.39l5.578,-2.053c0.161,-0.059,0.294,-0.184,0.345,-0.348C32.017,10.691,31.856,10.394,31.583,10.298zM2.867,25h-0.733c-0.181,0,-0.328,-0.145,-0.333,-0.324l0.199,-4.152L2,20.5c0,-0.199,0.117,-0.369,0.286,-0.45c0.065,0.031,0.137,0.05,0.214,0.05s0.149,-0.019,0.214,-0.05c0.168,0.081,0.286,0.251,0.286,0.45l0.2,4.176C3.195,24.855,3.047,25,2.867,25zM25,19.456c-1.872,2.255,-5.366,3.606,-9.392,3.623c-4.062,0.018,-6.698,-1.098,-8.608,-3.355v-6.033l8.905,3.27c0.06,0.021,0.122,0.032,0.185,0.032c0.064,0,0.129,-0.011,0.19,-0.034L25,13.75V19.456zM25.504,12.4c-0.001,0,-0.003,0,-0.004,0c-0.123,0,-0.235,0.046,-0.322,0.121l-9.075,3.34l-13.869,-4.94l13.768,-4.937l13.774,4.845L25.504,12.4z" fill="#0964B0"/>
  </g>
</svg>
