<?xml version="1.0" encoding="UTF-8"?>
<!DOCTYPE svg PUBLIC "-//W3C//DTD SVG 1.1//EN" "http://www.w3.org/Graphics/SVG/1.1/DTD/svg11.dtd">
<svg version="1.1" id="Layer_1" xmlns="http://www.w3.org/2000/svg" xmlns:xlink="http://www.w3.org/1999/xlink" x="0px" y="0px" width="32px" height="32px" viewBox="0 0 32 32" enable-background="new 0 0 32 32" xml:space="preserve">
  <g id="main">
    <g id="icon">
      <path d="M17.9,0.5543L16.85,0.7137L15.84,0.973L14.88,1.327L13.96,1.77L13.09,2.297L12.28,2.902L11.53,3.581L10.85,4.328L10.25,5.138L9.718,6.005L9.275,6.925L8.921,7.892L8.662,8.9L8.502,9.944L8.448,11.02L8.502,12.1L8.662,13.14L8.921,14.15L9.275,15.11L9.718,16.03L10.25,16.9L10.85,17.71L11.53,18.46L12.28,19.14L13.09,19.74L13.96,20.27L14.88,20.71L15.84,21.07L16.15,21.15L16.21,21L16.59,20.21L17.04,19.47L17.56,18.78L18.14,18.14L18.78,17.56L19.47,17.04L20.21,16.59L21,16.21L21.83,15.91L22.69,15.68L23.58,15.55L24.5,15.5L25.65,15.57L26.76,15.79L27.82,16.14L28.09,16.26L28.23,16.03L28.67,15.11L29.03,14.15L29.29,13.14L29.45,12.1L29.5,11.02L29.45,9.944L29.29,8.9L29.03,7.892L28.67,6.925L28.23,6.005L27.7,5.138L27.1,4.328L26.42,3.581L25.67,2.902L24.86,2.297L23.99,1.77L23.07,1.327L22.1,0.973L21.1,0.7137L20.05,0.5543L18.97,0.5zM0.6,29.4L11.46,18.54zz" fill="#FFFFFF"/>
      <path d="M18.95,0.0005859L17.87,0.05488L17.85,0.05625L17.82,0.05996L16.78,0.2195L16.75,0.2232L16.73,0.2295L15.72,0.4887L15.7,0.4949L15.67,0.5033L14.7,0.8572L14.68,0.8656L14.66,0.8762L13.74,1.319L13.72,1.33L13.7,1.342L12.83,1.869L12.81,1.882L12.79,1.896L11.98,2.502L11.96,2.516L11.94,2.532L11.19,3.211L11.18,3.227L11.16,3.245L10.48,3.992L10.47,4.01L10.45,4.029L9.845,4.839L9.831,4.858L9.818,4.879L9.291,5.746L9.279,5.767L9.268,5.788L8.825,6.708L8.814,6.73L8.806,6.753L8.452,7.72L8.443,7.743L8.437,7.767L8.178,8.775L8.171,8.8L8.168,8.824L8.008,9.869L8.004,9.894L8.003,9.919L7.949,10.99L7.947,11.02L7.949,11.05L8.003,12.12L8.004,12.15L8.008,12.17L8.168,13.22L8.171,13.24L8.178,13.26L8.437,14.27L8.443,14.3L8.452,14.32L8.806,15.29L8.814,15.31L8.825,15.33L9.268,16.25L9.279,16.27L9.291,16.29L9.818,17.16L9.831,17.18L9.845,17.2L10.45,18.01L10.47,18.03L10.48,18.05L10.84,18.45L0.2465,29.05L0.9535,29.75L11.55,19.15L11.94,19.51L11.96,19.52L11.98,19.54L12.79,20.14L12.81,20.16L12.83,20.17L13.7,20.7L13.72,20.71L13.74,20.72L14.66,21.16L14.68,21.17L14.7,21.18L15.67,21.54L15.7,21.55L15.72,21.55L15.98,21.62L16.21,21L16.36,20.68L15.99,20.59L15.07,20.25L14.19,19.83L13.37,19.33L12.6,18.75L11.88,18.1L11.24,17.39L10.66,16.62L10.16,15.8L9.736,14.92L9.399,14L9.152,13.04L9,12.05L8.949,11.02L9,9.995L9.152,9.001L9.399,8.039L9.736,7.121L10.16,6.244L10.66,5.418L11.24,4.646L11.88,3.936L12.6,3.288L13.37,2.712L14.19,2.21L15.07,1.788L15.99,1.451L16.95,1.204L17.95,1.052L18.97,1.001L20,1.052L20.99,1.204L21.96,1.451L22.88,1.788L23.75,2.21L24.58,2.712L25.35,3.288L26.06,3.935L26.71,4.647L27.29,5.418L27.79,6.245L28.21,7.12L28.55,8.041L28.8,9.001L28.95,9.995L29,11.02L28.95,12.04L28.8,13.04L28.55,14L28.21,14.92L27.79,15.79L27.62,16.07L27.82,16.14L28.55,16.48L28.66,16.29L28.67,16.27L28.68,16.25L29.12,15.33L29.13,15.31L29.14,15.29L29.5,14.32L29.5,14.3L29.51,14.27L29.77,13.26L29.78,13.24L29.78,13.22L29.94,12.17L29.94,12.15L29.94,12.12L30,11.05L30,11.02L30,10.99L29.95,9.919L29.94,9.894L29.94,9.869L29.78,8.824L29.78,8.8L29.77,8.775L29.51,7.767L29.5,7.743L29.5,7.72L29.14,6.753L29.13,6.73L29.12,6.708L28.68,5.788L28.67,5.767L28.66,5.746L28.13,4.879L28.12,4.858L28.1,4.839L27.5,4.029L27.48,4.01L27.47,3.992L26.79,3.245L26.77,3.227L26.75,3.211L26.01,2.532L25.99,2.516L25.97,2.502L25.16,1.896L25.14,1.882L25.12,1.869L24.25,1.342L24.23,1.33L24.21,1.319L23.29,0.8762L23.27,0.8656L23.24,0.8572L22.28,0.5033L22.25,0.4949L22.23,0.4887L21.22,0.2295L21.2,0.2232L21.17,0.2195L20.13,0.05996L20.1,0.05625L20.08,0.05488L19,0.0005859L18.99,0L18.96,0zz" fill="#228BCB"/>
    </g>
    <g id="overlay">
      <path d="M24.5,17.5c-3.866,0,-7,3.134,-7,7c0,3.866,3.134,7,7,7s7,-3.134,7,-7C31.5,20.634,28.366,17.5,24.5,17.5zM28.267,27.489l-0.778,0.778L24.5,25.278l-2.989,2.989l-0.778,-0.778L23.722,24.5l-2.989,-2.989l0.778,-0.778L24.5,23.722l2.989,-2.989l0.778,0.778L25.278,24.5L28.267,27.489z" fill="#F7BFBF"/>
      <path d="M24.5,17.5c-3.866,0,-7,3.134,-7,7c0,3.866,3.134,7,7,7s7,-3.134,7,-7C31.5,20.634,28.366,17.5,24.5,17.5zM28.267,27.489l-0.778,0.778L24.5,25.278l-2.989,2.989l-0.778,-0.778L23.722,24.5l-2.989,-2.989l0.778,-0.778L24.5,23.722l2.989,-2.989l0.778,0.778L25.278,24.5L28.267,27.489z" fill="#DB2E2A" opacity="0.3"/>
      <path d="M24.5,32c-4.135,0,-7.5,-3.365,-7.5,-7.5s3.365,-7.5,7.5,-7.5s7.5,3.365,7.5,7.5S28.635,32,24.5,32zM24.5,18c-3.584,0,-6.5,2.916,-6.5,6.5s2.916,6.5,6.5,6.5s6.5,-2.916,6.5,-6.5S28.084,18,24.5,18z" fill="#DB2E2A"/>
      <polygon points="27.489,28.267 24.5,25.278 21.511,28.267 20.733,27.489 23.722,24.5 20.733,21.511 21.511,20.733 24.5,23.722 27.489,20.733 28.267,21.511 25.278,24.5 28.267,27.489" fill="#FFFFFF" stroke-linejoin="miter"/>
    </g>
  </g>
</svg>
