<?xml version="1.0" encoding="UTF-8"?>
<!DOCTYPE svg PUBLIC "-//W3C//DTD SVG 1.1//EN" "http://www.w3.org/Graphics/SVG/1.1/DTD/svg11.dtd">
<svg version="1.1" id="Layer_1" xmlns="http://www.w3.org/2000/svg" xmlns:xlink="http://www.w3.org/1999/xlink" x="0px" y="0px" width="32px" height="32px" viewBox="0 0 32 32" enable-background="new 0 0 32 32" xml:space="preserve">
  <g id="main">
    <g id="icon">
      <path d="M12.1,1.659L11.86,3.332L11.66,4.407L11.4,5.564L11.06,6.746L10.64,7.897L10.23,9.017L9.52,10.79L9.062,11.76L8.541,12.7L7.958,13.53L7.317,14.2L7.201,12.62L7.067,11.62L6.866,10.56L6.587,9.491L6.218,8.469L5.746,7.547L5.469,7.141L5.161,6.781L4.894,8.207L4.549,9.697L3.742,12.79L2.987,15.89L2.706,17.4L2.529,18.85L2.503,19.71L2.562,20.53L2.703,21.31L2.918,22.05L3.203,22.75L3.551,23.42L3.956,24.05L4.414,24.65L4.918,25.21L5.463,25.75L6.651,26.76L7.934,27.69L9.264,28.54L16.5,28.59L16.14,27.82L15.79,26.76L15.57,25.65L15.5,24.5L15.55,23.58L15.68,22.69L15.91,21.83L16.21,21L16.59,20.21L17.04,19.47L17.56,18.78L18.14,18.14L18.78,17.56L19.47,17.04L20.21,16.59L21,16.21L21.83,15.91L22.69,15.68L23.58,15.55L24.5,15.5L25.65,15.57L26.24,15.69L26.1,14.43L25.71,12.79L25.13,11.17L24.36,9.61L23.41,8.117L22.86,7.402L22.27,6.712L21.64,6.048L20.96,5.414L21.17,6.83L21.23,7.719L21.25,8.677L21.19,9.667L21.05,10.65L20.81,11.59L20.44,12.45L20.08,11.32L19.62,10.22L19.07,9.141L18.46,8.101L17.8,7.105L17.1,6.16L15.69,4.449L14.35,3.022L13.22,1.935L12.16,1zz" fill="#FFFFFF"/>
      <path d="M11.66,0.9521L11.6,1.598L11.37,3.25L11.17,4.307L10.92,5.437L10.59,6.59L10.17,7.724L10.17,7.725L9.761,8.838L9.062,10.59L8.618,11.53L8.116,12.43L7.729,12.99L7.7,12.58L7.699,12.57L7.697,12.55L7.563,11.55L7.561,11.54L7.558,11.53L7.358,10.47L7.354,10.45L7.35,10.43L7.071,9.365L7.065,9.343L7.058,9.321L6.688,8.299L6.678,8.269L6.663,8.241L6.192,7.32L6.177,7.291L6.159,7.265L5.881,6.859L5.866,6.837L5.849,6.816L5.541,6.456L4.862,5.661L4.67,6.689L4.405,8.106L4.062,9.581L4.062,9.584L3.258,12.66L3.257,12.66L3.256,12.67L2.501,15.77L2.498,15.78L2.496,15.8L2.214,17.3L2.211,17.32L2.209,17.34L2.033,18.79L2.03,18.81L2.029,18.83L2.003,19.7L2.002,19.72L2.004,19.75L2.063,20.57L2.065,20.6L2.07,20.62L2.211,21.4L2.215,21.43L2.223,21.45L2.438,22.19L2.445,22.22L2.455,22.24L2.739,22.94L2.748,22.96L2.76,22.98L3.108,23.65L3.118,23.67L3.13,23.69L3.536,24.32L3.547,24.33L3.559,24.35L4.017,24.95L4.028,24.96L4.04,24.98L4.544,25.55L4.555,25.56L4.566,25.57L5.111,26.11L5.125,26.12L5.14,26.14L6.328,27.14L6.343,27.16L6.359,27.17L7.642,28.09L7.652,28.1L7.663,28.11L8.994,28.96L9.534,28.12L8.218,27.27L6.96,26.37L5.802,25.39L5.283,24.87L4.801,24.33L4.366,23.76L3.984,23.17L3.657,22.54L3.391,21.89L3.19,21.2L3.059,20.47L3.003,19.7L3.028,18.89L3.2,17.47L3.476,16L4.228,12.91L5.032,9.823L5.034,9.817L5.036,9.81L5.381,8.32L5.384,8.31L5.386,8.299L5.435,8.036L5.758,8.668L6.109,9.64L6.378,10.67L6.573,11.7L6.704,12.67L6.818,14.24L6.9,15.36L7.678,14.55L8.319,13.88L8.346,13.85L8.368,13.82L8.951,12.98L8.965,12.96L8.977,12.94L9.499,12.01L9.507,11.99L9.514,11.98L9.972,11.01L9.978,10.99L9.984,10.98L10.69,9.202L10.69,9.196L10.7,9.189L11.11,8.07L11.11,8.069L11.11,8.069L11.53,6.918L11.54,6.901L11.54,6.884L11.88,5.702L11.88,5.689L11.89,5.676L12.15,4.519L12.15,4.508L12.16,4.498L12.36,3.424L12.36,3.413L12.36,3.401L12.55,2.011L12.88,2.301L13.99,3.373L15.31,4.779L16.71,6.468L17.38,7.39L18.03,8.367L18.63,9.381L19.16,10.43L19.61,11.5L19.96,12.61L20.37,13.88L20.9,12.65L21.27,11.79L21.28,11.75L21.29,11.72L21.54,10.78L21.54,10.75L21.55,10.72L21.69,9.737L21.69,9.716L21.69,9.694L21.75,8.704L21.75,8.686L21.75,8.669L21.73,7.711L21.73,7.696L21.73,7.682L21.67,6.802L21.9,7.047L22.47,7.716L23,8.404L23.92,9.855L24.67,11.37L25.23,12.93L25.6,14.52L25.73,15.59L26.76,15.79L26.59,14.38L26.59,14.35L26.58,14.32L26.2,12.67L26.19,12.65L26.18,12.62L25.6,11L25.59,10.98L25.58,10.95L24.81,9.389L24.8,9.364L24.78,9.341L23.83,7.848L23.82,7.83L23.8,7.813L23.26,7.099L23.25,7.088L23.24,7.077L22.65,6.387L22.64,6.376L22.63,6.366L22,5.703L21.99,5.693L21.98,5.683L21.3,5.049L20.26,4.073L20.46,5.487L20.67,6.884L20.73,7.742L20.75,8.666L20.69,9.618L20.56,10.55L20.46,10.94L20.08,10.02L20.07,10.01L20.06,9.991L19.52,8.914L19.51,8.9L19.5,8.887L18.89,7.847L18.88,7.836L18.87,7.824L18.21,6.829L18.21,6.819L18.2,6.809L17.51,5.864L17.5,5.853L17.49,5.841L16.07,4.13L16.06,4.118L16.05,4.107L14.71,2.68L14.71,2.671L14.7,2.663L13.57,1.576L13.56,1.568L13.55,1.56L12.49,0.6244L11.78,0L11.75,0zz" fill="#383838"/>
      <path d="M14.99,15.66L15.15,16.53L15.26,17.49L15.32,18.49L15.3,19.46L15.2,20.35L14.99,21.12L14.84,21.43L14.66,21.69L14.05,20.95L13.34,19.96L11.97,17.98L11.68,18.73L11.34,19.45L10.55,20.81L9.73,22.15L9.347,22.84L9.003,23.56L8.762,24.33L8.671,25.13L8.699,25.92L8.814,26.68L8.985,27.36L9.18,27.94L9.514,28.67L10.61,29.06L11.7,29.34L12.81,29.51L13.93,29.57L15.05,29.52L16.18,29.38L16.86,29.23L16.61,28.82L16.14,27.82L15.79,26.76L15.57,25.65L15.5,24.5L15.55,23.58L15.68,22.69L15.91,21.83L16.21,21L16.59,20.21L17.04,19.47L17.56,18.78L18.03,18.26L17.69,17.72L17.09,16.94L16.4,16.21L15.65,15.53L14.81,14.93zz" fill="#F7DA8E"/>
      <path d="M14.33,15.05L14.51,15.76L14.66,16.61L14.77,17.54L14.82,18.5L14.8,19.42L14.71,20.26L14.56,20.78L14.45,20.64L13.75,19.68L13.75,19.67L13.75,19.67L12.38,17.7L11.84,16.92L11.5,17.8L11.22,18.53L10.9,19.21L10.12,20.55L10.12,20.56L9.303,21.89L9.298,21.9L9.293,21.91L8.91,22.6L8.902,22.61L8.896,22.62L8.552,23.34L8.536,23.37L8.526,23.41L8.284,24.18L8.27,24.23L8.265,24.28L8.174,25.08L8.17,25.11L8.171,25.15L8.2,25.94L8.201,25.97L8.205,26L8.32,26.75L8.324,26.78L8.329,26.8L8.5,27.48L8.505,27.5L8.511,27.52L8.706,28.1L8.714,28.13L8.725,28.15L9.059,28.88L9.147,29.07L9.346,29.14L10.44,29.53L10.46,29.54L10.48,29.55L11.58,29.82L11.61,29.83L11.63,29.83L12.74,30L12.76,30.01L12.79,30.01L13.9,30.07L13.92,30.07L13.95,30.07L15.07,30.02L15.09,30.02L15.12,30.02L16.25,29.87L16.27,29.87L16.29,29.86L17.15,29.68L16.61,28.82L16.59,28.78L16.1,28.88L15.01,29.02L13.93,29.07L12.86,29.01L11.8,28.85L10.75,28.58L9.881,28.27L9.646,27.76L9.466,27.22L9.305,26.58L9.198,25.88L9.172,25.15L9.253,24.44L9.47,23.74L9.791,23.07L10.16,22.4L10.98,21.07L10.98,21.06L10.98,21.06L11.77,19.7L11.78,19.68L11.79,19.66L12.09,19.03L12.93,20.25L12.94,20.25L12.94,20.25L13.65,21.24L13.66,21.25L13.67,21.26L14.27,22.01L14.69,22.52L15.07,21.98L15.25,21.72L15.28,21.68L15.29,21.64L15.44,21.33L15.46,21.29L15.47,21.25L15.68,20.49L15.69,20.45L15.7,20.41L15.8,19.52L15.8,19.49L15.8,19.47L15.82,18.5L15.82,18.48L15.82,18.46L15.76,17.46L15.76,17.45L15.76,17.43L15.65,16.47L15.65,16.46L15.64,16.44L15.59,16.15L16.06,16.57L16.71,17.26L17.28,18.01L17.68,18.64L18.14,18.14L18.4,17.9L18.11,17.45L18.1,17.43L18.09,17.42L17.48,16.63L17.47,16.61L17.45,16.6L16.77,15.87L16.75,15.85L16.74,15.83L15.98,15.16L15.96,15.14L15.94,15.13L15.11,14.52L13.99,13.71zz" fill="#ED8730"/>
    </g>
    <g id="overlay">
      <path d="M17.5,24.5c0,-3.866,3.134,-7,7,-7s7,3.134,7,7s-3.134,7,-7,7S17.5,28.366,17.5,24.5zM20.23,30.046M28.805,30.02" fill="#FFFFFF" stroke="#383838" stroke-width="1" stroke-miterlimit="10"/>
      <path d="M24.5,19v5.559l3.39,3.72" fill="none" stroke="#228BCB" stroke-width="1" stroke-miterlimit="10"/>
    </g>
  </g>
</svg>
