<?xml version="1.0" encoding="UTF-8"?>
<!DOCTYPE svg PUBLIC "-//W3C//DTD SVG 1.1//EN" "http://www.w3.org/Graphics/SVG/1.1/DTD/svg11.dtd">
<svg version="1.1" id="Layer_1" xmlns="http://www.w3.org/2000/svg" xmlns:xlink="http://www.w3.org/1999/xlink" x="0px" y="0px" width="32px" height="32px" viewBox="0 0 32 32" enable-background="new 0 0 32 32" xml:space="preserve">
  <g id="main">
    <g id="icon">
      <path d="M10.79,3.1L9.572,3.292L8.515,3.601L7.609,4.006L6.841,4.49L6.202,5.033L5.678,5.615L5.259,6.218L4.932,6.821L4.687,7.407L4.393,8.447L4.285,9.184L4.269,9.463L4.269,20.6L17.5,20.6L17.5,20.5L20.16,20.5L20.16,17.07L19.91,16.87L20.16,16.57L20.16,9.463L20.15,9.191L20.04,8.473L19.74,7.457L19.49,6.882L19.17,6.289L18.74,5.694L18.21,5.116L17.57,4.574L16.8,4.086L15.88,3.671L14.82,3.346L13.59,3.131L12.18,3.043zz" fill="#000000"/>
      <path d="M12.17,2.712L10.78,2.768L10.76,2.769L10.74,2.772L9.52,2.964L9.499,2.968L9.479,2.974L8.422,3.282L8.4,3.289L8.379,3.298L7.473,3.704L7.452,3.713L7.432,3.726L6.664,4.21L6.645,4.222L6.627,4.238L5.987,4.78L5.97,4.795L5.955,4.811L5.432,5.394L5.418,5.409L5.406,5.426L4.987,6.029L4.976,6.044L4.967,6.06L4.641,6.664L4.633,6.678L4.626,6.693L4.381,7.279L4.373,7.297L4.368,7.317L4.074,8.357L4.068,8.377L4.065,8.399L3.957,9.135L3.955,9.15L3.954,9.165L3.938,9.445L3.938,9.454L3.938,9.463L3.938,20.6L3.938,20.93L4.269,20.93L17.5,20.93L17.5,20.5L20.49,20.5L20.49,17.35L19.91,16.87L20.49,16.16L20.49,9.463L20.49,9.454L20.49,9.444L20.48,9.172L20.48,9.157L20.47,9.141L20.37,8.424L20.36,8.402L20.36,8.381L20.06,7.364L20.05,7.345L20.05,7.326L19.8,6.751L19.79,6.736L19.78,6.722L19.45,6.128L19.45,6.112L19.44,6.097L19.01,5.502L19,5.485L18.99,5.47L18.46,4.892L18.44,4.876L18.43,4.862L17.78,4.32L17.77,4.306L17.75,4.294L16.97,3.806L16.95,3.794L16.93,3.784L16.02,3.369L16,3.36L15.98,3.354L14.91,3.029L14.89,3.023L14.87,3.02L13.65,2.804L13.63,2.801L13.61,2.8L12.2,2.712L12.19,2.711zM13.55,3.46L14.74,3.669L15.76,3.981L16.64,4.379L17.37,4.843L17.98,5.355L18.48,5.903L18.88,6.465L19.2,7.029L19.43,7.57L19.71,8.546L19.82,9.227L19.83,9.472L19.83,20.27L4.601,20.27L4.601,9.471L4.615,9.218L4.718,8.516L5,7.516L5.232,6.964L5.542,6.392L5.938,5.822L6.434,5.271L7.037,4.759L7.765,4.3L8.629,3.913L9.645,3.616L10.82,3.43L12.18,3.375zz" fill="#000000" fill-opacity="1"/>
      <path d="M11.66,12.73L12.65,12.73L12.65,4.853L11.66,4.853zz" fill="#ffd42a"/>
      <path d="M11.61,4.853L11.61,12.73L11.66,12.78L12.65,12.78L12.7,12.73L12.7,4.853L12.65,4.803L11.66,4.803zM12.6,4.903L12.6,12.68L11.71,12.68L11.71,4.903zz" fill="#ff0000"/>
      <path d="M9.3,8.042L14.86,8.042L14.86,7.053L9.3,7.053zz" fill="#ffd42a"/>
      <path d="M9.25,7.053L9.25,8.042L9.3,8.092L14.86,8.092L14.91,8.042L14.91,7.053L14.86,7.003L9.3,7.003zM14.81,7.103L14.81,7.992L9.35,7.992L9.35,7.103zz" fill="#ff0000"/>
      <path d="M6.648,16.13L12.21,16.13L12.21,15.54L6.648,15.54zz" fill="#ffd42a"/>
      <path d="M6.598,15.54L6.598,16.13L6.648,16.18L12.21,16.18L12.26,16.13L12.26,15.54L12.21,15.49L6.648,15.49zM12.16,15.59L12.16,16.08L6.698,16.08L6.698,15.59zz" fill="#ff0000"/>
      <path d="M13.07,16.14L18.63,16.14L18.63,15.55L13.07,15.55zz" fill="#ffd42a"/>
      <path d="M13.02,15.55L13.02,16.14L13.07,16.19L18.63,16.19L18.68,16.14L18.68,15.55L18.63,15.5L13.07,15.5zM18.58,15.6L18.58,16.09L13.12,16.09L13.12,15.6zz" fill="#ff0000"/>
      <path d="M6.648,18.75L9.869,18.75L9.869,18.16L6.648,18.16zz" fill="#ffd42a"/>
      <path d="M6.598,18.16L6.598,18.75L6.648,18.8L9.869,18.8L9.919,18.75L9.919,18.16L9.869,18.11L6.648,18.11zM9.819,18.21L9.819,18.7L6.698,18.7L6.698,18.21zz" fill="#ff0000"/>
      <path d="M18.31,10.97L17.09,11.16L16.03,11.47L15.12,11.88L14.36,12.36L13.72,12.91L13.19,13.49L12.77,14.09L12.45,14.69L12.2,15.28L11.91,16.32L11.8,17.06L11.79,17.34L11.79,20.6L17.5,20.6L17.5,20.5L20.16,20.5L20.16,17.07L19.91,16.87L20.16,16.57L20.16,10.94L19.7,10.92zz" fill="#000000"/>
      <path d="M18.28,10.34L18.21,10.35L16.99,10.54L16.91,10.56L15.85,10.87L15.77,10.9L14.87,11.3L14.79,11.34L14.02,11.83L13.95,11.88L13.31,12.42L13.25,12.48L12.72,13.07L12.68,13.13L12.26,13.73L12.22,13.79L11.89,14.39L11.87,14.45L11.62,15.03L11.59,15.11L11.3,16.15L11.28,16.23L11.18,16.96L11.17,17.02L11.15,17.3L11.15,17.34L11.15,20.6L11.79,21.23L17.5,21.23L17.5,20.5L20.79,20.5L20.79,17.59L19.91,16.87L20.79,15.79L20.79,10.94L20.2,10.31L19.74,10.28L19.67,10.28zM19.53,19.97L12.42,19.97L12.42,17.35L12.43,17.12L12.53,16.45L12.8,15.49L13.02,14.97L13.31,14.42L13.69,13.88L14.16,13.36L14.73,12.87L15.42,12.44L16.25,12.07L17.23,11.78L18.37,11.6L19.53,11.55zz" fill="#ffffff" fill-opacity="1"/>
      <path d="M15.35,18.81L18.57,18.81L18.57,18.22L15.35,18.22zz" fill="#ffd42a"/>
      <path d="M15.3,18.22L15.3,18.81L15.35,18.86L18.57,18.86L18.62,18.81L18.62,18.22L18.57,18.17L15.35,18.17zM18.52,18.27L18.52,18.76L15.4,18.76L15.4,18.27zz" fill="#ff0000"/>
      <path d="M18.31,10.97L17.09,11.16L16.03,11.47L15.12,11.88L14.36,12.36L13.72,12.91L13.19,13.49L12.77,14.09L12.45,14.69L12.2,15.28L11.91,16.32L11.8,17.06L11.78,17.34L11.78,28.47L17.5,28.47L17.5,20.5L23,20.5L23,19.39L19.91,16.87L20.86,15.71L21.32,15.21L21.82,14.77L22.36,14.39L22.94,14.08L23.54,13.83L24.18,13.65L24.83,13.54L25.5,13.5L26.11,13.53L26.24,13.55L25.73,12.99L25.08,12.45L24.31,11.96L23.4,11.54L22.33,11.22L21.1,11L19.7,10.92zz" fill="#000000"/>
      <path d="M19.69,10.58L18.29,10.64L18.27,10.64L18.25,10.64L17.03,10.84L17.01,10.84L16.99,10.85L15.94,11.16L15.91,11.16L15.89,11.17L14.99,11.58L14.97,11.59L14.95,11.6L14.18,12.08L14.16,12.1L14.14,12.11L13.5,12.65L13.49,12.67L13.47,12.68L12.95,13.27L12.93,13.28L12.92,13.3L12.5,13.9L12.49,13.92L12.48,13.93L12.16,14.54L12.15,14.55L12.14,14.57L11.9,15.15L11.89,15.17L11.88,15.19L11.59,16.23L11.58,16.25L11.58,16.27L11.47,17.01L11.47,17.02L11.47,17.04L11.45,17.32L11.45,17.33L11.45,17.34L11.45,28.47L11.45,28.8L11.78,28.8L17.5,28.8L17.5,28.14L12.12,28.14L12.12,17.34L12.13,17.09L12.23,16.39L12.52,15.39L12.75,14.84L13.06,14.27L13.45,13.69L13.95,13.14L14.55,12.63L15.28,12.17L16.14,11.79L17.16,11.49L18.34,11.3L19.7,11.25L21.06,11.33L22.26,11.54L23.28,11.85L24.15,12.25L24.89,12.71L25.5,13.23L25.76,13.51L26.11,13.53L26.7,13.62L26.53,13.37L26.52,13.36L26.5,13.34L25.97,12.77L25.96,12.75L25.94,12.73L25.3,12.19L25.28,12.18L25.26,12.17L24.49,11.68L24.47,11.67L24.45,11.66L23.54,11.24L23.52,11.23L23.49,11.23L22.43,10.9L22.41,10.9L22.39,10.89L21.16,10.68L21.14,10.67L21.12,10.67L19.72,10.58L19.7,10.58zz" fill="#000000" fill-opacity="1"/>
      <path d="M19.17,20.5L20.16,20.5L20.16,17.07L19.91,16.87L20.16,16.57L20.16,12.73L19.17,12.73zz" fill="#ffd42a"/>
      <path d="M19.12,12.73L19.12,20.5L19.22,20.5L19.22,12.78L20.11,12.78L20.11,16.63L20.21,16.5L20.21,12.73L20.16,12.68L19.17,12.68zM20.11,20.5L20.21,20.5L20.21,17.12L20.11,17.03zz" fill="#ff0000"/>
      <path d="M16.82,15.92L20.69,15.92L20.86,15.71L21.32,15.21L21.64,14.93L16.82,14.93zz" fill="#ffd42a"/>
      <path d="M16.77,14.93L16.77,15.92L16.82,15.97L20.65,15.97L20.74,15.87L16.87,15.87L16.87,14.98L21.59,14.98L21.7,14.88L16.82,14.88zz" fill="#ff0000"/>
      <path d="M14.16,24L17.5,24L17.5,23.41L14.16,23.41zz" fill="#ffd42a"/>
      <path d="M14.11,23.41L14.11,24L14.16,24.05L17.5,24.05L17.5,23.95L14.21,23.95L14.21,23.46L17.5,23.46L17.5,23.36L14.16,23.36zz" fill="#ff0000"/>
      <path d="M14.16,26.62L17.38,26.62L17.38,26.03L14.16,26.03zz" fill="#ffd42a"/>
      <path d="M14.11,26.03L14.11,26.62L14.16,26.67L17.38,26.67L17.43,26.62L17.43,26.03L17.38,25.98L14.16,25.98zM17.33,26.08L17.33,26.57L14.21,26.57L14.21,26.08zz" fill="#ff0000"/>
    </g>
    <g id="overlay">
      <path d="M19.5,22.5h12v9H19.5V22.5zM25.5,27v2" fill="#F7DA8E" stroke="#E57428" stroke-width="1" stroke-miterlimit="10"/>
      <path d="M29.5,22.5v-2.976c0,-2.213,-1.8,-4.024,-4,-4.024l0,0c-1.241,0,-2.354,0.576,-3.09,1.475" fill="none" stroke="#E57428" stroke-width="1" stroke-miterlimit="10"/>
    </g>
  </g>
</svg>
