<?xml version="1.0" encoding="UTF-8" standalone="no"?>
<svg
   xmlns:dc="http://purl.org/dc/elements/1.1/"
   xmlns:cc="http://creativecommons.org/ns#"
   xmlns:rdf="http://www.w3.org/1999/02/22-rdf-syntax-ns#"
   xmlns:svg="http://www.w3.org/2000/svg"
   xmlns="http://www.w3.org/2000/svg"
   xmlns:sodipodi="http://sodipodi.sourceforge.net/DTD/sodipodi-0.dtd"
   xmlns:inkscape="http://www.inkscape.org/namespaces/inkscape"
   version="1.1"
   id="Layer_1"
   x="0px"
   y="0px"
   width="32px"
   height="32px"
   viewBox="0 0 32 32"
   enable-background="new 0 0 32 32"
   xml:space="preserve"
   sodipodi:docname="grav-secure.svg"
   inkscape:version="1.0.1 (3bc2e813f5, 2020-09-07)"><metadata
   id="metadata22"><rdf:RDF><cc:Work
       rdf:about=""><dc:format>image/svg+xml</dc:format><dc:type
         rdf:resource="http://purl.org/dc/dcmitype/StillImage" /></cc:Work></rdf:RDF></metadata><defs
   id="defs20">
    
    
  
      
      
      
      
    </defs><sodipodi:namedview
   pagecolor="#ffffff"
   bordercolor="#666666"
   borderopacity="1"
   objecttolerance="10"
   gridtolerance="10"
   guidetolerance="10"
   inkscape:pageopacity="0"
   inkscape:pageshadow="2"
   inkscape:window-width="1954"
   inkscape:window-height="1144"
   id="namedview18"
   showgrid="false"
   inkscape:zoom="31.5"
   inkscape:cx="16"
   inkscape:cy="16"
   inkscape:window-x="644"
   inkscape:window-y="62"
   inkscape:window-maximized="0"
   inkscape:current-layer="Layer_1" />
  <path
   d="m 15.179683,2.5402222 -1.01,0.07 -0.96,0.121 -0.88,0.169 -0.83,0.213 -0.77,0.252 -0.708,0.29 -0.6560005,0.323 -0.604,0.352 -0.553,0.377 -0.965,0.819 -0.789,0.878 -0.633,0.909 -0.492,0.91 -0.371,0.883 -0.265,0.827 -0.177,0.7409998 -0.164,1.11 -0.023,0.42 v 16.8 H 19.189683 l -0.11,-0.17 -0.39,-0.7 -0.36,-0.76 -0.32,-0.81 -0.28,-0.87 -0.24,-0.92 -0.37,-1.96 -0.19,-1.66 -0.1,-1.79 0.02,-1.86 1.86,-0.11 0.85,-0.1 0.84,-0.18 0.81,-0.25 0.76,-0.29 1.3,-0.62 0.92,-0.56 1.15,-0.8 1.15,0.8 0.91,0.56 0.9,0.43 v -4.18 l -0.03,-0.41 -0.16,-1.08 -0.18,-0.7239998 -0.27,-0.809 -0.37,-0.866 -0.5,-0.896 -0.63,-0.897 -0.8,-0.871 -0.97,-0.818 -1.17,-0.735 -0.66,-0.329 -0.72,-0.298 -0.77,-0.264 -0.83,-0.226 -0.9,-0.184 -0.96,-0.14 -1.02,-0.092 -1.09,-0.041 z"
   fill="#000000"
   id="path2" /><path
   d="m 15.14,16.79 h 1.49 V 4.921 h -1.49 z"
   fill="#ffd42a"
   id="path6" /><path
   d="M 15.09,4.921 V 16.79 l 0.05,0.05 h 1.49 l 0.05,-0.05 V 4.921 l -0.05,-0.05 h -1.49 z m 1.49,0.05 V 16.74 H 15.19 V 4.971 Z"
   fill="#ff0000"
   id="path8" /><g
   id="overlay">
      <path
   d="M 31.5,19.053 C 28.906,18.898 26.288,17.6 25.008,16.7 c -1.28,0.9 -3.913,2.198 -6.507,2.353 -0.008,0.685 0.116,2.03 0.272,3.159 0.329,2.379 1.042,4.418 2.008,5.742 1.35,1.852 2.678,2.982 4.227,3.446 1.549,-0.464 2.863,-1.594 4.213,-3.446 0.966,-1.324 1.679,-3.364 2.008,-5.742 0.154,-1.129 0.279,-2.473 0.271,-3.159 z"
   fill="#ffffff"
   stroke="#17ab4f"
   stroke-width="1"
   stroke-miterlimit="10"
   id="path11" />
      <path
   d="M 21.857,23.937 24.251,26.331 29,21.583"
   fill="none"
   stroke="#17ab4f"
   stroke-width="1"
   stroke-miterlimit="10"
   id="path13" />
    </g>
<path
   d="M 20.182718,9.840238 V 8.3502381 H 11.547442 V 9.840238 Z"
   fill="#ffd42a"
   id="path6-7"
   style="fill:#ffcc00;stroke:#ffcc00;stroke-width:0;stroke-miterlimit:4;stroke-dasharray:none" /><path
   d="m 14.738273,23.046587 v -1.49 H 6.1029967 v 1.49 z"
   fill="#ffd42a"
   id="path6-7-4"
   style="fill:#ffcc00;stroke:#ffcc00;stroke-width:0;stroke-miterlimit:4;stroke-dasharray:none" /><path
   d="m 12.865256,26.443413 v -1.49 H 6.1029967 v 1.49 z"
   fill="#ffd42a"
   id="path6-7-9"
   style="fill:#ffcc00;stroke:#ffcc00;stroke-width:0;stroke-miterlimit:4;stroke-dasharray:none" /></svg>
