<?xml version="1.0" encoding="UTF-8" standalone="no"?>
<svg
   xmlns:dc="http://purl.org/dc/elements/1.1/"
   xmlns:cc="http://creativecommons.org/ns#"
   xmlns:rdf="http://www.w3.org/1999/02/22-rdf-syntax-ns#"
   xmlns:svg="http://www.w3.org/2000/svg"
   xmlns="http://www.w3.org/2000/svg"
   xmlns:sodipodi="http://sodipodi.sourceforge.net/DTD/sodipodi-0.dtd"
   xmlns:inkscape="http://www.inkscape.org/namespaces/inkscape"
   version="1.1"
   id="Layer_1"
   x="0px"
   y="0px"
   width="32px"
   height="32px"
   viewBox="0 0 32 32"
   enable-background="new 0 0 32 32"
   xml:space="preserve"
   sodipodi:docname="gravminne-cancel.svg"
   inkscape:version="1.0.1 (3bc2e813f5, 2020-09-07)"><metadata
   id="metadata989"><rdf:RDF><cc:Work
       rdf:about=""><dc:format>image/svg+xml</dc:format><dc:type
         rdf:resource="http://purl.org/dc/dcmitype/StillImage" /><dc:title></dc:title></cc:Work></rdf:RDF></metadata><defs
   id="defs987" /><sodipodi:namedview
   pagecolor="#ffffff"
   bordercolor="#666666"
   borderopacity="1"
   objecttolerance="10"
   gridtolerance="10"
   guidetolerance="10"
   inkscape:pageopacity="0"
   inkscape:pageshadow="2"
   inkscape:window-width="1803"
   inkscape:window-height="1374"
   id="namedview985"
   showgrid="false"
   inkscape:zoom="44.547727"
   inkscape:cx="18.07029"
   inkscape:cy="6.946297"
   inkscape:window-x="0"
   inkscape:window-y="0"
   inkscape:window-maximized="0"
   inkscape:current-layer="Layer_1" />
  <g
   id="main">
    <g
   id="icon">
      <path
   d="M9,12.5L23,12.5L23,11.5L9,11.5M9,15.5L23,15.5L23,14.5L9,14.5M9,18.5L17.81,18.5L18.14,18.14L18.78,17.56L18.85,17.5L9,17.5M9,21.5L16.03,21.5L16.21,21L16.45,20.5L9,20.5M9,24.5L15.5,24.5L15.55,23.58L15.56,23.5L9,23.5z"
   fill="#228bcb"
   id="path973" />
      <path
   d="M15.86,1.834L16.89,1.853L17.84,1.925L18.72,2.047L19.54,2.213L20.29,2.419L20.99,2.663L21.63,2.941L22.21,3.241L23.24,3.934L24.08,4.703L24.77,5.528L25.31,6.381L25.73,7.241L26.03,8.072L26.25,8.856L26.38,9.553L26.49,10.61L26.5,11L26.5,15.74L26.77,15.79L27.5,16.03L27.5,11L27.5,11L27.5,10.99L27.49,10.58L27.49,10.55L27.49,10.53L27.38,9.428L27.37,9.406L27.37,9.384L27.23,8.647L27.22,8.628L27.22,8.609L26.99,7.791L26.99,7.769L26.98,7.747L26.66,6.872L26.65,6.847L26.64,6.825L26.2,5.919L26.18,5.894L26.17,5.869L25.6,4.966L25.58,4.938L25.56,4.913L24.83,4.038L24.81,4.013L24.78,3.988L23.88,3.172L23.86,3.147L23.83,3.125L22.74,2.397L22.72,2.381L22.69,2.369L22.08,2.044L22.06,2.034L22.04,2.028L21.37,1.738L21.35,1.731L21.33,1.725L20.61,1.469L20.59,1.463L20.57,1.459L19.78,1.244L19.77,1.241L19.75,1.238L18.9,1.066L18.89,1.063L18.87,1.059L17.96,0.9344L17.95,0.9313L17.93,0.9313L16.96,0.8563L16.94,0.8531L16.93,0.8531L15.88,0.8344M5,30.5L17.81,30.5L17.19,29.74L17.03,29.5L5,29.5z"
   fill="#000000"
   fill-opacity="1"
   id="path975" />
    </g>
    <g
   id="overlay">
      <circle
   cx="24.5"
   cy="24.5"
   r="7"
   fill="#FFFFFF"
   stroke="#EE3D3B"
   stroke-width="1"
   stroke-linecap="round"
   stroke-miterlimit="1"
   id="circle978" />
      <path
   d="M20.922,20.922l7.156,7.156M20.922,28.078l7.156,-7.156"
   fill="none"
   stroke="#EE3D3B"
   stroke-width="1.1"
   stroke-miterlimit="1"
   id="path980" />
    </g>
  </g>
<path
   style="fill:none;stroke:#000000;stroke-width:1.00001px;stroke-linecap:butt;stroke-linejoin:miter;stroke-opacity:1"
   d="m 5.4999912,29.946564 0.134687,-18.144763 c 0,0 0.1197063,-10.4584208 10.3728688,-10.4584208"
   id="path924"
   sodipodi:nodetypes="ccc" /></svg>
