<?xml version="1.0" encoding="UTF-8"?>
<!DOCTYPE svg PUBLIC "-//W3C//DTD SVG 1.1//EN" "http://www.w3.org/Graphics/SVG/1.1/DTD/svg11.dtd">
<svg version="1.1" id="Layer_1" xmlns="http://www.w3.org/2000/svg" xmlns:xlink="http://www.w3.org/1999/xlink" x="0px" y="0px" width="32px" height="32px" viewBox="0 0 32 32" enable-background="new 0 0 32 32" xml:space="preserve">
  <g id="main">
    <g id="icon">
      <g fill="none" stroke="#000000" stroke-width="0.2" stroke-miterlimit="3.8" fill-opacity="1" stroke-opacity="1">
        <path d="M15.53,1.103L15.53,1.103L15.52,1.103L14.61,1.18L14.6,1.18L14.6,1.18L13.74,1.313L13.74,1.313L13.73,1.314L12.93,1.498L12.93,1.499L12.93,1.5L12.18,1.732L12.18,1.734L12.17,1.735L11.48,2.011L11.48,2.012L11.47,2.014L10.83,2.33L10.83,2.332L10.83,2.334L10.23,2.686L10.23,2.688L10.23,2.69L9.683,3.074L9.68,3.076L9.677,3.079L9.178,3.491L9.174,3.495L9.17,3.498L8.3,4.391L8.296,4.396L8.292,4.402L7.579,5.36L7.576,5.364L7.573,5.369L7.003,6.361L7,6.365L6.998,6.37L6.554,7.363L6.552,7.367L6.551,7.371L6.217,8.335L6.216,8.338L6.215,8.342L5.975,9.244L5.975,9.247L5.974,9.25L5.814,10.06L5.813,10.06L5.813,10.07L5.665,11.28L5.665,11.28L5.665,11.29L5.644,11.75L5.843,11.76L5.864,11.3L6.011,10.09L6.169,9.293L6.407,8.397L6.739,7.439L7.178,6.458L7.744,5.474L8.449,4.526L9.309,3.642L9.801,3.236L10.34,2.856L10.92,2.508L11.56,2.195L12.24,1.922L12.98,1.692L13.78,1.51L14.62,1.379L14.62,1.379L15.53,1.303L16.51,1.286L17.49,1.33L18.41,1.429L19.26,1.581L20.06,1.781L20.81,2.025L21.5,2.31L22.14,2.631L22.73,2.986L23.77,3.781L24.63,4.662L25.35,5.604L25.92,6.575L26.36,7.542L26.69,8.479L26.93,9.357L26.93,9.359L27.09,10.14L27.24,11.31L27.26,11.76L27.26,14.78L27.46,14.98L27.46,11.75L27.46,11.75L27.46,11.75L27.44,11.3L27.44,11.3L27.44,11.29L27.29,10.11L27.29,10.11L27.29,10.1L27.13,9.312L27.13,9.309L27.13,9.306L26.88,8.423L26.88,8.42L26.88,8.416L26.55,7.471L26.54,7.467L26.54,7.463L26.09,6.486L26.09,6.481L26.09,6.477L25.51,5.497L25.51,5.493L25.51,5.488L24.79,4.537L24.79,4.532L24.78,4.527L23.91,3.636L23.9,3.63L23.89,3.626L22.84,2.823L22.84,2.82L22.83,2.817L22.24,2.458L22.23,2.456L22.23,2.455L21.58,2.13L21.58,2.128L21.58,2.127L20.88,1.839L20.88,1.838L20.87,1.836L20.12,1.59L20.12,1.589L20.11,1.588L19.31,1.386L19.3,1.386L19.3,1.385L18.44,1.232L18.43,1.231L18.43,1.231L17.51,1.131L17.5,1.13L17.5,1.13L16.51,1.086L16.51,1.086L16.51,1.086zM5.744,30.18L14.24,30.18L14.44,29.98L5.744,29.98zz" fill="#000000" fill-opacity="1"/>
        <path d="M15.51,0.7076L14.56,0.7889L13.67,0.9291L12.83,1.124L12.05,1.369L11.33,1.661L10.65,1.995L10.03,2.366L9.453,2.771L8.925,3.205L8.002,4.144L7.247,5.15L6.646,6.188L6.183,7.225L5.835,8.23L5.586,9.17L5.42,10.01L5.269,11.27L5.248,11.75L5.248,30.57L5.744,30.57L13.84,30.57L14.83,29.58L6.24,29.58L6.24,11.75L6.261,11.31L6.404,10.15L6.558,9.371L6.787,8.506L7.107,7.584L7.531,6.635L8.072,5.689L8.741,4.778L9.559,3.931L10.54,3.177L11.1,2.845L11.71,2.546L12.37,2.286L13.08,2.067L13.85,1.893L14.67,1.769L15.56,1.697L16.5,1.682L17.46,1.724L18.35,1.819L19.18,1.964L19.96,2.154L20.68,2.388L21.34,2.661L21.96,2.969L22.52,3.309L23.52,4.071L24.34,4.918L25.02,5.822L25.56,6.756L25.99,7.689L26.31,8.592L26.54,9.437L26.7,10.19L26.84,11.32L26.86,11.75L26.86,14.39L27.86,15.38L27.86,11.75L27.83,11.29L27.68,10.05L27.51,9.229L27.26,8.307L26.91,7.32L26.44,6.299L25.84,5.274L25.08,4.277L24.15,3.341L23.62,2.905L23.04,2.496L22.41,2.119L21.74,1.777L21.01,1.474L20.22,1.214L19.38,1.002L18.49,0.8412L17.53,0.7355L16.52,0.6895zz" fill="#000000" fill-opacity="1"/>
        <path d="M15.5,0.6076L15.5,0.6076L15.5,0.6078L14.55,0.6891L14.54,0.6895L14.54,0.69L13.65,0.8303L13.65,0.8309L13.64,0.8316L12.81,1.027L12.8,1.027L12.8,1.029L12.02,1.274L12.02,1.275L12.01,1.277L11.29,1.568L11.29,1.57L11.28,1.571L10.61,1.905L10.6,1.907L10.6,1.909L9.977,2.28L9.974,2.282L9.971,2.284L9.395,2.689L9.392,2.691L9.389,2.694L8.861,3.128L8.857,3.131L8.853,3.135L7.93,4.074L7.926,4.079L7.922,4.084L7.167,5.09L7.163,5.095L7.16,5.1L6.56,6.138L6.557,6.142L6.555,6.147L6.091,7.184L6.09,7.188L6.088,7.192L5.74,8.197L5.739,8.201L5.738,8.204L5.489,9.144L5.488,9.147L5.488,9.151L5.322,9.993L5.321,9.997L5.321,10L5.17,11.26L5.169,11.27L5.169,11.27L5.148,11.75L5.148,11.75L5.148,11.75L5.148,30.57L5.148,30.67L5.248,30.67L5.744,30.67L13.74,30.67L13.94,30.47L5.744,30.47L5.348,30.47L5.348,11.76L5.369,11.28L5.519,10.03L5.684,9.191L5.684,9.189L5.93,8.26L6.276,7.262L6.736,6.233L7.331,5.205L8.077,4.21L8.992,3.279L9.513,2.851L10.08,2.45L10.7,2.082L11.37,1.752L12.09,1.463L12.86,1.22L13.69,1.027L14.57,0.8885L14.57,0.8883L15.51,0.8072L15.51,0.8072L16.52,0.7895L16.52,0.7895L17.53,0.8355L18.47,0.9402L19.36,1.1L20.19,1.31L20.97,1.568L21.69,1.868L22.37,2.207L22.99,2.581L23.56,2.985L24.08,3.414L25,4.344L25.76,5.33L26.36,6.346L26.82,7.358L27.17,8.338L27.42,9.251L27.58,10.07L27.73,11.29L27.76,11.75L27.76,11.75L27.76,15.28L27.96,15.48L27.96,11.75L27.96,11.75L27.96,11.75L27.93,11.28L27.93,11.28L27.93,11.27L27.78,10.04L27.78,10.04L27.78,10.03L27.61,9.209L27.61,9.206L27.61,9.202L27.36,8.281L27.36,8.277L27.36,8.274L27.01,7.287L27,7.282L27,7.279L26.53,6.257L26.53,6.253L26.53,6.248L25.92,5.223L25.92,5.218L25.92,5.214L25.16,4.217L25.15,4.212L25.15,4.207L24.22,3.27L24.22,3.267L24.21,3.263L23.68,2.828L23.68,2.825L23.68,2.823L23.1,2.415L23.1,2.413L23.09,2.411L22.47,2.033L22.46,2.031L22.46,2.03L21.78,1.688L21.78,1.686L21.78,1.685L21.05,1.382L21.04,1.38L21.04,1.379L20.25,1.12L20.25,1.118L20.25,1.117L19.41,0.9051L19.41,0.9043L19.4,0.9037L18.51,0.7428L18.5,0.7422L18.5,0.7418L17.54,0.6361L17.54,0.6359L17.54,0.6357L16.52,0.5896L16.52,0.5895L16.51,0.5895zM15.55,1.597L15.55,1.597L15.55,1.597L14.66,1.669L14.66,1.669L14.66,1.67L13.83,1.794L13.83,1.795L13.82,1.796L13.06,1.969L13.05,1.97L13.05,1.971L12.34,2.19L12.33,2.191L12.33,2.193L11.67,2.453L11.67,2.454L11.67,2.456L11.06,2.755L11.05,2.756L11.05,2.759L10.49,3.091L10.49,3.094L10.48,3.098L9.498,3.852L9.492,3.856L9.487,3.862L8.669,4.709L8.665,4.714L8.661,4.719L7.991,5.63L7.988,5.635L7.985,5.64L7.444,6.585L7.442,6.589L7.44,6.594L7.015,7.543L7.014,7.547L7.012,7.552L6.693,8.474L6.692,8.477L6.691,8.481L6.461,9.345L6.461,9.348L6.46,9.351L6.306,10.13L6.305,10.13L6.304,10.13L6.162,11.3L6.162,11.3L6.161,11.31L6.14,11.75L6.14,11.75L6.14,11.75L6.14,29.58L6.14,29.68L6.24,29.68L14.73,29.68L14.93,29.48L6.34,29.48L6.34,11.75L6.34,11.75L6.361,11.32L6.503,10.16L6.655,9.394L6.883,8.536L7.2,7.62L7.62,6.681L8.155,5.745L8.818,4.843L9.625,4.006L10.6,3.26L11.15,2.932L11.75,2.638L12.4,2.38L13.11,2.163L13.87,1.992L14.68,1.869L14.68,1.869L15.56,1.797L16.5,1.782L16.5,1.782L17.45,1.824L17.45,1.824L18.33,1.917L18.33,1.918L19.16,2.062L19.93,2.251L20.64,2.482L21.3,2.752L21.91,3.057L22.47,3.392L23.45,4.146L24.27,4.983L24.93,5.878L25.47,6.802L25.9,7.727L26.22,8.624L26.45,9.459L26.6,10.21L26.74,11.33L26.76,11.75L26.76,11.75L26.76,14.29L26.96,14.49L26.96,11.75L26.96,11.75L26.96,11.75L26.94,11.32L26.94,11.31L26.94,11.31L26.8,10.18L26.8,10.18L26.8,10.17L26.64,9.416L26.64,9.413L26.64,9.41L26.41,8.566L26.41,8.563L26.41,8.559L26.08,7.656L26.08,7.652L26.08,7.647L25.65,6.714L25.65,6.71L25.65,6.705L25.1,5.772L25.1,5.767L25.1,5.763L24.42,4.858L24.42,4.853L24.41,4.848L23.59,4.001L23.58,3.996L23.58,3.991L22.58,3.229L22.58,3.226L22.57,3.223L22.01,2.883L22,2.881L22,2.879L21.39,2.571L21.38,2.569L21.38,2.568L20.71,2.296L20.71,2.294L20.71,2.293L19.99,2.059L19.99,2.058L19.98,2.057L19.21,1.866L19.2,1.866L19.2,1.865L18.37,1.72L18.36,1.72L18.36,1.719L17.47,1.624L17.47,1.624L17.46,1.624L16.51,1.582L16.5,1.582L16.5,1.582zz" fill="#000000" fill-opacity="1"/>
      </g>
      <path d="M11.87,9.524L21.02,9.524L21.02,8.508L11.87,8.508zz" fill="#000000" fill-opacity="1"/>
      <path d="M11.79,8.448L11.77,8.508L11.77,9.524L11.81,9.604L11.87,9.624L21.02,9.624L21.1,9.584L21.12,9.524L21.12,8.508L21.08,8.428L21.02,8.408L11.87,8.408zM20.92,8.608L20.92,9.424L11.97,9.424L11.97,8.608zz" fill="#000000" fill-opacity="1"/>
      <path d="M15.88,16.69L17.01,16.69L17.01,4.709L15.88,4.709zz" fill="#000000" fill-opacity="1"/>
      <path d="M15.8,4.642L15.77,4.709L15.77,16.69L15.82,16.78L15.88,16.8L17.01,16.8L17.09,16.75L17.12,16.69L17.12,4.709L17.07,4.621L17.01,4.598L15.88,4.598zM16.89,4.82L16.89,16.58L15.99,16.58L15.99,4.82zz" fill="#000000" fill-opacity="1"/>
      <path d="M7.873,21.21L16.11,21.21L16.65,20.67L17.05,20.32L7.873,20.32zz" fill="#000000" fill-opacity="1"/>
      <path d="M7.793,20.26L7.773,20.32L7.773,21.21L7.813,21.29L7.873,21.31L16.01,21.31L16.21,21.11L7.973,21.11L7.973,20.42L16.94,20.42L17.17,20.22L7.873,20.22zz" fill="#000000" fill-opacity="1"/>
      <path d="M7.81,23.94L17.09,23.94L16.2,23.05L7.81,23.05zz" fill="#000000" fill-opacity="1"/>
      <path d="M7.729,22.99L7.71,23.05L7.71,23.94L7.75,24.02L7.81,24.04L17.19,24.04L16.99,23.84L7.91,23.84L7.91,23.15L16.3,23.15L16.1,22.95L7.81,22.95zz" fill="#000000" fill-opacity="1"/>
      <path d="M7.683,26.73L14.73,26.73L14.73,25.84L7.683,25.84zz" fill="#000000" fill-opacity="1"/>
      <path d="M7.602,25.78L7.583,25.84L7.583,26.73L7.623,26.81L7.683,26.83L14.73,26.83L14.81,26.79L14.83,26.73L14.83,25.84L14.79,25.76L14.73,25.74L7.683,25.74zM14.63,25.94L14.63,26.63L7.783,26.63L7.783,25.94zz" fill="#000000" fill-opacity="1"/>
      <path d="M18.19,26.22L18.57,25.84L18.19,25.84zz" fill="#000000" fill-opacity="1"/>
      <path d="M18.11,25.78L18.09,25.84L18.09,26.32L18.29,26.12L18.29,25.94L18.47,25.94L18.67,25.74L18.19,25.74zz" fill="#000000" fill-opacity="1"/>
    </g>
    <g id="overlay">
      <path d="M18.065,22.084c1.481,-1.481,3.344,-1.833,4.613,-0.564l2.428,-2.428c-0.863,-0.863,-0.341,-2.239,0.527,-3.106L31.3,21.652c-0.868,0.868,-2.243,1.39,-3.106,0.527l-2.428,2.428c1.481,1.481,0.723,3.362,-0.546,4.631L18.065,22.084zM15.65,31.593l5.88,-5.88" fill="#9DCFEE" stroke="#10415F" stroke-width="1" stroke-miterlimit="10"/>
    </g>
  </g>
</svg>
