<?xml version="1.0" encoding="UTF-8" standalone="no"?>
<svg
   xmlns:dc="http://purl.org/dc/elements/1.1/"
   xmlns:cc="http://creativecommons.org/ns#"
   xmlns:rdf="http://www.w3.org/1999/02/22-rdf-syntax-ns#"
   xmlns:svg="http://www.w3.org/2000/svg"
   xmlns="http://www.w3.org/2000/svg"
   xmlns:sodipodi="http://sodipodi.sourceforge.net/DTD/sodipodi-0.dtd"
   xmlns:inkscape="http://www.inkscape.org/namespaces/inkscape"
   version="1.1"
   id="Layer_1"
   x="0px"
   y="0px"
   width="32px"
   height="32px"
   viewBox="0 0 32 32"
   enable-background="new 0 0 32 32"
   xml:space="preserve"
   sodipodi:docname="grav-info-filled.svg"
   inkscape:version="1.0.1 (3bc2e813f5, 2020-09-07)"><metadata
   id="metadata26"><rdf:RDF><cc:Work
       rdf:about=""><dc:format>image/svg+xml</dc:format><dc:type
         rdf:resource="http://purl.org/dc/dcmitype/StillImage" /><dc:title></dc:title></cc:Work></rdf:RDF></metadata><defs
   id="defs24">
    
    
  
      
      
      
      
    </defs><sodipodi:namedview
   pagecolor="#ffffff"
   bordercolor="#666666"
   borderopacity="1"
   objecttolerance="10"
   gridtolerance="10"
   guidetolerance="10"
   inkscape:pageopacity="0"
   inkscape:pageshadow="2"
   inkscape:window-width="1778"
   inkscape:window-height="1223"
   id="namedview22"
   showgrid="false"
   inkscape:zoom="31.5"
   inkscape:cx="16.348971"
   inkscape:cy="16"
   inkscape:window-x="0"
   inkscape:window-y="0"
   inkscape:window-maximized="0"
   inkscape:current-layer="Layer_1" />
  <path
   d="M 14.817032,2.2051395 13.759863,2.2764204 12.75503,2.3996343 11.833932,2.5717267 10.965169,2.788624 10.159209,3.0452351 9.4181442,3.3405413 8.7315078,3.6694514 8.0992999,4.0278922 7.5204738,4.4117904 6.5104065,5.2457762 5.6845589,6.1398415 5.0219966,7.0654739 4.5070193,7.9921248 4.1186929,8.8912816 3.8413169,9.7334137 3.6560506,10.487972 l -0.171659,1.130311 -0.024074,0.427684 v 17.1074 H 16.575491 l -0.408213,-0.865553 -0.366346,-1.079395 -0.230275,-1.13031 -0.07327,-1.171043 0.05234,-0.936833 0.136071,-0.906285 0.240741,-0.875736 0.314011,-0.845187 0.397746,-0.804456 0.471016,-0.75354 0.544285,-0.702625 0.607087,-0.651711 0.669889,-0.590612 0.722224,-0.529515 0.77456,-0.458234 0.826894,-0.386953 0.868762,-0.305489 0.900164,-0.234208 0.931566,-0.132379 0.962964,-0.05091 1.203707,0.07128 1.16184,0.224025 1.109504,0.356405 0.157005,0.0611 V 12.045967 L 28.518359,11.628465 28.350886,10.528704 28.16248,9.7914567 27.87987,8.9676539 27.492591,8.0858081 26.96924,7.1734135 26.309818,6.2600006 25.472456,5.3730634 24.457156,4.5400959 23.232515,3.7916471 22.541691,3.4566273 21.788067,3.1531745 20.982106,2.884344 20.113344,2.6542088 19.171311,2.4668419 18.166478,2.3242803 17.098842,2.2305969 15.957938,2.1888467 Z"
   fill="#000000"
   id="path2"
   style="stroke-width:1.0324" /><path
   d="m 15.14,16.755171 h 1.49 V 4.9135475 h -1.49 z"
   fill="#ffd42a"
   id="path6"
   style="stroke-width:0;stroke-miterlimit:4;stroke-dasharray:none;fill:#ffcc00;stroke:#ffcc00" /><path
   d="M 15.09,4.9135475 V 16.755171 l 0.05,0.04988 h 1.49 l 0.05,-0.04988 V 4.9135475 l -0.05,-0.049885 h -1.49 z m 1.49,0.049885 V 16.705286 H 15.19 V 4.9634322 Z"
   fill="#ff0000"
   id="path8"
   style="stroke-width:0.998846" />
<path
   d="M 20.206527,10.046587 V 8.5565872 h -8.635275 v 1.4899998 z"
   fill="#ffd42a"
   id="path6-7"
   style="fill:#ffcc00;stroke:#ffcc00;stroke-width:0;stroke-miterlimit:4;stroke-dasharray:none" /><path
   d="m 14.762083,23.252936 v -1.49 H 6.126807 v 1.49 z"
   fill="#ffd42a"
   id="path6-7-4"
   style="fill:#ffcc00;stroke:#ffcc00;stroke-width:0;stroke-miterlimit:4;stroke-dasharray:none" /><path
   d="m 12.889066,26.649762 v -1.49 H 6.1268069 v 1.49 z"
   fill="#ffd42a"
   id="path6-7-9"
   style="fill:#ffcc00;stroke:#ffcc00;stroke-width:0;stroke-miterlimit:4;stroke-dasharray:none" /><g
   id="overlay"
   transform="translate(0.07142856,0.00793653)"><path
     d="m 24.5,17.5 c -3.866,0 -7,3.134 -7,7 0,3.866 3.134,7 7,7 3.866,0 7,-3.134 7,-7 0,-3.866 -3.134,-7 -7,-7 z M 25.1,29 h -1.2 v -6 h 1.2 z m 0,-7.5 H 23.9 V 20 h 1.2 z"
     fill="#92cbee"
     id="path13" /><path
     d="m 24.5,17.5 c -3.866,0 -7,3.134 -7,7 0,3.866 3.134,7 7,7 3.866,0 7,-3.134 7,-7 0,-3.866 -3.134,-7 -7,-7 z M 25.1,29 h -1.2 v -6 h 1.2 z m 0,-7.5 H 23.9 V 20 h 1.2 z"
     fill="#0964b0"
     opacity="0.2"
     id="path15" /><path
     d="M 24.5,32 C 20.365,32 17,28.635 17,24.5 17,20.365 20.365,17 24.5,17 c 4.135,0 7.5,3.365 7.5,7.5 0,4.135 -3.365,7.5 -7.5,7.5 z m 0,-14 C 20.916,18 18,20.916 18,24.5 18,28.084 20.916,31 24.5,31 28.084,31 31,28.084 31,24.5 31,20.916 28.084,18 24.5,18 Z"
     fill="#0964b0"
     id="path17" /><path
     d="m 25.1,29 h -1.2 v -6 h 1.2 z m 0,-7.5 H 23.9 V 20 h 1.2 z"
     fill="#ffffff"
     id="path19" /></g></svg>
