<?xml version="1.0" encoding="UTF-8"?>
<!DOCTYPE svg PUBLIC "-//W3C//DTD SVG 1.1//EN" "http://www.w3.org/Graphics/SVG/1.1/DTD/svg11.dtd">
<svg version="1.1" id="Layer_1" xmlns="http://www.w3.org/2000/svg" xmlns:xlink="http://www.w3.org/1999/xlink" x="0px" y="0px" width="32px" height="32px" viewBox="0 0 32 32" enable-background="new 0 0 32 32" xml:space="preserve">
  <g id="main">
    <clipPath id="clip_mask">
      <path d="M29.165,32H0V0h32v29.165l-3.075,-3.075c0.575,-1.048,0.884,-2.232,0.884,-3.439c0,-3.943,-3.209,-7.151,-7.155,-7.151C18.71,15.5,15.5,18.708,15.5,22.651s3.21,7.151,7.155,7.151c1.205,0,2.387,-0.307,3.433,-0.88L29.165,32z"/>
    </clipPath>
    <g id="icon" clip-path="url(#clip_mask)">
      <g id="transformed_icon" transform="translate(-1 -1)">
        <rect x="1.5" y="3.5" width="29" height="25" fill="#FFFFFF"/>
        <circle cx="24" cy="9" r="2.5" fill="#F7DA8E" stroke="#E57428" stroke-width="1" stroke-miterlimit="1"/>
        <path d="M30.5,28.4H1.5v-9.1c5.722,-7.308,8.632,-6.852,14.833,0.6c4.496,-5.223,9.249,-3.326,14.167,3.1V28.4z" fill="#ACD8B1"/>
        <path d="M16.388,19.76c5.523,-5.925,9.485,-1.782,14.112,2.909M23.725,25.652C13.93,21.896,10.746,5.181,1.5,20.071" fill="none" stroke="#0BA04A" stroke-width="1.2" stroke-miterlimit="1"/>
        <path d="M31,29H1V3h30V29zM2,28h28V4H2V28z" fill="#383838"/>
      </g>
    </g>
    <g id="overlay">
      <path d="M17.505,22.651c0,-2.842,2.306,-5.146,5.15,-5.146s5.15,2.304,5.15,5.146s-2.306,5.146,-5.15,5.146S17.505,25.494,17.505,22.651zM26.329,26.329l5.313,5.313" fill="#FFFFFF"/>
      <path d="M26.275,26.989c-0.982,0.82,-2.245,1.314,-3.621,1.314c-3.118,0,-5.655,-2.535,-5.655,-5.651S19.537,17,22.655,17c3.118,0,5.655,2.535,5.655,5.651c0,1.378,-0.496,2.643,-1.319,3.624l5.01,5.01l-0.714,0.714L26.275,26.989zM18.01,22.651c0,2.559,2.084,4.642,4.645,4.642s4.645,-2.082,4.645,-4.642s-2.084,-4.642,-4.645,-4.642S18.01,20.092,18.01,22.651z" fill="#383838"/>
    </g>
  </g>
</svg>
