<?xml version="1.0" encoding="UTF-8"?>
<!DOCTYPE svg PUBLIC "-//W3C//DTD SVG 1.1//EN" "http://www.w3.org/Graphics/SVG/1.1/DTD/svg11.dtd">
<svg version="1.1" id="Layer_1" xmlns="http://www.w3.org/2000/svg" xmlns:xlink="http://www.w3.org/1999/xlink" x="0px" y="0px" width="32px" height="32px" viewBox="0 0 32 32" enable-background="new 0 0 32 32" xml:space="preserve">
  <g id="main">
    <g id="icon">
      <path d="M13.12,0.5723L11.74,0.7844L10.4,1.129L9.12,1.6L7.901,2.19L6.75,2.891L5.677,3.697L4.686,4.601L3.786,5.595L2.982,6.672L2.284,7.827L1.696,9.051L1.227,10.34L0.8834,11.68L0.6721,13.07L0.6,14.5L0.6721,15.93L0.8834,17.32L1.227,18.66L1.696,19.95L2.284,21.17L2.982,22.33L3.786,23.41L4.686,24.4L5.677,25.3L6.75,26.11L7.901,26.81L9.12,27.4L10.4,27.87L11.74,28.22L13.12,28.43L14.55,28.5L15.98,28.43L17.15,28.25L17.08,28.08L16.76,27.1L16.57,26.07L16.5,25L16.54,24.13L16.67,23.29L16.88,22.48L17.17,21.69L17.53,20.95L17.95,20.25L18.44,19.6L18.99,18.99L19.6,18.44L20.25,17.95L20.95,17.53L21.69,17.17L22.48,16.88L23.29,16.67L24.13,16.54L25,16.5L26.07,16.57L27.1,16.76L28.08,17.08L28.24,17.15L28.43,15.93L28.5,14.5L28.43,13.07L28.22,11.68L27.87,10.34L27.4,9.051L26.82,7.827L26.12,6.672L25.31,5.595L24.41,4.601L23.42,3.697L22.35,2.891L21.2,2.19L19.98,1.6L18.7,1.129L17.36,0.7844L15.98,0.5723L14.55,0.5zz" fill="#FFFFFF"/>
      <path d="M14.52,0.0005859L13.1,0.07285L13.07,0.07422L13.05,0.07813L11.66,0.2902L11.64,0.2939L11.61,0.3002L10.28,0.6453L10.25,0.6516L10.23,0.6602L8.948,1.131L8.925,1.139L8.902,1.15L7.683,1.74L7.661,1.75L7.64,1.763L6.49,2.464L6.47,2.477L6.45,2.491L5.376,3.297L5.357,3.311L5.34,3.328L4.349,4.231L4.331,4.247L4.315,4.265L3.415,5.259L3.399,5.277L3.385,5.296L2.581,6.374L2.567,6.393L2.555,6.413L1.856,7.568L1.843,7.588L1.833,7.61L1.246,8.834L1.235,8.856L1.227,8.879L0.7574,10.17L0.749,10.19L0.7428,10.21L0.399,11.55L0.3928,11.58L0.3891,11.6L0.1777,12.99L0.1738,13.02L0.1727,13.04L0.1006,14.47L0.09941,14.5L0.1006,14.53L0.1727,15.96L0.1738,15.98L0.1777,16.01L0.3891,17.4L0.3928,17.42L0.399,17.45L0.7428,18.79L0.749,18.81L0.7574,18.83L1.227,20.12L1.235,20.14L1.246,20.17L1.833,21.39L1.843,21.41L1.856,21.43L2.555,22.59L2.567,22.61L2.581,22.63L3.385,23.7L3.399,23.72L3.415,23.74L4.315,24.74L4.331,24.75L4.349,24.77L5.34,25.67L5.357,25.69L5.376,25.7L6.45,26.51L6.47,26.52L6.49,26.54L7.64,27.24L7.661,27.25L7.683,27.26L8.902,27.85L8.925,27.86L8.948,27.87L10.23,28.34L10.25,28.35L10.28,28.35L11.61,28.7L11.64,28.71L11.66,28.71L13.05,28.92L13.07,28.93L13.1,28.93L14.52,29L14.55,29L14.58,29L16,28.93L16.03,28.93L16.05,28.92L17.37,28.72L17.08,28.08L16.98,27.77L15.93,27.93L14.55,28L13.17,27.93L11.84,27.73L10.55,27.39L9.316,26.94L8.141,26.37L7.03,25.69L5.996,24.92L5.04,24.05L4.173,23.09L3.397,22.05L2.724,20.94L2.157,19.75L1.705,18.52L1.374,17.22L1.17,15.88L1.101,14.5L1.17,13.12L1.374,11.78L1.705,10.48L2.157,9.245L2.724,8.065L3.397,6.952L4.173,5.912L5.04,4.954L5.996,4.082L7.03,3.306L8.141,2.629L9.316,2.061L10.55,1.607L11.84,1.275L13.17,1.07L14.55,1.001L15.93,1.07L17.26,1.275L18.55,1.607L19.78,2.061L20.96,2.629L22.07,3.306L23.1,4.082L24.06,4.954L24.93,5.912L25.7,6.952L26.38,8.065L26.94,9.245L27.39,10.48L27.73,11.78L27.93,13.12L28,14.5L27.93,15.88L27.76,16.98L28.08,17.08L28.71,17.37L28.92,16.01L28.93,15.98L28.93,15.96L29,14.53L29,14.5L29,14.47L28.93,13.04L28.93,13.02L28.92,12.99L28.71,11.6L28.71,11.58L28.7,11.55L28.36,10.21L28.35,10.19L28.34,10.17L27.87,8.879L27.87,8.856L27.85,8.834L27.27,7.61L27.26,7.588L27.24,7.568L26.55,6.413L26.53,6.393L26.52,6.374L25.72,5.296L25.7,5.277L25.69,5.259L24.78,4.265L24.77,4.247L24.75,4.231L23.76,3.328L23.74,3.311L23.72,3.297L22.65,2.491L22.63,2.477L22.61,2.464L21.46,1.763L21.44,1.75L21.42,1.74L20.2,1.15L20.18,1.139L20.15,1.131L18.87,0.6602L18.85,0.6516L18.82,0.6453L17.49,0.3002L17.46,0.2939L17.44,0.2902L16.05,0.07813L16.03,0.07422L16,0.07285L14.58,0.0005859L14.56,0L14.54,0zz" fill="#228BCB"/>
      <path d="M13.49,0.5189L13.46,0.532L13.44,0.5477L12.68,1.07L12.66,1.083L12.65,1.099L11.91,1.717L11.89,1.731L11.88,1.745L11.17,2.451L11.15,2.464L11.14,2.478L10.46,3.261L10.45,3.274L10.44,3.287L9.793,4.138L9.784,4.15L9.775,4.163L9.169,5.072L9.161,5.084L9.154,5.096L8.592,6.054L8.585,6.066L8.579,6.078L8.065,7.075L8.059,7.087L8.054,7.1L7.594,8.126L7.588,8.138L7.583,8.151L7.182,9.197L7.177,9.21L7.173,9.223L6.923,10L1.266,10L1.266,11L6.647,11L6.554,11.36L6.55,11.38L6.547,11.4L6.347,12.44L6.344,12.46L6.342,12.48L6.219,13.51L6.216,13.52L6.216,13.54L6.173,14.54L6.173,14.56L6.173,14.58L6.213,15.57L6.214,15.59L6.216,15.61L6.332,16.63L6.334,16.65L6.337,16.66L6.527,17.7L6.529,17.72L6.533,17.73L6.599,18L1.266,18L1.266,19L6.858,19L7.122,19.86L7.126,19.87L7.131,19.88L7.516,20.92L7.52,20.93L7.526,20.95L7.968,21.97L7.973,21.98L7.979,21.99L8.474,22.98L8.481,22.99L8.488,23.01L9.032,23.96L9.04,23.97L9.048,23.98L9.638,24.89L9.647,24.9L9.656,24.91L10.29,25.76L10.3,25.77L10.31,25.78L10.98,26.56L10.99,26.57L11.01,26.59L11.71,27.28L11.73,27.3L11.74,27.31L12.48,27.92L12.5,27.94L12.52,27.95L13.28,28.47L13.3,28.48L13.33,28.5L14.11,28.9L14.3,28.53L14.65,28.53L14.84,28.9L15.63,28.5L15.65,28.48L15.67,28.47L16.43,27.95L16.46,27.94L16.47,27.92L16.91,27.56L16.76,27.1L16.64,26.47L16.55,26.56L15.85,27.14L15.14,27.62L15,27.69L15,19L18.99,19L18.99,18.99L19.6,18.44L20.19,18L15,18L15,11L21.28,11L21.43,11.6L21.62,12.61L21.74,13.61L21.78,14.56L21.74,15.52L21.63,16.5L21.49,17.27L21.69,17.17L22.48,16.88L22.58,16.86L22.61,16.66L22.62,16.65L22.62,16.63L22.74,15.61L22.74,15.59L22.74,15.58L22.78,14.59L22.78,14.57L22.78,14.55L22.74,13.55L22.74,13.53L22.73,13.51L22.61,12.48L22.61,12.46L22.61,12.45L22.41,11.4L22.41,11.38L22.41,11.37L22.31,11L27.79,11L27.79,10L22.04,10L21.8,9.227L21.8,9.213L21.79,9.201L21.4,8.155L21.39,8.142L21.39,8.129L20.94,7.103L20.93,7.091L20.93,7.079L20.42,6.082L20.41,6.07L20.41,6.058L19.85,5.1L19.85,5.088L19.84,5.075L19.24,4.166L19.23,4.153L19.22,4.141L18.59,3.29L18.58,3.277L18.56,3.264L17.89,2.481L17.88,2.467L17.86,2.453L17.16,1.748L17.14,1.733L17.13,1.719L16.4,1.101L16.38,1.085L16.36,1.071L15.6,0.5492L15.58,0.5334L15.55,0.5201L14.78,0.1045L14.57,0.5L14.48,0.5L14.26,0.1033zM15.06,1.388L15.77,1.881L16.47,2.469L17.14,3.147L17.8,3.904L18.41,4.73L18.99,5.612L19.54,6.548L20.03,7.517L20.47,8.52L20.85,9.539L21,10L15,10L15,1.358zM14,10L7.974,10L8.121,9.542L8.512,8.523L8.96,7.523L9.463,6.546L10.01,5.615L10.6,4.729L11.23,3.905L11.88,3.148L12.57,2.471L13.27,1.879L13.99,1.387L14,1.379zM14,11L14,18L7.629,18L7.508,17.51L7.324,16.5L7.212,15.52L7.173,14.56L7.214,13.6L7.333,12.61L7.527,11.6L7.68,11zM14,19L14,27.72L13.81,27.62L13.1,27.14L12.4,26.56L11.72,25.89L11.08,25.14L10.47,24.33L9.894,23.45L9.362,22.52L8.881,21.56L8.449,20.56L8.073,19.55L7.905,19zz" fill="#228BCB"/>
    </g>
    <g id="overlay">
      <circle cx="25" cy="25" r="6.5" fill="#FFFFFF" stroke="#EE3D3B" stroke-width="1" stroke-miterlimit="10"/>
      <polyline points="27.6,27.167 21.967,27.167 21.967,27.058 25.332,21.1 25.433,21.1 25.433,29.333" fill="#FFFFFF" stroke="#EE3D3B" stroke-width="1" stroke-miterlimit="10" stroke-linejoin="miter"/>
    </g>
  </g>
</svg>
