<?xml version="1.0" encoding="UTF-8"?>
<!DOCTYPE svg PUBLIC "-//W3C//DTD SVG 1.1//EN" "http://www.w3.org/Graphics/SVG/1.1/DTD/svg11.dtd">
<svg version="1.1" id="Layer_1" xmlns="http://www.w3.org/2000/svg" xmlns:xlink="http://www.w3.org/1999/xlink" x="0px" y="0px" width="32px" height="32px" viewBox="0 0 32 32" enable-background="new 0 0 32 32" xml:space="preserve">
  <g id="icon">
    <path d="M17.5,1.5C11.083,1.5,5.752,6.168,4.692,12.306c0.948,-0.389,1.985,-0.606,3.071,-0.606c4.461,0,8.091,3.62,8.091,8.07c0,1.656,-0.5,3.248,-1.445,4.604c-0.364,0.521,-0.997,1.376,-1.7,2.312c1.483,0.59,3.099,0.915,4.791,0.915c7.18,0,13,-5.843,13,-13.05S24.68,1.5,17.5,1.5z" fill="#FFFFFF"/>
    <path d="M17.5,1C10.731,1,5.111,6.026,4.147,12.554c0.351,-0.176,0.717,-0.327,1.095,-0.451c0.412,-2.084,1.336,-3.984,2.64,-5.56c0.941,0.478,2.085,0.981,3.387,1.403c-0.615,1.339,-1.067,2.72,-1.333,4.051c0.326,0.091,0.644,0.199,0.952,0.328c0.26,-1.371,0.729,-2.772,1.349,-4.09c1.443,0.396,3.048,0.675,4.765,0.717V14h-3.587c0.317,0.309,0.609,0.643,0.872,1H17v5.141c-0.385,0.01,-0.771,0.034,-1.158,0.069c-0.019,0.343,-0.058,0.683,-0.119,1.018c0.428,-0.045,0.854,-0.075,1.278,-0.087v5.703c-0.919,-0.513,-1.831,-1.324,-2.67,-2.358c-0.165,0.233,-0.372,0.519,-0.609,0.842c0.51,0.606,1.046,1.136,1.598,1.58c-0.793,-0.141,-1.561,-0.358,-2.295,-0.642c-0.201,0.268,-0.41,0.546,-0.623,0.828c1.574,0.647,3.296,1.005,5.1,1.005c7.444,0,13.5,-6.079,13.5,-13.55S24.944,1,17.5,1zM11.911,6.671c-0.067,0.122,-0.133,0.245,-0.198,0.369c-1.193,-0.378,-2.251,-0.828,-3.139,-1.266c1.84,-1.886,4.267,-3.193,6.98,-3.621C14.219,3.222,12.946,4.789,11.911,6.671zM17,7.952c-1.542,-0.04,-2.991,-0.282,-4.306,-0.629c1.155,-2.146,2.69,-3.983,4.306,-4.973V7.952zM27.116,6.541c1.691,2.043,2.749,4.631,2.871,7.459h-4.801c-0.099,-1.982,-0.671,-4.094,-1.553,-6.042C25.071,7.502,26.265,6.97,27.116,6.541zM26.422,5.769c-0.822,0.401,-1.924,0.875,-3.229,1.28c-1.025,-1.983,-2.362,-3.733,-3.823,-4.908C22.112,2.555,24.565,3.868,26.422,5.769zM18,2.385c1.579,0.994,3.076,2.818,4.203,4.946c-1.271,0.329,-2.692,0.571,-4.203,0.619V2.385zM18,8.95c1.684,-0.051,3.261,-0.331,4.656,-0.706c0.858,1.859,1.426,3.882,1.529,5.756H18V8.95zM18,15h6.194c-0.066,1.851,-0.594,3.937,-1.489,5.912c-1.594,-0.461,-3.166,-0.718,-4.705,-0.768V15zM18,21.145c1.392,0.047,2.815,0.275,4.261,0.68c-0.032,0.061,-0.064,0.121,-0.096,0.181c-1.16,2.168,-2.65,3.861,-4.165,4.757V21.145zM19.504,26.938c1.311,-1.043,2.532,-2.57,3.543,-4.46c0.063,-0.118,0.125,-0.236,0.185,-0.355c1.027,0.342,2.064,0.772,3.109,1.29C24.525,25.239,22.153,26.508,19.504,26.938zM23.666,21.214c0.922,-2.072,1.464,-4.262,1.529,-6.214h4.796c-0.103,2.908,-1.195,5.567,-2.949,7.647C25.909,22.071,24.783,21.592,23.666,21.214z" fill="#F20000"/>
    <path d="M14.055,19.77c0,1.328,-0.414,2.56,-1.122,3.574C11.797,24.973,7.764,30.2,7.764,30.2s-4.007,-5.212,-5.145,-6.822c-0.722,-1.02,-1.146,-2.265,-1.146,-3.608c0,-3.463,2.817,-6.27,6.291,-6.27S14.055,16.307,14.055,19.77z" fill="#FF8181" stroke="#B90000" stroke-width="1" stroke-miterlimit="10"/>
    <circle cx="7.659" cy="19.763" r="2.609" fill="#FFFFFF" stroke="#B90000" stroke-width="1" stroke-miterlimit="10"/>
  </g>
</svg>
