<?xml version="1.0" encoding="UTF-8"?>
<!DOCTYPE svg PUBLIC "-//W3C//DTD SVG 1.1//EN" "http://www.w3.org/Graphics/SVG/1.1/DTD/svg11.dtd">
<svg version="1.1" id="Layer_1" xmlns="http://www.w3.org/2000/svg" xmlns:xlink="http://www.w3.org/1999/xlink" x="0px" y="0px" width="32px" height="32px" viewBox="0 0 32 32" enable-background="new 0 0 32 32" xml:space="preserve">
  <g id="main">
    <g id="icon">
      <path d="M2.5,29.5L16.5,29.5L16.5,17.5L20.5,17.5L20.5,14.5L27.5,14.5L27.5,0.5L2.5,0.5zz" fill="#FFFFFF"/>
      <path d="M2,0.5L2,29.5L2,30L2.5,30L16.5,30L16.5,29L3,29L3,1L27,1L27,14.5L28,14.5L28,0.5L28,0L27.5,0L2.5,0L2,0zz" fill="#383838"/>
      <path d="M12,8.5L6,8.5zM15,10.5L6,10.5zM13,12.5L6,12.5zM15,14.5L6,14.5zz" fill="#FFFFFF"/>
      <path d="M6,9L12,9L12,8L6,8zM6,11L15,11L15,10L6,10zM6,13L13,13L13,12L6,12zM6,15L15,15L15,14L6,14zz" fill="#383838"/>
      <path d="M18,9L24,9L24,8L18,8zM19,11L24,11L24,10L19,10zM18,13L24,13L24,12L18,12zM19,15L20.5,15L20.5,14.5L24,14.5L24,14L19,14zz" fill="#787979"/>
      <path d="M5,20.5L5,26.5L5,27L5.5,27L16.5,27L16.5,26L6,26L6,21L16.5,21L16.5,20L5.5,20L5,20zz" fill="#787979"/>
      <path d="M5.5,5.5L24.5,5.5L24.5,3.5L5.5,3.5zz" fill="#F3B8B8"/>
      <path d="M5,3.5L5,5.5L5,6L5.5,6L24.5,6L25,6L25,5.5L25,3.5L25,3L24.5,3L5.5,3L5,3zM24,4L24,5L6,5L6,4zz" fill="#E42D2C"/>
      <path d="M17,17.5L20.5,17.5L20.5,17L17,17zz" fill="#EE3D3B"/>
    </g>
    <g id="overlay">
      <polygon points="31.5,20.557 27.533,16.5 22.5,16.5 22.5,19.5 18.5,19.5 18.5,31.5 27.5,31.5 27.5,28.5 31.5,28.5" fill="#FFFFFF" stroke-linejoin="miter"/>
      <path d="M27.744,16H22v3h-4v13h10v-3h4v-8.647L27.744,16zM28,17.693L30.256,20H28V17.693zM27,31h-8V20h3v9h5V31zM23,28V17h4v4h4v7H23z" fill="#383838"/>
    </g>
  </g>
</svg>
