<?xml version="1.0" encoding="UTF-8"?>
<!DOCTYPE svg PUBLIC "-//W3C//DTD SVG 1.1//EN" "http://www.w3.org/Graphics/SVG/1.1/DTD/svg11.dtd">
<svg version="1.1" id="Layer_1" xmlns="http://www.w3.org/2000/svg" xmlns:xlink="http://www.w3.org/1999/xlink" x="0px" y="0px" width="32px" height="32px" viewBox="0 0 32 32" enable-background="new 0 0 32 32" xml:space="preserve">
  <g id="main">
    <g id="icon">
      <path d="M2.5,29.5L14.06,29.5L13.66,29.16L12.82,28.35L11.99,27.47L11.16,26.5L10.11,25.23L11.16,23.95L11.78,23.22L12.63,22.27L13.72,21.21L15.03,20.13L15.76,19.61L16.53,19.12L17.36,18.68L18.24,18.28L19.16,17.96L20.12,17.71L21.12,17.56L22.17,17.5L22.98,17.54L23.76,17.66L24.53,17.86L25.28,18.12L26,18.43L26.7,18.79L27.5,19.3L27.5,0.5L2.5,0.5z" fill="#FFFFFF"/>
      <path d="M2,0.5L2,29.5L2,30L2.5,30L14.65,30L14.5,29.88L13.66,29.16L13.5,29L3,29L3,1L27,1L27,18.98L28,19.62L28,0.5L28,0L27.5,0L2.5,0L2,0z" fill="#383838"/>
      <path d="M6,9L12,9L12,8L6,8M6,11L15,11L15,10L6,10M6,13L13,13L13,12L6,12M6,15L15,15L15,14L6,14z" fill="#383838"/>
      <path d="M18,9L24,9L24,8L18,8M19,11L24,11L24,10L19,10M18,13L24,13L24,12L18,12M19,15L24,15L24,14L19,14z" fill="#787979"/>
      <path d="M5,20.5L5,26.5L5,27L5.5,27L11.59,27L11.16,26.5L10.75,26L6,26L6,21L13.98,21L15.03,20.13L15.21,20L5.5,20L5,20z" fill="#787979"/>
      <path d="M5.5,5.5L24.5,5.5L24.5,3.5L5.5,3.5z" fill="#F3B8B8"/>
      <path d="M5,3.5L5,5.5L5,6L5.5,6L24.5,6L25,6L25,5.5L25,3.5L25,3L24.5,3L5.5,3L5,3M24,4L24,5L6,5L6,4z" fill="#E42D2C"/>
      <path d="M17,18L19.04,18L19.16,17.96L20.12,17.71L21.12,17.56L22.17,17.5L22.98,17.54L23.76,17.66L24.53,17.86L24.94,18L25,18L25,17L17,17z" fill="#EE3D3B"/>
    </g>
    <g id="overlay">
      <path d="M31.415,25.829C30.36,27.132,26.526,30.9,22.169,30.9s-7.692,-3.524,-9.469,-5.675c1.776,-2.151,5.111,-5.725,9.469,-5.725S30.36,24.526,31.415,25.829z" fill="#FFFFFF" stroke="#383838" stroke-width="1" stroke-miterlimit="1"/>
      <ellipse cx="22.01" cy="25.202" rx="3.8" ry="3.798" fill="#92CBEE" stroke="#0964B0" stroke-width="1" stroke-linecap="round" stroke-miterlimit="1"/>
      <ellipse cx="22.01" cy="25.2" rx="1.606" ry="1.658" fill="#383838" opacity="0.8"/>
      <ellipse cx="23.214" cy="23.956" rx="0.803" ry="0.829" fill="#FFFFFF"/>
    </g>
  </g>
</svg>
