<?xml version="1.0" encoding="UTF-8"?>
<!DOCTYPE svg PUBLIC "-//W3C//DTD SVG 1.1//EN" "http://www.w3.org/Graphics/SVG/1.1/DTD/svg11.dtd">
<svg version="1.1" id="Layer_1" xmlns="http://www.w3.org/2000/svg" xmlns:xlink="http://www.w3.org/1999/xlink" x="0px" y="0px" width="32px" height="32px" viewBox="0 0 32 32" enable-background="new 0 0 32 32" xml:space="preserve">
  <g id="main">
    <g id="icon">
      <path d="M2.5,29.5L17.04,29.5L16.61,28.82L16.14,27.82L15.79,26.76L15.57,25.65L15.5,24.5L15.55,23.58L15.68,22.69L15.91,21.83L16.21,21L16.59,20.21L17.04,19.47L17.56,18.78L18.14,18.14L18.78,17.56L19.47,17.04L20.21,16.59L21,16.21L21.83,15.91L22.69,15.68L23.58,15.55L24.5,15.5L25.65,15.57L26.76,15.79L27.5,16.03L27.5,0.5L2.5,0.5zz" fill="#FFFFFF"/>
      <path d="M2,0.5L2,29.5L2,30L2.5,30L17.4,30L17.19,29.74L16.72,29L3,29L3,1L27,1L27,15.87L27.82,16.14L28,16.22L28,0.5L28,0L27.5,0L2.5,0L2,0zz" fill="#383838"/>
      <path d="M12,8.5L6,8.5zM15,10.5L6,10.5zM13,12.5L6,12.5zM15,14.5L6,14.5zz" fill="#FFFFFF"/>
      <path d="M6,9L12,9L12,8L6,8zM6,11L15,11L15,10L6,10zM6,13L13,13L13,12L6,12zM6,15L15,15L15,14L6,14zz" fill="#383838"/>
      <path d="M18,9L24,9L24,8L18,8zM19,11L24,11L24,10L19,10zM18,13L24,13L24,12L18,12zM19,15L24,15L24,14L19,14zz" fill="#787979"/>
      <path d="M5,20.5L5,26.5L5,27L5.5,27L15.87,27L15.79,26.76L15.64,26L6,26L6,21L16.21,21L16.59,20.21L16.72,20L5.5,20L5,20zz" fill="#787979"/>
      <path d="M5.5,5.5L24.5,5.5L24.5,3.5L5.5,3.5zz" fill="#F3B8B8"/>
      <path d="M5,3.5L5,5.5L5,6L5.5,6L24.5,6L25,6L25,5.5L25,3.5L25,3L24.5,3L5.5,3L5,3zM24,4L24,5L6,5L6,4zz" fill="#E42D2C"/>
      <path d="M17,18L18.29,18L18.78,17.56L19.47,17.04L19.54,17L17,17zz" fill="#EE3D3B"/>
    </g>
    <g id="overlay">
      <path d="M31.5,24.5c0,-3.866,-3.134,-7,-7,-7c-3.866,0,-7,3.134,-7,7s3.134,7,7,7C28.366,31.5,31.5,28.366,31.5,24.5zM19.863,24.5l3.944,-3.995l0.712,0.703L21.762,24H29v1h-7.238l2.757,2.792l-0.712,0.703L19.863,24.5z" fill="#E4A49B"/>
      <path d="M31.5,24.5c0,-3.866,-3.134,-7,-7,-7c-3.866,0,-7,3.134,-7,7s3.134,7,7,7C28.366,31.5,31.5,28.366,31.5,24.5zM19.863,24.5l3.944,-3.995l0.712,0.703L21.762,24H29v1h-7.238l2.757,2.792l-0.712,0.703L19.863,24.5z" fill="#913427" opacity="0.2"/>
      <path d="M17,24.5c0,-4.135,3.365,-7.5,7.5,-7.5s7.5,3.365,7.5,7.5s-3.365,7.5,-7.5,7.5S17,28.635,17,24.5zM31,24.5c0,-3.584,-2.916,-6.5,-6.5,-6.5s-6.5,2.916,-6.5,6.5s2.916,6.5,6.5,6.5S31,28.084,31,24.5z" fill="#913427"/>
      <polygon points="19.863,24.5 23.808,20.505 24.519,21.208 21.762,24 29,24 29,25 21.762,25 24.519,27.792 23.808,28.495" fill="#FFFFFF" stroke-linejoin="miter"/>
    </g>
  </g>
</svg>
