<?xml version="1.0" encoding="UTF-8"?>
<!DOCTYPE svg PUBLIC "-//W3C//DTD SVG 1.1//EN" "http://www.w3.org/Graphics/SVG/1.1/DTD/svg11.dtd">
<svg version="1.1" id="Layer_1" xmlns="http://www.w3.org/2000/svg" xmlns:xlink="http://www.w3.org/1999/xlink" x="0px" y="0px" width="32px" height="32px" viewBox="0 0 32 32" enable-background="new 0 0 32 32" xml:space="preserve">
  <g id="main">
    <g id="icon">
      <path d="M2.5,29.5L12.64,29.5L12.61,29.35L12.53,28.83L12.5,28.29L12.55,27.59L12.68,26.92L12.9,26.27L13.2,25.67L13.57,25.11L14.02,24.6L14.52,24.15L15.08,23.77L15.49,22.76L16.03,21.84L16.71,21.03L17.5,20.33L18.39,19.77L19.35,19.35L20.39,19.09L21.47,19L22.23,19.04L22.96,19.17L23.68,19.38L24.36,19.67L25.01,20.03L25.61,20.46L26.17,20.96L26.67,21.52L27.5,21.46L27.5,0.5L2.5,0.5zz" fill="#FFFFFF"/>
      <path d="M2,0.5L2,29.5L2,30L2.5,30L12.79,30L12.74,29.85L12.61,29.35L12.55,29L3,29L3,1L27,1L27,21.5L27.59,21.45L28,21.47L28,0.5L28,0L27.5,0L2.5,0L2,0zz" fill="#383838"/>
      <path d="M12,8.5L6,8.5zM15,10.5L6,10.5zM13,12.5L6,12.5zM15,14.5L6,14.5zz" fill="#FFFFFF"/>
      <path d="M6,9L12,9L12,8L6,8zM6,11L15,11L15,10L6,10zM6,13L13,13L13,12L6,12zM6,15L15,15L15,14L6,14zz" fill="#383838"/>
      <path d="M18,9L24,9L24,8L18,8zM19,11L24,11L24,10L19,10zM18,13L24,13L24,12L18,12zM19,15L24,15L24,14L19,14zz" fill="#787979"/>
      <path d="M5,20.5L5,26.5L5,27L5.5,27L12.67,27L12.68,26.92L12.9,26.27L13.04,26L6,26L6,21L16.74,21L17.5,20.33L18.02,20L5.5,20L5,20zM25,20.03L25,20L24.95,20zz" fill="#787979"/>
      <path d="M5.5,5.5L24.5,5.5L24.5,3.5L5.5,3.5zz" fill="#F3B8B8"/>
      <path d="M5,3.5L5,5.5L5,6L5.5,6L24.5,6L25,6L25,5.5L25,3.5L25,3L24.5,3L5.5,3L5,3zM24,4L24,5L6,5L6,4zz" fill="#E42D2C"/>
      <path d="M25,17.5L17,17.5zz" fill="#FFFFFF"/>
      <path d="M17,18L25,18L25,17L17,17zz" fill="#EE3D3B"/>
    </g>
    <g id="overlay">
      <path d="M25.782,23.907c0.541,-0.291,1.156,-0.457,1.808,-0.457c2.159,0,3.91,1.802,3.91,4.025c0,2.223,-1.751,4.025,-3.91,4.025h-9.973c-1.721,0,-3.117,-1.436,-3.117,-3.208c0,-1.485,0.98,-2.733,2.31,-3.099c0.308,-2.367,2.276,-4.192,4.66,-4.192C23.399,21,25.056,22.196,25.782,23.907c0.251,0.593,0.392,1.247,0.392,1.935" fill="#92CBEE"/>
      <path d="M27.59,32h-9.973c-1.994,0,-3.617,-1.664,-3.617,-3.708c0,-1.562,0.957,-2.948,2.365,-3.479c0.472,-2.48,2.614,-4.312,5.105,-4.312c1.902,0,3.637,1.063,4.549,2.747c0.5,-0.195,1.035,-0.297,1.571,-0.297c2.432,0,4.41,2.03,4.41,4.525S30.022,32,27.59,32zM21.47,21.5c-2.095,0,-3.885,1.615,-4.164,3.757l-0.043,0.329l-0.32,0.088c-1.144,0.315,-1.943,1.391,-1.943,2.617c0,1.493,1.174,2.708,2.617,2.708h9.973c1.88,0,3.41,-1.581,3.41,-3.525s-1.53,-3.525,-3.41,-3.525c-0.408,0,-0.803,0.073,-1.178,0.217c0.174,0.539,0.262,1.1,0.262,1.675h-1c0,-0.604,-0.118,-1.189,-0.352,-1.74C24.651,22.521,23.139,21.5,21.47,21.5z" fill="#0964B0"/>
    </g>
  </g>
</svg>
