<?xml version="1.0" encoding="UTF-8"?>
<svg width="818.28906" height="999.99994" version="1.1" viewBox="0 0 818.28905 999.99994" xml:space="preserve" xmlns="http://www.w3.org/2000/svg" xmlns:cc="http://creativecommons.org/ns#" xmlns:dc="http://purl.org/dc/elements/1.1/" xmlns:rdf="http://www.w3.org/1999/02/22-rdf-syntax-ns#" xmlns:xlink="http://www.w3.org/1999/xlink"><metadata><rdf:RDF><cc:Work rdf:about=""><dc:format>image/svg+xml</dc:format><dc:type rdf:resource="http://purl.org/dc/dcmitype/StillImage"/><dc:title/></cc:Work></rdf:RDF></metadata><g transform="matrix(1.3333333,0,0,-1.3333333,-147.40496,768.23663)"><path d="m111.62745 576.17749c-1.5074-64.65331 2.3237-141.47164 9.9448-213.72506 10.5522-151.37423 62.371-294.372912 158.9531-405.464415 38.7543-47.882851 87.4337-92.771855 136.8868-130.060505 49.45305 37.28865 98.1324 82.177654 136.8867 130.060505 96.58215 111.091503 148.40093 254.090185 158.95313 405.464415 7.62105 72.25342 11.45227 149.07174 9.94485 213.72506z" fill="#e30613"/><path d="m417.41143 556.3488c-15.622-3.9e-4 -28.2862-12.66413-28.2862-28.28612 0-4.35831 1.0072-8.65764 2.9429-12.56251-3.8191 1.83284-8.0012 2.78464-12.2373 2.78467-15.622 7e-5 -28.2861-12.66418-28.2861-28.28614s12.6641-28.28655 28.2861-28.28613c5.2803 1.5e-4 10.455 1.47929 14.9385 4.26856l-4.0108-17.12256v-137.3877h-130.2378l-17.121-4.01073c2.789 4.48401 4.26703 9.65925 4.267 14.93993-7e-5 15.62197-12.6641 28.28613-28.2861 28.28613s-28.2859-12.66416-28.2861-28.28613c-1e-4 -4.23608 0.9509-8.41808 2.7832-12.23731-3.9044 1.93545-8.2032 2.94282-12.5611 2.94287-15.6225 1.6e-4 -28.2865-12.66504-28.2861-28.28762 4e-4 -15.62197 12.6641-28.2861 28.2861-28.2861 4.3583 0 8.6577 1.00718 12.5625 2.94285-1.8328-3.81915-2.78458-8.00115-2.7846-12.2373-8e-5 -15.62198 12.6641-28.2861 28.2861-28.2861s28.2866 12.66412 28.2861 28.2861c-1e-4 5.2803-1.4792 10.455-4.2685 14.9385l17.1225-4.01077h130.2378v-283.96726l4.0108-17.12258c-4.4835 2.78925-9.6582 4.2684-14.9385 4.26855-15.622 4.5e-4 -28.2861-12.6642-28.2861-28.2861 0-15.62197 12.6641-28.28625 28.2861-28.28617 4.2361 0 8.4182 0.95182 12.2373 2.78467-1.9357-3.90487-2.9429-8.20417-2.9429-12.5625 0-15.62198 12.6642-28.28573 28.2862-28.2861 15.6225-4.5e-4 28.2877 12.66352 28.2876 28.2861-1e-4 4.3578-1.0075 8.65665-2.9429 12.56108 3.8192-1.8324 8.0012-2.78333 12.2373-2.78325 15.622 3e-4 28.2861 12.66412 28.2861 28.28617 0 15.62198-12.6641 28.28603-28.2861 28.2861-5.2807 8e-5 -10.4559-1.4781-14.9399-4.26705l4.0107 17.12108v283.96726h130.2393l17.1211 4.01077c-2.7891-4.48402-4.26713-9.65925-4.2671-14.93993 7e-5 -15.62197 12.6641-28.28617 28.2861-28.28617s28.2859 12.6642 28.2861 28.28617c1e-4 4.23608-0.9508 8.41808-2.7832 12.23731 3.9044-1.93545 8.20325-2.94288 12.56106-2.94293 15.62255-1.8e-4 28.28653 12.66503 28.28614 28.2876-3.9e-4 15.62198-12.66415 28.28609-28.28614 28.28616-4.35829-7e-5 -8.65766-1.00715-12.56246-2.94291 1.8328 3.81923 2.7846 8.0012 2.7846 12.23735 1e-4 15.62197-12.6641 28.28613-28.2861 28.28613s-28.2866-12.66416-28.2861-28.28613c1e-4 -5.2803 1.4793-10.45499 4.2685-14.93847l-17.1225 4.01073h-130.2393v137.3877l-4.0107 17.12109c4.484-2.78902 9.6592-4.26712 14.9399-4.26709 15.622 8e-5 28.2861 12.66414 28.2861 28.28613s-12.6641 28.28589-28.2861 28.28614c-4.2361 6e-5 -8.4181-0.95086-12.2373-2.7832 1.9354 3.90441 2.94286 8.20322 2.9429 12.56103 1.6e-4 15.62254-12.6651 28.28652-28.2876 28.28613z" fill="#ffd500"/><g transform="translate(-.15074613)"><g id="g867"><path d="m537.08778 518.2219v9.17039c0 5.79953-4.14551 10.51035-9.25413 10.51035-5.12956 0-9.27507-4.71082-9.27507-10.51035v-8.18635l10.55222 4.68987c2.44963-2.59618 5.27612-4.39676 7.97698-5.67391" fill="#ffd500"/><path d="m529.05218 463.69159-10.48942 5.50642v-150.15987h18.52921v152.65137c-5.29705-3.4546-8.03979-7.99792-8.03979-7.99792" fill="#ffd500"/><path d="m518.56276-21.149759c0-5.799537 4.14552-10.510353 9.25414-10.510353 5.12955 0 9.27507 4.710816 9.27507 10.510353v271.803599h-18.52921z" fill="#ffd500"/><path d="m626.21223 549.0746s-45.6007-42.98358-77.2155-40.51301c0 0-5.71579 0.0419-11.91313 2.95211-2.70087 1.27715-5.52736 3.07773-7.97698 5.69485l-10.55223-4.71082-10.40567-4.62706v-25.01967l10.40567-5.46455 10.48941-5.50642s2.76368 4.54332 8.0398 7.99792c3.14054 2.05182 7.18137 3.74772 12.05969 3.87334 13.10653 0.33499 29.39549 0.77467 63.08305-41.09925 0 0 23.86814 49.09717 13.98589 106.42256" fill="#fff"/></g><use transform="matrix(-1,0,0,1,835.12575,0)" width="100%" height="100%" xlink:href="#g867"/></g></g></svg>
