<?xml version="1.0" encoding="UTF-8"?>
<!DOCTYPE svg PUBLIC "-//W3C//DTD SVG 1.1//EN" "http://www.w3.org/Graphics/SVG/1.1/DTD/svg11.dtd">
<svg version="1.1" id="Layer_1" xmlns="http://www.w3.org/2000/svg" xmlns:xlink="http://www.w3.org/1999/xlink" x="0px" y="0px" width="32px" height="32px" viewBox="0 0 32 32" enable-background="new 0 0 32 32" xml:space="preserve">
  <g id="main">
    <g id="icon">
      <path d="M0.5,25.5L17.45,25.5L17.4,25.36L17.16,24.44L16.79,22.48L16.6,20.82L16.5,19.03L16.52,17.17L18.38,17.06L19.23,16.96L20.07,16.78L20.88,16.53L21.64,16.24L22.94,15.62L23.86,15.06L25.01,14.26L26.16,15.06L27.07,15.62L28.37,16.24L29.13,16.53L29.93,16.78L30.5,16.9L30.5,4.5L0.5,4.5zz" fill="#FFFFFF"/>
      <path d="M0,4.5L0,25.5L0,26L0.5,26L17.61,26L17.4,25.36L17.31,25L1,25L1,5L30,5L30,16.79L30.77,16.96L31,16.98L31,4.5L31,4L30.5,4L0.5,4L0,4zz" fill="#383838"/>
      <path d="M23.5,12.5L27.5,12.5L27.5,7.5L23.5,7.5zz" fill="#FFFFFF"/>
      <path d="M23,7.5L23,12.5L23,13L23.5,13L27.5,13L28,13L28,12.5L28,7.5L28,7L27.5,7L23.5,7L23,7zM27,8L27,12L24,12L24,8zz" fill="#EE3D3B"/>
      <path d="M4,9L18,9L18,8L4,8zM4,11L15,11L15,10L4,10zM5,19L16.5,19L16.51,18L5,18zM5,21L15,21L15,20L5,20zz" fill="#787979"/>
      <path d="M5,17L18.86,17L19,16.98L19,16L5,16zz" fill="#383838"/>
    </g>
    <g id="overlay">
      <path d="M31.5,19.053c-2.594,-0.155,-5.212,-1.453,-6.492,-2.353c-1.28,0.9,-3.913,2.198,-6.507,2.353c-0.008,0.685,0.116,2.03,0.272,3.159c0.329,2.379,1.042,4.418,2.008,5.742c1.35,1.852,2.678,2.982,4.227,3.446c1.549,-0.464,2.863,-1.594,4.213,-3.446c0.966,-1.324,1.679,-3.364,2.008,-5.742C31.383,21.083,31.508,19.739,31.5,19.053zM24.251,27.18l-2.889,-2.889l0.849,-0.849l2.041,2.041l4.395,-4.395l0.849,0.849L24.251,27.18z" fill="#B2DBB4"/>
      <path d="M31.5,19.053c-2.594,-0.155,-5.212,-1.453,-6.492,-2.353c-1.28,0.9,-3.913,2.198,-6.507,2.353c-0.008,0.685,0.116,2.03,0.272,3.159c0.329,2.379,1.042,4.418,2.008,5.742c1.35,1.852,2.678,2.982,4.227,3.446c1.549,-0.464,2.863,-1.594,4.213,-3.446c0.966,-1.324,1.679,-3.364,2.008,-5.742C31.383,21.083,31.508,19.739,31.5,19.053zM24.251,27.18l-2.889,-2.889l0.849,-0.849l2.041,2.041l4.395,-4.395l0.849,0.849L24.251,27.18z" fill="#009949" opacity="0.2"/>
      <path d="M25.007,31.922l-0.143,-0.043c-1.607,-0.481,-3.033,-1.634,-4.488,-3.63c-1.013,-1.39,-1.759,-3.509,-2.099,-5.968c-0.14,-1.012,-0.286,-2.456,-0.277,-3.233l0.006,-0.465l0.465,-0.028c2.614,-0.156,5.158,-1.496,6.249,-2.263l0.288,-0.202l0.288,0.202c1.092,0.767,3.634,2.108,6.235,2.263l0.465,0.028l0.006,0.465c0.009,0.778,-0.137,2.221,-0.277,3.233c-0.34,2.459,-1.085,4.578,-2.099,5.968c-1.457,2,-2.879,3.153,-4.473,3.63L25.007,31.922zM19.01,19.511c0.031,0.683,0.128,1.697,0.258,2.632c0.318,2.298,0.998,4.257,1.916,5.516c1.274,1.748,2.493,2.774,3.823,3.216c1.334,-0.442,2.514,-1.441,3.808,-3.216c0.918,-1.259,1.599,-3.218,1.916,-5.516c0.129,-0.935,0.227,-1.949,0.258,-2.632c-2.443,-0.267,-4.764,-1.418,-5.983,-2.209C23.788,18.093,21.464,19.244,19.01,19.511z" fill="#009949"/>
      <polygon points="21.362,24.291 22.211,23.442 24.251,25.483 28.646,21.088 29.495,21.936 24.251,27.18" fill="#FFFFFF" stroke-linejoin="miter"/>
    </g>
  </g>
</svg>
