<?xml version="1.0" encoding="UTF-8"?>
<!DOCTYPE svg PUBLIC "-//W3C//DTD SVG 1.1//EN" "http://www.w3.org/Graphics/SVG/1.1/DTD/svg11.dtd">
<svg version="1.1" id="Layer_1" xmlns="http://www.w3.org/2000/svg" xmlns:xlink="http://www.w3.org/1999/xlink" x="0px" y="0px" width="32px" height="32px" viewBox="0 0 32 32" enable-background="new 0 0 32 32" xml:space="preserve">
  <g id="main">
    <g id="icon">
      <path d="M8.284,19.28L17.18,19.28L17.56,18.78L18.14,18.14L18.78,17.56L19.47,17.04L20.21,16.59L21,16.21L21.83,15.91L22.69,15.68L23.58,15.55L24.5,15.5L24.82,15.52L24.82,9.09L8.284,9.09zz" fill="#fefe00" fill-opacity="1"/>
      <path d="M8.168,8.996L8.134,9.09L8.134,19.28L8.19,19.4L8.284,19.43L17.07,19.43L17.29,19.13L8.434,19.13L8.434,9.24L24.67,9.24L24.67,15.51L24.97,15.53L24.97,9.09L24.91,8.974L24.82,8.94L8.284,8.94zz" fill="#07003c" fill-opacity="1"/>
      <path d="M24.67,6.558L8.434,6.558L8.434,0.1467L8.134,0.1467L8.134,6.708L8.134,6.858L8.284,6.858L24.82,6.858L24.97,6.858L24.97,6.708L24.97,0L24.67,0zz" fill="#000000" fill-opacity="1"/>
      <path d="M27.6,6.708L27.6,6.858L27.75,6.858L31.96,6.858L31.96,6.558L27.9,6.558L27.9,0.1467L27.6,0.1467zz" fill="#000000" fill-opacity="1"/>
      <path d="M27.6,9.09L27.6,16.06L27.82,16.14L27.9,16.17L27.9,9.24L31.93,9.24L31.93,8.94L27.75,8.94L27.6,8.94zM31.92,19.43L31.96,19.43L31.96,19.13L31.7,19.13zz" fill="#000000" fill-opacity="1"/>
      <path d="M5.348,6.558L-0,6.558L0,6.858L5.498,6.858L5.648,6.858L5.648,6.708L5.648,0.07324L5.348,0.07324zz" fill="#000000" fill-opacity="1"/>
      <path d="M0.03672,9.24L5.348,9.24L5.348,19.13L-0,19.13L0,19.43L5.498,19.43L5.648,19.43L5.648,19.28L5.648,9.09L5.648,8.94L5.498,8.94L0.03672,8.94zz" fill="#000000" fill-opacity="1"/>
      <path d="M8.134,21.85L8.134,32L8.434,32L8.434,22L15.86,22L15.91,21.83L15.95,21.7L8.284,21.7L8.134,21.7zz" fill="#000000" fill-opacity="1"/>
      <path d="M0,22L5.348,22L5.348,32L5.648,32L5.648,21.85L5.648,21.7L5.498,21.7L0,21.7zz" fill="#000000" fill-opacity="1"/>
    </g>
    <g id="overlay">
      <path d="M24.5,17.5c-3.866,0,-7,3.134,-7,7c0,3.866,3.134,7,7,7s7,-3.134,7,-7C31.5,20.634,28.366,17.5,24.5,17.5zM29,25.1h-9v-1.2h9V25.1z" fill="#F7BFBF"/>
      <path d="M24.5,17.5c-3.866,0,-7,3.134,-7,7c0,3.866,3.134,7,7,7s7,-3.134,7,-7C31.5,20.634,28.366,17.5,24.5,17.5zM29,25.1h-9v-1.2h9V25.1z" fill="#DB2E2A" opacity="0.3"/>
      <path d="M24.5,32c-4.135,0,-7.5,-3.365,-7.5,-7.5s3.365,-7.5,7.5,-7.5s7.5,3.365,7.5,7.5S28.635,32,24.5,32zM24.5,18c-3.584,0,-6.5,2.916,-6.5,6.5s2.916,6.5,6.5,6.5s6.5,-2.916,6.5,-6.5S28.084,18,24.5,18z" fill="#DB2E2A"/>
      <rect x="20" y="23.9" width="9" height="1.2" fill="#FFFFFF"/>
    </g>
  </g>
</svg>
