<?xml version="1.0" encoding="UTF-8"?>
<!DOCTYPE svg PUBLIC "-//W3C//DTD SVG 1.1//EN" "http://www.w3.org/Graphics/SVG/1.1/DTD/svg11.dtd">
<svg version="1.1" id="Layer_1" xmlns="http://www.w3.org/2000/svg" xmlns:xlink="http://www.w3.org/1999/xlink" x="0px" y="0px" width="32px" height="32px" viewBox="0 0 32 32" enable-background="new 0 0 32 32" xml:space="preserve">
  <g id="icon">
    <path d="M10,19c0,-3.622,1.76,-6.841,4.47,-8.846C13.395,9.732,12.225,9.5,11,9.5c-5.247,0,-9.4,4.253,-9.4,9.5s4.153,9.5,9.4,9.5c1.225,0,2.395,-0.232,3.47,-0.654C11.76,25.841,10,22.622,10,19z" fill="#FFFFFF"/>
    <path d="M11,29.05c-2.674,0,-5.179,-1.046,-7.053,-2.947C2.079,24.209,1.05,21.686,1.05,19s1.029,-5.209,2.897,-7.103C5.821,9.996,8.326,8.95,11,8.95c1.378,0,2.715,0.276,3.973,0.82l0.085,0.037l-0.077,0.051c-0.329,0.218,-0.647,0.452,-0.944,0.698l-0.022,0.018l-0.027,-0.01c-0.959,-0.341,-1.965,-0.514,-2.988,-0.514c-4.88,0,-8.85,4.015,-8.85,8.95s3.97,8.95,8.85,8.95c1.024,0,2.029,-0.173,2.988,-0.514l0.027,-0.009l0.022,0.018c0.298,0.246,0.615,0.48,0.944,0.698l0.077,0.051l-0.085,0.037C13.715,28.774,12.378,29.05,11,29.05z" fill="#383838"/>
    <circle cx="20.95" cy="18.95" r="9.45" fill="#92CBEE" stroke="#0964B0" stroke-width="1.1" stroke-miterlimit="10"/>
    <polygon points="20,5 7,5 7,3.8 20,3.8 20,1.375 25.722,4.347 20,7.199" fill="#3E79B4" stroke-linejoin="miter"/>
  </g>
</svg>
