<?xml version="1.0" encoding="UTF-8"?>
<!DOCTYPE svg PUBLIC "-//W3C//DTD SVG 1.1//EN" "http://www.w3.org/Graphics/SVG/1.1/DTD/svg11.dtd">
<svg version="1.1" id="Layer_1" xmlns="http://www.w3.org/2000/svg" xmlns:xlink="http://www.w3.org/1999/xlink" x="0px" y="0px" width="32px" height="32px" viewBox="0 0 32 32" enable-background="new 0 0 32 32" xml:space="preserve">
  <g id="icon">
    <path d="M6.653,27.05l0.009,-0.058C6.687,26.83,6.7,26.664,6.7,26.5s-0.013,-0.33,-0.038,-0.492l-0.009,-0.058h10.694l-0.009,0.058c-0.025,0.162,-0.038,0.328,-0.038,0.492s0.013,0.33,0.038,0.492l0.009,0.058H6.653zM23.683,26.827c0.011,-0.108,0.017,-0.218,0.017,-0.327c0,-0.223,-0.024,-0.448,-0.071,-0.668l-0.01,-0.049l0.049,-0.01c3.64,-0.78,6.282,-4.049,6.282,-7.773c0,-3.723,-2.642,-6.992,-6.282,-7.773l-0.049,-0.01l0.01,-0.049c0.047,-0.22,0.071,-0.445,0.071,-0.668c0,-0.109,-0.006,-0.219,-0.017,-0.327l-0.007,-0.067l0.066,0.013c4.234,0.829,7.307,4.564,7.307,8.881c0,4.317,-3.073,8.052,-7.307,8.881l-0.066,0.013L23.683,26.827z" fill="#383838"/>
    <path d="M3.5,28.75c-1.241,0,-2.25,-1.009,-2.25,-2.25s1.009,-2.25,2.25,-2.25s2.25,1.009,2.25,2.25S4.741,28.75,3.5,28.75zM20.5,28.75c-1.241,0,-2.25,-1.009,-2.25,-2.25s1.009,-2.25,2.25,-2.25s2.25,1.009,2.25,2.25S21.741,28.75,20.5,28.75zM20.5,11.75c-1.241,0,-2.25,-1.009,-2.25,-2.25s1.009,-2.25,2.25,-2.25s2.25,1.009,2.25,2.25S21.741,11.75,20.5,11.75z" fill="#EF3E3B"/>
    <path d="M5.087,17.932l8.259,-15.126c0.408,-0.747,3.077,0.713,2.668,1.459L7.748,19.388C7.537,19.774,4.729,21.8,4.729,21.8S4.875,18.319,5.087,17.932zM12.245,4.839l2.587,1.396M5.151,17.882l2.665,1.458" fill="#FFFFFF" stroke="#228BCB" stroke-width="1" stroke-miterlimit="10"/>
  </g>
</svg>
