<?xml version="1.0" encoding="UTF-8"?>
<!DOCTYPE svg PUBLIC "-//W3C//DTD SVG 1.1//EN" "http://www.w3.org/Graphics/SVG/1.1/DTD/svg11.dtd">
<svg version="1.1" id="Layer_1" xmlns="http://www.w3.org/2000/svg" xmlns:xlink="http://www.w3.org/1999/xlink" x="0px" y="0px" width="32px" height="32px" viewBox="0 0 32 32" enable-background="new 0 0 32 32" xml:space="preserve">
  <g id="main">
    <g id="icon">
      <path d="M6.404,21.22L5.434,21.48L4.491,21.89L3.632,22.41L2.902,23.01L2.313,23.67L1.878,24.36L1.608,25.07L1.517,25.77L1.542,26.12L1.616,26.45L1.74,26.77L1.917,27.08L2.143,27.36L2.411,27.61L3.061,28.02L3.836,28.29L4.705,28.44L5.639,28.45L6.606,28.32L7.576,28.06L8.519,27.65L9.378,27.13L10.11,26.53L10.7,25.87L11.13,25.18L11.4,24.47L11.49,23.77L11.47,23.43L11.39,23.09L11.27,22.77L11.09,22.47L10.87,22.18L10.6,21.93L9.948,21.52L9.173,21.25L8.304,21.1L7.371,21.09zz" fill="#ACD8B1"/>
      <path d="M7.306,20.6L6.339,20.72L6.305,20.73L6.272,20.74L5.302,21L5.268,21.01L5.236,21.02L4.293,21.43L4.261,21.44L4.231,21.46L3.372,21.99L3.342,22L3.314,22.03L2.585,22.63L2.555,22.65L2.53,22.68L1.941,23.34L1.913,23.37L1.89,23.4L1.455,24.1L1.428,24.14L1.411,24.19L1.141,24.89L1.12,24.95L1.113,25.01L1.021,25.71L1.014,25.76L1.018,25.81L1.043,26.15L1.046,26.19L1.054,26.22L1.128,26.56L1.136,26.59L1.149,26.63L1.274,26.95L1.288,26.99L1.307,27.02L1.484,27.33L1.503,27.36L1.526,27.39L1.752,27.67L1.775,27.7L1.801,27.72L2.07,27.98L2.105,28.01L2.146,28.03L2.796,28.44L2.842,28.47L2.893,28.49L3.668,28.76L3.71,28.78L3.754,28.79L4.623,28.93L4.661,28.94L4.7,28.94L5.633,28.95L5.669,28.95L5.704,28.94L6.671,28.82L6.704,28.81L6.738,28.8L7.708,28.54L7.742,28.53L7.774,28.52L8.717,28.11L8.749,28.1L8.779,28.08L9.638,27.55L9.668,27.54L9.696,27.51L10.43,26.91L10.45,26.89L10.48,26.86L11.07,26.2L11.1,26.17L11.12,26.14L11.56,25.44L11.58,25.4L11.6,25.36L11.87,24.65L11.89,24.59L11.9,24.53L11.99,23.83L12,23.78L11.99,23.73L11.97,23.39L11.96,23.35L11.96,23.32L11.88,22.98L11.87,22.95L11.86,22.91L11.74,22.59L11.72,22.55L11.7,22.52L11.53,22.22L11.51,22.18L11.48,22.15L11.26,21.87L11.23,21.84L11.21,21.82L10.94,21.57L10.9,21.53L10.86,21.51L10.21,21.1L10.17,21.07L10.12,21.05L9.341,20.78L9.299,20.76L9.255,20.75L8.386,20.61L8.348,20.6L8.31,20.6L7.376,20.59L7.341,20.59zM8.26,21.6L9.048,21.73L9.729,21.98L10.29,22.33L10.5,22.52L10.68,22.75L10.82,22.99L10.91,23.24L10.97,23.5L10.99,23.75L10.91,24.35L10.68,24.95L10.3,25.57L9.761,26.17L9.087,26.72L8.289,27.21L7.411,27.58L6.507,27.83L5.609,27.95L4.749,27.94L3.962,27.81L3.28,27.56L2.717,27.21L2.51,27.02L2.331,26.79L2.192,26.55L2.096,26.3L2.038,26.04L2.019,25.79L2.096,25.19L2.328,24.59L2.714,23.97L3.249,23.38L3.923,22.82L4.721,22.34L5.598,21.96L6.502,21.71L7.399,21.59zz" fill="#0BA04A"/>
      <path d="M11.3,4.384L11.3,9.412L28.5,6.125L28.5,1.096zz" fill="#ACD8B1"/>
      <path d="M28.41,0.9418L11.41,3.998L11,4.072L11,4.49L11,23.7L12,23.7L12,9.673L28,6.796L28,14.5L29,14.5L29,1.434L29,0.8361zM28,5.78L12,8.657L12,4.908L28,2.032zz" fill="#17AB4F"/>
    </g>
    <g id="overlay">
      <rect x="19.5" y="16.5" width="12" height="15" fill="#F7DA8E" stroke="#E57428" stroke-width="1" stroke-linecap="round" stroke-miterlimit="10"/>
    </g>
  </g>
</svg>
