<?xml version="1.0" encoding="UTF-8"?>
<!DOCTYPE svg PUBLIC "-//W3C//DTD SVG 1.1//EN" "http://www.w3.org/Graphics/SVG/1.1/DTD/svg11.dtd">
<svg version="1.1" id="Layer_1" xmlns="http://www.w3.org/2000/svg" xmlns:xlink="http://www.w3.org/1999/xlink" x="0px" y="0px" width="32px" height="32px" viewBox="0 0 32 32" enable-background="new 0 0 32 32" xml:space="preserve">
  <g id="main">
    <g id="icon">
      <path d="M11.94,1.197L11.37,1.283L10.82,1.424L10.29,1.615L9.787,1.855L9.313,2.141L8.871,2.469L8.463,2.837L8.092,3.242L7.761,3.681L7.473,4.151L7.231,4.65L7.038,5.173L6.896,5.72L6.809,6.286L6.779,6.869L6.809,7.452L6.896,8.018L7.038,8.565L7.231,9.088L7.473,9.587L7.761,10.06L8.092,10.5L8.463,10.9L8.871,11.27L9.313,11.6L9.787,11.88L10.29,12.12L10.82,12.31L11.37,12.45L11.94,12.54L12.53,12.57L13.11,12.54L13.68,12.45L14.23,12.31L14.76,12.12L15.27,11.88L15.74,11.6L16.18,11.27L16.59,10.9L16.96,10.5L17.29,10.06L17.58,9.587L17.82,9.088L18.01,8.565L18.16,8.018L18.24,7.452L18.27,6.869L18.24,6.286L18.16,5.72L18.01,5.173L17.82,4.65L17.58,4.151L17.29,3.681L16.96,3.242L16.59,2.837L16.18,2.469L15.74,2.141L15.27,1.855L14.76,1.615L14.23,1.424L13.68,1.283L13.11,1.197L12.53,1.167zz" fill="#f9e9b3" fill-opacity="1"/>
      <path d="M11.92,0.8471L11.89,0.8506L11.32,0.9371L11.28,0.9439L10.73,1.085L10.7,1.095L10.17,1.286L10.14,1.3L9.636,1.54L9.606,1.556L9.132,1.841L9.104,1.86L8.662,2.188L8.636,2.209L8.228,2.577L8.204,2.601L7.833,3.006L7.812,3.031L7.481,3.471L7.462,3.498L7.174,3.969L7.158,3.998L6.916,4.497L6.903,4.529L6.709,5.052L6.699,5.086L6.557,5.632L6.55,5.667L6.463,6.233L6.459,6.268L6.43,6.851L6.43,6.887L6.459,7.47L6.463,7.505L6.55,8.071L6.557,8.106L6.699,8.652L6.709,8.686L6.903,9.21L6.916,9.241L7.158,9.74L7.174,9.77L7.462,10.24L7.481,10.27L7.812,10.71L7.833,10.73L8.204,11.14L8.228,11.16L8.636,11.53L8.662,11.55L9.104,11.88L9.132,11.9L9.606,12.18L9.636,12.2L10.14,12.44L10.17,12.45L10.7,12.64L10.73,12.65L11.28,12.79L11.32,12.8L11.89,12.89L11.92,12.89L12.51,12.92L12.54,12.92L13.13,12.89L13.17,12.89L13.74,12.8L13.77,12.79L14.32,12.65L14.35,12.64L14.88,12.45L14.91,12.44L15.42,12.2L15.45,12.18L15.92,11.9L15.95,11.88L16.39,11.55L16.42,11.53L16.82,11.16L16.85,11.14L17.22,10.73L17.24,10.71L17.57,10.27L17.59,10.24L17.88,9.77L17.89,9.74L18.14,9.241L18.15,9.21L18.34,8.686L18.35,8.652L18.49,8.106L18.5,8.071L18.59,7.505L18.59,7.47L18.62,6.887L18.62,6.851L18.59,6.268L18.59,6.233L18.5,5.667L18.49,5.632L18.35,5.086L18.34,5.052L18.15,4.529L18.14,4.497L17.89,3.998L17.88,3.969L17.59,3.498L17.57,3.471L17.24,3.031L17.22,3.006L16.85,2.601L16.82,2.577L16.42,2.209L16.39,2.188L15.95,1.86L15.92,1.841L15.45,1.556L15.42,1.54L14.91,1.3L14.88,1.286L14.35,1.095L14.32,1.085L13.77,0.9439L13.74,0.9371L13.17,0.8506L13.13,0.8471L12.54,0.8178L12.51,0.8178zM13.08,1.546L13.61,1.626L14.13,1.758L14.63,1.939L15.1,2.164L15.54,2.432L15.96,2.74L16.34,3.086L16.69,3.466L17,3.879L17.27,4.319L17.5,4.788L17.68,5.279L17.81,5.791L17.89,6.322L17.92,6.869L17.89,7.416L17.81,7.947L17.68,8.459L17.5,8.95L17.27,9.419L17,9.859L16.69,10.27L16.34,10.65L15.96,11L15.54,11.31L15.1,11.57L14.63,11.8L14.13,11.98L13.61,12.11L13.08,12.19L12.53,12.22L11.97,12.19L11.44,12.11L10.92,11.98L10.42,11.8L9.953,11.57L9.508,11.31L9.093,11L8.708,10.65L8.361,10.27L8.05,9.859L7.78,9.419L7.553,8.95L7.372,8.459L7.239,7.948L7.157,7.415L7.13,6.869L7.157,6.323L7.239,5.79L7.372,5.279L7.553,4.788L7.78,4.319L8.05,3.879L8.362,3.465L8.708,3.087L9.093,2.74L9.508,2.432L9.953,2.164L10.42,1.939L10.92,1.758L11.44,1.626L11.97,1.545L12.53,1.518zz" fill="none"/>
      <path d="M3.973,7.428L4.107,8.498L4.295,9.659L4.582,11.08L4.981,12.64L5.505,14.23L5.819,14.99L6.168,15.72L6.556,16.39L6.984,16.99L7.453,17.51L7.957,17.96L8.487,18.34L9.035,18.67L10.14,19.26L11.21,19.84L11.71,20.18L12.17,20.56L12.59,21L12.95,21.53L13.24,22.15L13.46,22.88L13.6,23.74L13.65,24.74L13.62,25.25L13.54,25.71L13.41,26.13L13.23,26.5L13.01,26.84L12.75,27.13L12.14,27.61L11.4,27.98L10.59,28.24L9.714,28.43L8.812,28.57L7.037,28.78L6.219,28.9L5.487,29.05L4.867,29.26L4.388,29.56L4.211,29.74L4.079,29.95L3.997,30.2L3.968,30.48L15.97,30.44L17.76,30.44L17.19,29.74L16.61,28.82L16.14,27.82L15.79,26.76L15.57,25.65L15.5,24.5L15.55,23.58L15.68,22.69L15.91,21.83L16.21,21L16.59,20.21L17.04,19.47L17.56,18.78L18.14,18.14L18.78,17.56L19.47,17.04L20.21,16.59L21,16.21L21.83,15.91L22.69,15.68L23.58,15.55L24.5,15.5L25.65,15.57L26,15.64L26.31,15.07L26.64,14.31L27.16,12.72L27.53,11.13L27.78,9.675L27.92,8.477L28,7.365zz" fill="#fbe57f" fill-opacity="1"/>
      <path d="M3.973,7.328L3.893,7.368L3.874,7.44L4.008,8.511L4.009,8.514L4.197,9.675L4.197,9.679L4.484,11.1L4.485,11.1L4.884,12.67L4.886,12.67L5.41,14.26L5.413,14.26L5.726,15.03L5.729,15.03L6.078,15.76L6.082,15.77L6.47,16.44L6.475,16.45L6.902,17.05L6.91,17.06L7.379,17.58L7.387,17.59L7.891,18.03L7.899,18.04L8.429,18.42L8.435,18.42L8.983,18.75L8.988,18.76L10.1,19.34L10.1,19.34L11.16,19.93L11.65,20.26L12.1,20.63L12.51,21.07L12.86,21.58L13.15,22.19L13.36,22.9L13.5,23.75L13.55,24.74L13.52,25.24L13.44,25.69L13.31,26.09L13.14,26.45L12.93,26.77L12.69,27.06L12.08,27.53L11.37,27.88L10.56,28.15L9.696,28.34L8.8,28.48L7.025,28.69L7.022,28.69L6.205,28.8L6.199,28.8L5.466,28.95L5.454,28.96L4.835,29.17L4.815,29.18L4.336,29.47L4.316,29.49L4.139,29.67L4.126,29.69L3.994,29.9L3.985,29.92L3.903,30.17L3.898,30.19L3.869,30.47L3.9,30.55L3.969,30.58L15.97,30.54L15.97,30.54L15.97,30.54L17.84,30.54L17.68,30.34L15.97,30.34L15.97,30.34L4.079,30.38L4.096,30.22L4.171,30L4.29,29.8L4.452,29.64L4.91,29.36L5.514,29.15L6.236,29L7.048,28.88L8.824,28.67L8.827,28.67L9.729,28.53L9.735,28.53L10.61,28.34L10.62,28.34L11.43,28.07L11.45,28.07L12.18,27.7L12.2,27.69L12.82,27.21L12.83,27.19L13.09,26.9L13.1,26.89L13.31,26.56L13.32,26.55L13.5,26.17L13.5,26.16L13.63,25.74L13.64,25.73L13.72,25.27L13.72,25.26L13.75,24.74L13.75,24.73L13.7,23.73L13.7,23.72L13.56,22.86L13.56,22.85L13.34,22.12L13.33,22.11L13.04,21.49L13.03,21.47L12.67,20.95L12.66,20.94L12.25,20.49L12.24,20.48L11.78,20.1L11.77,20.09L11.27,19.76L11.26,19.76L10.19,19.17L10.19,19.17L9.087,18.58L9.085,18.58L8.543,18.25L8.018,17.88L7.524,17.44L7.062,16.93L6.641,16.33L6.256,15.67L6.255,15.67L5.911,14.95L5.911,14.95L5.599,14.19L5.077,12.61L4.68,11.06L4.394,9.643L4.394,9.643L4.206,8.482L4.086,7.528L27.89,7.465L27.82,8.465L27.82,8.467L27.68,9.663L27.43,11.11L27.43,11.11L27.07,12.69L26.54,14.28L26.22,15.02L25.9,15.62L26.1,15.66L26.4,15.11L26.4,15.11L26.73,14.35L26.73,14.34L27.26,12.75L27.26,12.74L27.63,11.15L27.63,11.15L27.88,9.691L27.88,9.686L28.02,8.488L28.02,8.484L28.1,7.372L28.07,7.29L28,7.265zz" fill="#f3c61a" fill-opacity="1"/>
    </g>
    <g id="overlay">
      <path d="M24.5,17.5c-3.866,0,-7,3.134,-7,7c0,3.866,3.134,7,7,7s7,-3.134,7,-7C31.5,20.634,28.366,17.5,24.5,17.5zM29,25.1h-9v-1.2h9V25.1z" fill="#F7BFBF"/>
      <path d="M24.5,17.5c-3.866,0,-7,3.134,-7,7c0,3.866,3.134,7,7,7s7,-3.134,7,-7C31.5,20.634,28.366,17.5,24.5,17.5zM29,25.1h-9v-1.2h9V25.1z" fill="#DB2E2A" opacity="0.3"/>
      <path d="M24.5,32c-4.135,0,-7.5,-3.365,-7.5,-7.5s3.365,-7.5,7.5,-7.5s7.5,3.365,7.5,7.5S28.635,32,24.5,32zM24.5,18c-3.584,0,-6.5,2.916,-6.5,6.5s2.916,6.5,6.5,6.5s6.5,-2.916,6.5,-6.5S28.084,18,24.5,18z" fill="#DB2E2A"/>
      <rect x="20" y="23.9" width="9" height="1.2" fill="#FFFFFF"/>
    </g>
  </g>
</svg>
