<?xml version="1.0" encoding="UTF-8"?>
<!DOCTYPE svg PUBLIC "-//W3C//DTD SVG 1.1//EN" "http://www.w3.org/Graphics/SVG/1.1/DTD/svg11.dtd">
<svg version="1.1" id="Layer_1" xmlns="http://www.w3.org/2000/svg" xmlns:xlink="http://www.w3.org/1999/xlink" x="0px" y="0px" width="32px" height="32px" viewBox="0 0 32 32" enable-background="new 0 0 32 32" xml:space="preserve">
  <g id="icon">
    <path d="M28.6,16.5h-1.9h-0.2l0,-13.456c0,-0.301,-0.244,-0.544,-0.544,-0.544H3.048C2.745,2.5,2.5,2.745,2.5,3.048v23.23C2.5,28.057,3.5,29.5,5.533,29.5H24.8h0.8h2.1h0.801c0.084,0.004,0.164,0.004,0.242,0H29h0.4v-0.159c0.743,-0.343,1.1,-1.2,1.1,-2.214c0,-3.984,0,-10.627,0,-10.627H28.6z" fill="#FFFFFF"/>
    <rect x="5.5" y="8.5" width="8" height="9" fill="#92CBEE" stroke="#0964B0" stroke-width="1" stroke-linecap="round" stroke-miterlimit="10"/>
    <path d="M24,27H5v-1h19V27zM24,24H5v-1h19V24zM24,21H5v-1h19V21zM24,18h-8v-1h8V18zM24,15h-8v-1h8V15zM24,12h-8v-1h8V12zM24,9h-8V8h8V9zM24,6H5V5h19V6z" fill="#787979"/>
    <path d="M27,16V3.044c0,-0.015,-0.002,-0.029,-0.002,-0.044H27V2h-1.044H3.048H2v1h0.002C2.002,3.016,2,3.032,2,3.048v23.23C2,28.539,3.387,30,5.533,30h22.955c0.045,0.002,0.089,0.003,0.133,0.003s0.088,-0.001,0.131,-0.003H29v-0.024c0.453,-0.067,0.852,-0.256,1.171,-0.56c0.534,-0.507,0.829,-1.32,0.829,-2.29V16H27zM5.533,29C3.183,29,3,26.916,3,26.278V4v-0.952V3h0.048h22.908H26v0.044V4v22.942c0,0.831,0.205,1.536,0.573,2.058H5.533zM30,27.127c0,0.692,-0.184,1.248,-0.517,1.564c-0.196,0.187,-0.45,0.29,-0.757,0.309h-0.212l-0.064,-0.003c-1.309,-0.068,-1.45,-1.46,-1.45,-2.055V17h3V27.127z" fill="#383838"/>
  </g>
</svg>
