<?xml version="1.0" encoding="UTF-8"?>
<!DOCTYPE svg PUBLIC "-//W3C//DTD SVG 1.1//EN" "http://www.w3.org/Graphics/SVG/1.1/DTD/svg11.dtd">
<svg version="1.1" id="Layer_1" xmlns="http://www.w3.org/2000/svg" xmlns:xlink="http://www.w3.org/1999/xlink" x="0px" y="0px" width="32px" height="32px" viewBox="0 0 32 32" enable-background="new 0 0 32 32" xml:space="preserve">
  <g id="main">
    <g id="icon">
      <path d="M14.97,17.59L13.8,17.65L13.78,17.65L13.75,17.65L12.62,17.81L12.59,17.82L12.57,17.82L11.46,18.09L11.44,18.09L11.41,18.1L10.35,18.46L10.07,18.68L9.978,19.02L10.12,19.35L10.44,19.52L10.7,19.5L11.74,19.15L12.8,18.9L13.88,18.75L15,18.69L16.11,18.74L17.19,18.9L18.23,19.14L19.26,19.49L19.62,19.48L19.9,19.26L19.98,18.91L19.83,18.58L19.61,18.44L18.56,18.09L18.53,18.08L18.51,18.08L17.41,17.82L17.39,17.81L17.36,17.81L16.24,17.65L16.21,17.65L16.18,17.65L15.03,17.59L15,17.59zz" fill="#AF6E41"/>
      <path d="M13.83,18.2L12.69,18.36L11.59,18.62L10.53,18.98L11.23,19.96L11.92,21.18L12.59,22.55L13.21,23.99L14.26,26.78L14.97,28.91L15.26,27.98L15.55,27.23L15.45,26.39L15.44,25.36L15.54,24.42L15.75,23.55L16.07,22.77L16.5,22.07L16.79,21.73L17.13,21.38L17.55,21.05L18.05,20.74L18.56,20.51L18.89,19.89L19.44,18.96L18.38,18.61L17.29,18.36L16.16,18.2L15,18.14zz" fill="#FCD8BB"/>
      <path d="M19.45,7.028L18.77,7.145L17.33,7.588L15.78,8.138L14.97,8.388L14.15,8.588L13.3,8.713L12.44,8.736L11.57,8.632L10.69,8.375L9.791,7.939L8.89,7.3L8.89,8.847L8.954,10.33L9.086,11.75L9.292,13.08L9.578,14.34L9.95,15.5L10.41,16.55L10.97,17.5L12.02,18.44L12.55,18.82L13.07,19.12L13.59,19.36L14.11,19.53L14.62,19.63L15.14,19.67L15.65,19.64L16.16,19.54L16.67,19.38L17.18,19.16L17.68,18.86L18.19,18.51L19.19,17.6L19.75,16.61L20.22,15.53L20.61,14.38L20.91,13.14L21.13,11.82L21.26,10.43L21.31,8.954L21.27,7.4L20.7,7.13L20.09,7.014zz" fill="#FCD8BB"/>
      <path d="M10.45,17.33L10.2,17.59L10.17,17.95L10.29,18.18L10.87,18.85L10.9,18.88L10.93,18.9L11.34,19.25L11.37,19.27L11.41,19.29L12.02,19.67L12.03,19.68L12.05,19.69L12.62,19.98L12.64,19.99L12.66,20L13.29,20.26L13.32,20.27L13.35,20.28L14.05,20.47L14.09,20.49L14.14,20.49L14.88,20.56L14.94,20.57L14.99,20.56L15.74,20.49L15.78,20.49L15.83,20.47L16.53,20.28L16.56,20.27L16.59,20.26L17.24,20L17.26,19.99L17.28,19.98L17.84,19.69L17.87,19.68L17.89,19.67L18.49,19.29L18.53,19.27L18.56,19.25L18.97,18.9L19,18.88L19.03,18.85L19.61,18.18L19.75,17.85L19.65,17.5L19.36,17.29L19,17.3L18.79,17.45L18.23,18.09L17.88,18.38L17.33,18.72L16.8,18.99L16.21,19.23L15.58,19.4L14.94,19.46L14.29,19.4L13.68,19.23L13.1,18.99L12.57,18.72L12.02,18.38L11.67,18.09L11.11,17.45L10.8,17.28zz" fill="#AF6E41"/>
      <path d="M9.578,19.39L8.758,19.82L7.976,20.31L7.233,20.84L6.535,21.43L5.881,22.06L5.277,22.73L4.724,23.44L4.226,24.18L3.785,24.95L3.404,25.75L3.086,26.57L2.834,27.4L2.65,28.26L2.538,29.12L2.5,30L16.17,30L15.82,28.72L15.58,27.51L15.53,27.09L15.19,28.14L15,28.87L14.42,27.02L13.29,24.13L12.61,22.59L11.88,21.14L11.14,19.91L10.78,19.41L10.43,19.01zM19.22,19.41L18.86,19.91L18.48,20.55L18.63,20.48L19.3,20.27L20.06,20.14L20.93,20.09L21.8,20.17L21.24,19.82L20.42,19.39L19.57,19.01zz" fill="#DFBCD9"/>
      <path d="M10.21,18.51L9.357,18.88L9.321,18.9L8.501,19.33L8.467,19.35L7.685,19.84L7.653,19.86L6.911,20.4L6.88,20.42L6.181,21.01L6.153,21.03L5.5,21.66L5.473,21.69L4.869,22.36L4.844,22.39L4.291,23.1L4.268,23.13L3.77,23.87L3.749,23.9L3.308,24.68L3.289,24.71L2.908,25.51L2.892,25.55L2.574,26.37L2.56,26.41L2.307,27.25L2.296,27.29L2.113,28.14L2.105,28.19L1.993,29.05L1.989,29.1L1.951,29.98L3.049,30.02L3.086,29.17L3.193,28.35L3.367,27.54L3.607,26.74L3.909,25.97L4.273,25.2L4.693,24.47L5.171,23.76L5.698,23.09L6.275,22.44L6.903,21.84L7.573,21.28L8.282,20.76L9.032,20.3L9.815,19.88L10.28,19.68L10.35,19.76L10.68,20.21L11.4,21.41L12.11,22.82L12.79,24.34L13.9,27.21L14.48,29.03L14.69,29.32L15.04,29.41L15.37,29.28L15.53,29L15.71,28.29L15.73,28.25L15.58,27.51L15.45,26.39L15.44,25.75L15.04,26.83L15.03,26.85L14.99,26.99L14.95,26.86L14.93,26.82L13.81,23.93L13.8,23.91L13.11,22.36L13.1,22.34L12.37,20.89L12.35,20.86L11.61,19.63L11.59,19.59L11.23,19.09L11.2,19.05L10.85,18.65L10.53,18.47zM19.15,18.65L18.81,19.05L18.78,19.09L18.42,19.59L18.39,19.63L17.65,20.86L17.64,20.89L17.56,21.04L18.05,20.74L18.63,20.48L19.28,20.28L19.32,20.21L19.65,19.75L19.72,19.68L20.18,19.88L20.61,20.11L20.93,20.09L21.88,20.18L22.82,20.42L23.42,20.67L23.12,20.42L23.09,20.4L22.35,19.86L22.32,19.84L21.53,19.35L21.5,19.33L20.68,18.9L20.64,18.88L19.79,18.51L19.43,18.48zz" fill="#A0519F"/>
      <path d="M14.71,0.6199L13.97,0.727L13.27,0.9398L12.6,1.252L11.98,1.658L11.63,1.858L11.25,1.941L10.38,1.978L9.607,2.134L8.914,2.397L8.302,2.758L7.767,3.203L7.306,3.723L6.916,4.305L6.592,4.938L6.251,5.82L6.003,6.721L5.845,7.637L5.779,8.563L5.808,10.71L5.916,12.87L5.929,13.97L5.828,15.06L5.568,16.12L5.365,16.64L5.106,17.14L4.837,17.57L4.553,17.92L4.226,18.23L3.831,18.52L3.621,18.75L3.55,19.02L3.617,19.3L3.824,19.53L4.646,19.96L5.721,20.32L7.054,20.63L8.645,20.87L9.248,20.87L9.626,20.83L9.977,20.73L10.29,20.56L10.57,20.35L10.79,20.09L10.96,19.79L11.06,19.46L11.09,19.11L11.04,18.53L10.95,18.22L10.32,17.25L9.803,16.15L9.382,14.94L9.053,13.66L8.808,12.36L8.642,11.08L8.548,9.846L8.518,8.707L8.549,8.14L8.592,8.011L8.659,7.969L8.878,8.094L9.232,8.417L9.749,8.84L10.46,9.264L10.89,9.445L11.38,9.59L11.94,9.686L12.56,9.721L13,9.684L13.53,9.581L14.8,9.236L16.22,8.799L17.68,8.385L19.03,8.106L19.63,8.052L20.16,8.075L20.59,8.189L20.93,8.407L21.14,8.744L21.21,9.214L21.17,10.67L21.06,12.05L20.87,13.35L20.61,14.54L20.28,15.64L19.88,16.62L19.42,17.48L18.89,18.22L18.8,18.54L18.76,19.14L18.79,19.48L18.9,19.81L19.07,20.1L19.23,20.29L19.3,20.27L20.06,20.14L20.93,20.09L21.88,20.18L22.82,20.42L23.16,20.57L23.74,20.41L24.7,20.02L25.62,19.5L25.83,19.28L25.89,19L25.82,18.72L25.6,18.49L25.19,18.18L24.84,17.83L24.54,17.45L24.31,17.04L23.96,16.16L23.74,15.22L23.59,14.2L23.49,13.16L23.4,11.08L23.36,9.596L23.23,8.122L22.99,6.662L22.8,5.938L22.57,5.218L22.3,4.583L21.98,4L21.61,3.467L21.2,2.984L20.76,2.549L20.28,2.161L19.77,1.82L19.24,1.522L18.13,1.058L16.98,0.7594L15.82,0.6164zz" fill="#999999"/>
      <path d="M14.71,0.06992L14.63,0.07559L13.89,0.1826L13.81,0.2006L13.11,0.4135L13.03,0.4424L12.37,0.7549L12.3,0.7916L11.7,1.188L11.43,1.338L11.18,1.393L10.36,1.428L10.28,1.438L9.499,1.594L9.411,1.62L8.718,1.883L8.635,1.923L8.022,2.284L7.949,2.335L7.415,2.781L7.355,2.838L6.895,3.358L6.849,3.416L6.459,3.998L6.426,4.054L6.102,4.688L6.079,4.74L5.738,5.621L5.721,5.673L5.472,6.575L5.46,6.628L5.303,7.544L5.297,7.597L5.23,8.524L5.229,8.571L5.258,10.72L5.259,10.74L5.366,12.88L5.379,13.95L5.284,14.97L5.043,15.95L4.863,16.41L4.627,16.87L4.389,17.25L4.147,17.55L3.873,17.81L3.506,18.08L3.429,18.15L3.219,18.37L3.089,18.61L3.017,18.88L3.015,19.15L3.082,19.43L3.211,19.67L3.418,19.9L3.569,20.01L4.391,20.44L4.468,20.48L5.544,20.84L5.599,20.86L6.931,21.16L6.971,21.17L8.563,21.41L8.645,21.42L9.248,21.42L9.3,21.41L9.678,21.38L9.781,21.36L10.13,21.25L10.23,21.22L10.54,21.05L10.63,21L10.91,20.78L10.98,20.71L11.21,20.45L11.27,20.36L11.44,20.06L11.48,19.95L11.58,19.63L11.61,19.51L11.63,19.16L11.63,19.07L11.59,18.49L11.57,18.38L11.48,18.06L11.41,17.92L10.8,16.99L10.31,15.94L9.909,14.78L9.589,13.54L9.352,12.28L9.19,11.02L9.098,9.821L9.076,9L9.401,9.265L9.466,9.312L10.17,9.736L10.24,9.771L10.68,9.953L10.74,9.973L11.23,10.12L11.29,10.13L11.84,10.23L11.91,10.24L12.53,10.27L12.6,10.27L13.05,10.23L13.11,10.22L13.64,10.12L13.68,10.11L14.94,9.766L14.96,9.762L16.37,9.328L16.38,9.328L17.81,8.92L19.11,8.651L19.64,8.603L20.08,8.622L20.37,8.698L20.52,8.801L20.61,8.941L20.66,9.249L20.62,10.64L20.51,11.99L20.33,13.25L20.07,14.4L19.76,15.46L19.38,16.39L18.95,17.19L18.44,17.9L18.36,18.07L18.27,18.39L18.25,18.51L18.21,19.1L18.21,19.19L18.25,19.54L18.27,19.65L18.37,19.98L18.42,20.08L18.59,20.37L18.65,20.46L18.66,20.47L19.3,20.27L19.96,20.16L19.86,20.1L19.67,19.96L19.52,19.78L19.4,19.58L19.34,19.37L19.31,19.13L19.34,18.63L19.39,18.46L19.86,17.8L19.9,17.74L20.36,16.88L20.39,16.83L20.79,15.84L20.8,15.8L21.13,14.7L21.14,14.66L21.41,13.46L21.41,13.43L21.6,12.13L21.61,12.1L21.72,10.72L21.72,10.69L21.76,9.229L21.76,9.129L21.68,8.658L21.6,8.452L21.39,8.115L21.23,7.947L20.9,7.729L20.73,7.656L20.29,7.543L20.18,7.526L19.65,7.503L19.58,7.504L18.98,7.558L18.92,7.567L17.57,7.846L17.53,7.856L16.07,8.271L16.06,8.273L14.64,8.709L13.41,9.045L12.93,9.138L12.55,9.17L12,9.139L11.51,9.054L11.07,8.926L10.71,8.771L10.07,8.388L9.594,8.002L9.249,7.688L9.151,7.616L8.933,7.491L8.58,7.424L8.365,7.504L8.298,7.547L8.074,7.828L8.071,7.835L8.028,7.964L8,8.11L7.969,8.677L7.968,8.721L7.998,9.861L8,9.888L8.094,11.12L8.097,11.15L8.263,12.43L8.268,12.46L8.512,13.76L8.52,13.8L8.849,15.07L8.862,15.12L9.284,16.33L9.305,16.38L9.825,17.49L9.862,17.55L10.44,18.45L10.5,18.63L10.53,19.11L10.51,19.36L10.45,19.57L10.34,19.77L10.18,19.95L9.995,20.1L9.771,20.21L9.522,20.29L9.222,20.32L8.686,20.32L7.155,20.08L5.871,19.79L4.863,19.45L4.165,19.08L4.118,19.03L4.117,19.03L4.118,19.02L4.198,18.94L4.551,18.68L4.604,18.63L4.931,18.32L4.982,18.27L5.266,17.91L5.302,17.86L5.571,17.44L5.596,17.39L5.855,16.89L5.877,16.84L6.08,16.32L6.103,16.25L6.363,15.19L6.376,15.11L6.477,14.02L6.479,13.97L6.466,12.86L6.465,12.84L6.358,10.7L6.329,8.579L6.392,7.702L6.54,6.841L6.774,5.992L7.095,5.163L7.391,4.584L7.742,4.06L8.151,3.599L8.619,3.209L9.153,2.895L9.76,2.664L10.45,2.525L11.27,2.49L11.37,2.479L11.75,2.396L11.91,2.336L12.25,2.136L12.28,2.119L12.87,1.734L13.47,1.454L14.09,1.265L14.75,1.17L15.79,1.167L16.87,1.301L17.95,1.581L19,2.018L19.48,2.288L19.95,2.603L20.39,2.96L20.8,3.359L21.17,3.802L21.51,4.288L21.8,4.822L22.05,5.411L22.27,6.094L22.45,6.778L22.69,8.19L22.81,9.625L22.85,11.1L22.85,11.11L22.94,13.18L22.94,13.21L23.04,14.25L23.05,14.28L23.2,15.3L23.21,15.34L23.43,16.28L23.45,16.36L23.79,17.24L23.83,17.32L24.07,17.73L24.11,17.79L24.4,18.17L24.45,18.22L24.8,18.57L24.86,18.62L25.24,18.91L25.32,19L25.33,19.01L25.33,19.01L25.27,19.07L24.46,19.53L23.56,19.89L22.62,20.15L22.11,20.24L22.82,20.42L23.77,20.82L23.94,20.92L24.9,20.53L24.97,20.5L25.89,19.98L26.02,19.88L26.23,19.65L26.36,19.4L26.43,19.12L26.42,18.85L26.35,18.57L26.22,18.34L26,18.11L25.93,18.05L25.55,17.77L25.25,17.47L25,17.15L24.8,16.8L24.49,16L24.28,15.12L24.14,14.13L24.04,13.12L23.95,11.07L23.95,11.06L23.95,11.06L23.91,9.579L23.9,9.551L23.78,8.076L23.78,8.03L23.53,6.57L23.52,6.525L23.33,5.801L23.32,5.767L23.09,5.047L23.07,5.004L22.8,4.369L22.78,4.319L22.46,3.735L22.43,3.688L22.06,3.155L22.03,3.112L21.62,2.629L21.59,2.59L21.14,2.155L21.1,2.122L20.62,1.734L20.58,1.705L20.08,1.363L20.04,1.34L19.51,1.043L19.45,1.015L18.34,0.5508L18.27,0.526L17.11,0.227L17.04,0.2135L15.89,0.07051L15.82,0.06641zz" fill="#383838"/>
    </g>
    <g id="overlay">
      <path d="M18.438,30.429l-0.305,-1.006c-1.179,-3.89,-1.009,-7.282,2.795,-7.282c2.419,0,5.429,2.996,8.533,6.293c0.868,0.922,1.8,1.883,1.94,2.05M24.908,30.5h6.481v-6.481" fill="none" stroke="#B3394B" stroke-width="1.1" stroke-miterlimit="10"/>
    </g>
  </g>
</svg>
