<?xml version="1.0" encoding="UTF-8"?>
<!DOCTYPE svg PUBLIC "-//W3C//DTD SVG 1.1//EN" "http://www.w3.org/Graphics/SVG/1.1/DTD/svg11.dtd">
<svg version="1.1" id="Layer_1" xmlns="http://www.w3.org/2000/svg" xmlns:xlink="http://www.w3.org/1999/xlink" x="0px" y="0px" width="32px" height="32px" viewBox="0 0 32 32" enable-background="new 0 0 32 32" xml:space="preserve">
  <g id="main">
    <g id="icon">
      <path d="M13.77,17.68L12.55,17.86L11.37,18.16L10.24,18.57L9.169,19.09L8.153,19.7L7.206,20.41L6.334,21.2L5.541,22.07L4.834,23.02L4.216,24.03L3.7,25.1L3.284,26.23L2.981,27.41L2.797,28.64L2.734,29.9L17.32,29.9L17.19,29.74L16.61,28.82L16.13,27.82L15.79,26.77L15.58,25.65L15.5,24.5L15.55,23.58L15.68,22.69L15.91,21.83L16.21,21L16.59,20.21L17.04,19.47L17.56,18.78L18.14,18.14L18.24,18.05L17.51,17.86L16.29,17.68L15.03,17.61z" fill="#FFFFFF"/>
      <path d="M13.74,17.13L13.72,17.13L13.69,17.13L12.47,17.32L12.44,17.32L12.42,17.33L11.24,17.63L11.21,17.63L11.18,17.64L10.05,18.06L10.03,18.07L10.01,18.08L8.931,18.59L8.906,18.6L8.884,18.62L7.869,19.23L7.847,19.24L7.825,19.26L6.878,19.97L6.856,19.98L6.838,20L5.966,20.79L5.947,20.81L5.928,20.83L5.134,21.7L5.116,21.72L5.1,21.74L4.394,22.68L4.378,22.71L4.363,22.73L3.747,23.74L3.734,23.77L3.722,23.79L3.203,24.87L3.191,24.89L3.181,24.91L2.769,26.04L2.759,26.07L2.753,26.1L2.45,27.28L2.444,27.3L2.441,27.33L2.253,28.56L2.25,28.58L2.247,28.61L2.184,29.87L3.281,29.93L3.344,28.69L3.522,27.53L3.813,26.4L4.206,25.32L4.7,24.29L5.291,23.32L5.966,22.42L6.722,21.59L7.556,20.83L8.463,20.16L9.431,19.57L10.46,19.08L11.53,18.69L12.66,18.4L13.83,18.22L15.03,18.16L16.23,18.22L17.4,18.4L17.81,18.5L18.14,18.14L18.73,17.6L17.64,17.33L17.62,17.32L17.59,17.32L16.37,17.13L16.34,17.13L16.31,17.13L15.06,17.06L15.03,17.06L15,17.06z" fill="#383838"/>
      <path d="M14.23,0.6375L13.49,0.75L12.77,0.9344L12.08,1.181L11.43,1.494L10.81,1.863L10.23,2.284L9.697,2.756L9.213,3.275L8.781,3.834L8.406,4.428L8.091,5.059L7.838,5.719L7.653,6.403L7.538,7.106L7.5,7.828L7.538,8.578L7.653,9.363L7.838,10.17L8.091,10.98L8.406,11.8L8.781,12.6L9.213,13.38L9.697,14.13L10.23,14.83L10.81,15.47L11.43,16.04L12.08,16.54L12.77,16.94L13.49,17.25L14.23,17.44L15,17.5L15.77,17.44L16.51,17.25L17.23,16.94L17.92,16.54L18.58,16.04L19.19,15.47L19.77,14.83L20.3,14.13L20.79,13.38L21.22,12.6L21.59,11.8L21.91,10.98L22.16,10.17L22.35,9.363L22.46,8.578L22.5,7.828L22.46,7.106L22.35,6.403L22.16,5.719L21.91,5.059L21.59,4.428L21.22,3.831L20.79,3.275L20.3,2.756L19.77,2.284L19.19,1.863L18.58,1.494L17.92,1.181L17.23,0.9344L16.51,0.75L15.77,0.6375L15,0.6z" fill="#FCD8BB"/>
      <path d="M14.21,0.09063L14.18,0.09063L14.15,0.09375L13.41,0.2063L13.38,0.2125L13.35,0.2188L12.63,0.4L12.61,0.4063L12.58,0.4156L11.89,0.6656L11.87,0.675L11.84,0.6844L11.19,0.9969L11.17,1.006L11.14,1.022L10.53,1.391L10.5,1.403L10.48,1.419L9.903,1.841L9.884,1.856L9.866,1.872L9.331,2.344L9.313,2.363L9.294,2.381L8.813,2.897L8.794,2.919L8.778,2.938L8.347,3.497L8.328,3.519L8.316,3.541L7.941,4.138L7.925,4.159L7.913,4.184L7.597,4.813L7.584,4.838L7.575,4.863L7.325,5.522L7.313,5.547L7.306,5.575L7.122,6.259L7.113,6.288L7.109,6.316L6.997,7.019L6.991,7.047L6.991,7.078L6.95,7.8L6.95,7.828L6.95,7.856L6.991,8.606L6.991,8.631L6.994,8.656L7.109,9.441L7.113,9.463L7.116,9.484L7.3,10.29L7.306,10.31L7.313,10.33L7.563,11.14L7.569,11.16L7.578,11.18L7.894,11.99L7.9,12.01L7.906,12.03L8.281,12.83L8.291,12.85L8.3,12.87L8.731,13.64L8.741,13.66L8.75,13.68L9.234,14.43L9.247,14.44L9.259,14.46L9.791,15.16L9.806,15.18L9.819,15.19L10.4,15.83L10.41,15.85L10.43,15.87L11.05,16.45L11.07,16.47L11.09,16.48L11.75,16.98L11.78,17L11.8,17.01L12.49,17.42L12.52,17.44L12.56,17.45L13.28,17.75L13.31,17.77L13.35,17.78L14.1,17.97L14.14,17.98L14.19,17.99L14.95,18.05L15,18.06L15.05,18.05L15.81,17.99L15.86,17.98L15.9,17.97L16.65,17.78L16.69,17.77L16.73,17.75L17.44,17.45L17.48,17.44L17.51,17.42L18.2,17.01L18.23,17L18.25,16.98L18.91,16.48L18.93,16.47L18.95,16.45L19.57,15.87L19.59,15.85L19.6,15.83L20.18,15.19L20.19,15.18L20.21,15.16L20.74,14.46L20.75,14.44L20.77,14.43L21.25,13.68L21.26,13.66L21.27,13.65L21.7,12.87L21.71,12.85L21.72,12.83L22.09,12.03L22.1,12.01L22.11,11.99L22.42,11.18L22.43,11.16L22.44,11.14L22.69,10.33L22.69,10.31L22.7,10.29L22.88,9.484L22.89,9.463L22.89,9.441L23.01,8.656L23.01,8.631L23.01,8.606L23.05,7.856L23.05,7.828L23.05,7.8L23.01,7.078L23.01,7.047L23,7.019L22.89,6.316L22.89,6.288L22.88,6.259L22.69,5.575L22.69,5.547L22.68,5.522L22.43,4.863L22.42,4.838L22.4,4.813L22.09,4.181L22.08,4.159L22.06,4.138L21.68,3.541L21.67,3.519L21.65,3.497L21.22,2.938L21.21,2.916L21.19,2.897L20.71,2.381L20.69,2.363L20.67,2.344L20.13,1.872L20.12,1.856L20.1,1.841L19.52,1.419L19.5,1.403L19.48,1.391L18.86,1.022L18.83,1.006L18.81,0.9969L18.16,0.6844L18.13,0.675L18.11,0.6656L17.42,0.4156L17.39,0.4063L17.37,0.4L16.65,0.2188L16.62,0.2125L16.59,0.2063L15.85,0.09375L15.82,0.09063L15.79,0.09063L15.03,0.05L15,0.05L14.97,0.05M15.71,1.188L16.4,1.291L17.07,1.459L17.71,1.691L18.32,1.978L18.89,2.322L19.43,2.713L19.92,3.15L20.37,3.631L20.77,4.147L21.12,4.7L21.41,5.281L21.64,5.888L21.81,6.519L21.91,7.166L21.95,7.828L21.91,8.525L21.81,9.259L21.63,10.02L21.39,10.8L21.09,11.58L20.73,12.35L20.32,13.1L19.85,13.81L19.35,14.48L18.8,15.08L18.22,15.62L17.61,16.08L16.98,16.45L16.33,16.73L15.68,16.89L15,16.95L14.33,16.89L13.67,16.73L13.02,16.45L12.39,16.08L11.78,15.62L11.2,15.08L10.65,14.48L10.15,13.81L9.684,13.1L9.272,12.35L8.913,11.58L8.609,10.8L8.369,10.02L8.194,9.259L8.088,8.525L8.05,7.828L8.088,7.166L8.191,6.519L8.359,5.888L8.594,5.281L8.884,4.7L9.231,4.15L9.631,3.631L10.08,3.15L10.58,2.713L11.11,2.322L11.68,1.978L12.29,1.691L12.93,1.459L13.6,1.291L14.29,1.188L15,1.15z" fill="#AF6E41"/>
      <path d="M14.35,0.6313L13.68,0.7219L13.03,0.8688L12.4,1.069L11.79,1.319L11.21,1.616L10.67,1.959L10.15,2.347L9.678,2.772L9.241,3.231L8.844,3.725L8.491,4.25L8.188,4.803L7.931,5.381L7.728,5.978L7.581,6.597L8.288,5.988L8.941,5.516L9.544,5.166L10.11,4.928L10.63,4.784L11.11,4.725L11.57,4.734L11.99,4.797L12.78,5.044L13.52,5.35L14.23,5.616L14.58,5.697L14.95,5.725L15.32,5.697L15.68,5.616L16.41,5.359L17.18,5.059L18,4.822L18.45,4.759L18.92,4.75L19.42,4.809L19.96,4.95L20.53,5.184L21.14,5.528L21.8,5.991L22.51,6.588L22.36,5.969L22.16,5.372L21.9,4.797L21.59,4.244L21.24,3.722L20.85,3.228L20.41,2.766L19.93,2.344L19.42,1.959L18.88,1.616L18.3,1.316L17.69,1.066L17.06,0.8656L16.41,0.7219L15.73,0.6313L15.04,0.6z" fill="#999999"/>
      <path d="M14.33,0.08125L14.28,0.08438L13.61,0.175L13.56,0.1844L12.91,0.3313L12.86,0.3438L12.23,0.5438L12.18,0.5594L11.58,0.8094L11.54,0.8313L10.96,1.128L10.92,1.15L10.38,1.494L10.34,1.522L9.825,1.906L9.788,1.934L9.313,2.359L9.278,2.394L8.841,2.853L8.809,2.888L8.416,3.381L8.388,3.419L8.034,3.944L8.009,3.984L7.706,4.538L7.684,4.581L7.428,5.156L7.413,5.203L7.209,5.803L7.194,5.85L7.047,6.469L7.063,6.813L7.294,7.066L7.628,7.156L7.941,7.013L8.628,6.419L9.241,5.978L9.791,5.659L10.29,5.447L10.73,5.325L11.14,5.275L11.52,5.281L11.87,5.334L12.59,5.559L13.3,5.859L13.33,5.866L14.04,6.131L14.11,6.15L14.46,6.231L14.54,6.244L14.91,6.275L14.99,6.275L15.36,6.244L15.43,6.234L15.8,6.153L15.86,6.138L16.59,5.878L16.61,5.872L17.35,5.581L18.12,5.363L18.49,5.309L18.89,5.3L19.32,5.353L19.78,5.475L20.29,5.681L20.85,5.994L21.47,6.425L22.15,7.006L22.47,7.147L22.8,7.053L23.03,6.8L23.04,6.456L22.89,5.841L22.88,5.794L22.68,5.194L22.66,5.15L22.4,4.572L22.38,4.528L22.08,3.978L22.05,3.938L21.7,3.413L21.67,3.375L21.28,2.884L21.24,2.847L20.81,2.388L20.78,2.356L20.3,1.931L20.26,1.903L19.75,1.519L19.71,1.494L19.17,1.15L19.13,1.128L18.55,0.8281L18.51,0.8094L17.9,0.5594L17.86,0.5438L17.23,0.3438L17.18,0.3313L16.53,0.1844L16.48,0.175L15.81,0.08438L15.76,0.08125L15.07,0.05L15.02,0.05M15.69,1.178L16.31,1.263L16.92,1.397L17.5,1.584L18.07,1.816L18.6,2.094L19.11,2.413L19.58,2.769L20.03,3.163L20.43,3.591L20.8,4.047L21.13,4.531L21.41,5.041L21.41,5.047L20.8,4.706L20.74,4.678L20.17,4.441L20.1,4.419L19.56,4.278L19.48,4.266L18.98,4.203L18.91,4.2L18.44,4.209L18.37,4.216L17.93,4.278L17.85,4.294L17.03,4.531L16.98,4.547L16.22,4.844L15.53,5.088L15.23,5.15L14.95,5.175L14.67,5.15L14.38,5.088L13.72,4.841L13,4.534L12.95,4.519L12.16,4.272L12.08,4.253L11.65,4.191L11.58,4.184L11.12,4.175L11.04,4.178L10.56,4.238L10.48,4.253L9.959,4.397L9.891,4.422L9.328,4.659L9.269,4.691L8.697,5.019L8.963,4.538L9.288,4.053L9.656,3.594L10.06,3.166L10.5,2.772L10.98,2.413L11.49,2.094L12.02,1.819L12.58,1.584L13.17,1.4L13.78,1.263L14.4,1.178L15.04,1.15z" fill="#383838"/>
      <path d="M10,24.98L14.97,23.21L15.57,23.43L15.68,22.69L15.91,21.83L15.93,21.77L14.97,22.13L10,20.26z" fill="#238BCB"/>
    </g>
    <g id="overlay">
      <path d="M17.5,24.5c0,-3.866,3.134,-7,7,-7s7,3.134,7,7s-3.134,7,-7,7S17.5,28.366,17.5,24.5zM20.23,30.046M28.805,30.02" fill="#FFFFFF" stroke="#383838" stroke-width="1" stroke-miterlimit="1"/>
      <path d="M24.5,19v5.559l3.39,3.72" fill="none" stroke="#228BCB" stroke-width="1" stroke-miterlimit="1"/>
    </g>
  </g>
</svg>
