<?xml version="1.0" encoding="UTF-8"?>
<!DOCTYPE svg PUBLIC "-//W3C//DTD SVG 1.1//EN" "http://www.w3.org/Graphics/SVG/1.1/DTD/svg11.dtd">
<svg version="1.1" id="Layer_1" xmlns="http://www.w3.org/2000/svg" xmlns:xlink="http://www.w3.org/1999/xlink" x="0px" y="0px" width="32px" height="32px" viewBox="0 0 32 32" enable-background="new 0 0 32 32" xml:space="preserve">
  <g id="main">
    <g id="icon">
      <path d="M9.5,19.8L8.8,23L10.8,24L10.2,26.2L12.4,30L13.29,30L13.99,28.33L12.2,18.5zM16.89,24.01L20.69,20.2L20.6,19.8L17.9,18.5zz" fill="#FFFFFF"/>
      <path d="M6.078,21.14L5.261,22.21L4.569,23.35L3.995,24.56L3.533,25.83L3.176,27.15L2.917,28.52L2.75,29.95L12.5,30L10.2,26.2L10.7,23.9L8.7,23L9.367,20.83L7.027,20.13zM21.22,29.98L27.5,29.95L27.33,28.52L27.07,27.15L26.72,25.83L26.35,24.83zz" fill="#C8C6C4"/>
      <path d="M5.778,20.84L5.759,20.86L5.742,20.88L4.904,21.94L4.888,21.97L4.873,21.99L4.142,23.13L4.128,23.15L4.115,23.18L3.499,24.39L3.486,24.42L3.476,24.44L2.983,25.72L2.973,25.74L2.965,25.77L2.603,27.09L2.595,27.12L2.59,27.15L2.367,28.52L2.362,28.55L2.36,28.58L2.284,29.97L3.382,30.03L3.457,28.66L3.671,27.36L4.019,26.09L4.492,24.87L5.083,23.7L5.786,22.6L6.588,21.59L7.505,20.63L6.713,19.87zM25.93,25.26L26.24,26.07L26.59,27.35L26.81,28.66L26.88,30.03L27.98,29.97L27.91,28.57L27.9,28.54L27.9,28.51L27.67,27.14L27.67,27.11L27.66,27.08L27.3,25.75L27.29,25.73L27.28,25.7L26.78,24.42L26.77,24.41zz" fill="#383838"/>
      <path d="M14.48,18.17L14.09,18.23L13.79,18.34L13.53,18.47L13,18.81L12.2,19.2L12.82,22.15L13.51,25.73L13.99,28.33L14.23,27.78L14.9,26.33L15.3,25.66L15.53,25.38L16.93,23.98L17.03,23.41L17.4,21.67L17.79,20.24L18,19.69L18.2,19.3L17.34,18.9L16.67,18.52L16.34,18.37L15.97,18.25L15.53,18.17L15,18.14zz" fill="#FCD8BB"/>
      <path d="M11.69,19.29L13.57,29.33L14.23,27.78L14.34,27.53L12.78,19.1zM16.38,24.52L17.74,23.16L18.44,19.29L17.36,19.1zM8.106,23.36L10.2,24.2L9.598,26.3L11.85,30L13.1,30L10.78,26.16L11.51,23.61L9.431,22.77L10.15,20.36L9.097,20.06zM19.99,20.36L20.11,20.78L20.74,20.15zz" fill="#78797A"/>
      <path d="M19.45,7.028L18.77,7.145L17.33,7.588L15.78,8.138L14.97,8.388L14.15,8.588L13.3,8.713L12.44,8.736L11.57,8.632L10.69,8.375L9.791,7.939L8.89,7.3L8.89,8.847L8.954,10.33L9.086,11.75L9.292,13.08L9.578,14.34L9.95,15.5L10.41,16.55L10.97,17.5L12.09,18.53L12.62,18.94L13.14,19.27L13.65,19.53L14.15,19.71L14.64,19.83L15.14,19.87L15.62,19.83L16.11,19.73L16.61,19.55L17.1,19.31L17.61,18.99L18.12,18.6L19.19,17.6L19.75,16.61L20.22,15.53L20.61,14.38L20.91,13.14L21.13,11.82L21.26,10.43L21.31,8.954L21.27,7.4L20.7,7.13L20.09,7.014zz" fill="#FCD8BB"/>
      <path d="M10.45,17.53L10.2,17.79L10.17,18.15L10.29,18.38L10.87,19.05L10.9,19.08L10.93,19.1L11.34,19.45L11.37,19.47L11.41,19.49L12.02,19.87L12.03,19.88L12.04,19.89L13.24,20.54L13.27,20.55L13.31,20.57L14,20.83L14.04,20.84L14.08,20.85L14.45,20.93L14.48,20.93L14.52,20.94L14.9,20.96L14.94,20.97L14.98,20.96L15.35,20.94L15.39,20.93L15.43,20.93L15.79,20.85L15.83,20.84L15.87,20.83L16.58,20.57L16.61,20.55L16.65,20.54L17.86,19.89L17.87,19.88L17.89,19.87L18.49,19.49L18.53,19.47L18.56,19.45L18.97,19.1L19,19.08L19.03,19.05L19.61,18.38L19.75,18.05L19.65,17.7L19.36,17.49L19,17.5L18.79,17.65L18.23,18.29L17.88,18.58L17.32,18.93L16.16,19.55L15.53,19.78L15.24,19.84L14.94,19.86L14.64,19.84L14.35,19.78L13.73,19.55L12.58,18.93L12.02,18.58L11.67,18.29L11.11,17.65L10.8,17.48zz" fill="#AF6E41"/>
      <path d="M14.71,0.6199L13.97,0.727L13.27,0.9398L12.6,1.252L11.98,1.658L11.63,1.858L11.25,1.941L10.38,1.978L9.607,2.134L8.914,2.397L8.302,2.758L7.767,3.203L7.306,3.723L6.916,4.305L6.592,4.938L6.251,5.82L6.003,6.721L5.845,7.637L5.779,8.563L5.808,10.71L5.916,12.87L5.929,13.97L5.828,15.06L5.568,16.12L5.365,16.64L5.106,17.14L4.837,17.57L4.553,17.92L4.226,18.23L3.831,18.52L3.621,18.75L3.55,19.02L3.617,19.3L3.824,19.53L4.646,19.96L5.721,20.32L7.054,20.63L8.645,20.87L9.248,20.87L9.626,20.83L9.977,20.73L10.29,20.56L10.57,20.35L10.79,20.09L10.96,19.79L11.06,19.46L11.09,19.11L11.04,18.53L10.95,18.22L10.32,17.25L9.803,16.15L9.382,14.94L9.053,13.66L8.808,12.36L8.642,11.08L8.548,9.846L8.518,8.707L8.549,8.14L8.592,8.011L8.659,7.969L8.878,8.094L9.232,8.417L9.749,8.84L10.46,9.264L10.89,9.445L11.38,9.59L11.94,9.686L12.56,9.721L13,9.684L13.53,9.581L14.8,9.236L16.22,8.799L17.68,8.385L19.03,8.106L19.63,8.052L20.16,8.075L20.59,8.189L20.93,8.407L21.14,8.744L21.21,9.214L21.17,10.67L21.06,12.05L20.87,13.35L20.61,14.54L20.28,15.64L19.88,16.62L19.42,17.48L18.89,18.22L18.8,18.54L18.76,19.14L18.79,19.48L18.9,19.81L19.07,20.1L19.29,20.36L19.56,20.57L19.88,20.73L20.09,20.79L24.17,16.7L23.96,16.16L23.74,15.22L23.59,14.2L23.49,13.16L23.4,11.08L23.36,9.596L23.23,8.122L22.99,6.662L22.8,5.938L22.57,5.218L22.3,4.583L21.98,4L21.61,3.467L21.2,2.984L20.76,2.549L20.28,2.161L19.77,1.82L19.24,1.522L18.13,1.058L16.98,0.7594L15.82,0.6164zz" fill="#F7DA8E"/>
      <path d="M15.82,0.06641L14.71,0.06992L14.67,0.07012L14.63,0.07559L13.89,0.1826L13.85,0.1885L13.81,0.2006L13.11,0.4135L13.07,0.4252L13.03,0.4424L12.37,0.7549L12.34,0.7709L12.3,0.7916L11.7,1.188L11.43,1.338L11.18,1.393L10.36,1.428L10.32,1.43L10.28,1.438L9.499,1.594L9.454,1.603L9.411,1.62L8.718,1.883L8.675,1.9L8.635,1.923L8.022,2.284L7.984,2.306L7.949,2.335L7.415,2.781L7.383,2.807L7.355,2.838L6.895,3.358L6.87,3.386L6.849,3.416L6.459,3.998L6.441,4.025L6.426,4.054L6.102,4.688L6.089,4.713L6.079,4.74L5.738,5.621L5.728,5.647L5.721,5.673L5.472,6.575L5.465,6.601L5.46,6.628L5.303,7.544L5.299,7.571L5.297,7.597L5.23,8.524L5.229,8.547L5.229,8.571L5.258,10.72L5.258,10.73L5.259,10.74L5.366,12.88L5.379,13.95L5.284,14.97L5.043,15.95L4.863,16.41L4.627,16.87L4.389,17.25L4.147,17.55L3.873,17.81L3.506,18.08L3.464,18.11L3.429,18.15L3.219,18.37L3.124,18.47L3.089,18.61L3.017,18.88L2.982,19.02L3.015,19.15L3.082,19.43L3.116,19.57L3.211,19.67L3.418,19.9L3.483,19.97L3.569,20.01L4.391,20.44L4.428,20.46L4.468,20.48L5.544,20.84L5.571,20.85L5.599,20.86L6.931,21.16L6.951,21.17L6.971,21.17L8.563,21.41L8.604,21.42L8.645,21.42L9.248,21.42L9.274,21.42L9.3,21.41L9.678,21.38L9.73,21.37L9.781,21.36L10.13,21.25L10.18,21.24L10.23,21.22L10.54,21.05L10.59,21.03L10.63,21L10.91,20.78L10.95,20.75L10.98,20.71L11.21,20.45L11.24,20.41L11.27,20.36L11.44,20.06L11.47,20.01L11.48,19.95L11.58,19.63L11.6,19.57L11.61,19.51L11.63,19.16L11.64,19.11L11.63,19.07L11.59,18.49L11.59,18.43L11.57,18.38L11.48,18.06L11.45,17.99L11.41,17.92L10.8,16.99L10.31,15.94L9.909,14.78L9.589,13.54L9.352,12.28L9.19,11.02L9.098,9.821L9.076,9L9.401,9.265L9.432,9.291L9.466,9.312L10.17,9.736L10.21,9.756L10.24,9.771L10.68,9.953L10.71,9.964L10.74,9.973L11.23,10.12L11.26,10.13L11.29,10.13L11.84,10.23L11.88,10.23L11.91,10.24L12.53,10.27L12.56,10.27L12.6,10.27L13.05,10.23L13.08,10.23L13.11,10.22L13.64,10.12L13.66,10.12L13.68,10.11L14.94,9.766L14.95,9.764L14.96,9.762L16.37,9.328L16.38,9.328L17.81,8.92L19.11,8.651L19.64,8.603L20.08,8.622L20.37,8.698L20.52,8.801L20.61,8.941L20.66,9.249L20.62,10.64L20.51,11.99L20.33,13.25L20.07,14.4L19.76,15.46L19.38,16.39L18.95,17.19L18.44,17.9L18.39,17.98L18.36,18.07L18.27,18.39L18.25,18.45L18.25,18.51L18.21,19.1L18.21,19.15L18.21,19.19L18.25,19.54L18.25,19.6L18.27,19.65L18.37,19.98L18.39,20.03L18.42,20.08L18.59,20.37L18.62,20.42L18.65,20.46L18.88,20.72L18.91,20.76L18.95,20.79L19.23,21L19.27,21.04L19.31,21.06L19.63,21.22L19.66,21.23L20.57,20.31L20.33,20.29L20.08,20.22L19.86,20.1L19.67,19.96L19.52,19.78L19.4,19.58L19.34,19.37L19.31,19.13L19.34,18.63L19.39,18.46L19.86,17.8L19.88,17.78L19.9,17.74L20.36,16.88L20.38,16.86L20.39,16.83L20.79,15.84L20.79,15.82L20.8,15.8L21.13,14.7L21.14,14.68L21.14,14.66L21.41,13.46L21.41,13.44L21.41,13.43L21.6,12.13L21.6,12.12L21.61,12.1L21.72,10.72L21.72,10.7L21.72,10.69L21.76,9.229L21.76,9.178L21.76,9.129L21.68,8.658L21.66,8.547L21.6,8.452L21.39,8.115L21.33,8.013L21.23,7.947L20.9,7.729L20.82,7.679L20.73,7.656L20.29,7.543L20.24,7.528L20.18,7.526L19.65,7.503L19.62,7.501L19.58,7.504L18.98,7.558L18.95,7.561L18.92,7.567L17.57,7.846L17.54,7.85L17.53,7.856L16.07,8.271L16.07,8.272L16.06,8.273L14.64,8.709L13.41,9.045L12.93,9.138L12.55,9.17L12,9.139L11.51,9.054L11.07,8.926L10.71,8.771L10.07,8.388L9.594,8.002L9.249,7.688L9.204,7.646L9.151,7.616L8.933,7.491L8.645,7.326L8.365,7.504L8.298,7.547L8.134,7.651L8.071,7.835L8.028,7.964L8.004,8.035L8,8.11L7.969,8.677L7.968,8.699L7.968,8.721L7.998,9.861L7.998,9.875L8,9.888L8.094,11.12L8.095,11.13L8.097,11.15L8.263,12.43L8.265,12.45L8.268,12.46L8.512,13.76L8.515,13.78L8.52,13.8L8.849,15.07L8.855,15.1L8.862,15.12L9.284,16.33L9.293,16.35L9.305,16.38L9.825,17.49L9.841,17.52L9.862,17.55L10.44,18.45L10.5,18.63L10.53,19.11L10.51,19.36L10.45,19.57L10.34,19.77L10.18,19.95L9.995,20.1L9.771,20.21L9.522,20.29L9.222,20.32L8.686,20.32L7.155,20.08L5.871,19.79L4.863,19.45L4.165,19.08L4.118,19.03L4.117,19.03L4.118,19.02L4.198,18.94L4.551,18.68L4.579,18.66L4.604,18.63L4.931,18.32L4.958,18.3L4.982,18.27L5.266,17.91L5.286,17.89L5.302,17.86L5.571,17.44L5.585,17.42L5.596,17.39L5.855,16.89L5.867,16.86L5.877,16.84L6.08,16.32L6.094,16.28L6.103,16.25L6.363,15.19L6.372,15.15L6.376,15.11L6.477,14.02L6.48,13.99L6.479,13.97L6.466,12.86L6.466,12.85L6.465,12.84L6.358,10.7L6.329,8.579L6.392,7.702L6.54,6.841L6.774,5.992L7.095,5.163L7.391,4.584L7.742,4.06L8.151,3.599L8.619,3.209L9.153,2.895L9.76,2.664L10.45,2.525L11.27,2.49L11.32,2.488L11.37,2.479L11.75,2.396L11.83,2.378L11.91,2.336L12.25,2.136L12.27,2.128L12.28,2.119L12.87,1.734L13.47,1.454L14.09,1.265L14.75,1.17L15.79,1.167L16.87,1.301L17.95,1.581L19,2.018L19.48,2.288L19.95,2.603L20.39,2.96L20.8,3.359L21.17,3.802L21.51,4.288L21.8,4.822L22.05,5.411L22.27,6.094L22.45,6.778L22.69,8.19L22.81,9.625L22.85,11.1L22.85,11.1L22.85,11.11L22.94,13.18L22.94,13.2L22.94,13.21L23.04,14.25L23.04,14.26L23.05,14.28L23.2,15.3L23.2,15.32L23.21,15.34L23.43,16.28L23.43,16.32L23.45,16.36L23.75,17.12L24.59,16.27L24.49,16L24.28,15.12L24.14,14.13L24.04,13.12L23.95,11.07L23.95,11.06L23.95,11.06L23.91,9.579L23.91,9.565L23.9,9.551L23.78,8.076L23.78,8.053L23.78,8.03L23.53,6.57L23.52,6.547L23.52,6.525L23.33,5.801L23.33,5.784L23.32,5.767L23.09,5.047L23.08,5.025L23.07,5.004L22.8,4.369L22.79,4.343L22.78,4.319L22.46,3.735L22.45,3.711L22.43,3.688L22.06,3.155L22.05,3.133L22.03,3.112L21.62,2.629L21.6,2.609L21.59,2.59L21.14,2.155L21.12,2.138L21.1,2.122L20.62,1.734L20.6,1.719L20.58,1.705L20.08,1.363L20.06,1.351L20.04,1.34L19.51,1.043L19.48,1.027L19.45,1.015L18.34,0.5508L18.3,0.5357L18.27,0.526L17.11,0.227L17.08,0.218L17.04,0.2135L15.89,0.07051L15.86,0.06621zz" fill="#E57428"/>
    </g>
    <g id="overlay">
      <path d="M29.605,18.743l1.78,-1.774c0.659,-0.659,-1.695,-3.013,-2.354,-2.354l-1.792,1.787L29.605,18.743z" fill="#F3B8B8" stroke="#E42D2C" stroke-width="1" stroke-linecap="round" stroke-miterlimit="10"/>
      <path d="M18.772,29.537l-0.058,0.058C18.373,29.936,14.8,31.2,14.8,31.2s1.224,-3.612,1.566,-3.953l0.058,-0.058L18.772,29.537z" fill="#FFFFFF" stroke="#383838" stroke-width="1" stroke-miterlimit="10"/>
      <polygon points="18.772,29.537 29.605,18.743 27.239,16.402 16.424,27.189" fill="#92CBEE" stroke="#0964B0" stroke-width="1" stroke-linecap="round" stroke-miterlimit="10" stroke-linejoin="round"/>
      <line x1="29.919" y1="19.086" x2="26.909" y2="16.082" fill="none" stroke="#787979" stroke-width="1.1" stroke-miterlimit="10"/>
    </g>
  </g>
</svg>
