<?xml version="1.0" encoding="UTF-8"?>
<!DOCTYPE svg PUBLIC "-//W3C//DTD SVG 1.1//EN" "http://www.w3.org/Graphics/SVG/1.1/DTD/svg11.dtd">
<svg version="1.1" id="Layer_1" xmlns="http://www.w3.org/2000/svg" xmlns:xlink="http://www.w3.org/1999/xlink" x="0px" y="0px" width="32px" height="32px" viewBox="0 0 32 32" enable-background="new 0 0 32 32" xml:space="preserve">
  <g id="main">
    <g id="icon">
      <path d="M7.121,1.58L6.798,1.798L6.58,2.121L6.5,2.517L6.5,27.48L6.58,27.88L6.798,28.2L7.121,28.42L7.517,28.5L18.24,28.5L17.91,27.93L17.42,27.88L16.97,27.73L16.56,27.5L16.2,27.21L15.91,26.85L15.69,26.43L15.55,25.98L15.5,25.49L15.5,23.57L15.55,23.08L15.69,22.62L15.91,22.21L16.2,21.85L16.56,21.55L16.97,21.33L17.42,21.18L17.91,21.13L18.27,20.51L18.08,20.06L17.99,19.6L17.98,19.14L18.06,18.68L18.23,18.25L18.47,17.85L18.79,17.51L19.19,17.23L20.85,16.26L21.44,16.02L22.07,15.94L22.7,16.02L23.27,16.25L23.5,16.42L23.5,2.517L23.42,2.121L23.2,1.798L22.88,1.58L22.48,1.5L7.517,1.5zz" fill="#FFFFFF"/>
      <path d="M7.418,1.01L7.022,1.09L6.924,1.11L6.842,1.165L6.518,1.383L6.438,1.438L6.383,1.518L6.165,1.842L6.11,1.924L6.09,2.022L6.01,2.418L6,2.467L6,2.517L6,27.48L6,27.53L6.01,27.58L6.09,27.98L6.11,28.08L6.165,28.16L6.383,28.48L6.438,28.56L6.518,28.62L6.842,28.83L6.924,28.89L7.022,28.91L7.418,28.99L7.467,29L7.517,29L18.1,29L18.26,28.61L18.28,28.57L17.95,28L7.566,28L7.318,27.95L7.158,27.84L7.05,27.68L7,27.43L7,2.566L7.05,2.318L7.158,2.158L7.318,2.05L7.566,2L22.43,2L22.68,2.05L22.84,2.158L22.95,2.318L23,2.567L23,16.14L23.27,16.25L23.77,16.63L24,16.92L24,2.517L24,2.467L23.99,2.418L23.91,2.022L23.89,1.924L23.84,1.841L23.62,1.518L23.56,1.438L23.48,1.383L23.16,1.165L23.08,1.11L22.98,1.09L22.58,1.01L22.53,1L22.48,1L7.517,1L7.467,1zz" fill="#383838"/>
      <path d="M13,4L17,4L17,3L13,3zz" fill="#787979"/>
      <path d="M14,27L16,27L16,26.96L15.91,26.85L15.69,26.43L15.55,26L14,26zz" fill="#787979"/>
      <path d="M8.5,24.5L15.5,24.5L15.5,23.57L15.55,23.08L15.69,22.62L15.91,22.21L16.2,21.85L16.56,21.55L16.97,21.33L17.42,21.18L17.91,21.13L18.27,20.51L18.08,20.06L17.99,19.6L17.98,19.14L18.06,18.68L18.23,18.25L18.47,17.85L18.79,17.51L19.19,17.23L20.85,16.26L21.44,16.02L21.5,16.01L21.5,5.5L8.5,5.5zz" fill="#FFFFFF"/>
      <path d="M8,5.5L8,24.5L8,25L8.5,25L15.5,25L15.5,24L9,24L9,6L21,6L21,16.2L21.44,16.02L22,15.95L22,5.5L22,5L21.5,5L8.5,5L8,5zz" fill="#228BCB"/>
    </g>
    <g id="overlay">
      <path d="M26.973,31.171c-0.156,0,-0.302,-0.084,-0.379,-0.22l-0.691,-1.188c-0.456,0.122,-0.927,0.184,-1.403,0.184c-0.475,0,-0.945,-0.062,-1.4,-0.183l-0.646,1.176c-0.076,0.141,-0.223,0.228,-0.384,0.228c-0.076,0,-0.152,-0.02,-0.218,-0.059l-1.667,-0.964c-0.206,-0.119,-0.279,-0.376,-0.165,-0.585l0.657,-1.196c-0.678,-0.677,-1.162,-1.514,-1.407,-2.436h-1.334c-0.24,0,-0.436,-0.196,-0.436,-0.436v-1.928c0,-0.24,0.196,-0.436,0.436,-0.436h1.334c0.245,-0.921,0.728,-1.758,1.406,-2.435l-0.651,-1.146c-0.115,-0.207,-0.043,-0.472,0.163,-0.59l1.667,-0.964c0.066,-0.038,0.142,-0.059,0.218,-0.059c0.158,0,0.304,0.086,0.381,0.224l0.644,1.134c0.455,-0.122,0.926,-0.184,1.402,-0.184c0.477,0,0.948,0.062,1.405,0.184l0.689,-1.146c0.078,-0.133,0.222,-0.215,0.376,-0.215c0.076,0,0.152,0.02,0.218,0.059l1.667,0.964c0.101,0.059,0.174,0.153,0.203,0.266c0.03,0.113,0.014,0.231,-0.046,0.332l-0.687,1.143c0.677,0.676,1.159,1.512,1.404,2.432h1.334c0.24,0,0.436,0.196,0.436,0.436v1.928c0,0.24,-0.196,0.436,-0.436,0.436H29.73c-0.245,0.921,-0.728,1.757,-1.405,2.434l0.694,1.193c0.118,0.208,0.046,0.474,-0.161,0.594l-1.667,0.964C27.125,31.151,27.049,31.171,26.973,31.171zM24.5,22.196c-1.287,0,-2.333,1.047,-2.333,2.333c0,1.287,1.047,2.333,2.333,2.333s2.333,-1.047,2.333,-2.333C26.833,23.242,25.787,22.196,24.5,22.196z" fill="#8DDFFE" stroke="#005170" stroke-width="1" stroke-miterlimit="10"/>
    </g>
  </g>
</svg>
