<?xml version="1.0" encoding="UTF-8"?>
<!DOCTYPE svg PUBLIC "-//W3C//DTD SVG 1.1//EN" "http://www.w3.org/Graphics/SVG/1.1/DTD/svg11.dtd">
<svg version="1.1" id="Layer_1" xmlns="http://www.w3.org/2000/svg" xmlns:xlink="http://www.w3.org/1999/xlink" x="0px" y="0px" width="32px" height="32px" viewBox="0 0 32 32" enable-background="new 0 0 32 32" xml:space="preserve">
  <g id="icon">
    <g fill="#abdee5">
      <path d="M22.874,8.409c0,0,-5.813,0.281,-7.876,0.374c-1.275,0.058,-1.969,-1.028,-0.844,-2.151c0.864,-0.861,1.179,-1.104,1.031,-2.711c-0.169,-1.84,-2.015,-2.439,-3.529,-2.421c-1.584,0.019,-3.319,0.855,-3.83,2.373C7.491,4.868,7.5,5.871,8.369,6.51c0.474,0.349,1.523,0.864,0.346,1.806c-0.635,0.509,-7.031,-0.095,-7.031,-0.095s-0.282,4.966,-0.081,6.527c0.115,0.897,1.228,1.317,1.957,0.346c1.125,-1.495,4.563,-0.005,4.72,2.93c0.165,3.079,-3.455,4.021,-4.158,2.82c-0.656,-1.122,-2.53,-1.402,-2.611,0.03c-0.126,2.229,0.92,8.855,0.92,8.855s4.204,0.991,6.099,0.686c0.88,-0.143,1.284,-1.659,0.468,-2.371c-0.75,-0.654,-0.72,-4.476,3.103,-4.263c3.822,0.213,3.302,3.356,2.523,3.843c-0.75,0.467,-0.761,2.344,0.798,2.757c2.133,0.568,7.478,-1.113,7.478,-1.113s-0.527,-5.233,-0.241,-6.929c0.306,-1.816,2.393,-0.72,2.654,-0.373C27,24.212,30.5,22.985,30.5,19.219c0,-5.486,-4.999,-4.553,-5.469,-3.235c-0.52,1.451,-2.24,1.079,-2.427,0.188C22.164,14.088,22.874,8.409,22.874,8.409z" fill="#abdee5" stroke="#383838" stroke-width="1" stroke-miterlimit="50"/>
    </g>
  </g>
</svg>
