<?xml version="1.0" encoding="UTF-8" standalone="no"?>
<svg
   xmlns:dc="http://purl.org/dc/elements/1.1/"
   xmlns:cc="http://creativecommons.org/ns#"
   xmlns:rdf="http://www.w3.org/1999/02/22-rdf-syntax-ns#"
   xmlns:svg="http://www.w3.org/2000/svg"
   xmlns="http://www.w3.org/2000/svg"
   xmlns:sodipodi="http://sodipodi.sourceforge.net/DTD/sodipodi-0.dtd"
   xmlns:inkscape="http://www.inkscape.org/namespaces/inkscape"
   version="1.1"
   id="Layer_1"
   x="0px"
   y="0px"
   width="32px"
   height="32px"
   viewBox="0 0 32 32"
   enable-background="new 0 0 32 32"
   xml:space="preserve"
   sodipodi:docname="piece.svg"
   inkscape:version="1.0.1 (3bc2e813f5, 2020-09-07)"><metadata
   id="metadata28"><rdf:RDF><cc:Work
       rdf:about=""><dc:format>image/svg+xml</dc:format><dc:type
         rdf:resource="http://purl.org/dc/dcmitype/StillImage" /></cc:Work></rdf:RDF></metadata><defs
   id="defs26" /><sodipodi:namedview
   pagecolor="#ffffff"
   bordercolor="#666666"
   borderopacity="1"
   objecttolerance="10"
   gridtolerance="10"
   guidetolerance="10"
   inkscape:pageopacity="0"
   inkscape:pageshadow="2"
   inkscape:window-width="2123"
   inkscape:window-height="1335"
   id="namedview24"
   showgrid="false"
   inkscape:zoom="31.5"
   inkscape:cx="16"
   inkscape:cy="16"
   inkscape:window-x="222"
   inkscape:window-y="34"
   inkscape:window-maximized="0"
   inkscape:current-layer="Layer_1" />
  <g
   id="icon"
   style="fill:#00ffff">
    <path
   d="M22.874,8.409c0,0,-5.813,0.281,-7.876,0.374c-1.275,0.058,-1.969,-1.028,-0.844,-2.151c0.864,-0.861,1.179,-1.104,1.031,-2.711c-0.169,-1.84,-2.015,-2.439,-3.529,-2.421c-1.584,0.019,-3.319,0.855,-3.83,2.373C7.491,4.868,7.5,5.871,8.369,6.51c0.474,0.349,1.523,0.864,0.346,1.806c-0.635,0.509,-7.031,-0.095,-7.031,-0.095s-0.282,4.966,-0.081,6.527c0.115,0.897,1.228,1.317,1.957,0.346c1.125,-1.495,4.563,-0.005,4.72,2.93c0.165,3.079,-3.455,4.021,-4.158,2.82c-0.656,-1.122,-2.53,-1.402,-2.611,0.03c-0.126,2.229,0.92,8.855,0.92,8.855s4.204,0.991,6.099,0.686c0.88,-0.143,1.284,-1.659,0.468,-2.371c-0.75,-0.654,-0.72,-4.476,3.103,-4.263c3.822,0.213,3.302,3.356,2.523,3.843c-0.75,0.467,-0.761,2.344,0.798,2.757c2.133,0.568,7.478,-1.113,7.478,-1.113s-0.527,-5.233,-0.241,-6.929c0.306,-1.816,2.393,-0.72,2.654,-0.373C27,24.212,30.5,22.985,30.5,19.219c0,-5.486,-4.999,-4.553,-5.469,-3.235c-0.52,1.451,-2.24,1.079,-2.427,0.188C22.164,14.088,22.874,8.409,22.874,8.409z"
   fill="#FFFFFF"
   stroke="#383838"
   stroke-width="1"
   stroke-miterlimit="5"
   id="path20"
   style="fill:#00ffff" />
  </g>
<path
   style="fill:#24d0fc;stroke-width:0.031746"
   d="m 15.922558,29.951989 c -0.682702,-0.09626 -1.055716,-0.363219 -1.212301,-0.86763 -0.08028,-0.258602 -0.07192,-0.605238 0.01887,-0.782772 0.03125,-0.06111 0.166824,-0.218254 0.301271,-0.349206 0.134447,-0.130952 0.279551,-0.302381 0.322453,-0.380952 0.457807,-0.838429 0.442373,-1.912121 -0.03934,-2.736932 -0.154655,-0.264806 -0.508691,-0.646799 -0.773684,-0.834779 -0.429775,-0.304872 -1.026522,-0.535751 -1.695039,-0.655802 -0.49123,-0.08821 -1.467479,-0.09791 -1.892401,-0.0188 -1.754881,0.326724 -2.8428162,1.653591 -2.8408527,3.464759 7.65e-4,0.705984 0.1553314,1.202084 0.4910733,1.576166 0.24366,0.271485 0.312793,0.429892 0.3113149,0.713326 -0.00149,0.285425 -0.093882,0.533154 -0.2589711,0.694358 -0.108266,0.10572 -0.1497571,0.123759 -0.341474,0.148461 -0.6825863,0.08795 -2.0163063,-0.0098 -3.5198206,-0.25806 C 4.0838329,29.546935 2.9277898,29.319098 2.8997658,29.29087 2.8735238,29.26444 2.5974714,27.338308 2.4303945,26.015875 2.1532874,23.822539 2.0394141,22.519639 2.0350143,21.492065 c -0.003,-0.699884 0.00172,-0.770146 0.058001,-0.863153 0.09912,-0.163815 0.223048,-0.211834 0.5007173,-0.194014 0.4163783,0.02672 0.8038533,0.264355 1.0704964,0.656524 0.3522986,0.518148 0.8587959,0.763803 1.5776507,0.765172 1.0638489,0.002 2.1789051,-0.559105 2.8311769,-1.424735 0.3376546,-0.448101 0.5776917,-1.00166 0.6759533,-1.558841 0.05861,-0.332342 0.051264,-1.028966 -0.014716,-1.395584 -0.2340229,-1.300337 -1.0871994,-2.44948 -2.2708495,-3.058608 -0.58322,-0.300135 -1.0274308,-0.414867 -1.6062949,-0.414878 -0.7424784,-1.5e-5 -1.261415,0.23284 -1.7002988,0.762947 -0.2808597,0.339238 -0.5382565,0.436961 -0.79226,0.30079 -0.194474,-0.104258 -0.246961,-0.260846 -0.2887102,-0.861334 -0.053246,-0.765842 4.141e-4,-4.013708 0.085403,-5.1692242 l 0.019452,-0.2644626 0.1477308,0.018905 C 2.5057233,8.8142522 3.9666641,8.91848 4.8730225,8.9731054 5.230959,8.9946774 6.0881018,9.0131264 6.7777844,9.0141014 8.082719,9.0159414 8.3152095,8.9988764 8.7300095,8.8707576 9.0966724,8.7575029 9.5566302,8.2829895 9.7038022,7.8661394 9.795439,7.6065873 9.7746584,7.2662013 9.6518517,7.0151933 9.5372032,6.7808603 9.2586717,6.5016825 8.8527238,6.2142111 8.4989067,5.9636562 8.3743479,5.827419 8.2492387,5.5541444 8.0433851,5.1045008 8.1661289,4.2038533 8.5151019,3.6033397 8.6573187,3.358613 9.1311187,2.8704182 9.3897644,2.7021034 9.8157683,2.4248799 10.314135,2.2211671 10.849725,2.1053289 c 0.429073,-0.092801 1.286557,-0.1005842 1.721704,-0.015628 1.110326,0.2167745 1.794018,0.7267113 2.029175,1.5134741 0.08021,0.2683608 0.125517,0.9583617 0.08484,1.2920966 -0.05274,0.4326929 -0.149482,0.5972605 -0.665612,1.1322494 -0.238069,0.2467686 -0.486283,0.5219181 -0.551585,0.6114438 -0.170455,0.2336832 -0.304455,0.5383664 -0.362971,0.8253108 -0.167842,0.8230432 0.37476,1.5744064 1.282871,1.7764416 0.315133,0.070111 0.661908,0.060375 4.591862,-0.1289225 1.639004,-0.078948 3.053831,-0.1435407 3.14406,-0.1435407 h 0.164052 l -0.08534,0.8650793 c -0.190204,1.9280537 -0.264941,3.3916997 -0.241128,4.7222227 0.02801,1.56488 0.125894,2.012454 0.52818,2.415078 0.294848,0.295095 0.816198,0.504454 1.2562,0.504454 0.249798,0 0.582298,-0.08304 0.839659,-0.209696 0.354374,-0.174401 0.623408,-0.461549 0.831392,-0.88737 0.183993,-0.376703 0.272985,-0.467855 0.614663,-0.629585 0.566004,-0.267912 1.274763,-0.328498 1.911808,-0.163423 0.433925,0.112442 0.801626,0.335175 1.126345,0.682278 0.576818,0.616582 0.855436,1.439459 0.903768,2.669216 0.07157,1.820965 -0.664111,3.145756 -1.973667,3.554131 -0.276987,0.08638 -0.761756,0.09468 -1.047619,0.01794 -0.423121,-0.113584 -0.634849,-0.250703 -1.080253,-0.699593 -0.44857,-0.452079 -0.664333,-0.603186 -1.128574,-0.790383 -1.070711,-0.431746 -1.992862,-0.18838 -2.395472,0.632192 -0.227733,0.464149 -0.278811,0.881876 -0.277549,2.269841 0.0012,1.266306 0.05462,2.271748 0.250937,4.718681 l 0.02073,0.258364 -0.171099,0.04941 c -1.451487,0.419179 -3.158906,0.788232 -4.361575,0.942741 -0.568459,0.07303 -1.574742,0.106178 -1.886966,0.06216 z"
   id="path30" /></svg>
