<?xml version="1.0" encoding="UTF-8"?>
<!DOCTYPE svg PUBLIC "-//W3C//DTD SVG 1.1//EN" "http://www.w3.org/Graphics/SVG/1.1/DTD/svg11.dtd">
<svg version="1.1" id="Layer_1" xmlns="http://www.w3.org/2000/svg" xmlns:xlink="http://www.w3.org/1999/xlink" x="0px" y="0px" width="32px" height="32px" viewBox="0 0 32 32" enable-background="new 0 0 32 32" xml:space="preserve">
  <g id="main">
    <g id="icon">
      <g fill="#abdee5">
        <path d="M11.06,1.545L10.46,1.665L9.883,1.859L9.339,2.124L8.845,2.46L8.417,2.864L8.072,3.336L7.826,3.873L7.647,4.615L7.621,4.976L7.646,5.325L7.727,5.657L7.871,5.968L8.082,6.254L8.369,6.51L8.788,6.807L8.997,6.986L9.161,7.191L9.248,7.423L9.224,7.686L9.057,7.982L8.715,8.316L8.531,8.399L8.231,8.458L7.348,8.516L4.961,8.459L2.693,8.307L1.684,8.221L1.568,10.9L1.531,13.07L1.549,14.02L1.603,14.75L1.69,15.06L1.855,15.32L2.08,15.51L2.351,15.62L2.651,15.65L2.963,15.58L3.271,15.39L3.56,15.09L3.797,14.85L4.079,14.67L4.4,14.56L4.75,14.51L5.122,14.52L5.506,14.59L5.896,14.72L6.283,14.9L6.658,15.13L7.014,15.41L7.342,15.74L7.634,16.12L7.883,16.54L8.078,16.99L8.213,17.49L8.28,18.02L8.268,18.58L8.178,19.08L8.018,19.53L7.799,19.93L7.53,20.28L7.222,20.59L6.884,20.84L6.527,21.04L5.79,21.29L5.091,21.34L4.781,21.29L4.509,21.19L4.286,21.04L4.122,20.84L3.825,20.46L3.449,20.17L3.029,19.98L2.601,19.9L2.2,19.94L1.861,20.11L1.62,20.42L1.511,20.87L1.514,21.89L1.602,23.2L1.924,26.14L2.431,29.73L3.118,29.88L4.77,30.19L6.778,30.44L7.724,30.47L8.53,30.42L8.836,30.3L9.089,30.08L9.28,29.79L9.4,29.44L9.441,29.07L9.393,28.69L9.248,28.34L8.998,28.04L8.867,27.89L8.759,27.66L8.629,27.07L8.642,26.35L8.835,25.59L9.009,25.22L9.241,24.86L9.536,24.54L9.898,24.27L10.33,24.04L10.84,23.88L11.43,23.79L12.1,23.78L12.77,23.85L13.34,23.99L13.82,24.17L14.22,24.4L14.54,24.67L14.78,24.96L14.97,25.28L15.09,25.6L15.18,26.25L15.1,26.85L14.9,27.33L14.62,27.62L14.38,27.86L14.21,28.19L14.14,28.59L14.16,29.02L14.29,29.45L14.53,29.84L14.91,30.16L15.42,30.38L15.5,30.4L15.5,15.5L22.52,15.5L22.49,15.24L22.46,14.08L22.57,11.51L22.77,9.329L22.87,8.409L15,8.783L14.55,8.753L14.17,8.629L13.87,8.424L13.68,8.15L13.59,7.821L13.63,7.45L13.82,7.049L14.15,6.632L14.7,6.071L14.9,5.82L15.05,5.556L15.15,5.258L15.21,4.902L15.18,3.921L15.05,3.288L14.78,2.764L14.39,2.342L13.92,2.014L13.39,1.773L12.82,1.612L12.24,1.523L11.66,1.5zM26.97,14.98L26.51,15.05L26.08,15.16L25.71,15.32L25.43,15.5L28.97,15.5L28.89,15.44L28.43,15.2L27.94,15.05L27.45,14.98zz" fill="#abdee5"/>
        <path d="M11.62,1.001L11.02,1.046L10.99,1.049L10.96,1.055L10.36,1.175L10.33,1.181L10.3,1.191L9.724,1.385L9.693,1.395L9.664,1.41L9.119,1.675L9.087,1.691L9.058,1.711L8.564,2.046L8.53,2.069L8.501,2.097L8.074,2.501L8.041,2.533L8.014,2.569L7.669,3.041L7.639,3.082L7.618,3.128L7.371,3.664L7.351,3.709L7.34,3.756L7.161,4.498L7.152,4.538L7.149,4.579L7.123,4.94L7.12,4.976L7.123,5.011L7.147,5.36L7.15,5.402L7.16,5.443L7.241,5.776L7.253,5.823L7.273,5.867L7.416,6.178L7.438,6.225L7.469,6.266L7.681,6.552L7.711,6.593L7.749,6.627L8.036,6.883L8.057,6.902L8.08,6.918L8.481,7.202L8.636,7.335L8.721,7.441L8.74,7.491L8.736,7.534L8.657,7.675L8.429,7.896L8.378,7.919L8.165,7.961L7.339,8.015L4.984,7.96L2.736,7.809L1.727,7.723L1.207,7.678L1.184,8.199L1.069,10.88L1.068,10.88L1.068,10.89L1.031,13.06L1.031,13.07L1.031,13.08L1.049,14.03L1.049,14.04L1.05,14.06L1.104,14.79L1.108,14.83L1.121,14.88L1.209,15.19L1.229,15.27L1.269,15.33L1.434,15.59L1.475,15.65L1.532,15.7L1.758,15.89L1.816,15.94L1.887,15.97L2.157,16.08L2.23,16.11L2.308,16.12L2.607,16.15L2.686,16.15L2.763,16.13L3.075,16.06L3.15,16.05L3.216,16.01L3.524,15.83L3.584,15.79L3.632,15.74L3.92,15.44L3.921,15.44L4.114,15.24L4.298,15.12L4.518,15.05L4.777,15.01L5.068,15.02L5.383,15.08L5.713,15.18L6.045,15.34L6.37,15.54L6.68,15.79L6.966,16.07L7.22,16.4L7.436,16.76L7.605,17.16L7.722,17.59L7.779,18.05L7.769,18.53L7.693,18.95L7.56,19.33L7.378,19.66L7.155,19.95L6.896,20.21L6.612,20.42L6.321,20.58L5.689,20.8L5.113,20.84L4.907,20.81L4.739,20.75L4.626,20.67L4.509,20.53L4.508,20.53L4.219,20.16L4.18,20.11L4.13,20.07L3.754,19.78L3.709,19.74L3.656,19.72L3.236,19.53L3.181,19.5L3.123,19.49L2.695,19.41L2.624,19.4L2.554,19.4L2.153,19.44L2.06,19.45L1.978,19.49L1.639,19.66L1.537,19.71L1.467,19.8L1.226,20.11L1.158,20.19L1.133,20.3L1.024,20.76L1.011,20.82L1.011,20.88L1.014,21.9L1.014,21.91L1.015,21.93L1.103,23.23L1.103,23.24L1.104,23.25L1.427,26.19L1.428,26.2L1.429,26.21L1.936,29.8L1.985,30.14L2.324,30.22L3.011,30.37L3.018,30.37L3.026,30.37L4.679,30.68L4.693,30.68L4.708,30.68L6.716,30.93L6.737,30.94L6.758,30.94L7.704,30.97L7.732,30.97L7.76,30.97L8.566,30.91L8.637,30.91L8.704,30.88L9.01,30.77L9.094,30.74L9.162,30.68L9.415,30.46L9.47,30.42L9.509,30.36L9.7,30.06L9.733,30.01L9.753,29.95L9.872,29.61L9.891,29.55L9.897,29.5L9.938,29.12L9.944,29.06L9.937,29.01L9.889,28.63L9.88,28.57L9.855,28.5L9.71,28.15L9.681,28.08L9.632,28.02L9.383,27.73L9.382,27.72L9.29,27.61L9.235,27.5L9.13,27.02L9.141,26.42L9.308,25.76L9.446,25.46L9.636,25.17L9.875,24.91L10.17,24.69L10.52,24.5L10.95,24.36L11.47,24.29L12.08,24.28L12.68,24.35L13.19,24.47L13.6,24.63L13.93,24.81L14.18,25.02L14.37,25.25L14.51,25.49L14.6,25.72L14.67,26.25L14.61,26.72L14.47,27.05L14.27,27.28L14.03,27.5L13.97,27.56L13.93,27.64L13.77,27.97L13.73,28.03L13.72,28.1L13.64,28.5L13.63,28.56L13.64,28.62L13.66,29.05L13.66,29.11L13.68,29.17L13.81,29.6L13.83,29.66L13.86,29.72L14.11,30.11L14.15,30.17L14.21,30.22L14.58,30.54L14.64,30.59L14.71,30.62L15.23,30.84L15.28,30.86L15.33,30.87L15.5,30.9L15.5,29.87L15.18,29.73L14.92,29.51L14.75,29.24L14.65,28.94L14.64,28.63L14.69,28.36L14.79,28.16L14.97,27.98L14.98,27.97L14.99,27.96L15.26,27.67L15.32,27.6L15.36,27.52L15.5,27.18L15.5,25.27L15.43,25.1L15.42,25.06L15.4,25.02L15.22,24.71L15.19,24.67L15.17,24.64L14.92,24.35L14.89,24.31L14.86,24.28L14.54,24.02L14.5,23.99L14.47,23.97L14.07,23.74L14.04,23.72L14,23.71L13.52,23.52L13.49,23.51L13.45,23.5L12.88,23.37L12.85,23.36L12.82,23.36L12.16,23.28L12.13,23.28L12.1,23.28L11.42,23.29L11.39,23.29L11.35,23.29L10.76,23.38L10.72,23.39L10.69,23.4L10.18,23.56L10.14,23.58L10.1,23.6L9.666,23.82L9.628,23.84L9.593,23.87L9.231,24.15L9.197,24.17L9.168,24.2L8.874,24.53L8.846,24.55L8.824,24.59L8.592,24.94L8.572,24.97L8.556,25L8.382,25.38L8.362,25.42L8.35,25.47L8.157,26.23L8.143,26.28L8.142,26.34L8.129,27.06L8.128,27.12L8.14,27.18L8.271,27.77L8.284,27.83L8.31,27.88L8.418,28.11L8.444,28.16L8.482,28.2L8.613,28.36L8.613,28.36L8.614,28.36L8.815,28.61L8.905,28.82L8.937,29.07L8.909,29.33L8.827,29.57L8.709,29.75L8.578,29.86L8.423,29.92L7.716,29.97L6.82,29.94L4.848,29.69L3.215,29.39L2.878,29.31L2.42,26.08L2.1,23.15L2.014,21.87L2.011,20.93L2.081,20.64L2.185,20.5L2.339,20.43L2.577,20.41L2.876,20.46L3.189,20.61L3.47,20.82L3.728,21.15L3.732,21.16L3.736,21.16L3.9,21.36L3.946,21.42L4.007,21.46L4.23,21.61L4.28,21.64L4.337,21.66L4.609,21.76L4.654,21.78L4.702,21.79L5.013,21.84L5.07,21.85L5.128,21.84L5.827,21.79L5.891,21.79L5.952,21.76L6.689,21.51L6.732,21.5L6.772,21.47L7.13,21.27L7.157,21.26L7.183,21.24L7.521,20.99L7.548,20.97L7.572,20.94L7.88,20.64L7.906,20.62L7.928,20.59L8.196,20.24L8.22,20.21L8.238,20.17L8.457,19.77L8.476,19.73L8.489,19.7L8.649,19.25L8.663,19.21L8.67,19.17L8.76,18.67L8.767,18.63L8.768,18.59L8.78,18.03L8.781,18L8.776,17.96L8.71,17.43L8.705,17.39L8.696,17.36L8.561,16.86L8.552,16.83L8.538,16.8L8.342,16.34L8.329,16.31L8.313,16.28L8.064,15.86L8.048,15.84L8.029,15.81L7.737,15.44L7.718,15.41L7.697,15.39L7.369,15.06L7.348,15.04L7.325,15.02L6.969,14.74L6.946,14.72L6.922,14.71L6.546,14.47L6.521,14.46L6.495,14.44L6.108,14.26L6.08,14.25L6.051,14.24L5.661,14.11L5.629,14.1L5.596,14.1L5.211,14.03L5.175,14.02L5.137,14.02L4.766,14.01L4.723,14.01L4.68,14.01L4.33,14.06L4.281,14.07L4.234,14.09L3.914,14.2L3.861,14.22L3.813,14.25L3.53,14.43L3.479,14.46L3.437,14.5L3.2,14.75L3.2,14.75L3.199,14.75L2.958,15L2.776,15.11L2.615,15.14L2.473,15.13L2.345,15.08L2.235,14.98L2.152,14.85L2.098,14.66L2.048,13.99L2.031,13.07L2.068,10.91L2.161,8.764L2.651,8.806L2.655,8.806L2.66,8.806L4.928,8.958L4.939,8.959L4.95,8.959L7.337,9.016L7.359,9.016L7.381,9.015L8.263,8.957L8.296,8.955L8.327,8.949L8.628,8.889L8.685,8.878L8.737,8.855L8.921,8.772L9.001,8.736L9.064,8.674L9.406,8.34L9.458,8.29L9.494,8.227L9.66,7.93L9.713,7.837L9.722,7.73L9.746,7.467L9.756,7.354L9.716,7.248L9.629,7.016L9.601,6.94L9.551,6.878L9.387,6.673L9.358,6.638L9.323,6.607L9.115,6.428L9.097,6.413L9.077,6.399L8.682,6.119L8.454,5.915L8.302,5.711L8.201,5.492L8.142,5.247L8.123,4.976L8.143,4.692L8.301,4.037L8.506,3.59L8.794,3.196L9.159,2.851L9.59,2.558L10.07,2.322L10.59,2.149L11.13,2.041L11.67,2.001L12.19,2.022L12.72,2.102L13.22,2.244L13.68,2.45L14.06,2.719L14.36,3.051L14.57,3.459L14.69,3.981L14.71,4.868L14.66,5.137L14.59,5.349L14.48,5.539L14.32,5.741L13.8,6.283L13.78,6.299L13.77,6.317L13.43,6.734L13.39,6.783L13.36,6.842L13.18,7.242L13.14,7.315L13.14,7.395L13.09,7.766L13.08,7.858L13.11,7.947L13.19,8.276L13.22,8.367L13.27,8.444L13.47,8.717L13.52,8.786L13.59,8.835L13.89,9.04L13.95,9.082L14.01,9.104L14.39,9.229L14.45,9.248L14.52,9.252L14.97,9.282L14.99,9.284L15.02,9.282L22.31,8.936L22.27,9.273L22.27,9.279L22.27,9.284L22.08,11.46L22.08,11.48L22.07,11.49L21.96,14.06L21.96,14.08L21.96,14.09L21.99,15.25L21.99,15.28L21.99,15.3L22.02,15.5L23.03,15.5L22.99,15.2L22.96,14.09L23.07,11.55L23.27,9.379L23.37,8.465L23.44,7.882L22.85,7.91L15,8.282L14.65,8.258L14.39,8.177L14.23,8.062L14.14,7.934L14.1,7.785L14.12,7.585L14.24,7.315L14.53,6.965L15.06,6.42L15.08,6.401L15.09,6.381L15.29,6.129L15.31,6.1L15.33,6.067L15.48,5.804L15.51,5.763L15.52,5.719L15.62,5.421L15.64,5.379L15.65,5.336L15.7,4.979L15.71,4.935L15.71,4.89L15.68,3.909L15.68,3.861L15.67,3.814L15.54,3.181L15.52,3.117L15.49,3.058L15.22,2.534L15.19,2.476L15.15,2.429L14.76,2.006L14.73,1.964L14.68,1.932L14.21,1.604L14.17,1.578L14.13,1.558L13.6,1.318L13.57,1.302L13.53,1.292L12.96,1.131L12.93,1.122L12.9,1.118L12.31,1.029L12.28,1.025L12.26,1.024L11.68,1L11.65,0.9992zM26.97,14.48L26.93,14.48L26.9,14.49L26.44,14.55L26.41,14.55L26.38,14.56L25.95,14.68L25.92,14.69L25.89,14.7L25.51,14.86L25.48,14.88L25.44,14.9L25.13,15.1L25.09,15.12L25.05,15.16L24.82,15.38L24.77,15.43L24.74,15.49L24.73,15.5L26.87,15.5L27,15.48L27.42,15.48L27.55,15.5L29.75,15.5L29.7,15.44L29.67,15.41L29.63,15.38L29.2,15.04L29.16,15.01L29.12,14.99L28.65,14.75L28.62,14.73L28.57,14.72L28.09,14.57L28.05,14.56L28.01,14.55L27.52,14.49L27.49,14.48L27.45,14.48zz" fill="#383838"/>
      </g>
    </g>
    <g id="overlay">
      <rect x="17.5" y="17.5" width="14" height="14" fill="#FFFFFF" stroke="#383838" stroke-width="1" stroke-miterlimit="10"/>
      <path d="M20,20.5h9M20,22.5h9M20,24.5h9M20,26.5h9M20,28.5h9" fill="#FFFFFF" stroke="#228BCB" stroke-width="1" stroke-miterlimit="10"/>
    </g>
  </g>
</svg>
