<?xml version="1.0" encoding="UTF-8"?>
<!DOCTYPE svg PUBLIC "-//W3C//DTD SVG 1.1//EN" "http://www.w3.org/Graphics/SVG/1.1/DTD/svg11.dtd">
<svg version="1.1" id="Layer_1" xmlns="http://www.w3.org/2000/svg" xmlns:xlink="http://www.w3.org/1999/xlink" x="0px" y="0px" width="32px" height="32px" viewBox="0 0 32 32" enable-background="new 0 0 32 32" xml:space="preserve">
  <g id="main">
    <g id="icon">
      <path d="M0.5,29.5L14.9,29.5L14.97,29.28L15.31,28.44L15.74,27.64L16.26,26.89L16.84,26.2L17.49,25.59L17.11,24.92L16.83,24.2L16.66,23.45L16.6,22.67L16.63,22.16L16.7,21.65L16.99,20.7L17.45,19.84L18.05,19.08L18.79,18.45L19.63,17.96L20.56,17.64L21.06,17.55L21.57,17.51L21.69,17.28L22.06,16.67L22.51,16.12L23.02,15.65L23.59,15.25L24.2,14.93L24.85,14.69L25.54,14.55L26.25,14.5L26.94,14.55L27.6,14.68L28.23,14.9L28.82,15.19L29.36,15.55L29.85,15.98L30.29,16.46L30.5,16.77L30.5,7.5L0.5,7.5zz" fill="#FFFFFF"/>
      <path d="M0,7.5L0,29.5L0,30L0.5,30L14.76,30L14.97,29.28L15.08,29L1,29L1,8L30,8L30,16.14L30.29,16.46L30.66,17L31,17L31,7.5L31,7L30.5,7L0.5,7L0,7zz" fill="#383838"/>
      <path d="M0.5,7.5L30.5,7.5L30.5,2.5L0.5,2.5zz" fill="#C8C6C4"/>
      <path d="M0,2.5L0,7.5L0,8L0.5,8L30.5,8L31,8L31,7.5L31,2.5L31,2L30.5,2L0.5,2L0,2zM30,3L30,7L1,7L1,3zz" fill="#383838"/>
      <path d="M7,5L8,5L8,0L7,0zM25,5L26,5L26,0L25,0zz" fill="#383838"/>
      <path d="M9,10.5L9,14L3.5,14L3,14L3,14.5L3,18L3,18.5L3,19L3,22L3,22.5L3,23L3,26.5L3,27L3.5,27L9,27L9.5,27L10,27L15,27L15.5,27L16,27L16.18,27L16.26,26.89L16.84,26.2L17.06,26L16,26L16,23L16.63,23L16.6,22.67L16.63,22.16L16.65,22L16,22L16,19L18.14,19L18.79,18.45L19.56,18L16,18L16,15L21,15L21,17.56L21.06,17.55L21.57,17.51L21.69,17.28L22,16.77L22,15L24.06,15L24.2,14.93L24.85,14.69L25.54,14.55L26.25,14.5L26.94,14.55L27.6,14.68L28,14.82L28,14.5L28,14L28,10.5L28,10L27.5,10L22,10L21.5,10L21,10L16,10L15.5,10L15,10L9.5,10L9,10zM15,11L15,14L10,14L10,11zM21,11L21,14L16,14L16,11zM27,11L27,14L22,14L22,11zM9,15L9,18L4,18L4,15zM15,15L15,18L10,18L10,15zM9,19L9,22L4,22L4,19zM15,19L15,22L10,22L10,19zM9,23L9,26L4,26L4,23zM15,23L15,26L10,26L10,23zz" fill="#787979" opacity="0.6"/>
      <path d="M3.5,14.5L9.5,14.5L9.5,10.5L3.5,10.5zM9.5,14.5L9.5,18.5L15.5,18.5L15.5,14.5L9.5,14.5zM15.5,14.5L21.5,14.5L21.5,10.5L15.5,10.5L15.5,14.5zM21.5,14.5L21.5,17.51L21.57,17.51L21.69,17.28L22.06,16.67L22.51,16.12L23.02,15.65L23.59,15.25L24.2,14.93L24.85,14.69L25.54,14.55L26.25,14.5L26.94,14.55L27.5,14.66L27.5,14.5L21.5,14.5zM3.5,26.5L9.5,26.5L9.5,22.5L3.5,22.5zM15.5,26.5L16.59,26.5L16.84,26.2L17.49,25.59L17.11,24.92L16.83,24.2L16.66,23.45L16.6,22.67L16.61,22.5L15.5,22.5zz" fill="#DFBCD9"/>
      <path d="M3,10.5L3,14.5L3,15L3.5,15L9,15L9,18.5L9,19L9.5,19L15.5,19L16,19L16,18.5L16,15L21,15L21,17.56L21.06,17.55L21.57,17.51L21.69,17.28L22,16.77L22,15L24.06,15L24.2,14.93L24.85,14.69L25.54,14.55L26.25,14.5L26.94,14.55L27.6,14.68L28,14.82L28,14.5L28,14L27.5,14L22,14L22,10.5L22,10L21.5,10L15.5,10L15,10L15,10.5L15,14L10,14L10,10.5L10,10L9.5,10L3.5,10L3,10zM9,11L9,14L4,14L4,11zM21,11L21,14L16,14L16,11zM15,15L15,18L10,18L10,15zM3,22.5L3,26.5L3,27L3.5,27L9.5,27L10,27L10,26.5L10,22.5L10,22L9.5,22L3.5,22L3,22zM15,22.5L15,26.5L15,27L15.5,27L16.18,27L16.26,26.89L16.84,26.2L17.06,26L16,26L16,23L16.63,23L16.6,22.67L16.63,22.16L16.65,22L15.5,22L15,22zM9,23L9,26L4,26L4,23zz" fill="#A0519F"/>
    </g>
    <g id="overlay">
      <path d="M24.901,22.672c0,1.752,-1.41,3.253,-3.15,3.253S18.6,24.424,18.6,22.672S20.011,19.5,21.75,19.5S24.901,20.92,24.901,22.672zM27,31.976c0,-3.062,-2.411,-6.03,-5.229,-6.03S16.5,28.914,16.5,31.976" fill="#92CBEE" stroke="#0964B0" stroke-width="1" stroke-miterlimit="10"/>
      <path d="M26.591,22.96c2.678,0.214,4.909,3.071,4.909,6.016h-3.399c-0.331,-0.818,-0.79,-1.589,-1.363,-2.264c-0.342,-0.403,-0.72,-0.766,-1.125,-1.081C26.185,24.858,26.533,23.926,26.591,22.96zM26.601,22.672c0,0.078,-0.002,0.155,-0.006,0.232c1.578,-0.182,2.806,-1.598,2.806,-3.232c0,-1.752,-1.41,-3.172,-3.15,-3.172c-1.183,0,-2.214,0.657,-2.752,1.629C25.311,18.835,26.601,20.604,26.601,22.672z" fill="#C8C6C4"/>
      <path d="M30.324,24.489c-0.624,-0.735,-1.368,-1.293,-2.164,-1.638c1.036,-0.671,1.741,-1.858,1.741,-3.179c0,-2.025,-1.638,-3.672,-3.65,-3.672c-1.402,0,-2.622,0.8,-3.233,1.97c0.328,0.089,0.642,0.213,0.939,0.366c0.459,-0.798,1.315,-1.336,2.294,-1.336c1.461,0,2.65,1.199,2.65,2.672c0,1.372,-1.026,2.547,-2.308,2.728c0.005,0.09,0.008,0.181,0.008,0.272c0,0.264,-0.022,0.527,-0.065,0.785c2.369,0.179,4.464,2.729,4.464,5.519h1C32,27.379,31.389,25.744,30.324,24.489z" fill="#383838"/>
    </g>
  </g>
</svg>
