<?xml version="1.0" encoding="UTF-8"?>
<!DOCTYPE svg PUBLIC "-//W3C//DTD SVG 1.1//EN" "http://www.w3.org/Graphics/SVG/1.1/DTD/svg11.dtd">
<svg version="1.1" id="Layer_1" xmlns="http://www.w3.org/2000/svg" xmlns:xlink="http://www.w3.org/1999/xlink" x="0px" y="0px" width="32px" height="32px" viewBox="0 0 32 32" enable-background="new 0 0 32 32" xml:space="preserve">
  <g id="icon">
    <path d="M28.499,6.294C23.512,5.991,18.476,3.457,16.014,1.7C13.552,3.457,8.488,5.991,3.501,6.294c-0.016,1.338,0.223,3.963,0.524,6.168c0.632,4.644,2.004,8.625,3.861,11.211c2.595,3.615,5.15,5.822,8.129,6.728c2.979,-0.905,5.506,-3.113,8.101,-6.728c1.857,-2.586,3.228,-6.567,3.861,-11.211C28.276,10.257,28.515,7.632,28.499,6.294z" fill="#FFFFFF" stroke="#17AB4F" stroke-width="1.1" stroke-miterlimit="50"/>
    <path d="M9.797,15.608L14.389,20.2l9.108,-9.108" fill="none" stroke="#17AB4F" stroke-width="1.2" stroke-miterlimit="50"/>
  </g>
</svg>
