<?xml version="1.0" encoding="UTF-8"?>
<!DOCTYPE svg PUBLIC "-//W3C//DTD SVG 1.1//EN" "http://www.w3.org/Graphics/SVG/1.1/DTD/svg11.dtd">
<svg version="1.1" id="Layer_1" xmlns="http://www.w3.org/2000/svg" xmlns:xlink="http://www.w3.org/1999/xlink" x="0px" y="0px" width="32px" height="32px" viewBox="0 0 32 32" enable-background="new 0 0 32 32" xml:space="preserve">
  <g id="main">
    <g id="icon">
      <path d="M1.5,16.54L10.47,20.28L12.56,28.5L15.5,25.04L15.5,15.5L25.79,15.5L28.4,1.6zz" fill="#FFFFFF"/>
      <path d="M28.16,1.163L1.257,16.11L1.035,16.36L1.024,16.7L1.228,16.96L1.308,17.01L10.04,20.65L12.07,28.62L12.26,28.9L12.58,29L12.9,28.87L13.05,28.61L14.56,22.16L15.5,22.56L15.5,21.47L14.39,21.01L14.06,21L13.79,21.2L13.72,21.36L12.54,26.39L10.95,20.16L10.76,19.88L10.66,19.82L2.645,16.48L27.71,2.554L25.29,15.5L26.3,15.5L28.89,1.692L28.84,1.36L28.59,1.136L28.25,1.123zz" fill="#228BCB"/>
      <path d="M28.33,1.133L28.2,1.142L28.16,1.17L28.14,1.175L28.09,1.218L28.04,1.254L10.11,19.93L9.969,20.24L10.06,20.57L10.33,20.76L10.67,20.74L10.83,20.63L15.5,15.76L15.5,15.5L15.75,15.5L23.98,6.922L17.86,15.5L19.09,15.5L28.81,1.891L28.84,1.762L28.9,1.639L28.89,1.603L28.9,1.567L28.85,1.444L28.81,1.314L28.78,1.293L28.76,1.258L28.64,1.196L28.54,1.119L28.5,1.121L28.47,1.104zM13.8,21.19L13.7,21.51L13.84,21.82L14.14,21.97L14.47,21.9L14.61,21.77L15.5,20.52L15.5,18.8zM12.17,28.18L12.06,28.5L12.17,28.82L12.46,28.99L12.79,28.94L12.95,28.82L15.5,25.69L15.5,24.1zz" fill="#228BCB"/>
    </g>
    <g id="overlay">
      <rect x="17.5" y="17.5" width="14" height="14" fill="#FFFFFF" stroke="#383838" stroke-width="1" stroke-miterlimit="10"/>
      <path d="M20,20.5h9M20,22.5h9M20,24.5h9M20,26.5h9M20,28.5h9" fill="#FFFFFF" stroke="#228BCB" stroke-width="1" stroke-miterlimit="10"/>
    </g>
  </g>
</svg>
