<?xml version="1.0" encoding="UTF-8"?>
<!DOCTYPE svg PUBLIC "-//W3C//DTD SVG 1.1//EN" "http://www.w3.org/Graphics/SVG/1.1/DTD/svg11.dtd">
<svg version="1.1" id="Layer_1" xmlns="http://www.w3.org/2000/svg" xmlns:xlink="http://www.w3.org/1999/xlink" x="0px" y="0px" width="32px" height="32px" viewBox="0 0 32 32" enable-background="new 0 0 32 32" xml:space="preserve">
  <g id="main">
    <g id="icon">
      <path d="M0.5,27.5L15.5,27.5L15.5,15.5L29.5,15.5L29.5,2.5L0.5,2.5zz" fill="#FFFFFF"/>
      <path d="M0,2.5L0,27.5L0,28L0.5,28L15.5,28L15.5,27L1,27L1,3L29,3L29,15.5L30,15.5L30,2.5L30,2L29.5,2L0.5,2L0,2zz" fill="#383838"/>
      <path d="M12.5,27.5L15.5,27.5L15.5,22.5L12.5,22.5zz" fill="#FFFFFF"/>
      <path d="M12,22.5L12,27.5L12,28L12.5,28L15.5,28L15.5,27L13,27L13,23L15.5,23L15.5,22L12.5,22L12,22zz" fill="#383838"/>
      <path d="M4.5,15.53L7.5,18.5L15.5,18.5L15.5,15.5L25.5,15.5L25.5,11.5L20.47,11.5L18.53,10.5L12.5,10.5L12.53,6.5L4.5,6.5zz" fill="#FFFFFF"/>
      <path d="M4,6.5L4,15.53L4,15.74L4.148,15.89L7.148,18.86L7.295,19L7.5,19L15.5,19L15.5,18L7.705,18L5,15.32L5,7L12.03,7L12,10.5L12,11L12.5,11L18.41,11L20.24,11.94L20.34,12L20.47,12L25,12L25,15.5L26,15.5L26,11.5L26,11L25.5,11L20.59,11L18.76,10.06L18.65,10L18.53,10L13,10L13.03,6.504L13.04,6L12.53,6L4.5,6L4,6zz" fill="#228BCB"/>
      <path d="M5,11L12,11L12,10L5,10zM12,11L12,18L13,18L13,11L12,11zM17,15.5L18,15.5L18,11L17,11zM21,15.5L22,15.5L22,12L21,12zz" fill="#92CBEE"/>
      <path d="M13,27L15.5,27L15.5,23L13,23zz" fill="#C8C6C4" opacity="0.5"/>
    </g>
    <g id="overlay">
      <rect x="17.5" y="17.5" width="14" height="14" fill="#FFFFFF" stroke="#383838" stroke-width="1" stroke-miterlimit="10"/>
      <path d="M20,20.5h9M20,22.5h9M20,24.5h9M20,26.5h9M20,28.5h9" fill="#FFFFFF" stroke="#228BCB" stroke-width="1" stroke-miterlimit="10"/>
    </g>
  </g>
</svg>
