<?xml version="1.0" encoding="UTF-8"?>
<!DOCTYPE svg PUBLIC "-//W3C//DTD SVG 1.1//EN" "http://www.w3.org/Graphics/SVG/1.1/DTD/svg11.dtd">
<svg version="1.1" id="Layer_1" xmlns="http://www.w3.org/2000/svg" xmlns:xlink="http://www.w3.org/1999/xlink" x="0px" y="0px" width="32px" height="32px" viewBox="0 0 32 32" enable-background="new 0 0 32 32" xml:space="preserve">
  <g id="main">
    <g id="icon">
      <path d="M0.5,27.5L18.98,27.5L19.83,26.5L17.2,26.32L16.85,26.26L16.53,26.14L16.24,25.97L15.99,25.74L15.79,25.48L15.63,25.18L15.53,24.85L15.5,24.5L15.53,24.15L15.63,23.82L15.79,23.52L15.99,23.26L16.24,23.03L16.53,22.86L16.85,22.74L17.2,22.68L19.83,22.51L18.54,20.99L18.35,20.71L18.22,20.42L18.15,20.11L18.13,19.79L18.17,19.48L18.27,19.17L18.43,18.89L18.63,18.64L18.9,18.42L19.2,18.26L19.52,18.16L19.86,18.13L20.17,18.15L20.46,18.23L20.74,18.36L20.98,18.54L22.5,19.83L22.68,17.19L22.74,16.85L22.86,16.53L23.03,16.24L23.26,15.99L23.52,15.79L23.82,15.63L24.15,15.53L24.49,15.5L24.85,15.53L25.19,15.64L25.49,15.8L25.76,16.01L25.98,16.27L26.15,16.56L26.26,16.9L26.31,17.25L26.4,19.84L28.04,18.51L28.28,18.34L28.55,18.22L28.84,18.15L29.13,18.12L29.47,18.16L29.5,18.17L29.5,2.5L0.5,2.5zM29.17,22.5L29.5,22.53L29.5,22.12zz" fill="#FFFFFF"/>
      <path d="M0,2.5L0,27.5L0,28L0.5,28L18.55,28L19.4,27L1,27L1,3L29,3L29,18.14L29.13,18.12L29.47,18.16L29.8,18.26L30,18.36L30,2.5L30,2L29.5,2L0.5,2L0,2zM29.17,22.5L30,22.56L30,21.53zz" fill="#383838"/>
      <path d="M12.5,27.5L18.98,27.5L19.83,26.5L17.2,26.32L16.85,26.26L16.53,26.14L16.24,25.97L15.99,25.74L15.79,25.48L15.63,25.18L15.53,24.85L15.5,24.5L15.53,24.15L15.63,23.82L15.79,23.52L15.99,23.26L16.24,23.03L16.53,22.86L16.85,22.74L17.2,22.68L19.83,22.51L19.82,22.5L12.5,22.5zM29.17,22.5L29.5,22.53L29.5,22.5L29.18,22.5zz" fill="#FFFFFF"/>
      <path d="M12,22.5L12,27.5L12,28L12.5,28L18.55,28L19.4,27L13,27L13,23L16.3,23L16.53,22.86L16.85,22.74L17.2,22.68L19.83,22.51L19.4,22L12.5,22L12,22zM29.17,22.5L30,22.56L30,22.5L30,22L29.6,22zz" fill="#383838"/>
      <path d="M18,22.63L18.42,22.6L18,22.6zM18,27.4L19,27.4L19,26.44L18,26.37zz" fill="#383838"/>
      <path d="M4.5,15.53L7.5,18.5L18.5,18.5L20.5,17.5L22.66,17.5L22.68,17.19L22.74,16.85L22.86,16.53L23.03,16.24L23.26,15.99L23.52,15.79L23.82,15.63L24.15,15.53L24.49,15.5L24.85,15.53L25.19,15.64L25.49,15.8L25.5,15.8L25.5,11.5L20.47,11.5L18.53,10.5L12.5,10.5L12.53,6.5L4.5,6.5zz" fill="#FFFFFF"/>
      <path d="M4,6.5L4,15.53L4,15.74L4.148,15.89L7.148,18.86L7.295,19L7.5,19L18.37,19L18.43,18.89L18.63,18.64L18.9,18.42L19.2,18.26L19.52,18.16L19.86,18.13L20.17,18.15L20.26,18.18L20.62,18L22.63,18L22.68,17.19L22.72,17L20.5,17L20.38,17L20.28,17.05L18.38,18L7.705,18L5,15.32L5,7L12.03,7L12,10.5L12,11L12.5,11L18.41,11L20.24,11.94L20.34,12L20.47,12L25,12L25,15.58L25.19,15.64L25.49,15.8L25.76,16.01L25.98,16.27L26,16.3L26,11.5L26,11L25.5,11L20.59,11L18.76,10.06L18.65,10L18.53,10L13,10L13.03,6.504L13.04,6L12.53,6L4.5,6L4,6zz" fill="#228BCB"/>
      <path d="M5,11L12,11L12,10L5,10zM12,11L12,18L13,18L13,11L12,11zM17,18L18,18L18,11L17,11zM21,17L22,17L22,12L21,12zz" fill="#92CBEE"/>
      <path d="M13,27L18,27L18,26.37L17.2,26.32L16.85,26.26L16.53,26.14L16.24,25.97L15.99,25.74L15.79,25.48L15.63,25.18L15.53,24.85L15.5,24.5L15.53,24.15L15.63,23.82L15.79,23.52L15.99,23.26L16.24,23.03L16.3,23L13,23zz" fill="#C8C6C4" opacity="0.5"/>
      <path d="M19,27L19.4,27L19.83,26.5L19,26.44zz" fill="#C8C6C4" opacity="0.5"/>
    </g>
    <g id="overlay">
      <path d="M24.762,32h-0.524c-0.021,0,-0.039,-0.017,-0.04,-0.038L23.8,26.107l-3.784,3.209c-0.094,0.079,-0.232,0.074,-0.319,-0.013l0,0c-0.087,-0.087,-0.092,-0.226,-0.013,-0.319L22.893,25.2l-5.594,-0.38c-0.168,-0.011,-0.299,-0.151,-0.299,-0.32l0,0c0,-0.169,0.131,-0.309,0.299,-0.32l5.594,-0.38l-3.209,-3.784c-0.079,-0.094,-0.074,-0.232,0.013,-0.319l0,0c0.087,-0.087,0.226,-0.092,0.319,-0.013L23.8,22.893l0.38,-5.599c0.011,-0.166,0.149,-0.294,0.315,-0.294h0c0.17,0,0.31,0.135,0.315,0.305l0.19,5.588l3.983,-3.215c0.095,-0.077,0.232,-0.069,0.319,0.017l0,0c0.088,0.088,0.094,0.228,0.013,0.323L26.107,23.8l5.594,0.38c0.168,0.011,0.299,0.151,0.299,0.32l0,0c0,0.169,-0.131,0.309,-0.299,0.32l-5.594,0.38l3.209,3.784c0.079,0.094,0.074,0.232,-0.013,0.319l0,0c-0.087,0.087,-0.226,0.092,-0.319,0.013L25.2,26.107l-0.397,5.855C24.801,31.983,24.783,32,24.762,32z" fill="#ED8730"/>
    </g>
  </g>
</svg>
