<?xml version="1.0" encoding="UTF-8"?>
<!DOCTYPE svg PUBLIC "-//W3C//DTD SVG 1.1//EN" "http://www.w3.org/Graphics/SVG/1.1/DTD/svg11.dtd">
<svg version="1.1" id="Layer_1" xmlns="http://www.w3.org/2000/svg" xmlns:xlink="http://www.w3.org/1999/xlink" x="0px" y="0px" width="32px" height="32px" viewBox="0 0 32 32" enable-background="new 0 0 32 32" xml:space="preserve">
  <g id="icon">
    <polygon points="24,9 8,9 8,10.904 3.1,8.305 8,5.716 8,7.7 24,7.7 24,5.855 28.848,8.454 24,11.042" fill="#238BCB" stroke-linejoin="miter"/>
    <path d="M1.5,2v28M30.5,2v28" fill="none" stroke="#383838" stroke-width="1" stroke-miterlimit="10"/>
    <path d="M20.382,22.969c0.048,-0.329,0.139,-0.617,0.273,-0.865c0.134,-0.248,0.302,-0.455,0.505,-0.621c0.203,-0.166,0.436,-0.292,0.699,-0.377c0.263,-0.085,0.547,-0.128,0.853,-0.128c0.309,0,0.591,0.044,0.844,0.133c0.253,0.089,0.471,0.212,0.653,0.37c0.182,0.158,0.322,0.347,0.421,0.566c0.098,0.219,0.147,0.459,0.147,0.72c0,0.222,-0.027,0.418,-0.08,0.588c-0.053,0.169,-0.129,0.318,-0.227,0.447c-0.098,0.129,-0.218,0.237,-0.36,0.324c-0.142,0.087,-0.301,0.16,-0.479,0.218c0.432,0.126,0.756,0.326,0.972,0.602c0.216,0.276,0.324,0.621,0.324,1.037c0,0.335,-0.063,0.633,-0.189,0.895c-0.126,0.261,-0.296,0.482,-0.51,0.662c-0.214,0.181,-0.464,0.318,-0.749,0.413c-0.285,0.095,-0.588,0.143,-0.907,0.143c-0.358,0,-0.667,-0.043,-0.928,-0.128c-0.261,-0.085,-0.486,-0.208,-0.675,-0.367c-0.189,-0.16,-0.346,-0.352,-0.471,-0.578c-0.126,-0.226,-0.232,-0.479,-0.319,-0.759l0.45,-0.189c0.119,-0.052,0.233,-0.066,0.341,-0.044c0.108,0.023,0.186,0.082,0.235,0.179c0.052,0.103,0.11,0.214,0.174,0.331c0.064,0.118,0.148,0.226,0.249,0.324s0.227,0.181,0.377,0.247c0.15,0.066,0.334,0.099,0.554,0.099c0.222,0,0.417,-0.036,0.583,-0.109c0.166,-0.073,0.305,-0.166,0.416,-0.28c0.111,-0.114,0.194,-0.243,0.249,-0.384c0.055,-0.142,0.082,-0.282,0.082,-0.421c0,-0.174,-0.021,-0.334,-0.063,-0.481c-0.042,-0.147,-0.123,-0.272,-0.244,-0.375c-0.121,-0.103,-0.292,-0.184,-0.513,-0.244c-0.221,-0.06,-0.51,-0.089,-0.868,-0.089v-0.749c0.293,-0.003,0.541,-0.033,0.742,-0.089c0.201,-0.056,0.363,-0.134,0.483,-0.232c0.121,-0.098,0.208,-0.217,0.261,-0.355c0.053,-0.139,0.08,-0.29,0.08,-0.454c0,-0.177,-0.027,-0.334,-0.082,-0.469c-0.055,-0.135,-0.131,-0.249,-0.23,-0.341c-0.098,-0.092,-0.215,-0.16,-0.351,-0.206c-0.135,-0.045,-0.285,-0.068,-0.45,-0.068c-0.158,0,-0.304,0.023,-0.438,0.068c-0.134,0.045,-0.253,0.108,-0.358,0.189c-0.105,0.081,-0.193,0.177,-0.264,0.288c-0.071,0.111,-0.123,0.233,-0.155,0.365c-0.045,0.132,-0.106,0.221,-0.181,0.266c-0.076,0.045,-0.186,0.055,-0.331,0.029L20.382,22.969zM18.938,27c0.113,0,0.201,0.034,0.265,0.101c0.064,0.067,0.096,0.154,0.096,0.259v0.64h-4.7v-0.36c0,-0.072,0.014,-0.148,0.043,-0.227c0.029,-0.079,0.076,-0.151,0.14,-0.217l2.162,-2.212c0.183,-0.187,0.347,-0.366,0.49,-0.537c0.143,-0.171,0.265,-0.342,0.367,-0.512c0.101,-0.171,0.179,-0.344,0.232,-0.52c0.053,-0.176,0.08,-0.36,0.08,-0.554c0,-0.187,-0.028,-0.352,-0.084,-0.495c-0.056,-0.143,-0.134,-0.261,-0.232,-0.355c-0.098,-0.094,-0.216,-0.164,-0.352,-0.212c-0.137,-0.048,-0.287,-0.071,-0.451,-0.071c-0.158,0,-0.303,0.023,-0.437,0.069c-0.134,0.046,-0.253,0.11,-0.357,0.192c-0.105,0.082,-0.191,0.18,-0.261,0.293c-0.069,0.113,-0.12,0.237,-0.152,0.372c-0.048,0.135,-0.11,0.225,-0.186,0.271c-0.076,0.046,-0.186,0.056,-0.331,0.03l-0.545,-0.099c0.048,-0.335,0.139,-0.629,0.273,-0.882c0.133,-0.253,0.302,-0.464,0.504,-0.633c0.203,-0.169,0.435,-0.297,0.697,-0.384c0.262,-0.087,0.546,-0.131,0.852,-0.131c0.309,0,0.593,0.047,0.852,0.14c0.259,0.094,0.483,0.227,0.671,0.399c0.188,0.172,0.335,0.382,0.442,0.628c0.106,0.246,0.159,0.524,0.159,0.833c0,0.263,-0.038,0.506,-0.113,0.729c-0.076,0.223,-0.178,0.437,-0.306,0.64c-0.129,0.204,-0.279,0.402,-0.451,0.594c-0.172,0.192,-0.353,0.387,-0.543,0.584l-1.679,1.754c0.138,-0.039,0.277,-0.071,0.417,-0.094c0.14,-0.023,0.273,-0.035,0.398,-0.035H18.938zM11.3,27.1v0.9H7.5v-0.9h1.5v-4.369c0,-0.155,0.005,-0.313,0.014,-0.475l-1.172,0.945c-0.047,0.039,-0.094,0.064,-0.142,0.075c-0.048,0.011,-0.093,0.012,-0.135,0.002c-0.042,-0.01,-0.079,-0.025,-0.112,-0.046c-0.033,-0.021,-0.058,-0.044,-0.077,-0.07l-0.312,-0.455L9.085,20.9H10v6.2H11.3zM13.5,28h-1v-1h1V28z" fill="#383838"/>
  </g>
</svg>
