<?xml version="1.0" encoding="UTF-8"?>
<!DOCTYPE svg PUBLIC "-//W3C//DTD SVG 1.1//EN" "http://www.w3.org/Graphics/SVG/1.1/DTD/svg11.dtd">
<svg version="1.1" id="Layer_1" xmlns="http://www.w3.org/2000/svg" xmlns:xlink="http://www.w3.org/1999/xlink" x="0px" y="0px" width="32px" height="32px" viewBox="0 0 32 32" enable-background="new 0 0 32 32" xml:space="preserve">
  <g id="main">
    <g id="icon">
      <path d="M0.5,25.5L19.8,25.5L19.69,25.28L19.42,24.43L19.25,23.55L19.19,22.65L19.23,21.92L19.34,21.21L19.51,20.53L19.75,19.87L20.06,19.25L20.41,18.66L20.83,18.1L21.29,17.6L21.8,17.13L22.35,16.72L22.94,16.36L23.56,16.06L24.22,15.82L24.91,15.65L25.62,15.54L26.35,15.5L27.19,15.55L28.01,15.7L28.8,15.93L29.54,16.26L30.24,16.66L30.5,16.85L30.5,2.5L0.5,2.5zz" fill="#FFFFFF"/>
      <path d="M0,2.5L0,25.5L0,26L0.5,26L20.03,26L19.69,25.28L19.6,25L1,25L1,3L30,3L30,16.52L30.24,16.66L30.89,17.13L31,17.24L31,2.5L31,2L30.5,2L0.5,2L0,2zz" fill="#383838"/>
      <path d="M9.687,6.584L8.914,6.826L8.215,7.208L7.606,7.714L7.103,8.327L6.723,9.031L6.484,9.809L6.4,10.64L6.484,11.48L6.723,12.26L7.103,12.96L7.606,13.57L8.215,14.08L8.914,14.46L9.687,14.7L10.39,14.78L9.886,14.81L9.279,14.94L8.696,15.14L8.14,15.41L7.615,15.75L7.122,16.15L6.664,16.6L6.244,17.1L5.863,17.63L5.526,18.2L5.233,18.8L4.988,19.42L4.793,20.06L4.65,20.7L4.563,21.35L4.533,22L16.5,22L16.47,21.35L16.38,20.7L16.24,20.06L16.04,19.42L15.8,18.8L15.51,18.2L15.17,17.63L14.79,17.1L14.37,16.6L13.91,16.15L13.42,15.75L12.89,15.41L12.34,15.14L11.75,14.94L11.15,14.81L10.64,14.78L11.35,14.7L12.12,14.46L12.82,14.08L13.43,13.57L13.93,12.96L14.31,12.26L14.55,11.48L14.63,10.64L14.55,9.809L14.31,9.031L13.93,8.327L13.43,7.714L12.82,7.208L12.12,6.826L11.35,6.584L10.52,6.5zz" fill="#FFFFFF"/>
      <path d="M10.46,5.953L9.631,6.037L9.576,6.043L9.522,6.059L8.75,6.301L8.698,6.317L8.65,6.343L7.951,6.725L7.904,6.751L7.863,6.785L7.254,7.291L7.214,7.324L7.18,7.365L6.678,7.978L6.644,8.019L6.619,8.066L6.239,8.77L6.214,8.817L6.198,8.869L5.958,9.647L5.942,9.699L5.936,9.754L5.853,10.59L5.847,10.64L5.853,10.7L5.936,11.53L5.942,11.59L5.958,11.64L6.198,12.42L6.214,12.47L6.239,12.52L6.619,13.22L6.644,13.27L6.678,13.31L7.18,13.92L7.214,13.96L7.254,14L7.863,14.5L7.904,14.54L7.951,14.56L8.27,14.74L7.897,14.92L7.869,14.94L7.842,14.95L7.317,15.29L7.293,15.31L7.27,15.33L6.777,15.72L6.756,15.74L6.737,15.76L6.279,16.21L6.261,16.23L6.245,16.24L5.824,16.74L5.809,16.76L5.795,16.78L5.415,17.31L5.402,17.33L5.39,17.35L5.052,17.92L5.041,17.94L5.032,17.96L4.739,18.56L4.729,18.58L4.721,18.6L4.476,19.22L4.468,19.24L4.462,19.26L4.267,19.9L4.26,19.92L4.255,19.94L4.113,20.59L4.108,20.61L4.105,20.63L4.018,21.28L4.014,21.3L4.013,21.33L3.984,21.97L3.957,22.55L4.533,22.55L16.5,22.55L17.07,22.55L17.05,21.97L17.02,21.33L17.02,21.3L17.01,21.28L16.93,20.63L16.92,20.61L16.92,20.59L16.78,19.94L16.77,19.92L16.77,19.9L16.57,19.26L16.56,19.24L16.56,19.22L16.31,18.6L16.3,18.58L16.29,18.56L16,17.96L15.99,17.94L15.98,17.92L15.64,17.35L15.63,17.33L15.62,17.31L15.24,16.78L15.22,16.76L15.21,16.74L14.79,16.24L14.77,16.23L14.75,16.21L14.3,15.76L14.28,15.74L14.25,15.72L13.76,15.33L13.74,15.31L13.72,15.29L13.19,14.95L13.16,14.94L13.13,14.92L12.76,14.74L13.08,14.56L13.13,14.54L13.17,14.5L13.78,14L13.82,13.96L13.85,13.92L14.35,13.31L14.39,13.27L14.41,13.22L14.79,12.52L14.82,12.47L14.83,12.42L15.07,11.64L15.09,11.59L15.1,11.53L15.18,10.7L15.18,10.64L15.18,10.59L15.1,9.754L15.09,9.699L15.07,9.647L14.83,8.869L14.82,8.817L14.79,8.77L14.41,8.066L14.39,8.019L14.35,7.978L13.85,7.365L13.82,7.324L13.78,7.291L13.17,6.785L13.13,6.751L13.08,6.725L12.38,6.343L12.33,6.317L12.28,6.301L11.51,6.059L11.46,6.043L11.4,6.037L10.57,5.953L10.52,5.947zM11.23,7.126L11.9,7.335L12.51,7.665L13.03,8.103L13.47,8.635L13.8,9.244L14.01,9.918L14.08,10.64L14.01,11.37L13.8,12.04L13.47,12.65L13.03,13.19L12.51,13.62L11.9,13.95L11.23,14.16L10.63,14.22L10.55,14.22L10.52,14.22L10.48,14.22L10.4,14.22L9.797,14.16L9.131,13.95L8.525,13.62L7.998,13.19L7.562,12.65L7.233,12.04L7.025,11.37L6.953,10.64L7.025,9.918L7.233,9.244L7.562,8.635L7.998,8.103L8.525,7.665L9.13,7.334L9.797,7.126L10.52,7.053zM10.46,15.34L10.52,15.34L10.57,15.34L10.65,15.33L11.07,15.36L11.61,15.47L12.12,15.65L12.62,15.89L13.1,16.2L13.54,16.56L13.96,16.97L14.35,17.43L14.71,17.93L15.02,18.46L15.3,19.02L15.53,19.61L15.71,20.2L15.84,20.8L15.92,21.4L15.92,21.45L5.109,21.45L5.111,21.4L5.192,20.8L5.324,20.2L5.507,19.6L5.736,19.02L6.01,18.46L6.325,17.93L6.679,17.43L7.068,16.97L7.488,16.56L7.938,16.2L8.412,15.89L8.909,15.65L9.426,15.47L9.962,15.36L10.38,15.33zz" fill="#228BCB"/>
      <path d="M19,10L28,10L28,9L19,9zM19,13L28,13L28,12L19,12zM19,16L23.74,16L24.22,15.82L24.91,15.65L25.62,15.54L26.35,15.5L27.19,15.55L28,15.69L28,15L19,15zM19,19L20.21,19L20.41,18.66L20.83,18.1L20.92,18L19,18zz" fill="#787979"/>
    </g>
    <g id="overlay">
      <path d="M26.345,27.798c-2.844,0,-5.15,-2.304,-5.15,-5.146s2.306,-5.146,5.15,-5.146s5.15,2.304,5.15,5.146S29.19,27.798,26.345,27.798zM17.357,31.643l5.313,-5.313" fill="#FFFFFF"/>
      <path d="M17.714,32l-0.714,-0.714l5.01,-5.01c-0.823,-0.982,-1.319,-2.246,-1.319,-3.624c0,-3.116,2.537,-5.651,5.655,-5.651c3.118,0,5.655,2.535,5.655,5.651s-2.537,5.651,-5.655,5.651c-1.376,0,-2.639,-0.494,-3.621,-1.314L17.714,32zM26.345,18.01c-2.561,0,-4.645,2.082,-4.645,4.642s2.084,4.642,4.645,4.642c2.561,0,4.645,-2.082,4.645,-4.642S28.907,18.01,26.345,18.01z" fill="#238BCB"/>
    </g>
  </g>
</svg>
