<?xml version="1.0" encoding="UTF-8"?>
<!DOCTYPE svg PUBLIC "-//W3C//DTD SVG 1.1//EN" "http://www.w3.org/Graphics/SVG/1.1/DTD/svg11.dtd">
<svg version="1.1" id="Layer_1" xmlns="http://www.w3.org/2000/svg" xmlns:xlink="http://www.w3.org/1999/xlink" x="0px" y="0px" width="32px" height="32px" viewBox="0 0 32 32" enable-background="new 0 0 32 32" xml:space="preserve">
  <g id="icon">
    <path d="M31.5,26.5H0.5V5.5h31V26.5z" fill="#FFFFFF" stroke="#383838" stroke-width="1" stroke-miterlimit="1"/>
    <path d="M21,12.5h7M20,14.5h8M20,20.5h8M20,22.5h8" fill="none" stroke="#787979" stroke-width="1" stroke-miterlimit="1"/>
    <line x1="18" y1="10.5" x2="28" y2="10.5" fill="#FFFFFF" stroke="#383838" stroke-width="1" stroke-miterlimit="1"/>
    <path d="M8.597,17.443c-2.543,0.931,-4.393,3.64,-4.393,6.593M16.598,24.036c0,-2.935,-1.827,-5.627,-4.345,-6.575M8.484,17.409c-1.176,-0.114,-1.969,-0.326,-2.401,-0.64c-0.149,-0.108,-0.148,-0.33,0.002,-0.438c0.233,-0.168,0.365,-0.328,0.509,-0.602c0.308,-0.587,0.354,-1.22,0.323,-1.869c-0.029,-0.626,-0.068,-1.254,-0.055,-1.88c0.011,-0.542,0.119,-1.077,0.324,-1.584c0.31,-0.763,0.889,-1.341,1.859,-1.31c0.097,0.003,0.212,-0.058,0.292,-0.124c0.32,-0.262,0.686,-0.423,1.088,-0.453c1.155,-0.086,2.622,0.468,3.135,2.009c0.279,0.836,0.321,1.693,0.334,2.563c0.009,0.604,0.039,1.213,0.137,1.807c0.092,0.559,0.261,1.096,0.748,1.434c0.151,0.105,0.149,0.33,0.001,0.437c-0.715,0.515,-1.541,0.636,-2.399,0.669C11.09,17.556,9.791,17.553,8.484,17.409z" fill="#FFFFFF" stroke="#A0519F" stroke-width="1" stroke-miterlimit="1"/>
  </g>
</svg>
