<?xml version="1.0" encoding="UTF-8"?>
<!DOCTYPE svg PUBLIC "-//W3C//DTD SVG 1.1//EN" "http://www.w3.org/Graphics/SVG/1.1/DTD/svg11.dtd">
<svg version="1.1" id="Layer_1" xmlns="http://www.w3.org/2000/svg" xmlns:xlink="http://www.w3.org/1999/xlink" x="0px" y="0px" width="32px" height="32px" viewBox="0 0 32 32" enable-background="new 0 0 32 32" xml:space="preserve">
  <g id="icon">
    <path d="m0.5,8.5v22h30v-22z" fill="#ffffff"/>
    <path d="M31,31H0V8H31ZM1,30H30V9H1Z" fill="#383838"/>
    <rect x="0.5" y="3.5" width="30" height="5" fill="#c8c6c4"/>
    <path d="M31,9H0V3H31ZM1,8H30V4H1Z" fill="#383838"/>
    <path d="M26,6H25V1h1zM8,6H7V1h1z" fill="#383838"/>
    <path d="M4.13672,9.1582C3.93032,9.32477,3.73546,9.50887,3.56055,9.72266C3.35255,9.98666,3.1772,10.2982,3.0332,10.6582C2.8892,11.0102,2.79781,11.4374,2.75781,11.9414L8.3125,11.9414L8.3125,11.043L3.94531,11.043C3.99331,10.779,4.09409,10.5457,4.24609,10.3457C4.40609,10.1377,4.59259,9.94553,4.80859,9.76953C5.03259,9.59353,5.27702,9.42934,5.54102,9.27734L5.73828,9.1582L4.13672,9.1582z" fill="#e6e6e6"/>
    <path d="M9.71875,9.14258C9.7398,9.33671,9.75135,9.53408,9.78906,9.72266C9.85306,10.0427,9.94445,10.3468,10.0645,10.6348C10.1845,10.9148,10.3486,11.1629,10.5566,11.3789C10.7646,11.5949,11.0259,11.7665,11.3379,11.8945C11.6579,12.0225,12.0366,12.0859,12.4766,12.0859C12.9166,12.0859,13.2935,12.0225,13.6055,11.8945C13.9255,11.7665,14.1885,11.5949,14.3965,11.3789C14.6045,11.1629,14.7687,10.9148,14.8887,10.6348C15.0087,10.3468,15.102,10.0427,15.166,9.72266C15.2037,9.53408,15.2153,9.33671,15.2363,9.14258L14.1602,9.14258C14.1296,9.42136,14.0839,9.69378,14.002,9.95117C13.898,10.2952,13.7244,10.5862,13.4844,10.8262C13.2444,11.0662,12.9086,11.1855,12.4766,11.1855C12.0446,11.1855,11.7088,11.0662,11.4688,10.8262C11.2287,10.5862,11.0534,10.2952,10.9414,9.95117C10.8654,9.69377,10.8184,9.42136,10.7852,9.14258L9.71875,9.14258z" fill="#e6e6e6"/>
    <path d="M19.0645,9.1582L19.0645,11.9414L20.0859,11.9414L20.0859,9.1582L19.0645,9.1582z" fill="#e6e6e6"/>
    <path d="m2.98459,16.6443q-0.036,-0.648,0.132,-1.2,0.18,-0.552,0.528,-0.948,0.348,-0.408,0.876,-0.636,0.528,-0.228,1.2,-0.228,0.552,0,1.032,0.168,0.492,0.156,0.852,0.468,0.36,0.3,0.564,0.768,0.216,0.456,0.216,1.044,0,0.564,-0.18,0.996,-0.168,0.432,-0.456,0.78,-0.288,0.336,-0.66,0.612,-0.372,0.276,-0.768,0.528,-0.396,0.24,-0.792,0.48,-0.396,0.228,-0.732,0.492,-0.324,0.264,-0.564,0.576,-0.228,0.3,-0.3,0.696h4.368v0.9h-5.556q0.06,-0.756,0.276,-1.284,0.216,-0.54,0.528,-0.936,0.324,-0.396,0.72,-0.684,0.408,-0.3,0.864,-0.576,0.54,-0.336,0.948,-0.612,0.408,-0.288,0.672,-0.576,0.276,-0.288,0.408,-0.624,0.144,-0.336,0.144,-0.78,0,-0.348,-0.132,-0.624,-0.132,-0.288,-0.36,-0.492,-0.216,-0.204,-0.516,-0.312,-0.3,-0.108,-0.636,-0.108,-0.444,0,-0.768,0.192,-0.312,0.18,-0.516,0.48,-0.204,0.3,-0.3,0.684,-0.084,0.372,-0.072,0.756z" fill="#b42b6f"/>
    <path d="m9.63259,17.9643q0,-0.708,0.06,-1.464,0.072,-0.768,0.348,-1.404,0.288,-0.636,0.852,-1.044,0.576,-0.42,1.572,-0.42,0.996,0,1.56,0.42,0.576,0.408,0.852,1.044,0.288,0.636,0.348,1.404,0.072,0.756,0.072,1.464,0,0.468,-0.024,0.972,-0.024,0.504,-0.12,0.984,-0.096,0.48,-0.276,0.912,-0.18,0.42,-0.492,0.744,-0.312,0.324,-0.792,0.516,-0.468,0.192,-1.128,0.192,-0.66,0,-1.14,-0.192,-0.468,-0.192,-0.78,-0.516,-0.312,-0.324,-0.492,-0.744,-0.18,-0.432,-0.276,-0.912,-0.096,-0.48,-0.12,-0.984,-0.024,-0.504,-0.024,-0.972zm1.08,-0.012q0,0.48,0.024,1.08,0.036,0.588,0.192,1.116,0.168,0.516,0.528,0.876,0.36,0.36,1.008,0.36,0.648,0,1.008,-0.36,0.36,-0.36,0.516,-0.876,0.168,-0.528,0.192,-1.116,0.036,-0.6,0.036,-1.08,0,-0.312,-0.012,-0.684,0,-0.384,-0.06,-0.756,-0.048,-0.384,-0.156,-0.744,-0.096,-0.36,-0.3,-0.624,-0.192,-0.276,-0.492,-0.444,-0.3,-0.168,-0.732,-0.168,-0.432,0,-0.732,0.168,-0.3,0.168,-0.504,0.444,-0.192,0.264,-0.3,0.624,-0.096,0.36,-0.156,0.744,-0.048,0.372,-0.06,0.756,0,0.372,0,0.684z" fill="#b42b6f"/>
    <path d="m20.0726,22.1403h-1.02v-6.096h-2.208v-0.816q0.432,0,0.84,-0.06,0.408,-0.072,0.732,-0.252,0.336,-0.18,0.564,-0.492,0.228,-0.312,0.312,-0.792h0.78z" fill="#b42b6f"/>
    <path d="m27.3806,16.4763q0,-0.396,-0.12,-0.744,-0.108,-0.348,-0.336,-0.612,-0.216,-0.276,-0.54,-0.432,-0.324,-0.156,-0.756,-0.156,-0.456,0,-0.78,0.168,-0.312,0.168,-0.516,0.456,-0.192,0.276,-0.288,0.636,-0.084,0.36,-0.084,0.756,0,0.348,0.12,0.672,0.132,0.324,0.348,0.576,0.228,0.252,0.528,0.408,0.312,0.144,0.684,0.144,0.396,0,0.72,-0.144,0.324,-0.156,0.552,-0.408,0.228,-0.264,0.348,-0.6,0.12,-0.336,0.12,-0.72zm-3.3,3.612q0.06,0.624,0.504,0.96,0.444,0.336,1.056,0.336,0.936,0,1.404,-0.816,0.468,-0.816,0.516,-2.472l-0.024,-0.024q-0.288,0.54,-0.816,0.864,-0.528,0.312,-1.152,0.312,-0.648,0,-1.152,-0.204,-0.504,-0.216,-0.852,-0.588,-0.336,-0.372,-0.516,-0.888,-0.168,-0.528,-0.168,-1.164,0,-0.612,0.204,-1.116,0.204,-0.516,0.576,-0.876,0.372,-0.372,0.888,-0.576,0.516,-0.204,1.128,-0.204,0.588,0,1.116,0.192,0.54,0.18,0.936,0.636,0.396,0.456,0.624,1.248,0.24,0.792,0.24,1.992,0,2.208,-0.708,3.396,-0.696,1.188,-2.244,1.188,-0.54,0,-0.996,-0.144,-0.444,-0.132,-0.78,-0.408,-0.336,-0.276,-0.552,-0.684,-0.204,-0.408,-0.252,-0.96z" fill="#b42b6f"/>
    <path d="M5.76563,24.0039C5.31762,24.0039,4.91841,24.0785,4.56641,24.2305C4.21441,24.3825,3.92145,24.5952,3.68945,24.8672C3.45745,25.1312,3.28211,25.4465,3.16211,25.8145C3.05011,26.1825,3.0053,26.5836,3.0293,27.0156L4.04883,27.0156C4.04083,26.7596,4.06509,26.5078,4.12109,26.2598C4.18509,26.0038,4.28588,25.7742,4.42188,25.5742C4.55787,25.3742,4.7295,25.2157,4.9375,25.0957C5.1535,24.9677,5.40908,24.9023,5.70508,24.9023C5.92908,24.9023,6.1418,24.9397,6.3418,25.0117C6.5418,25.0837,6.71342,25.1863,6.85742,25.3223C7.00942,25.4583,7.1288,25.6225,7.2168,25.8145C7.3048,25.9985,7.34961,26.2075,7.34961,26.4395C7.34961,26.7355,7.30108,26.9947,7.20508,27.2188C7.11708,27.4428,6.98088,27.6517,6.79688,27.8438C6.62087,28.0358,6.397,28.2279,6.125,28.4199C5.853,28.6039,5.53773,28.8072,5.17773,29.0313C4.87373,29.2153,4.58645,29.4074,4.31445,29.6074C4.29622,29.6207,4.27972,29.6368,4.26172,29.6504L5.89844,29.6504L6.36523,29.3672C6.62923,29.1992,6.88481,29.0238,7.13281,28.8398C7.38081,28.6558,7.60097,28.4506,7.79297,28.2266C7.98497,27.9946,8.138,27.7353,8.25,27.4473C8.37,27.1593,8.42969,26.8272,8.42969,26.4512C8.42969,26.0592,8.35689,25.7102,8.21289,25.4063C8.07689,25.0942,7.89039,24.8387,7.65039,24.6387C7.41039,24.4307,7.12488,24.2759,6.79688,24.1719C6.47687,24.0599,6.13363,24.0039,5.76563,24.0039z" fill="#cccccc"/>
    <path d="M12.5098,24.0039C11.8458,24.0039,11.3215,24.1438,10.9375,24.4238C10.5615,24.6958,10.2779,25.0428,10.0859,25.4668C9.90194,25.8908,9.78628,26.3591,9.73828,26.8711C9.69828,27.3751,9.67773,27.8639,9.67773,28.3359C9.67773,28.6479,9.68517,28.9706,9.70117,29.3066C9.70857,29.462,9.74015,29.6098,9.75781,29.7617L10.8223,29.7617C10.8069,29.643,10.7888,29.525,10.7813,29.4023C10.7653,29.0023,10.7578,28.6423,10.7578,28.3223L10.7578,27.6387C10.7658,27.3827,10.7864,27.1308,10.8184,26.8828C10.8584,26.6268,10.9087,26.3787,10.9727,26.1387C11.0447,25.8987,11.1454,25.6916,11.2734,25.5156C11.4094,25.3316,11.5773,25.1823,11.7773,25.0703C11.9773,24.9583,12.2218,24.9023,12.5098,24.9023C12.7978,24.9023,13.0422,24.9583,13.2422,25.0703C13.4422,25.1823,13.6064,25.3316,13.7344,25.5156C13.8704,25.6916,13.9692,25.8987,14.0332,26.1387C14.1052,26.3787,14.1575,26.6268,14.1895,26.8828C14.2295,27.1308,14.25,27.3827,14.25,27.6387C14.258,27.8867,14.2617,28.1143,14.2617,28.3223C14.2617,28.6423,14.2486,29.0023,14.2246,29.4023C14.2196,29.525,14.2019,29.643,14.1875,29.7617L15.2617,29.7617C15.2794,29.6098,15.311,29.462,15.3184,29.3066C15.3344,28.9706,15.3418,28.6479,15.3418,28.3359C15.3418,27.8639,15.3175,27.3751,15.2695,26.8711C15.2295,26.3591,15.1139,25.8908,14.9219,25.4668C14.7379,25.0428,14.4543,24.6958,14.0703,24.4238C13.6943,24.1438,13.1738,24.0039,12.5098,24.0039z" fill="#cccccc"/>
    <path d="m22.8603,9.068c0.02105,0.194132,0.0326,0.391503,0.07031,0.580079,0.064,0.319999,0.155391,0.624109,0.27539,0.912109,0.12,0.28,0.284188,0.52814,0.492188,0.74414,0.208,0.216,0.46925,0.387625,0.78125,0.515625,0.32,0.128,0.698671,0.191407,1.13867,0.191407,0.44,0,0.816907,-0.06341,1.12891,-0.191407,0.32,-0.128,0.583015,-0.299625,0.791015,-0.515625,0.208,-0.216,0.372188,-0.46414,0.492188,-0.74414,0.12,-0.288,0.213344,-0.59211,0.277344,-0.912109,0.03771,-0.188576,0.04927,-0.385947,0.07031,-0.580079h-1.07617c-0.03057,0.278782,-0.07631,0.5512,-0.158203,0.808594,-0.104,0.344,-0.277578,0.635,-0.517578,0.875,-0.24,0.24,-0.575812,0.359375,-1.00781,0.359375,-0.432,0,-0.767812,-0.119375,-1.00781,-0.359375,-0.24,-0.24,-0.415344,-0.531,-0.527344,-0.875,-0.07605,-0.257397,-0.122978,-0.529808,-0.15625,-0.808594z" fill="#e6e6e6"/>
    <path d="m19.6308,24.137c-0.448,0,-0.847219,0.07456,-1.19922,0.226563,-0.351999,0.152,-0.644953,0.364718,-0.876953,0.636719,-0.232,0.263999,-0.407343,0.579265,-0.527343,0.947265,-0.112,0.368,-0.156813,0.769172,-0.132813,1.20117h1.01953c-0.008,-0.256,0.01627,-0.507859,0.07227,-0.755859,0.064,-0.256,0.164782,-0.485547,0.300782,-0.685547,0.136,-0.2,0.307625,-0.358516,0.515625,-0.478516,0.216,-0.128,0.471578,-0.193359,0.767578,-0.193359,0.224,0,0.436718,0.03738,0.636718,0.109375,0.2,0.072,0.371625,0.174547,0.515625,0.310547,0.152,0.136,0.271375,0.300187,0.359375,0.492187,0.088,0.184,0.132813,0.393,0.132813,0.625,0,0.296,-0.04853,0.555297,-0.144531,0.779297,-0.088,0.224,-0.224203,0.433,-0.408203,0.625,-0.176,0.192,-0.399875,0.384172,-0.671875,0.576172,-0.272,0.184,-0.587266,0.387328,-0.947266,0.611328,-0.304,0.184,-0.591281,0.376172,-0.863281,0.576172,-0.01824,0.01326,-0.03473,0.02936,-0.05273,0.04297h1.63672l0.466797,-0.283203c0.264,-0.168001,0.519578,-0.343344,0.767578,-0.527344,0.248,-0.184,0.468157,-0.389281,0.660157,-0.613282,0.191999,-0.232001,0.34503,-0.491297,0.45703,-0.779297,0.12,-0.288,0.179688,-0.620094,0.179688,-0.996094,0,-0.392,-0.0728,-0.740922,-0.216797,-1.04492,-0.136,-0.312,-0.3225,-0.567578,-0.5625,-0.767578,-0.24,-0.208,-0.525516,-0.362797,-0.853516,-0.466797,-0.32,-0.112,-0.66325,-0.167969,-1.03125,-0.167969z" fill="#cccccc"/>
    <path d="m26.375,24.137c-0.664,0,-1.18827,0.139922,-1.57227,0.419922,-0.376,0.272,-0.659562,0.618969,-0.851562,1.04297,-0.184,0.424,-0.299656,0.892297,-0.347657,1.4043,-0.04,0.504,-0.06055,0.992843,-0.06055,1.46484,0,0.312,0.0074,0.634703,0.02344,0.970703,0.0074,0.15536,0.03898,0.303138,0.05664,0.455078h1.06445c-0.01534,-0.11873,-0.03351,-0.23673,-0.04102,-0.359375,-0.016,-0.4,-0.02344,-0.760078,-0.02344,-1.08008v-0.683594c0.008,-0.256,0.02855,-0.507859,0.06055,-0.75586,0.04,-0.256,0.0903,-0.50414,0.154297,-0.74414,0.072,-0.24,0.172781,-0.447047,0.300782,-0.623047,0.136,-0.184,0.303906,-0.333312,0.503906,-0.445313,0.2,-0.111999,0.444422,-0.167968,0.732422,-0.167968,0.288,0,0.532421,0.05597,0.732422,0.167968,0.199999,0.112,0.364187,0.261313,0.492187,0.445313,0.136,0.176,0.234828,0.383047,0.298828,0.623047,0.072,0.24,0.12425,0.48814,0.15625,0.74414,0.04,0.248001,0.06055,0.49986,0.06055,0.75586,0.008,0.248,0.01172,0.475594,0.01172,0.683594,0,0.32,-0.01311,0.680078,-0.03711,1.08008,-0.005,0.122682,-0.0227,0.240611,-0.03711,0.359375h1.07422c0.01766,-0.15194,0.04924,-0.299718,0.05664,-0.455078,0.016,-0.336,0.02344,-0.658703,0.02344,-0.970703,0,-0.472001,-0.02427,-0.960844,-0.07227,-1.46484,-0.04,-0.512,-0.155656,-0.980297,-0.347656,-1.4043,-0.184,-0.424,-0.467563,-0.770969,-0.851563,-1.04297,-0.375999,-0.28,-0.896546,-0.419922,-1.56055,-0.419922z" fill="#cccccc"/>
  </g>
</svg>
