<?xml version="1.0" encoding="UTF-8"?>
<!DOCTYPE svg PUBLIC "-//W3C//DTD SVG 1.1//EN" "http://www.w3.org/Graphics/SVG/1.1/DTD/svg11.dtd">
<svg version="1.1" id="Layer_1" xmlns="http://www.w3.org/2000/svg" xmlns:xlink="http://www.w3.org/1999/xlink" x="0px" y="0px" width="32px" height="32px" viewBox="0 0 32 32" enable-background="new 0 0 32 32" xml:space="preserve">
  <g id="icon">
    <path d="M25.706,21.131v4.665l-0.213,0.138C22.842,27.653,19.445,28.6,15.929,28.6c-3.796,0,-7.397,-1.109,-10.139,-3.123c-2.717,-1.996,-4.276,-4.715,-4.276,-7.46c0,-0.209,-0.029,-3.845,-0.014,-4.417" fill="#FFFFFF" stroke="#228BCB" stroke-width="1" stroke-miterlimit="10" stroke-linejoin="round"/>
    <path d="M15.929,23.892c-3.821,0,-7.419,-1.047,-10.131,-2.949c-2.763,-1.937,-4.284,-4.529,-4.284,-7.298c0,-2.734,1.468,-5.299,4.133,-7.224c2.62,-1.892,6.126,-2.859,9.877,-2.915l0.478,0.007L16,14.203l9.614,6.446v0.534l-0.218,0.137C22.721,23.003,19.448,23.892,15.929,23.892z" fill="#FFFFFF" stroke="#228BCB" stroke-width="1" stroke-miterlimit="10"/>
    <path d="M30.5,13.6c0.024,0.812,-0.028,4.342,-0.028,4.603c0,2.735,-1.497,5.305,-4.215,7.235l-0.738,0.478l0.001,-4.709l0.203,-0.139" fill="#FFFFFF" stroke="#ED8730" stroke-width="1" stroke-miterlimit="10"/>
    <path d="M16.001,14.291V3.503l0.478,0C24.34,3.657,30.5,8.121,30.5,13.693c0,2.672,-1.433,5.113,-4.144,7.058l-0.266,0.191L16.001,14.291z" fill="#FFFFFF" stroke="#ED8730" stroke-width="1" stroke-miterlimit="10"/>
  </g>
</svg>
