<?xml version="1.0" encoding="UTF-8"?>
<!DOCTYPE svg PUBLIC "-//W3C//DTD SVG 1.1//EN" "http://www.w3.org/Graphics/SVG/1.1/DTD/svg11.dtd">
<svg version="1.1" id="Layer_1" xmlns="http://www.w3.org/2000/svg" xmlns:xlink="http://www.w3.org/1999/xlink" x="0px" y="0px" width="32px" height="32px" viewBox="0 0 32 32" enable-background="new 0 0 32 32" xml:space="preserve">
  <g id="icon">
    <polygon points="10,5 18.014,5 14.514,1.5 1.5,1.5 1.5,25.5 10,25.5" fill="#FFFFFF" stroke-linejoin="miter"/>
    <polygon points="10,25 2,25 2,2 14,2 14,5 15,5 15,2.693 17.307,5 18.721,5 14.721,1 1,1 1,26 10,26" fill="#383838" stroke-linejoin="miter"/>
    <polygon points="30.5,30.5 11.5,30.5 11.5,6.5 24.514,6.5 30.5,12.486" fill="#FFFFFF" stroke="#383838" stroke-width="1" stroke-miterlimit="1" stroke-linejoin="miter"/>
    <polyline points="30.5,12.5 24.5,12.5 24.5,6.5" fill="none" stroke="#383838" stroke-width="1" stroke-miterlimit="1" stroke-linejoin="miter"/>
    <path d="M15,25.5h12M15,22.5h12M15,19.5h12M15,16.5h12M15,13.5h7" fill="none" stroke="#228BCB" stroke-width="1" stroke-miterlimit="1"/>
    <path d="M5,20.5h5M5,17.5h5M5,14.5h5M5,11.5h5M5,8.5h5" fill="none" stroke="#228BCB" stroke-width="1" stroke-miterlimit="1" opacity="0.5"/>
  </g>
</svg>
