<?xml version="1.0" encoding="UTF-8"?>
<!DOCTYPE svg PUBLIC "-//W3C//DTD SVG 1.1//EN" "http://www.w3.org/Graphics/SVG/1.1/DTD/svg11.dtd">
<svg version="1.1" id="Layer_1" xmlns="http://www.w3.org/2000/svg" xmlns:xlink="http://www.w3.org/1999/xlink" x="0px" y="0px" width="32px" height="32px" viewBox="0 0 32 32" enable-background="new 0 0 32 32" xml:space="preserve">
  <g id="icon">
    <polygon points="13,9 22.5,9 22.5,3.5 16.977,3.5 7.023,3.5 1.5,3.5 1.5,28.5 13,28.5" fill="#F7DA8E" stroke-linejoin="miter"/>
    <path d="M16.477,3.5c0,-0.276,0.224,-0.5,0.5,-0.5H23v6h-1V4h-5.023C16.701,4,16.477,3.776,16.477,3.5zM13,28H2V4h5.023c0.276,0,0.5,-0.224,0.5,-0.5s-0.224,-0.5,-0.5,-0.5H1v26h12V28z" fill="#E57428"/>
    <polygon points="13,9 20,9 20,6 4,6 4,26 13,26" fill="#FFFFFF" stroke-linejoin="miter"/>
    <path d="M15,3.5c0,-1.657,-1.343,-3,-3,-3S9,1.843,9,3.5H5.5v3h13V3.5H15z" fill="#FFFFFF" stroke="#383838" stroke-width="1" stroke-miterlimit="50"/>
    <polygon points="30.5,30.5 14.5,30.5 14.5,10.5 25.474,10.5 30.5,15.439" fill="#FFFFFF" stroke="#383838" stroke-width="1" stroke-miterlimit="50" stroke-linejoin="miter"/>
    <polyline points="30.6,15.5 25.5,15.5 25.5,10.6" fill="none" stroke="#383838" stroke-width="1" stroke-miterlimit="50" stroke-linejoin="miter"/>
  </g>
</svg>
