<?xml version="1.0" encoding="UTF-8"?>
<!DOCTYPE svg PUBLIC "-//W3C//DTD SVG 1.1//EN" "http://www.w3.org/Graphics/SVG/1.1/DTD/svg11.dtd">
<svg version="1.1" id="Layer_1" xmlns="http://www.w3.org/2000/svg" xmlns:xlink="http://www.w3.org/1999/xlink" x="0px" y="0px" width="32px" height="32px" viewBox="0 0 32 32" enable-background="new 0 0 32 32" xml:space="preserve">
  <g id="icon">
    <path d="M27.5,1.5v29h-9h-6H3.5V1.5H27.5z" fill="#FFFFFF" stroke="#383838" stroke-width="1" stroke-miterlimit="10"/>
    <path d="M10.5,7.5H6.5V4.5h4V7.5zM17.5,4.5h-4v3h4V4.5zM24.5,4.5h-4v3h4V4.5zM10.5,10.5H6.5v3h4V10.5zM17.5,10.5h-4v3h4V10.5zM24.5,10.5h-4v3h4V10.5zM10.5,16.5H6.5v3h4V16.5zM9.5,22.5H6.5v3h3V22.5zM24.5,22.5h-3v3h3V22.5zM17.5,16.5h-4v3h4V16.5zM24.5,16.5h-4v3h4V16.5z" fill="#92CBEE" stroke="#0964B0" stroke-width="1" stroke-linecap="round" stroke-miterlimit="10"/>
    <line x1="1.1" y1="30.5" x2="30" y2="30.5" fill="#FFFFFF" stroke="#383838" stroke-width="1" stroke-miterlimit="10"/>
    <rect x="12.5" y="22.5" width="6" height="8" fill="#C8C6C4" stroke="#383838" stroke-width="1" stroke-linecap="round" stroke-miterlimit="10"/>
  </g>
</svg>
