<?xml version="1.0" encoding="UTF-8"?>
<!DOCTYPE svg PUBLIC "-//W3C//DTD SVG 1.1//EN" "http://www.w3.org/Graphics/SVG/1.1/DTD/svg11.dtd">
<svg version="1.1" id="Layer_1" xmlns="http://www.w3.org/2000/svg" xmlns:xlink="http://www.w3.org/1999/xlink" x="0px" y="0px" width="32px" height="32px" viewBox="0 0 32 32" enable-background="new 0 0 32 32" xml:space="preserve">
  <g id="main">
    <clipPath id="clip_mask">
      <path d="M19.531,32H0V0h32v19.531C30.386,17.103,27.627,15.5,24.5,15.5c-4.963,0,-9,4.037,-9,9C15.5,27.627,17.103,30.386,19.531,32z"/>
    </clipPath>
    <g id="icon" clip-path="url(#clip_mask)">
      <g id="transformed_icon" transform="translate(-1 -1)">
        <rect x="1.5" y="6.5" width="29" height="23" fill="#FFFFFF" stroke="#383838" stroke-width="1" stroke-miterlimit="1"/>
        <rect x="1.5" y="1.5" width="29" height="5" fill="#92CBEE" stroke="#0964B0" stroke-width="1" stroke-linecap="round" stroke-miterlimit="1"/>
        <path d="M4,10.5h2M7,10.5h7M4,13.5h2M7,13.5h7M4,16.5h2M7,16.5h7M4,19.5h2M7,19.5h7M4,22.5h2M7,22.5h7M4,25.5h2M7,25.5h7M18,10.5h2M21,10.5h7M18,13.5h2M21,13.5h7M18,16.5h2M21,16.5h7M18,19.5h2M21,19.5h7M18,22.5h2M21,22.5h7" fill="none" stroke="#787979" stroke-width="1" stroke-miterlimit="1"/>
      </g>
    </g>
    <g id="overlay">
      <circle cx="24.5" cy="24.5" r="7" fill="#FFFFFF" stroke="#228BCB" stroke-width="1" stroke-miterlimit="1"/>
      <path d="M24.475,17.522c-2.092,0.957,-3.928,4.384,-3.928,7.003c0,2.587,1.726,6.012,3.846,6.938M24.532,31.463c2.119,-0.926,3.846,-4.351,3.846,-6.938c0,-2.618,-1.789,-6.046,-3.881,-7.003M17.9,26.5h13.2M17.9,22.5h13.2M24.5,17.5v14" fill="none" stroke="#228BCB" stroke-width="1" stroke-miterlimit="1"/>
    </g>
  </g>
</svg>
