<?xml version="1.0" encoding="UTF-8"?>
<!DOCTYPE svg PUBLIC "-//W3C//DTD SVG 1.1//EN" "http://www.w3.org/Graphics/SVG/1.1/DTD/svg11.dtd">
<svg version="1.1" id="Layer_1" xmlns="http://www.w3.org/2000/svg" xmlns:xlink="http://www.w3.org/1999/xlink" x="0px" y="0px" width="32px" height="32px" viewBox="0 0 32 32" enable-background="new 0 0 32 32" xml:space="preserve">
  <g id="main">
    <g id="icon">
      <path d="M0.5,28.5L12.9,28.5L10.91,26.5L17.2,20.21L18.99,22L26.01,22L27.8,20.21L29.5,21.91L29.5,5.5L0.5,5.5zz" fill="#FFFFFF"/>
      <path d="M0,5.5L0,28.5L0,29L0.5,29L13.4,29L12.4,28L1,28L1,6L29,6L29,21.41L29.59,22L30,22L30,5.5L30,5L29.5,5L0.5,5L0,5zz" fill="#383838"/>
      <path d="M0.5,5.5L29.5,5.5L29.5,0.5L0.5,0.5zz" fill="#92CBEE"/>
      <path d="M0,0.5L0,5.5L0,6L0.5,6L29.5,6L30,6L30,5.5L30,0.5L30,0L29.5,0L0.5,0L0,0zM29,1L29,5L1,5L1,1zz" fill="#0964B0"/>
      <path d="M3,10L5,10L5,9L3,9zM6,10L13,10L13,9L6,9zM17,10L19,10L19,9L17,9zM20,10L27,10L27,9L20,9zM3,13L5,13L5,12L3,12zM6,13L13,13L13,12L6,12zM17,13L19,13L19,12L17,12zM20,13L27,13L27,12L20,12zM3,16L5,16L5,15L3,15zM6,16L13,16L13,15L6,15zM17,16L19,16L19,15L17,15zM20,16L27,16L27,15L20,15zM3,19L5,19L5,18L3,18zM6,19L13,19L13,18L6,18zM17,19L19,19L19,18L17,18zM20,19L27,19L27,18L20,18zM3,22L5,22L5,21L3,21zM6,22L13,22L13,21L6,21zM18.99,22L19,22L19,21L17.99,21zM20,22L26.01,22L27,21.01L27,21L20,21zM3,25L5,25L5,24L3,24zM6,25L12.41,25L13,24.41L13,24L6,24zz" fill="#787979"/>
    </g>
    <g id="overlay">
      <path d="M13.8,26.5h17.4M27.409,22.721l3.782,3.782l-3.782,3.782M17.588,22.721l-3.782,3.782l3.782,3.782" fill="none" stroke="#228BCB" stroke-width="1.1" stroke-miterlimit="10"/>
    </g>
  </g>
</svg>
