<?xml version="1.0" encoding="UTF-8"?>
<!DOCTYPE svg PUBLIC "-//W3C//DTD SVG 1.1//EN" "http://www.w3.org/Graphics/SVG/1.1/DTD/svg11.dtd">
<svg version="1.1" id="Layer_1" xmlns="http://www.w3.org/2000/svg" xmlns:xlink="http://www.w3.org/1999/xlink" x="0px" y="0px" width="32px" height="32px" viewBox="0 0 32 32" enable-background="new 0 0 32 32" xml:space="preserve">
  <g id="icon">
    <path d="M29,27.5H3c-0.825,0,-1.5,-0.675,-1.5,-1.5V7c0,-0.825,0.675,-1.5,1.5,-1.5h26c0.825,0,1.5,0.675,1.5,1.5v19C30.5,26.825,29.825,27.5,29,27.5z" fill="#FFFFFF" stroke="#383838" stroke-width="1" stroke-miterlimit="10"/>
    <path d="M22.072,14.832c-0.588,0.442,-1.319,0.703,-2.11,0.703c-1.943,0,-3.518,-1.575,-3.518,-3.518c0,-1.941,1.575,-3.517,3.518,-3.517c0.791,0,1.522,0.261,2.11,0.703" fill="#F3B8B8" stroke="#E42D2C" stroke-width="1" stroke-linecap="round" stroke-miterlimit="10"/>
    <path d="M21.872,9.203c-0.855,0.641,-1.407,1.663,-1.407,2.813s0.552,2.174,1.407,2.815c0.588,0.442,1.319,0.703,2.11,0.703c1.943,0,3.518,-1.575,3.518,-3.518C27.5,10.075,25.925,8.5,23.982,8.5C23.191,8.5,22.46,8.761,21.872,9.203z" fill="#F7DA8E" stroke="#E57428" stroke-width="1" stroke-linecap="round" stroke-miterlimit="10"/>
    <line x1="5" y1="24.5" x2="15" y2="24.5" fill="none" stroke="#787979" stroke-width="1" stroke-miterlimit="10"/>
    <line x1="5" y1="22.5" x2="13" y2="22.5" fill="none" stroke="#787979" stroke-width="1" stroke-miterlimit="10"/>
    <rect x="5.5" y="9.5" width="3" height="3" fill="#F7DA8E" stroke="#E57428" stroke-width="1" stroke-linecap="round" stroke-miterlimit="10"/>
    <path d="M9,18.5H5l0,0H9L9,18.5zM15,18.5h-4l0,0H15L15,18.5zM21,18.5h-4l0,0H21L21,18.5zM27,18.5h-4l0,0H27L27,18.5z" fill="#FFFFFF" stroke="#383838" stroke-width="1" stroke-miterlimit="10"/>
  </g>
</svg>
