<?xml version="1.0" encoding="UTF-8"?>
<!DOCTYPE svg PUBLIC "-//W3C//DTD SVG 1.1//EN" "http://www.w3.org/Graphics/SVG/1.1/DTD/svg11.dtd">
<svg version="1.1" id="Layer_1" xmlns="http://www.w3.org/2000/svg" xmlns:xlink="http://www.w3.org/1999/xlink" x="0px" y="0px" width="32px" height="32px" viewBox="0 0 32 32" enable-background="new 0 0 32 32" xml:space="preserve">
  <g id="main">
    <g id="icon">
      <path d="M3.5,29.5L14.06,29.5L13.66,29.16L12.82,28.35L11.99,27.47L11.16,26.5L10.11,25.23L11.16,23.95L11.78,23.22L12.63,22.27L13.72,21.21L15.03,20.13L15.76,19.61L16.53,19.12L17.36,18.68L18.24,18.28L19.16,17.96L20.12,17.71L21.12,17.56L22.17,17.5L22.98,17.54L23.76,17.66L24.53,17.86L25.28,18.12L26,18.43L26.5,18.69L26.5,8.5L18.5,0.5L3.5,0.5z" fill="#FFFFFF"/>
      <path d="M3,30L14.65,30L14.5,29.88L13.66,29.16L13.5,29L4,29L4,1L18,1L18,9L26,9L26,18.43L26.7,18.79L27,18.98L27,8.294L18.71,0L3,0M25.29,8L19,8L19,1.706z" fill="#383838"/>
      <path d="M6.5,5L16,5L16,4L6.5,4M6.5,8L16,8L16,7L6.5,7M6.5,11L16,11L16,10L6.5,10M6.5,14L23.5,14L23.5,13L6.5,13M6.5,17L23.5,17L23.5,16L6.5,16z" fill="#78797A" opacity="0.5"/>
      <path d="M6.5,26.5L8.5,26.5L8.5,22.5L6.5,22.5z" fill="#92CBEE"/>
      <path d="M6,22.5L6,26.5L6,27L6.5,27L8.5,27L9,27L9,26.5L9,22.5L9,22L8.5,22L6.5,22L6,22M8,23L8,26L7,26L7,23z" fill="#0964B0"/>
      <path d="M10.5,24.75L11.16,23.95L11.78,23.22L12.5,22.42L12.5,20.5L10.5,20.5M10.5,26.5L11.16,26.5L11.16,26.5L10.5,25.7z" fill="#92CBEE"/>
      <path d="M10,20.5L10,26.5L10,27L10.5,27L11.59,27L11.16,26.5L10.11,25.23L11,24.15L11,21L12,21L12,22.97L12.63,22.27L13,21.92L13,20.5L13,20L12.5,20L10.5,20L10,20z" fill="#0964B0"/>
      <path d="M14.5,20.56L15.03,20.13L15.76,19.61L16.5,19.14L16.5,18.5L14.5,18.5z" fill="#92CBEE"/>
      <path d="M14,18.5L14,20.98L15,20.15L15,19L16,19L16,19.46L16.53,19.12L17,18.87L17,18.5L17,18L16.5,18L14.5,18L14,18z" fill="#0964B0"/>
    </g>
    <g id="overlay">
      <path d="M31.415,25.829C30.36,27.132,26.526,30.9,22.169,30.9s-7.692,-3.524,-9.469,-5.675c1.776,-2.151,5.111,-5.725,9.469,-5.725S30.36,24.526,31.415,25.829z" fill="#FFFFFF" stroke="#383838" stroke-width="1" stroke-miterlimit="1"/>
      <ellipse cx="22.01" cy="25.202" rx="3.8" ry="3.798" fill="#92CBEE" stroke="#0964B0" stroke-width="1" stroke-linecap="round" stroke-miterlimit="1"/>
      <ellipse cx="22.01" cy="25.2" rx="1.606" ry="1.658" fill="#383838" opacity="0.8"/>
      <ellipse cx="23.214" cy="23.956" rx="0.803" ry="0.829" fill="#FFFFFF"/>
    </g>
  </g>
</svg>
