<?xml version="1.0" encoding="UTF-8"?>
<!DOCTYPE svg PUBLIC "-//W3C//DTD SVG 1.1//EN" "http://www.w3.org/Graphics/SVG/1.1/DTD/svg11.dtd">
<svg version="1.1" id="Layer_1" xmlns="http://www.w3.org/2000/svg" xmlns:xlink="http://www.w3.org/1999/xlink" x="0px" y="0px" width="32px" height="32px" viewBox="0 0 32 32" enable-background="new 0 0 32 32" xml:space="preserve">
  <g id="main">
    <g id="icon">
      <path d="M3.5,29.5L13.5,29.5L14.23,27.78L14.9,26.33L15.3,25.66L15.53,25.38L26.5,14.35L26.5,8.5L18.5,0.5L3.5,0.5M21.71,29.5L26.5,29.5L26.5,24.68z" fill="#FFFFFF"/>
      <path d="M3,30L13.29,30L13.71,29L4,29L4,1L18,1L18,9L26,9L26,14.85L27,13.85L27,8.294L18.71,0L3,0M25.29,8L19,8L19,1.706M26,25.18L26,29L22.2,29L21.21,30L27,30L27,24.18z" fill="#383838"/>
      <path d="M6.5,5L16,5L16,4L6.5,4M6.5,8L16,8L16,7L6.5,7M6.5,11L16,11L16,10L6.5,10M6.5,14L23.5,14L23.5,13L6.5,13M6.5,17L23.5,17L23.5,16L6.5,16M19,20L20.88,20L21.88,19L19,19z" fill="#78797A" opacity="0.5"/>
      <path d="M6.5,26.5L8.5,26.5L8.5,22.5L6.5,22.5z" fill="#92CBEE"/>
      <path d="M6,22.5L6,26.5L6,27L6.5,27L8.5,27L9,27L9,26.5L9,22.5L9,22L8.5,22L6.5,22L6,22M8,23L8,26L7,26L7,23z" fill="#0964B0"/>
      <path d="M10.5,26.5L12.5,26.5L12.5,20.5L10.5,20.5z" fill="#92CBEE"/>
      <path d="M10,20.5L10,26.5L10,27L10.5,27L12.5,27L13,27L13,26.5L13,20.5L13,20L12.5,20L10.5,20L10,20M12,21L12,26L11,26L11,21z" fill="#0964B0"/>
      <path d="M14.5,26.5L14.83,26.5L14.9,26.33L15.3,25.66L15.53,25.38L16.5,24.41L16.5,18.5L14.5,18.5z" fill="#92CBEE"/>
      <path d="M14,18.5L14,26.5L14,27L14.5,27L14.59,27L14.9,26.33L15.1,26L15,26L15,19L16,19L16,24.91L17,23.9L17,18.5L17,18L16.5,18L14.5,18L14,18z" fill="#0964B0"/>
    </g>
    <g id="overlay">
      <path d="M29.605,18.743l1.78,-1.774c0.659,-0.659,-1.695,-3.013,-2.354,-2.354l-1.792,1.787L29.605,18.743z" fill="#F3B8B8" stroke="#E42D2C" stroke-width="1" stroke-linecap="round" stroke-miterlimit="1"/>
      <path d="M18.772,29.537l-0.058,0.058C18.373,29.936,14.8,31.2,14.8,31.2s1.224,-3.612,1.566,-3.953l0.058,-0.058L18.772,29.537z" fill="#FFFFFF" stroke="#383838" stroke-width="1" stroke-miterlimit="1"/>
      <polygon points="18.772,29.537 29.605,18.743 27.239,16.402 16.424,27.189" fill="#92CBEE" stroke="#0964B0" stroke-width="1" stroke-linecap="round" stroke-miterlimit="1" stroke-linejoin="round"/>
      <line x1="29.919" y1="19.086" x2="26.909" y2="16.082" fill="none" stroke="#787979" stroke-width="1.1" stroke-miterlimit="1"/>
    </g>
  </g>
</svg>
