<?xml version="1.0" encoding="UTF-8"?>
<!DOCTYPE svg PUBLIC "-//W3C//DTD SVG 1.1//EN" "http://www.w3.org/Graphics/SVG/1.1/DTD/svg11.dtd">
<svg version="1.1" id="Layer_1" xmlns="http://www.w3.org/2000/svg" xmlns:xlink="http://www.w3.org/1999/xlink" x="0px" y="0px" width="32px" height="32px" viewBox="0 0 32 32" enable-background="new 0 0 32 32" xml:space="preserve">
  <g id="main">
    <g id="icon">
      <path d="M3.5,29.5L12.47,29.5L14.41,27.56L13.62,26.86L12.83,26.08L12.04,25.23L11.26,24.31L10.18,23L11.26,21.68L11.87,20.95L12.71,20L13.79,18.94L15.08,17.86L15.8,17.35L16.57,16.86L17.39,16.41L18.25,16.02L19.16,15.7L20.12,15.45L21.11,15.29L22.15,15.24L22.94,15.28L23.75,15.41L24.56,15.62L25.37,15.91L25.87,16.11L26.5,15.47L26.5,8.5L18.5,0.5L3.5,0.5zz" fill="#FFFFFF"/>
      <path d="M3,30L11.97,30L12.97,29L4,29L4,1L18,1L18,9L26,9L26,15.97L27,14.97L27,8.293L18.71,0L3,0zM25.29,8L19,8L19,1.707zM26.54,29.73L25.81,30L27,30L27,29.5zM18.05,30L18.39,30L18.14,29.91zz" fill="#383838"/>
      <path d="M18,14L23.5,14L23.5,13L18,13zM6.5,17L16.35,17L16.57,16.86L17.39,16.41L18.25,16.02L18.32,16L6.5,16zM6.5,20L12.72,20L13.73,19L6.5,19zM6.5,23L10.19,23L10.18,23L11,22L6.5,22zM6.5,26L12.75,26L12.04,25.23L11.84,25L6.5,25zz" fill="#78797A" opacity="0.5"/>
      <path d="M10.82,3.308L6.466,13.77L7.39,14.16L8.808,10.75L13.96,10.75L15.43,14.2L16.35,13.8L11.89,3.305L11.76,3L11.43,3L11.28,3L10.95,3zM13.54,9.749L9.224,9.749L11.36,4.615zz" fill="#228BCB"/>
    </g>
    <g id="overlay">
      <path d="M12.866,22.998c1.741,-2.134,5.01,-5.68,9.282,-5.68c0.775,0,1.533,0.165,2.261,0.441l-8.419,8.419C14.685,25.13,13.629,23.933,12.866,22.998zM27.888,19.967l-8.254,8.254c0.792,0.256,1.631,0.406,2.514,0.406c4.272,0,8.03,-3.739,9.064,-5.031C30.694,22.95,29.494,21.377,27.888,19.967z" fill="#FFFFFF"/>
      <path d="M22.148,29.206c-0.981,0,-1.964,-0.17,-2.923,-0.504l0.925,-0.925c0.662,0.181,1.334,0.273,1.999,0.273c4.195,0,7.882,-3.979,8.288,-4.433l0.028,-0.031l-0.026,-0.033c-0.656,-0.823,-1.67,-2.04,-2.923,-3.141l0.818,-0.818c1.479,1.308,2.585,2.702,3.181,3.454l0.439,0.549l-0.289,0.361C30.212,25.773,26.354,29.206,22.148,29.206zM15.541,26.557c-1.037,-0.85,-2.088,-1.924,-3.124,-3.193l-0.298,-0.366l0.298,-0.366c1.189,-1.457,4.808,-5.892,9.73,-5.892c0.858,0,1.75,0.187,2.654,0.556l-0.898,0.898c-0.602,-0.198,-1.193,-0.298,-1.756,-0.298c-2.84,0,-5.702,1.705,-8.505,5.067l-0.027,0.032l0.027,0.032c0.907,1.072,1.822,1.982,2.72,2.706L15.541,26.557z" fill="#383838"/>
      <path d="M25.814,22.042c0.079,0.298,0.121,0.611,0.121,0.933c0,2.081,-1.744,3.768,-3.896,3.768c-0.288,0,-0.568,-0.031,-0.838,-0.088L25.814,22.042zM22.874,19.294c-0.269,-0.057,-0.549,-0.088,-0.835,-0.088c-2.151,0,-3.896,1.687,-3.896,3.768c0,0.321,0.042,0.633,0.12,0.931L22.874,19.294z" fill="#92CBEE"/>
      <path d="M17.763,24.406c-0.16,-0.449,-0.247,-0.93,-0.247,-1.431c0,-2.424,2.029,-4.397,4.524,-4.397c0.47,0,0.924,0.07,1.351,0.2l-1.069,1.069c-0.093,-0.008,-0.187,-0.012,-0.282,-0.012c-1.802,0,-3.267,1.409,-3.267,3.14c0,0.134,0.01,0.266,0.027,0.395L17.763,24.406zM25.279,22.577c0.017,0.131,0.027,0.263,0.027,0.398c0,1.731,-1.466,3.14,-3.267,3.14c-0.096,0,-0.191,-0.005,-0.285,-0.013l-1.068,1.068c0.428,0.131,0.882,0.201,1.354,0.201c2.494,0,4.524,-1.972,4.524,-4.397c0,-0.502,-0.088,-0.984,-0.248,-1.434L25.279,22.577z" fill="#0964B0"/>
      <rect x="10.304" y="22.325" width="23.469" height="1.297" fill="#EE3D3B" transform="matrix(0.7071 -0.7071 0.7071 0.7071 -9.78948 22.3125)"/>
    </g>
  </g>
</svg>
