<?xml version="1.0" encoding="UTF-8" standalone="no"?>
<svg
   xmlns:dc="http://purl.org/dc/elements/1.1/"
   xmlns:cc="http://creativecommons.org/ns#"
   xmlns:rdf="http://www.w3.org/1999/02/22-rdf-syntax-ns#"
   xmlns:svg="http://www.w3.org/2000/svg"
   xmlns="http://www.w3.org/2000/svg"
   xmlns:sodipodi="http://sodipodi.sourceforge.net/DTD/sodipodi-0.dtd"
   xmlns:inkscape="http://www.inkscape.org/namespaces/inkscape"
   version="1.1"
   id="Layer_1"
   x="0px"
   y="0px"
   width="32px"
   height="32px"
   viewBox="0 0 32 32"
   enable-background="new 0 0 32 32"
   xml:space="preserve"
   sodipodi:docname="DOCX-padlock-filled.svg"
   inkscape:version="1.0.1 (3bc2e813f5, 2020-09-07)"><metadata
   id="metadata30"><rdf:RDF><cc:Work
       rdf:about=""><dc:format>image/svg+xml</dc:format><dc:type
         rdf:resource="http://purl.org/dc/dcmitype/StillImage" /></cc:Work></rdf:RDF></metadata><defs
   id="defs28">
    
    
  
      
      
      
      
      
      
      
      
    </defs><sodipodi:namedview
   pagecolor="#ffffff"
   bordercolor="#666666"
   borderopacity="1"
   objecttolerance="10"
   gridtolerance="10"
   guidetolerance="10"
   inkscape:pageopacity="0"
   inkscape:pageshadow="2"
   inkscape:window-width="1990"
   inkscape:window-height="1157"
   id="namedview26"
   showgrid="false"
   inkscape:zoom="31.5"
   inkscape:cx="15.183065"
   inkscape:cy="7.1982901"
   inkscape:window-x="0"
   inkscape:window-y="0"
   inkscape:window-maximized="0"
   inkscape:current-layer="Layer_1" />
  <path
   d="m 8.5,10 v 19 1.5 h 9 v -10 h 2 v -0.97 l 0.03,-0.62 0.09,-0.6 0.15,-0.58 0.2,-0.55 0.26,-0.52 0.3,-0.5 0.34,-0.47 0.39,-0.42 0.42,-0.39 0.47,-0.35 0.49,-0.3 0.53,-0.25 0.55,-0.21 0.57,-0.15 0.6,-0.09 0.61,-0.03 0.61,0.03 0.6,0.09 0.57,0.15 0.55,0.21 0.53,0.25 0.49,0.3 0.47,0.35 0.42,0.39 0.39,0.42 0.35,0.47 0.02,0.04 V 8.5 l -7,-7 h -15 z"
   fill="#ffffff"
   id="path2" /><path
   d="M 8,10.14 9,10.09 V 2 h 14 v 7 h 7 v 6.55 l 0.13,0.14 0.35,0.47 0.3,0.5 0.22,0.46 V 8.294 L 23.71,1 H 8 M 8,24.37 V 31 h 9.5 V 30 H 9 v -5.65 z"
   fill="#77767b"
   id="path4"
   style="fill:#000000" /><path
   d="M 1.931,24.38 H 16.79 V 10.01 H 1.931 Z"
   fill="#1a5fb4"
   id="path6" /><path
   d="m 1.881,10.01 v 14.37 0.05 h 0.05 14.859 0.05 V 24.38 10.01 9.963 H 16.79 1.931 1.881 M 16.74,10.06 V 24.33 H 1.981 V 10.06 Z"
   fill="#9a9996"
   id="path8" /><path
   d="m 18.95,15.12 h 2.48 l 0.25,-0.24 0.47,-0.35 0.49,-0.3 0.42,-0.2 h -4.11 m 9.11,0.05 v -0.05 h -0.12 z"
   fill="#62a0ea"
   fill-opacity="1"
   id="path10" /><path
   d="m 18.95,16.85 h 1.18 l 0.1,-0.19 0.3,-0.5 0.29,-0.4 h -1.87 z"
   fill="#3584e4"
   fill-opacity="1"
   id="path12" /><path
   d="m 18.95,18.58 h 0.63 l 0.04,-0.27 0.15,-0.58 0.09,-0.23 h -0.91 z"
   fill="#1c71d8"
   fill-opacity="1"
   id="path14" /><path
   d="m 18.95,20.32 h 0.55 v -0.79 l 0.02,-0.3 h -0.57 z"
   fill="#1a5fb4"
   fill-opacity="1"
   id="path16" /><g
   id="overlay">
      <path
   d="m 19.5,22.5 h 12 v 9 h -12 z m 6,4.5 v 2"
   fill="#f7da8e"
   stroke="#e57428"
   stroke-width="1"
   stroke-miterlimit="1"
   id="path19" />
      <path
   d="m 29.5,22.5 v -2.976 c 0,-2.213 -1.8,-4.024 -4,-4.024 v 0 c -2.2,0 -4,1.811 -4,4.024 V 22.5"
   fill="none"
   stroke="#e57428"
   stroke-width="1"
   stroke-miterlimit="1"
   id="path21" />
    </g>
<text
   xml:space="preserve"
   style="font-weight:bold;font-size:12.6384px;line-height:1.25;font-family:sans-serif;-inkscape-font-specification:'sans-serif Bold';stroke-width:0.789899;fill:#ffffff;"
   x="3.2791421"
   y="19.863178"
   id="text54"
   transform="scale(0.89769025,1.11397)"><tspan
     sodipodi:role="line"
     id="tspan52"
     x="3.2791421"
     y="19.863178"
     style="stroke-width:0.789899;fill:#ffffff;">W</tspan></text><path
   style="fill:#ffffff;stroke:#ffffff;stroke-width:1px;stroke-linecap:butt;stroke-linejoin:miter;stroke-opacity:1"
   d="m 24.288557,3.4794143 0.01122,4.2089689 h 4.141625 z"
   id="path56"
   sodipodi:nodetypes="cccc" /></svg>
