<?xml version="1.0" encoding="UTF-8"?>
<!DOCTYPE svg PUBLIC "-//W3C//DTD SVG 1.1//EN" "http://www.w3.org/Graphics/SVG/1.1/DTD/svg11.dtd">
<svg version="1.1" id="Layer_1" xmlns="http://www.w3.org/2000/svg" xmlns:xlink="http://www.w3.org/1999/xlink" x="0px" y="0px" width="32px" height="32px" viewBox="0 0 32 32" enable-background="new 0 0 32 32" xml:space="preserve">
  <g id="icon">
    <path d="M16,1.5c8.008,0,14.5,6.492,14.5,14.5s-6.492,14.5,-14.5,14.5S1.5,24.008,1.5,16S7.992,1.5,16,1.5z" fill="#F7DA8E" stroke="#E57428" stroke-width="1" stroke-linecap="round" stroke-miterlimit="50"/>
    <path d="M20.175,12.784c-1.023,0,-1.856,-0.832,-1.856,-1.856s0.832,-1.856,1.856,-1.856s1.856,0.832,1.856,1.856S21.198,12.784,20.175,12.784zM11.624,11.656c-1.365,0,-2.476,-0.327,-2.476,-0.728c0,-0.401,1.111,-0.728,2.476,-0.728s2.476,0.327,2.476,0.728C14.1,11.33,12.989,11.656,11.624,11.656z" fill="#383838" opacity="0.8"/>
    <path d="M22.2,22.8c-6.7,5.4,-15.9,-0.4,-15.7,-6.9" fill="none" stroke="#383838" stroke-width="1.2" stroke-linecap="round" stroke-miterlimit="50" opacity="0.8"/>
  </g>
</svg>
