<?xml version="1.0" encoding="UTF-8"?>
<!DOCTYPE svg PUBLIC "-//W3C//DTD SVG 1.1//EN" "http://www.w3.org/Graphics/SVG/1.1/DTD/svg11.dtd">
<svg version="1.1" id="Layer_1" xmlns="http://www.w3.org/2000/svg" xmlns:xlink="http://www.w3.org/1999/xlink" x="0px" y="0px" width="32px" height="32px" viewBox="0 0 32 32" enable-background="new 0 0 32 32" xml:space="preserve">
  <g id="main">
    <g id="icon">
      <path d="M0.5,28.5L17.5,28.5L17.5,17.5L29.5,17.5L29.5,8.5L0.5,8.5zz" fill="#FFFFFF"/>
      <path d="M0,8.5L0,28.5L0,29L0.5,29L17.5,29L17.5,28L1,28L1,9L29,9L29,17.5L30,17.5L30,8.5L30,8L29.5,8L0.5,8L0,8zz" fill="#383838"/>
      <path d="M0.5,8.5L29.5,8.5L29.5,2.5L0.5,2.5zz" fill="#DFBCD9"/>
      <path d="M0,2.5L0,8.5L0,9L0.5,9L29.5,9L30,9L30,8.5L30,2.5L30,2L29.5,2L0.5,2L0,2zM29,3L29,8L1,8L1,3zz" fill="#A0519F"/>
      <path d="M13,11.5L13,13.5L13,14L13.5,14L25.5,14L26,14L26,13.5L26,11.5L26,11L25.5,11L13.5,11L13,11zM4,13L11,13L11,12L4,12zM25,12L25,13L14,13L14,12zz" fill="#787979"/>
      <path d="M13,15.5L13,17.5L13,18L13.5,18L17.5,18L17.5,17.5L26,17.5L26,15.5L26,15L25.5,15L13.5,15L13,15zM4,17L11,17L11,16L4,16zM25,16L25,17L14,17L14,16zz" fill="#787979"/>
      <path d="M13,19.5L13,21.5L13,22L13.5,22L17.5,22L17.5,21L14,21L14,20L17.5,20L17.5,19L13.5,19L13,19zM4,21L11,21L11,20L4,20zz" fill="#787979"/>
      <path d="M13,23.5L13,25.5L13,26L13.5,26L17.5,26L17.5,25L14,25L14,24L17.5,24L17.5,23L13.5,23L13,23zM4,25L11,25L11,24L4,24zz" fill="#787979"/>
    </g>
    <g id="overlay">
      <path d="M31.5,31.5V19.5H19.5v12H31.5z" fill="#FFFFFF"/>
      <path d="M32,32H19V19h13V32zM20,31h11V20H20V31zM28.342,29.049L25.5,26.207l-2.842,2.842l-0.707,-0.707L24.793,25.5l-2.842,-2.842l0.707,-0.707L25.5,24.793l2.842,-2.842l0.707,0.707L26.207,25.5l2.842,2.842L28.342,29.049z" fill="#EE3D3B"/>
    </g>
  </g>
</svg>
