<?xml version="1.0" encoding="UTF-8" standalone="no"?>
<svg
   xmlns:dc="http://purl.org/dc/elements/1.1/"
   xmlns:cc="http://creativecommons.org/ns#"
   xmlns:rdf="http://www.w3.org/1999/02/22-rdf-syntax-ns#"
   xmlns:svg="http://www.w3.org/2000/svg"
   xmlns="http://www.w3.org/2000/svg"
   xmlns:sodipodi="http://sodipodi.sourceforge.net/DTD/sodipodi-0.dtd"
   xmlns:inkscape="http://www.inkscape.org/namespaces/inkscape"
   width="48"
   height="48"
   viewBox="0 0 48 48"
   version="1.1"
   id="SVGRoot"
   sodipodi:docname="Gemeinde.svg"
   inkscape:version="1.0.1 (3bc2e813f5, 2020-09-07)">
  <defs
     id="defs33" />
  <sodipodi:namedview
     id="base"
     pagecolor="#ffffff"
     bordercolor="#666666"
     borderopacity="1.0"
     inkscape:pageopacity="0.0"
     inkscape:pageshadow="2"
     inkscape:zoom="22.4"
     inkscape:cx="21.834942"
     inkscape:cy="22.113853"
     inkscape:document-units="px"
     inkscape:current-layer="layer1"
     inkscape:document-rotation="0"
     showgrid="true"
     inkscape:window-width="1888"
     inkscape:window-height="1368"
     inkscape:window-x="578"
     inkscape:window-y="0"
     inkscape:window-maximized="0">
    <inkscape:grid
       type="xygrid"
       id="grid42" />
  </sodipodi:namedview>
  <metadata
     id="metadata36">
    <rdf:RDF>
      <cc:Work
         rdf:about="">
        <dc:format>image/svg+xml</dc:format>
        <dc:type
           rdf:resource="http://purl.org/dc/dcmitype/StillImage" />
        <dc:title></dc:title>
      </cc:Work>
    </rdf:RDF>
  </metadata>
  <g
     inkscape:label="Lag 1"
     inkscape:groupmode="layer"
     id="layer1">
    <path
       style="fill:#e01b24;stroke:#000000;stroke-width:0;stroke-linecap:butt;stroke-linejoin:miter;stroke-miterlimit:4;stroke-dasharray:none;stroke-opacity:1"
       d="m 22.499999,3.4993678 c 0,0 1.2e-5,2.9999706 -4.499998,6.000195 C 11.759689,13.660072 1.5000009,12.49966 1.5000009,12.49966 l 12.0000101,2.999678 c 0,0 2.235317,0.456926 3.18414,2.354261 C 18.184163,20.853132 15,23 15,23 c 0,0 3.000001,-1.500047 5.999999,-6.000195 2.999999,-4.500145 1.5,-13.5004372 1.5,-13.5004372"
       id="path65"
       sodipodi:nodetypes="csccscsc" />
    <ellipse
       style="fill:#e01b24;stroke-width:0.129342;stroke-miterlimit:4;stroke-dasharray:none"
       id="path890"
       cx="12.070536"
       cy="19.797144"
       rx="2.6205356"
       ry="2.5535715" />
    <circle
       style="fill:#986a44;stroke-width:0.15;stroke-miterlimit:4;stroke-dasharray:none"
       id="path892"
       cx="27.316082"
       cy="11.645363"
       r="2.25" />
    <path
       style="fill:#986a44;stroke:#000000;stroke-width:0;stroke-linecap:butt;stroke-linejoin:miter;stroke-miterlimit:4;stroke-dasharray:none;stroke-opacity:1"
       d="m 43.950001,22.850722 c 0,0 -6,-1.5 -7.5,-6 C 34.950001,12.350722 34,2 34,2 l -2.049999,11.850722 c 0,0 0,1.5 -1.5,3 -1.5,1.5 -6,-1.5 -6,-1.5 0,0 4.5,6 9,7.5 4.5,1.5 10.5,0 10.5,0 z"
       id="path894"
       sodipodi:nodetypes="csccscsc" />
    <path
       style="fill:#1c71d8;stroke:#000000;stroke-width:0;stroke-linecap:butt;stroke-linejoin:miter;stroke-miterlimit:4;stroke-dasharray:none;stroke-opacity:1"
       d="M 13,47 C 13,47 15.182144,38.011436 12.182145,32.011436 9.1821444,26.011436 4,25 4,25 c 0,0 3.9946444,-1.140349 9.994644,0.359651 6,1.5 10.455357,7.991071 10.455357,7.991071 0,0 -4.633929,-3.3125 -6.133929,-1.8125 C 16.816073,33.038222 13,47 13,47 Z"
       id="path896"
       sodipodi:nodetypes="cscscsc" />
    <ellipse
       style="fill:#1c71d8;stroke-width:0.126003;stroke-miterlimit:4;stroke-dasharray:none"
       id="path898"
       cx="20.423222"
       cy="35.890911"
       rx="2.5089285"
       ry="2.53125" />
    <path
       style="fill:#26a269;stroke:#000000;stroke-width:0;stroke-linecap:butt;stroke-linejoin:miter;stroke-miterlimit:4;stroke-dasharray:none;stroke-opacity:1"
       d="m 32,24 c 0,0 -4.549999,3.350722 -6.049999,7.850722 C 24.450001,36.350722 25,44 25,44 25,44 27.414987,37.841837 31.744644,35.904293 36,34 46,34 46,34 L 35,32 c 0,0 -1.628264,-0.09705 -3.049999,-2.312191 C 30.450001,27.350722 32,24 32,24 Z"
       id="path900"
       sodipodi:nodetypes="cscsccsc" />
    <circle
       style="fill:#26a269;stroke-width:0.15;stroke-miterlimit:4;stroke-dasharray:none"
       id="path902"
       cx="36.128578"
       cy="27.261436"
       r="2.25" />
  </g>
</svg>
