<?xml version="1.0" encoding="UTF-8"?>
<!DOCTYPE svg PUBLIC "-//W3C//DTD SVG 1.1//EN" "http://www.w3.org/Graphics/SVG/1.1/DTD/svg11.dtd">
<svg version="1.1" id="Layer_1" xmlns="http://www.w3.org/2000/svg" xmlns:xlink="http://www.w3.org/1999/xlink" x="0px" y="0px" width="32px" height="32px" viewBox="0 0 32 32" enable-background="new 0 0 32 32" xml:space="preserve">
  <g id="main">
    <g id="icon">
      <path d="M19,0.5492L18.06,0.6934L17.15,0.9281L16.27,1.248L15.44,1.649L14.65,2.126L13.92,2.674L13.24,3.289L12.63,3.965L12.08,4.698L11.61,5.483L11.2,6.316L10.88,7.19L10.65,8.103L10.51,9.048L10.46,10.02L10.5,10.98L10.64,11.9L10.87,12.8L11.18,13.66L0.676,24.06L0.5457,24.25L0.5,24.49L0.5,29.5L6.671,29.5L6.671,26.42L9.756,26.42L9.756,23.33L12.22,23.33L12.22,20.79L13.51,19.46L13.96,19.94L14.16,20.08L14.38,20.12L14.6,20.08L14.8,19.96L16.07,18.71L16.98,19.06L17.28,19.15L17.56,18.78L18.14,18.14L18.78,17.56L19.47,17.04L20.21,16.59L21,16.21L21.83,15.91L22.69,15.68L23.58,15.55L24.5,15.5L25.65,15.57L26.76,15.79L27.39,15.99L27.87,15.35L28.35,14.56L28.75,13.73L29.07,12.85L29.31,11.94L29.45,11L29.5,10.02L29.45,9.049L29.31,8.104L29.07,7.191L28.75,6.316L28.35,5.484L27.87,4.698L27.33,3.965L26.71,3.289L26.03,2.674L25.3,2.126L24.52,1.649L23.68,1.248L22.81,0.9281L21.9,0.6934L20.95,0.5492L19.98,0.5zM22.75,5.285L23.22,5.433L23.65,5.666L24.03,5.974L24.34,6.348L24.57,6.778L24.72,7.252L24.77,7.761L24.72,8.27L24.57,8.744L24.34,9.174L24.03,9.548L23.65,9.856L23.22,10.09L22.75,10.24L22.24,10.29L21.73,10.24L21.26,10.09L20.83,9.856L20.45,9.548L20.14,9.174L19.91,8.744L19.76,8.27L19.71,7.761L19.76,7.252L19.91,6.778L20.14,6.348L20.45,5.974L20.83,5.666L21.26,5.433L21.73,5.285L22.24,5.234zz" fill="#F7DA8E"/>
      <path d="M19.95,0.0005859L18.98,0.0498L18.95,0.05098L18.93,0.05488L17.98,0.1992L17.96,0.2029L17.93,0.2092L17.02,0.4438L17,0.45L16.97,0.4586L16.1,0.7787L16.08,0.7871L16.05,0.7979L15.22,1.199L15.2,1.209L15.18,1.222L14.39,1.699L14.37,1.711L14.35,1.726L13.62,2.274L13.6,2.288L13.58,2.304L12.91,2.919L12.89,2.935L12.87,2.953L12.26,3.629L12.24,3.646L12.23,3.666L11.68,4.399L11.67,4.418L11.65,4.438L11.18,5.224L11.17,5.244L11.15,5.266L10.75,6.099L10.74,6.121L10.73,6.144L10.41,7.019L10.41,7.042L10.4,7.066L10.17,7.979L10.16,8.003L10.16,8.028L10.01,8.973L10.01,8.998L10.01,9.023L9.957,9.997L9.955,10.02L9.957,10.05L10,11L10.01,11.02L10.01,11.05L10.15,11.98L10.15,12L10.16,12.02L10.38,12.92L10.39,12.94L10.4,12.97L10.6,13.52L0.3242,23.7L0.2871,23.74L0.2586,23.78L0.1281,23.98L0.07402,24.06L0.05508,24.16L0.009375,24.39L0,24.44L0,24.49L0,29.5L0,30L0.5,30L6.671,30L7.171,30L7.171,29.5L7.171,26.92L9.756,26.92L10.26,26.92L10.26,26.42L10.26,23.83L12.22,23.83L12.72,23.83L12.72,23.33L12.72,20.99L13.5,20.19L13.59,20.28L13.63,20.32L13.68,20.36L13.87,20.49L13.96,20.55L14.05,20.57L14.28,20.61L14.37,20.63L14.47,20.62L14.69,20.58L14.79,20.56L14.87,20.5L15.07,20.38L15.12,20.35L15.16,20.31L16.19,19.29L16.8,19.53L16.83,19.54L16.85,19.55L16.97,19.58L17.04,19.47L17.56,18.78L17.61,18.72L17.14,18.59L16.25,18.24L15.94,18.12L15.71,18.35L14.49,19.56L14.42,19.61L14.39,19.61L14.36,19.61L14.29,19.56L13.88,19.12L13.52,18.74L13.15,19.12L11.87,20.44L11.72,20.59L11.72,20.79L11.72,22.83L9.756,22.83L9.256,22.83L9.256,23.33L9.256,25.92L6.671,25.92L6.171,25.92L6.171,26.42L6.171,29L1,29L1,24.53L1.017,24.45L1.065,24.37L11.53,14.01L11.75,13.79L11.65,13.49L11.35,12.65L11.13,11.8L11,10.93L10.96,10.02L11,9.099L11.14,8.204L11.36,7.34L11.67,6.511L12.04,5.723L12.5,4.978L13.02,4.285L13.6,3.644L14.24,3.061L14.93,2.541L15.68,2.089L16.47,1.71L17.3,1.406L18.16,1.184L19.05,1.047L19.98,1.001L20.9,1.047L21.8,1.184L22.66,1.406L23.49,1.709L24.28,2.09L25.02,2.541L25.72,3.061L26.36,3.643L26.94,4.284L27.46,4.977L27.91,5.724L28.29,6.512L28.59,7.34L28.82,8.204L28.95,9.1L29,10.02L28.95,10.95L28.82,11.84L28.59,12.71L28.29,13.54L27.91,14.32L27.46,15.07L26.94,15.76L26.88,15.83L27.82,16.14L27.89,16.17L28.27,15.65L28.29,15.63L28.3,15.61L28.78,14.82L28.79,14.8L28.8,14.78L29.2,13.95L29.21,13.92L29.22,13.9L29.54,13.03L29.55,13L29.56,12.98L29.79,12.07L29.8,12.04L29.8,12.02L29.95,11.07L29.95,11.05L29.95,11.02L30,10.05L30,10.02L30,9.998L29.95,9.024L29.95,8.999L29.95,8.974L29.8,8.028L29.8,8.003L29.79,7.979L29.56,7.066L29.55,7.042L29.54,7.019L29.22,6.144L29.21,6.121L29.2,6.099L28.8,5.267L28.79,5.245L28.78,5.224L28.3,4.439L28.29,4.418L28.27,4.399L27.73,3.666L27.71,3.647L27.7,3.629L27.08,2.953L27.07,2.935L27.05,2.919L26.37,2.304L26.35,2.288L26.33,2.274L25.6,1.726L25.58,1.711L25.56,1.699L24.78,1.222L24.76,1.209L24.73,1.199L23.9,0.7979L23.88,0.7871L23.86,0.7787L22.98,0.4586L22.96,0.45L22.93,0.4438L22.02,0.2092L22,0.2029L21.97,0.1992L21.03,0.05488L21,0.05098L20.98,0.0498L20,0.0005859L19.99,0L19.97,0zM22.19,4.737L21.68,4.788L21.63,4.793L21.58,4.808L21.11,4.955L21.06,4.97L21.02,4.993L20.59,5.226L20.55,5.249L20.51,5.28L20.14,5.589L20.1,5.619L20.07,5.656L19.76,6.03L19.73,6.067L19.71,6.11L19.47,6.539L19.45,6.582L19.43,6.629L19.29,7.104L19.27,7.152L19.27,7.202L19.22,7.711L19.21,7.761L19.22,7.811L19.27,8.32L19.27,8.37L19.29,8.418L19.43,8.893L19.45,8.94L19.47,8.983L19.71,9.412L19.73,9.454L19.76,9.492L20.07,9.866L20.1,9.903L20.13,9.933L20.51,10.24L20.55,10.27L20.59,10.3L21.02,10.53L21.06,10.55L21.11,10.57L21.58,10.71L21.63,10.73L21.68,10.73L22.19,10.79L22.24,10.79L22.29,10.79L22.8,10.73L22.85,10.73L22.9,10.71L23.37,10.57L23.42,10.55L23.46,10.53L23.89,10.3L23.93,10.27L23.97,10.24L24.35,9.933L24.38,9.903L24.41,9.866L24.72,9.492L24.75,9.454L24.78,9.412L25.01,8.983L25.03,8.94L25.05,8.893L25.19,8.418L25.21,8.37L25.21,8.32L25.26,7.811L25.27,7.761L25.26,7.711L25.21,7.202L25.21,7.152L25.19,7.104L25.05,6.629L25.03,6.582L25.01,6.539L24.78,6.11L24.75,6.068L24.72,6.03L24.41,5.656L24.38,5.619L24.35,5.589L23.97,5.28L23.93,5.249L23.89,5.226L23.46,4.993L23.42,4.97L23.37,4.955L22.9,4.808L22.85,4.793L22.8,4.788L22.29,4.737L22.24,4.731zM22.65,5.778L23.03,5.896L23.37,6.082L23.67,6.329L23.92,6.629L24.11,6.973L24.22,7.352L24.26,7.761L24.22,8.17L24.11,8.549L23.92,8.893L23.67,9.193L23.37,9.44L23.03,9.627L22.65,9.744L22.24,9.785L21.83,9.744L21.45,9.627L21.11,9.44L20.81,9.192L20.56,8.893L20.37,8.549L20.26,8.17L20.22,7.761L20.26,7.352L20.37,6.973L20.56,6.629L20.81,6.329L21.11,6.082L21.45,5.896L21.83,5.778L22.24,5.737zz" fill="#E57428"/>
    </g>
    <g id="overlay">
      <path d="M24.5,17.5c-3.866,0,-7,3.134,-7,7c0,3.866,3.134,7,7,7s7,-3.134,7,-7C31.5,20.634,28.366,17.5,24.5,17.5zM23.25,28.669l-3.53,-3.53l0.919,-0.919l2.611,2.611l5.261,-5.261l0.919,0.919L23.25,28.669z" fill="#B2DBB4"/>
      <path d="M24.5,17.5c-3.866,0,-7,3.134,-7,7c0,3.866,3.134,7,7,7s7,-3.134,7,-7C31.5,20.634,28.366,17.5,24.5,17.5zM23.25,28.669l-3.53,-3.53l0.919,-0.919l2.611,2.611l5.261,-5.261l0.919,0.919L23.25,28.669z" fill="#009949" opacity="0.2"/>
      <path d="M24.5,32c-4.135,0,-7.5,-3.365,-7.5,-7.5s3.365,-7.5,7.5,-7.5s7.5,3.365,7.5,7.5S28.635,32,24.5,32zM24.5,18c-3.584,0,-6.5,2.916,-6.5,6.5s2.916,6.5,6.5,6.5s6.5,-2.916,6.5,-6.5S28.084,18,24.5,18z" fill="#009949"/>
      <polygon points="19.72,25.139 20.639,24.22 23.25,26.831 28.511,21.57 29.43,22.489 23.25,28.669" fill="#FFFFFF" stroke-linejoin="miter"/>
    </g>
  </g>
</svg>
