<?xml version="1.0" encoding="UTF-8"?>
<!DOCTYPE svg PUBLIC "-//W3C//DTD SVG 1.1//EN" "http://www.w3.org/Graphics/SVG/1.1/DTD/svg11.dtd">
<svg version="1.1" id="Layer_1" xmlns="http://www.w3.org/2000/svg" xmlns:xlink="http://www.w3.org/1999/xlink" x="0px" y="0px" width="32px" height="32px" viewBox="0 0 32 32" enable-background="new 0 0 32 32" xml:space="preserve">
  <g id="main">
    <clipPath id="clip_mask">
      <path d="M14.32,32H0V0h32v28.935l-7.482,-13.652c-0.224,-0.409,-0.811,-0.409,-1.035,0L14.32,32z"/>
    </clipPath>
    <g id="icon" clip-path="url(#clip_mask)">
      <g id="transformed_icon" transform="translate(-1 -1)">
        <path d="M20.191,18.6c1.608,-2.543,2.292,-5.952,2.082,-10.2c-2.959,-1.9,-7.562,3.9,-12.384,-0.1c-0.079,4.201,0.457,7.825,2.082,10.2c0.373,0.382,-0.867,2.005,-1.372,2.2c3.1,4,7.7,4,11,0C21.176,20.538,19.84,18.963,20.191,18.6z" fill="#FCD8BB"/>
        <path d="M28.5,31c0,-4.684,-2.306,-8.518,-6.95,-10.35c-3.5,4.3,-7.4,4.4,-10.9,0C6.006,22.482,3.5,26.316,3.5,31" fill="#92CBEE" stroke="#0964B0" stroke-width="1.1" stroke-miterlimit="1"/>
        <path d="M20.137,18.418c-0.392,0.461,-0.594,0.849,-1.538,1.385c-0.668,0.379,-1.575,0.813,-2.549,0.813s-1.853,-0.433,-2.522,-0.813c-0.944,-0.536,-1.145,-0.924,-1.538,-1.385" fill="none" stroke="#AF6E41" stroke-width="1.1" stroke-linecap="round" stroke-miterlimit="1"/>
        <path d="M25.928,11.304c-1.165,-8.008,-3.74,-9.681,-9.63,-9.681c-0.035,0.003,-0.344,0,-0.373,0c-5.89,0,-8.417,1.673,-9.582,9.681c-0.735,13.893,1.406,11.409,5.405,8.623c0.447,-0.312,0.524,-1.288,0.214,-1.663c-1.833,-2.216,-2.27,-6.787,-2.27,-9.503c0,-2.004,0.563,0.956,4.077,0.956c2.131,0,8.737,-3.199,8.737,-0.478c0,3.759,-0.85,7.346,-2.342,9.025c-0.316,0.356,0.017,1.333,0.433,1.644C24.812,23.062,26.367,24.679,25.928,11.304z" fill="#999999" stroke="#383838" stroke-width="1.1" stroke-linecap="round" stroke-miterlimit="1" stroke-linejoin="round"/>
      </g>
    </g>
    <g id="overlay">
      <path d="M24,18.5l7.125,13h-14.25L24,18.5z" fill="#F7DA8E" stroke="#E57428" stroke-width="1" stroke-linecap="round" stroke-miterlimit="1"/>
      <path d="M24,23v5M24,29v1" fill="#FFFFFF" stroke="#383838" stroke-width="1.2" stroke-miterlimit="1"/>
    </g>
  </g>
</svg>
