<?xml version="1.0" encoding="UTF-8"?>
<!DOCTYPE svg PUBLIC "-//W3C//DTD SVG 1.1//EN" "http://www.w3.org/Graphics/SVG/1.1/DTD/svg11.dtd">
<svg version="1.1" id="Layer_1" xmlns="http://www.w3.org/2000/svg" xmlns:xlink="http://www.w3.org/1999/xlink" x="0px" y="0px" width="32px" height="32px" viewBox="0 0 32 32" enable-background="new 0 0 32 32" xml:space="preserve">
  <g id="main">
    <g id="icon">
      <path d="M0.5,26.5L15.74,26.5L15.57,25.65L15.5,24.5L15.55,23.58L15.68,22.69L15.91,21.83L16.21,21L16.59,20.21L17.04,19.47L17.56,18.78L18.14,18.14L18.78,17.56L19.47,17.04L20.21,16.59L21,16.21L21.83,15.91L22.69,15.68L23.58,15.55L24.5,15.5L25.65,15.57L26.76,15.79L27.82,16.14L28.82,16.61L29.5,17.04L29.5,4.5L0.5,4.5zz" fill="#CCCCCC"/>
      <path d="M0,4.5L0,26.5L0,27L0.5,27L15.87,27L15.79,26.76L15.64,26L1,26L1,5L29,5L29,16.72L29.74,17.19L30,17.4L30,4.5L30,4L29.5,4L0.5,4L0,4zz" fill="#AEAEAE"/>
      <path d="M15,16.11L29.5,5.101L0.5,5.101zz" fill="#CCCCCC"/>
      <path d="M0.1688,4.726L0.006445,5.021L0.06777,5.352L0.1977,5.499L14.7,16.51L15,16.74L15.3,16.51L29.8,5.499L29.99,5.217L29.95,4.883L29.71,4.647L29.37,4.617L29.2,4.703L15,15.48L0.8023,4.703L0.4814,4.601zz" fill="#AEAEAE"/>
    </g>
    <g id="overlay">
      <circle cx="24.5" cy="24.5" r="7" fill="#FFFFFF" stroke="#EE3D3B" stroke-width="1" stroke-linecap="round" stroke-miterlimit="10"/>
      <path d="M20.922,20.922l7.156,7.156M20.922,28.078l7.156,-7.156" fill="none" stroke="#EE3D3B" stroke-width="1.1" stroke-miterlimit="10"/>
    </g>
  </g>
</svg>
