<?xml version="1.0" encoding="UTF-8"?>
<!DOCTYPE svg PUBLIC "-//W3C//DTD SVG 1.1//EN" "http://www.w3.org/Graphics/SVG/1.1/DTD/svg11.dtd">
<svg version="1.1" id="Layer_1" xmlns="http://www.w3.org/2000/svg" xmlns:xlink="http://www.w3.org/1999/xlink" x="0px" y="0px" width="32px" height="32px" viewBox="0 0 32 32" enable-background="new 0 0 32 32" xml:space="preserve">
  <g id="icon">
    <path d="M1.5,15.5c0,7.732,6.268,14,14,14s14,-6.268,14,-14S23.232,1.5,15.5,1.5S1.5,7.768,1.5,15.5z" fill="#FFFFFF" stroke="#700000" stroke-width="1" stroke-miterlimit="50"/>
    <path d="M11.5,11.808C11.571,10.52,12.283,8.5,15.497,8.5c3.409,0,4.003,2.272,4.003,3.534c0,1.797,-1.432,3.072,-3.973,3.466h-0.651M11.5,19.184c0.071,1.288,0.783,3.308,3.997,3.308c3.409,0,4.003,-2.272,4.003,-3.534c0,-1.634,-1.422,-3.067,-3.973,-3.458h-0.651" fill="none" stroke="#EC0000" stroke-width="1" stroke-miterlimit="50"/>
  </g>
</svg>
