<?xml version="1.0" encoding="UTF-8"?>
<!DOCTYPE svg PUBLIC "-//W3C//DTD SVG 1.1//EN" "http://www.w3.org/Graphics/SVG/1.1/DTD/svg11.dtd">
<svg version="1.1" id="Layer_1" xmlns="http://www.w3.org/2000/svg" xmlns:xlink="http://www.w3.org/1999/xlink" x="0px" y="0px" width="32px" height="32px" viewBox="0 0 32 32" enable-background="new 0 0 32 32" xml:space="preserve">
  <g id="icon">
    <path d="M15.5,1.5c7.732,0,14,6.268,14,14s-6.268,14,-14,14S1.5,23.232,1.5,15.5S7.768,1.5,15.5,1.5z" fill="#FFFFFF" stroke="#700000" stroke-width="1" stroke-miterlimit="50"/>
    <path d="M15.498,8.5c3.149,0,3.802,2.073,3.802,3.25s-0.653,3.297,-3.802,3.297S11.8,12.927,11.8,11.75S12.349,8.5,15.498,8.5zM11.3,18.747c0,1.321,0.619,3.753,4.17,3.753s4.287,-2.432,4.287,-3.753s-0.736,-3.7,-4.287,-3.7S11.3,17.426,11.3,18.747z" fill="none" stroke="#EC0000" stroke-width="1" stroke-miterlimit="50"/>
  </g>
</svg>
