<?xml version="1.0" encoding="UTF-8"?>
<!DOCTYPE svg PUBLIC "-//W3C//DTD SVG 1.1//EN" "http://www.w3.org/Graphics/SVG/1.1/DTD/svg11.dtd">
<svg version="1.1" id="Layer_1" xmlns="http://www.w3.org/2000/svg" xmlns:xlink="http://www.w3.org/1999/xlink" x="0px" y="0px" width="32px" height="32px" viewBox="0 0 32 32" enable-background="new 0 0 32 32" xml:space="preserve">
  <g id="icon">
    <path d="M15.5,1.5c7.732,0,14,6.268,14,14s-6.268,14,-14,14S1.5,23.232,1.5,15.5S7.768,1.5,15.5,1.5z" fill="#FFFFFF" stroke="#700000" stroke-width="1" stroke-miterlimit="50"/>
    <path d="M19.529,12.587c0,-1.453,-0.596,-4.07,-4.014,-4.07c-3.418,0,-4.014,2.617,-4.014,4.07c0,1.453,0.596,4.07,4.014,4.07C18.933,16.658,19.529,14.04,19.529,12.587zM19.501,12.617v3.136c0,3.035,0.18,7.289,-6.879,6.69l-0.582,-0.138" fill="#FFFFFF" stroke="#EC0000" stroke-width="1" stroke-miterlimit="50"/>
  </g>
</svg>
