<?xml version="1.0" encoding="UTF-8"?>
<!DOCTYPE svg PUBLIC "-//W3C//DTD SVG 1.1//EN" "http://www.w3.org/Graphics/SVG/1.1/DTD/svg11.dtd">
<svg version="1.1" id="Layer_1" xmlns="http://www.w3.org/2000/svg" xmlns:xlink="http://www.w3.org/1999/xlink" x="0px" y="0px" width="32px" height="32px" viewBox="0 0 32 32" enable-background="new 0 0 32 32" xml:space="preserve">
  <g id="main">
    <g id="icon">
      <path d="M0.5,26.5L15.1,26.5L21.05,15.5L29.5,15.5L29.5,8.5L0.5,8.5zz" fill="#FFFFFF"/>
      <path d="M0,8.5L0,26.5L0,27L0.5,27L14.83,27L15.37,26L1,26L1,9L29,9L29,15.5L30,15.5L30,8.5L30,8L29.5,8L0.5,8L0,8zz" fill="#383838"/>
      <path d="M0.5,8.5L29.5,8.5L29.5,3.5L0.5,3.5zz" fill="#92CBEE"/>
      <path d="M0,3.5L0,8.5L0,9L0.5,9L29.5,9L30,9L30,8.5L30,3.5L30,3L29.5,3L0.5,3L0,3zM29,4L29,8L1,8L1,4zz" fill="#0964B0"/>
      <path d="M5.712,15.53L5.434,15.61L5.173,15.75L4.938,15.94L4.746,16.17L4.609,16.43L4.527,16.71L4.5,17L4.528,17.29L4.61,17.56L4.748,17.82L4.94,18.06L5.176,18.25L5.437,18.39L5.715,18.47L6.002,18.5L6.288,18.47L6.566,18.39L6.826,18.25L7.061,18.06L7.253,17.83L7.39,17.57L7.472,17.29L7.499,17L7.471,16.72L7.389,16.44L7.251,16.18L7.059,15.94L6.824,15.75L6.563,15.61L6.285,15.53L5.998,15.5zM10.71,15.53L10.43,15.61L10.17,15.75L9.938,15.94L9.746,16.17L9.609,16.43L9.527,16.71L9.5,17L9.528,17.29L9.61,17.56L9.748,17.82L9.94,18.06L10.18,18.25L10.44,18.39L10.72,18.47L11,18.5L11.29,18.47L11.57,18.39L11.83,18.25L12.06,18.06L12.25,17.83L12.39,17.57L12.47,17.29L12.5,17L12.47,16.72L12.39,16.44L12.25,16.18L12.06,15.94L11.82,15.75L11.56,15.61L11.28,15.53L11,15.5zM15.71,15.53L15.43,15.61L15.17,15.75L14.94,15.94L14.75,16.17L14.61,16.43L14.53,16.71L14.5,17L14.53,17.29L14.61,17.56L14.75,17.82L14.94,18.06L15.18,18.25L15.44,18.39L15.72,18.47L16,18.5L16.29,18.47L16.57,18.39L16.83,18.25L17.06,18.06L17.25,17.83L17.39,17.57L17.47,17.29L17.5,17L17.47,16.72L17.39,16.44L17.25,16.18L17.06,15.94L16.82,15.75L16.56,15.61L16.28,15.53L16,15.5zz" fill="#F7DA8E"/>
      <path d="M5.951,15L5.664,15.03L5.616,15.03L5.57,15.05L5.292,15.13L5.245,15.14L5.201,15.17L4.94,15.3L4.896,15.33L4.857,15.36L4.622,15.55L4.583,15.58L4.551,15.62L4.359,15.86L4.327,15.9L4.304,15.94L4.166,16.2L4.144,16.25L4.129,16.29L4.047,16.57L4.034,16.62L4.029,16.67L4.002,16.95L3.998,17L4.002,17.05L4.03,17.33L4.035,17.38L4.048,17.43L4.131,17.71L4.145,17.75L4.168,17.8L4.305,18.06L4.329,18.1L4.361,18.14L4.553,18.38L4.585,18.42L4.624,18.45L4.86,18.64L4.898,18.67L4.943,18.69L5.204,18.83L5.247,18.86L5.295,18.87L5.573,18.95L5.619,18.97L5.667,18.97L5.954,19L6.001,19L6.049,19L6.335,18.97L6.383,18.97L6.43,18.95L6.707,18.87L6.755,18.86L6.798,18.83L7.059,18.7L7.104,18.67L7.143,18.64L7.378,18.45L7.416,18.42L7.448,18.38L7.64,18.14L7.672,18.1L7.696,18.06L7.833,17.8L7.855,17.76L7.869,17.71L7.952,17.43L7.965,17.38L7.97,17.34L7.997,17.05L8.001,17L7.997,16.95L7.969,16.67L7.964,16.62L7.951,16.57L7.868,16.29L7.854,16.25L7.831,16.2L7.694,15.94L7.67,15.9L7.638,15.86L7.446,15.62L7.414,15.59L7.375,15.55L7.14,15.36L7.101,15.33L7.057,15.31L6.796,15.17L6.752,15.15L6.705,15.13L6.427,15.05L6.381,15.04L6.333,15.03L6.046,15L5.999,15zM10.95,15L10.66,15.03L10.62,15.03L10.57,15.05L10.29,15.13L10.24,15.14L10.2,15.17L9.94,15.3L9.896,15.33L9.857,15.36L9.622,15.55L9.583,15.58L9.551,15.62L9.359,15.86L9.327,15.9L9.304,15.94L9.166,16.2L9.144,16.25L9.129,16.29L9.047,16.57L9.034,16.62L9.029,16.67L9.002,16.95L8.998,17L9.002,17.05L9.03,17.33L9.035,17.38L9.048,17.43L9.131,17.71L9.145,17.75L9.168,17.8L9.305,18.06L9.329,18.1L9.361,18.14L9.553,18.38L9.585,18.42L9.624,18.45L9.86,18.64L9.898,18.67L9.943,18.69L10.2,18.83L10.25,18.86L10.29,18.87L10.57,18.95L10.62,18.97L10.67,18.97L10.95,19L11,19L11.05,19L11.34,18.97L11.38,18.97L11.43,18.95L11.71,18.87L11.75,18.86L11.8,18.83L12.06,18.7L12.1,18.67L12.14,18.64L12.38,18.45L12.42,18.42L12.45,18.38L12.64,18.14L12.67,18.1L12.7,18.06L12.83,17.8L12.86,17.76L12.87,17.71L12.95,17.43L12.97,17.38L12.97,17.34L13,17.05L13,17L13,16.95L12.97,16.67L12.96,16.62L12.95,16.57L12.87,16.29L12.85,16.25L12.83,16.2L12.69,15.94L12.67,15.9L12.64,15.86L12.45,15.62L12.41,15.59L12.38,15.55L12.14,15.36L12.1,15.33L12.06,15.31L11.8,15.17L11.75,15.15L11.71,15.13L11.43,15.05L11.38,15.04L11.33,15.03L11.05,15L11,15zM15.95,15L15.66,15.03L15.62,15.03L15.57,15.05L15.29,15.13L15.24,15.14L15.2,15.17L14.94,15.3L14.9,15.33L14.86,15.36L14.62,15.55L14.58,15.58L14.55,15.62L14.36,15.86L14.33,15.9L14.3,15.94L14.17,16.2L14.14,16.25L14.13,16.29L14.05,16.57L14.03,16.62L14.03,16.67L14,16.95L14,17L14,17.05L14.03,17.33L14.03,17.38L14.05,17.43L14.13,17.71L14.14,17.75L14.17,17.8L14.31,18.06L14.33,18.1L14.36,18.14L14.55,18.38L14.58,18.42L14.62,18.45L14.86,18.64L14.9,18.67L14.94,18.69L15.2,18.83L15.25,18.86L15.29,18.87L15.57,18.95L15.62,18.97L15.67,18.97L15.95,19L16,19L16.05,19L16.34,18.97L16.38,18.97L16.43,18.95L16.71,18.87L16.75,18.86L16.8,18.83L17.06,18.7L17.1,18.67L17.14,18.64L17.38,18.45L17.42,18.42L17.45,18.38L17.64,18.14L17.67,18.1L17.7,18.06L17.83,17.8L17.86,17.76L17.87,17.71L17.95,17.43L17.97,17.38L17.97,17.34L18,17.05L18,17L18,16.95L17.97,16.67L17.96,16.62L17.95,16.57L17.87,16.29L17.85,16.25L17.83,16.2L17.69,15.94L17.67,15.9L17.64,15.86L17.45,15.62L17.41,15.59L17.38,15.55L17.14,15.36L17.1,15.33L17.06,15.31L16.8,15.17L16.75,15.15L16.71,15.13L16.43,15.05L16.38,15.04L16.33,15.03L16.05,15L16,15zM6.189,16.02L6.373,16.08L6.546,16.17L6.704,16.3L6.833,16.45L6.924,16.63L6.978,16.81L6.997,17L6.979,17.19L6.924,17.38L6.834,17.55L6.705,17.71L6.549,17.83L6.377,17.93L6.192,17.98L6.002,18L5.811,17.98L5.627,17.92L5.453,17.83L5.296,17.7L5.166,17.55L5.075,17.37L5.021,17.19L5.002,17L5.02,16.81L5.075,16.62L5.165,16.45L5.293,16.29L5.45,16.17L5.623,16.08L5.807,16.02L5.997,16zM11.19,16.02L11.37,16.08L11.55,16.17L11.7,16.3L11.83,16.45L11.92,16.63L11.98,16.81L12,17L11.98,17.19L11.92,17.38L11.83,17.55L11.71,17.71L11.55,17.83L11.38,17.93L11.19,17.98L11,18L10.81,17.98L10.63,17.92L10.45,17.83L10.3,17.7L10.17,17.55L10.08,17.37L10.02,17.19L10,17L10.02,16.81L10.07,16.62L10.17,16.45L10.29,16.29L10.45,16.17L10.62,16.08L10.81,16.02L11,16zM16.19,16.02L16.37,16.08L16.55,16.17L16.7,16.3L16.83,16.45L16.92,16.63L16.98,16.81L17,17L16.98,17.19L16.92,17.38L16.83,17.55L16.71,17.71L16.55,17.83L16.38,17.93L16.19,17.98L16,18L15.81,17.98L15.63,17.92L15.45,17.83L15.3,17.7L15.17,17.55L15.08,17.37L15.02,17.19L15,17L15.02,16.81L15.07,16.62L15.17,16.45L15.29,16.29L15.45,16.17L15.62,16.08L15.81,16.02L16,16zM19,19L19.16,19L19.7,18L19,18zz" fill="#E57428"/>
    </g>
    <g id="overlay">
      <path d="M26.087,23h3.584l-10.737,8.5l-0.767,0.002L20.966,25h-3.08l4.057,-7.5h8.668L26.087,23z" fill="#F7DA8E" stroke="#E57428" stroke-width="1" stroke-linecap="round" stroke-miterlimit="10"/>
    </g>
  </g>
</svg>
