<?xml version="1.0" encoding="UTF-8"?>
<!DOCTYPE svg PUBLIC "-//W3C//DTD SVG 1.1//EN" "http://www.w3.org/Graphics/SVG/1.1/DTD/svg11.dtd">
<svg version="1.1" id="Layer_1" xmlns="http://www.w3.org/2000/svg" xmlns:xlink="http://www.w3.org/1999/xlink" x="0px" y="0px" width="32px" height="32px" viewBox="0 0 32 32" enable-background="new 0 0 32 32" xml:space="preserve">
  <g id="main">
    <g id="icon">
      <path d="M13.81,17.73L12.59,17.92L11.4,18.22L10.27,18.63L9.191,19.15L8.175,19.77L7.225,20.48L6.347,21.27L5.55,22.14L4.841,23.09L4.222,24.11L3.703,25.19L3.288,26.32L2.984,27.51L2.797,28.73L2.734,30L16.5,30L16.5,29.5L16.5,28.5L16.5,25.5L16.5,24.5L16.5,21.5L16.5,20.5L16.5,17.76L16.33,17.73L15.07,17.67z" fill="#FFFFFF"/>
      <path d="M15.05,17.12L13.78,17.18L13.76,17.18L13.73,17.19L12.5,17.38L12.48,17.38L12.45,17.39L11.27,17.69L11.24,17.7L11.22,17.7L10.08,18.12L10.06,18.13L10.03,18.14L8.953,18.66L8.928,18.67L8.906,18.68L7.888,19.3L7.866,19.31L7.844,19.33L6.894,20.03L6.875,20.05L6.853,20.07L5.978,20.86L5.959,20.88L5.941,20.9L5.144,21.77L5.125,21.79L5.109,21.81L4.4,22.76L4.384,22.78L4.372,22.81L3.753,23.82L3.738,23.84L3.728,23.87L3.206,24.95L3.197,24.97L3.188,25L2.772,26.13L2.763,26.16L2.756,26.18L2.45,27.37L2.444,27.4L2.441,27.42L2.253,28.65L2.25,28.68L2.247,28.71L2.184,29.97L3.281,30.03L3.344,28.79L3.522,27.62L3.813,26.48L4.209,25.4L4.706,24.37L5.297,23.4L5.975,22.49L6.738,21.66L7.575,20.9L8.481,20.23L9.453,19.63L10.48,19.14L11.57,18.75L12.7,18.46L13.87,18.28L15.07,18.22L16.28,18.28L16.5,18.32L16.5,17.2L16.42,17.19L16.39,17.18L16.36,17.18L15.1,17.12L15.07,17.12z" fill="#383838"/>
      <path d="M14.12,21.83L13.17,30L16.5,30L16.5,29.5L16.5,28.5L16.5,25.93L16.03,21.86L16.5,20.7L16.5,20.5L16.5,19.53L13.17,19.53z" fill="#EF3E3B"/>
      <path d="M14.23,0.6375L13.49,0.75L12.77,0.9344L12.08,1.181L11.43,1.494L10.81,1.863L10.23,2.284L9.697,2.756L9.213,3.275L8.781,3.834L8.406,4.428L8.091,5.059L7.838,5.719L7.653,6.403L7.538,7.106L7.5,7.828L7.538,8.578L7.653,9.363L7.838,10.17L8.091,10.98L8.406,11.8L8.781,12.6L9.213,13.38L9.697,14.13L10.23,14.83L10.81,15.47L11.43,16.04L12.08,16.54L12.77,16.94L13.49,17.25L14.23,17.44L15,17.5L15.77,17.44L16.5,17.25L16.5,16.5L17.97,16.5L18.58,16.04L19.19,15.47L19.77,14.83L20.3,14.13L20.79,13.38L21.22,12.6L21.59,11.8L21.91,10.98L22.16,10.17L22.35,9.363L22.46,8.578L22.5,7.828L22.46,7.106L22.35,6.403L22.16,5.719L21.91,5.059L21.59,4.428L21.22,3.831L20.79,3.275L20.3,2.756L19.77,2.284L19.19,1.863L18.58,1.494L17.92,1.181L17.23,0.9344L16.51,0.75L15.77,0.6375L15,0.6z" fill="#FCD8BB"/>
      <path d="M14.21,0.09063L14.18,0.09063L14.15,0.09375L13.41,0.2063L13.38,0.2125L13.35,0.2188L12.63,0.4L12.61,0.4063L12.58,0.4156L11.89,0.6656L11.87,0.675L11.84,0.6844L11.19,0.9969L11.17,1.006L11.14,1.022L10.53,1.391L10.5,1.403L10.48,1.419L9.903,1.841L9.884,1.856L9.866,1.872L9.331,2.344L9.313,2.363L9.294,2.381L8.813,2.897L8.794,2.919L8.778,2.938L8.347,3.497L8.328,3.519L8.316,3.541L7.941,4.138L7.925,4.159L7.913,4.184L7.597,4.813L7.584,4.838L7.575,4.863L7.325,5.522L7.313,5.547L7.306,5.575L7.122,6.259L7.113,6.288L7.109,6.316L6.997,7.019L6.991,7.047L6.991,7.078L6.95,7.8L6.95,7.828L6.95,7.856L6.991,8.606L6.991,8.631L6.994,8.656L7.109,9.441L7.113,9.463L7.116,9.484L7.3,10.29L7.306,10.31L7.313,10.33L7.563,11.14L7.569,11.16L7.578,11.18L7.894,11.99L7.9,12.01L7.906,12.03L8.281,12.83L8.291,12.85L8.3,12.87L8.731,13.64L8.741,13.66L8.75,13.68L9.234,14.43L9.247,14.44L9.259,14.46L9.791,15.16L9.806,15.18L9.819,15.19L10.4,15.83L10.41,15.85L10.43,15.87L11.05,16.45L11.07,16.47L11.09,16.48L11.75,16.98L11.78,17L11.8,17.01L12.49,17.42L12.52,17.44L12.56,17.45L13.28,17.75L13.31,17.77L13.35,17.78L14.1,17.97L14.14,17.98L14.19,17.99L14.95,18.05L15,18.06L15.05,18.05L15.81,17.99L15.86,17.98L15.9,17.97L16.5,17.82L16.5,16.66L16.33,16.73L15.68,16.89L15,16.95L14.33,16.89L13.67,16.73L13.02,16.45L12.39,16.08L11.78,15.62L11.2,15.08L10.65,14.48L10.15,13.81L9.684,13.1L9.272,12.35L8.913,11.58L8.609,10.8L8.369,10.02L8.194,9.259L8.088,8.525L8.05,7.828L8.088,7.166L8.191,6.519L8.359,5.888L8.594,5.281L8.884,4.7L9.231,4.15L9.631,3.631L10.08,3.15L10.58,2.713L11.11,2.322L11.68,1.978L12.29,1.691L12.93,1.459L13.6,1.291L14.29,1.188L15,1.15L15.71,1.188L16.4,1.291L17.07,1.459L17.71,1.691L18.32,1.978L18.89,2.322L19.43,2.713L19.92,3.15L20.37,3.631L20.77,4.147L21.12,4.7L21.41,5.281L21.64,5.888L21.81,6.519L21.91,7.166L21.95,7.828L21.91,8.525L21.81,9.259L21.63,10.02L21.39,10.8L21.09,11.58L20.73,12.35L20.32,13.1L19.85,13.81L19.35,14.48L18.8,15.08L18.22,15.62L17.61,16.08L16.98,16.45L16.87,16.5L18.88,16.5L18.91,16.48L18.93,16.47L18.95,16.45L19.57,15.87L19.59,15.85L19.6,15.83L20.18,15.19L20.19,15.18L20.21,15.16L20.74,14.46L20.75,14.44L20.77,14.43L21.25,13.68L21.26,13.66L21.27,13.65L21.7,12.87L21.71,12.85L21.72,12.83L22.09,12.03L22.1,12.01L22.11,11.99L22.42,11.18L22.43,11.16L22.44,11.14L22.69,10.33L22.69,10.31L22.7,10.29L22.88,9.484L22.89,9.463L22.89,9.441L23.01,8.656L23.01,8.631L23.01,8.606L23.05,7.856L23.05,7.828L23.05,7.8L23.01,7.078L23.01,7.047L23,7.019L22.89,6.316L22.89,6.288L22.88,6.259L22.69,5.575L22.69,5.547L22.68,5.522L22.43,4.863L22.42,4.838L22.4,4.813L22.09,4.181L22.08,4.159L22.06,4.138L21.68,3.541L21.67,3.519L21.65,3.497L21.22,2.938L21.21,2.916L21.19,2.897L20.71,2.381L20.69,2.363L20.67,2.344L20.13,1.872L20.12,1.856L20.1,1.841L19.52,1.419L19.5,1.403L19.48,1.391L18.86,1.022L18.83,1.006L18.81,0.9969L18.16,0.6844L18.13,0.675L18.11,0.6656L17.42,0.4156L17.39,0.4063L17.37,0.4L16.65,0.2188L16.62,0.2125L16.59,0.2063L15.85,0.09375L15.82,0.09063L15.79,0.09063L15.03,0.05L15,0.05L14.97,0.05z" fill="#AF6E41"/>
      <path d="M14.37,0.625L13.75,0.7031L12.57,0.9969L11.47,1.466L10.48,2.094L9.591,2.856L8.844,3.741L8.244,4.728L7.809,5.8L8.822,6.266L9.713,6.538L10.5,6.644L11.22,6.616L11.88,6.481L12.51,6.272L13.78,5.747L14.46,5.491L15.21,5.281L16.05,5.144L17,5.113L18.08,5.219L19.33,5.488L20.75,5.95L22.39,6.638L22.25,6.019L22.05,5.416L21.8,4.834L21.5,4.278L21.15,3.75L20.76,3.253L20.33,2.788L19.86,2.363L19.35,1.972L18.81,1.625L18.23,1.325L17.63,1.072L17,0.8688L16.35,0.7219L15.68,0.6313L14.99,0.6z" fill="#999999"/>
      <path d="M14.34,0.075L14.3,0.08125L13.68,0.1563L13.62,0.1688L12.43,0.4625L12.35,0.4906L11.26,0.9625L11.18,1L10.18,1.628L10.11,1.678L9.231,2.441L9.172,2.5L8.422,3.388L8.372,3.456L7.772,4.444L7.734,4.522L7.297,5.594L7.269,6.013L7.578,6.3L8.591,6.766L8.659,6.794L9.55,7.066L9.638,7.084L10.43,7.191L10.53,7.194L11.24,7.166L11.33,7.156L11.98,7.022L12.05,7.003L12.68,6.794L12.72,6.781L13.98,6.259L14.63,6.016L15.33,5.819L16.1,5.694L16.98,5.666L18,5.763L19.18,6.019L20.56,6.466L22.17,7.147L22.47,7.191L22.74,7.059L22.92,6.816L22.92,6.516L22.78,5.897L22.77,5.847L22.57,5.247L22.56,5.2L22.31,4.619L22.28,4.575L21.98,4.019L21.96,3.978L21.62,3.45L21.59,3.413L21.2,2.913L21.17,2.878L20.73,2.413L20.7,2.381L20.23,1.953L20.19,1.925L19.68,1.534L19.65,1.509L19.1,1.163L19.06,1.138L18.49,0.8375L18.45,0.8188L17.84,0.5656L17.8,0.5469L17.17,0.3469L17.13,0.3344L16.48,0.1844L16.43,0.1781L15.76,0.08438L15.71,0.08125L15.02,0.05L14.97,0.05M15.63,1.178L16.26,1.263L16.86,1.4L17.44,1.588L18,1.822L18.53,2.103L19.03,2.422L19.51,2.784L19.94,3.181L20.34,3.613L20.71,4.072L21.03,4.563L21.3,5.075L21.53,5.609L21.56,5.694L20.97,5.444L20.93,5.428L19.5,4.963L19.44,4.95L18.2,4.681L18.14,4.672L17.05,4.566L16.98,4.566L16.03,4.594L15.96,4.603L15.12,4.738L15.06,4.75L14.31,4.963L14.27,4.975L13.58,5.231L13.57,5.238L12.32,5.756L11.73,5.95L11.15,6.069L10.53,6.094L9.828,6L9.019,5.753L8.516,5.519L8.734,4.978L9.291,4.066L9.984,3.244L10.8,2.538L11.73,1.956L12.74,1.519L13.85,1.244L14.41,1.175L14.99,1.15z" fill="#383838"/>
    </g>
    <g id="overlay">
      <path d="M32,32H21v-1h11V32zM32,28H21v-1h11V28zM32,24H21v-1h11V24zM32,20H21v-1h11V20z" fill="#383838"/>
      <rect x="18" y="18" width="2" height="2" fill="#383838"/>
      <rect x="18" y="22" width="2" height="2" fill="#383838"/>
      <rect x="18" y="26" width="2" height="2" fill="#383838"/>
      <rect x="18" y="30" width="2" height="2" fill="#383838"/>
    </g>
  </g>
</svg>
