<?xml version="1.0" encoding="UTF-8"?>
<!DOCTYPE svg PUBLIC "-//W3C//DTD SVG 1.1//EN" "http://www.w3.org/Graphics/SVG/1.1/DTD/svg11.dtd">
<svg version="1.1" id="Layer_1" xmlns="http://www.w3.org/2000/svg" xmlns:xlink="http://www.w3.org/1999/xlink" x="0px" y="0px" width="32px" height="32px" viewBox="0 0 32 32" enable-background="new 0 0 32 32" xml:space="preserve">
  <g id="main">
    <g id="icon">
      <path d="M19.44,7.028L18.77,7.145L17.33,7.588L15.78,8.138L14.97,8.388L14.15,8.588L13.3,8.713L12.44,8.736L11.57,8.632L10.68,8.375L9.79,7.939L8.889,7.3L8.889,8.847L8.953,10.33L9.085,11.75L9.291,13.08L9.577,14.34L9.949,15.5L10.41,16.55L10.97,17.5L11.04,17.7L10.98,17.98L10.83,18.31L10.61,18.67L10.08,19.33L9.818,19.57L9.599,19.7L10.2,20.4L10.83,21.01L11.48,21.53L12.16,21.95L12.86,22.28L13.57,22.51L14.29,22.65L15.02,22.7L15.76,22.65L16.49,22.51L17.21,22.28L17.92,21.95L18.51,21.6L18.5,21.57L18.54,20.85L18.65,20.16L18.82,19.49L19.05,18.84L19.33,18.27L19.2,18.06L19.13,17.79L19.19,17.6L19.75,16.61L20.22,15.53L20.61,14.38L20.91,13.14L21.13,11.82L21.26,10.43L21.31,8.954L21.27,7.4L20.7,7.13L20.09,7.014zz" fill="#FCD8BB"/>
      <path d="M8.804,20.02L8.009,20.43L7.266,20.88L6.574,21.38L5.934,21.92L5.347,22.49L4.813,23.11L4.334,23.76L3.908,24.44L3.538,25.15L3.223,25.89L2.964,26.66L2.762,27.46L2.617,28.29L2.529,29.13L2.5,30L17.79,30L20.23,26.19L19.84,25.7L19.49,25.17L19.2,24.63L18.95,24.05L18.76,23.46L18.62,22.84L18.53,22.21L18.51,21.65L17.86,22.08L17.18,22.44L16.49,22.7L15.79,22.86L15.1,22.91L14.41,22.87L13.71,22.72L13.02,22.47L12.34,22.11L11.66,21.65L10.98,21.09L10.31,20.42L9.65,19.65zz" fill="#92CBEE"/>
      <path d="M9.431,19.15L8.586,19.51L8.568,19.52L8.551,19.53L7.756,19.94L7.739,19.95L7.722,19.96L6.979,20.42L6.961,20.43L6.945,20.44L6.253,20.93L6.236,20.95L6.22,20.96L5.58,21.5L5.564,21.51L5.549,21.53L4.962,22.1L4.946,22.12L4.932,22.13L4.398,22.75L4.384,22.76L4.371,22.78L3.891,23.43L3.879,23.45L3.867,23.46L3.442,24.15L3.43,24.16L3.42,24.18L3.05,24.9L3.04,24.92L3.031,24.94L2.717,25.68L2.708,25.7L2.702,25.72L2.443,26.49L2.436,26.51L2.431,26.53L2.229,27.33L2.224,27.35L2.22,27.37L2.075,28.19L2.072,28.21L2.07,28.23L1.982,29.08L1.98,29.09L1.98,29.11L1.95,29.98L3.05,30.02L3.078,29.17L3.162,28.36L3.3,27.58L3.492,26.82L3.738,26.09L4.035,25.39L4.386,24.71L4.788,24.07L5.243,23.45L5.748,22.87L6.304,22.33L6.913,21.82L7.57,21.34L8.279,20.91L9.041,20.51L9.496,20.32L9.893,20.78L9.907,20.8L9.922,20.81L10.59,21.48L10.61,21.5L10.63,21.51L11.3,22.08L11.33,22.09L11.35,22.11L12.03,22.57L12.06,22.58L12.08,22.6L12.77,22.95L12.8,22.97L12.84,22.98L13.53,23.23L13.56,23.25L13.6,23.26L14.29,23.4L14.33,23.41L14.37,23.41L15.06,23.46L15.1,23.46L15.14,23.46L15.84,23.41L15.88,23.4L15.92,23.39L16.61,23.24L16.64,23.23L16.68,23.21L17.37,22.96L17.4,22.94L17.43,22.93L18.12,22.57L18.14,22.56L18.17,22.54L18.54,22.29L18.53,22.21L18.5,21.57L18.54,20.92L18.21,21.18L17.58,21.61L16.95,21.94L16.33,22.17L15.71,22.31L15.1,22.36L14.48,22.32L13.87,22.19L13.25,21.96L12.62,21.64L11.99,21.21L11.35,20.68L10.71,20.05L10.07,19.29L9.804,18.98zz" fill="#0964B0"/>
      <path d="M10.74,16.93L10.49,17.18L10.45,17.54L10.57,17.77L11.13,18.44L11.16,18.47L11.19,18.5L11.58,18.84L11.61,18.87L11.65,18.89L12.23,19.26L12.25,19.28L12.27,19.29L12.81,19.58L12.83,19.59L12.85,19.6L13.46,19.86L13.49,19.87L13.52,19.88L14.19,20.07L14.23,20.08L14.28,20.09L14.99,20.16L15.05,20.17L15.11,20.16L15.82,20.09L15.87,20.08L15.92,20.07L16.59,19.88L16.62,19.87L16.65,19.86L17.27,19.6L17.29,19.59L17.31,19.58L17.86,19.29L17.88,19.28L17.9,19.26L18.48,18.89L18.51,18.87L18.54,18.84L18.94,18.5L18.97,18.47L18.99,18.44L19.56,17.77L19.69,17.44L19.58,17.09L19.29,16.89L18.93,16.91L18.72,17.06L18.18,17.7L17.85,17.99L17.32,18.33L16.82,18.59L16.26,18.83L15.66,19L15.05,19.06L14.44,19L13.86,18.83L13.31,18.59L12.81,18.33L12.28,17.99L11.95,17.7L11.41,17.06L11.1,16.88zz" fill="#AF6E41"/>
      <path d="M13.86,0.6438L12.87,0.7105L11.95,0.8303L11.11,1.01L10.33,1.255L9.612,1.575L8.958,1.974L8.362,2.461L7.822,3.041L7.334,3.722L6.895,4.51L6.503,5.413L6.155,6.437L5.848,7.589L5.578,8.876L5.343,10.3L5.239,12.72L5.2,14.78L5.226,16.5L5.315,17.9L5.465,19.02L5.676,19.87L5.945,20.48L6.27,20.87L6.651,21.06L7.087,21.09L7.574,20.96L8.113,20.71L9.338,19.93L10.75,18.93L10.9,18.78L11.01,18.59L11.14,18.12L11.12,17.64L11.06,17.43L10.96,17.26L10.63,16.82L10.34,16.33L9.834,15.23L9.438,14L9.14,12.7L8.927,11.38L8.789,10.08L8.714,8.858L8.692,7.761L8.723,7.227L8.767,7.105L8.835,7.065L9.055,7.183L9.413,7.488L9.935,7.886L10.65,8.286L11.09,8.457L11.58,8.594L12.14,8.684L12.77,8.717L13.22,8.682L13.76,8.585L15.03,8.26L16.47,7.848L17.94,7.458L19.3,7.195L19.91,7.144L20.44,7.166L20.88,7.273L21.22,7.478L21.43,7.796L21.51,8.239L21.47,9.637L21.35,11L21.16,12.3L20.89,13.53L20.56,14.66L20.16,15.67L19.69,16.55L19.16,17.26L19.07,17.42L19.04,17.63L19.11,18.1L19.25,18.43L19.35,18.23L19.7,17.65L20.1,17.11L20.56,16.61L21.05,16.16L21.59,15.75L22.17,15.4L22.78,15.1L23.42,14.87L24.09,14.69L24.79,14.59L25,14.58L24.93,10.3L24.69,8.876L24.42,7.589L24.11,6.437L23.76,5.413L23.36,4.51L22.92,3.722L22.43,3.041L21.88,2.461L21.28,1.974L20.63,1.575L19.91,1.255L19.12,1.01L18.27,0.8303L17.36,0.7105L16.36,0.6438L15.3,0.623L14.93,0.623zz" fill="#999999"/>
      <path d="M13.85,0.09395L13.82,0.09492L12.83,0.1617L12.8,0.1652L11.88,0.2848L11.84,0.2922L10.99,0.4715L10.94,0.485L10.16,0.7309L10.1,0.7531L9.388,1.072L9.325,1.105L8.671,1.505L8.61,1.548L8.014,2.034L7.96,2.086L7.419,2.666L7.375,2.721L6.887,3.401L6.853,3.454L6.415,4.243L6.391,4.291L5.999,5.194L5.983,5.236L5.634,6.26L5.624,6.295L5.316,7.447L5.309,7.476L5.04,8.763L5.035,8.786L4.8,10.21L4.794,10.28L4.689,12.7L4.689,12.71L4.65,14.77L4.65,14.79L4.676,16.51L4.677,16.53L4.766,17.94L4.77,17.98L4.92,19.09L4.931,19.15L5.142,20L5.173,20.09L5.441,20.7L5.523,20.83L5.848,21.22L6.021,21.36L6.402,21.55L6.624,21.61L7.059,21.64L7.225,21.62L7.712,21.49L7.807,21.46L8.346,21.21L8.409,21.17L9.634,20.39L9.655,20.38L11.07,19.38L11.13,19.32L11.28,19.18L11.37,19.06L11.49,18.87L11.54,18.73L11.67,18.26L11.69,18.1L11.67,17.62L11.65,17.48L11.59,17.27L11.53,17.15L11.44,16.98L11.4,16.94L11.09,16.52L10.82,16.07L10.35,15.03L9.969,13.85L9.68,12.59L9.472,11.3L9.337,10.04L9.264,8.838L9.248,8.054L9.601,8.323L9.666,8.366L10.38,8.766L10.45,8.798L10.89,8.969L10.94,8.987L11.44,9.124L11.5,9.137L12.06,9.227L12.12,9.233L12.74,9.266L12.81,9.265L13.26,9.23L13.32,9.223L13.85,9.126L13.89,9.118L15.17,8.793L15.18,8.788L16.62,8.377L18.06,7.994L19.38,7.74L19.92,7.695L20.36,7.713L20.67,7.787L20.83,7.885L20.91,8.004L20.95,8.278L20.92,9.605L20.8,10.93L20.62,12.21L20.36,13.39L20.04,14.48L19.66,15.44L19.23,16.25L18.72,16.94L18.68,17L18.59,17.16L18.53,17.33L18.5,17.53L18.5,17.7L18.56,18.18L18.6,18.32L18.81,18.79L18.89,18.93L18.98,19.04L19.05,18.84L19.35,18.23L19.62,17.79L19.6,17.64L19.6,17.61L19.63,17.56L20.14,16.88L20.18,16.81L20.64,15.93L20.67,15.88L21.07,14.86L21.09,14.82L21.42,13.69L21.43,13.65L21.7,12.42L21.7,12.38L21.89,11.08L21.9,11.05L22.01,9.684L22.02,9.653L22.06,8.254L22.05,8.147L21.97,7.704L21.89,7.489L21.67,7.172L21.51,7.009L21.17,6.804L21.01,6.738L20.57,6.631L20.46,6.616L19.93,6.595L19.86,6.596L19.26,6.646L19.2,6.654L17.83,6.918L17.8,6.926L16.33,7.317L16.32,7.32L14.89,7.73L14.88,7.731L13.64,8.047L13.15,8.136L12.76,8.166L12.2,8.137L11.7,8.055L11.26,7.934L10.88,7.787L10.24,7.425L9.759,7.06L9.412,6.764L9.315,6.698L9.094,6.58L8.739,6.523L8.555,6.592L8.487,6.632L8.254,6.906L8.25,6.918L8.206,7.039L8.174,7.195L8.143,7.729L8.142,7.772L8.164,8.87L8.165,8.892L8.24,10.11L8.242,10.14L8.38,11.44L8.384,11.46L8.597,12.79L8.604,12.82L8.902,14.12L8.915,14.17L9.311,15.4L9.334,15.45L9.838,16.56L9.867,16.61L10.16,17.11L10.19,17.15L10.5,17.57L10.55,17.65L10.58,17.73L10.59,18.06L10.5,18.37L10.46,18.44L10.4,18.5L9.031,19.47L7.848,20.23L7.388,20.44L7.03,20.53L6.796,20.52L6.62,20.43L6.416,20.19L6.198,19.69L6.006,18.92L5.863,17.85L5.776,16.48L5.75,14.78L5.788,12.74L5.891,10.36L6.118,8.979L6.383,7.717L6.682,6.596L7.017,5.612L7.389,4.754L7.799,4.017L8.248,3.39L8.739,2.863L9.276,2.424L9.869,2.062L10.52,1.771L11.25,1.542L12.04,1.373L12.92,1.258L13.89,1.193L14.93,1.173L14.93,1.173L15.3,1.173L15.3,1.173L16.34,1.193L17.3,1.258L18.18,1.373L18.98,1.542L19.71,1.771L20.37,2.063L20.97,2.425L21.51,2.865L22,3.39L22.46,4.018L22.87,4.755L23.25,5.613L23.58,6.597L23.89,7.717L24.15,8.973L24.38,10.35L24.45,14.64L24.79,14.59L25.5,14.55L25.55,14.56L25.48,10.3L25.47,10.21L25.24,8.786L25.23,8.762L24.96,7.475L24.95,7.446L24.64,6.294L24.63,6.258L24.28,5.235L24.26,5.192L23.87,4.289L23.84,4.241L23.4,3.453L23.37,3.399L22.88,2.719L22.83,2.664L22.29,2.084L22.23,2.033L21.63,1.547L21.57,1.504L20.91,1.104L20.85,1.072L20.13,0.7527L20.07,0.7307L19.29,0.4848L19.24,0.4715L18.39,0.292L18.35,0.2848L17.43,0.165L17.39,0.1617L16.4,0.09492L16.37,0.09395L15.31,0.07305L15.3,0.07305L14.93,0.07305L14.91,0.07305zz" fill="#383838"/>
    </g>
    <g id="overlay">
      <path d="M28.235,25.9l2.367,3.654l-2.065,0.024L27.058,31.1l-1.383,-4.447M22.768,25.9l-2.367,3.654l2.065,0.024L23.945,31.1l1.383,-4.447M20.504,21.571c0,2.772,2.238,5.019,4.999,5.019s4.999,-2.247,4.999,-5.019s-2.238,-5.019,-4.999,-5.019S20.504,18.799,20.504,21.571z" fill="#F7BFBF"/>
      <path d="M26.811,32.072l-1.309,-4.682l-1.309,4.682l-1.94,-1.997l-2.707,-0.031l2.617,-4.092c-1.312,-1.01,-2.159,-2.598,-2.159,-4.381c0,-3.043,2.467,-5.519,5.499,-5.519c3.032,0,5.499,2.476,5.499,5.519c0,1.784,-0.848,3.374,-2.161,4.383l2.616,4.09l-2.707,0.031L26.811,32.072zM26.3,27.032l1.006,3.096l1.018,-1.048l1.424,-0.017l-1.752,-2.574C27.473,26.758,26.902,26.944,26.3,27.032zM21.256,29.064l1.424,0.017l1.018,1.048l1.006,-3.096c-0.602,-0.088,-1.173,-0.275,-1.695,-0.543L21.256,29.064zM25.503,17.052c-2.481,0,-4.499,2.027,-4.499,4.519c0,2.492,2.018,4.519,4.499,4.519c2.481,0,4.499,-2.027,4.499,-4.519C30.003,19.079,27.984,17.052,25.503,17.052z" fill="#DB2E2A"/>
    </g>
  </g>
</svg>
