<?xml version="1.0" encoding="UTF-8"?>
<!DOCTYPE svg PUBLIC "-//W3C//DTD SVG 1.1//EN" "http://www.w3.org/Graphics/SVG/1.1/DTD/svg11.dtd">
<svg version="1.1" id="Layer_1" xmlns="http://www.w3.org/2000/svg" xmlns:xlink="http://www.w3.org/1999/xlink" x="0px" y="0px" width="32px" height="32px" viewBox="0 0 32 32" enable-background="new 0 0 32 32" xml:space="preserve">
  <g id="icon">
    <path d="M21.032,30.469c-1.2,-0.366,-2.248,-0.933,-3.218,-1.647c-1.603,-1.18,-2.971,-2.603,-4.217,-4.144c-1.759,-2.174,-3.291,-4.502,-4.671,-6.933c-1.237,-2.179,-2.333,-4.423,-3.088,-6.818c-0.5,-1.587,-0.836,-3.209,-0.727,-4.885c0.033,-0.501,0.115,-1.035,0.331,-1.477c0.181,-0.37,0.56,-0.668,0.904,-0.93c1.094,-0.836,2.315,-1.458,3.584,-1.98c0.632,-0.26,1.266,-0.195,1.822,0.211c0.196,0.143,0.379,0.364,0.464,0.589c0.72,1.908,1.407,3.829,2.124,5.738c0.274,0.729,0.027,1.33,-0.419,1.866c-0.546,0.656,-1.125,1.287,-1.719,1.901c-0.212,0.219,-0.231,0.395,-0.097,0.641c0.787,1.445,1.518,2.922,2.367,4.329c0.727,1.205,1.576,2.338,2.392,3.488c0.572,0.806,0.588,0.799,1.537,0.537c0.577,-0.159,1.147,-0.343,1.727,-0.491c0.579,-0.147,1.163,-0.207,1.712,0.117c0.118,0.07,0.229,0.159,0.323,0.258c1.352,1.427,2.679,2.88,4.06,4.279c0.863,0.874,0.639,1.953,-0.152,2.634c-1.102,0.948,-2.261,1.83,-3.597,2.439C22.003,30.404,21.52,30.572,21.032,30.469z" fill="#FEC58D" stroke="#703700" stroke-width="1" stroke-miterlimit="1"/>
  </g>
</svg>
