<?xml version="1.0" encoding="UTF-8"?>
<!DOCTYPE svg PUBLIC "-//W3C//DTD SVG 1.1//EN" "http://www.w3.org/Graphics/SVG/1.1/DTD/svg11.dtd">
<svg version="1.1" id="Layer_1" xmlns="http://www.w3.org/2000/svg" xmlns:xlink="http://www.w3.org/1999/xlink" x="0px" y="0px" width="32px" height="32px" viewBox="0 0 32 32" enable-background="new 0 0 32 32" xml:space="preserve">
  <g id="icon">
    <rect x="6.5" y="1.5" width="19" height="29" fill="#FFFFFF" stroke="#383838" stroke-width="1" stroke-miterlimit="10"/>
    <path d="M17,29h-2v-2h2V29zM14,3.5h4M18,3h-4v1h4V3z" fill="#78797A"/>
    <path d="M16.007,22.4c1.43,-0.432,2.643,-1.486,3.888,-3.211c0.891,-1.234,1.55,-3.135,1.853,-5.352c0.144,-1.052,0.259,-2.305,0.251,-2.944c-2.394,-0.144,-4.811,-1.354,-5.993,-2.193c-1.182,0.839,-3.612,2.048,-6.006,2.193c-0.008,0.639,0.107,1.892,0.251,2.944c0.304,2.217,0.962,4.117,1.853,5.352C13.351,20.914,14.577,21.968,16.007,22.4z" fill="#FFFFFF" stroke="#228BCB" stroke-width="1.1" stroke-miterlimit="10"/>
  </g>
</svg>
