<?xml version="1.0" encoding="UTF-8"?>
<!DOCTYPE svg PUBLIC "-//W3C//DTD SVG 1.1//EN" "http://www.w3.org/Graphics/SVG/1.1/DTD/svg11.dtd">
<svg version="1.1" id="Layer_1" xmlns="http://www.w3.org/2000/svg" xmlns:xlink="http://www.w3.org/1999/xlink" x="0px" y="0px" width="32px" height="32px" viewBox="0 0 32 32" enable-background="new 0 0 32 32" xml:space="preserve">
  <g id="icon">
    <path d="M3.5,28.033V30.5h26V1.533l0,-0.033H3.5v2.533" fill="#FFFFFF" stroke="#383838" stroke-width="1" stroke-miterlimit="10"/>
    <path d="M1,5.5h5M1,8.5h5M1,11.5h5M1,14.5h5M1,17.5h5M1,20.5h5M1,23.5h5M1,26.5h5" fill="#FFFFFF" stroke="#383838" stroke-width="1" stroke-miterlimit="10"/>
    <polygon points="9.543,17.054 14.042,12.631 18.706,15.824 22.861,11.129 19.776,11.204 19.751,10.158 24.708,10.037 24.587,14.857 23.541,14.831 23.616,11.856 18.878,17.209 14.161,13.981 10.277,17.8" fill="#238BCB" stroke-linejoin="miter"/>
    <line x1="11" y1="5.5" x2="23" y2="5.5" fill="#FFFFFF" stroke="#383838" stroke-width="1" stroke-miterlimit="10"/>
    <line x1="13" y1="7.5" x2="21" y2="7.5" fill="none" stroke="#787979" stroke-width="1" stroke-miterlimit="10"/>
    <path d="M13.5,26.5h-3v-4h3V26.5zM18.5,20.5h-3v6h3V20.5zM23.5,18.5h-3v8h3V18.5z" fill="none" stroke="#787979" stroke-width="1" stroke-miterlimit="10"/>
  </g>
</svg>
