<?xml version="1.0" encoding="UTF-8"?>
<!DOCTYPE svg PUBLIC "-//W3C//DTD SVG 1.1//EN" "http://www.w3.org/Graphics/SVG/1.1/DTD/svg11.dtd">
<svg version="1.1" id="Layer_1" xmlns="http://www.w3.org/2000/svg" xmlns:xlink="http://www.w3.org/1999/xlink" x="0px" y="0px" width="32px" height="32px" viewBox="0 0 32 32" enable-background="new 0 0 32 32" xml:space="preserve">
  <g id="main">
    <g id="icon">
      <path d="M0.5,29.5L18.17,29.5L18.13,29.21L18.15,28.89L18.22,28.58L18.35,28.29L18.54,28.02L19.83,26.5L17.2,26.32L16.85,26.26L16.53,26.14L16.24,25.97L15.99,25.74L15.79,25.48L15.63,25.18L15.53,24.85L15.5,24.5L15.53,24.15L15.63,23.82L15.79,23.52L15.99,23.26L16.24,23.03L16.53,22.86L16.85,22.74L17.2,22.68L19.83,22.51L18.54,20.99L18.35,20.71L18.22,20.42L18.15,20.11L18.13,19.79L18.17,19.48L18.27,19.17L18.43,18.89L18.63,18.64L18.9,18.42L19.2,18.26L19.52,18.16L19.86,18.13L20.17,18.15L20.46,18.23L20.74,18.36L20.98,18.54L22.5,19.83L22.68,17.19L22.74,16.85L22.86,16.53L23.03,16.24L23.26,15.99L23.52,15.79L23.82,15.63L24.15,15.53L24.49,15.5L24.85,15.53L25.19,15.64L25.49,15.8L25.76,16.01L25.98,16.27L26.15,16.56L26.26,16.9L26.31,17.25L26.4,19.84L28.04,18.51L28.28,18.34L28.55,18.22L28.84,18.15L29.13,18.12L29.47,18.16L29.8,18.26L30.1,18.42L30.36,18.63L30.5,18.8L30.5,7.5L0.5,7.5zM30.46,20.99L29.17,22.5L30.5,22.59L30.5,20.93zM22.12,29.5L22.53,29.5L22.51,29.17zz" fill="#FFFFFF"/>
      <path d="M0,7.5L0,29.5L0,30L0.5,30L18.37,30L18.27,29.83L18.17,29.52L18.13,29.21L18.14,29L1,29L1,8L30,8L30,18.36L30.1,18.42L30.36,18.63L30.57,18.89L30.73,19.17L30.82,19.48L30.87,19.79L30.85,20.11L30.78,20.42L30.65,20.72L30.46,20.99L30,21.53L30,22.56L31,22.63L31,7.5L31,7L30.5,7L0.5,7L0,7zM21.53,30L22.56,30L22.51,29.17zz" fill="#383838"/>
      <path d="M0.5,7.5L30.5,7.5L30.5,2.5L0.5,2.5zz" fill="#C8C6C4"/>
      <path d="M0,2.5L0,7.5L0,8L0.5,8L30.5,8L31,8L31,7.5L31,2.5L31,2L30.5,2L0.5,2L0,2zM30,3L30,7L1,7L1,3zz" fill="#383838"/>
      <path d="M7,5L8,5L8,0L7,0zM25,5L26,5L26,0L25,0zz" fill="#383838"/>
      <path d="M9,10.5L9,14L3.5,14L3,14L3,14.5L3,18L3,18.5L3,19L3,22L3,22.5L3,23L3,26.5L3,27L3.5,27L9,27L9.5,27L10,27L15,27L15.5,27L16,27L19.4,27L19.83,26.5L17.2,26.32L16.85,26.26L16.53,26.14L16.3,26L16,26L16,25.75L15.99,25.74L15.79,25.48L15.63,25.18L15.53,24.85L15.5,24.5L15.53,24.15L15.63,23.82L15.79,23.52L15.99,23.26L16,23.25L16,23L16.3,23L16.53,22.86L16.85,22.74L17.2,22.68L19.83,22.51L19.4,22L16,22L16,19L18.37,19L18.43,18.89L18.63,18.64L18.9,18.42L19.2,18.26L19.52,18.16L19.86,18.13L20.17,18.15L20.46,18.23L20.74,18.36L20.98,18.54L22,19.4L22,19L22.56,19L22.63,18L22,18L22,15L27,15L27,18L26.33,18L26.37,19L27,19L27,19.35L28,18.54L28,18.5L28,18L28,15L28,14.5L28,14L28,10.5L28,10L27.5,10L22,10L21.5,10L21,10L16,10L15.5,10L15,10L9.5,10L9,10zM15,11L15,14L10,14L10,11zM21,11L21,14L16,14L16,11zM27,11L27,14L22,14L22,11zM9,15L9,18L4,18L4,15zM15,15L15,18L10,18L10,15zM21,15L21,18L16,18L16,15zM9,19L9,22L4,22L4,19zM15,19L15,22L10,22L10,19zM9,23L9,26L4,26L4,23zM15,23L15,26L10,26L10,23zz" fill="#787979" opacity="0.6"/>
      <path d="M3.5,14.5L9.5,14.5L9.5,10.5L3.5,10.5zM9.5,14.5L9.5,18.5L15.5,18.5L15.5,14.5L9.5,14.5zM15.5,14.5L21.5,14.5L21.5,10.5L15.5,10.5L15.5,14.5zM21.5,14.5L21.5,18.5L21.5,18.98L22.5,19.83L22.68,17.19L22.74,16.85L22.86,16.53L23.03,16.24L23.26,15.99L23.52,15.79L23.82,15.63L24.15,15.53L24.49,15.5L24.85,15.53L25.19,15.64L25.49,15.8L25.76,16.01L25.98,16.27L26.15,16.56L26.26,16.9L26.31,17.25L26.4,19.84L27.5,18.95L27.5,18.5L27.5,14.5L21.5,14.5zM3.5,26.5L9.5,26.5L9.5,22.5L3.5,22.5zM15.5,24.5L15.53,24.15L15.63,23.82L15.79,23.52L15.99,23.26L16.24,23.03L16.53,22.86L16.85,22.74L17.2,22.68L19.83,22.51L19.82,22.5L15.5,22.5zM15.5,24.5L15.5,26.5L19.82,26.5L19.83,26.5L17.2,26.32L16.85,26.26L16.53,26.14L16.24,25.97L15.99,25.74L15.79,25.48L15.63,25.18L15.53,24.85L15.5,24.5zz" fill="#DFBCD9"/>
      <path d="M3,10.5L3,14.5L3,15L3.5,15L9,15L9,18.5L9,19L9.5,19L15.5,19L16,19L16,18.5L16,15L21,15L21,18L21,18.5L21,18.55L22,19.4L22,19L22.56,19L22.63,18L22,18L22,15L27,15L27,18L26.33,18L26.37,19L27,19L27,19.35L28,18.54L28,18.5L28,18L28,14.5L28,14L27.5,14L22,14L22,10.5L22,10L21.5,10L15.5,10L15,10L15,10.5L15,14L10,14L10,10.5L10,10L9.5,10L3.5,10L3,10zM9,11L9,14L4,14L4,11zM21,11L21,14L16,14L16,11zM15,15L15,18L10,18L10,15zM3,22.5L3,26.5L3,27L3.5,27L9.5,27L10,27L10,26.5L10,22.5L10,22L9.5,22L3.5,22L3,22zM15,22.5L15,26.5L15,27L15.5,27L19.4,27L19.83,26.5L17.2,26.32L16.85,26.26L16.53,26.14L16.3,26L16,26L16,25.75L15.99,25.74L15.79,25.48L15.63,25.18L15.53,24.85L15.5,24.5L15.53,24.15L15.63,23.82L15.79,23.52L15.99,23.26L16,23.25L16,23L16.3,23L16.53,22.86L16.85,22.74L17.2,22.68L19.83,22.51L19.4,22L15.5,22L15,22zM9,23L9,26L4,26L4,23zz" fill="#A0519F"/>
    </g>
    <g id="overlay">
      <path d="M24.762,32h-0.524c-0.021,0,-0.039,-0.017,-0.04,-0.038L23.8,26.107l-3.784,3.209c-0.094,0.079,-0.232,0.074,-0.319,-0.013l0,0c-0.087,-0.087,-0.092,-0.226,-0.013,-0.319L22.893,25.2l-5.594,-0.38c-0.168,-0.011,-0.299,-0.151,-0.299,-0.32l0,0c0,-0.169,0.131,-0.309,0.299,-0.32l5.594,-0.38l-3.209,-3.784c-0.079,-0.094,-0.074,-0.232,0.013,-0.319l0,0c0.087,-0.087,0.226,-0.092,0.319,-0.013L23.8,22.893l0.38,-5.599c0.011,-0.166,0.149,-0.294,0.315,-0.294h0c0.17,0,0.31,0.135,0.315,0.305l0.19,5.588l3.983,-3.215c0.095,-0.077,0.232,-0.069,0.319,0.017l0,0c0.088,0.088,0.094,0.228,0.013,0.323L26.107,23.8l5.594,0.38c0.168,0.011,0.299,0.151,0.299,0.32l0,0c0,0.169,-0.131,0.309,-0.299,0.32l-5.594,0.38l3.209,3.784c0.079,0.094,0.074,0.232,-0.013,0.319l0,0c-0.087,0.087,-0.226,0.092,-0.319,0.013L25.2,26.107l-0.397,5.855C24.801,31.983,24.783,32,24.762,32z" fill="#ED8730"/>
    </g>
  </g>
</svg>
