<?xml version="1.0" encoding="UTF-8"?>
<!DOCTYPE svg PUBLIC "-//W3C//DTD SVG 1.1//EN" "http://www.w3.org/Graphics/SVG/1.1/DTD/svg11.dtd">
<svg version="1.1" id="Layer_1" xmlns="http://www.w3.org/2000/svg" xmlns:xlink="http://www.w3.org/1999/xlink" x="0px" y="0px" width="32px" height="32px" viewBox="0 0 32 32" enable-background="new 0 0 32 32" xml:space="preserve">
  <g id="main">
    <g id="icon">
      <path d="M0.5,29.5L18.5,29.5L18.5,14.5L28.38,14.5L30.5,16.67L30.5,7.5L0.5,7.5zz" fill="#FFFFFF"/>
      <path d="M0,7.5L0,29.5L0,30L0.5,30L18.5,30L18.5,29L1,29L1,8L30,8L30,16.16L31,17.19L31,7.5L31,7L30.5,7L0.5,7L0,7zz" fill="#383838"/>
      <path d="M0.5,7.5L30.5,7.5L30.5,2.5L0.5,2.5zz" fill="#C8C6C4"/>
      <path d="M0,2.5L0,7.5L0,8L0.5,8L30.5,8L31,8L31,7.5L31,2.5L31,2L30.5,2L0.5,2L0,2zM30,3L30,7L1,7L1,3zz" fill="#383838"/>
      <path d="M7,5L8,5L8,0L7,0zM25,5L26,5L26,0L25,0zz" fill="#383838"/>
      <path d="M9,10.5L9,14L3.5,14L3,14L3,14.5L3,18L3,18.5L3,19L3,22L3,22.5L3,23L3,26.5L3,27L3.5,27L9,27L9.5,27L10,27L15,27L15.5,27L16,27L18.5,27L18.5,26L16,26L16,23L18.5,23L18.5,22L16,22L16,19L18.5,19L18.5,18L16,18L16,15L18.5,15L18.5,14.5L28,14.5L28,14L28,10.5L28,10L27.5,10L22,10L21.5,10L21,10L16,10L15.5,10L15,10L9.5,10L9,10zM15,11L15,14L10,14L10,11zM21,11L21,14L16,14L16,11zM27,11L27,14L22,14L22,11zM9,15L9,18L4,18L4,15zM15,15L15,18L10,18L10,15zM9,19L9,22L4,22L4,19zM15,19L15,22L10,22L10,19zM9,23L9,26L4,26L4,23zM15,23L15,26L10,26L10,23zz" fill="#787979" opacity="0.6"/>
      <path d="M3.5,14.5L9.5,14.5L9.5,10.5L3.5,10.5zM9.5,14.5L9.5,18.5L15.5,18.5L15.5,14.5L9.5,14.5zM15.5,14.5L18.5,14.5L21.5,14.5L21.5,10.5L15.5,10.5L15.5,14.5zM3.5,26.5L9.5,26.5L9.5,22.5L3.5,22.5zM15.5,26.5L18.5,26.5L18.5,22.5L15.5,22.5zz" fill="#DFBCD9"/>
      <path d="M3,10.5L3,14.5L3,15L3.5,15L9,15L9,18.5L9,19L9.5,19L15.5,19L16,19L16,18.5L16,15L18.5,15L18.5,14.5L28,14.5L28,14L27.5,14L22,14L22,10.5L22,10L21.5,10L15.5,10L15,10L15,10.5L15,14L10,14L10,10.5L10,10L9.5,10L3.5,10L3,10zM9,11L9,14L4,14L4,11zM21,11L21,14L16,14L16,11zM15,15L15,18L10,18L10,15zM3,22.5L3,26.5L3,27L3.5,27L9.5,27L10,27L10,26.5L10,22.5L10,22L9.5,22L3.5,22L3,22zM15,22.5L15,26.5L15,27L15.5,27L18.5,27L18.5,26L16,26L16,23L18.5,23L18.5,22L15.5,22L15,22zM9,23L9,26L4,26L4,23zz" fill="#A0519F"/>
    </g>
    <g id="overlay">
      <polygon points="31.5,31.5 20.5,31.5 20.5,16.5 27.533,16.5 31.5,20.557" fill="#FFFFFF" stroke="#383838" stroke-width="1" stroke-miterlimit="10" stroke-linejoin="miter"/>
      <polyline points="31.5,20.5 27.5,20.5 27.5,16.5" fill="none" stroke="#383838" stroke-width="1" stroke-miterlimit="10" stroke-linejoin="miter"/>
    </g>
  </g>
</svg>
