<?xml version="1.0" encoding="UTF-8"?>
<!DOCTYPE svg PUBLIC "-//W3C//DTD SVG 1.1//EN" "http://www.w3.org/Graphics/SVG/1.1/DTD/svg11.dtd">
<svg version="1.1" id="Layer_1" xmlns="http://www.w3.org/2000/svg" xmlns:xlink="http://www.w3.org/1999/xlink" x="0px" y="0px" width="32px" height="32px" viewBox="0 0 32 32" enable-background="new 0 0 32 32" xml:space="preserve">
  <g id="main">
    <g id="icon">
      <path d="M0.5,29.5L13.5,29.5L14.23,27.78L14.9,26.33L15.3,25.66L15.53,25.38L27.64,13.2L28.01,12.9L28.43,12.68L28.88,12.54L29.36,12.5L30.02,12.58L30.5,12.75L30.5,7.5L0.5,7.5zM21.7,29.5L30.5,29.5L30.5,20.66zz" fill="#FFFFFF"/>
      <path d="M0,7.5L0,29.5L0,30L0.5,30L13.29,30L13.71,29L1,29L1,8L30,8L30,12.58L30.02,12.58L30.68,12.82L31,13.01L31,7.5L31,7L30.5,7L0.5,7L0,7zM30,21.17L30,29L22.2,29L21.21,30L30.5,30L31,30L31,29.5L31,20.16zz" fill="#383838"/>
      <path d="M0.5,7.5L30.5,7.5L30.5,2.5L0.5,2.5zz" fill="#C8C6C4"/>
      <path d="M0,2.5L0,7.5L0,8L0.5,8L30.5,8L31,8L31,7.5L31,2.5L31,2L30.5,2L0.5,2L0,2zM30,3L30,7L1,7L1,3zz" fill="#383838"/>
      <path d="M7,5L8,5L8,0L7,0zM25,5L26,5L26,0L25,0zz" fill="#383838"/>
      <path d="M9,10.5L9,14L3.5,14L3,14L3,14.5L3,18L3,18.5L3,19L3,22L3,22.5L3,23L3,26.5L3,27L3.5,27L9,27L9.5,27L10,27L14.59,27L14.9,26.33L15.3,25.66L15.53,25.38L16,24.91L16,23L17.9,23L18.89,22L16,22L16,19L21,19L21,19.88L22.87,18L22,18L22,15L25.86,15L26.85,14L22,14L22,11L27,11L27,13.85L27.64,13.2L28,12.91L28,10.5L28,10L27.5,10L22,10L21.5,10L21,10L16,10L15.5,10L15,10L9.5,10L9,10zM15,11L15,14L10,14L10,11zM21,11L21,14L16,14L16,11zM9,15L9,18L4,18L4,15zM15,15L15,18L10,18L10,15zM21,15L21,18L16,18L16,15zM9,19L9,22L4,22L4,19zM15,19L15,22L10,22L10,19zM9,23L9,26L4,26L4,23zM15,23L15,26L10,26L10,23zM27,24.18L27,26L25.19,26L24.19,27L27.5,27L28,27L28,26.5L28,23.18zz" fill="#787979" opacity="0.6"/>
      <path d="M3.5,14.5L9.5,14.5L9.5,10.5L3.5,10.5zM9.5,14.5L9.5,18.5L15.5,18.5L15.5,14.5L9.5,14.5zM15.5,14.5L21.5,14.5L21.5,10.5L15.5,10.5L15.5,14.5zM21.5,14.5L21.5,18.5L21.5,19.38L26.35,14.5L21.5,14.5zM3.5,26.5L9.5,26.5L9.5,22.5L3.5,22.5zM15.5,25.42L15.53,25.38L18.4,22.5L15.5,22.5zz" fill="#DFBCD9"/>
      <path d="M3,10.5L3,14.5L3,15L3.5,15L9,15L9,18.5L9,19L9.5,19L15.5,19L16,19L16,18.5L16,15L21,15L21,18L21,18.5L21,19L21,19.88L22.87,18L22,18L22,15L25.86,15L26.85,14L22,14L22,10.5L22,10L21.5,10L15.5,10L15,10L15,10.5L15,14L10,14L10,10.5L10,10L9.5,10L3.5,10L3,10zM9,11L9,14L4,14L4,11zM21,11L21,14L16,14L16,11zM15,15L15,18L10,18L10,15zM3,22.5L3,26.5L3,27L3.5,27L9.5,27L10,27L10,26.5L10,22.5L10,22L9.5,22L3.5,22L3,22zM15,22.5L15,26.17L15.3,25.66L15.53,25.38L16,24.91L16,23L17.9,23L18.89,22L15.5,22L15,22zM9,23L9,26L4,26L4,23zz" fill="#A0519F"/>
    </g>
    <g id="overlay">
      <path d="M29.605,18.743l1.78,-1.774c0.659,-0.659,-1.695,-3.013,-2.354,-2.354l-1.792,1.787L29.605,18.743z" fill="#F3B8B8" stroke="#E42D2C" stroke-width="1" stroke-linecap="round" stroke-miterlimit="10"/>
      <path d="M18.772,29.537l-0.058,0.058C18.373,29.936,14.8,31.2,14.8,31.2s1.224,-3.612,1.566,-3.953l0.058,-0.058L18.772,29.537z" fill="#FFFFFF" stroke="#383838" stroke-width="1" stroke-miterlimit="10"/>
      <polygon points="18.772,29.537 29.605,18.743 27.239,16.402 16.424,27.189" fill="#92CBEE" stroke="#0964B0" stroke-width="1" stroke-linecap="round" stroke-miterlimit="10" stroke-linejoin="round"/>
      <line x1="29.919" y1="19.086" x2="26.909" y2="16.082" fill="none" stroke="#787979" stroke-width="1.1" stroke-miterlimit="10"/>
    </g>
  </g>
</svg>
