<?xml version="1.0" encoding="UTF-8"?>
<!DOCTYPE svg PUBLIC "-//W3C//DTD SVG 1.1//EN" "http://www.w3.org/Graphics/SVG/1.1/DTD/svg11.dtd">
<svg version="1.1" id="Layer_1" xmlns="http://www.w3.org/2000/svg" xmlns:xlink="http://www.w3.org/1999/xlink" x="0px" y="0px" width="32px" height="32px" viewBox="0 0 32 32" enable-background="new 0 0 32 32" xml:space="preserve">
  <g id="icon">
    <polygon points="31.5,16.5 21.5,16.5 21.5,11 16,7.6 10.5,11 10.5,16.5 0.5,16.5 0.5,31.5 31.5,31.5" fill="#FFFFFF" stroke-linejoin="miter"/>
    <polygon points="31.5,16.5 21.5,16.5 21.5,11 16,7.6 10.5,11 10.5,16.5 0.5,16.5 0.5,31.5 31.5,31.5" fill="#C8C6C4" stroke-linejoin="miter" opacity="0.4"/>
    <polyline points="10.5,11 10.5,16.5 0.5,16.5 0.5,31.5 31.5,31.5 31.5,16.5 21.5,16.5 21.5,11" fill="none" stroke="#383838" stroke-width="1" stroke-miterlimit="10" stroke-linejoin="miter"/>
    <path d="M16,7.9V0M23,1.3c-2.3,-1.3,-4.564,1.069,-7,-0.3v4c2.363,1.342,4.7,-1.1,7,0.3V1.3z" fill="#C8C6C4" stroke="#383838" stroke-width="1" stroke-miterlimit="10"/>
    <path d="M10.5,20.5H9.5v1h1V20.5zM7.5,20.5H6.5v1h1V20.5zM19.5,20.5h-1v1h1V20.5zM13.5,20.5h-1v1h1V20.5zM16.5,20.5h-1v1h1V20.5zM10.5,23.5H9.5v1h1V23.5zM7.5,23.5H6.5v1h1V23.5zM19.5,23.5h-1v1h1V23.5zM22.5,20.5h-1v1h1V20.5zM22.5,23.5h-1v1h1V23.5zM25.5,20.5h-1v1h1V20.5zM25.5,23.5h-1v1h1V23.5zM13.5,23.5h-1v1h1V23.5zM16.5,23.5h-1v1h1V23.5zM10.5,26.5H9.5v1h1V26.5zM7.5,26.5H6.5v1h1V26.5zM4.5,20.5H3.5v1h1V20.5zM4.5,23.5H3.5v1h1V23.5zM4.5,26.5H3.5v1h1V26.5zM22.5,26.5h-1v1h1V26.5zM25.5,26.5h-1v1h1V26.5zM28.5,20.5h-1v1h1V20.5zM28.5,23.5h-1v1h1V23.5zM28.5,26.5h-1v1h1V26.5z" fill="#92CBEE" stroke="#0964B0" stroke-width="1" stroke-miterlimit="10"/>
    <rect x="13.5" y="26.5" width="5" height="5" fill="#C8C6C4" stroke="#383838" stroke-width="1" stroke-miterlimit="10"/>
    <polyline points="8.4,12.3 16,7.5 23.5,12.3" fill="none" stroke="#0964B0" stroke-width="1.2" stroke-miterlimit="10" stroke-linejoin="miter"/>
    <circle cx="16" cy="14.5" r="3" fill="#FFFFFF" stroke="#383838" stroke-width="1" stroke-miterlimit="10"/>
    <polyline points="16,12.6 16,14.5 17.4,15.7" fill="#FFFFFF" stroke="#383838" stroke-width="1" stroke-miterlimit="10" stroke-linejoin="miter"/>
  </g>
</svg>
