<?xml version="1.0" encoding="UTF-8"?>
<!DOCTYPE svg PUBLIC "-//W3C//DTD SVG 1.1//EN" "http://www.w3.org/Graphics/SVG/1.1/DTD/svg11.dtd">
<svg version="1.1" id="Layer_1" xmlns="http://www.w3.org/2000/svg" xmlns:xlink="http://www.w3.org/1999/xlink" x="0px" y="0px" width="32px" height="32px" viewBox="0 0 32 32" enable-background="new 0 0 32 32" xml:space="preserve">
  <g id="main">
    <g id="icon">
      <path d="M7.475,11.39L7.393,11.48L7.255,13.74L7.194,13.82L6.358,14.19L5.582,14.66L5.484,14.67L3.465,13.56L3.348,13.58L1.826,15.49L1.829,15.61L3.312,17.29L3.327,17.39L3.018,18.2L2.811,19.06L2.746,19.13L0.567,19.77L0.501,19.87L0.7711,22.29L0.857,22.38L3.047,22.51L3.128,22.57L3.515,23.43L4.014,24.23L4.02,24.32L2.933,26.31L2.956,26.42L4.86,27.95L4.979,27.95L6.658,26.46L6.756,26.44L7.563,26.74L8.42,26.94L8.494,27.01L9.135,29.21L9.234,29.28L11.66,29.01L11.74,28.92L11.88,26.66L11.94,26.58L12.76,26.2L13.52,25.72L13.62,25.71L14.77,26.34L14.7,25.9L14.57,24.41L14.6,23.6L14.74,22.63L15.03,21.55L15.48,20.42L15.85,19.72L16.27,19.07L16.75,18.47L17.23,17.96L15.96,17.88L15.88,17.82L15.52,17.02L15.06,16.28L15.05,16.18L16.2,14.09L16.18,13.98L14.27,12.45L14.15,12.45L12.41,14L12.31,14.01L11.54,13.72L10.73,13.52L10.66,13.46L9.996,11.19L9.897,11.12zM9.387,18.24L9.806,18.34L10.2,18.53L10.55,18.78L10.85,19.11L11.08,19.49L11.23,19.9L11.31,20.32L11.3,20.75L11.21,21.17L11.03,21.57L10.78,21.93L10.45,22.25L10.05,22.5L9.625,22.66L9.192,22.72L8.761,22.7L8.343,22.6L7.952,22.42L7.598,22.17L7.293,21.85L7.053,21.47L6.896,21.05L6.822,20.63L6.831,20.2L6.922,19.78L7.094,19.38L7.346,19.01L7.679,18.69L8.086,18.44L8.515,18.28L8.953,18.22zz" fill="#DFBCD9"/>
      <path d="M9.842,10.63L7.42,10.9L7.237,10.92L7.111,11.05L7.029,11.14L6.905,11.27L6.894,11.45L6.771,13.46L6.156,13.73L6.125,13.74L6.096,13.76L5.517,14.12L3.706,13.12L3.547,13.03L3.369,13.07L3.252,13.09L3.072,13.13L2.957,13.27L1.435,15.18L1.321,15.32L1.326,15.5L1.329,15.62L1.334,15.8L1.454,15.94L2.774,17.43L2.55,18.02L2.539,18.05L2.531,18.08L2.379,18.72L0.4271,19.29L0.2521,19.34L0.151,19.49L0.08496,19.59L-0,19.72L0,19.89L0.004102,19.92L0.274,22.35L0.2941,22.53L0.426,22.65L0.5119,22.74L0.6441,22.86L0.8262,22.87L2.771,22.99L3.059,23.63L3.073,23.67L3.091,23.7L3.467,24.29L2.495,26.07L2.407,26.23L2.442,26.4L2.465,26.52L2.501,26.7L2.644,26.82L4.547,28.34L4.69,28.45L4.873,28.45L4.992,28.45L5.174,28.44L5.31,28.32L6.806,27L7.389,27.21L7.419,27.22L7.451,27.23L8.081,27.38L8.655,29.35L8.706,29.52L8.858,29.63L8.957,29.69L9.108,29.79L9.289,29.77L11.71,29.5L11.89,29.48L12.02,29.35L12.1,29.26L12.23,29.13L12.24,28.95L12.36,26.94L12.97,26.66L13,26.64L13.02,26.63L13.59,26.27L14.85,26.96L14.7,25.9L14.69,25.73L13.86,25.28L13.73,25.2L13.58,25.22L13.48,25.22L13.36,25.23L13.25,25.3L12.52,25.76L11.73,26.13L11.61,26.18L11.53,26.29L11.47,26.37L11.39,26.48L11.38,26.63L11.26,28.55L9.519,28.74L8.974,26.87L8.933,26.73L8.824,26.63L8.75,26.57L8.655,26.48L8.532,26.45L7.706,26.26L6.929,25.98L6.808,25.93L6.68,25.95L6.582,25.97L6.437,25.99L6.327,26.09L4.904,27.34L3.536,26.25L4.458,24.57L4.528,24.44L4.519,24.29L4.513,24.2L4.505,24.07L4.438,23.96L3.957,23.19L3.584,22.36L3.53,22.25L3.426,22.17L3.345,22.11L3.226,22.02L3.078,22.01L1.23,21.9L1.036,20.15L2.886,19.61L3.024,19.57L3.119,19.47L3.184,19.39L3.268,19.3L3.297,19.18L3.496,18.35L3.794,17.57L3.841,17.44L3.821,17.31L3.806,17.21L3.785,17.07L3.687,16.96L2.43,15.53L3.524,14.16L5.243,15.11L5.37,15.18L5.515,15.17L5.612,15.16L5.737,15.16L5.844,15.09L6.592,14.63L7.396,14.28L7.515,14.22L7.593,14.12L7.654,14.04L7.745,13.92L7.754,13.77L7.871,11.85L9.612,11.66L10.17,13.6L10.21,13.73L10.32,13.83L10.39,13.89L10.49,13.98L10.61,14.01L11.39,14.2L12.13,14.48L12.25,14.53L12.38,14.51L12.48,14.49L12.63,14.47L12.74,14.37L14.23,13.06L15.6,14.15L14.61,15.94L14.54,16.07L14.55,16.21L14.56,16.31L14.57,16.44L14.63,16.54L15.08,17.26L15.42,18.03L15.48,18.15L15.58,18.22L15.66,18.28L15.78,18.37L15.93,18.38L16.78,18.43L17.27,17.92L17.75,17.49L16.24,17.4L15.97,16.82L15.96,16.79L15.94,16.76L15.6,16.21L16.64,14.33L16.72,14.17L16.69,14L16.67,13.88L16.63,13.7L16.49,13.58L14.58,12.06L14.44,11.95L14.26,11.95L14.14,11.95L13.96,11.96L13.82,12.08L12.26,13.46L11.72,13.25L11.69,13.24L11.66,13.24L11.07,13.09L10.48,11.05L10.43,10.88L10.27,10.78L10.17,10.71L10.02,10.61zM8.879,17.72L8.442,17.79L8.39,17.79L8.342,17.81L7.913,17.97L7.864,17.99L7.82,18.01L7.413,18.27L7.37,18.3L7.333,18.33L7.001,18.65L6.964,18.69L6.936,18.73L6.683,19.09L6.654,19.13L6.635,19.18L6.463,19.58L6.444,19.62L6.433,19.67L6.343,20.09L6.332,20.14L6.331,20.19L6.322,20.62L6.321,20.66L6.33,20.71L6.403,21.14L6.411,21.19L6.429,21.23L6.585,21.64L6.602,21.69L6.628,21.73L6.868,22.12L6.896,22.16L6.931,22.2L7.236,22.52L7.269,22.55L7.308,22.58L7.662,22.83L7.701,22.86L7.744,22.88L8.136,23.06L8.179,23.08L8.225,23.09L8.643,23.19L8.69,23.2L8.738,23.2L9.169,23.22L9.219,23.23L9.268,23.22L9.701,23.15L9.751,23.14L9.799,23.13L10.22,22.97L10.27,22.95L10.31,22.92L10.72,22.67L10.76,22.64L10.79,22.61L11.13,22.29L11.16,22.26L11.19,22.21L11.45,21.85L11.47,21.81L11.49,21.76L11.66,21.37L11.68,21.32L11.69,21.27L11.78,20.85L11.79,20.81L11.8,20.76L11.81,20.33L11.81,20.29L11.8,20.24L11.73,19.81L11.72,19.77L11.7,19.72L11.55,19.31L11.53,19.27L11.51,19.23L11.28,18.85L11.25,18.81L11.22,18.77L10.92,18.45L10.88,18.41L10.84,18.38L10.49,18.12L10.45,18.1L10.41,18.08L10.02,17.89L9.975,17.87L9.929,17.86L9.51,17.75L9.462,17.74L9.413,17.74L8.979,17.72L8.929,17.71zM9.312,18.73L9.637,18.82L9.941,18.96L10.22,19.16L10.45,19.41L10.63,19.71L10.75,20.03L10.8,20.36L10.8,20.69L10.73,21.01L10.59,21.32L10.4,21.6L10.14,21.85L9.825,22.05L9.499,22.17L9.165,22.22L8.832,22.21L8.507,22.13L8.203,21.99L7.927,21.79L7.69,21.54L7.503,21.24L7.38,20.92L7.323,20.59L7.33,20.25L7.4,19.93L7.533,19.62L7.729,19.34L7.988,19.09L8.309,18.89L8.639,18.77L8.976,18.72zz" fill="#A0519F"/>
      <path d="M22.76,6.654L22.38,8.402L22.32,8.467L21.82,8.62L21.33,8.832L20.86,9.105L20.43,9.424L20.34,9.437L18.7,8.712L18.59,8.736L18.05,9.481L17.58,10.28L17.6,10.38L18.94,11.6L18.97,11.68L18.85,12.19L18.79,12.71L18.79,13.24L18.86,13.77L18.82,13.85L17.35,14.94L17.32,15.04L17.69,15.88L18.15,16.69L18.25,16.72L19.99,16.16L20.08,16.18L20.9,15.89L22.05,15.62L23.28,15.46L24.58,15.41L25.85,15.45L26.99,15.54L28.33,15.62L28.67,15.6L29.11,15.5L27.87,14.38L27.84,14.29L27.96,13.78L28.03,13.26L28.03,12.73L27.97,12.2L28.01,12.12L29.47,11.04L29.49,10.94L29.12,10.1L28.67,9.295L28.57,9.26L26.86,9.811L26.78,9.788L26.38,9.417L25.95,9.097L25.49,8.831L25,8.62L24.95,8.549L24.75,6.767L24.68,6.691L23.76,6.592L22.84,6.585zM23.83,11.38L24.14,11.5L24.41,11.67L24.65,11.88L24.83,12.14L24.97,12.43L25.05,12.75L25.07,13.08L25.01,13.42L24.9,13.72L24.73,14L24.51,14.23L24.26,14.42L23.97,14.55L23.65,14.63L23.31,14.65L22.98,14.6L22.68,14.48L22.4,14.31L22.17,14.09L21.98,13.84L21.84,13.55L21.77,13.23L21.75,12.89L21.8,12.56L21.92,12.26L22.09,11.98L22.3,11.75L22.56,11.56L22.85,11.42L23.17,11.34L23.5,11.33zz" fill="#C8C6C4"/>
      <path d="M22.51,6.206L22.43,6.275L22.3,6.385L22.27,6.549L21.95,8.059L21.68,8.141L21.65,8.15L21.62,8.161L21.13,8.373L21.11,8.385L21.08,8.399L20.61,8.672L20.58,8.687L20.56,8.704L20.32,8.882L18.9,8.254L18.75,8.187L18.58,8.225L18.48,8.249L18.3,8.292L18.19,8.441L17.65,9.187L17.63,9.207L17.62,9.228L17.15,10.02L17.06,10.18L17.09,10.37L17.11,10.47L17.14,10.64L17.27,10.75L18.43,11.8L18.36,12.08L18.36,12.11L18.35,12.14L18.3,12.66L18.29,12.69L18.29,12.71L18.29,13.24L18.29,13.27L18.3,13.3L18.33,13.59L17.05,14.53L16.92,14.63L16.87,14.79L16.84,14.89L16.79,15.07L16.86,15.24L17.23,16.08L17.24,16.11L17.26,16.13L17.71,16.93L17.8,17.09L17.98,17.16L18.08,17.19L18.13,17.21L18.45,16.98L19.11,16.59L19.81,16.27L20.61,15.99L20.42,15.81L20.33,15.72L20.2,15.69L20.11,15.67L19.97,15.64L19.84,15.68L18.41,16.14L18.14,15.66L17.91,15.14L19.12,14.26L19.24,14.17L19.29,14.04L19.32,13.95L19.37,13.84L19.35,13.71L19.29,13.21L19.29,12.74L19.35,12.28L19.46,11.8L19.48,11.67L19.45,11.55L19.42,11.46L19.38,11.32L19.28,11.23L18.19,10.24L18.47,9.756L18.8,9.303L20.14,9.895L20.27,9.953L20.42,9.932L20.51,9.919L20.63,9.9L20.73,9.825L21.14,9.523L21.56,9.279L22,9.089L22.47,8.945L22.59,8.908L22.68,8.815L22.74,8.75L22.84,8.647L22.87,8.507L23.18,7.088L23.73,7.092L24.29,7.152L24.45,8.604L24.47,8.746L24.56,8.859L24.61,8.93L24.69,9.029L24.81,9.079L25.27,9.279L25.68,9.516L26.06,9.801L26.43,10.15L26.53,10.24L26.65,10.27L26.74,10.29L26.88,10.33L27.02,10.29L28.4,9.84L28.67,10.32L28.9,10.84L27.71,11.71L27.6,11.8L27.54,11.93L27.51,12.01L27.46,12.13L27.48,12.25L27.53,12.76L27.53,13.23L27.47,13.7L27.36,14.18L27.33,14.3L27.36,14.43L27.38,14.51L27.42,14.65L27.53,14.75L28.48,15.61L28.67,15.6L29.11,15.5L29.47,15.37L29.61,15.29L29.55,15.23L28.38,14.18L28.45,13.9L28.46,13.87L28.46,13.84L28.52,13.32L28.53,13.29L28.53,13.26L28.53,12.73L28.53,12.71L28.53,12.68L28.5,12.38L29.76,11.45L29.9,11.35L29.94,11.19L29.97,11.09L30.03,10.91L29.95,10.74L29.58,9.897L29.57,9.874L29.56,9.852L29.1,9.049L29.01,8.886L28.83,8.824L28.73,8.789L28.57,8.732L28.41,8.784L26.94,9.26L26.73,9.053L26.7,9.033L26.68,9.015L26.25,8.696L26.23,8.679L26.2,8.664L25.74,8.398L25.72,8.384L25.69,8.372L25.42,8.255L25.25,6.712L25.23,6.545L25.11,6.423L25.04,6.347L24.92,6.214L24.73,6.194L23.81,6.095L23.79,6.092L23.76,6.092L22.84,6.085L22.65,6.084zM23.48,10.83L23.15,10.84L23.1,10.85L23.05,10.86L22.73,10.94L22.68,10.95L22.64,10.97L22.35,11.11L22.3,11.13L22.26,11.16L22.01,11.35L21.97,11.37L21.94,11.41L21.72,11.64L21.69,11.68L21.66,11.72L21.49,11.99L21.47,12.03L21.45,12.08L21.34,12.39L21.32,12.43L21.31,12.48L21.26,12.82L21.25,12.87L21.25,12.92L21.27,13.25L21.27,13.3L21.28,13.35L21.36,13.67L21.37,13.72L21.39,13.76L21.53,14.05L21.55,14.09L21.58,14.13L21.77,14.39L21.79,14.43L21.83,14.46L22.06,14.68L22.1,14.71L22.14,14.74L22.41,14.91L22.45,14.93L22.5,14.95L22.81,15.06L22.85,15.08L22.9,15.09L23.23,15.14L23.28,15.15L23.33,15.15L23.67,15.13L23.72,15.13L23.77,15.12L24.09,15.04L24.13,15.03L24.18,15.01L24.47,14.87L24.51,14.85L24.55,14.82L24.81,14.63L24.85,14.6L24.88,14.57L25.1,14.33L25.13,14.3L25.15,14.26L25.32,13.99L25.35,13.94L25.37,13.9L25.48,13.59L25.5,13.54L25.51,13.49L25.56,13.16L25.57,13.11L25.56,13.06L25.55,12.73L25.55,12.68L25.54,12.63L25.46,12.31L25.44,12.26L25.42,12.22L25.29,11.93L25.27,11.88L25.24,11.85L25.05,11.59L25.02,11.55L24.99,11.52L24.75,11.3L24.72,11.27L24.68,11.24L24.4,11.07L24.36,11.05L24.32,11.03L24.01,10.91L23.96,10.9L23.91,10.89L23.58,10.84L23.53,10.83zM23.71,11.87L23.92,11.95L24.11,12.07L24.27,12.22L24.4,12.4L24.5,12.6L24.55,12.82L24.56,13.06L24.53,13.29L24.45,13.5L24.33,13.69L24.18,13.85L24,13.99L23.8,14.08L23.58,14.14L23.34,14.15L23.11,14.11L22.9,14.03L22.71,13.91L22.54,13.76L22.41,13.58L22.32,13.38L22.26,13.16L22.25,12.92L22.29,12.69L22.37,12.48L22.49,12.29L22.64,12.12L22.82,11.99L23.02,11.9L23.24,11.84L23.47,11.83zz" fill="#383838"/>
      <path d="M11.66,0.8312L10.97,1.134L10.93,1.212L11.23,2.644L11.21,2.714L10.59,3.316L10.33,3.678L10.11,4.059L10.05,4.098L8.579,4.106L8.511,4.158L8.352,4.897L8.267,5.649L8.316,5.72L9.724,6.18L9.771,6.237L9.984,7.065L10.16,7.459L10.38,7.833L10.38,7.907L9.645,9.208L9.656,9.293L10.22,9.801L10.82,10.25L10.91,10.24L12.03,9.239L12.1,9.226L12.92,9.454L13.76,9.494L13.83,9.528L14.59,10.83L14.67,10.87L15.39,10.64L16.08,10.33L16.12,10.26L15.81,8.782L15.83,8.712L16.16,8.431L16.45,8.109L16.91,7.406L16.97,7.367L18.47,7.359L18.54,7.307L18.7,6.568L18.78,5.816L18.74,5.746L17.32,5.284L17.28,5.226L17.07,4.391L16.9,3.994L16.68,3.616L16.67,3.543L17.4,2.255L17.39,2.17L16.83,1.663L16.22,1.214L16.14,1.221L15.05,2.201L14.98,2.213L14.56,2.067L14.13,1.972L13.7,1.927L13.26,1.932L13.2,1.898L12.46,0.632L12.38,0.599zM14.01,4.654L14.38,4.915L14.63,5.313L14.71,5.777L14.6,6.218L14.34,6.589L13.94,6.839L13.48,6.915L13.04,6.811L12.67,6.55L12.42,6.152L12.34,5.688L12.45,5.247L12.71,4.876L13.11,4.626L13.57,4.55zz" fill="#C8C6C4"/>
      <path d="M12.22,0.1232L11.5,0.3555L11.48,0.3631L11.46,0.373L10.76,0.676L10.59,0.7508L10.51,0.9197L10.48,0.9977L10.4,1.15L10.44,1.315L10.69,2.515L10.24,2.958L10.21,2.988L10.18,3.023L9.921,3.385L9.905,3.409L9.89,3.434L9.798,3.599L8.576,3.606L8.409,3.607L8.275,3.709L8.207,3.761L8.061,3.873L8.022,4.053L7.863,4.792L7.858,4.817L7.855,4.841L7.77,5.593L7.749,5.779L7.855,5.933L7.904,6.004L8,6.143L8.161,6.195L9.343,6.582L9.499,7.189L9.51,7.23L9.527,7.269L9.703,7.663L9.715,7.689L9.73,7.714L9.827,7.877L9.21,8.961L9.128,9.106L9.149,9.272L9.16,9.357L9.184,9.54L9.32,9.663L9.881,10.17L9.899,10.19L9.919,10.2L10.53,10.65L10.68,10.76L10.86,10.75L10.95,10.74L11.12,10.73L11.24,10.61L12.19,9.769L12.79,9.936L12.84,9.951L12.9,9.954L13.51,9.983L14.16,11.09L14.24,11.23L14.4,11.3L14.48,11.33L14.65,11.4L14.82,11.34L15.54,11.11L15.57,11.1L15.59,11.09L16.28,10.79L16.45,10.72L16.53,10.55L16.57,10.47L16.64,10.32L16.61,10.15L16.35,8.927L16.48,8.809L16.51,8.79L16.53,8.769L16.82,8.446L16.85,8.416L16.87,8.381L17.2,7.866L18.47,7.859L18.64,7.858L18.77,7.756L18.84,7.704L18.99,7.592L19.03,7.412L19.19,6.673L19.19,6.648L19.19,6.624L19.28,5.872L19.3,5.69L19.2,5.537L19.15,5.467L19.06,5.324L18.89,5.271L17.71,4.883L17.55,4.272L17.54,4.23L17.53,4.191L17.35,3.794L17.34,3.767L17.33,3.742L17.23,3.574L17.84,2.502L17.92,2.357L17.9,2.191L17.89,2.106L17.87,1.923L17.73,1.799L17.17,1.292L17.15,1.275L17.13,1.26L16.52,0.8115L16.37,0.7004L16.18,0.7156L16.1,0.7227L15.93,0.7363L15.8,0.8494L14.9,1.659L14.72,1.595L14.69,1.585L14.67,1.579L14.24,1.484L14.21,1.477L14.18,1.474L13.75,1.429L13.72,1.427L13.69,1.427L13.5,1.429L12.89,0.3795L12.8,0.2352L12.65,0.1707L12.57,0.1377L12.4,0.06641zM12.76,2.151L12.84,2.274L12.96,2.341L13.03,2.375L13.14,2.433L13.27,2.432L13.67,2.427L14.05,2.466L14.42,2.548L14.81,2.685L14.93,2.727L15.06,2.707L15.13,2.695L15.27,2.671L15.38,2.573L16.21,1.827L16.52,2.051L16.8,2.307L16.24,3.296L16.17,3.421L16.17,3.563L16.18,3.637L16.18,3.761L16.24,3.868L16.45,4.221L16.59,4.552L16.79,5.346L16.82,5.454L16.89,5.541L16.93,5.599L17.03,5.713L17.17,5.759L18.25,6.112L18.2,6.487L18.12,6.861L16.97,6.867L16.82,6.868L16.7,6.944L16.64,6.983L16.55,7.042L16.49,7.134L16.05,7.802L15.81,8.073L15.51,8.334L15.41,8.418L15.36,8.538L15.34,8.608L15.29,8.744L15.32,8.885L15.56,10.02L15.21,10.17L14.85,10.28L14.26,9.276L14.19,9.152L14.06,9.085L13.99,9.051L13.9,9L13.79,8.995L13,8.958L12.23,8.744L12.12,8.714L12.01,8.734L11.94,8.747L11.8,8.772L11.69,8.867L10.84,9.637L10.53,9.413L10.25,9.156L10.82,8.154L10.89,8.03L10.88,7.887L10.88,7.813L10.88,7.686L10.81,7.578L10.6,7.227L10.46,6.9L10.26,6.113L10.23,6.005L10.16,5.919L10.11,5.862L10.02,5.75L9.879,5.705L8.804,5.353L8.846,4.979L8.926,4.604L10.05,4.598L10.2,4.597L10.32,4.521L10.38,4.482L10.49,4.414L10.55,4.303L10.75,3.946L10.97,3.643L11.55,3.072L11.63,2.993L11.67,2.888L11.7,2.818L11.75,2.682L11.72,2.54L11.49,1.45L11.84,1.299L12.2,1.182zM13.49,4.057L13.02,4.133L12.92,4.149L12.84,4.203L12.44,4.454L12.36,4.507L12.3,4.588L12.04,4.959L11.98,5.038L11.96,5.133L11.86,5.574L11.83,5.671L11.85,5.769L11.93,6.233L11.94,6.333L12,6.418L12.25,6.816L12.3,6.9L12.38,6.958L12.75,7.22L12.83,7.276L12.93,7.298L13.37,7.402L13.46,7.425L13.56,7.408L14.02,7.332L14.12,7.316L14.21,7.262L14.61,7.012L14.69,6.958L14.75,6.877L15.01,6.506L15.07,6.427L15.09,6.332L15.19,5.891L15.22,5.794L15.2,5.696L15.12,5.232L15.11,5.132L15.05,5.047L14.8,4.649L14.75,4.565L14.67,4.507L14.3,4.246L14.22,4.189L14.12,4.167L13.68,4.063L13.59,4.04zM13.8,5.118L14.01,5.266L14.15,5.493L14.2,5.759L14.14,6.009L13.99,6.219L13.76,6.362L13.5,6.405L13.25,6.347L13.04,6.199L12.9,5.971L12.85,5.706L12.91,5.456L13.06,5.246L13.29,5.103L13.55,5.06zz" fill="#383838"/>
    </g>
    <g id="overlay">
      <path d="M28.97,17.629c-1.716,0.254,-5.016,-0.836,-8.387,0.541c-3.37,1.376,-4.005,4.948,-3.968,6.183c0.038,1.291,0.587,4.096,0.566,4.617c0.331,-0.554,1.56,-0.455,1.977,-0.415c7.664,0.679,11.395,-9.291,12.227,-11.814c0.044,-0.133,-0.012,-0.187,-0.116,-0.094C30.855,17.018,30.016,17.474,28.97,17.629z" id="b" fill="#FFFFFF" stroke="#17AB4F" stroke-width="1.1" stroke-miterlimit="10"/>
      <path d="M16.633,31.349c1.853,-9.564,7.413,-9.67,8.859,-10.084" fill="none" stroke="#17AB4F" stroke-width="1.1" stroke-linecap="round" stroke-miterlimit="10"/>
    </g>
  </g>
</svg>
