<?xml version="1.0" encoding="UTF-8"?>
<!DOCTYPE svg PUBLIC "-//W3C//DTD SVG 1.1//EN" "http://www.w3.org/Graphics/SVG/1.1/DTD/svg11.dtd">
<svg version="1.1" id="Layer_1" xmlns="http://www.w3.org/2000/svg" xmlns:xlink="http://www.w3.org/1999/xlink" x="0px" y="0px" width="32px" height="32px" viewBox="0 0 32 32" enable-background="new 0 0 32 32" xml:space="preserve">
  <g id="icon">
    <path d="M24.5,14.3V5.5M26.3,1.5h-3.6l0.687,3.55c0.066,0.265,0.304,0.45,0.577,0.45h1.072c0.273,0,0.511,-0.186,0.577,-0.45L26.3,1.5z" fill="#C8C6C4" stroke="#383838" stroke-width="1" stroke-miterlimit="10" stroke-linejoin="round"/>
    <path d="M27.5,17l-3,-2.7l-3,2.7v10.5c0,1.657,1.343,3,3,3h0c1.657,0,3,-1.343,3,-3V17z" fill="#92CBEE" stroke="#0964B0" stroke-width="1" stroke-miterlimit="10" stroke-linejoin="round"/>
    <path d="M17.9,7.6c0,2.836,-1.845,5.26,-4.4,6.1v13.8c0,1.657,-1.343,3,-3,3h0c-1.657,0,-3,-1.343,-3,-3V13.7c-2.555,-0.84,-4.4,-3.264,-4.4,-6.1c0,-2.836,1.845,-5.139,4.4,-5.98V6.6c0,1.657,1.343,3,3,3h0c1.657,0,3,-1.343,3,-3V1.62C16.055,2.461,17.9,4.764,17.9,7.6z" fill="#C8C6C4" stroke="#383838" stroke-width="1" stroke-miterlimit="10" stroke-linejoin="round"/>
  </g>
</svg>
