<?xml version="1.0" encoding="UTF-8"?>
<!DOCTYPE svg PUBLIC "-//W3C//DTD SVG 1.1//EN" "http://www.w3.org/Graphics/SVG/1.1/DTD/svg11.dtd">
<svg version="1.1" id="Layer_1" xmlns="http://www.w3.org/2000/svg" xmlns:xlink="http://www.w3.org/1999/xlink" x="0px" y="0px" width="32px" height="32px" viewBox="0 0 32 32" enable-background="new 0 0 32 32" xml:space="preserve">
  <g id="icon">
    <path d="M7.866,32.12c0,-3.706,2.424,-7.106,5.754,-8.275l4.788,0.022c3.298,1.19,5.692,4.569,5.692,8.252M18.578,23.826c1.124,-0.041,2.206,-0.194,3.143,-0.84c0.195,-0.134,0.196,-0.417,-0.001,-0.548c-0.637,-0.424,-0.859,-1.099,-0.979,-1.8c-0.128,-0.746,-0.167,-1.511,-0.179,-2.269c-0.017,-1.092,-0.073,-2.168,-0.438,-3.217c-0.673,-1.934,-2.594,-2.629,-4.107,-2.521c-0.527,0.038,-1.007,0.24,-1.426,0.569c-0.104,0.082,-0.256,0.159,-0.383,0.155c-1.27,-0.039,-2.029,0.685,-2.435,1.644c-0.27,0.636,-0.411,1.308,-0.425,1.988c-0.017,0.786,0.034,1.574,0.072,2.36c0.039,0.814,-0.02,1.609,-0.424,2.346c-0.188,0.344,-0.361,0.545,-0.667,0.756c-0.196,0.135,-0.198,0.414,-0.003,0.55c0.566,0.394,1.605,0.661,3.145,0.804C15.183,23.984,16.885,23.988,18.578,23.826z" fill="#FFFFFF" stroke="#A0519F" stroke-width="1.2" stroke-miterlimit="10"/>
    <path d="M18.7,5.272C18.7,2.692,20.796,0.6,23.38,0.6s4.68,2.092,4.68,4.672s-2.095,4.672,-4.68,4.672S18.7,7.852,18.7,5.272zM19.284,11.449c1.22,0.658,2.164,1.729,2.634,3.08c0.468,1.344,0.525,2.62,0.543,3.812c0.003,0.194,0.008,0.408,0.018,0.634h8.701c0,-4.51,-3.644,-9,-7.831,-9C21.876,9.975,20.478,10.532,19.284,11.449zM9.449,16.948c0.02,-0.93,0.213,-1.835,0.575,-2.689c0.593,-1.4,1.641,-2.328,2.956,-2.663c-1.233,-1.004,-2.699,-1.621,-4.249,-1.621c-4.187,0,-7.831,4.49,-7.831,9h8.599C9.466,18.32,9.434,17.644,9.449,16.948zM8.701,9.943c2.585,0,4.68,-2.092,4.68,-4.672S11.286,0.6,8.701,0.6S4.02,2.692,4.02,5.272S6.116,9.943,8.701,9.943z" fill="#FFFFFF"/>
    <path d="M29.293,12.395c-0.974,-1.145,-2.138,-1.999,-3.374,-2.501c1.633,-0.898,2.742,-2.633,2.742,-4.622C28.661,2.365,26.292,0,23.38,0C20.469,0,18.1,2.365,18.1,5.272c0,1.98,1.099,3.709,2.721,4.61c-0.759,0.307,-1.48,0.745,-2.139,1.286c0.412,0.165,0.8,0.374,1.157,0.622c1.091,-0.784,2.308,-1.215,3.512,-1.215c3.717,0,7.231,4.082,7.231,8.4h1.2C31.781,16.652,30.874,14.254,29.293,12.395zM19.3,5.272C19.3,3.027,21.13,1.2,23.38,1.2c2.25,0,4.08,1.827,4.08,4.072c0,2.245,-1.83,4.072,-4.08,4.072C21.13,9.343,19.3,7.517,19.3,5.272zM12.3,11.83c0.361,-0.162,0.749,-0.273,1.158,-0.33c0.075,-0.031,0.151,-0.062,0.227,-0.09c-0.735,-0.653,-1.554,-1.177,-2.425,-1.529c1.621,-0.901,2.721,-2.629,2.721,-4.61C13.981,2.365,11.612,0,8.701,0C5.789,0,3.42,2.365,3.42,5.272c0,1.989,1.109,3.724,2.742,4.622c-1.236,0.502,-2.4,1.356,-3.374,2.501C1.207,14.254,0.3,16.652,0.3,18.975h1.2c0,-4.318,3.514,-8.4,7.231,-8.4C9.955,10.575,11.194,11.021,12.3,11.83zM4.62,5.272C4.62,3.027,6.451,1.2,8.701,1.2c2.25,0,4.08,1.827,4.08,4.072c0,2.245,-1.83,4.072,-4.08,4.072C6.451,9.343,4.62,7.517,4.62,5.272z" fill="#228BCB"/>
  </g>
</svg>
