<?xml version="1.0" encoding="UTF-8"?>
<!DOCTYPE svg PUBLIC "-//W3C//DTD SVG 1.1//EN" "http://www.w3.org/Graphics/SVG/1.1/DTD/svg11.dtd">
<svg version="1.1" id="Layer_1" xmlns="http://www.w3.org/2000/svg" xmlns:xlink="http://www.w3.org/1999/xlink" x="0px" y="0px" width="32px" height="32px" viewBox="0 0 32 32" enable-background="new 0 0 32 32" xml:space="preserve">
  <g id="main">
    <g id="icon">
      <path d="M0.5,25.5L15.56,25.5L15.5,24.5L15.55,23.58L15.68,22.69L15.91,21.83L16.21,21L16.59,20.21L17.04,19.47L17.56,18.78L18.14,18.14L18.78,17.56L19.47,17.04L20.21,16.59L21,16.21L21.83,15.91L22.69,15.68L23.58,15.55L24.5,15.5L25.65,15.57L26.76,15.79L27.82,16.14L28.82,16.61L29.5,17.04L29.5,4.5L0.5,4.5zz" fill="#FFFFFF"/>
      <path d="M0,4.5L0,25.5L0,26L0.5,26L15.64,26L15.57,25.65L15.53,25L1,25L1,5L29,5L29,16.72L29.74,17.19L30,17.4L30,4.5L30,4L29.5,4L0.5,4L0,4zz" fill="#383838"/>
      <path d="M9.687,7.584L8.914,7.826L8.215,8.208L7.606,8.714L7.103,9.327L6.723,10.03L6.484,10.81L6.4,11.64L6.484,12.48L6.723,13.26L7.103,13.96L7.606,14.57L8.215,15.08L8.914,15.46L9.687,15.7L10.39,15.78L9.886,15.81L9.279,15.94L8.696,16.14L8.14,16.41L7.615,16.75L7.122,17.15L6.664,17.6L6.244,18.1L5.863,18.63L5.526,19.2L5.233,19.8L4.988,20.42L4.793,21.06L4.65,21.7L4.563,22.35L4.533,23L15.64,23L15.68,22.69L15.91,21.83L16.21,21L16.22,20.98L16.04,20.42L15.8,19.8L15.51,19.2L15.17,18.63L14.79,18.1L14.37,17.6L13.91,17.15L13.42,16.75L12.89,16.41L12.34,16.14L11.75,15.94L11.15,15.81L10.64,15.78L11.35,15.7L12.12,15.46L12.82,15.08L13.43,14.57L13.93,13.96L14.31,13.26L14.55,12.48L14.63,11.64L14.55,10.81L14.31,10.03L13.93,9.327L13.43,8.714L12.82,8.208L12.12,7.826L11.35,7.584L10.52,7.5zz" fill="#FFFFFF"/>
      <path d="M10.47,7.003L9.636,7.087L9.586,7.092L9.538,7.107L8.765,7.348L8.718,7.363L8.674,7.387L7.975,7.769L7.933,7.792L7.895,7.823L7.286,8.329L7.249,8.36L7.219,8.397L6.716,9.01L6.686,9.047L6.663,9.09L6.283,9.794L6.26,9.837L6.246,9.884L6.006,10.66L5.991,10.71L5.986,10.76L5.903,11.59L5.897,11.64L5.903,11.69L5.986,12.53L5.991,12.58L6.006,12.63L6.246,13.4L6.26,13.45L6.283,13.49L6.663,14.2L6.686,14.24L6.716,14.28L7.219,14.89L7.249,14.93L7.286,14.96L7.895,15.47L7.933,15.5L7.975,15.52L8.378,15.74L7.919,15.97L7.894,15.98L7.87,15.99L7.344,16.33L7.322,16.35L7.301,16.36L6.808,16.76L6.789,16.78L6.772,16.79L6.314,17.24L6.298,17.26L6.283,17.28L5.863,17.77L5.848,17.79L5.836,17.81L5.456,18.34L5.444,18.36L5.433,18.38L5.096,18.95L5.085,18.97L5.077,18.98L4.784,19.58L4.775,19.6L4.768,19.62L4.523,20.24L4.515,20.26L4.51,20.28L4.314,20.91L4.309,20.93L4.304,20.95L4.162,21.6L4.157,21.62L4.154,21.64L4.067,22.29L4.064,22.31L4.063,22.33L4.034,22.98L4.01,23.5L4.533,23.5L15.56,23.5L15.68,22.69L15.73,22.5L5.056,22.5L5.061,22.4L5.143,21.79L5.276,21.19L5.46,20.59L5.69,20L5.966,19.44L6.284,18.9L6.639,18.4L7.031,17.94L7.457,17.52L7.909,17.16L8.388,16.85L8.888,16.6L9.413,16.42L9.954,16.31L10.39,16.28L10.47,16.29L10.52,16.29L10.57,16.29L10.65,16.28L11.08,16.31L11.62,16.42L12.14,16.6L12.64,16.85L13.12,17.16L13.58,17.52L14,17.94L14.39,18.4L14.75,18.9L15.07,19.44L15.34,20L15.57,20.59L15.76,21.18L15.89,21.79L15.9,21.85L15.91,21.83L16.21,21L16.54,20.32L16.52,20.28L16.52,20.26L16.51,20.24L16.26,19.62L16.26,19.6L16.25,19.58L15.96,18.98L15.95,18.97L15.94,18.95L15.6,18.38L15.59,18.36L15.58,18.34L15.2,17.81L15.18,17.79L15.17,17.77L14.75,17.28L14.73,17.26L14.72,17.24L14.26,16.79L14.24,16.78L14.22,16.76L13.73,16.36L13.71,16.35L13.69,16.33L13.16,15.99L13.14,15.98L13.11,15.97L12.65,15.74L13.06,15.52L13.1,15.5L13.14,15.47L13.75,14.96L13.78,14.93L13.81,14.89L14.32,14.28L14.35,14.24L14.37,14.2L14.75,13.49L14.77,13.45L14.79,13.4L15.03,12.63L15.04,12.58L15.05,12.53L15.13,11.69L15.13,11.64L15.13,11.59L15.05,10.76L15.04,10.71L15.03,10.66L14.79,9.884L14.77,9.837L14.75,9.794L14.37,9.09L14.35,9.047L14.32,9.01L13.81,8.397L13.78,8.36L13.75,8.329L13.14,7.823L13.1,7.792L13.06,7.769L12.36,7.387L12.31,7.363L12.27,7.348L11.49,7.107L11.45,7.092L11.4,7.087L10.57,7.003L10.52,6.997zM11.25,8.077L11.92,8.288L12.54,8.623L13.07,9.068L13.51,9.606L13.85,10.23L14.06,10.91L14.13,11.64L14.06,12.38L13.85,13.06L13.51,13.68L13.07,14.22L12.53,14.67L11.92,15L11.24,15.21L10.63,15.27L10.55,15.27L10.52,15.27L10.48,15.27L10.4,15.27L9.788,15.21L9.11,15L8.497,14.66L7.962,14.22L7.521,13.68L7.187,13.06L6.976,12.38L6.903,11.64L6.976,10.91L7.187,10.23L7.521,9.606L7.962,9.068L8.496,8.624L9.11,8.288L9.787,8.077L10.52,8.003zz" fill="#228BCB"/>
      <path d="M19,11L27,11L27,10L19,10zM19,14L27,14L27,13L19,13zM19,17L19.54,17L20.21,16.59L21,16.21L21.57,16L19,16zz" fill="#787979"/>
    </g>
    <g id="overlay">
      <path d="M24.5,31.5c3.866,0,7,-3.134,7,-7c0,-3.866,-3.134,-7,-7,-7s-7,3.134,-7,7C17.5,28.366,20.634,31.5,24.5,31.5zM24.5,19.863l3.995,3.944l-0.703,0.712L25,21.762V29h-1v-7.238l-2.792,2.757l-0.703,-0.712L24.5,19.863z" fill="#92CBEE"/>
      <path d="M24.5,31.5c3.866,0,7,-3.134,7,-7c0,-3.866,-3.134,-7,-7,-7s-7,3.134,-7,7C17.5,28.366,20.634,31.5,24.5,31.5zM24.5,19.863l3.995,3.944l-0.703,0.712L25,21.762V29h-1v-7.238l-2.792,2.757l-0.703,-0.712L24.5,19.863z" fill="#0964B0" opacity="0.2"/>
      <path d="M24.5,17c4.135,0,7.5,3.365,7.5,7.5s-3.365,7.5,-7.5,7.5s-7.5,-3.365,-7.5,-7.5S20.365,17,24.5,17zM24.5,31c3.584,0,6.5,-2.916,6.5,-6.5s-2.916,-6.5,-6.5,-6.5s-6.5,2.916,-6.5,6.5S20.916,31,24.5,31z" fill="#0964B0"/>
      <polygon points="24.5,19.863 28.495,23.808 27.792,24.519 25,21.762 25,29 24,29 24,21.762 21.208,24.519 20.505,23.808" fill="#FFFFFF" stroke-linejoin="miter"/>
    </g>
  </g>
</svg>
